<svg xmlns="http://www.w3.org/2000/svg" width="1920" height="800" preserveAspectRatio="xMidYMid" viewBox="0 0 1440 600"><defs><clipPath id="a"><path d="M326.32 228.285h51.754v51.758H326.32zm0 0"/></clipPath><clipPath id="b"><path d="M352.2 228.285c-14.294 0-25.88 11.586-25.88 25.88 0 14.292 11.586 25.878 25.88 25.878 14.288 0 25.874-11.586 25.874-25.879s-11.586-25.879-25.875-25.879m0 0"/></clipPath><clipPath id="c"><path d="M503.39 228.285h51.755v51.758H503.39zm0 0"/></clipPath><clipPath id="d"><path d="M529.266 228.285c-14.29 0-25.875 11.586-25.875 25.88 0 14.292 11.586 25.878 25.875 25.878 14.293 0 25.879-11.586 25.879-25.879s-11.586-25.879-25.88-25.879m0 0"/></clipPath><clipPath id="e"><path d="M326.152 305.586h51.754v51.758h-51.754zm0 0"/></clipPath><clipPath id="f"><path d="M352.027 305.586c-14.289 0-25.875 11.586-25.875 25.879s11.586 25.879 25.875 25.879c14.293 0 25.88-11.586 25.88-25.88 0-14.292-11.587-25.878-25.88-25.878m0 0"/></clipPath><clipPath id="g"><path d="M593.117 305.586h51.758v51.758h-51.758zm0 0"/></clipPath><clipPath id="h"><path d="M618.996 305.586c-14.293 0-25.879 11.586-25.879 25.879s11.586 25.879 25.88 25.879c14.292 0 25.878-11.586 25.878-25.88 0-14.292-11.586-25.878-25.879-25.878m0 0"/></clipPath><clipPath id="i"><path d="M414.445 449.191H466.2v51.754h-51.754zm0 0"/></clipPath><clipPath id="j"><path d="M440.32 449.191c-14.289 0-25.875 11.586-25.875 25.88 0 14.288 11.586 25.874 25.875 25.874 14.293 0 25.88-11.586 25.88-25.875 0-14.293-11.587-25.879-25.88-25.879m0 0"/></clipPath><clipPath id="k"><path d="M593.29 449.191h51.753v51.754h-51.754zm0 0"/></clipPath><clipPath id="l"><path d="M619.164 449.191c-14.289 0-25.875 11.586-25.875 25.88 0 14.288 11.586 25.874 25.875 25.874 14.293 0 25.879-11.586 25.879-25.875 0-14.293-11.586-25.879-25.879-25.879m0 0"/></clipPath><clipPath id="m"><path d="M593.29 228.285h51.753v51.758h-51.754zm0 0"/></clipPath><clipPath id="n"><path d="M619.164 228.285c-14.289 0-25.875 11.586-25.875 25.88 0 14.292 11.586 25.878 25.875 25.878 14.293 0 25.879-11.586 25.879-25.879s-11.586-25.879-25.879-25.879m0 0"/></clipPath><clipPath id="o"><path d="M771.793 449.191h51.754v51.754h-51.754zm0 0"/></clipPath><clipPath id="p"><path d="M797.672 449.191c-14.293 0-25.879 11.586-25.879 25.88 0 14.288 11.586 25.874 25.879 25.874 14.289 0 25.875-11.586 25.875-25.875 0-14.293-11.586-25.879-25.875-25.879m0 0"/></clipPath><clipPath id="q"><path d="M593.29 526.422h51.753v51.754h-51.754zm0 0"/></clipPath><clipPath id="r"><path d="M619.164 526.422c-14.289 0-25.875 11.586-25.875 25.879 0 14.289 11.586 25.875 25.875 25.875 14.293 0 25.879-11.586 25.879-25.875 0-14.293-11.586-25.88-25.879-25.88m0 0"/></clipPath><clipPath id="s"><path d="M683.367 526.422h51.754v51.754h-51.754zm0 0"/></clipPath><clipPath id="t"><path d="M709.242 526.422c-14.289 0-25.875 11.586-25.875 25.879 0 14.289 11.586 25.875 25.875 25.875 14.293 0 25.88-11.586 25.88-25.875 0-14.293-11.587-25.88-25.88-25.88m0 0"/></clipPath><clipPath id="u"><path d="M773.922 305.586h51.758v51.758h-51.758zm0 0"/></clipPath><clipPath id="v"><path d="M799.8 305.586c-14.292 0-25.878 11.586-25.878 25.879s11.586 25.879 25.879 25.879 25.879-11.586 25.879-25.88c0-14.292-11.586-25.878-25.88-25.878m0 0"/></clipPath><clipPath id="w"><path d="M862.988 526.422h51.758v51.754h-51.758zm0 0"/></clipPath><clipPath id="x"><path d="M888.867 526.422c-14.293 0-25.879 11.586-25.879 25.879 0 14.289 11.586 25.875 25.88 25.875 14.292 0 25.878-11.586 25.878-25.875 0-14.293-11.586-25.88-25.879-25.88m0 0"/></clipPath><clipPath id="y"><path d="M995.645 334.219h31.265v43.613h-31.265zm0 0"/></clipPath><clipPath id="z"><path d="M1058.172 203.387h31.266v174.445h-31.266zm0 0"/></clipPath><clipPath id="A"><path d="M1120.7 290.61h31.265v87.222h-31.266zm0 0"/></clipPath><clipPath id="B"><path d="M1183.227 334.219h31.265v43.613h-31.265zm0 0"/></clipPath></defs><path fill="none" stroke="#000" stroke-width="4.5" d="M263.348 499.754h991.278"/><path fill="none" stroke="#000" stroke-linecap="round" stroke-linejoin="round" stroke-width="4.5" d="m1245.626 493.004 9 6.75-9 6.75"/><g clip-path="url(#a)" transform="translate(-1.836 -105.234)"><g clip-path="url(#b)"><path fill="#5271ff" d="M326.32 228.285h51.754v51.758H326.32zm0 0"/></g></g><g clip-path="url(#c)" transform="translate(-1.836 -105.234)"><g clip-path="url(#d)"><path fill="#ffde59" d="M503.39 228.285h51.755v51.758H503.39zm0 0"/></g></g><g clip-path="url(#e)" transform="translate(-1.836 -105.234)"><g clip-path="url(#f)"><path fill="#5271ff" d="M326.152 305.586h51.754v51.758h-51.754zm0 0"/></g></g><g clip-path="url(#g)" transform="translate(-1.836 -105.234)"><g clip-path="url(#h)"><path fill="#ffde59" d="M593.117 305.586h51.758v51.758h-51.758zm0 0"/></g></g><g clip-path="url(#i)" transform="translate(-1.836 -105.234)"><g clip-path="url(#j)"><path fill="#5271ff" d="M414.445 449.191H466.2v51.754h-51.754zm0 0"/></g></g><path fill="none" stroke="#000" stroke-width="4.5" d="M376.239 148.93h123.066"/><path fill="none" stroke="#000" stroke-linecap="round" stroke-linejoin="round" stroke-width="4.5" d="m490.305 142.18 9 6.75-9 6.75"/><path fill="none" stroke="#000" stroke-width="4.5" d="M376.07 226.23h212.962"/><path fill="none" stroke="#000" stroke-linecap="round" stroke-linejoin="round" stroke-width="4.5" d="m580.032 219.48 9 6.75-9 6.75"/><g clip-path="url(#k)" transform="translate(-1.836 -105.234)"><g clip-path="url(#l)"><path fill="#ffde59" d="M593.29 449.191h51.753v51.754h-51.754zm0 0"/></g></g><g clip-path="url(#m)" transform="translate(-1.836 -105.234)"><g clip-path="url(#n)"><path fill="#ffde59" d="M593.29 228.285h51.753v51.758h-51.754zm0 0"/></g></g><path fill="none" stroke="#000" stroke-width="4.5" d="M350.364 123.05v-18c0-9.94 8.058-18 18-18h232.09c9.32 0 16.875 7.555 16.875 16.876V120.8"/><path fill="none" stroke="#000" stroke-linecap="round" stroke-linejoin="round" stroke-width="4.5" d="m624.079 111.8-6.75 9-6.75-9"/><path fill="none" stroke="#000" stroke-width="4.5" d="M464.364 369.836h124.84"/><path fill="none" stroke="#000" stroke-linecap="round" stroke-linejoin="round" stroke-width="4.5" d="m580.204 363.086 9 6.75-9 6.75"/><g clip-path="url(#o)" transform="translate(-1.836 -105.234)"><g clip-path="url(#p)"><path fill="#ffde59" d="M771.793 449.191h51.754v51.754h-51.754zm0 0"/></g></g><path fill="none" stroke="#000" stroke-width="4.5" d="M438.485 343.957v-16.965c0-9.37 7.597-16.969 16.969-16.969h324.539c8.75 0 15.843 7.094 15.843 15.844v15.84"/><path fill="none" stroke="#000" stroke-linecap="round" stroke-linejoin="round" stroke-width="4.5" d="m802.586 332.707-6.75 9-6.75-9"/><g clip-path="url(#q)" transform="translate(-1.836 -105.234)"><g clip-path="url(#r)"><path fill="#5271ff" d="M593.29 526.422h51.753v51.754h-51.754zm0 0"/></g></g><g clip-path="url(#s)" transform="translate(-1.836 -105.234)"><g clip-path="url(#t)"><path fill="#ffde59" d="M683.367 526.422h51.754v51.754h-51.754zm0 0"/></g></g><path fill="none" stroke="#000" stroke-width="4.5" d="M643.207 447.066h36.075"/><path fill="none" stroke="#000" stroke-linecap="round" stroke-linejoin="round" stroke-width="4.5" d="m670.282 440.316 9 6.75-9 6.75"/><g clip-path="url(#u)" transform="translate(-1.836 -105.234)"><g clip-path="url(#v)"><path fill="#ff914d" d="M773.922 305.586h51.758v51.758h-51.758zm0 0"/></g></g><path fill="none" stroke="#000" stroke-width="4.5" d="M643.04 226.23h126.796"/><path fill="none" stroke="#000" stroke-linecap="round" stroke-linejoin="round" stroke-width="4.5" d="m760.836 219.48 9 6.75-9 6.75"/><g clip-path="url(#w)" transform="translate(-1.836 -105.234)"><g clip-path="url(#x)"><path fill="#ff914d" d="M862.988 526.422h51.758v51.754h-51.758zm0 0"/></g></g><path fill="none" stroke="#000" stroke-width="4.5" d="M733.286 447.066h125.617"/><path fill="none" stroke="#000" stroke-linecap="round" stroke-linejoin="round" stroke-width="4.5" d="m849.903 440.316 9 6.75-9 6.75"/><path d="M190.968 487.864q3.686.002 6.329 1.328 2.653 1.313 4.093 4.016 1.437 2.704 1.438 6.781 0 4.095-1.438 6.797-1.44 2.707-4.093 4.031-2.643 1.313-6.329 1.313h-7.843v-24.266zm-.28 21.844q3.044 0 5.03-.938 1.999-.95 3.032-3.094 1.03-2.137 1.03-5.687 0-3.545-1.03-5.672-1.033-2.14-3.032-3.078-1.986-.951-5.03-.953h-4.704v19.422zm22.108 2.765q-2.707 0-4.22-1.406-1.516-1.406-1.515-4.031 0-1.624.672-2.75.67-1.126 2.078-1.828 1.419-.702 3.688-1.094c1.332-.219 2.343-.46 3.03-.734q1.03-.423 1.392-.938c.238-.344.359-.773.359-1.297 0-.82-.29-1.453-.86-1.89q-.845-.67-2.734-.672-1.782 0-3.062.687c-.844.461-1.621 1.14-2.328 2.047h-.329l-1.328-1.875q1.155-1.483 2.953-2.344 1.796-.874 4.094-.875c2.156 0 3.742.477 4.766 1.422q1.53 1.407 1.531 3.922v9.703c0 1.024.43 1.531 1.297 1.531q.434 0 .828-.14l.234.062.313 1.875q-.3.207-.781.313c-.325.07-.657.11-1 .11q-1.518.001-2.297-.673-.768-.668-.985-1.953l-.343-.047q-.786 1.457-2.11 2.172-1.329.703-3.343.703m.609-2.156q1.514 0 2.64-.703c.75-.469 1.32-1.129 1.72-1.984q.592-1.277.593-2.954v-2.328l-.312-.062q-.61.44-1.5.734-.878.282-2.454.516-1.594.205-2.53.656-.94.457-1.345 1.14-.39.692-.39 1.704 0 1.61.937 2.453c.633.555 1.516.828 2.64.828m14.456 9.578c-.624 0-1.21-.054-1.75-.156a5.6 5.6 0 0 1-1.374-.438l.5-2.14.297-.094q.403.187 1 .328.591.14 1.218.14 1.125-.001 1.844-.296.733-.3 1.25-.984.528-.69.984-1.907l.641-1.78-7.344-18.75h2.922l5.75 14.937h.313l5.578-14.938h2.781l-8.187 21.188q-.707 1.748-1.563 2.828-.862 1.077-2.047 1.562-1.172.499-2.812.5m116.472 31.185v-2.36h6.61v-18.562l-.376-.094q-1.61.797-2.828 1.219-1.207.422-3.093.828v-2.625a27 27 0 0 0 3.703-1.078 19.3 19.3 0 0 0 3.328-1.594h2.062v21.906h5.922v2.36Zm87.573-1.11q-.001-2.015.437-3.234.435-1.23 1.5-2.297 1.06-1.062 3.39-2.75l2.673-1.953q1.464-1.078 2.39-1.984a7.4 7.4 0 0 0 1.469-1.985q.546-1.078.547-2.406c0-1.438-.383-2.52-1.14-3.25q-1.144-1.092-3.595-1.094c-1.28 0-2.421.305-3.421.906q-1.488.891-2.375 2.532l-.391.062-1.703-1.797a8.9 8.9 0 0 1 3.219-3.125q1.999-1.139 4.671-1.14 2.591 0 4.297.89 1.717.88 2.532 2.438.81 1.548.812 3.578a6.9 6.9 0 0 1-.687 3.047q-.675 1.407-1.922 2.656-1.236 1.237-3.11 2.625l-2.718 1.969c-1 .742-1.774 1.37-2.313 1.89q-.813.784-1.187 1.532a3.6 3.6 0 0 0-.375 1.64h12.312v2.36h-15.312Zm96.554 1.453q-3.533 0-5.609-1.593-2.079-1.595-2.688-4.407l2.125-.968.375.062q.64 2.176 1.954 3.266 1.324 1.078 3.843 1.078c1.72 0 3.024-.39 3.922-1.172q1.343-1.186 1.344-3.484-.002-2.234-1.375-3.407-1.36-1.185-4.297-1.187h-2.64v-2.36h2.359q2.278.001 3.625-1.14 1.36-1.139 1.36-3.203c0-1.32-.391-2.313-1.173-2.969q-1.158-.984-3.265-.984-3.676.001-5.235 2.922l-.375.062-1.593-1.75q.966-1.671 2.812-2.703 1.841-1.032 4.39-1.031 2.312.001 3.954.734 1.641.72 2.484 2.078.844 1.361.844 3.25c0 1.2-.352 2.25-1.047 3.156q-1.033 1.347-2.734 2.125v.344q2.401.58 3.61 2.172 1.218 1.583 1.218 3.89 0 3.458-2.063 5.344c-1.367 1.25-3.406 1.875-6.125 1.875m95.055-.343h-2.703v-5.797h-11.375v-2.281l10.719-16.188h3.359v16.188h4.203v2.28h-4.203Zm-10.719-8.438.14.36h7.876v-12.25l-.375-.063zm95.852 8.781q-3.41 0-5.438-1.5-2.034-1.512-2.656-4.296l2.11-.954.39.063q.405 1.407 1.078 2.312.67.89 1.766 1.36 1.09.454 2.75.453 2.451.001 3.812-1.469c.914-.976 1.375-2.406 1.375-4.281q-.001-2.857-1.343-4.344-1.347-1.483-3.72-1.484-1.813.001-2.937.734-1.127.736-1.984 2.235l-2.297-.204.469-13.234h13.594v2.422h-11.11l-.281 8.047.344.062q.873-1.248 2.11-1.875 1.23-.623 2.952-.625 2.186 0 3.797.969 1.622.972 2.5 2.828.89 1.862.89 4.469-.001 2.594-1.015 4.469a6.9 6.9 0 0 1-2.875 2.859q-1.844.984-4.281.984m91.43 0q-2.58.001-4.625-1.234-2.035-1.231-3.266-4.016-1.22-2.794-1.219-7.234 0-4.294 1.219-7.094 1.23-2.794 3.328-4.093 2.11-1.297 4.828-1.297 4.654.001 6.875 2.843l-1.406 1.875h-.406q-1.8-2.156-5.063-2.156-3.158 0-4.828 2.39-1.657 2.38-1.656 7.61l.36.094q.983-2.062 2.577-3.094c1.063-.687 2.367-1.031 3.922-1.031q2.309 0 3.985.984 1.687.986 2.578 2.844c.601 1.23.906 2.684.906 4.36q-.002 2.532-1 4.39a6.8 6.8 0 0 1-2.828 2.86c-1.219.663-2.649 1-4.281 1m0-2.562c1.601 0 2.859-.484 3.765-1.453q1.36-1.466 1.36-4.235 0-2.765-1.36-4.218c-.906-.977-2.164-1.47-3.765-1.47q-1.658.002-2.875.673c-.805.449-1.422 1.101-1.86 1.953q-.656 1.268-.656 3.062 0 1.784.656 3.063c.438.855 1.055 1.508 1.86 1.953q1.217.673 2.875.672m86.617 2.218h-2.782l9.016-21.5-.094-.344h-11.843v-2.422h14.812v2.61zm90.187.343q-2.66 0-4.547-.843-1.89-.855-2.875-2.438-.97-1.593-.968-3.75-.002-2.31 1.14-3.86 1.154-1.543 3.39-2.421v-.344q-1.58-.95-2.437-2.203-.843-1.247-.843-2.969-.002-1.857.875-3.234.872-1.39 2.5-2.14 1.622-.765 3.765-.766 2.138.001 3.766.765 1.622.751 2.5 2.14.89 1.378.89 3.235-.001 1.722-.875 2.969-.86 1.254-2.437 2.203v.344c1.508.586 2.644 1.39 3.406 2.422q1.139 1.548 1.14 3.86 0 2.172-.984 3.75-.972 1.58-2.859 2.437-1.893.843-4.547.843m0-14.421q1.296.001 2.281-.485a3.66 3.66 0 0 0 1.532-1.422q.562-.92.562-2.156c0-.844-.187-1.57-.562-2.187a3.67 3.67 0 0 0-1.547-1.438q-1.001-.499-2.266-.5-2.018 0-3.203 1.11-1.172 1.094-1.172 3.015 0 1.894 1.172 2.984 1.187 1.08 3.203 1.079m0 11.921c1.75 0 3.086-.414 4.016-1.25q1.39-1.248 1.39-3.468c0-1.47-.464-2.618-1.39-3.453q-1.393-1.266-4.016-1.266-2.625 0-4.031 1.266c-.93.835-1.39 1.984-1.39 3.453 0 1.48.46 2.636 1.39 3.468.937.836 2.281 1.25 4.031 1.25m90.289 2.5c-2.105 0-3.812-.476-5.125-1.437q-1.97-1.436-2.5-3.938l2.11-.968.375.078q.59 1.844 1.796 2.781 1.201.924 3.344.922 3.014.002 4.61-2.516 1.593-2.529 1.593-7.812l-.343-.11q-1.02 2.08-2.579 3.11c-1.043.68-2.355 1.015-3.937 1.015q-2.267 0-3.953-.984a6.63 6.63 0 0 1-2.594-2.797q-.907-1.81-.906-4.219-.001-2.404 1-4.234a6.96 6.96 0 0 1 2.828-2.844q1.827-1.014 4.281-1.015 4.265 0 6.672 2.89 2.42 2.878 2.422 9.313-.001 4.359-1.156 7.219c-.762 1.898-1.82 3.296-3.172 4.203q-2.034 1.345-4.766 1.343m0-11.375c1.094 0 2.04-.21 2.844-.64a4.36 4.36 0 0 0 1.875-1.89q.656-1.248.656-2.97 0-1.733-.656-2.968a4.5 4.5 0 0 0-1.875-1.907c-.805-.437-1.75-.656-2.844-.656-1.605 0-2.867.477-3.781 1.422q-1.36 1.425-1.36 4.11 0 2.688 1.36 4.093 1.372 1.406 3.781 1.406m83.071 11.032v-2.36h6.609v-18.562l-.375-.094q-1.61.797-2.828 1.219-1.207.422-3.094.828v-2.625a27 27 0 0 0 3.703-1.078 19.3 19.3 0 0 0 3.328-1.594h2.063v21.906h5.922v2.36Zm28.296.343c-1.781 0-3.383-.425-4.797-1.28q-2.125-1.278-3.39-4.079-1.266-2.795-1.266-7.125c0-2.875.422-5.242 1.266-7.11q1.264-2.794 3.39-4.077c1.414-.864 3.016-1.297 4.797-1.297q2.672 0 4.797 1.297 2.122 1.282 3.375 4.078 1.249 2.798 1.25 7.109-.001 4.33-1.25 7.125-1.253 2.801-3.375 4.078-2.125 1.282-4.797 1.281m0-2.64q3.17.002 4.797-2.281 1.64-2.28 1.64-7.563 0-5.28-1.64-7.562-1.628-2.281-4.797-2.282-2.096 0-3.531.969-1.423.956-2.172 3.14-.75 2.174-.75 5.735 0 3.581.75 5.75.75 2.174 2.172 3.14 1.435.955 3.531.954m-523.482-115.22v-2.36h6.61v-18.562l-.375-.094q-1.61.796-2.828 1.219-1.207.422-3.094.828v-2.625a27 27 0 0 0 3.703-1.078 19.3 19.3 0 0 0 3.328-1.594h2.063v21.906h5.921v2.36ZM520.1 352.605q-.001-2.016.437-3.235.433-1.23 1.5-2.296 1.06-1.061 3.39-2.75l2.672-1.954q1.466-1.076 2.39-1.984a7.4 7.4 0 0 0 1.47-1.984q.546-1.077.547-2.407c0-1.437-.383-2.52-1.141-3.25-.762-.726-1.961-1.093-3.594-1.093q-1.922.001-3.422.906-1.486.89-2.375 2.531l-.39.063-1.703-1.797a8.9 8.9 0 0 1 3.218-3.125q1.998-1.139 4.672-1.14 2.591 0 4.297.89 1.717.879 2.531 2.437.812 1.55.813 3.578a6.9 6.9 0 0 1-.688 3.047q-.674 1.408-1.922 2.657-1.235 1.236-3.109 2.625l-2.719 1.968q-1.502 1.113-2.312 1.891-.814.783-1.188 1.531a3.6 3.6 0 0 0-.375 1.64h12.313v2.36h-15.313ZM483.423 213q-3.533 0-5.61-1.593t-2.687-4.406l2.125-.969.375.063q.64 2.175 1.953 3.265 1.324 1.078 3.844 1.078 2.577 0 3.922-1.171 1.343-1.187 1.344-3.485-.002-2.233-1.375-3.406-1.36-1.186-4.297-1.188h-2.64v-2.359h2.359q2.278 0 3.625-1.14c.906-.758 1.36-1.829 1.36-3.204 0-1.32-.392-2.312-1.173-2.968q-1.159-.985-3.265-.985c-2.45 0-4.196.977-5.235 2.922l-.375.063-1.594-1.75q.967-1.671 2.813-2.704 1.84-1.03 4.39-1.03 2.312 0 3.954.734 1.64.719 2.484 2.078.844 1.361.844 3.25c0 1.199-.352 2.25-1.047 3.156q-1.034 1.346-2.734 2.125v.344q2.401.578 3.609 2.172 1.219 1.581 1.219 3.89 0 3.457-2.063 5.344c-1.367 1.25-3.406 1.875-6.125 1.875m-52.8-78.684q-.001-2.016.437-3.234.435-1.23 1.5-2.297 1.06-1.061 3.39-2.75l2.673-1.953q1.464-1.078 2.39-1.985a7.4 7.4 0 0 0 1.47-1.984q.545-1.078.546-2.406c0-1.438-.383-2.52-1.14-3.25q-1.145-1.092-3.594-1.094c-1.282 0-2.422.305-3.422.906q-1.487.891-2.375 2.532l-.39.062-1.704-1.797a8.9 8.9 0 0 1 3.219-3.125q1.998-1.139 4.672-1.14 2.59 0 4.296.89 1.717.88 2.532 2.438.81 1.548.812 3.578a6.9 6.9 0 0 1-.687 3.047q-.675 1.407-1.922 2.656-1.236 1.237-3.11 2.625l-2.718 1.969c-1 .742-1.774 1.37-2.313 1.89q-.813.784-1.187 1.532a3.6 3.6 0 0 0-.375 1.64h12.312v2.36h-15.312Zm52.969-60.772q-3.533 0-5.61-1.593-2.078-1.594-2.687-4.407l2.125-.968.375.062q.64 2.176 1.954 3.266 1.324 1.078 3.843 1.078 2.577 0 3.922-1.172 1.343-1.186 1.344-3.484c0-1.489-.461-2.625-1.375-3.407q-1.36-1.185-4.297-1.187h-2.64v-2.36h2.359q2.278.001 3.625-1.14 1.36-1.139 1.36-3.203c0-1.32-.391-2.313-1.173-2.969q-1.159-.984-3.265-.984-3.676.002-5.235 2.921l-.375.063-1.593-1.75q.966-1.671 2.812-2.703 1.841-1.032 4.39-1.031 2.312.001 3.954.734 1.641.72 2.484 2.078.844 1.361.844 3.25c0 1.2-.352 2.25-1.047 3.156-.687.899-1.602 1.606-2.734 2.125v.344q2.401.58 3.609 2.172 1.22 1.583 1.219 3.89 0 3.458-2.063 5.344c-1.367 1.25-3.406 1.875-6.125 1.875m138.64 218.771h-2.703v-5.796h-11.375v-2.282l10.719-16.187h3.36v16.187h4.202v2.282h-4.203Zm-10.719-8.437.141.36h7.875v-12.25l-.375-.063zm78.7-72.331q-.001-2.016.437-3.235.435-1.23 1.5-2.296 1.06-1.061 3.39-2.75l2.673-1.954q1.464-1.076 2.39-1.984a7.4 7.4 0 0 0 1.469-1.984q.546-1.078.547-2.407c0-1.437-.383-2.52-1.14-3.25q-1.145-1.091-3.595-1.093-1.92.002-3.421.906-1.488.89-2.375 2.531l-.391.063-1.703-1.797a8.9 8.9 0 0 1 3.219-3.125q1.999-1.138 4.671-1.14 2.591 0 4.297.89 1.717.879 2.532 2.437.81 1.55.812 3.578a6.9 6.9 0 0 1-.687 3.047q-.675 1.408-1.922 2.657-1.236 1.236-3.11 2.625l-2.718 1.968c-1 .742-1.774 1.371-2.313 1.89q-.813.784-1.187 1.532a3.6 3.6 0 0 0-.375 1.64h12.312v2.36h-15.312ZM788.5 432.453q0-2.016.438-3.234.435-1.23 1.5-2.297 1.06-1.061 3.39-2.75l2.673-1.953q1.464-1.078 2.39-1.985a7.4 7.4 0 0 0 1.469-1.984q.546-1.078.547-2.406c0-1.438-.383-2.52-1.14-3.25q-1.145-1.092-3.595-1.094c-1.28 0-2.421.305-3.421.906q-1.488.891-2.375 2.532l-.391.062-1.703-1.797a8.9 8.9 0 0 1 3.219-3.125q1.999-1.138 4.671-1.14 2.591 0 4.297.89 1.718.88 2.532 2.438.81 1.548.812 3.578a6.9 6.9 0 0 1-.687 3.047q-.675 1.407-1.922 2.656-1.236 1.237-3.11 2.625l-2.718 1.969c-1 .742-1.774 1.37-2.313 1.89q-.813.784-1.187 1.532a3.6 3.6 0 0 0-.375 1.64h12.312v2.36h-15.312Zm213.304-117.875v-2.36h6.61v-18.562l-.376-.094q-1.61.797-2.828 1.22-1.207.422-3.093.827v-2.625a27 27 0 0 0 3.703-1.078 19.3 19.3 0 0 0 3.328-1.594h2.062v21.907h5.922v2.359Zm62.736-1.109q0-2.016.438-3.235.435-1.23 1.5-2.297 1.06-1.062 3.39-2.75l2.673-1.953q1.464-1.077 2.39-1.984a7.4 7.4 0 0 0 1.47-1.985q.544-1.077.546-2.406c0-1.437-.383-2.52-1.14-3.25-.762-.726-1.962-1.094-3.594-1.094-1.282 0-2.422.305-3.422.907q-1.487.89-2.375 2.53l-.39.063-1.704-1.796a8.9 8.9 0 0 1 3.219-3.125c1.332-.758 2.89-1.141 4.672-1.141q2.59 0 4.296.89 1.717.88 2.532 2.438c.539 1.031.812 2.227.812 3.578a6.9 6.9 0 0 1-.687 3.047q-.674 1.408-1.922 2.656-1.236 1.238-3.11 2.625l-2.718 1.97c-1 .741-1.774 1.37-2.313 1.89-.543.523-.937 1.03-1.187 1.53a3.6 3.6 0 0 0-.375 1.642h12.312v2.359h-15.312Zm69.922 1.453q-3.534 0-5.61-1.594-2.078-1.594-2.687-4.406l2.125-.97.375.063q.64 2.176 1.953 3.266 1.324 1.078 3.844 1.078c1.719 0 3.023-.39 3.922-1.172.894-.789 1.344-1.953 1.344-3.484 0-1.488-.461-2.625-1.375-3.406q-1.361-1.187-4.297-1.188h-2.64v-2.36h2.359q2.278.002 3.625-1.14 1.359-1.139 1.359-3.203 0-1.982-1.172-2.969-1.158-.984-3.266-.984c-2.449 0-4.195.977-5.234 2.922l-.375.062-1.594-1.75q.967-1.67 2.813-2.703 1.84-1.03 4.39-1.031 2.311.001 3.954.734 1.64.72 2.484 2.078c.562.907.844 1.993.844 3.25 0 1.2-.352 2.25-1.047 3.157q-1.034 1.346-2.735 2.125v.343q2.403.58 3.61 2.172 1.218 1.583 1.219 3.89 0 3.458-2.063 5.345c-1.367 1.25-3.406 1.875-6.125 1.875m67.359-.344h-2.703v-5.797h-11.375V306.5l10.719-16.188h3.359V306.5h4.203v2.281h-4.203Zm-10.719-8.438.14.36h7.876v-12.25l-.375-.063zm-232.315-21.032q-2.675.001-4.797-1.282-2.126-1.276-3.39-4.078-1.267-2.795-1.266-7.125 0-4.31 1.265-7.109 1.265-2.795 3.39-4.078 2.124-1.296 4.798-1.297 2.67.001 4.797 1.297 2.121 1.283 3.375 4.078c.832 1.867 1.25 4.234 1.25 7.11q-.001 4.33-1.25 7.124-1.254 2.802-3.375 4.078-2.126 1.283-4.797 1.282m0-2.64q3.168.001 4.797-2.282 1.64-2.28 1.64-7.563 0-5.279-1.64-7.562-1.628-2.28-4.797-2.281-2.098.001-3.532.968-1.422.955-2.171 3.141-.75 2.174-.75 5.734 0 3.582.75 5.75.749 2.174 2.171 3.141 1.435.954 3.532.953m-5.809-41.313v-2.36h6.61v-18.562l-.375-.094q-1.61.796-2.828 1.219-1.207.422-3.094.828v-2.625a27 27 0 0 0 3.703-1.078 19.3 19.3 0 0 0 3.328-1.594h2.063v21.906h5.921v2.36Zm.102-44.72q-.001-2.016.437-3.235.433-1.23 1.5-2.297 1.06-1.061 3.39-2.75l2.672-1.953q1.466-1.077 2.391-1.984a7.4 7.4 0 0 0 1.469-1.984q.546-1.078.547-2.407c0-1.437-.383-2.52-1.14-3.25q-1.145-1.091-3.595-1.093-1.921.002-3.422.906c-.992.594-1.78 1.437-2.375 2.531l-.39.063-1.703-1.797a8.9 8.9 0 0 1 3.218-3.125q2-1.139 4.672-1.141 2.591 0 4.297.89 1.717.88 2.531 2.438c.54 1.031.813 2.227.813 3.578a6.9 6.9 0 0 1-.688 3.047q-.674 1.407-1.921 2.656-1.236 1.237-3.11 2.625l-2.719 1.97q-1.502 1.11-2.312 1.89-.814.783-1.188 1.531a3.6 3.6 0 0 0-.375 1.64h12.313v2.36h-15.313Zm6.962-42.158q-3.534 0-5.609-1.593-2.08-1.595-2.687-4.407l2.125-.968.375.062q.639 2.176 1.953 3.266 1.324 1.077 3.843 1.078c1.72 0 3.024-.39 3.922-1.172q1.343-1.186 1.344-3.484-.001-2.234-1.375-3.407-1.36-1.185-4.297-1.187h-2.64v-2.36h2.359q2.278.002 3.625-1.14 1.36-1.139 1.36-3.203c0-1.32-.391-2.313-1.173-2.97q-1.158-.983-3.265-.983-3.676.002-5.235 2.921l-.375.063-1.593-1.75q.966-1.671 2.812-2.703 1.842-1.031 4.39-1.031 2.312.001 3.954.734 1.641.72 2.484 2.078.844 1.361.844 3.25c0 1.2-.352 2.25-1.047 3.156q-1.033 1.347-2.734 2.125v.344q2.401.58 3.61 2.172 1.218 1.582 1.218 3.89 0 3.457-2.063 5.344-2.048 1.875-6.125 1.875m3.862-43.954h-2.703v-5.797h-11.375v-2.281l10.719-16.188h3.36v16.188h4.202v2.281h-4.203Zm-10.718-8.437.14.359h7.875v-12.25l-.375-.063zm0 0"/><g clip-path="url(#y)" transform="translate(-1.836 -105.234)"><path fill="#5e17eb" d="M995.645 334.219h31.265v43.613h-31.265zm0 0"/></g><g clip-path="url(#z)" transform="translate(-1.836 -105.234)"><path fill="#5e17eb" d="M1058.172 203.387h31.266v174.445h-31.266zm0 0"/></g><g clip-path="url(#A)" transform="translate(-1.836 -105.234)"><path fill="#5e17eb" d="M1120.7 290.61h31.265v87.222h-31.266zm0 0"/></g><g clip-path="url(#B)" transform="translate(-1.836 -105.234)"><path fill="#5e17eb" d="M1183.227 334.219h31.265v43.613h-31.265zm0 0"/></g></svg>