<svg xmlns="http://www.w3.org/2000/svg" xmlns:xlink="http://www.w3.org/1999/xlink" width="396" height="288" viewBox="0 0 396 288"><defs><clipPath id="a"><path d="M5.48 5.48h385.043v104.13H5.48Zm0 0"/></clipPath><clipPath id="b"><path d="M56.238 10.957H385.04v90.43H56.24Zm0 0"/></clipPath><clipPath id="c"><path d="M56.238 85H385.04v1H56.24Zm0 0"/></clipPath><clipPath id="d"><path d="M56.238 61H385.04v1H56.24Zm0 0"/></clipPath><clipPath id="e"><path d="M56.238 37H385.04v1H56.24Zm0 0"/></clipPath><clipPath id="f"><path d="M56.238 13H385.04v2H56.24Zm0 0"/></clipPath><clipPath id="g"><path d="M64 10.957h1v90.43h-1Zm0 0"/></clipPath><clipPath id="h"><path d="M95 10.957h2v90.43h-2Zm0 0"/></clipPath><clipPath id="i"><path d="M127 10.957h2v90.43h-2Zm0 0"/></clipPath><clipPath id="j"><path d="M159 10.957h1v90.43h-1Zm0 0"/></clipPath><clipPath id="k"><path d="M190 10.957h2v90.43h-2Zm0 0"/></clipPath><clipPath id="l"><path d="M222 10.957h2v90.43h-2Zm0 0"/></clipPath><clipPath id="m"><path d="M254 10.957h1v90.43h-1Zm0 0"/></clipPath><clipPath id="n"><path d="M286 10.957h1v90.43h-1Zm0 0"/></clipPath><clipPath id="o"><path d="M317 10.957h2v90.43h-2Zm0 0"/></clipPath><clipPath id="p"><path d="M349 10.957h1v90.43h-1Zm0 0"/></clipPath><clipPath id="q"><path d="M381 10.957h1v90.43h-1Zm0 0"/></clipPath><clipPath id="r"><path d="M56.238 96H385.04v2H56.24Zm0 0"/></clipPath><clipPath id="s"><path d="M56.238 72H385.04v2H56.24Zm0 0"/></clipPath><clipPath id="t"><path d="M56.238 49H385.04v2H56.24Zm0 0"/></clipPath><clipPath id="u"><path d="M56.238 25H385.04v2H56.24Zm0 0"/></clipPath><clipPath id="v"><path d="M79 10.957h2v90.43h-2Zm0 0"/></clipPath><clipPath id="w"><path d="M111 10.957h2v90.43h-2Zm0 0"/></clipPath><clipPath id="x"><path d="M143 10.957h2v90.43h-2Zm0 0"/></clipPath><clipPath id="y"><path d="M174 10.957h2v90.43h-2Zm0 0"/></clipPath><clipPath id="z"><path d="M206 10.957h2v90.43h-2Zm0 0"/></clipPath><clipPath id="A"><path d="M238 10.957h2v90.43h-2Zm0 0"/></clipPath><clipPath id="B"><path d="M269 10.957h2v90.43h-2Zm0 0"/></clipPath><clipPath id="C"><path d="M301 10.957h2v90.43h-2Zm0 0"/></clipPath><clipPath id="D"><path d="M333 10.957h2v90.43h-2Zm0 0"/></clipPath><clipPath id="E"><path d="M365 10.957h2v90.43h-2Zm0 0"/></clipPath><clipPath id="F"><path d="M337 10.957h2v90.43h-2Zm0 0"/></clipPath><clipPath id="G"><path d="M192 10.957h2v90.43h-2Zm0 0"/></clipPath><clipPath id="H"><path d="M56.238 10.957H385.04v90.43H56.24Zm0 0"/></clipPath><clipPath id="Y"><path d="M5.48 109.605h385.043V282.52H5.48Zm0 0"/></clipPath><clipPath id="Z"><path d="M56.238 115.086H385.04v90.43H56.24Zm0 0"/></clipPath><clipPath id="aa"><path d="M56.238 192H385.04v1H56.24Zm0 0"/></clipPath><clipPath id="ab"><path d="M56.238 173H385.04v2H56.24Zm0 0"/></clipPath><clipPath id="ac"><path d="M56.238 155H385.04v2H56.24Zm0 0"/></clipPath><clipPath id="ad"><path d="M56.238 137H385.04v2H56.24Zm0 0"/></clipPath><clipPath id="ae"><path d="M56.238 119H385.04v2H56.24Zm0 0"/></clipPath><clipPath id="af"><path d="M64 115.086h1v90.43h-1Zm0 0"/></clipPath><clipPath id="ag"><path d="M95 115.086h2v90.43h-2Zm0 0"/></clipPath><clipPath id="ah"><path d="M127 115.086h2v90.43h-2Zm0 0"/></clipPath><clipPath id="ai"><path d="M159 115.086h1v90.43h-1Zm0 0"/></clipPath><clipPath id="aj"><path d="M190 115.086h2v90.43h-2Zm0 0"/></clipPath><clipPath id="ak"><path d="M222 115.086h2v90.43h-2Zm0 0"/></clipPath><clipPath id="al"><path d="M254 115.086h1v90.43h-1Zm0 0"/></clipPath><clipPath id="am"><path d="M286 115.086h1v90.43h-1Zm0 0"/></clipPath><clipPath id="an"><path d="M317 115.086h2v90.43h-2Zm0 0"/></clipPath><clipPath id="ao"><path d="M349 115.086h1v90.43h-1Zm0 0"/></clipPath><clipPath id="ap"><path d="M381 115.086h1v90.43h-1Zm0 0"/></clipPath><clipPath id="aq"><path d="M56.238 200H385.04v2H56.24Zm0 0"/></clipPath><clipPath id="ar"><path d="M56.238 182H385.04v2H56.24Zm0 0"/></clipPath><clipPath id="as"><path d="M56.238 164H385.04v2H56.24Zm0 0"/></clipPath><clipPath id="at"><path d="M56.238 146H385.04v2H56.24Zm0 0"/></clipPath><clipPath id="au"><path d="M56.238 128H385.04v2H56.24Zm0 0"/></clipPath><clipPath id="av"><path d="M79 115.086h2v90.43h-2Zm0 0"/></clipPath><clipPath id="aw"><path d="M111 115.086h2v90.43h-2Zm0 0"/></clipPath><clipPath id="ax"><path d="M143 115.086h2v90.43h-2Zm0 0"/></clipPath><clipPath id="ay"><path d="M174 115.086h2v90.43h-2Zm0 0"/></clipPath><clipPath id="az"><path d="M206 115.086h2v90.43h-2Zm0 0"/></clipPath><clipPath id="aA"><path d="M238 115.086h2v90.43h-2Zm0 0"/></clipPath><clipPath id="aB"><path d="M269 115.086h2v90.43h-2Zm0 0"/></clipPath><clipPath id="aC"><path d="M301 115.086h2v90.43h-2Zm0 0"/></clipPath><clipPath id="aD"><path d="M333 115.086h2v90.43h-2Zm0 0"/></clipPath><clipPath id="aE"><path d="M365 115.086h2v90.43h-2Zm0 0"/></clipPath><clipPath id="aF"><path d="M337 115.086h2v90.43h-2Zm0 0"/></clipPath><clipPath id="aG"><path d="M56.238 164H385.04v2H56.24Zm0 0"/></clipPath><clipPath id="aH"><path d="M192 115.086h2v90.43h-2Zm0 0"/></clipPath><clipPath id="aK"><path d="M56.238 115.086H385.04v90.43H56.24Zm0 0"/></clipPath><path id="I" d="M.367-3.105c0-.747.074-1.344.227-1.801q.234-.68.683-1.051.456-.368 1.141-.367.51-.001.89.203.382.204.633.59.248.38.391.937.14.551.14 1.489.001 1.108-.226 1.789t-.684 1.05Q3.112.11 2.419.11 1.51.11.988-.547q-.62-.784-.62-2.558m.792 0c0 1.03.121 1.722.363 2.062q.364.516.895.516.534 0 .898-.516t.364-2.062q0-1.559-.364-2.067-.362-.514-.906-.512-.531 0-.851.45-.399.574-.399 2.129m0 0"/><path id="J" d="M4.43-.742V0H.266a1.4 1.4 0 0 1 .09-.54c.105-.28.277-.562.511-.835.23-.273.57-.594 1.012-.953q1.024-.844 1.387-1.336.361-.491.359-.93c0-.304-.11-.566-.328-.773q-.328-.317-.856-.317-.561 0-.894.332-.334.34-.34.93l-.793-.082c.055-.594.258-1.043.613-1.355q.534-.464 1.43-.465c.606 0 1.082.168 1.438.5q.527.506.527 1.246.002.379-.156.746-.154.364-.512.77-.359.403-1.191 1.105-.696.586-.895.793-.2.21-.328.422Zm0 0"/><path id="K" d="M.781 0v-.883h.883V0q-.001.486-.172.785-.174.299-.547.461L.73.914a.7.7 0 0 0 .36-.316Q1.206.393 1.219 0Zm0 0"/><path id="L" d="M2.844 0v-1.508H.114v-.71l2.874-4.083h.63v4.082h.85v.711h-.85V0zm0-2.219v-2.84L.87-2.219Zm0 0"/><path id="M" d="m4.379-4.758-.77.063q-.105-.456-.293-.664a1.02 1.02 0 0 0-.773-.328q-.368-.001-.648.203c-.243.18-.434.437-.575.78q-.212.51-.218 1.454a1.8 1.8 0 0 1 .683-.629q.401-.206.844-.207.776-.002 1.316.57.547.569.547 1.47 0 .596-.258 1.105a1.9 1.9 0 0 1-.703.777Q3.084.108 2.52.109 1.552.11.94-.605.332-1.315.332-2.95q0-1.824.672-2.653c.394-.484.922-.722 1.586-.722q.744-.002 1.219.414.475.42.57 1.152M1.219-2.04q0 .399.172.762.17.367.472.558c.203.125.418.192.64.192q.493 0 .845-.399.351-.392.351-1.074-.001-.651-.347-1.027a1.14 1.14 0 0 0-.875-.375q-.528 0-.891.375c-.242.25-.367.578-.367.988m0 0"/><path id="aL" d="M.8 0v-.883h.88V0Zm0 0"/><path id="aM" d="m.367-1.648.809-.07q.093.59.422.89.325.3.793.3.556 0 .945-.421.387-.421.387-1.117 0-.663-.375-1.043c-.246-.258-.57-.383-.973-.383q-.374-.002-.672.168-.304.17-.473.441l-.726-.094.61-3.238h3.132v.742H1.73L1.39-3.78q.57-.394 1.192-.395.826.002 1.395.57.564.574.566 1.47-.001.854-.5 1.48Q3.44.109 2.391.11C1.816.11 1.348-.055.984-.375Q.444-.856.367-1.648m0 0"/><path id="aN" d="M3.277 0h-.773v-4.93c-.184.18-.43.356-.73.535a5.5 5.5 0 0 1-.817.399v-.746a4.7 4.7 0 0 0 1.137-.742c.324-.29.55-.57.687-.84h.496Zm0 0"/><path id="bl" d="M.695 0v-6.3H5.25v.745H1.531v1.93h3.485v.738H1.53v2.145h3.867V0Zm0 0"/><path id="bm" d="m.27-1.363.765-.121q.065.462.36.707.291.246.824.246t.789-.219q.258-.216.258-.508a.47.47 0 0 0-.227-.414q-.159-.104-.793-.262-.85-.214-1.18-.37a1.15 1.15 0 0 1-.496-.434 1.16 1.16 0 0 1-.172-.614q0-.303.141-.566.14-.259.379-.43.182-.134.492-.226a2.3 2.3 0 0 1 .668-.094c.36 0 .676.055.945.156q.406.154.598.418.193.266.27.707l-.758.106a.82.82 0 0 0-.301-.551q-.245-.2-.695-.2-.534 0-.762.177t-.227.414a.42.42 0 0 0 .094.27.7.7 0 0 0 .297.206q.116.04.684.2c.547.144.925.265 1.144.355.215.094.387.23.508.406.125.18.184.399.188.664q-.005.387-.227.727-.226.344-.652.531a2.4 2.4 0 0 1-.961.184Q1.33.102.867-.266.398-.636.27-1.363m0 0"/><path id="bn" d="m2.27-.691.109.683a2.7 2.7 0 0 1-.582.067q-.423.001-.652-.133a.72.72 0 0 1-.329-.348Q.723-.639.723-1.336V-3.96H.156v-.602h.567v-1.132l.77-.461v1.593h.777v.602h-.778v2.668q-.001.33.04.426.04.094.132.148.095.06.266.059.129-.001.34-.031m0 0"/><path id="bo" d="M.586-5.41v-.89h.773v.89zm0 5.41v-4.562h.773V0Zm0 0"/><path id="bp" d="M.578 0v-4.562h.695v.64q.212-.34.57-.539a1.6 1.6 0 0 1 .813-.207q.504 0 .832.211.322.21.457.59c.36-.531.828-.801 1.41-.801.45 0 .801.125 1.043.379q.364.376.364 1.156V0h-.766v-2.875q0-.463-.078-.668a.64.64 0 0 0-.273-.328.85.85 0 0 0-.461-.125q-.486-.001-.801.32-.317.322-.317 1.024V0h-.773v-2.965q-.002-.515-.191-.773-.188-.258-.618-.258-.326.001-.605.172a1 1 0 0 0-.402.504c-.082.218-.125.539-.125.953V0Zm0 0"/><path id="bq" d="M3.559-.562a3 3 0 0 1-.829.515c-.265.102-.55.149-.851.149q-.754 0-1.156-.368a1.2 1.2 0 0 1-.407-.937 1.26 1.26 0 0 1 .555-1.059q.245-.165.555-.254.23-.06.687-.113.938-.112 1.38-.266.004-.162.003-.203c0-.316-.07-.539-.219-.668-.195-.171-.488-.261-.879-.261q-.545.002-.804.191-.264.195-.387.676l-.754-.102q.101-.486.336-.785.24-.299.684-.457.45-.165 1.035-.164.584 0 .953.14c.242.09.422.208.535.344q.17.212.242.528.036.198.035.71v1.032c0 .723.02 1.176.051 1.367.035.192.098.371.196.547h-.81a1.7 1.7 0 0 1-.151-.562M3.492-2.29c-.281.113-.699.21-1.262.289-.32.047-.542.098-.675.156a.67.67 0 0 0-.305.25.7.7 0 0 0-.105.367q0 .311.234.516.233.209.684.207c.296 0 .562-.062.796-.195.23-.13.403-.309.508-.535q.127-.258.125-.774Zm0 0"/><path id="br" d="m3.703-1.469.8.098c-.124.469-.358.828-.698 1.086Q3.29.102 2.496.102q-1 0-1.586-.614C.52-.926.32-1.5.32-2.242c0-.77.2-1.363.594-1.79.398-.421.91-.636 1.54-.636.608 0 1.108.211 1.495.625q.58.622.578 1.754.001.066-.004.203H1.121c.027.504.172.887.426 1.152q.383.404.953.403.427.001.727-.227.3-.224.476-.71m-2.539-1.25h2.547q-.048-.579-.29-.864-.368-.45-.96-.45c-.356 0-.652.122-.895.356q-.362.36-.402.957m0 0"/><path id="bs" d="M1.293 0H.574v-6.3h.774v2.25q.492-.617 1.254-.618.416.001.796.172.376.17.618.476.242.308.379.743.138.433.136.925.001 1.173-.578 1.813c-.387.43-.851.64-1.39.64q-.808.001-1.27-.671zm-.008-2.316q0 .818.223 1.187.365.598.988.598c.34 0 .629-.149.879-.442q.368-.44.367-1.312c0-.598-.117-1.035-.355-1.32q-.352-.427-.856-.426-.508 0-.875.441c-.25.293-.37.719-.37 1.274m0 0"/><path id="bt" d="M3.54 0v-.574Q3.103.1 2.265.102 1.719.104 1.262-.2a2 2 0 0 1-.711-.84Q.3-1.577.3-2.277q0-.684.227-1.239.229-.556.684-.855a1.85 1.85 0 0 1 1.02-.297q.41 0 .734.176c.215.117.39.265.523.453v-2.262h.77V0zM1.094-2.277q.001.878.37 1.308.372.439.872.438.508 0 .863-.418.354-.412.356-1.262 0-.938-.364-1.379-.358-.435-.886-.437-.517 0-.864.422-.346.42-.347 1.328m0 0"/><path id="bu" d="M.293-2.281q0-1.268.703-1.88c.395-.335.871-.507 1.438-.507q.937.001 1.535.617.597.617.597 1.703 0 .884-.261 1.387a1.9 1.9 0 0 1-.77.785 2.2 2.2 0 0 1-1.101.278q-.96 0-1.551-.614-.591-.615-.59-1.77m.793 0c0 .583.129 1.024.383 1.313q.383.437.965.438.575-.001.957-.442.382-.433.382-1.336c0-.562-.128-.992-.386-1.28a1.22 1.22 0 0 0-.953-.438q-.582 0-.965.433-.382.434-.383 1.313m0 0"/><path id="bv" d="M.578 0v-4.562h.7v.648c.331-.5.816-.754 1.449-.754q.415 0 .761.148.346.151.516.391c.117.16.195.352.242.57q.042.216.043.754V0h-.773v-2.777q-.002-.471-.09-.707a.76.76 0 0 0-.32-.371 1 1 0 0 0-.54-.141 1.27 1.27 0 0 0-.855.312q-.358.315-.36 1.192V0Zm0 0"/><path id="bx" d="M.578 1.75v-6.312h.707v.593a1.7 1.7 0 0 1 .563-.523c.21-.117.46-.176.761-.176q.58.001 1.032.3c.297.204.523.485.672.852q.229.547.23 1.2-.001.7-.254 1.261-.251.561-.73.86-.476.298-1.008.297a1.5 1.5 0 0 1-.692-.16 1.6 1.6 0 0 1-.507-.415V1.75zm.703-4.008q-.001.884.356 1.305.358.422.863.422c.344 0 .64-.149.883-.438.246-.289.367-.742.367-1.351 0-.582-.117-1.016-.36-1.305q-.357-.434-.855-.437-.492.003-.875.464-.38.462-.379 1.34m0 0"/><path id="by" d="M.57 0v-4.562h.696v.69q.27-.486.492-.64a.9.9 0 0 1 .5-.156c.258 0 .523.086.793.25l-.266.719a1.1 1.1 0 0 0-.566-.168.73.73 0 0 0-.457.152.85.85 0 0 0-.29.422 3 3 0 0 0-.128.902V0Zm0 0"/><path id="bz" d="M.563 0v-6.3h.773V0Zm0 0"/><path id="bA" d="M.723 0v-6.3h4.25v.745H1.555v1.95h2.957v.742H1.555V0Zm0 0"/><path id="bB" d="m3.559-1.672.761.098q-.127.79-.64 1.234-.511.44-1.262.442-.936 0-1.504-.61-.57-.615-.57-1.758 0-.737.246-1.293.244-.55.746-.832a2.2 2.2 0 0 1 1.086-.277q.744-.001 1.219.379.469.375.605 1.066l-.754.118q-.104-.465-.379-.692a.98.98 0 0 0-.66-.234q-.585 0-.95.418-.362.42-.362 1.328 0 .92.351 1.336.352.417.918.418.458 0 .762-.281.304-.28.387-.86m0 0"/><path id="N" d="M0-.836-7.875-.84v-1.066l6.184-4.137h-6.184v-1H0v1.07l-6.187 4.137H0Zm0 0"/><path id="O" d="m-1.836-4.629.121-1q.88.236 1.36.875.485.641.484 1.633-.001 1.253-.77 1.984-.77.734-2.164.735-1.436.001-2.234-.743-.792-.738-.793-1.921 0-1.144.777-1.872.78-.721 2.192-.722.087-.001.258.004v4.254c.628-.036 1.105-.211 1.44-.532.333-.32.5-.714.5-1.191q0-.53-.28-.91-.282-.376-.89-.594m-1.563 3.172v-3.184q-.72.063-1.082.368a1.48 1.48 0 0 0-.56 1.195q.001.665.446 1.121.446.452 1.196.5m0 0"/><path id="P" d="M0-1.777-5.703-.031v-1l3.293-.907 1.223-.34-1.176-.296-3.34-.906v-.993l3.308-.855 1.09-.285-1.101-.328-3.297-.977v-.941L0-6.074v1.004l-3.414.906-.973.223L0-2.79Zm0 0"/><path id="Q" d="M-6.762-.73h-1.113v-.97h1.113zM0-.73h-5.703v-.97L0-1.694Zm0 0"/><path id="R" d="M0-.727h-5.703v-.867h.808q-.937-.633-.937-1.816 0-.515.184-.95.185-.431.488-.648c.2-.14.437-.242.715-.297.175-.039.492-.054.937-.054H0v.964h-3.469q-.59.002-.883.114a.94.94 0 0 0-.468.402 1.26 1.26 0 0 0-.176.672q.001.621.394 1.066.394.45 1.485.45H0Zm0 0"/><path id="S" d="M0-.957h-4.953v.855h-.75v-.855h-.61c-.382 0-.667-.031-.851-.102a1.25 1.25 0 0 1-.61-.492q-.234-.351-.234-.984-.001-.41.098-.902l.84.144q-.052.3-.051.57 0 .44.187.621.188.186.704.184h.527v-1.113h.75v1.113H0Zm0 0"/><path id="T" d="m-2.09-4.445.125-.953q.983.157 1.54.796.555.643.554 1.579.001 1.169-.766 1.882-.766.71-2.195.711-.92 0-1.613-.304a2.16 2.16 0 0 1-1.043-.934 2.8 2.8 0 0 1-.344-1.363q0-.926.469-1.52c.312-.39.758-.644 1.336-.754l.144.938q-.574.136-.867.476-.288.339-.29.825.002.73.524 1.187.527.457 1.657.457c.77 0 1.324-.148 1.672-.441q.522-.44.523-1.149 0-.573-.352-.953-.346-.381-1.074-.48m0 0"/><path id="V" d="m-.863-2.836.851-.14q.087.409.086.73 0 .528-.164.816a.94.94 0 0 1-.437.41c-.184.079-.563.118-1.145.118h-3.281v.707h-.75v-.707h-1.414l-.578-.961h1.992v-.973h.75v.973h3.336q.415 0 .531-.051a.4.4 0 0 0 .188-.168.64.64 0 0 0 .07-.328q0-.163-.035-.426m0 0"/><path id="W" d="M-2.852-.367q-1.587 0-2.347-.88-.633-.737-.633-1.792.001-1.178.77-1.922.77-.75 2.128-.75 1.102.002 1.735.332.628.329.98.961.347.631.348 1.379-.001 1.195-.77 1.934-.768.738-2.21.738m0-.992q1.095 0 1.64-.477.546-.478.547-1.203 0-.72-.55-1.2c-.364-.316-.923-.476-1.669-.476q-1.06 0-1.605.48-.545.481-.543 1.196 0 .722.539 1.203.545.475 1.64.477m0 0"/><path id="X" d="m-1.703-.34-.149-.953q.574-.081.88-.45c.202-.245.308-.589.308-1.03s-.094-.774-.273-.985c-.18-.219-.395-.324-.637-.324a.58.58 0 0 0-.516.285q-.129.199-.328.988c-.18.707-.332 1.2-.465 1.473A1.4 1.4 0 0 1-4.187-.5q-.386 0-.708-.176a1.54 1.54 0 0 1-.543-.472 2.1 2.1 0 0 1-.28-.618 3 3 0 0 1-.114-.836c0-.445.062-.84.191-1.175q.195-.51.524-.75c.222-.16.515-.274.883-.332l.132.945c-.296.043-.523.164-.687.371q-.251.309-.25.875 0 .662.223.95.216.285.515.284.189 0 .336-.117a.85.85 0 0 0 .258-.37c.035-.099.121-.384.246-.856q.277-1.025.45-1.43.173-.408.507-.637.335-.232.828-.23.484 0 .91.281.428.28.66.813.235.533.235 1.203c0 .742-.152 1.304-.461 1.695q-.464.583-1.371.742m0 0"/><path id="bf" d="M0-.863h-7.875v-3.492c0-.704.07-1.235.215-1.602q.211-.545.746-.875.539-.328 1.187-.328.84 0 1.415.543.573.545.73 1.676c.133-.278.262-.485.39-.63a5.4 5.4 0 0 1 1.047-.863L0-7.804v1.312l-1.637 1.039q-.71.457-1.086.754-.374.292-.527.527a1.5 1.5 0 0 0-.207.477q-.04.177-.04.578v1.21H0zm-4.398-1.043v-2.242q-.001-.711-.149-1.118a1.18 1.18 0 0 0-.473-.609 1.27 1.27 0 0 0-.707-.21 1.18 1.18 0 0 0-.918.405q-.358.404-.359 1.282v2.492Zm0 0"/><path id="aI" d="M.867 0v-7.902h3.504c.703 0 1.242.07 1.606.21q.55.216.878.755.33.54.329 1.19 0 .84-.543 1.419-.544.576-1.68.734a2.8 2.8 0 0 1 .629.39q.458.424.867 1.052L7.832 0H6.516L5.473-1.645a16 16 0 0 0-.758-1.09q-.293-.374-.527-.527a1.5 1.5 0 0 0-.481-.21 3.4 3.4 0 0 0-.582-.036h-1.21V0zm1.047-4.414H4.16q.719 0 1.121-.149.406-.146.617-.476c.141-.215.207-.453.207-.707 0-.375-.132-.68-.406-.922q-.405-.362-1.285-.36h-2.5Zm0 0"/><path id="aJ" d="M.32-2.727q0-.984.203-1.582.2-.596.598-.921.4-.324 1.004-.325.444 0 .781.18.333.182.555.516.216.338.344.824.124.484.125 1.308 0 .973-.203 1.57-.2.6-.598.927c-.266.214-.598.324-1.004.324Q1.324.094.867-.48C.504-.941.32-1.687.32-2.727m.7 0q0 1.361.316 1.813.321.45.789.45.469.001.785-.454c.215-.3.32-.906.32-1.809 0-.914-.105-1.515-.32-1.816q-.316-.45-.793-.45a.87.87 0 0 0-.746.395c-.234.34-.351.961-.351 1.871m0 0"/><path id="aO" d="M0-.723h-6.3v-4.25h.745v3.418h1.95v-2.957h.742v2.957H0Zm0 0"/><path id="aP" d="m-1.469-3.703.098-.8c.469.124.828.358 1.086.698q.387.514.387 1.309 0 1-.614 1.586-.619.586-1.73.586c-.77 0-1.363-.196-1.79-.59-.421-.398-.636-.91-.636-1.54 0-.608.211-1.108.625-1.495q.622-.58 1.754-.578.065-.001.207.004l-.004 3.402c.504-.027.887-.172 1.152-.426Q-.53-1.93-.53-2.5a1.16 1.16 0 0 0-.227-.727q-.224-.3-.71-.476m-1.25 2.539v-2.547q-.579.048-.864.29-.45.368-.45.96c0 .356.122.652.356.895q.36.362.957.402m0 0"/><path id="aQ" d="M0-1.293v.719h-6.3v-.774h2.25q-.617-.492-.618-1.254.001-.416.172-.796.17-.376.476-.618.308-.242.743-.379.433-.138.925-.136 1.172-.001 1.817.578.638.581.637 1.39 0 .808-.672 1.27zm-2.316.008q.818 0 1.187-.223.598-.365.598-.988c0-.34-.149-.629-.442-.879q-.44-.368-1.312-.367c-.598 0-1.035.117-1.32.355q-.427.352-.426.856 0 .508.441.875c.293.25.719.37 1.274.37m0 0"/><path id="aR" d="M-.742-4.43H0v4.164a1.4 1.4 0 0 1-.54-.09 2.8 2.8 0 0 1-.835-.511c-.273-.23-.594-.57-.953-1.012q-.844-1.024-1.336-1.387-.491-.361-.93-.359c-.304 0-.566.11-.773.328q-.317.328-.317.856 0 .561.332.894.34.334.93.34l-.082.793c-.594-.055-1.043-.258-1.355-.613q-.464-.534-.465-1.43c0-.606.168-1.082.5-1.438a1.66 1.66 0 0 1 1.246-.527q.379-.002.746.156.364.154.77.512c.269.238.636.637 1.109 1.192q.582.695.789.894.21.2.422.328Zm0 0"/><path id="aS" d="M0-2.844h-1.508v2.73h-.71l-4.083-2.874v-.63h4.082v-.85h.711v.85H0zm-2.219 0h-2.84l2.84 1.973Zm0 0"/><path id="aT" d="M0-.652h-6.3v-1.254l4.46-1.492q.625-.207.934-.301-.345-.107-1.012-.336l-4.383-1.508v-1.121H0v.805h-5.273L0-4.031v.754l-5.363 1.82H0Zm0 0"/><path id="aU" d="M-.562-3.559c.242.29.414.563.515.829.102.265.149.55.149.851q0 .754-.368 1.156-.363.406-.937.407a1.26 1.26 0 0 1-1.059-.555 2 2 0 0 1-.254-.555 6 6 0 0 1-.113-.687q-.112-.938-.266-1.38-.162-.004-.203-.003c-.316 0-.539.07-.668.219-.171.195-.261.488-.261.879q.002.545.191.804.195.264.676.387l-.102.754q-.486-.101-.785-.336-.299-.24-.457-.684-.165-.45-.164-1.035 0-.584.14-.953c.09-.242.208-.422.344-.535q.212-.17.528-.242.198-.036.71-.035h1.032c.723 0 1.176-.02 1.367-.051.192-.035.371-.098.547-.196v.81q-.24.116-.562.151m-1.727.067c.113.281.21.699.289 1.262q.07.479.156.675a.67.67 0 0 0 .25.305.7.7 0 0 0 .367.105.66.66 0 0 0 .516-.234q.209-.234.207-.683c0-.297-.062-.563-.195-.797a1.18 1.18 0 0 0-.535-.508q-.258-.127-.774-.125Zm0 0"/><path id="aW" d="M0-.57h-4.562v-.7h.69q-.486-.264-.64-.488a.9.9 0 0 1-.156-.5c0-.258.086-.523.25-.793l.719.266a1.1 1.1 0 0 0-.168.566q0 .258.152.457.152.2.422.29.416.128.902.128H0Zm0 0"/><path id="aX" d="M-3.105-.367c-.747 0-1.344-.074-1.801-.227q-.68-.234-1.051-.683-.368-.456-.367-1.141-.001-.51.203-.89.204-.382.59-.633.38-.248.937-.391.551-.14 1.489-.14 1.108-.001 1.789.226t1.05.684q.375.451.375 1.144 0 .908-.656 1.43-.784.62-2.558.62m0-.792c1.03 0 1.722-.121 2.062-.363q.516-.364.516-.895 0-.534-.516-.898t-2.062-.364q-1.559 0-2.067.364-.514.362-.512.906 0 .531.45.851.574.399 2.129.399m0 0"/><path id="aY" d="m-1.457-.48-.07-.747q.527-.092.761-.359.24-.266.239-.684 0-.356-.164-.625a1.35 1.35 0 0 0-.438-.44q-.271-.17-.734-.286a4 4 0 0 0-.946-.117q-.052-.001-.156.004.369.234.598.632c.156.27.23.559.23.872 0 .523-.187.96-.566 1.324q-.567.54-1.496.539-.957 0-1.543-.563c-.387-.379-.582-.847-.582-1.418q0-.61.328-1.12c.223-.34.535-.598.945-.774.406-.176 1-.266 1.774-.266q1.206-.001 1.922.262.714.262 1.09.781.375.517.374 1.215-.002.739-.414 1.207-.409.469-1.152.563m-2.781-3.168q-.662-.001-1.055.355-.391.352-.39.852 0 .516.417.898.425.382 1.094.383.602 0 .977-.363.375-.364.375-.895 0-.538-.375-.883-.375-.346-1.043-.347m0 0"/><path id="aZ" d="M0-3.277v.773h-4.93c.18.184.356.43.535.73q.265.456.399.817h-.746a4.7 4.7 0 0 0-.742-1.137c-.29-.324-.57-.55-.84-.687v-.496Zm0 0"/><path id="ba" d="m-4.758-4.379.063.77q-.456.105-.664.293a1.02 1.02 0 0 0-.328.773q-.001.368.203.648c.18.243.437.434.78.575q.51.212 1.454.218a1.8 1.8 0 0 1-.629-.683 1.8 1.8 0 0 1-.207-.844q-.002-.776.57-1.316.569-.547 1.47-.547.596 0 1.105.258.506.258.777.703.272.447.273 1.011 0 .968-.714 1.579-.71.609-2.344.609-1.824 0-2.653-.672c-.484-.394-.722-.922-.722-1.586q-.002-.744.414-1.219.42-.475 1.152-.57m2.719 3.16q.399 0 .762-.172.367-.17.558-.472c.125-.203.192-.418.192-.64q-.001-.493-.395-.845Q-1.32-3.699-2-3.699q-.651.001-1.027.347a1.14 1.14 0 0 0-.375.875q0 .528.375.891c.25.242.578.367.988.367m0 0"/><path id="bb" d="m-1.664-.371-.102-.774q.658-.129.946-.453c.195-.21.293-.472.293-.777 0-.363-.13-.672-.38-.922a1.3 1.3 0 0 0-.937-.379c-.355.004-.648.117-.879.352-.23.23-.343.527-.343.883q-.001.22.086.546l-.68-.085q.007-.077.008-.125 0-.493-.258-.891-.26-.394-.793-.395a.95.95 0 0 0-.707.29c-.188.19-.277.437-.277.742q0 .449.28.754c.192.199.473.328.852.386l-.136.774q-.78-.147-1.207-.645-.427-.504-.426-1.254 0-.516.219-.949.223-.432.605-.664.383-.227.813-.227c.273 0 .519.07.742.22q.334.215.535.648.127-.562.535-.868.406-.311 1.016-.312.824.002 1.398.601.574.604.574 1.524c0 .55-.168 1.012-.496 1.375-.328.367-.758.574-1.281.625m0 0"/><path id="bc" d="m0 .012-6.3-2.418v-.899L0-5.883v.95l-1.906.734v2.637L0-.872zm-2.586-1.817V-3.94l-1.746.66c-.527.199-.965.347-1.305.445.403.082.805.191 1.203.34Zm0 0"/><path id="bd" d="m1.75-.578-6.312-.004v-.703h.593a1.7 1.7 0 0 1-.523-.563 1.54 1.54 0 0 1-.176-.761q.001-.58.3-1.032c.204-.296.485-.523.852-.671a3.1 3.1 0 0 1 1.2-.231q.7.001 1.261.254.561.251.86.73.298.476.297 1.008-.001.387-.16.692-.164.31-.415.507H1.75zm-4.008-.703q.884.001 1.305-.356.422-.358.422-.863c0-.344-.149-.64-.438-.883-.289-.246-.742-.367-1.351-.367-.582 0-1.016.117-1.305.36q-.434.357-.437.855.003.492.464.875.462.38 1.34.379m0 0"/><path id="be" d="M-5.473-.418h-.746v-4.078h.602q.644.603 1.703 1.195 1.06.587 2.184.91A8 8 0 0 0 0-2.094v.797q-.743-.011-1.797-.293a9.6 9.6 0 0 1-2.031-.8 8.6 8.6 0 0 1-1.645-1.114Zm0 0"/><path id="bg" d="m-.605-1.984.597-.098q.06.285.059.512c0 .246-.035.433-.113.57a.64.64 0 0 1-.31.285q-.186.082-.796.082h-2.297v.496h-.527v-.496h-.988l-.407-.672h1.395v-.68h.527v.68h2.332c.196 0 .317-.011.375-.035a.27.27 0 0 0 .13-.117.4.4 0 0 0 .05-.23 2 2 0 0 0-.027-.297m0 0"/><path id="bh" d="M2.852 0v-6.945H.258v-.93H6.5v.93H3.895V0Zm0 0"/><path id="bi" d="m.684 2.195-.11-.906q.316.087.555.086.323.001.516-.11A.9.9 0 0 0 1.96.97q.09-.148.297-.723c.015-.05.043-.133.086-.234L.176-5.703h1.043l1.187 3.3c.153.423.293.86.414 1.325q.165-.668.399-1.3l1.219-3.325h.964L3.234.097q-.35.942-.543 1.295-.258.48-.59.703a1.4 1.4 0 0 1-.796.222q-.282 0-.621-.12m0 0"/><path id="bj" d="M.727 2.188v-7.891h.878v.742a2.2 2.2 0 0 1 .704-.656q.391-.216.953-.215.726 0 1.289.375.557.376.84 1.062c.191.454.285.957.285 1.5q.002.876-.313 1.575-.315.704-.914 1.074-.596.375-1.258.375a1.8 1.8 0 0 1-.867-.203 2 2 0 0 1-.633-.516v2.778zm.875-5.008q0 1.101.445 1.629.445.527 1.078.527.644-.001 1.105-.547.457-.545.457-1.687 0-1.095-.445-1.633-.449-.545-1.074-.543-.614 0-1.094.574-.473.579-.472 1.68m0 0"/><path id="bk" d="m4.629-1.836 1 .121q-.236.88-.875 1.36Q4.113.13 3.12.129 1.868.128 1.137-.641.403-1.41.402-2.805q-.001-1.436.743-2.234.738-.792 1.921-.793 1.144 0 1.872.777.721.78.722 2.192.001.087-.004.258H1.402c.036.628.211 1.105.532 1.44.32.333.714.5 1.191.5q.53 0 .91-.28.376-.282.594-.89M1.457-3.399h3.184q-.063-.72-.368-1.082a1.48 1.48 0 0 0-1.195-.56 1.54 1.54 0 0 0-1.121.446q-.452.446-.5 1.196m0 0"/></defs><path fill="#fff" d="M-39.6-28.8h475.2v345.6H-39.6z"/><path fill="#fff" d="M-39.6-28.8h475.2v345.6H-39.6z"/><path fill="none" stroke="#fff" stroke-linecap="round" stroke-linejoin="round" stroke-miterlimit="10" stroke-width="1.067" d="M0 288h396V0H0Zm0 0"/><g clip-path="url(#a)"><path fill="#fff" stroke="#fff" stroke-linecap="round" stroke-linejoin="round" stroke-miterlimit="10" stroke-width="1.067" d="M5.48 109.605h385.043V5.477H5.48Zm0 0"/></g><g clip-path="url(#b)"><path fill="#fff" d="M56.238 101.387H385.04v-90.43H56.24Zm0 0"/></g><g clip-path="url(#c)"><path fill="none" stroke="#ebebeb" stroke-linejoin="round" stroke-miterlimit="10" stroke-width=".533" d="M56.238 85.363h328.805"/></g><g clip-path="url(#d)"><path fill="none" stroke="#ebebeb" stroke-linejoin="round" stroke-miterlimit="10" stroke-width=".533" d="M56.238 61.54h328.805"/></g><g clip-path="url(#e)"><path fill="none" stroke="#ebebeb" stroke-linejoin="round" stroke-miterlimit="10" stroke-width=".533" d="M56.238 37.715h328.805"/></g><g clip-path="url(#f)"><path fill="none" stroke="#ebebeb" stroke-linejoin="round" stroke-miterlimit="10" stroke-width=".533" d="M56.238 13.89h328.805"/></g><g clip-path="url(#g)"><path fill="none" stroke="#ebebeb" stroke-linejoin="round" stroke-miterlimit="10" stroke-width=".533" d="M64.39 101.387v-90.43"/></g><g clip-path="url(#h)"><path fill="none" stroke="#ebebeb" stroke-linejoin="round" stroke-miterlimit="10" stroke-width=".533" d="M96.094 101.387v-90.43"/></g><g clip-path="url(#i)"><path fill="none" stroke="#ebebeb" stroke-linejoin="round" stroke-miterlimit="10" stroke-width=".533" d="M127.797 101.387v-90.43"/></g><g clip-path="url(#j)"><path fill="none" stroke="#ebebeb" stroke-linejoin="round" stroke-miterlimit="10" stroke-width=".533" d="M159.5 101.387v-90.43"/></g><g clip-path="url(#k)"><path fill="none" stroke="#ebebeb" stroke-linejoin="round" stroke-miterlimit="10" stroke-width=".533" d="M191.203 101.387v-90.43"/></g><g clip-path="url(#l)"><path fill="none" stroke="#ebebeb" stroke-linejoin="round" stroke-miterlimit="10" stroke-width=".533" d="M222.906 101.387v-90.43"/></g><g clip-path="url(#m)"><path fill="none" stroke="#ebebeb" stroke-linejoin="round" stroke-miterlimit="10" stroke-width=".533" d="M254.61 101.387v-90.43"/></g><g clip-path="url(#n)"><path fill="none" stroke="#ebebeb" stroke-linejoin="round" stroke-miterlimit="10" stroke-width=".533" d="M286.309 101.387v-90.43"/></g><g clip-path="url(#o)"><path fill="none" stroke="#ebebeb" stroke-linejoin="round" stroke-miterlimit="10" stroke-width=".533" d="M318.012 101.387v-90.43"/></g><g clip-path="url(#p)"><path fill="none" stroke="#ebebeb" stroke-linejoin="round" stroke-miterlimit="10" stroke-width=".533" d="M349.715 101.387v-90.43"/></g><g clip-path="url(#q)"><path fill="none" stroke="#ebebeb" stroke-linejoin="round" stroke-miterlimit="10" stroke-width=".533" d="M381.418 101.387v-90.43"/></g><g clip-path="url(#r)"><path fill="none" stroke="#ebebeb" stroke-linejoin="round" stroke-miterlimit="10" stroke-width="1.067" d="M56.238 97.277h328.805"/></g><g clip-path="url(#s)"><path fill="none" stroke="#ebebeb" stroke-linejoin="round" stroke-miterlimit="10" stroke-width="1.067" d="M56.238 73.453h328.805"/></g><g clip-path="url(#t)"><path fill="none" stroke="#ebebeb" stroke-linejoin="round" stroke-miterlimit="10" stroke-width="1.067" d="M56.238 49.629h328.805"/></g><g clip-path="url(#u)"><path fill="none" stroke="#ebebeb" stroke-linejoin="round" stroke-miterlimit="10" stroke-width="1.067" d="M56.238 25.805h328.805"/></g><g clip-path="url(#v)"><path fill="none" stroke="#ebebeb" stroke-linejoin="round" stroke-miterlimit="10" stroke-width="1.067" d="M80.242 101.387v-90.43"/></g><g clip-path="url(#w)"><path fill="none" stroke="#ebebeb" stroke-linejoin="round" stroke-miterlimit="10" stroke-width="1.067" d="M111.945 101.387v-90.43"/></g><g clip-path="url(#x)"><path fill="none" stroke="#ebebeb" stroke-linejoin="round" stroke-miterlimit="10" stroke-width="1.067" d="M143.648 101.387v-90.43"/></g><g clip-path="url(#y)"><path fill="none" stroke="#ebebeb" stroke-linejoin="round" stroke-miterlimit="10" stroke-width="1.067" d="M175.352 101.387v-90.43"/></g><g clip-path="url(#z)"><path fill="none" stroke="#ebebeb" stroke-linejoin="round" stroke-miterlimit="10" stroke-width="1.067" d="M207.055 101.387v-90.43"/></g><g clip-path="url(#A)"><path fill="none" stroke="#ebebeb" stroke-linejoin="round" stroke-miterlimit="10" stroke-width="1.067" d="M238.758 101.387v-90.43"/></g><g clip-path="url(#B)"><path fill="none" stroke="#ebebeb" stroke-linejoin="round" stroke-miterlimit="10" stroke-width="1.067" d="M270.457 101.387v-90.43"/></g><g clip-path="url(#C)"><path fill="none" stroke="#ebebeb" stroke-linejoin="round" stroke-miterlimit="10" stroke-width="1.067" d="M302.16 101.387v-90.43"/></g><g clip-path="url(#D)"><path fill="none" stroke="#ebebeb" stroke-linejoin="round" stroke-miterlimit="10" stroke-width="1.067" d="M333.863 101.387v-90.43"/></g><g clip-path="url(#E)"><path fill="none" stroke="#ebebeb" stroke-linejoin="round" stroke-miterlimit="10" stroke-width="1.067" d="M365.566 101.387v-90.43"/></g><path fill="#bebebe" stroke="#fff" stroke-miterlimit="10" stroke-width="1.067" d="M73.676 97.277h4.074v-.738h-4.074Zm4.527 0h4.074v-.632h-4.074Zm4.531 0h4.075v-1.156h-4.075Zm4.528 0h4.074v-1.109h-4.074Zm4.531 0h4.074v-.93h-4.074Zm4.527 0h4.075v-2.976H96.32Zm4.532 0h4.074v-2.836h-4.074Zm4.527 0h4.074v-2.859h-4.074Zm4.527 0h4.074v-6.683h-4.074Zm4.532 0h4.074v-4.132h-4.075Zm4.527 0h4.074v-5.55h-4.074Zm4.531 0h4.074v-6.992h-4.074Zm4.527 0h4.075v-9.16h-4.075Zm4.527 0h4.075v-9.27h-4.074Zm4.532 0h4.074V82.422h-4.074Zm4.528 0h4.074V79.504h-4.075Zm4.53 0h4.075V75.871h-4.074Zm4.528 0h4.074V85.641h-4.074Zm4.527 0h4.075V69.723h-4.075Zm4.532 0h4.074V65.7h-4.074Zm4.527 0h4.074v-30.34h-4.074Zm4.531 0h4.074V55.621h-4.074Zm4.528 0h4.074V63.648h-4.075Zm4.531 0h4.074V49.63h-4.074Zm4.527 0h4.074V55.273h-4.074Zm4.527 0h4.075V47.164h-4.075Zm4.532 0h4.074V33.88h-4.074Zm4.527 0h4.074V25.973h-4.074Zm4.531 0h4.075V19.168h-4.075Zm4.528 0h4.074v-66.23h-4.074Zm4.527 0h4.074V40.23h-4.074Zm4.531 0h4.074V34.75h-4.074Zm4.528 0h4.074V35.215h-4.074Zm4.531 0h4.074V23.98h-4.074Zm4.527 0h4.074V26.293h-4.074Zm4.528 0h4.074V26.113h-4.075Zm4.531 0h4.074V35.133h-4.074Zm4.527 0h4.074V49.031h-4.074Zm4.531 0h4.075v-48.28h-4.075Zm4.528 0h4.074V40.313h-4.074Zm4.527 0h4.074V41.672h-4.074Zm4.531 0h4.075V42.66h-4.075Zm4.527 0h4.075V40.04h-4.074Zm4.532 0h4.074V45.863h-4.074Zm4.528 0h4.073v-42.87h-4.074Zm4.53 0h4.075V61.078h-4.075Zm4.528 0h4.074V51.582h-4.074Zm4.527 0h4.074V47.2h-4.074Zm4.531 0h4.075V50.211h-4.075Zm4.528 0h4.074V41.363h-4.074Zm4.531 0h4.074V48.531h-4.074Zm4.527 0h4.075V59.72h-4.075Zm4.528 0h4.074V61.875h-4.074Zm4.53 0h4.075v-31.77h-4.074Zm4.528 0h4.075V52.18h-4.075Zm4.532 0h4.074V55.668h-4.074Zm4.527 0h4.074V55.691h-4.074Zm4.527 0h4.074V60.98h-4.074Zm4.531 0h4.075V70.402h-4.075Zm0 0"/><g clip-path="url(#F)"><path fill="none" stroke="#000" stroke-dasharray="4.267913 4.267913" stroke-linejoin="round" stroke-miterlimit="10" stroke-width="1.067" d="M338.395 101.387v-90.43"/></g><path fill="#1b9e77" fill-opacity=".2" d="m71.184 94.688 4.53-.622 4.528-.804 4.531-1.024 4.528-1.265 4.527-1.535 4.531-1.856 4.528-2.223 4.531-2.605 4.527-3.031 4.532-3.403 4.527-3.808 4.527-4.14 4.531-4.454 4.528-4.781 4.531-4.82 4.527-4.981 4.528-4.961 4.531-4.54 4.527-4.339 4.532-3.914 4.527-3.23 4.527-2.801 4.532-2.059 4.527-1.406 4.531-.445 4.528-.016 4.527.867 4.531 1.156 4.527 1.446 4.532 1.492 4.527 1.727 4.531 2.003 4.528 1.899 4.527 1.906 4.531 1.883 4.528 1.648 4.53 1.766 4.528 1.531 4.528 1.633 4.53 1.535 4.528 1.535 4.531 1.606 4.528 1.226 4.527 1.282 4.531 1.25v9.742l-4.531-1.008-4.527-.953-4.528-1.008-4.53-1.164-4.528-1.187-4.531-1.239-4.528-1.367-4.527-1.262-4.531-1.508-4.528-1.464-4.531-1.524-4.527-1.633-4.528-1.664-4.531-1.62-4.527-1.708-4.532-1.312-4.527-1.188-4.531-.969-4.528-.628-4.527-.22-4.531.47-4.527.953-4.532 1.593-4.527 2.164-4.527 2.61-4.532 3.035-4.527 3.594-4.531 3.84-4.528 3.976-4.527 4.063-4.531 4.023-4.528 3.817-4.53 3.671-4.528 3.414-4.527 3.075-4.532 2.722-4.527 2.375-4.531 2.102-4.528 1.777-4.53 1.528-4.528 1.27-4.528 1.046-4.53.848-4.528.668-4.531.5Zm0 0"/><path fill="none" stroke="#1b9e77" stroke-linejoin="round" stroke-miterlimit="10" stroke-width=".107" d="m71.184 94.688 4.53-.622 4.528-.804 4.531-1.024 4.528-1.265 4.527-1.535 4.531-1.856 4.528-2.223 4.531-2.605 4.527-3.031 4.532-3.403 4.527-3.808 4.527-4.14 4.531-4.454 4.528-4.781 4.531-4.82 4.527-4.981 4.528-4.961 4.531-4.54 4.527-4.339 4.532-3.914 4.527-3.23 4.527-2.801 4.532-2.059 4.527-1.406 4.531-.445 4.528-.016 4.527.867 4.531 1.156 4.527 1.446 4.532 1.492 4.527 1.727 4.531 2.003 4.528 1.899 4.527 1.906 4.531 1.883 4.528 1.648 4.53 1.766 4.528 1.531 4.528 1.633 4.53 1.535 4.528 1.535 4.531 1.606 4.528 1.226 4.527 1.282 4.531 1.25"/><path fill="none" stroke="#1b9e77" stroke-linejoin="round" stroke-miterlimit="10" stroke-width=".107" d="m274.988 60.758-4.531-1.008-4.527-.953-4.528-1.008-4.53-1.164-4.528-1.187-4.531-1.239-4.528-1.367-4.527-1.262-4.531-1.508-4.528-1.464-4.531-1.524-4.527-1.633-4.528-1.664-4.531-1.62-4.527-1.708-4.532-1.312-4.527-1.188-4.531-.969-4.528-.628-4.527-.22-4.531.47-4.527.953-4.532 1.593-4.527 2.164-4.527 2.61-4.532 3.035-4.527 3.594-4.531 3.84-4.528 3.976-4.527 4.063-4.531 4.023-4.528 3.817-4.53 3.671-4.528 3.414-4.527 3.075-4.532 2.722-4.527 2.375-4.531 2.102-4.528 1.777-4.53 1.528-4.528 1.27-4.528 1.046-4.53.848-4.528.668-4.531.5"/><path fill="#d95f02" fill-opacity=".2" d="m279.516 51.992 4.53 1.008 4.528 1.027 4.528.641 4.53.281 4.528.09 4.531-.71 4.528-.638 4.531-1.32 4.527-1.7 4.528-1.968 4.53-2.441 4.528-2.52 4.532-3.101v45.27l-4.532-2.009-4.527-1.988-4.531-2.121-4.528-2.422-4.527-2.168-4.531-2.402-4.528-2.184-4.53-2.152-4.528-1.774-4.531-1.414-4.528-1.308-4.527-.938-4.531-1.234Zm0 0"/><path fill="none" stroke="#d95f02" stroke-linejoin="round" stroke-miterlimit="10" stroke-width=".107" d="m279.516 51.992 4.53 1.008 4.528 1.027 4.528.641 4.53.281 4.528.09 4.531-.71 4.528-.638 4.531-1.32 4.527-1.7 4.528-1.968 4.53-2.441 4.528-2.52 4.532-3.101m0 45.269-4.532-2.008-4.527-1.988-4.531-2.121-4.528-2.422-4.527-2.168-4.531-2.402-4.528-2.184-4.53-2.152-4.528-1.774-4.531-1.414-4.528-1.308-4.527-.938-4.531-1.234"/><path fill="#7570b3" fill-opacity=".2" d="m342.922 37.547 4.527-3.3 4.531-3.192 4.528-4.211 4.531-3.809 4.527-3.582 4.528-4.383v77.438l-4.528-.64-4.527-.708-4.531-.836-4.528-.957-4.53-.96-4.528-1.165Zm0 0"/><path fill="none" stroke="#7570b3" stroke-linejoin="round" stroke-miterlimit="10" stroke-width=".107" d="m342.922 37.547 4.527-3.3 4.531-3.192 4.528-4.211 4.531-3.809 4.527-3.582 4.528-4.383m0 77.438-4.528-.64-4.527-.708-4.531-.836-4.528-.957-4.53-.96-4.528-1.165"/><path fill="#1b9e77" fill-opacity=".298" d="m71.184 94.875 4.53-.582 4.528-.77 4.531-.972 4.528-1.2 4.527-1.445 4.531-1.75 4.528-2.097 4.531-2.454 4.527-2.808 4.532-3.184 4.527-3.547 4.527-3.937 4.531-4.246 4.528-4.438 4.531-4.601 4.527-4.567 4.528-4.527 4.531-4.344 4.527-4.039 4.532-3.62 4.527-3.048 4.527-2.57 4.532-1.805 4.527-1.21 4.531-.598 4.528.062 4.527.527 4.531 1.008 4.527 1.207 4.532 1.575 4.527 1.675 4.531 1.871 4.528 1.856 4.527 1.82 4.531 1.793 4.528 1.871 4.53 1.727 4.528 1.578 4.528 1.527 4.53 1.395 4.528 1.297 4.531 1.218 4.528 1.254 4.527 1.168 4.531 1.106v4.105l-4.531-1.074-4.527-1.113-4.528-1.117-4.53-1.164-4.528-1.27-4.531-1.313-4.528-1.367-4.527-1.523-4.531-1.57-4.528-1.606-4.531-1.637-4.527-1.742-4.528-1.773-4.531-1.742-4.527-1.727-4.532-1.434-4.527-1.28-4.531-.895-4.528-.457-4.527-.059-4.531.59-4.527 1.039-4.532 1.738-4.527 2.2-4.527 2.796-4.532 3.34-4.527 3.711-4.531 3.961-4.528 4.246-4.527 4.27-4.531 4.214-4.528 4.102-4.53 3.879-4.528 3.586-4.527 3.285-4.532 2.926-4.527 2.594-4.531 2.226-4.528 1.922-4.53 1.602-4.528 1.343-4.528 1.098-4.53.89-4.528.715-4.531.536Zm0 0"/><path fill="#d95f02" fill-opacity=".298" d="m279.516 55.203 4.53 1.078 4.528 1.028 4.528.992 4.53.972 4.528.758 4.531.617 4.528.383 4.531.25 4.527.219 4.528.367 4.53.035 4.528-.004 4.532-.242v16.18l-4.532-1.602-4.527-1.554-4.531-1.598-4.528-1.516-4.527-1.754-4.531-1.558-4.528-1.598-4.53-1.344-4.528-1.433-4.531-1.227-4.528-1.23-4.527-1.078-4.531-1.114Zm0 0"/><path fill="#7570b3" fill-opacity=".298" d="m342.922 61.648 4.527-.023 4.531-.105 4.528-.16 4.531.015 4.527-.023 4.528-.133v23.957l-4.528-.887-4.527-.945-4.531-.996-4.528-1.063-4.53-1.055-4.528-1.105Zm0 0"/><path fill="#1b9e77" fill-opacity=".298" d="m71.184 94.95 4.53-.563 4.528-.762 4.531-.941 4.528-1.164 4.527-1.418 4.531-1.707 4.528-2.032 4.531-2.367 4.527-2.726 4.532-3.122 4.527-3.503 4.527-3.801 4.531-4.11 4.528-4.34 4.531-4.449 4.527-4.511 4.528-4.442 4.531-4.195 4.527-3.953 4.532-3.489 4.527-3.011 4.527-2.375 4.532-1.797 4.527-1.207 4.531-.52 4.528.075 4.527.449 4.531.953 4.527 1.238 4.532 1.504 4.527 1.637 4.531 1.758 4.528 1.82 4.527 1.89 4.531 1.75 4.528 1.82 4.53 1.665 4.528 1.555 4.528 1.449 4.53 1.402 4.528 1.278 4.531 1.21 4.528 1.223 4.527 1.125 4.531 1.191v1.446l-4.531-1.117-4.527-1.145-4.528-1.09-4.53-1.183-4.528-1.254-4.531-1.41-4.528-1.457-4.527-1.579-4.531-1.586-4.528-1.667-4.531-1.762-4.527-1.7-4.528-1.847-4.531-1.711-4.527-1.676-4.532-1.547-4.527-1.28-4.531-.88-4.528-.43-4.527.016-4.531.563-4.527 1.117-4.532 1.687-4.527 2.332-4.527 2.938-4.532 3.36-4.527 3.82-4.531 4.117-4.528 4.336-4.527 4.382-4.531 4.348-4.528 4.168-4.53 3.957-4.528 3.695-4.527 3.364-4.532 3.004-4.527 2.66-4.531 2.293-4.528 1.957-4.53 1.664-4.528 1.379-4.528 1.12-4.53.919-4.528.726-4.531.547Zm0 0"/><path fill="#d95f02" fill-opacity=".298" d="m279.516 56.5 4.53 1.14 4.528 1.051 4.528.97 4.53 1.01 4.528 1.044 4.531.863 4.528.844 4.531.863 4.527.61 4.528.746 4.53.668 4.528.703 4.532.465v6.082l-4.532-1.27-4.527-1.21-4.531-1.259-4.528-1.164-4.527-1.094-4.531-1.269-4.528-1.313-4.53-1.378-4.528-1.211-4.531-1.137-4.528-1.113-4.527-1.086-4.531-1.059Zm0 0"/><path fill="#7570b3" fill-opacity=".298" d="m342.922 68.133 4.527.672 4.531.527 4.528.64 4.531.466 4.527.433 4.528.524v8.628l-4.528-.828-4.527-.851-4.531-.813-4.528-.875-4.53-.996-4.528-.96Zm0 0"/><g clip-path="url(#G)"><path fill="none" stroke="#000" stroke-linejoin="round" stroke-miterlimit="10" stroke-width="1.067" d="M193.465 101.387v-90.43"/></g><g clip-path="url(#H)"><path fill="none" stroke="#333" stroke-linecap="round" stroke-linejoin="round" stroke-miterlimit="10" stroke-width="1.067" d="M56.238 101.387H385.04v-90.43H56.24Zm0 0"/></g><use xlink:href="#I" x="46.414" y="100.926" fill="#4d4d4d"/><g fill="#4d4d4d"><use xlink:href="#J" x="29.285" y="77.102"/><use xlink:href="#K" x="34.179" y="77.102"/><use xlink:href="#I" x="36.624" y="77.102"/><use xlink:href="#I" x="41.518" y="77.102"/><use xlink:href="#I" x="46.413" y="77.102"/></g><g fill="#4d4d4d"><use xlink:href="#L" x="29.285" y="53.277"/><use xlink:href="#K" x="34.179" y="53.277"/><use xlink:href="#I" x="36.624" y="53.277"/><use xlink:href="#I" x="41.518" y="53.277"/><use xlink:href="#I" x="46.413" y="53.277"/></g><g fill="#4d4d4d"><use xlink:href="#M" x="29.285" y="29.453"/><use xlink:href="#K" x="34.179" y="29.453"/><use xlink:href="#I" x="36.624" y="29.453"/><use xlink:href="#I" x="41.518" y="29.453"/><use xlink:href="#I" x="46.413" y="29.453"/></g><path fill="none" stroke="#333" stroke-linejoin="round" stroke-miterlimit="10" stroke-width="1.067" d="M53.5 97.277h2.738M53.5 73.453h2.738M53.5 49.629h2.738M53.5 25.805h2.738"/><use xlink:href="#N" x="19.832" y="91.938"/><use xlink:href="#O" x="19.832" y="83.994"/><use xlink:href="#P" x="19.832" y="77.876"/><use xlink:href="#Q" x="19.832" y="66.876"/><use xlink:href="#R" x="19.832" y="64.432"/><use xlink:href="#S" x="19.832" y="58.314"/><use xlink:href="#O" x="19.832" y="55.258"/><use xlink:href="#T" x="19.832" y="49.141"/><use xlink:href="#V" x="19.832" y="43.641"/><use xlink:href="#Q" x="19.832" y="40.584"/><use xlink:href="#W" x="19.832" y="38.141"/><use xlink:href="#R" x="19.832" y="32.023"/><use xlink:href="#X" x="19.832" y="25.905"/><g clip-path="url(#Y)"><path fill="#fff" stroke="#fff" stroke-linecap="round" stroke-linejoin="round" stroke-miterlimit="10" stroke-width="1.067" d="M5.48 282.52h385.043V109.605H5.48Zm0 0"/></g><g clip-path="url(#Z)"><path fill="#fff" d="M56.238 205.516H385.04v-90.43H56.24Zm0 0"/></g><g clip-path="url(#aa)"><path fill="none" stroke="#ebebeb" stroke-linejoin="round" stroke-miterlimit="10" stroke-width=".533" d="M56.238 192.336h328.805"/></g><g clip-path="url(#ab)"><path fill="none" stroke="#ebebeb" stroke-linejoin="round" stroke-miterlimit="10" stroke-width=".533" d="M56.238 174.203h328.805"/></g><g clip-path="url(#ac)"><path fill="none" stroke="#ebebeb" stroke-linejoin="round" stroke-miterlimit="10" stroke-width=".533" d="M56.238 156.066h328.805"/></g><g clip-path="url(#ad)"><path fill="none" stroke="#ebebeb" stroke-linejoin="round" stroke-miterlimit="10" stroke-width=".533" d="M56.238 137.93h328.805"/></g><g clip-path="url(#ae)"><path fill="none" stroke="#ebebeb" stroke-linejoin="round" stroke-miterlimit="10" stroke-width=".533" d="M56.238 119.797h328.805"/></g><g clip-path="url(#af)"><path fill="none" stroke="#ebebeb" stroke-linejoin="round" stroke-miterlimit="10" stroke-width=".533" d="M64.39 205.516v-90.43"/></g><g clip-path="url(#ag)"><path fill="none" stroke="#ebebeb" stroke-linejoin="round" stroke-miterlimit="10" stroke-width=".533" d="M96.094 205.516v-90.43"/></g><g clip-path="url(#ah)"><path fill="none" stroke="#ebebeb" stroke-linejoin="round" stroke-miterlimit="10" stroke-width=".533" d="M127.797 205.516v-90.43"/></g><g clip-path="url(#ai)"><path fill="none" stroke="#ebebeb" stroke-linejoin="round" stroke-miterlimit="10" stroke-width=".533" d="M159.5 205.516v-90.43"/></g><g clip-path="url(#aj)"><path fill="none" stroke="#ebebeb" stroke-linejoin="round" stroke-miterlimit="10" stroke-width=".533" d="M191.203 205.516v-90.43"/></g><g clip-path="url(#ak)"><path fill="none" stroke="#ebebeb" stroke-linejoin="round" stroke-miterlimit="10" stroke-width=".533" d="M222.906 205.516v-90.43"/></g><g clip-path="url(#al)"><path fill="none" stroke="#ebebeb" stroke-linejoin="round" stroke-miterlimit="10" stroke-width=".533" d="M254.61 205.516v-90.43"/></g><g clip-path="url(#am)"><path fill="none" stroke="#ebebeb" stroke-linejoin="round" stroke-miterlimit="10" stroke-width=".533" d="M286.309 205.516v-90.43"/></g><g clip-path="url(#an)"><path fill="none" stroke="#ebebeb" stroke-linejoin="round" stroke-miterlimit="10" stroke-width=".533" d="M318.012 205.516v-90.43"/></g><g clip-path="url(#ao)"><path fill="none" stroke="#ebebeb" stroke-linejoin="round" stroke-miterlimit="10" stroke-width=".533" d="M349.715 205.516v-90.43"/></g><g clip-path="url(#ap)"><path fill="none" stroke="#ebebeb" stroke-linejoin="round" stroke-miterlimit="10" stroke-width=".533" d="M381.418 205.516v-90.43"/></g><g clip-path="url(#aq)"><path fill="none" stroke="#ebebeb" stroke-linejoin="round" stroke-miterlimit="10" stroke-width="1.067" d="M56.238 201.406h328.805"/></g><g clip-path="url(#ar)"><path fill="none" stroke="#ebebeb" stroke-linejoin="round" stroke-miterlimit="10" stroke-width="1.067" d="M56.238 183.27h328.805"/></g><g clip-path="url(#as)"><path fill="none" stroke="#ebebeb" stroke-linejoin="round" stroke-miterlimit="10" stroke-width="1.067" d="M56.238 165.133h328.805"/></g><g clip-path="url(#at)"><path fill="none" stroke="#ebebeb" stroke-linejoin="round" stroke-miterlimit="10" stroke-width="1.067" d="M56.238 147h328.805"/></g><g clip-path="url(#au)"><path fill="none" stroke="#ebebeb" stroke-linejoin="round" stroke-miterlimit="10" stroke-width="1.067" d="M56.238 128.863h328.805"/></g><g clip-path="url(#av)"><path fill="none" stroke="#ebebeb" stroke-linejoin="round" stroke-miterlimit="10" stroke-width="1.067" d="M80.242 205.516v-90.43"/></g><g clip-path="url(#aw)"><path fill="none" stroke="#ebebeb" stroke-linejoin="round" stroke-miterlimit="10" stroke-width="1.067" d="M111.945 205.516v-90.43"/></g><g clip-path="url(#ax)"><path fill="none" stroke="#ebebeb" stroke-linejoin="round" stroke-miterlimit="10" stroke-width="1.067" d="M143.648 205.516v-90.43"/></g><g clip-path="url(#ay)"><path fill="none" stroke="#ebebeb" stroke-linejoin="round" stroke-miterlimit="10" stroke-width="1.067" d="M175.352 205.516v-90.43"/></g><g clip-path="url(#az)"><path fill="none" stroke="#ebebeb" stroke-linejoin="round" stroke-miterlimit="10" stroke-width="1.067" d="M207.055 205.516v-90.43"/></g><g clip-path="url(#aA)"><path fill="none" stroke="#ebebeb" stroke-linejoin="round" stroke-miterlimit="10" stroke-width="1.067" d="M238.758 205.516v-90.43"/></g><g clip-path="url(#aB)"><path fill="none" stroke="#ebebeb" stroke-linejoin="round" stroke-miterlimit="10" stroke-width="1.067" d="M270.457 205.516v-90.43"/></g><g clip-path="url(#aC)"><path fill="none" stroke="#ebebeb" stroke-linejoin="round" stroke-miterlimit="10" stroke-width="1.067" d="M302.16 205.516v-90.43"/></g><g clip-path="url(#aD)"><path fill="none" stroke="#ebebeb" stroke-linejoin="round" stroke-miterlimit="10" stroke-width="1.067" d="M333.863 205.516v-90.43"/></g><g clip-path="url(#aE)"><path fill="none" stroke="#ebebeb" stroke-linejoin="round" stroke-miterlimit="10" stroke-width="1.067" d="M365.566 205.516v-90.43"/></g><g clip-path="url(#aF)"><path fill="none" stroke="#000" stroke-dasharray="4.267913 4.267913" stroke-linejoin="round" stroke-miterlimit="10" stroke-width="1.067" d="M338.395 205.516v-90.43"/></g><path fill="#1b9e77" fill-opacity=".2" d="m71.184 119.195 4.53 1.145 4.528.922 4.531.8 4.528.91 4.527 1.036 4.531 1.226 4.528 1.325 4.531 1.375 4.527 1.652 4.532 1.715 4.527 1.84 4.527 1.894 4.531 1.918 4.528 1.906 4.531 2.016 4.527 1.965 4.528 1.933 4.531 1.957 4.527 1.883 4.532 1.856 4.527 1.933 4.527 1.809 4.532 1.734 4.527 1.575 4.531 1.593 4.528 1.305 4.527 1.238 4.531 1.067 4.527 1.011 4.532.825 4.527.664 4.531.605 4.528.438 4.527.402 4.531.285 4.528.18 4.53.074 4.528.004 4.528-.063 4.53-.117 4.528-.156 4.531-.121 4.528-.168 4.527-.031 4.531-.133v4.371l-4.531-.031-4.527.027-4.528.05-4.53.016-4.528.032-4.531.043-4.528-.04-4.527-.081-4.531-.04-4.528-.16-4.531-.273-4.527-.274-4.528-.406-4.531-.562-4.527-.649-4.532-.882-4.527-.993-4.531-1.035-4.528-1.207-4.527-1.27-4.531-1.437-4.527-1.488-4.532-1.52-4.527-1.578-4.527-1.68-4.532-1.726-4.527-1.668-4.531-1.77-4.528-1.828-4.527-1.785-4.531-1.75-4.528-1.738-4.53-1.621-4.528-1.653-4.527-1.55-4.532-1.543-4.527-1.328-4.531-1.235-4.528-1.14-4.53-1.067-4.528-.851-4.528-.676-4.53-.39-4.528.066-4.531.343Zm0 0"/><path fill="none" stroke="#1b9e77" stroke-linejoin="round" stroke-miterlimit="10" stroke-width=".107" d="m71.184 119.195 4.53 1.145 4.528.922 4.531.8 4.528.91 4.527 1.036 4.531 1.226 4.528 1.325 4.531 1.375 4.527 1.652 4.532 1.715 4.527 1.84 4.527 1.894 4.531 1.918 4.528 1.906 4.531 2.016 4.527 1.965 4.528 1.933 4.531 1.957 4.527 1.883 4.532 1.856 4.527 1.933 4.527 1.809 4.532 1.734 4.527 1.575 4.531 1.593 4.528 1.305 4.527 1.238 4.531 1.067 4.527 1.011 4.532.825 4.527.664 4.531.605 4.528.438 4.527.402 4.531.285 4.528.18 4.53.074 4.528.004 4.528-.063 4.53-.117 4.528-.156 4.531-.121 4.528-.168 4.527-.031 4.531-.133"/><path fill="none" stroke="#1b9e77" stroke-linejoin="round" stroke-miterlimit="10" stroke-width=".107" d="m274.988 170.793-4.531-.031-4.527.027-4.528.05-4.53.016-4.528.032-4.531.043-4.528-.04-4.527-.081-4.531-.04-4.528-.16-4.531-.273-4.527-.274-4.528-.406-4.531-.562-4.527-.649-4.532-.882-4.527-.993-4.531-1.035-4.528-1.207-4.527-1.27-4.531-1.437-4.527-1.488-4.532-1.52-4.527-1.578-4.527-1.68-4.532-1.726-4.527-1.668-4.531-1.77-4.528-1.828-4.527-1.785-4.531-1.75-4.528-1.738-4.53-1.621-4.528-1.653-4.527-1.55-4.532-1.543-4.527-1.328-4.531-1.235-4.528-1.14-4.53-1.067-4.528-.851-4.528-.676-4.53-.39-4.528.066-4.531.343"/><path fill="#d95f02" fill-opacity=".2" d="m279.516 166.3 4.53-.163 4.528-.325 4.528-.375 4.53-.464 4.528-.692 4.531-.691 4.528-.707 4.531-.75 4.527-.801 4.528-.82 4.53-1.188 4.528-1.043 4.532-.996v23.418l-4.532-.973-4.527-.91-4.531-1.101-4.528-.856-4.527-1.097-4.531-.856-4.528-.969-4.53-.804-4.528-.746-4.531-.649-4.528-.441-4.527-.246-4.531-.2Zm0 0"/><path fill="none" stroke="#d95f02" stroke-linejoin="round" stroke-miterlimit="10" stroke-width=".107" d="m279.516 166.3 4.53-.163 4.528-.325 4.528-.375 4.53-.464 4.528-.692 4.531-.691 4.528-.707 4.531-.75 4.527-.801 4.528-.82 4.53-1.188 4.528-1.043 4.532-.996m0 23.418-4.532-.973-4.527-.91-4.531-1.101-4.528-.856-4.527-1.097-4.531-.856-4.528-.969-4.53-.804-4.528-.746-4.531-.649-4.528-.441-4.527-.246-4.531-.2"/><path fill="#7570b3" fill-opacity=".2" d="M342.922 157.285h27.172v23.418h-27.172Zm0 0"/><path fill="none" stroke="#7570b3" stroke-linejoin="round" stroke-miterlimit="10" stroke-width=".107" d="M342.922 157.285h27.172m0 23.418h-27.172"/><path fill="#1b9e77" fill-opacity=".298" d="m71.184 122.496 4.53.692 4.528.671 4.531.79 4.528.953 4.527.894 4.531 1.152 4.528 1.254 4.531 1.387 4.527 1.57 4.532 1.668 4.527 1.746 4.527 1.782 4.531 1.894 4.528 1.903 4.531 1.882 4.527 1.899 4.528 1.918 4.531 1.894 4.527 1.887 4.532 1.82 4.527 1.801 4.527 1.703 4.532 1.614 4.527 1.542 4.531 1.434 4.528 1.328 4.527 1.196 4.531 1.035 4.527.949 4.532.8 4.527.7 4.531.582 4.528.504 4.527.363 4.531.29 4.528.19 4.53.13 4.528.039 4.528-.016 4.53-.035 4.528-.106 4.531-.082 4.528-.074 4.527-.105 4.531-.051v1.812l-4.531.04-4.527.038-4.528.032-4.53.043-4.528.011-4.531-.011-4.528.023-4.527-.094-4.531-.12-4.528-.184-4.531-.282-4.527-.37-4.528-.473-4.531-.567-4.527-.691-4.532-.836-4.527-.95-4.531-1.038-4.528-1.192-4.527-1.258-4.531-1.367-4.527-1.484-4.532-1.531-4.527-1.653-4.527-1.719-4.532-1.738-4.527-1.82-4.531-1.805-4.528-1.875-4.527-1.851-4.531-1.805-4.528-1.79-4.53-1.757-4.528-1.656-4.527-1.61-4.532-1.527-4.527-1.508-4.531-1.367-4.528-1.234-4.53-1.106-4.528-.851-4.528-.746-4.53-.61-4.528-.21-4.531.062Zm0 0"/><path fill="#d95f02" fill-opacity=".298" d="m279.516 167.86 4.53-.051 4.528-.094 4.528-.113 4.53-.196 4.528-.207 4.531-.187 4.528-.242 4.531-.188 4.527-.363 4.528-.29 4.53-.34 4.528-.327 4.532-.282v8.942l-4.532-.383-4.527-.43-4.531-.539-4.528-.449-4.527-.363-4.531-.426-4.528-.371-4.53-.328-4.528-.371-4.531-.27-4.528-.168-4.527-.09-4.531-.054Zm0 0"/><path fill="#7570b3" fill-opacity=".298" d="M342.922 164.98h27.172v8.942h-27.172Zm0 0"/><path fill="#1b9e77" fill-opacity=".298" d="m71.184 123.996 4.53.473 4.528.617 4.531.652 4.528.813 4.527 1.004 4.531 1.125 4.528 1.222 4.531 1.399 4.527 1.515 4.532 1.579 4.527 1.718 4.527 1.782 4.531 1.828 4.528 1.879 4.531 1.875 4.527 1.902 4.528 1.875 4.531 1.871 4.527 1.852 4.532 1.808 4.527 1.727 4.527 1.707 4.532 1.59 4.527 1.515 4.531 1.422 4.528 1.297 4.527 1.172 4.531 1.062 4.527.934 4.532.816 4.527.7 4.531.578 4.528.484 4.527.383 4.531.266 4.528.21 4.53.13 4.528.046h4.528l4.53-.012 4.528-.062 4.531-.027 4.528-.098 4.527-.047 4.531-.101v.722l-4.531.035-4.527.051-4.528.043-4.53.031-4.528.032-4.531.015-4.528-.02-4.527-.054-4.531-.113-4.528-.219-4.531-.273-4.527-.375-4.528-.465-4.531-.606-4.527-.691-4.532-.824-4.527-.93-4.531-1.066-4.528-1.196-4.527-1.281-4.531-1.395-4.527-1.476-4.532-1.578-4.527-1.625-4.527-1.7-4.532-1.769-4.527-1.82-4.531-1.887-4.528-1.867-4.527-1.832-4.531-1.856-4.528-1.828-4.53-1.762-4.528-1.738-4.527-1.683-4.532-1.579-4.527-1.472-4.531-1.375-4.528-1.278-4.53-1.054-4.528-.942-4.528-.843-4.53-.61-4.528-.336-4.531-.191Zm0 0"/><path fill="#d95f02" fill-opacity=".298" d="m279.516 168.484 4.53-.02 4.528-.034 4.528-.016 4.53-.027 4.528-.04 4.531-.077 4.528-.016 4.531-.05 4.527-.04 4.528-.094 4.53-.11 4.528-.14 4.532-.007v3.355l-4.532-.164-4.527-.191-4.531-.239-4.528-.242-4.527-.195-4.531-.2-4.528-.183-4.53-.164-4.528-.149-4.531-.132-4.528-.102-4.527-.059-4.531-.023Zm0 0"/><path fill="#7570b3" fill-opacity=".298" d="M342.922 167.813h27.172v3.355h-27.172Zm0 0"/><g clip-path="url(#aG)"><path fill="none" stroke="#000" stroke-dasharray="4.267913 4.267913" stroke-linejoin="round" stroke-miterlimit="10" stroke-width="1.067" d="M56.238 165.133h328.805"/></g><g clip-path="url(#aH)"><path fill="none" stroke="#000" stroke-linejoin="round" stroke-miterlimit="10" stroke-width="1.067" d="M193.465 205.516v-90.43"/></g><use xlink:href="#aI" x="65.051" y="126.152"/><use xlink:href="#aJ" x="73.023" y="128.504"/><g clip-path="url(#aK)"><path fill="none" stroke="#333" stroke-linecap="round" stroke-linejoin="round" stroke-miterlimit="10" stroke-width="1.067" d="M56.238 205.516H385.04v-90.43H56.24Zm0 0"/></g><g fill="#4d4d4d"><use xlink:href="#I" x="39.074" y="205.055"/><use xlink:href="#aL" x="43.968" y="205.055"/><use xlink:href="#I" x="46.413" y="205.055"/></g><g fill="#4d4d4d"><use xlink:href="#I" x="39.074" y="186.918"/><use xlink:href="#aL" x="43.968" y="186.918"/><use xlink:href="#aM" x="46.413" y="186.918"/></g><g fill="#4d4d4d"><use xlink:href="#aN" x="39.074" y="168.785"/><use xlink:href="#aL" x="43.968" y="168.785"/><use xlink:href="#I" x="46.413" y="168.785"/></g><g fill="#4d4d4d"><use xlink:href="#aN" x="39.074" y="150.648"/><use xlink:href="#aL" x="43.968" y="150.648"/><use xlink:href="#aM" x="46.413" y="150.648"/></g><g fill="#4d4d4d"><use xlink:href="#J" x="39.074" y="132.512"/><use xlink:href="#aL" x="43.968" y="132.512"/><use xlink:href="#I" x="46.413" y="132.512"/></g><path fill="none" stroke="#333" stroke-linejoin="round" stroke-miterlimit="10" stroke-width="1.067" d="M53.5 201.406h2.738M53.5 183.27h2.738M53.5 165.133h2.738M53.5 147h2.738M53.5 128.863h2.738m24.004 79.391v-2.738m31.703 2.738v-2.738m31.703 2.738v-2.738m31.704 2.738v-2.738m31.703 2.738v-2.738m31.703 2.738v-2.738m31.699 2.738v-2.738m31.703 2.738v-2.738m31.703 2.738v-2.738m31.703 2.738v-2.738"/><g fill="#4d4d4d"><use xlink:href="#aO" x="87.543" y="237.844"/><use xlink:href="#aP" x="87.543" y="232.468"/><use xlink:href="#aQ" x="87.543" y="227.574"/><use xlink:href="#aR" x="87.543" y="220.235"/><use xlink:href="#aS" x="87.543" y="215.341"/></g><g fill="#4d4d4d"><use xlink:href="#aT" x="119.246" y="237.84"/><use xlink:href="#aU" x="119.246" y="230.509"/><use xlink:href="#aW" x="119.246" y="225.615"/><use xlink:href="#aX" x="119.246" y="220.24"/><use xlink:href="#aR" x="119.246" y="215.346"/></g><g fill="#4d4d4d"><use xlink:href="#aT" x="150.949" y="237.84"/><use xlink:href="#aU" x="150.949" y="230.509"/><use xlink:href="#aW" x="150.949" y="225.615"/><use xlink:href="#aX" x="150.949" y="220.24"/><use xlink:href="#aY" x="150.949" y="215.346"/></g><g fill="#4d4d4d"><use xlink:href="#aT" x="182.648" y="237.84"/><use xlink:href="#aU" x="182.648" y="230.509"/><use xlink:href="#aW" x="182.648" y="225.615"/><use xlink:href="#aZ" x="182.648" y="220.24"/><use xlink:href="#ba" x="182.648" y="215.346"/></g><g fill="#4d4d4d"><use xlink:href="#aT" x="214.352" y="237.84"/><use xlink:href="#aU" x="214.352" y="230.509"/><use xlink:href="#aW" x="214.352" y="225.615"/><use xlink:href="#aR" x="214.352" y="220.24"/><use xlink:href="#bb" x="214.352" y="215.346"/></g><g fill="#4d4d4d"><use xlink:href="#aT" x="246.055" y="237.84"/><use xlink:href="#aU" x="246.055" y="230.509"/><use xlink:href="#aW" x="246.055" y="225.615"/><use xlink:href="#bb" x="246.055" y="220.24"/><use xlink:href="#aX" x="246.055" y="215.346"/></g><g fill="#4d4d4d"><use xlink:href="#bc" x="277.758" y="237.109"/><use xlink:href="#bd" x="277.758" y="231.24"/><use xlink:href="#aW" x="277.758" y="226.346"/><use xlink:href="#aX" x="277.758" y="220.97"/><use xlink:href="#ba" x="277.758" y="216.076"/></g><g fill="#4d4d4d"><use xlink:href="#bc" x="309.461" y="237.109"/><use xlink:href="#bd" x="309.461" y="231.24"/><use xlink:href="#aW" x="309.461" y="226.346"/><use xlink:href="#aZ" x="309.461" y="220.97"/><use xlink:href="#bb" x="309.461" y="216.076"/></g><g fill="#4d4d4d"><use xlink:href="#bc" x="341.164" y="237.109"/><use xlink:href="#bd" x="341.164" y="231.24"/><use xlink:href="#aW" x="341.164" y="226.346"/><use xlink:href="#aR" x="341.164" y="220.97"/><use xlink:href="#aX" x="341.164" y="216.076"/></g><g fill="#4d4d4d"><use xlink:href="#bc" x="372.867" y="237.109"/><use xlink:href="#bd" x="372.867" y="231.24"/><use xlink:href="#aW" x="372.867" y="226.346"/><use xlink:href="#aR" x="372.867" y="220.97"/><use xlink:href="#be" x="372.867" y="216.076"/></g><use xlink:href="#bf" x="19.832" y="165.344"/><use xlink:href="#bg" x="22.18" y="157.398"/><path fill="#fff" d="M66.906 277.043h307.469v-28.238H66.906Zm0 0"/><use xlink:href="#bh" x="72.387" y="267.359"/><use xlink:href="#bi" x="79.106" y="267.359"/><use xlink:href="#bj" x="84.606" y="267.359"/><use xlink:href="#bk" x="90.724" y="267.359"/><path fill="#fff" d="M102.32 271.563h17.282V254.28H102.32Zm0 0"/><path fill="#1b9e77" fill-opacity=".2" stroke="#1b9e77" stroke-miterlimit="10" stroke-width=".107" d="M102.39 271.492h17.137v-17.137h-17.136Zm0 0"/><path fill="#1b9e77" fill-opacity=".298" stroke="#1b9e77" stroke-miterlimit="10" stroke-width="1.067" d="M103.027 270.852h15.864v-15.864h-15.864Zm0 0"/><path fill="#1b9e77" fill-opacity=".298" stroke="#1b9e77" stroke-miterlimit="10" stroke-width="1.067" d="M103.027 270.852h15.864v-15.864h-15.864Zm0 0"/><path fill="#fff" d="M164.793 271.563h17.281V254.28h-17.281Zm0 0"/><path fill="#d95f02" fill-opacity=".2" stroke="#d95f02" stroke-miterlimit="10" stroke-width=".107" d="M164.863 271.492H182v-17.137h-17.137Zm0 0"/><path fill="#d95f02" fill-opacity=".298" stroke="#d95f02" stroke-miterlimit="10" stroke-width="1.067" d="M165.5 270.852h15.863v-15.864H165.5Zm0 0"/><path fill="#d95f02" fill-opacity=".298" stroke="#d95f02" stroke-miterlimit="10" stroke-width="1.067" d="M165.5 270.852h15.863v-15.864H165.5Zm0 0"/><path fill="#fff" d="M311.902 271.563h17.282V254.28h-17.282Zm0 0"/><path fill="#7570b3" fill-opacity=".2" stroke="#7570b3" stroke-miterlimit="10" stroke-width=".107" d="M311.973 271.492h17.136v-17.137h-17.136Zm0 0"/><path fill="#7570b3" fill-opacity=".298" stroke="#7570b3" stroke-miterlimit="10" stroke-width="1.067" d="M312.613 270.852h15.864v-15.864h-15.864Zm0 0"/><path fill="#7570b3" fill-opacity=".298" stroke="#7570b3" stroke-miterlimit="10" stroke-width="1.067" d="M312.613 270.852h15.864v-15.864h-15.864Zm0 0"/><use xlink:href="#bl" x="125.078" y="266.57"/><use xlink:href="#bm" x="130.948" y="266.57"/><use xlink:href="#bn" x="135.348" y="266.57"/><use xlink:href="#bo" x="137.793" y="266.57"/><use xlink:href="#bp" x="139.748" y="266.57"/><use xlink:href="#bq" x="147.078" y="266.57"/><use xlink:href="#bn" x="151.972" y="266.57"/><use xlink:href="#br" x="154.417" y="266.57"/><use xlink:href="#bl" x="187.551" y="266.57"/><use xlink:href="#bm" x="193.42" y="266.57"/><use xlink:href="#bn" x="197.82" y="266.57"/><use xlink:href="#bo" x="200.265" y="266.57"/><use xlink:href="#bp" x="202.22" y="266.57"/><use xlink:href="#bq" x="209.551" y="266.57"/><use xlink:href="#bn" x="214.445" y="266.57"/><use xlink:href="#br" x="216.89" y="266.57"/><use xlink:href="#bs" x="224.229" y="266.57"/><use xlink:href="#bq" x="229.123" y="266.57"/><use xlink:href="#bm" x="234.017" y="266.57"/><use xlink:href="#br" x="238.417" y="266.57"/><use xlink:href="#bt" x="243.311" y="266.57"/><use xlink:href="#bu" x="250.65" y="266.57"/><use xlink:href="#bv" x="255.545" y="266.57"/><use xlink:href="#bx" x="262.884" y="266.57"/><use xlink:href="#bq" x="267.778" y="266.57"/><use xlink:href="#by" x="272.672" y="266.57"/><use xlink:href="#bn" x="275.602" y="266.57"/><use xlink:href="#bo" x="278.047" y="266.57"/><use xlink:href="#bq" x="280.002" y="266.57"/><use xlink:href="#bz" x="284.896" y="266.57"/><use xlink:href="#bt" x="289.296" y="266.57"/><use xlink:href="#bq" x="294.191" y="266.57"/><use xlink:href="#bn" x="299.085" y="266.57"/><use xlink:href="#bq" x="301.53" y="266.57"/><use xlink:href="#bA" x="334.664" y="266.57"/><use xlink:href="#bu" x="340.039" y="266.57"/><use xlink:href="#by" x="344.934" y="266.57"/><use xlink:href="#br" x="347.864" y="266.57"/><use xlink:href="#bB" x="352.758" y="266.57"/><use xlink:href="#bq" x="357.158" y="266.57"/><use xlink:href="#bm" x="362.052" y="266.57"/><use xlink:href="#bn" x="366.452" y="266.57"/></svg>