<svg xmlns="http://www.w3.org/2000/svg" xmlns:xlink="http://www.w3.org/1999/xlink" width="700" height="250" viewBox="0 0 525 187.5"><symbol id="N"><path d="M0 .179q.005-.1.063-.14A.3.3 0 0 1 .217 0q.104 0 .159.047a.16.16 0 0 1 .055.126.12.12 0 0 1-.034.088.3.3 0 0 1-.113.051L.198.334a.3.3 0 0 0-.07.023Q.103.37.103.403q0 .075.106.075.113 0 .119-.087h.086Q.408.475.355.515a.22.22 0 0 1-.138.041.22.22 0 0 1-.149-.047.15.15 0 0 1-.052-.118q0-.1.122-.13L.24.236A.3.3 0 0 0 .323.205.05.05 0 0 0 .345.161.07.07 0 0 0 .311.099a.16.16 0 0 0-.09-.022q-.13 0-.135.102z"/></symbol><symbol id="K"><path d="M0 .523V0h.088v.523zm0 .194v-.1h.088v.1z"/></symbol><symbol id="H"><path d="M.027.384h.081a.12.12 0 0 0 .033.073q.026.025.088.025.119 0 .119-.086A.1.1 0 0 0 .337.352Q.327.337.295.333L.158.315Q0 .295 0 .154 0 .076.05.037A.2.2 0 0 1 .167 0q.11 0 .185.084.002-.04.023-.06t.067-.02q.018 0 .05.01v.063L.463.073q-.015 0-.021.006T.435.104v.305a.12.12 0 0 1-.056.108.24.24 0 0 1-.142.039Q.03.556.027.384m.32-.101V.196q0-.053-.049-.089A.2.2 0 0 0 .186.072q-.095 0-.095.089 0 .073.111.088l.063.009a.2.2 0 0 1 .082.025"/></symbol><symbol id="P"><path d="M.09.25h.383a.4.4 0 0 1-.06.23.2.2 0 0 1-.167.076.22.22 0 0 1-.182-.081A.32.32 0 0 1 0 .268q0-.13.065-.2A.23.23 0 0 1 .242 0a.23.23 0 0 1 .15.047.22.22 0 0 1 .074.132H.38A.12.12 0 0 0 .333.107.15.15 0 0 0 .24.077q-.075 0-.113.045A.2.2 0 0 0 .09.25m0 .069a.18.18 0 0 0 .045.115.14.14 0 0 0 .106.044q.06 0 .096-.036T.382.319Z"/></symbol><symbol id="G"><path d="M.375.462a.18.18 0 0 1-.16.094.2.2 0 0 1-.156-.073A.3.3 0 0 1 0 .29Q0 .158.062.078A.2.2 0 0 1 .229 0Q.332-.001.38.085V.016h.083v.718H.375zM.091.286q0 .192.138.192A.12.12 0 0 0 .337.426.3.3 0 0 0 .373.268.23.23 0 0 0 .336.127a.12.12 0 0 0-.105-.05.12.12 0 0 0-.104.056.27.27 0 0 0-.036.153"/></symbol><symbol id="M"><path d="M0 .275q0-.123.069-.2A.23.23 0 0 1 .246 0q.11 0 .177.078a.3.3 0 0 1 .066.199A.3.3 0 0 1 .42.48a.23.23 0 0 1-.176.076.22.22 0 0 1-.177-.079A.3.3 0 0 1 0 .275m.091.002q0 .097.042.149a.14.14 0 0 0 .111.052A.13.13 0 0 0 .359.42.25.25 0 0 0 .398.277q0-.099-.045-.15a.14.14 0 0 0-.109-.05.13.13 0 0 0-.114.057.25.25 0 0 0-.039.143"/></symbol><symbol id="L"><path d="M0 0h.088v.287a.2.2 0 0 0 .038.129q.04.045.101.046.054 0 .081-.029T.336.325V0h.088v.356A.2.2 0 0 1 .378.49a.17.17 0 0 1-.13.05q-.1 0-.166-.094v.077H0Z"/></symbol><symbol id="R"><path d="M0 0h.088v.718H0Z"/></symbol><symbol id="I"><path d="M.047.007A.2.2 0 0 1 .099 0q.063 0 .099.031A.6.6 0 0 1 .289.22l.188.515H.379L.241.309l-.14.426H0L.196.198.168.134A.2.2 0 0 0 .146.093Q.133.077.103.077a.2.2 0 0 0-.056.01z"/></symbol><symbol id="E"><path d="M0 .565v-.07h.164V0h.094v.698H.189Q.169.624.132.597.096.568 0 .565"/></symbol><symbol id="J"><path d="M0 .523.149 0h.09l.103.406L.452 0h.091l.149.523H.604L.501.108.395.523H.297L.194.108.096.523Z"/></symbol><symbol id="Q"><path d="M0 0h.088v.189l.073.076L.323 0h.113L.224.329l.2.194H.312L.088.302v.416H0Z"/></symbol><symbol id="a"><path d="M.095 0v.716H0V0Z"/></symbol><symbol id="b"><path d="M.079.518H0V0h.088v.283c0 .042.003.078.018.106.021.04.068.065.119.065A.1.1 0 0 0 .314.413c.019-.027.02-.06.02-.098V0h.088v.319c0 .051 0 .095-.023.135C.372.5.315.53.244.53A.19.19 0 0 1 .079.445Z"/></symbol><symbol id="c"><path d="M.443.377a.19.19 0 0 1-.198.164C.091.541 0 .441 0 .277 0 .1.089 0 .235 0c.11 0 .198.066.217.19L.365.201C.352.113.305.072.235.072.143.072.09.141.09.273c0 .128.057.196.15.196q.092 0 .118-.105z"/></symbol><symbol id="d"><path d="M.088 0v.518H0V0zm0 .616v.1H0v-.1z"/></symbol><symbol id="e"><path d="M.368.011H.45v.716H.362V.47a.17.17 0 0 1-.139.071C.087.541 0 .438 0 .273 0 .105.098 0 .224 0c.06 0 .111.025.144.077zM.09.27c0 .127.052.199.139.199C.315.469.37.393.37.262.37.136.31.072.232.072.155.072.09.138.09.27"/></symbol><symbol id="f"><path d="M.478.248v.023c0 .171-.097.27-.236.27C.094.541 0 .434 0 .266 0 .1.091 0 .252 0c.113 0 .195.062.223.167L.384.178Q.348.072.248.072C.16.072.097.135.091.248zM.096.321c.006.085.063.148.147.148A.14.14 0 0 0 .372.386C.382.363.383.34.385.321Z"/></symbol><symbol id="g"><path d="M.056.141C.055.089.042.056 0 .037L.024 0c.063.027.082.075.082.141v.1h-.1v-.1z"/></symbol><symbol id="h"><path d="M0 .27A.28.28 0 0 1 .054.086.23.23 0 0 1 .243 0c.141 0 .243.092.243.27a.28.28 0 0 1-.054.184.23.23 0 0 1-.189.087C.102.541 0 .447 0 .27m.09 0c0 .129.063.199.153.199C.334.469.396.398.396.27.396.141.332.072.243.072.152.072.09.142.09.27"/></symbol><symbol id="i"><path d="M.1 0v.1H0V0Z"/></symbol><symbol id="j"><path d="M.166.452h.1v.066h-.1v.049c0 .048.009.08.071.08A.3.3 0 0 0 .29.642l.013.077a.4.4 0 0 1-.08.009C.111.728.078.672.078.574V.518H0V.452h.078V0h.088z"/></symbol><symbol id="k"><path d="M.165.306C.059.291 0 .23 0 .149 0 .061.066 0 .18 0c.068 0 .128.025.188.076A.2.2 0 0 1 .386.012h.092C.445.071.45.137.45.23v.117c0 .056.001.099-.03.137C.386.526.329.542.246.542.109.542.038.489.015.382L.101.371C.115.426.135.47.236.47.346.47.362.419.362.357V.341C.309.322.237.316.165.306M.362.24C.362.192.357.154.323.118a.17.17 0 0 0-.12-.049C.131.069.094.102.094.151c0 .106.148.072.268.121z"/></symbol><symbol id="l"><path d="M.411.396C.405.434.396.464.363.493Q.306.543.207.541C.085.541.015.476.015.392c0-.196.326-.123.326-.238C.341.11.301.072.221.072.146.072.097.107.087.179L0 .166C.02.051.093 0 .229 0c.122 0 .202.074.202.164C.431.359.1.292.1.401c0 .042.04.068.112.068.064 0 .105-.028.113-.085z"/></symbol><symbol id="n"><path d="m.071 0 .207.74H.207L0 0Z"/></symbol><symbol id="o"><path d="M.475.728H.387L.277.427Q.247.342.24.308a1 1 0 0 1-.037.12l-.108.3H0L.197.209C.168.133.163.085.088.085Q.056.087.036.093L.046.01A.2.2 0 0 1 .103 0c.1 0 .131.082.175.201z"/></symbol><symbol id="p"><path d="M0 .365Q0 0 .234 0q.231 0 .233.365c0 .244-.081.366-.234.366Q.002.731 0 .365m.09 0c0 .194.041.294.143.294.104 0 .144-.102.144-.294S.336.072.233.072.09.174.09.365"/></symbol><symbol id="q"><path d="M.264.719H.207A.44.44 0 0 0 0 .539V.454A.6.6 0 0 1 .176.56V0h.088z"/></symbol><symbol id="r"><path d="M.399 0v.171h.096v.081H.399v.464H.327L0 .252V.171h.311V0zM.086.252l.225.323V.252Z"/></symbol><symbol id="s"><path d="M.469.231A.166.166 0 0 1 .335.4q.098.045.098.15c0 .097-.088.181-.209.181C.112.731.031.665.009.545L.097.53c.012.083.059.129.129.129.066 0 .117-.045.117-.11C.343.458.255.421.183.428L.174.351C.19.355.209.36.239.36.319.36.375.296.375.23.375.131.308.072.228.072q-.113 0-.14.141L0 .201C.012.084.097 0 .235 0c.116 0 .234.084.234.231"/></symbol><symbol id="t"><path d="M.155.634h.286v.084H.085L.016.351.098.34c.027.042.074.07.13.07C.32.41.381.342.381.253.381.142.317.072.23.072.16.072.106.116.092.207L0 .2C.012.075.104 0 .234 0c.138 0 .241.109.241.255a.22.22 0 0 1-.223.231.24.24 0 0 1-.135-.044Z"/></symbol><symbol id="u"><path d="M.46.553C.445.667.368.731.255.731.093.731 0 .603 0 .347Q0 .245.021.171A.23.23 0 0 1 .251 0C.38 0 .473.104.473.245c0 .139-.099.231-.209.231A.2.2 0 0 1 .088.381c.001.19.068.278.164.278Q.349.658.373.546zM.101.244C.101.338.166.4.244.4.326.4.383.334.383.239.383.143.326.072.247.072.164.072.101.148.101.244"/></symbol><symbol id="v"><path d="M.35.622A1.1 1.1 0 0 1 .1 0h.091c.017.256.148.506.273.638v.068H0V.622Z"/></symbol><symbol id="w"><path d="M.122.084c.077.129.35.242.35.44C.472.63.39.719.249.719.115.719.029.647.017.512l.09-.01c0 .095.06.145.141.145.078 0 .134-.054.134-.125C.382.435.299.36.166.251.045.152 0 .063 0 .019V0h.473v.084z"/></symbol><symbol id="x"><path d="M.095 0v.292h.183c.095 0 .16.012.212.067a.2.2 0 0 1 .056.156.2.2 0 0 1-.07.152C.419.714.354.716.27.716H0V0zm0 .632h.183C.336.632.375.632.41.6A.13.13 0 0 0 .448.513C.448.414.392.376.28.376H.095Z"/></symbol><symbol id="y"><path d="M.079.518H0V0h.088v.272c0 .113.037.168.097.168A.13.13 0 0 0 .252.421l.03.081A.16.16 0 0 1 .193.53C.134.53.107.49.079.44Z"/></symbol><symbol id="z"><path d="M0 .011h.082v.065A.17.17 0 0 1 .225 0C.347 0 .45.097.45.282.45.436.361.541.23.541a.17.17 0 0 1-.142-.07v.256H0zm.081.263c0 .116.058.195.141.195C.306.469.36.392.36.281.36.141.301.072.218.072a.13.13 0 0 0-.11.065.25.25 0 0 0-.027.137"/></symbol><symbol id="A"><path d="M.088.716H0V0h.088z"/></symbol><symbol id="B"><path d="M.152.464H.24V.53H.152v.182L.064.659V.53H0V.464h.064V.159C.064.079.062 0 .188 0q.037.001.065.008L.24.086Q.218.082.201.081C.152.081.152.108.152.154Z"/></symbol><symbol id="C"><path d="M.472.219C.472.304.428.37.337.4q.105.041.105.144C.442.648.36.731.235.731.112.731.029.651.029.546Q.029.438.136.4C.043.376 0 .307 0 .219 0 .094.096 0 .236 0s.236.093.236.219m-.353.33c0 .058.048.11.116.11A.113.113 0 0 0 .352.545C.352.482.302.434.236.434.168.434.119.481.119.549M.09.218a.14.14 0 0 0 .146.144.143.143 0 0 0 .146-.146.14.14 0 0 0-.141-.144C.15.072.09.136.09.218"/></symbol><symbol id="D"><path d="m.096 0 .066.319h.111C.348.319.398.318.469.133L.52 0h.107L.573.135a.4.4 0 0 1-.131.187Q.683.357.683.54.685.633.625.679C.578.715.522.716.45.716h-.3L0 0zm.133.635h.234C.526.635.592.631.592.543.592.478.548.424.475.405.432.394.377.395.31.395H.178Z"/></symbol><symbol id="O"><path d="M.383.333C.383.171.316.072.223.072.148.072.112.11.098.186L.013.178C.027.064.104 0 .218 0c.084 0 .154.04.199.115.042.07.054.157.054.268a.5.5 0 0 1-.038.218.23.23 0 0 1-.208.13C.094.731 0 .631 0 .489 0 .348.093.256.214.256c.067 0 .134.037.169.093zm-.01.16C.373.398.318.332.233.332.152.332.09.395.09.487c0 .096.065.172.146.172.079 0 .137-.07.137-.166"/></symbol><symbol id="F"><path d="M0 .089V0h.243v.089z"/></symbol><symbol id="S"><path d="M0 0h.484v.082H.099Q.113.129.146.16a.4.4 0 0 0 .096.069l.119.07Q.423.333.454.38q.03.047.03.113A.2.2 0 0 1 .42.648a.23.23 0 0 1-.162.057Q.136.705.077.636A.27.27 0 0 1 .018.455h.086a.23.23 0 0 0 .038.128q.034.043.106.043A.14.14 0 0 0 .352.59.13.13 0 0 0 .39.494.13.13 0 0 0 .37.418a.2.2 0 0 0-.068-.06L.159.273A.3.3 0 0 1 .048.171.34.34 0 0 1 0 0"/></symbol><symbol id="T"><path d="M0 .256V.171h.311V0h.088v.171h.103v.077H.399v.45H.326zM.083.248l.228.318V.248Z"/></symbol><g transform="translate(24.345 -498.825)"><path fill="none" stroke="#231f20" stroke-linecap="round" stroke-linejoin="round" stroke-width=".6" d="M146.458 562.649h.919v.384h.919v-.478h.918v-.854h.929v1.238h.918v-.103h.919v-.469h.919v.094h.919v.478h.918v-1.238h.928v1.041h.919v-1.228h.919v1.228h.918v-.562h.919v-1.997h.919v1.894h.928v-.188h.919v-2.184h.918v2.184h.919v-1.894h.919v1.519h.919v.187h.928v-1.612h.919v.469h.918v-4.078h.919v1.134h.919v2.475h.919v-3.515h.928v1.425h.918v-2.466h.919V524.68h.919v20.212h.919v-4.837h.919v3.703h.927v-7.219h.919v4.847h.919v-7.125h.919v3.703h.918v6.553h.928v-16.706h.919v20.316h.919v-6.075h.919v7.687h.919v-2.944h.918v-36.168h.929v38.447h.918v5.034h.919v-4.65h.919v5.597h.919v-5.503h.918v5.315h.928v1.332h.919v.281h.919v.759h.918v-5.128h.919v6.834h.919v.572h.928v-2.09h.919v1.425h.919v-1.425h.918v3.131h.919v-2.279h.919v1.613h.928v1.144h.919v.572h.919v.469h.918v-.656h.919v.656h.919v.103h.928v.187h.919v-.478h.919v.947h1.837v-.281h1.847v-.666h.919v.76h.918v-.094h1.838v.094h1.847v.384h.919v-.094h1.837v-.103h.919v-.469h.918v.375h.929v.291h.919v-.094h.918v-.103h.919v.197h.918v.094"/><use xlink:href="#a" fill="#231f20" transform="matrix(0 -7.5 -7.5 0 114.52 553.28)"/><use xlink:href="#b" fill="#231f20" transform="matrix(0 -7.5 -7.5 0 114.52 551.375)"/><use xlink:href="#c" fill="#231f20" transform="matrix(0 -7.5 -7.5 0 114.603 547.422)"/><use xlink:href="#d" fill="#231f20" transform="matrix(0 -7.5 -7.5 0 114.52 543.454)"/><use xlink:href="#e" fill="#231f20" transform="matrix(0 -7.5 -7.5 0 114.603 542.03)"/><use xlink:href="#f" fill="#231f20" transform="matrix(0 -7.5 -7.5 0 114.603 537.845)"/><use xlink:href="#b" fill="#231f20" transform="matrix(0 -7.5 -7.5 0 114.52 533.45)"/><use xlink:href="#c" fill="#231f20" transform="matrix(0 -7.5 -7.5 0 114.603 529.497)"/><use xlink:href="#f" fill="#231f20" transform="matrix(0 -7.5 -7.5 0 114.603 525.755)"/><use xlink:href="#g" fill="#231f20" transform="matrix(0 -7.5 -7.5 0 115.578 521.262)"/><use xlink:href="#b" fill="#231f20" transform="matrix(0 -7.5 -7.5 0 123.02 563.674)"/><use xlink:href="#h" fill="#231f20" transform="matrix(0 -7.5 -7.5 0 123.103 559.752)"/><use xlink:href="#i" fill="#231f20" transform="matrix(0 -7.5 -7.5 0 123.02 555.177)"/><use xlink:href="#h" fill="#231f20" transform="matrix(0 -7.5 -7.5 0 123.103 551.412)"/><use xlink:href="#j" fill="#231f20" transform="matrix(0 -7.5 -7.5 0 123.02 547.444)"/><use xlink:href="#c" fill="#231f20" transform="matrix(0 -7.5 -7.5 0 123.103 543.042)"/><use xlink:href="#k" fill="#231f20" transform="matrix(0 -7.5 -7.5 0 123.11 539.3)"/><use xlink:href="#l" fill="#231f20" transform="matrix(0 -7.5 -7.5 0 123.103 535.182)"/><use xlink:href="#f" fill="#231f20" transform="matrix(0 -7.5 -7.5 0 123.103 531.38)"/><use xlink:href="#l" fill="#231f20" transform="matrix(0 -7.5 -7.5 0 123.103 527.262)"/><use xlink:href="#n" fill="#231f20" transform="matrix(0 -7.5 -7.5 0 123.11 523.745)"/><use xlink:href="#e" fill="#231f20" transform="matrix(0 -7.5 -7.5 0 123.103 521.39)"/><use xlink:href="#k" fill="#231f20" transform="matrix(0 -7.5 -7.5 0 123.11 517.205)"/><use xlink:href="#o" fill="#231f20" transform="matrix(0 -7.5 -7.5 0 124.596 513.2)"/><path fill="none" stroke="#231f20" stroke-linecap="round" stroke-linejoin="round" stroke-width=".6" d="M145.539 563.127h88.022m-88.022 0v4.453m6.441-4.453v4.453m6.441-4.453v4.453m6.44-4.453v4.453m6.441-4.453v4.453m6.45-4.453v4.453m6.44-4.453v4.453m6.441-4.453v4.453m6.441-4.453v4.453m6.441-4.453v4.453m6.449-4.453v4.453m6.441-4.453v4.453m6.44-4.453v4.453m6.441-4.453v4.453"/><use xlink:href="#p" fill="#231f20" transform="matrix(7.5 0 0 -7.5 143.778 576.575)"/><use xlink:href="#q" fill="#231f20" transform="matrix(7.5 0 0 -7.5 155.073 576.485)"/><use xlink:href="#r" fill="#231f20" transform="matrix(7.5 0 0 -7.5 158.523 576.485)"/><use xlink:href="#s" fill="#231f20" transform="matrix(7.5 0 0 -7.5 173.893 576.575)"/><use xlink:href="#t" fill="#231f20" transform="matrix(7.5 0 0 -7.5 178.063 576.575)"/><use xlink:href="#t" fill="#231f20" transform="matrix(7.5 0 0 -7.5 193.215 576.575)"/><use xlink:href="#u" fill="#231f20" transform="matrix(7.5 0 0 -7.5 197.347 576.575)"/><use xlink:href="#v" fill="#231f20" transform="matrix(7.5 0 0 -7.5 212.582 576.485)"/><use xlink:href="#v" fill="#231f20" transform="matrix(7.5 0 0 -7.5 216.752 576.485)"/><path fill="none" stroke="#231f20" stroke-linecap="round" stroke-linejoin="round" stroke-width=".6" d="M145.539 563.127v-54.601m0 54.601h-4.453m4.453-9.497h-4.453m4.453-9.497h-4.453m4.453-9.488h-4.453m4.453-9.496h-4.453m4.453-9.488h-4.453"/><use xlink:href="#p" fill="#231f20" transform="matrix(7.5 0 0 -7.5 135.492 565.907)"/><use xlink:href="#q" fill="#231f20" transform="matrix(7.5 0 0 -7.5 127.655 556.322)"/><use xlink:href="#p" fill="#231f20" transform="matrix(7.5 0 0 -7.5 131.322 556.412)"/><use xlink:href="#p" fill="#231f20" transform="matrix(7.5 0 0 -7.5 135.492 556.412)"/><use xlink:href="#w" fill="#231f20" transform="matrix(7.5 0 0 -7.5 127.055 546.834)"/><use xlink:href="#p" fill="#231f20" transform="matrix(7.5 0 0 -7.5 131.322 546.924)"/><use xlink:href="#p" fill="#231f20" transform="matrix(7.5 0 0 -7.5 135.492 546.924)"/><use xlink:href="#s" fill="#231f20" transform="matrix(7.5 0 0 -7.5 127.152 537.43)"/><use xlink:href="#p" fill="#231f20" transform="matrix(7.5 0 0 -7.5 131.322 537.43)"/><use xlink:href="#p" fill="#231f20" transform="matrix(7.5 0 0 -7.5 135.492 537.43)"/><use xlink:href="#r" fill="#231f20" transform="matrix(7.5 0 0 -7.5 126.935 527.845)"/><use xlink:href="#p" fill="#231f20" transform="matrix(7.5 0 0 -7.5 131.322 527.935)"/><use xlink:href="#p" fill="#231f20" transform="matrix(7.5 0 0 -7.5 135.492 527.935)"/><use xlink:href="#t" fill="#231f20" transform="matrix(7.5 0 0 -7.5 127.152 518.447)"/><use xlink:href="#p" fill="#231f20" transform="matrix(7.5 0 0 -7.5 131.322 518.447)"/><use xlink:href="#p" fill="#231f20" transform="matrix(7.5 0 0 -7.5 135.492 518.447)"/></g><g transform="translate(24.345 -498.825)"><path fill="none" stroke="#231f20" stroke-linejoin="round" stroke-width=".6" d="M286.78 563.376v-34.144m7.021 34.144v-52.5m7.021 52.5v-29.007m7.013 29.007v-15.131m7.021 15.131v-7.744m7.023 7.744v-3.929m7.021 3.929v-1.979m7.022 1.979v-.993m7.022.993v-.497m7.023.497v-.253m7.011.253v-.122m7.023.122v-.067"/><use xlink:href="#x" fill="#231f20" transform="matrix(0 -7.5 -7.5 0 257.52 554.054)"/><use xlink:href="#y" fill="#231f20" transform="matrix(0 -7.5 -7.5 0 257.52 549.149)"/><use xlink:href="#h" fill="#231f20" transform="matrix(0 -7.5 -7.5 0 257.602 546.869)"/><use xlink:href="#z" fill="#231f20" transform="matrix(0 -7.5 -7.5 0 257.602 542.459)"/><use xlink:href="#k" fill="#231f20" transform="matrix(0 -7.5 -7.5 0 257.61 538.506)"/><use xlink:href="#z" fill="#231f20" transform="matrix(0 -7.5 -7.5 0 257.602 534.119)"/><use xlink:href="#d" fill="#231f20" transform="matrix(0 -7.5 -7.5 0 257.52 529.941)"/><use xlink:href="#A" fill="#231f20" transform="matrix(0 -7.5 -7.5 0 257.52 528.291)"/><use xlink:href="#d" fill="#231f20" transform="matrix(0 -7.5 -7.5 0 257.52 526.611)"/><use xlink:href="#B" fill="#231f20" transform="matrix(0 -7.5 -7.5 0 257.61 525.336)"/><use xlink:href="#o" fill="#231f20" transform="matrix(0 -7.5 -7.5 0 259.095 523.251)"/><path fill="none" stroke="#231f20" stroke-linecap="round" stroke-linejoin="round" stroke-width=".6" d="M279.758 563.376h87.101m-87.101 0v4.453m7.022-4.453v4.453m7.021-4.453v4.453m7.021-4.453v4.453m7.013-4.453v4.453m7.021-4.453v4.453m7.023-4.453v4.453m7.021-4.453v4.453m7.022-4.453v4.453m7.022-4.453v4.453m7.023-4.453v4.453m7.011-4.453v4.453m7.023-4.453v4.453"/><use xlink:href="#p" fill="#231f20" transform="matrix(7.5 0 0 -7.5 278.006 576.824)"/><use xlink:href="#w" fill="#231f20" transform="matrix(7.5 0 0 -7.5 291.94 576.735)"/><use xlink:href="#r" fill="#231f20" transform="matrix(7.5 0 0 -7.5 305.85 576.735)"/><use xlink:href="#u" fill="#231f20" transform="matrix(7.5 0 0 -7.5 320.061 576.824)"/><use xlink:href="#C" fill="#231f20" transform="matrix(7.5 0 0 -7.5 334.122 576.824)"/><use xlink:href="#q" fill="#231f20" transform="matrix(7.5 0 0 -7.5 346.587 576.735)"/><use xlink:href="#p" fill="#231f20" transform="matrix(7.5 0 0 -7.5 350.255 576.824)"/><path fill="none" stroke="#231f20" stroke-linecap="round" stroke-linejoin="round" stroke-width=".6" d="M279.758 563.376v-54.601m0 54.601h-4.453m4.453-14.645h-4.453m4.453-14.643h-4.453m4.453-14.634h-4.453"/><use xlink:href="#p" fill="#231f20" transform="matrix(7.5 0 0 -7.5 263.737 566.157)"/><use xlink:href="#i" fill="#231f20" transform="matrix(7.5 0 0 -7.5 268.244 566.067)"/><use xlink:href="#p" fill="#231f20" transform="matrix(7.5 0 0 -7.5 269.992 566.157)"/><use xlink:href="#p" fill="#231f20" transform="matrix(7.5 0 0 -7.5 263.737 551.508)"/><use xlink:href="#i" fill="#231f20" transform="matrix(7.5 0 0 -7.5 268.244 551.418)"/><use xlink:href="#q" fill="#231f20" transform="matrix(7.5 0 0 -7.5 270.494 551.418)"/><use xlink:href="#p" fill="#231f20" transform="matrix(7.5 0 0 -7.5 263.737 536.876)"/><use xlink:href="#i" fill="#231f20" transform="matrix(7.5 0 0 -7.5 268.244 536.786)"/><use xlink:href="#w" fill="#231f20" transform="matrix(7.5 0 0 -7.5 269.894 536.786)"/><use xlink:href="#p" fill="#231f20" transform="matrix(7.5 0 0 -7.5 263.737 522.228)"/><use xlink:href="#i" fill="#231f20" transform="matrix(7.5 0 0 -7.5 268.244 522.138)"/><use xlink:href="#s" fill="#231f20" transform="matrix(7.5 0 0 -7.5 269.992 522.228)"/></g><g transform="translate(-34.924 -565.409)scale(1.09403)"><path fill="none" stroke="#231f20" stroke-linecap="round" stroke-linejoin="round" stroke-width=".6" d="m66.953 629.134.919-17.39.929 36.805.918-.572.92-8.428.918 1.594.919 7.378.919-17.588.927 15.732.918-11.044.92 12.29.918-4.284.919-19.097.919 20.954.928.281.919-12.253.919 12.862.918-6.262.92 5.653.917.91.929-7.117.919 2.55.918-11.315.919 8.72.919 7.133.919-5.972.928 2.606.919-2.68.919-39 .918 40.087.919 1.518.919 1.425.928-2.512.919 2.053.918-1.997.919 1.594.919 2.344.928-5.635.919 6.666.919-1.828.919 1.696.917-1.659.92-16.397.927 18.46.92 1.847.919-2.54.918 1.171.919-3.74.919 2.39.928.544.919-.647.919-.188.917-5.953.919 7.247.919.497.928-3.675.92 1.134.918-2.287.919 4.51.919-4.05.919 2.071.928 1.941.919.477.918.338.918-3.469.919 1.725.919-.037.928.141.919-4.144.919 6.403.918-.356.92-4.65.919-1.304.928-8.624.918 11.868.918-.412.919-1.003.919.618.919-.487.928 4.64.919-2.22.919-1.848.918-3.928.919-14.025.918 15.637.929 6.094.919-2.522.918-4.406.918 4.903.919 2.437"/><use xlink:href="#D" fill="#231f20" transform="matrix(0 -7.5 -7.5 0 48.579 627.695)"/><path fill="none" stroke="#231f20" stroke-linecap="round" stroke-linejoin="round" stroke-width=".6" d="M64.197 651.606h88.022m-88.022 0v4.453m6.442-4.453v4.453m6.439-4.453v4.453m6.442-4.453v4.453m6.44-4.453v4.453m6.45-4.453v4.453m6.44-4.453v4.453m6.44-4.453v4.453m6.44-4.453v4.453m6.443-4.453v4.453m6.449-4.453v4.453m6.44-4.453v4.453m6.442-4.453v4.453m6.439-4.453v4.453"/><use xlink:href="#p" fill="#231f20" transform="matrix(7.5 0 0 -7.5 62.436 665.054)"/><use xlink:href="#q" fill="#231f20" transform="matrix(7.5 0 0 -7.5 73.73 664.964)"/><use xlink:href="#r" fill="#231f20" transform="matrix(7.5 0 0 -7.5 77.18 664.964)"/><use xlink:href="#s" fill="#231f20" transform="matrix(7.5 0 0 -7.5 92.55 665.054)"/><use xlink:href="#t" fill="#231f20" transform="matrix(7.5 0 0 -7.5 96.72 665.054)"/><use xlink:href="#t" fill="#231f20" transform="matrix(7.5 0 0 -7.5 111.873 665.054)"/><use xlink:href="#u" fill="#231f20" transform="matrix(7.5 0 0 -7.5 116.006 665.054)"/><use xlink:href="#v" fill="#231f20" transform="matrix(7.5 0 0 -7.5 131.24 664.964)"/><use xlink:href="#v" fill="#231f20" transform="matrix(7.5 0 0 -7.5 135.41 664.964)"/><path fill="none" stroke="#231f20" stroke-linecap="round" stroke-linejoin="round" stroke-width=".6" d="M64.197 651.606v-52.5m0 52.5h-4.453m4.453-7.5h-4.453m4.453-7.5h-4.453m4.453-7.5h-4.453m4.453-7.5h-4.453m4.453-7.5h-4.453m4.453-7.5h-4.453m4.453-7.5h-4.453"/><use xlink:href="#p" fill="#231f20" transform="matrix(7.5 0 0 -7.5 54.15 654.386)"/><use xlink:href="#q" fill="#231f20" transform="matrix(7.5 0 0 -7.5 54.653 646.796)"/><use xlink:href="#w" fill="#231f20" transform="matrix(7.5 0 0 -7.5 54.054 639.296)"/><use xlink:href="#s" fill="#231f20" transform="matrix(7.5 0 0 -7.5 54.15 631.886)"/><use xlink:href="#r" fill="#231f20" transform="matrix(7.5 0 0 -7.5 53.933 624.296)"/><use xlink:href="#t" fill="#231f20" transform="matrix(7.5 0 0 -7.5 54.15 616.886)"/><use xlink:href="#u" fill="#231f20" transform="matrix(7.5 0 0 -7.5 54.114 609.386)"/><use xlink:href="#v" fill="#231f20" transform="matrix(7.5 0 0 -7.5 54.196 601.796)"/><path fill="#e1e2e3" d="m92.715 597.005-.908 41.016-.918 2.86-.93-2.982-.918 6.853-.918-8.596-.92-10.594-.92 12.563-.918-3.17-.928 8.86-.917-1.209-.92-6.816-.918 7.303-.92-16.078-.917 15.085-.93-.826-.917-27.29-.92 23.868-.918 5.644-.92-16.519-.918 13.8-.928-21.815-.92 24.31-.917-11.335-.918-2.24-.92 13.255-.918.394-.786-46.34h-.547l-.514 10.603v34.51l.919-13.782.928 22.556.919-.365.919-4.642.918 1.004.918 4.003.919-11.353.928 10.35.918-7.94.92 8.371.919-2.82.919-14.607.918 15.458.929-.019.917-9.58.92 9.92.919-5.102.919 4.51.917.646.928-5.493.919 1.988.92-9.948.919 7.08.918 5.801.918-5.118.93 2.26.918-2.467.918-36.524.919 36.712.918 1.2.92 1.322.928-2.352.919 1.902.919-1.894.918 1.472.919 2.175.929-5.269.918 6.225.919-1.697.919 1.622.917-1.48.919-15.45.928 17.258.92 1.642.919-2.213.918 1.143.919-3.319.918 2.222.929.516.919-.487.918-.085.918-5.25.918 6.403.92.422.929-3.01.919 1.07.919-1.95.918 3.844.919-3.356.919 1.837.928 1.604.918.477.919.393.917-2.38.92 1.453.92.065.927.253.919-2.719.919 4.24.918-.106.919-2.315.92-.553.928-6.038.917 7.594.919-.364.919-.423.919.477.919-.187.928 2.335.919-.704.919-.43.918-1.576.919-8.465.918 8.512.928 2.625.92-.806.918-1.63.918 2.136.919.581v-10.968l-.92-3.919-.917-7.509-.918 8.952-.92 5.288-.928-10.575-.918-25.218-.92 19.687-.917 7.434-.92 4.97-.918 4.65-.928-6.778-.92 1.002-.918-.58-.92 1.958-.918.253-.917-16.903-.928 11.12-.92 2.54-.92 7.903-.917.843-.92-8.522-.918 5.813-.927.206-.92.253-.92-1.845-.917 4.79-.92-.132-.917-.394-.928-2.278-.92-2.259-.918 4.78-.918-5.164-.92 2.634-.918-1.172-.928 4.406-.921-.553-.918-8.128-.918 6.703-.918.328-.92.836-.928-.574-.918-2.54-.92 4.19-.917-1.172-.92 2.871-.92-2.045-.927-19.697-.92 17.363-.916 1.828-.92-1.753-.918 1.96-.918-7.097-.93 5.99-.918-2.523-.918-1.705-.92 2.09-.918-2.203-.928 2.662-.92-1.519-.918-1.893-.91-43.21z"/><path fill="none" stroke="#231f20" stroke-linecap="round" stroke-linejoin="round" stroke-width=".6" d="m66.953 629.134.919-17.39.929 36.805.918-.572.92-8.428.918 1.594.919 7.378.919-17.588.927 15.732.918-11.044.92 12.29.918-4.284.919-19.097.919 20.954.928.281.919-12.253.919 12.862.918-6.262.92 5.653.917.91.929-7.117.919 2.55.918-11.315.919 8.72.919 7.133.919-5.972.928 2.606.919-2.68.919-39 .918 40.087.919 1.518.919 1.425.928-2.512.919 2.053.918-1.997.919 1.594.919 2.344.928-5.635.919 6.666.919-1.828.919 1.696.917-1.659.92-16.397.927 18.46.92 1.847.919-2.54.918 1.171.919-3.74.919 2.39.928.544.919-.647.919-.188.917-5.953.919 7.247.919.497.928-3.675.92 1.134.918-2.287.919 4.51.919-4.05.919 2.071.928 1.941.919.477.918.338.918-3.469.919 1.725.919-.037.928.141.919-4.144.919 6.403.918-.356.92-4.65.919-1.304.928-8.624.918 11.868.918-.412.919-1.003.919.618.919-.487.928 4.64.919-2.22.919-1.848.918-3.928.919-14.025.918 15.637.929 6.094.919-2.522.918-4.406.918 4.903.919 2.437"/><path fill="none" stroke="#231f20" stroke-dasharray="2.1094, 3.5156" stroke-linecap="round" stroke-linejoin="round" stroke-width=".6" d="M64.197 644.106h84.665"/></g><g fill="#231f20" transform="translate(-27.146 -499.867)"><use xlink:href="#E" transform="matrix(7.9999 0 0 -7.9999 79.63 676.27)"/><use xlink:href="#F" transform="matrix(7.9999 0 0 -7.9999 83.607 674.421)"/><use xlink:href="#G" transform="matrix(7.9999 0 0 -7.9999 86.087 676.397)"/><use xlink:href="#H" transform="matrix(7.9999 0 0 -7.9999 90.51 676.397)"/><use xlink:href="#I" transform="matrix(7.9999 0 0 -7.9999 94.526 677.965)"/><use xlink:href="#J" transform="matrix(7.9999 0 0 -7.9999 101.094 676.27)"/><use xlink:href="#K" transform="matrix(7.9999 0 0 -7.9999 107.27 676.27)"/><use xlink:href="#L" transform="matrix(7.9999 0 0 -7.9999 108.99 676.27)"/><use xlink:href="#G" transform="matrix(7.9999 0 0 -7.9999 113.166 676.397)"/><use xlink:href="#M" transform="matrix(7.9999 0 0 -7.9999 117.582 676.397)"/><use xlink:href="#J" transform="matrix(7.9999 0 0 -7.9999 121.617 676.27)"/><use xlink:href="#N" transform="matrix(7.9999 0 0 -7.9999 127.497 676.397)"/></g><g transform="translate(-37.713 -562.605)scale(1.09405)"><use xlink:href="#D" fill="#231f20" transform="matrix(0 -7.5 -7.5 0 161.434 625.45)"/><path fill="none" stroke="#231f20" stroke-linecap="round" stroke-linejoin="round" stroke-width=".6" d="M177.052 649.36h90.187m-90.187 0v4.452m6.44-4.452v4.452m6.44-4.452v4.452m6.442-4.452v4.452m6.44-4.452v4.452m6.45-4.452v4.452m6.44-4.452v4.452m6.442-4.452v4.452m6.44-4.452v4.452m6.44-4.452v4.452m6.45-4.452v4.452m6.442-4.452v4.452m6.44-4.452v4.452m6.44-4.452v4.452"/><use xlink:href="#p" fill="#231f20" transform="matrix(7.5 0 0 -7.5 175.29 662.808)"/><use xlink:href="#q" fill="#231f20" transform="matrix(7.5 0 0 -7.5 186.586 662.718)"/><use xlink:href="#r" fill="#231f20" transform="matrix(7.5 0 0 -7.5 190.036 662.718)"/><use xlink:href="#s" fill="#231f20" transform="matrix(7.5 0 0 -7.5 205.41 662.808)"/><use xlink:href="#t" fill="#231f20" transform="matrix(7.5 0 0 -7.5 209.58 662.808)"/><use xlink:href="#t" fill="#231f20" transform="matrix(7.5 0 0 -7.5 224.722 662.808)"/><use xlink:href="#u" fill="#231f20" transform="matrix(7.5 0 0 -7.5 228.855 662.808)"/><use xlink:href="#v" fill="#231f20" transform="matrix(7.5 0 0 -7.5 244.096 662.718)"/><use xlink:href="#v" fill="#231f20" transform="matrix(7.5 0 0 -7.5 248.266 662.718)"/><use xlink:href="#O" fill="#231f20" transform="matrix(7.5 0 0 -7.5 263.362 662.808)"/><use xlink:href="#C" fill="#231f20" transform="matrix(7.5 0 0 -7.5 267.525 662.808)"/><path fill="none" stroke="#231f20" stroke-linecap="round" stroke-linejoin="round" stroke-width=".6" d="M177.052 649.36v-52.5m0 52.5h-4.453m4.453-7.5h-4.453m4.453-7.5h-4.453m4.453-7.5h-4.453m4.453-7.5h-4.453m4.453-7.5h-4.453m4.453-7.5h-4.453m4.453-7.5h-4.453"/><use xlink:href="#p" fill="#231f20" transform="matrix(7.5 0 0 -7.5 167.006 652.14)"/><use xlink:href="#q" fill="#231f20" transform="matrix(7.5 0 0 -7.5 167.508 644.55)"/><use xlink:href="#w" fill="#231f20" transform="matrix(7.5 0 0 -7.5 166.908 637.05)"/><use xlink:href="#s" fill="#231f20" transform="matrix(7.5 0 0 -7.5 167.006 629.64)"/><use xlink:href="#r" fill="#231f20" transform="matrix(7.5 0 0 -7.5 166.788 622.05)"/><use xlink:href="#t" fill="#231f20" transform="matrix(7.5 0 0 -7.5 167.006 614.64)"/><use xlink:href="#u" fill="#231f20" transform="matrix(7.5 0 0 -7.5 166.968 607.14)"/><use xlink:href="#v" fill="#231f20" transform="matrix(7.5 0 0 -7.5 167.05 599.55)"/><path fill="#e1e2e3" d="m184.412 641.68.919.93.918-.892.929 2.382.918-1.96.919.15.918.385.919-2.512.919.177.928 1.623.919-1.913.918 1.417.919-.948.919.534.919 1.763.928-.75.919-.46.918-1.012.919-.985.919 1.379.919-.704.929-.178.917-.074.919-7.294.918 2.512.92 1.94.92 1.04.927.414.919.582.918.196.919 1.922.919.57.927-.411.919.412.919.422.919.357.918.422.92-1.53.927.207.92 1.406.92-.091.917.26.919-.355.919.095.927 2.276.919-.075.919-.655.918-.573.919-.243.919.59.928-.216.92-.263.918-.373.919.112.919.683.918-.298.928-.246.919.489.919.318.918.507.919-.17c2.189 1.858 1.934.575 4.603.517l.919.253.92-.17.927-.927.919-.16.918.544c2.135-1.921 2.936-1.953 4.604.835l.918.074.918-.037.92-.901.918-.196.929.703.92-.507.917-.553.919.17.919.74v-5.728l-.92-1.096-.918-.198-.917 1.069-.92.984-.93-.918-.917.553-.92 1.707-.918.402-.918.122-.92-1.855-.927-.93-.92-.083-.918.938-.92 1.133-.917-.61-.92.403-.926 1.51-.92.45-.92-.112-.917.412-.92.273-.918.589-.928-.29-.92-.674-.918.299-.918-.496-.92-.292-.918-.497-.928.348-.918.393-.92-.721-.918-.075-.918.468-.92.348-.928.3-.92-.61-.918.327-.918.686-.92.777-.918.122-.927-2.41-.92-.074-.918.394-.917-.262-.92.112-.92-1.491-.927-.215-.92 1.61-.918-.43-.92-.374-.918-.45-.92-.43-.926.42-.92-.638-.918-2.071-.918-.281-.92-.711-.926-.564-.92-1.266-.92-2.381-.918-3.055-.92 7.77-.916-.065-.93.074-.918.648-.92-1.762-.918.965-.918 1.078-.92.478-.927.825-.92-2.25-.918-.824-.92.9-.917-1.95-.92 2.09-.927-2.391-.92-.562-.918 3.009-.918-.74-.92-.31-.917 2.484-.93-3.441-.917.89-.92-1.78z"/><path fill="none" stroke="#231f20" stroke-linecap="round" stroke-linejoin="round" stroke-width=".6" d="m184.412 638.83.919 1.314.918-.918.929 2.887.918-2.232.919.225.918.544.919-2.776.919.357.928 1.978.919-2.015.918 1.669.919-.93.919.667.919 1.987.928-.787.919-.47.918-1.05.919-.983.919 1.566.919-.675.929-.132.917-.02.919-7.527.918 2.775.92 2.157.92 1.144.927.487.919.647.918.234.919 1.997.919.609.927-.421.919.42.919.433.919.375.918.42.92-1.564.927.206.92 1.453.92-.112.917.27.919-.373.919.084.927 2.344.919-.095.919-.72.918-.628.919-.282.919.599.928-.252.92-.3.918-.423.919.094.919.703.918-.345.928-.292.919.488.919.318.918.497.919-.224.919.674.928.338.919-.441.919-.15.918-.262.919.197.92-.293.927-1.198.919-.263.918.59c2.15-2.486 2.94-2.385 4.604.845h.918l.918-.188.92-1.256.918-.346.929.824.92-.712.917-.787.919.187.919.918"/><path fill="none" stroke="#231f20" stroke-dasharray="2.1094, 3.5156" stroke-linecap="round" stroke-linejoin="round" stroke-width=".6" d="M177.052 641.86h84.666"/></g><g fill="#231f20" transform="translate(-21.026 -496.892)"><use xlink:href="#J" transform="matrix(7.9999 0 0 -7.9999 194.685 673.405)"/><use xlink:href="#P" transform="matrix(7.9999 0 0 -7.9999 200.514 673.337)"/><use xlink:href="#P" transform="matrix(7.9999 0 0 -7.9999 204.93 673.337)"/><use xlink:href="#Q" transform="matrix(7.9999 0 0 -7.9999 209.561 673.21)"/><use xlink:href="#R" transform="matrix(7.9999 0 0 -7.9999 213.561 673.21)"/><use xlink:href="#I" transform="matrix(7.9999 0 0 -7.9999 214.825 674.905)"/><use xlink:href="#J" transform="matrix(7.9999 0 0 -7.9999 221.388 673.21)"/><use xlink:href="#K" transform="matrix(7.9999 0 0 -7.9999 227.564 673.21)"/><use xlink:href="#L" transform="matrix(7.9999 0 0 -7.9999 229.284 673.21)"/><use xlink:href="#G" transform="matrix(7.9999 0 0 -7.9999 233.46 673.337)"/><use xlink:href="#M" transform="matrix(7.9999 0 0 -7.9999 237.876 673.337)"/><use xlink:href="#J" transform="matrix(7.9999 0 0 -7.9999 241.911 673.21)"/><use xlink:href="#N" transform="matrix(7.9999 0 0 -7.9999 247.791 673.337)"/></g><g transform="translate(-63.946 -564.573)scale(1.09405)"><path fill="none" stroke="#231f20" stroke-linecap="round" stroke-linejoin="round" stroke-width=".6" d="m330.83 639.414.918.703.929.948.92-.338.918.328.919-.58.918.627.92.592.927-.507.918.28.919-1.387.918-.056.919.694.919-.216.928.61.918-.32.92-5.39.918 1.34.92 1.266.919 1.2.927.236.919.496.918.197.919.338.919.712.928-.15.919.44.919.3.919.319.918.197.92-.037.926.402.92.526.919.14c1.483.348 3.052.818 4.603.76l.919.469.918-.32.919.076.918-.075.928-.03.92 1.568.918-.2.919-.513.919-.197.919-.3.928.29h.919l.919-.074.918-.104.918-.027.919.674.928-.16.918-.364.92.289.918.15.92.422.919-.234.928.244.919.169.918-.225.918-.403.919-.468.919.074.928.037.919-.065.919-.15.918.253.92-1.05.918-.61.929.357.919.253.917.807.919.027.919.178"/><use xlink:href="#D" fill="#231f20" transform="matrix(0 -7.5 -7.5 0 301.41 626.614)"/><path fill="none" stroke="#231f20" stroke-linecap="round" stroke-linejoin="round" stroke-width=".6" d="M317.03 650.524h90.187m-90.187 0v4.453m6.442-4.453v4.453m6.439-4.453v4.453m6.44-4.453v4.453m6.44-4.453v4.453m6.45-4.453v4.453m6.442-4.453v4.453m6.44-4.453v4.453m6.44-4.453v4.453m6.442-4.453v4.453m6.449-4.453v4.453m6.442-4.453v4.453m6.44-4.453v4.453m6.44-4.453v4.453m6.44-4.453v4.453"/><use xlink:href="#p" fill="#231f20" transform="matrix(7.5 0 0 -7.5 315.27 663.972)"/><use xlink:href="#q" fill="#231f20" transform="matrix(7.5 0 0 -7.5 326.565 663.882)"/><use xlink:href="#r" fill="#231f20" transform="matrix(7.5 0 0 -7.5 330.015 663.882)"/><use xlink:href="#s" fill="#231f20" transform="matrix(7.5 0 0 -7.5 345.382 663.972)"/><use xlink:href="#t" fill="#231f20" transform="matrix(7.5 0 0 -7.5 349.552 663.972)"/><use xlink:href="#t" fill="#231f20" transform="matrix(7.5 0 0 -7.5 364.695 663.972)"/><use xlink:href="#u" fill="#231f20" transform="matrix(7.5 0 0 -7.5 368.828 663.972)"/><use xlink:href="#v" fill="#231f20" transform="matrix(7.5 0 0 -7.5 384.068 663.882)"/><use xlink:href="#v" fill="#231f20" transform="matrix(7.5 0 0 -7.5 388.238 663.882)"/><use xlink:href="#O" fill="#231f20" transform="matrix(7.5 0 0 -7.5 403.335 663.972)"/><use xlink:href="#C" fill="#231f20" transform="matrix(7.5 0 0 -7.5 407.498 663.972)"/><path fill="none" stroke="#231f20" stroke-linecap="round" stroke-linejoin="round" stroke-width=".6" d="M317.03 650.524v-52.5m0 52.5h-4.453m4.453-7.5h-4.453m4.453-7.5h-4.453m4.453-7.5h-4.453m4.453-7.5h-4.453m4.453-7.5h-4.453m4.453-7.5h-4.453m4.453-7.5h-4.453"/><use xlink:href="#p" fill="#231f20" transform="matrix(7.5 0 0 -7.5 306.385 653.305)"/><use xlink:href="#q" fill="#231f20" transform="matrix(7.5 0 0 -7.5 306.887 645.715)"/><use xlink:href="#w" fill="#231f20" transform="matrix(7.5 0 0 -7.5 306.287 638.215)"/><use xlink:href="#s" fill="#231f20" transform="matrix(7.5 0 0 -7.5 306.385 630.805)"/><use xlink:href="#r" fill="#231f20" transform="matrix(7.5 0 0 -7.5 306.167 623.215)"/><use xlink:href="#t" fill="#231f20" transform="matrix(7.5 0 0 -7.5 306.385 615.805)"/><use xlink:href="#u" fill="#231f20" transform="matrix(7.5 0 0 -7.5 306.347 608.305)"/><use xlink:href="#v" fill="#231f20" transform="matrix(7.5 0 0 -7.5 306.43 600.715)"/><path fill="#e1e2e3" d="m330.83 641.243.918.525.929.76.92-.375.918.244.919-.61.918.516.92.506.927-.516.918.225.919-1.35.918-.113.919.592.919-.254.928.535.918-.348.92-5.23.918 1.199.92 1.116.919 1.107.927.187.919.449.918.15.919.3.919.685.928-.168.919.42.919.283.919.299.918.188.92-.037.926.384.92.516.919.14c1.315.307 3.277.855 4.603.768l.919.468.918-.308.919.084.918-.055.928-.03.92 1.538.918-.177.919-.47.919-.167.919-.272.928.29.919.029.919-.057.918-.076.918-.017.919.674.928-.122.918-.318.92.3.918.178.92.43.919-.178.928.272.919.207.918-.15.918-.301.919-.373.919.12.928.086h.919l.919-.085.918.28.92-.87.918-.48.929.32.919.244.917.73.919.067.919.224v-3.365l-.92-.112-.918.036-.917-.861-.92-.273-.928-.365-.918.74-.92 1.257-.918-.216-.92.253-.918.14-.928.02-.92-.02-.918.592-.918.524-.918.31-.92-.123-.927-.206-.92.31-.92-.412-.917-.122-.92-.273-.918.422-.928.197-.92-.684-.917.057-.918.13-.92.104-.918.018-.928-.281-.92.328-.918.225-.92.553-.917.226-.92-1.603-.928.047-.918.084-.92-.066-.917.338-.92-.47-.918.047-.928-.187-.92-.272-.918-.01-.918-.336-.92-.142-.92-.533-.925-.412-.92.027-.918-.206-.92-.337-.918-.32-.92-.46-.927.132-.92-.75-.918-.374-.918-.226-.92-.553-.926-.291-.92-1.303-.92-1.406-.917-1.5-.92 5.54-.918.29-.928-.692-.92.159-.918-.797-.918-.01-.92 1.426-.917-.347-.927.497-.92-.703-.918-.75-.92.553-.917-.431-.92.27-.93-1.151-.917-.91z"/><path fill="none" stroke="#231f20" stroke-linecap="round" stroke-linejoin="round" stroke-width=".6" d="m330.83 639.414.918.703.929.948.92-.338.918.328.919-.58.918.627.92.592.927-.507.918.28.919-1.387.918-.056.919.694.919-.216.928.61.918-.32.92-5.39.918 1.34.92 1.266.919 1.2.927.236.919.496.918.197.919.338.919.712.928-.15.919.44.919.3.919.319.918.197.92-.037.926.402.92.526.919.14c1.483.348 3.052.818 4.603.76l.919.469.918-.32.919.076.918-.075.928-.03.92 1.568.918-.2.919-.513.919-.197.919-.3.928.29h.919l.919-.074.918-.104.918-.027.919.674.928-.16.918-.364.92.289.918.15.92.422.919-.234.928.244.919.169.918-.225.918-.403.919-.468.919.074.928.037.919-.065.919-.15.918.253.92-1.05.918-.61.929.357.919.253.917.807.919.027.919.178"/><path fill="none" stroke="#231f20" stroke-dasharray="2.1094, 3.5156" stroke-linecap="round" stroke-linejoin="round" stroke-width=".6" d="M317.03 643.025h84.665"/></g><g fill="#231f20" transform="translate(-34.671 -497.078)"><use xlink:href="#S" transform="matrix(7.9999 0 0 -7.9999 334.695 673.472)"/><use xlink:href="#F" transform="matrix(7.9999 0 0 -7.9999 339.27 671.623)"/><use xlink:href="#J" transform="matrix(7.9999 0 0 -7.9999 341.583 673.472)"/><use xlink:href="#P" transform="matrix(7.9999 0 0 -7.9999 347.336 673.6)"/><use xlink:href="#P" transform="matrix(7.9999 0 0 -7.9999 351.752 673.6)"/><use xlink:href="#Q" transform="matrix(7.9999 0 0 -7.9999 356.384 673.472)"/><use xlink:href="#J" transform="matrix(7.9999 0 0 -7.9999 362.484 673.472)"/><use xlink:href="#K" transform="matrix(7.9999 0 0 -7.9999 368.659 673.472)"/><use xlink:href="#L" transform="matrix(7.9999 0 0 -7.9999 370.379 673.472)"/><use xlink:href="#G" transform="matrix(7.9999 0 0 -7.9999 374.556 673.6)"/><use xlink:href="#M" transform="matrix(7.9999 0 0 -7.9999 378.972 673.6)"/><use xlink:href="#J" transform="matrix(7.9999 0 0 -7.9999 383.007 673.472)"/><use xlink:href="#N" transform="matrix(7.9999 0 0 -7.9999 388.887 673.6)"/></g><g transform="translate(-78.173 -562.643)scale(1.09405)"><path fill="none" stroke="#231f20" stroke-linecap="round" stroke-linejoin="round" stroke-width=".6" d="m472.72 640.06.918-.14.92-4.162.918.928.92 1.02.919.92.927.282.919.498.918.092.919.328.919.498.928-.141.919.459.919.244.919.347.918.122.92-.722c2.868 1.706 8.559 1.338 11.97 1.669l.92.524.918.067.919.102h.919l.919.14.928.066.919.198.919.122.918-.057.918.357.919-.122.928.028.918-.131.92.018.918 1.322.92-.094.919-.47.928-.112.919-.234.918.198.918-.057.919-.141.919-.075.928-.028.919.57.919-.148.918-.28.92.084.918.037.928.385.92-.18.917.33.918.13.92-.15"/><use xlink:href="#D" fill="#231f20" transform="matrix(0 -7.5 -7.5 0 430.41 625.864)"/><path fill="none" stroke="#231f20" stroke-linecap="round" stroke-linejoin="round" stroke-width=".6" d="M446.029 649.773h90.187m-90.187 0v4.453m6.442-4.453v4.453m6.439-4.453v4.453m6.442-4.453v4.453m6.44-4.453v4.453m6.45-4.453v4.453m6.44-4.453v4.453m6.44-4.453v4.453m6.442-4.453v4.453m6.44-4.453v4.453m6.45-4.453v4.453m6.442-4.453v4.453m6.44-4.453v4.453m6.439-4.453v4.453m6.44-4.453v4.453"/><use xlink:href="#p" fill="#231f20" transform="matrix(7.5 0 0 -7.5 444.269 663.222)"/><use xlink:href="#q" fill="#231f20" transform="matrix(7.5 0 0 -7.5 455.563 663.132)"/><use xlink:href="#r" fill="#231f20" transform="matrix(7.5 0 0 -7.5 459.013 663.132)"/><use xlink:href="#s" fill="#231f20" transform="matrix(7.5 0 0 -7.5 474.38 663.222)"/><use xlink:href="#t" fill="#231f20" transform="matrix(7.5 0 0 -7.5 478.55 663.222)"/><use xlink:href="#t" fill="#231f20" transform="matrix(7.5 0 0 -7.5 493.694 663.222)"/><use xlink:href="#u" fill="#231f20" transform="matrix(7.5 0 0 -7.5 497.826 663.222)"/><use xlink:href="#v" fill="#231f20" transform="matrix(7.5 0 0 -7.5 513.066 663.132)"/><use xlink:href="#v" fill="#231f20" transform="matrix(7.5 0 0 -7.5 517.236 663.132)"/><use xlink:href="#O" fill="#231f20" transform="matrix(7.5 0 0 -7.5 532.332 663.222)"/><use xlink:href="#C" fill="#231f20" transform="matrix(7.5 0 0 -7.5 536.495 663.222)"/><path fill="none" stroke="#231f20" stroke-linecap="round" stroke-linejoin="round" stroke-width=".6" d="M446.029 649.773v-52.5m0 52.5h-4.453m4.453-7.5h-4.453m4.453-7.5h-4.453m4.453-7.5h-4.453m4.453-7.5h-4.453m4.453-7.5h-4.453m4.453-7.5h-4.453m4.453-7.5h-4.453"/><use xlink:href="#p" fill="#231f20" transform="matrix(7.5 0 0 -7.5 435.384 652.555)"/><use xlink:href="#q" fill="#231f20" transform="matrix(7.5 0 0 -7.5 435.887 644.965)"/><use xlink:href="#w" fill="#231f20" transform="matrix(7.5 0 0 -7.5 435.287 637.465)"/><use xlink:href="#s" fill="#231f20" transform="matrix(7.5 0 0 -7.5 435.384 630.055)"/><use xlink:href="#r" fill="#231f20" transform="matrix(7.5 0 0 -7.5 435.167 622.465)"/><use xlink:href="#t" fill="#231f20" transform="matrix(7.5 0 0 -7.5 435.384 615.055)"/><use xlink:href="#u" fill="#231f20" transform="matrix(7.5 0 0 -7.5 435.347 607.555)"/><use xlink:href="#v" fill="#231f20" transform="matrix(7.5 0 0 -7.5 435.429 599.965)"/><path fill="#e1e2e3" d="m472.72 640.812.918-.17.92-4.07c2.983 2.86 2.487 2.682 6.44 3.62l.919.469.928-.16.919.442.919.224.919.337.918.113.92-.712c2.936 1.64 8.535 1.266 11.97 1.603l.92.506.918.075.919.104h.919l.919.139.928.076.919.196.919.123.918-.048.918.366.919-.112.928.037.918-.122.92.027.918 1.294.92-.074.919-.422.928-.102.919-.198.918.206.918-.046.919-.113.919-.047.928-.008.919.57.919-.121.918-.235.92.104.918.056.928.394.92-.131.917.347.918.159.92-.084v-1.51l-.92.206-.918-.085-.917-.308-.92.234c-1.46-.818-3.113-.32-4.603.074l-.92-.571-.927.047-.92.093-.918.169-.918.086c-1.615-.607-3.063.747-4.604.824l-.918-1.341-.92-.01-.918.15-.928-.018-.92.132-.917-.356-.918.064c-2.32-.433-4.128-.496-6.441-.684l-.92-.525-.928-.047-.918-.064-.92-.095-.917.084-.92-.075-.918-.121c-3.202-.412-3.338.138-6.45-1.416l-.92.73-.917-.131-.92-.365-.918-.263-.92-.478-.927.123-.92-.526c-4.025-1.17-3.717-1.293-6.44-4.546l-.92 4.266-.917.093z"/><path fill="none" stroke="#231f20" stroke-linecap="round" stroke-linejoin="round" stroke-width=".6" d="m472.72 640.06.918-.14.92-4.162.918.928.92 1.02.919.92.927.282.919.498.918.092.919.328.919.498.928-.141.919.459.919.244.919.347.918.122.92-.722c2.868 1.706 8.559 1.338 11.97 1.669l.92.524.918.067.919.102h.919l.919.14.928.066.919.198.919.122.918-.057.918.357.919-.122.928.028.918-.131.92.018.918 1.322.92-.094.919-.47.928-.112.919-.234.918.198.918-.057.919-.141.919-.075.928-.028.919.57.919-.148.918-.28.92.084.918.037.928.385.92-.18.917.33.918.13.92-.15"/><path fill="none" stroke="#231f20" stroke-dasharray="2.1094, 3.5156" stroke-linecap="round" stroke-linejoin="round" stroke-width=".6" d="M446.029 642.274h84.666"/></g><g fill="#231f20" transform="translate(-36.304 -496.892)"><use xlink:href="#T" transform="matrix(7.9999 0 0 -7.9999 463.222 673.21)"/><use xlink:href="#F" transform="matrix(7.9999 0 0 -7.9999 467.814 671.36)"/><use xlink:href="#J" transform="matrix(7.9999 0 0 -7.9999 470.126 673.21)"/><use xlink:href="#P" transform="matrix(7.9999 0 0 -7.9999 475.936 673.337)"/><use xlink:href="#P" transform="matrix(7.9999 0 0 -7.9999 480.352 673.337)"/><use xlink:href="#Q" transform="matrix(7.9999 0 0 -7.9999 484.984 673.21)"/><use xlink:href="#J" transform="matrix(7.9999 0 0 -7.9999 491.084 673.21)"/><use xlink:href="#K" transform="matrix(7.9999 0 0 -7.9999 497.26 673.21)"/><use xlink:href="#L" transform="matrix(7.9999 0 0 -7.9999 498.98 673.21)"/><use xlink:href="#G" transform="matrix(7.9999 0 0 -7.9999 503.156 673.337)"/><use xlink:href="#M" transform="matrix(7.9999 0 0 -7.9999 507.572 673.337)"/><use xlink:href="#J" transform="matrix(7.9999 0 0 -7.9999 511.55 673.21)"/><use xlink:href="#N" transform="matrix(7.9999 0 0 -7.9999 517.43 673.337)"/></g></svg>