<?xml version="1.0" encoding="UTF-8"?>
<svg xmlns="http://www.w3.org/2000/svg" xmlns:xlink="http://www.w3.org/1999/xlink" width="288pt" height="180pt" viewBox="0 0 288 180">
<defs>
<g>
<g id="glyph-0-0">
<path d="M 0.398438 -3.390625 C 0.398438 -4.203125 0.480469 -4.855469 0.648438 -5.351562 C 0.816406 -5.847656 1.066406 -6.226562 1.394531 -6.496094 C 1.722656 -6.765625 2.140625 -6.898438 2.640625 -6.898438 C 3.007812 -6.898438 3.332031 -6.824219 3.609375 -6.675781 C 3.886719 -6.527344 4.117188 -6.316406 4.296875 -6.035156 C 4.480469 -5.753906 4.621094 -5.414062 4.726562 -5.011719 C 4.828125 -4.613281 4.878906 -4.070312 4.878906 -3.390625 C 4.878906 -2.582031 4.796875 -1.933594 4.632812 -1.4375 C 4.464844 -0.941406 4.21875 -0.558594 3.886719 -0.289062 C 3.558594 -0.0195312 3.140625 0.117188 2.640625 0.117188 C 1.976562 0.117188 1.457031 -0.121094 1.078125 -0.59375 C 0.625 -1.167969 0.398438 -2.097656 0.398438 -3.390625 M 1.265625 -3.390625 C 1.265625 -2.261719 1.398438 -1.511719 1.660156 -1.136719 C 1.925781 -0.761719 2.25 -0.578125 2.640625 -0.578125 C 3.027344 -0.578125 3.351562 -0.765625 3.617188 -1.140625 C 3.878906 -1.515625 4.011719 -2.265625 4.011719 -3.390625 C 4.011719 -4.519531 3.878906 -5.273438 3.617188 -5.644531 C 3.351562 -6.015625 3.023438 -6.203125 2.628906 -6.203125 C 2.242188 -6.203125 1.933594 -6.039062 1.703125 -5.710938 C 1.410156 -5.289062 1.265625 -4.515625 1.265625 -3.390625 Z M 1.265625 -3.390625 "/>
</g>
<g id="glyph-0-1">
<path d="M 4.832031 -0.8125 L 4.832031 0 L 0.289062 0 C 0.285156 -0.203125 0.316406 -0.398438 0.390625 -0.585938 C 0.503906 -0.894531 0.691406 -1.199219 0.945312 -1.5 C 1.199219 -1.800781 1.566406 -2.148438 2.046875 -2.539062 C 2.796875 -3.152344 3.300781 -3.636719 3.5625 -3.996094 C 3.824219 -4.355469 3.957031 -4.691406 3.957031 -5.011719 C 3.957031 -5.34375 3.835938 -5.628906 3.597656 -5.855469 C 3.359375 -6.085938 3.046875 -6.203125 2.664062 -6.203125 C 2.257812 -6.203125 1.929688 -6.078125 1.6875 -5.835938 C 1.445312 -5.59375 1.320312 -5.253906 1.316406 -4.824219 L 0.449219 -4.914062 C 0.507812 -5.558594 0.734375 -6.050781 1.121094 -6.390625 C 1.507812 -6.730469 2.027344 -6.898438 2.679688 -6.898438 C 3.339844 -6.898438 3.863281 -6.71875 4.246094 -6.351562 C 4.632812 -5.984375 4.824219 -5.53125 4.824219 -4.992188 C 4.824219 -4.71875 4.765625 -4.445312 4.65625 -4.179688 C 4.542969 -3.914062 4.355469 -3.636719 4.09375 -3.34375 C 3.832031 -3.046875 3.398438 -2.644531 2.792969 -2.132812 C 2.289062 -1.707031 1.960938 -1.417969 1.820312 -1.269531 C 1.675781 -1.117188 1.554688 -0.964844 1.460938 -0.8125 Z M 4.832031 -0.8125 "/>
</g>
<g id="glyph-0-2">
<path d="M 0.398438 -1.800781 L 1.285156 -1.875 C 1.351562 -1.445312 1.503906 -1.121094 1.742188 -0.902344 C 1.980469 -0.683594 2.269531 -0.578125 2.605469 -0.578125 C 3.011719 -0.578125 3.355469 -0.730469 3.636719 -1.035156 C 3.917969 -1.34375 4.058594 -1.75 4.058594 -2.253906 C 4.058594 -2.734375 3.925781 -3.117188 3.652344 -3.394531 C 3.382812 -3.671875 3.03125 -3.8125 2.59375 -3.8125 C 2.320312 -3.8125 2.074219 -3.75 1.855469 -3.625 C 1.636719 -3.503906 1.464844 -3.34375 1.339844 -3.144531 L 0.546875 -3.25 L 1.214844 -6.777344 L 4.632812 -6.777344 L 4.632812 -5.972656 L 1.890625 -5.972656 L 1.519531 -4.125 C 1.929688 -4.414062 2.363281 -4.554688 2.816406 -4.554688 C 3.417969 -4.554688 3.921875 -4.347656 4.335938 -3.933594 C 4.75 -3.515625 4.953125 -2.984375 4.953125 -2.328125 C 4.953125 -1.707031 4.773438 -1.171875 4.410156 -0.71875 C 3.96875 -0.160156 3.367188 0.117188 2.605469 0.117188 C 1.980469 0.117188 1.472656 -0.0585938 1.074219 -0.40625 C 0.679688 -0.757812 0.453125 -1.222656 0.398438 -1.800781 Z M 0.398438 -1.800781 "/>
</g>
<g id="glyph-0-3">
<path d="M 0.453125 -5.972656 L 0.453125 -6.78125 L 4.902344 -6.78125 L 4.902344 -6.125 C 4.464844 -5.660156 4.03125 -5.042969 3.601562 -4.269531 C 3.171875 -3.5 2.839844 -2.703125 2.605469 -1.890625 C 2.4375 -1.3125 2.328125 -0.683594 2.28125 0 L 1.414062 0 C 1.425781 -0.539062 1.53125 -1.195312 1.734375 -1.960938 C 1.9375 -2.726562 2.230469 -3.464844 2.609375 -4.175781 C 2.988281 -4.886719 3.390625 -5.484375 3.820312 -5.972656 Z M 0.453125 -5.972656 "/>
</g>
<g id="glyph-0-4">
<path d="M 3.578125 0 L 2.734375 0 L 2.734375 -5.375 C 2.53125 -5.183594 2.261719 -4.988281 1.933594 -4.796875 C 1.605469 -4.601562 1.308594 -4.457031 1.046875 -4.359375 L 1.046875 -5.175781 C 1.515625 -5.398438 1.929688 -5.664062 2.28125 -5.980469 C 2.636719 -6.296875 2.886719 -6.601562 3.03125 -6.898438 L 3.578125 -6.898438 Z M 3.578125 0 "/>
</g>
<g id="glyph-0-5">
<path d="M 0.429688 -2.207031 L 1.289062 -2.28125 C 1.328125 -1.9375 1.425781 -1.65625 1.574219 -1.4375 C 1.722656 -1.214844 1.953125 -1.039062 2.265625 -0.902344 C 2.578125 -0.765625 2.929688 -0.699219 3.320312 -0.699219 C 3.664062 -0.699219 3.972656 -0.75 4.238281 -0.851562 C 4.503906 -0.957031 4.699219 -1.097656 4.832031 -1.277344 C 4.960938 -1.457031 5.023438 -1.652344 5.023438 -1.867188 C 5.023438 -2.082031 4.960938 -2.269531 4.835938 -2.429688 C 4.710938 -2.589844 4.507812 -2.726562 4.21875 -2.835938 C 4.035156 -2.90625 3.625 -3.019531 2.996094 -3.171875 C 2.363281 -3.324219 1.921875 -3.464844 1.667969 -3.601562 C 1.339844 -3.773438 1.097656 -3.984375 0.933594 -4.238281 C 0.773438 -4.496094 0.695312 -4.78125 0.695312 -5.09375 C 0.695312 -5.441406 0.792969 -5.765625 0.988281 -6.066406 C 1.1875 -6.371094 1.472656 -6.597656 1.851562 -6.753906 C 2.230469 -6.910156 2.648438 -6.988281 3.113281 -6.988281 C 3.621094 -6.988281 4.070312 -6.90625 4.460938 -6.742188 C 4.847656 -6.578125 5.148438 -6.335938 5.359375 -6.019531 C 5.566406 -5.699219 5.679688 -5.339844 5.695312 -4.9375 L 4.824219 -4.871094 C 4.777344 -5.304688 4.617188 -5.632812 4.347656 -5.855469 C 4.078125 -6.078125 3.679688 -6.1875 3.148438 -6.1875 C 2.601562 -6.1875 2.199219 -6.085938 1.949219 -5.886719 C 1.695312 -5.683594 1.570312 -5.441406 1.570312 -5.15625 C 1.570312 -4.910156 1.660156 -4.707031 1.835938 -4.546875 C 2.011719 -4.386719 2.46875 -4.222656 3.207031 -4.058594 C 3.949219 -3.890625 4.453125 -3.742188 4.730469 -3.617188 C 5.128906 -3.433594 5.425781 -3.199219 5.617188 -2.917969 C 5.804688 -2.636719 5.902344 -2.308594 5.902344 -1.941406 C 5.902344 -1.574219 5.796875 -1.230469 5.585938 -0.90625 C 5.378906 -0.582031 5.078125 -0.332031 4.683594 -0.152344 C 4.292969 0.0273438 3.851562 0.117188 3.359375 0.117188 C 2.738281 0.117188 2.21875 0.0273438 1.796875 -0.15625 C 1.378906 -0.335938 1.046875 -0.609375 0.808594 -0.972656 C 0.570312 -1.335938 0.445312 -1.75 0.429688 -2.207031 Z M 0.429688 -2.207031 "/>
</g>
<g id="glyph-0-6">
<path d="M 0.894531 0 L 0.894531 -6.871094 L 1.804688 -6.871094 L 1.804688 0 Z M 0.894531 0 "/>
</g>
<g id="glyph-0-7">
<path d="M 0.632812 0 L 0.632812 -4.976562 L 1.390625 -4.976562 L 1.390625 -4.269531 C 1.757812 -4.816406 2.285156 -5.089844 2.976562 -5.089844 C 3.277344 -5.089844 3.550781 -5.035156 3.804688 -4.929688 C 4.054688 -4.820312 4.242188 -4.679688 4.367188 -4.503906 C 4.492188 -4.328125 4.582031 -4.121094 4.632812 -3.882812 C 4.664062 -3.726562 4.679688 -3.453125 4.679688 -3.0625 L 4.679688 0 L 3.835938 0 L 3.835938 -3.027344 C 3.835938 -3.371094 3.800781 -3.628906 3.734375 -3.800781 C 3.671875 -3.96875 3.554688 -4.105469 3.386719 -4.207031 C 3.21875 -4.308594 3.023438 -4.359375 2.796875 -4.359375 C 2.4375 -4.359375 2.128906 -4.246094 1.867188 -4.015625 C 1.605469 -3.789062 1.476562 -3.355469 1.476562 -2.71875 L 1.476562 0 Z M 0.632812 0 "/>
</g>
<g id="glyph-0-8">
<path d="M 3.882812 -1.824219 L 4.710938 -1.714844 C 4.621094 -1.144531 4.386719 -0.695312 4.015625 -0.371094 C 3.640625 -0.0507812 3.183594 0.113281 2.640625 0.113281 C 1.957031 0.113281 1.410156 -0.109375 0.996094 -0.554688 C 0.582031 -1 0.375 -1.640625 0.375 -2.46875 C 0.375 -3.007812 0.464844 -3.476562 0.640625 -3.882812 C 0.820312 -4.285156 1.089844 -4.585938 1.457031 -4.789062 C 1.820312 -4.988281 2.214844 -5.089844 2.644531 -5.089844 C 3.183594 -5.089844 3.625 -4.953125 3.96875 -4.679688 C 4.3125 -4.40625 4.535156 -4.019531 4.632812 -3.515625 L 3.8125 -3.390625 C 3.734375 -3.722656 3.59375 -3.976562 3.394531 -4.144531 C 3.199219 -4.3125 2.957031 -4.398438 2.675781 -4.398438 C 2.25 -4.398438 1.90625 -4.246094 1.640625 -3.941406 C 1.375 -3.636719 1.242188 -3.152344 1.242188 -2.492188 C 1.242188 -1.824219 1.371094 -1.339844 1.625 -1.035156 C 1.882812 -0.734375 2.21875 -0.582031 2.628906 -0.582031 C 2.960938 -0.582031 3.238281 -0.683594 3.460938 -0.886719 C 3.679688 -1.089844 3.820312 -1.402344 3.882812 -1.824219 Z M 3.882812 -1.824219 "/>
</g>
<g id="glyph-0-9">
<path d="M 0.753906 0 L 0.753906 -6.871094 L 3.800781 -6.871094 C 4.414062 -6.871094 4.878906 -6.808594 5.199219 -6.6875 C 5.515625 -6.5625 5.773438 -6.34375 5.960938 -6.03125 C 6.152344 -5.71875 6.25 -5.375 6.25 -4.996094 C 6.25 -4.507812 6.089844 -4.097656 5.773438 -3.765625 C 5.460938 -3.429688 4.972656 -3.21875 4.3125 -3.125 C 4.554688 -3.011719 4.734375 -2.898438 4.859375 -2.785156 C 5.125 -2.539062 5.378906 -2.234375 5.617188 -1.871094 L 6.8125 0 L 5.667969 0 L 4.757812 -1.429688 C 4.492188 -1.84375 4.273438 -2.15625 4.101562 -2.375 C 3.929688 -2.59375 3.777344 -2.75 3.640625 -2.835938 C 3.503906 -2.921875 3.367188 -2.984375 3.226562 -3.019531 C 3.121094 -3.039062 2.953125 -3.050781 2.71875 -3.050781 L 1.664062 -3.050781 L 1.664062 0 L 0.753906 0 M 1.664062 -3.839844 L 3.617188 -3.839844 C 4.035156 -3.839844 4.359375 -3.882812 4.59375 -3.96875 C 4.828125 -4.054688 5.007812 -4.191406 5.128906 -4.378906 C 5.25 -4.570312 5.3125 -4.773438 5.3125 -4.996094 C 5.3125 -5.320312 5.191406 -5.589844 4.957031 -5.796875 C 4.722656 -6.007812 4.347656 -6.113281 3.839844 -6.113281 L 1.664062 -6.113281 Z M 1.664062 -3.839844 "/>
</g>
<g id="glyph-1-0">
<path d="M 3.109375 0 L 3.109375 -7.578125 L 0.28125 -7.578125 L 0.28125 -8.589844 L 7.089844 -8.589844 L 7.089844 -7.578125 L 4.25 -7.578125 L 4.25 0 Z M 3.109375 0 "/>
</g>
<g id="glyph-1-1">
<path d="M 0.796875 -7.375 L 0.796875 -8.589844 L 1.851562 -8.589844 L 1.851562 -7.375 L 0.796875 -7.375 M 0.796875 0 L 0.796875 -6.222656 L 1.851562 -6.222656 L 1.851562 0 Z M 0.796875 0 "/>
</g>
<g id="glyph-1-2">
<path d="M 0.789062 0 L 0.789062 -6.222656 L 1.734375 -6.222656 L 1.734375 -5.351562 C 1.929688 -5.65625 2.1875 -5.898438 2.515625 -6.085938 C 2.835938 -6.269531 3.207031 -6.363281 3.621094 -6.363281 C 4.082031 -6.363281 4.460938 -6.265625 4.753906 -6.078125 C 5.050781 -5.882812 5.257812 -5.617188 5.378906 -5.273438 C 5.871094 -6 6.511719 -6.363281 7.300781 -6.363281 C 7.917969 -6.363281 8.390625 -6.191406 8.726562 -5.851562 C 9.054688 -5.507812 9.222656 -4.980469 9.222656 -4.273438 L 9.222656 0 L 8.171875 0 L 8.171875 -3.921875 C 8.171875 -4.339844 8.140625 -4.644531 8.070312 -4.832031 C 8.003906 -5.015625 7.878906 -5.164062 7.699219 -5.28125 C 7.519531 -5.390625 7.308594 -5.449219 7.066406 -5.449219 C 6.628906 -5.449219 6.265625 -5.304688 5.976562 -5.011719 C 5.6875 -4.722656 5.542969 -4.253906 5.542969 -3.617188 L 5.542969 0 L 4.488281 0 L 4.488281 -4.042969 C 4.488281 -4.511719 4.402344 -4.863281 4.230469 -5.097656 C 4.058594 -5.332031 3.777344 -5.449219 3.386719 -5.449219 C 3.089844 -5.449219 2.816406 -5.371094 2.5625 -5.214844 C 2.3125 -5.058594 2.128906 -4.828125 2.015625 -4.53125 C 1.902344 -4.226562 1.84375 -3.792969 1.84375 -3.226562 L 1.84375 0 Z M 0.789062 0 "/>
</g>
<g id="glyph-1-3">
<path d="M 5.050781 -2.003906 L 6.140625 -1.867188 C 5.96875 -1.230469 5.648438 -0.738281 5.1875 -0.386719 C 4.71875 -0.0351562 4.125 0.140625 3.40625 0.140625 C 2.492188 0.140625 1.773438 -0.140625 1.238281 -0.699219 C 0.707031 -1.261719 0.4375 -2.046875 0.4375 -3.058594 C 0.4375 -4.105469 0.710938 -4.917969 1.25 -5.496094 C 1.789062 -6.074219 2.484375 -6.363281 3.34375 -6.363281 C 4.179688 -6.363281 4.859375 -6.078125 5.382812 -5.515625 C 5.914062 -4.945312 6.175781 -4.148438 6.175781 -3.125 C 6.175781 -3.058594 6.171875 -2.964844 6.171875 -2.84375 L 1.53125 -2.84375 C 1.566406 -2.15625 1.761719 -1.632812 2.109375 -1.273438 C 2.457031 -0.90625 2.890625 -0.726562 3.410156 -0.726562 C 3.796875 -0.726562 4.125 -0.828125 4.398438 -1.03125 C 4.671875 -1.234375 4.890625 -1.558594 5.050781 -2.003906 M 1.585938 -3.710938 L 5.0625 -3.710938 C 5.015625 -4.230469 4.882812 -4.625 4.664062 -4.886719 C 4.328125 -5.292969 3.890625 -5.496094 3.359375 -5.496094 C 2.871094 -5.496094 2.464844 -5.332031 2.136719 -5.007812 C 1.804688 -4.683594 1.625 -4.25 1.585938 -3.710938 Z M 1.585938 -3.710938 "/>
</g>
</g>
<clipPath id="clip-0">
<path clip-rule="nonzero" d="M 35.703125 5.976562 L 282.023438 5.976562 L 282.023438 97.464844 L 35.703125 97.464844 Z M 35.703125 5.976562 "/>
</clipPath>
<clipPath id="clip-1">
<path clip-rule="nonzero" d="M 35.703125 92 L 282.023438 92 L 282.023438 94 L 35.703125 94 Z M 35.703125 92 "/>
</clipPath>
<clipPath id="clip-2">
<path clip-rule="nonzero" d="M 35.703125 71 L 282.023438 71 L 282.023438 74 L 35.703125 74 Z M 35.703125 71 "/>
</clipPath>
<clipPath id="clip-3">
<path clip-rule="nonzero" d="M 35.703125 51 L 282.023438 51 L 282.023438 53 L 35.703125 53 Z M 35.703125 51 "/>
</clipPath>
<clipPath id="clip-4">
<path clip-rule="nonzero" d="M 35.703125 30 L 282.023438 30 L 282.023438 32 L 35.703125 32 Z M 35.703125 30 "/>
</clipPath>
<clipPath id="clip-5">
<path clip-rule="nonzero" d="M 35.703125 9 L 282.023438 9 L 282.023438 11 L 35.703125 11 Z M 35.703125 9 "/>
</clipPath>
<clipPath id="clip-6">
<path clip-rule="nonzero" d="M 46 5.976562 L 48 5.976562 L 48 97.464844 L 46 97.464844 Z M 46 5.976562 "/>
</clipPath>
<clipPath id="clip-7">
<path clip-rule="nonzero" d="M 132 5.976562 L 134 5.976562 L 134 97.464844 L 132 97.464844 Z M 132 5.976562 "/>
</clipPath>
<clipPath id="clip-8">
<path clip-rule="nonzero" d="M 218 5.976562 L 220 5.976562 L 220 97.464844 L 218 97.464844 Z M 218 5.976562 "/>
</clipPath>
</defs>
<rect x="-28.8" y="-18" width="345.6" height="216" fill="rgb(100%, 100%, 100%)" fill-opacity="1"/>
<rect x="-28.8" y="-18" width="345.6" height="216" fill="rgb(100%, 100%, 100%)" fill-opacity="1"/>
<g clip-path="url(#clip-0)">
<path fill-rule="nonzero" fill="rgb(100%, 100%, 100%)" fill-opacity="1" d="M 35.703125 97.46875 L 282.023438 97.46875 L 282.023438 5.980469 L 35.703125 5.980469 Z M 35.703125 97.46875 "/>
</g>
<g clip-path="url(#clip-1)">
<path fill="none" stroke-width="1.066978" stroke-linecap="butt" stroke-linejoin="round" stroke="rgb(89.019608%, 92.941176%, 97.647059%)" stroke-opacity="1" stroke-miterlimit="10" d="M 35.703125 93.308594 L 282.023438 93.308594 "/>
</g>
<g clip-path="url(#clip-2)">
<path fill="none" stroke-width="1.066978" stroke-linecap="butt" stroke-linejoin="round" stroke="rgb(89.019608%, 92.941176%, 97.647059%)" stroke-opacity="1" stroke-miterlimit="10" d="M 35.703125 72.496094 L 282.023438 72.496094 "/>
</g>
<g clip-path="url(#clip-3)">
<path fill="none" stroke-width="1.066978" stroke-linecap="butt" stroke-linejoin="round" stroke="rgb(89.019608%, 92.941176%, 97.647059%)" stroke-opacity="1" stroke-miterlimit="10" d="M 35.703125 51.679688 L 282.023438 51.679688 "/>
</g>
<g clip-path="url(#clip-4)">
<path fill="none" stroke-width="1.066978" stroke-linecap="butt" stroke-linejoin="round" stroke="rgb(89.019608%, 92.941176%, 97.647059%)" stroke-opacity="1" stroke-miterlimit="10" d="M 35.703125 30.867188 L 282.023438 30.867188 "/>
</g>
<g clip-path="url(#clip-5)">
<path fill="none" stroke-width="1.066978" stroke-linecap="butt" stroke-linejoin="round" stroke="rgb(89.019608%, 92.941176%, 97.647059%)" stroke-opacity="1" stroke-miterlimit="10" d="M 35.703125 10.054688 L 282.023438 10.054688 "/>
</g>
<g clip-path="url(#clip-6)">
<path fill="none" stroke-width="1.066978" stroke-linecap="butt" stroke-linejoin="round" stroke="rgb(89.019608%, 92.941176%, 97.647059%)" stroke-opacity="1" stroke-miterlimit="10" d="M 46.898438 97.46875 L 46.898438 5.976562 "/>
</g>
<g clip-path="url(#clip-7)">
<path fill="none" stroke-width="1.066978" stroke-linecap="butt" stroke-linejoin="round" stroke="rgb(89.019608%, 92.941176%, 97.647059%)" stroke-opacity="1" stroke-miterlimit="10" d="M 133.023438 97.46875 L 133.023438 5.976562 "/>
</g>
<g clip-path="url(#clip-8)">
<path fill="none" stroke-width="1.066978" stroke-linecap="butt" stroke-linejoin="round" stroke="rgb(89.019608%, 92.941176%, 97.647059%)" stroke-opacity="1" stroke-miterlimit="10" d="M 219.152344 97.46875 L 219.152344 5.976562 "/>
</g>
<path fill="none" stroke-width="2.560748" stroke-linecap="butt" stroke-linejoin="round" stroke="rgb(87.843137%, 34.117647%, 30.588235%)" stroke-opacity="1" stroke-miterlimit="10" d="M 46.898438 93.226562 L 64.125 90.660156 L 81.347656 56.515625 L 98.574219 45.894531 L 115.800781 62.210938 L 133.023438 74.148438 L 150.25 81.617188 L 167.476562 86.195312 L 184.699219 88.984375 L 201.925781 90.679688 L 219.152344 91.710938 L 236.375 92.339844 L 253.601562 92.71875 L 270.824219 92.949219 "/>
<path fill="none" stroke-width="2.560748" stroke-linecap="butt" stroke-linejoin="round" stroke="rgb(49.411765%, 35.294118%, 83.921569%)" stroke-opacity="1" stroke-miterlimit="10" d="M 46.898438 93.226562 L 64.125 90.371094 L 81.347656 51.503906 L 98.574219 58.722656 L 115.800781 90.050781 L 133.023438 92.902344 L 150.25 93.214844 L 167.476562 93.277344 L 184.699219 93.296875 L 219.152344 93.304688 L 236.375 93.308594 L 270.824219 93.308594 "/>
<path fill="none" stroke-width="2.560748" stroke-linecap="butt" stroke-linejoin="round" stroke="rgb(8.627451%, 62.745098%, 41.960784%)" stroke-opacity="1" stroke-miterlimit="10" d="M 46.898438 93.308594 L 64.125 92.933594 L 81.347656 85.273438 L 98.574219 61.308594 L 115.800781 41.734375 L 133.023438 29.390625 L 150.25 21.828125 L 167.476562 17.222656 L 184.699219 14.421875 L 201.925781 12.71875 L 219.152344 11.683594 L 236.375 11.054688 L 253.601562 10.671875 L 270.824219 10.441406 "/>
<path fill="none" stroke-width="2.560748" stroke-linecap="butt" stroke-linejoin="round" stroke="rgb(16.470588%, 36.078431%, 83.921569%)" stroke-opacity="1" stroke-miterlimit="10" d="M 46.898438 10.136719 L 64.125 13.074219 L 81.347656 54.878906 L 98.574219 89.464844 L 115.800781 92.722656 L 133.023438 93.128906 L 150.25 93.222656 L 167.476562 93.253906 L 184.699219 93.265625 L 201.925781 93.273438 L 219.152344 93.277344 L 253.601562 93.277344 L 270.824219 93.28125 "/>
<path fill="none" stroke-width="1.066978" stroke-linecap="butt" stroke-linejoin="round" stroke="rgb(81.176471%, 87.843137%, 94.901961%)" stroke-opacity="1" stroke-miterlimit="10" d="M 35.703125 97.46875 L 35.703125 5.976562 "/>
<g fill="rgb(39.215686%, 45.882353%, 52.941176%)" fill-opacity="1">
<use xlink:href="#glyph-0-0" x="21.992188" y="97.246094"/>
</g>
<g fill="rgb(39.215686%, 45.882353%, 52.941176%)" fill-opacity="1">
<use xlink:href="#glyph-0-1" x="11.316406" y="76.429688"/>
<use xlink:href="#glyph-0-2" x="16.655469" y="76.429688"/>
<use xlink:href="#glyph-0-0" x="21.994531" y="76.429688"/>
</g>
<g fill="rgb(39.215686%, 45.882353%, 52.941176%)" fill-opacity="1">
<use xlink:href="#glyph-0-2" x="11.316406" y="55.617188"/>
<use xlink:href="#glyph-0-0" x="16.655469" y="55.617188"/>
<use xlink:href="#glyph-0-0" x="21.994531" y="55.617188"/>
</g>
<g fill="rgb(39.215686%, 45.882353%, 52.941176%)" fill-opacity="1">
<use xlink:href="#glyph-0-3" x="11.316406" y="34.804688"/>
<use xlink:href="#glyph-0-2" x="16.655469" y="34.804688"/>
<use xlink:href="#glyph-0-0" x="21.994531" y="34.804688"/>
</g>
<g fill="rgb(39.215686%, 45.882353%, 52.941176%)" fill-opacity="1">
<use xlink:href="#glyph-0-4" x="5.976562" y="13.988281"/>
<use xlink:href="#glyph-0-0" x="11.315625" y="13.988281"/>
<use xlink:href="#glyph-0-0" x="16.654688" y="13.988281"/>
<use xlink:href="#glyph-0-0" x="21.99375" y="13.988281"/>
</g>
<path fill="none" stroke-width="0.853583" stroke-linecap="butt" stroke-linejoin="round" stroke="rgb(81.176471%, 87.843137%, 94.901961%)" stroke-opacity="1" stroke-miterlimit="10" d="M 32.714844 93.308594 L 35.703125 93.308594 "/>
<path fill="none" stroke-width="0.853583" stroke-linecap="butt" stroke-linejoin="round" stroke="rgb(81.176471%, 87.843137%, 94.901961%)" stroke-opacity="1" stroke-miterlimit="10" d="M 32.714844 72.496094 L 35.703125 72.496094 "/>
<path fill="none" stroke-width="0.853583" stroke-linecap="butt" stroke-linejoin="round" stroke="rgb(81.176471%, 87.843137%, 94.901961%)" stroke-opacity="1" stroke-miterlimit="10" d="M 32.714844 51.679688 L 35.703125 51.679688 "/>
<path fill="none" stroke-width="0.853583" stroke-linecap="butt" stroke-linejoin="round" stroke="rgb(81.176471%, 87.843137%, 94.901961%)" stroke-opacity="1" stroke-miterlimit="10" d="M 32.714844 30.867188 L 35.703125 30.867188 "/>
<path fill="none" stroke-width="0.853583" stroke-linecap="butt" stroke-linejoin="round" stroke="rgb(81.176471%, 87.843137%, 94.901961%)" stroke-opacity="1" stroke-miterlimit="10" d="M 32.714844 10.054688 L 35.703125 10.054688 "/>
<path fill="none" stroke-width="1.066978" stroke-linecap="butt" stroke-linejoin="round" stroke="rgb(81.176471%, 87.843137%, 94.901961%)" stroke-opacity="1" stroke-miterlimit="10" d="M 35.703125 97.46875 L 282.023438 97.46875 "/>
<path fill="none" stroke-width="0.853583" stroke-linecap="butt" stroke-linejoin="round" stroke="rgb(81.176471%, 87.843137%, 94.901961%)" stroke-opacity="1" stroke-miterlimit="10" d="M 46.898438 100.457031 L 46.898438 97.46875 "/>
<path fill="none" stroke-width="0.853583" stroke-linecap="butt" stroke-linejoin="round" stroke="rgb(81.176471%, 87.843137%, 94.901961%)" stroke-opacity="1" stroke-miterlimit="10" d="M 133.023438 100.457031 L 133.023438 97.46875 "/>
<path fill="none" stroke-width="0.853583" stroke-linecap="butt" stroke-linejoin="round" stroke="rgb(81.176471%, 87.843137%, 94.901961%)" stroke-opacity="1" stroke-miterlimit="10" d="M 219.152344 100.457031 L 219.152344 97.46875 "/>
<g fill="rgb(39.215686%, 45.882353%, 52.941176%)" fill-opacity="1">
<use xlink:href="#glyph-0-0" x="44.230469" y="113.707031"/>
</g>
<g fill="rgb(39.215686%, 45.882353%, 52.941176%)" fill-opacity="1">
<use xlink:href="#glyph-0-2" x="130.355469" y="113.707031"/>
</g>
<g fill="rgb(39.215686%, 45.882353%, 52.941176%)" fill-opacity="1">
<use xlink:href="#glyph-0-4" x="213.8125" y="113.707031"/>
<use xlink:href="#glyph-0-0" x="219.151563" y="113.707031"/>
</g>
<g fill="rgb(25.882353%, 33.72549%, 41.960784%)" fill-opacity="1">
<use xlink:href="#glyph-1-0" x="145.53125" y="129.308594"/>
<use xlink:href="#glyph-1-1" x="152.861328" y="129.308594"/>
<use xlink:href="#glyph-1-2" x="155.527344" y="129.308594"/>
<use xlink:href="#glyph-1-3" x="165.523438" y="129.308594"/>
</g>
<path fill="none" stroke-width="2.560748" stroke-linecap="butt" stroke-linejoin="round" stroke="rgb(16.470588%, 36.078431%, 83.921569%)" stroke-opacity="1" stroke-miterlimit="10" d="M 90.703125 159.40625 L 104.527344 159.40625 "/>
<path fill="none" stroke-width="2.560748" stroke-linecap="butt" stroke-linejoin="round" stroke="rgb(49.411765%, 35.294118%, 83.921569%)" stroke-opacity="1" stroke-miterlimit="10" d="M 126.34375 159.40625 L 140.167969 159.40625 "/>
<path fill="none" stroke-width="2.560748" stroke-linecap="butt" stroke-linejoin="round" stroke="rgb(87.843137%, 34.117647%, 30.588235%)" stroke-opacity="1" stroke-miterlimit="10" d="M 168.382812 159.40625 L 182.207031 159.40625 "/>
<path fill="none" stroke-width="2.560748" stroke-linecap="butt" stroke-linejoin="round" stroke="rgb(8.627451%, 62.745098%, 41.960784%)" stroke-opacity="1" stroke-miterlimit="10" d="M 200.285156 159.40625 L 214.109375 159.40625 "/>
<g fill="rgb(25.882353%, 33.72549%, 41.960784%)" fill-opacity="1">
<use xlink:href="#glyph-0-5" x="112.234375" y="163.339844"/>
</g>
<g fill="rgb(25.882353%, 33.72549%, 41.960784%)" fill-opacity="1">
<use xlink:href="#glyph-0-6" x="147.871094" y="163.339844"/>
<use xlink:href="#glyph-0-7" x="150.538281" y="163.339844"/>
<use xlink:href="#glyph-0-8" x="155.877344" y="163.339844"/>
</g>
<g fill="rgb(25.882353%, 33.72549%, 41.960784%)" fill-opacity="1">
<use xlink:href="#glyph-0-6" x="189.914062" y="163.339844"/>
</g>
<g fill="rgb(25.882353%, 33.72549%, 41.960784%)" fill-opacity="1">
<use xlink:href="#glyph-0-9" x="221.816406" y="163.339844"/>
</g>
</svg>
