<?xml version="1.0" encoding="UTF-8"?>
<svg xmlns="http://www.w3.org/2000/svg" xmlns:xlink="http://www.w3.org/1999/xlink" width="252pt" height="216pt" viewBox="0 0 252 216">
<defs>
<g>
<g id="glyph-0-0">
<path d="M 3.277344 0 L 2.503906 0 L 2.503906 -4.929688 C 2.320312 -4.75 2.074219 -4.574219 1.773438 -4.394531 C 1.46875 -4.21875 1.199219 -4.085938 0.957031 -3.996094 L 0.957031 -4.742188 C 1.390625 -4.945312 1.769531 -5.195312 2.09375 -5.484375 C 2.417969 -5.773438 2.644531 -6.054688 2.78125 -6.324219 L 3.277344 -6.324219 Z M 3.277344 0 "/>
</g>
<g id="glyph-0-1">
<path d="M 3.703125 -1.46875 L 4.503906 -1.371094 C 4.378906 -0.902344 4.144531 -0.542969 3.804688 -0.285156 C 3.460938 -0.0273438 3.027344 0.101562 2.496094 0.101562 C 1.828125 0.101562 1.300781 -0.101562 0.910156 -0.511719 C 0.519531 -0.925781 0.320312 -1.5 0.320312 -2.242188 C 0.320312 -3.011719 0.519531 -3.605469 0.914062 -4.03125 C 1.3125 -4.453125 1.824219 -4.667969 2.453125 -4.667969 C 3.0625 -4.667969 3.5625 -4.457031 3.949219 -4.042969 C 4.335938 -3.628906 4.527344 -3.042969 4.527344 -2.289062 C 4.527344 -2.246094 4.527344 -2.175781 4.523438 -2.085938 L 1.121094 -2.085938 C 1.148438 -1.582031 1.292969 -1.199219 1.546875 -0.933594 C 1.800781 -0.664062 2.121094 -0.53125 2.5 -0.53125 C 2.785156 -0.53125 3.027344 -0.605469 3.226562 -0.757812 C 3.425781 -0.90625 3.585938 -1.144531 3.703125 -1.46875 M 1.164062 -2.71875 L 3.710938 -2.71875 C 3.679688 -3.105469 3.582031 -3.390625 3.421875 -3.582031 C 3.175781 -3.882812 2.855469 -4.03125 2.460938 -4.03125 C 2.105469 -4.03125 1.808594 -3.910156 1.566406 -3.675781 C 1.324219 -3.4375 1.191406 -3.117188 1.164062 -2.71875 Z M 1.164062 -2.71875 "/>
</g>
<g id="glyph-0-2">
<path d="M 0.28125 -1.890625 L 0.28125 -2.667969 L 2.65625 -2.667969 L 2.65625 -1.890625 Z M 0.28125 -1.890625 "/>
</g>
<g id="glyph-0-3">
<path d="M 4.429688 -0.742188 L 4.429688 0 L 0.265625 0 C 0.261719 -0.1875 0.289062 -0.367188 0.355469 -0.539062 C 0.460938 -0.820312 0.632812 -1.101562 0.867188 -1.375 C 1.097656 -1.648438 1.4375 -1.96875 1.878906 -2.328125 C 2.5625 -2.890625 3.023438 -3.335938 3.265625 -3.664062 C 3.507812 -3.992188 3.625 -4.300781 3.625 -4.59375 C 3.625 -4.898438 3.515625 -5.160156 3.296875 -5.367188 C 3.078125 -5.578125 2.792969 -5.683594 2.441406 -5.683594 C 2.066406 -5.683594 1.769531 -5.574219 1.546875 -5.351562 C 1.324219 -5.125 1.210938 -4.816406 1.207031 -4.421875 L 0.414062 -4.503906 C 0.46875 -5.097656 0.671875 -5.546875 1.027344 -5.859375 C 1.382812 -6.167969 1.859375 -6.324219 2.457031 -6.324219 C 3.0625 -6.324219 3.539062 -6.15625 3.894531 -5.824219 C 4.246094 -5.488281 4.421875 -5.070312 4.421875 -4.578125 C 4.421875 -4.324219 4.371094 -4.078125 4.265625 -3.832031 C 4.164062 -3.589844 3.992188 -3.332031 3.753906 -3.0625 C 3.515625 -2.792969 3.117188 -2.425781 2.5625 -1.957031 C 2.097656 -1.566406 1.800781 -1.300781 1.667969 -1.164062 C 1.535156 -1.023438 1.425781 -0.882812 1.339844 -0.742188 Z M 4.429688 -0.742188 "/>
</g>
<g id="glyph-0-4">
<path d="M 4.378906 -4.757812 L 3.609375 -4.695312 C 3.539062 -5 3.441406 -5.21875 3.316406 -5.359375 C 3.109375 -5.578125 2.851562 -5.6875 2.542969 -5.6875 C 2.296875 -5.6875 2.082031 -5.621094 1.894531 -5.484375 C 1.652344 -5.304688 1.460938 -5.046875 1.320312 -4.703125 C 1.179688 -4.363281 1.105469 -3.878906 1.101562 -3.25 C 1.285156 -3.53125 1.515625 -3.742188 1.785156 -3.878906 C 2.050781 -4.015625 2.335938 -4.085938 2.628906 -4.085938 C 3.144531 -4.085938 3.585938 -3.898438 3.945312 -3.515625 C 4.308594 -3.136719 4.492188 -2.648438 4.492188 -2.046875 C 4.492188 -1.648438 4.40625 -1.28125 4.234375 -0.941406 C 4.0625 -0.605469 3.828125 -0.34375 3.53125 -0.164062 C 3.234375 0.015625 2.894531 0.109375 2.519531 0.109375 C 1.875 0.109375 1.347656 -0.128906 0.941406 -0.605469 C 0.535156 -1.078125 0.332031 -1.859375 0.332031 -2.949219 C 0.332031 -4.164062 0.554688 -5.050781 1.003906 -5.601562 C 1.398438 -6.085938 1.925781 -6.324219 2.589844 -6.324219 C 3.085938 -6.324219 3.492188 -6.1875 3.808594 -5.910156 C 4.125 -5.628906 4.316406 -5.246094 4.378906 -4.757812 M 1.21875 -2.039062 C 1.21875 -1.773438 1.277344 -1.519531 1.390625 -1.277344 C 1.503906 -1.03125 1.660156 -0.847656 1.863281 -0.71875 C 2.066406 -0.59375 2.28125 -0.527344 2.503906 -0.527344 C 2.832031 -0.527344 3.113281 -0.660156 3.347656 -0.925781 C 3.582031 -1.1875 3.699219 -1.546875 3.699219 -2 C 3.699219 -2.433594 3.582031 -2.777344 3.351562 -3.027344 C 3.121094 -3.277344 2.828125 -3.402344 2.476562 -3.402344 C 2.125 -3.402344 1.828125 -3.277344 1.585938 -3.027344 C 1.34375 -2.777344 1.21875 -2.449219 1.21875 -2.039062 Z M 1.21875 -2.039062 "/>
</g>
<g id="glyph-0-5">
<path d="M 0.367188 -3.105469 C 0.367188 -3.851562 0.441406 -4.449219 0.59375 -4.90625 C 0.75 -5.359375 0.976562 -5.710938 1.277344 -5.957031 C 1.582031 -6.203125 1.960938 -6.324219 2.417969 -6.324219 C 2.757812 -6.324219 3.054688 -6.257812 3.308594 -6.121094 C 3.5625 -5.984375 3.773438 -5.789062 3.941406 -5.53125 C 4.105469 -5.277344 4.238281 -4.964844 4.332031 -4.59375 C 4.425781 -4.226562 4.472656 -3.730469 4.472656 -3.105469 C 4.472656 -2.367188 4.398438 -1.769531 4.246094 -1.316406 C 4.09375 -0.863281 3.867188 -0.511719 3.5625 -0.265625 C 3.261719 -0.015625 2.878906 0.109375 2.417969 0.109375 C 1.8125 0.109375 1.335938 -0.109375 0.988281 -0.546875 C 0.574219 -1.070312 0.367188 -1.921875 0.367188 -3.105469 M 1.160156 -3.105469 C 1.160156 -2.074219 1.28125 -1.382812 1.523438 -1.042969 C 1.765625 -0.699219 2.0625 -0.527344 2.417969 -0.527344 C 2.773438 -0.527344 3.074219 -0.699219 3.316406 -1.042969 C 3.558594 -1.386719 3.679688 -2.074219 3.679688 -3.105469 C 3.679688 -4.144531 3.558594 -4.832031 3.316406 -5.171875 C 3.074219 -5.515625 2.773438 -5.683594 2.410156 -5.683594 C 2.054688 -5.683594 1.773438 -5.535156 1.558594 -5.234375 C 1.292969 -4.851562 1.160156 -4.140625 1.160156 -3.105469 Z M 1.160156 -3.105469 "/>
</g>
<g id="glyph-0-6">
<path d="M 0.800781 0 L 0.800781 -0.882812 L 1.679688 -0.882812 L 1.679688 0 Z M 0.800781 0 "/>
</g>
<g id="glyph-0-7">
<path d="M 0.367188 -1.648438 L 1.175781 -1.71875 C 1.238281 -1.324219 1.378906 -1.027344 1.597656 -0.828125 C 1.816406 -0.628906 2.078125 -0.527344 2.390625 -0.527344 C 2.761719 -0.527344 3.078125 -0.667969 3.335938 -0.949219 C 3.59375 -1.230469 3.722656 -1.601562 3.722656 -2.066406 C 3.722656 -2.507812 3.597656 -2.855469 3.347656 -3.109375 C 3.101562 -3.367188 2.777344 -3.492188 2.375 -3.492188 C 2.125 -3.492188 1.902344 -3.4375 1.703125 -3.324219 C 1.5 -3.210938 1.34375 -3.0625 1.230469 -2.882812 L 0.503906 -2.976562 L 1.113281 -6.214844 L 4.246094 -6.214844 L 4.246094 -5.472656 L 1.730469 -5.472656 L 1.390625 -3.78125 C 1.769531 -4.042969 2.167969 -4.175781 2.582031 -4.175781 C 3.132812 -4.175781 3.597656 -3.984375 3.976562 -3.605469 C 4.351562 -3.222656 4.542969 -2.734375 4.542969 -2.136719 C 4.542969 -1.566406 4.375 -1.074219 4.042969 -0.65625 C 3.640625 -0.148438 3.089844 0.109375 2.390625 0.109375 C 1.816406 0.109375 1.347656 -0.0546875 0.984375 -0.375 C 0.625 -0.695312 0.417969 -1.121094 0.367188 -1.648438 Z M 0.367188 -1.648438 "/>
</g>
<g id="glyph-0-8">
<path d="M 0.417969 -5.472656 L 0.417969 -6.21875 L 4.496094 -6.21875 L 4.496094 -5.617188 C 4.09375 -5.1875 3.695312 -4.621094 3.300781 -3.914062 C 2.910156 -3.207031 2.605469 -2.480469 2.390625 -1.730469 C 2.234375 -1.203125 2.136719 -0.628906 2.09375 0 L 1.296875 0 C 1.304688 -0.496094 1.402344 -1.09375 1.589844 -1.796875 C 1.777344 -2.496094 2.042969 -3.175781 2.390625 -3.828125 C 2.738281 -4.476562 3.109375 -5.027344 3.503906 -5.472656 Z M 0.417969 -5.472656 "/>
</g>
<g id="glyph-1-0">
<path d="M 0.847656 0 L 0.847656 -7.875 L 3.820312 -7.875 C 4.339844 -7.875 4.742188 -7.847656 5.015625 -7.796875 C 5.402344 -7.734375 5.726562 -7.613281 5.988281 -7.429688 C 6.25 -7.25 6.460938 -6.996094 6.621094 -6.671875 C 6.777344 -6.34375 6.859375 -5.988281 6.859375 -5.597656 C 6.859375 -4.925781 6.644531 -4.359375 6.21875 -3.898438 C 5.792969 -3.433594 5.023438 -3.203125 3.910156 -3.203125 L 1.890625 -3.203125 L 1.890625 0 L 0.847656 0 M 1.890625 -4.128906 L 3.925781 -4.128906 C 4.597656 -4.128906 5.078125 -4.253906 5.359375 -4.507812 C 5.644531 -4.757812 5.785156 -5.109375 5.785156 -5.5625 C 5.785156 -5.894531 5.703125 -6.175781 5.535156 -6.410156 C 5.367188 -6.644531 5.148438 -6.800781 4.875 -6.875 C 4.703125 -6.921875 4.378906 -6.945312 3.90625 -6.945312 L 1.890625 -6.945312 Z M 1.890625 -4.128906 "/>
</g>
<g id="glyph-1-1">
<path d="M 0.714844 0 L 0.714844 -5.703125 L 1.585938 -5.703125 L 1.585938 -4.839844 C 1.804688 -5.242188 2.011719 -5.511719 2.199219 -5.640625 C 2.386719 -5.769531 2.59375 -5.832031 2.820312 -5.832031 C 3.144531 -5.832031 3.476562 -5.730469 3.8125 -5.523438 L 3.480469 -4.625 C 3.242188 -4.765625 3.007812 -4.832031 2.773438 -4.835938 C 2.558594 -4.832031 2.371094 -4.769531 2.203125 -4.644531 C 2.035156 -4.515625 1.914062 -4.339844 1.84375 -4.113281 C 1.734375 -3.769531 1.679688 -3.394531 1.679688 -2.984375 L 1.679688 0 Z M 0.714844 0 "/>
</g>
<g id="glyph-1-2">
<path d="M 4.628906 -1.835938 L 5.628906 -1.714844 C 5.472656 -1.128906 5.179688 -0.675781 4.753906 -0.355469 C 4.328125 -0.03125 3.78125 0.128906 3.121094 0.128906 C 2.285156 0.128906 1.625 -0.128906 1.136719 -0.640625 C 0.648438 -1.15625 0.402344 -1.875 0.402344 -2.804688 C 0.402344 -3.761719 0.648438 -4.507812 1.144531 -5.039062 C 1.636719 -5.566406 2.277344 -5.832031 3.066406 -5.832031 C 3.828125 -5.832031 4.453125 -5.574219 4.9375 -5.054688 C 5.417969 -4.535156 5.660156 -3.804688 5.660156 -2.863281 C 5.660156 -2.804688 5.660156 -2.71875 5.65625 -2.605469 L 1.402344 -2.605469 C 1.4375 -1.976562 1.613281 -1.5 1.933594 -1.164062 C 2.253906 -0.832031 2.648438 -0.664062 3.125 -0.664062 C 3.480469 -0.664062 3.78125 -0.757812 4.035156 -0.945312 C 4.285156 -1.132812 4.484375 -1.429688 4.628906 -1.835938 M 1.457031 -3.398438 L 4.640625 -3.398438 C 4.597656 -3.878906 4.476562 -4.238281 4.273438 -4.480469 C 3.96875 -4.851562 3.566406 -5.039062 3.078125 -5.039062 C 2.632812 -5.039062 2.261719 -4.890625 1.957031 -4.59375 C 1.65625 -4.296875 1.488281 -3.898438 1.457031 -3.398438 Z M 1.457031 -3.398438 "/>
</g>
<g id="glyph-1-3">
<path d="M 4.425781 0 L 4.425781 -0.71875 C 4.0625 -0.152344 3.53125 0.128906 2.832031 0.128906 C 2.375 0.128906 1.957031 0.00390625 1.578125 -0.246094 C 1.195312 -0.496094 0.898438 -0.847656 0.691406 -1.296875 C 0.480469 -1.746094 0.375 -2.261719 0.375 -2.847656 C 0.375 -3.414062 0.472656 -3.933594 0.660156 -4.394531 C 0.851562 -4.859375 1.136719 -5.214844 1.515625 -5.460938 C 1.894531 -5.710938 2.320312 -5.832031 2.789062 -5.832031 C 3.132812 -5.832031 3.4375 -5.761719 3.707031 -5.617188 C 3.976562 -5.46875 4.191406 -5.28125 4.359375 -5.046875 L 4.359375 -7.875 L 5.324219 -7.875 L 5.324219 0 L 4.425781 0 M 1.371094 -2.847656 C 1.371094 -2.117188 1.523438 -1.570312 1.832031 -1.207031 C 2.140625 -0.847656 2.503906 -0.664062 2.921875 -0.664062 C 3.34375 -0.664062 3.703125 -0.839844 4 -1.183594 C 4.292969 -1.53125 4.441406 -2.058594 4.441406 -2.765625 C 4.441406 -3.546875 4.292969 -4.121094 3.992188 -4.484375 C 3.691406 -4.851562 3.320312 -5.03125 2.878906 -5.03125 C 2.449219 -5.03125 2.089844 -4.855469 1.800781 -4.507812 C 1.515625 -4.15625 1.371094 -3.601562 1.371094 -2.847656 Z M 1.371094 -2.847656 "/>
</g>
<g id="glyph-1-4">
<path d="M 4.445312 -0.703125 C 4.089844 -0.398438 3.746094 -0.183594 3.414062 -0.0585938 C 3.082031 0.0664062 2.726562 0.128906 2.347656 0.128906 C 1.71875 0.128906 1.238281 -0.0234375 0.902344 -0.332031 C 0.566406 -0.636719 0.398438 -1.027344 0.398438 -1.503906 C 0.398438 -1.78125 0.460938 -2.039062 0.589844 -2.269531 C 0.714844 -2.5 0.882812 -2.6875 1.085938 -2.824219 C 1.292969 -2.964844 1.523438 -3.070312 1.78125 -3.140625 C 1.972656 -3.191406 2.257812 -3.242188 2.640625 -3.289062 C 3.421875 -3.378906 3.996094 -3.492188 4.367188 -3.621094 C 4.371094 -3.753906 4.371094 -3.835938 4.371094 -3.871094 C 4.371094 -4.265625 4.28125 -4.542969 4.097656 -4.703125 C 3.851562 -4.921875 3.484375 -5.03125 2.996094 -5.03125 C 2.542969 -5.03125 2.207031 -4.953125 1.988281 -4.792969 C 1.773438 -4.632812 1.613281 -4.351562 1.507812 -3.949219 L 0.5625 -4.078125 C 0.648438 -4.480469 0.792969 -4.808594 0.988281 -5.058594 C 1.183594 -5.304688 1.46875 -5.496094 1.84375 -5.632812 C 2.214844 -5.765625 2.644531 -5.832031 3.136719 -5.832031 C 3.625 -5.832031 4.019531 -5.777344 4.324219 -5.660156 C 4.628906 -5.546875 4.851562 -5.402344 4.996094 -5.230469 C 5.136719 -5.054688 5.238281 -4.835938 5.296875 -4.570312 C 5.328125 -4.40625 5.34375 -4.109375 5.34375 -3.679688 L 5.34375 -2.390625 C 5.34375 -1.492188 5.363281 -0.921875 5.40625 -0.683594 C 5.445312 -0.445312 5.527344 -0.21875 5.648438 0 L 4.640625 0 C 4.539062 -0.199219 4.476562 -0.433594 4.445312 -0.703125 M 4.367188 -2.863281 C 4.015625 -2.71875 3.488281 -2.597656 2.789062 -2.496094 C 2.390625 -2.441406 2.109375 -2.375 1.945312 -2.304688 C 1.78125 -2.234375 1.652344 -2.128906 1.5625 -1.988281 C 1.472656 -1.851562 1.429688 -1.699219 1.429688 -1.53125 C 1.429688 -1.273438 1.527344 -1.058594 1.722656 -0.886719 C 1.917969 -0.714844 2.203125 -0.628906 2.578125 -0.628906 C 2.949219 -0.628906 3.28125 -0.710938 3.570312 -0.871094 C 3.863281 -1.035156 4.074219 -1.257812 4.210938 -1.542969 C 4.316406 -1.761719 4.367188 -2.082031 4.367188 -2.507812 Z M 4.367188 -2.863281 "/>
</g>
<g id="glyph-1-5">
<path d="M 2.835938 -0.863281 L 2.976562 -0.0117188 C 2.703125 0.046875 2.460938 0.0742188 2.246094 0.0742188 C 1.894531 0.0742188 1.621094 0.0195312 1.429688 -0.0898438 C 1.234375 -0.203125 1.097656 -0.347656 1.019531 -0.527344 C 0.941406 -0.710938 0.902344 -1.089844 0.902344 -1.671875 L 0.902344 -4.953125 L 0.195312 -4.953125 L 0.195312 -5.703125 L 0.902344 -5.703125 L 0.902344 -7.117188 L 1.863281 -7.695312 L 1.863281 -5.703125 L 2.835938 -5.703125 L 2.835938 -4.953125 L 1.863281 -4.953125 L 1.863281 -1.617188 C 1.863281 -1.339844 1.878906 -1.164062 1.914062 -1.085938 C 1.949219 -1.007812 2.003906 -0.945312 2.082031 -0.898438 C 2.160156 -0.851562 2.269531 -0.828125 2.410156 -0.828125 C 2.519531 -0.828125 2.660156 -0.839844 2.835938 -0.863281 Z M 2.835938 -0.863281 "/>
</g>
<g id="glyph-1-6">
<path d="M 0.730469 -6.761719 L 0.730469 -7.875 L 1.695312 -7.875 L 1.695312 -6.761719 L 0.730469 -6.761719 M 0.730469 0 L 0.730469 -5.703125 L 1.695312 -5.703125 L 1.695312 0 Z M 0.730469 0 "/>
</g>
<g id="glyph-1-7">
<path d="M 0.367188 -2.851562 C 0.367188 -3.910156 0.660156 -4.691406 1.246094 -5.199219 C 1.738281 -5.621094 2.335938 -5.832031 3.039062 -5.832031 C 3.824219 -5.832031 4.464844 -5.574219 4.960938 -5.0625 C 5.460938 -4.546875 5.710938 -3.839844 5.710938 -2.933594 C 5.710938 -2.199219 5.597656 -1.621094 5.378906 -1.199219 C 5.160156 -0.78125 4.839844 -0.453125 4.417969 -0.21875 C 3.996094 0.0117188 3.539062 0.128906 3.039062 0.128906 C 2.242188 0.128906 1.597656 -0.128906 1.105469 -0.640625 C 0.613281 -1.152344 0.367188 -1.890625 0.367188 -2.851562 M 1.359375 -2.851562 C 1.359375 -2.121094 1.519531 -1.574219 1.835938 -1.210938 C 2.15625 -0.847656 2.554688 -0.664062 3.039062 -0.664062 C 3.519531 -0.664062 3.917969 -0.847656 4.238281 -1.214844 C 4.554688 -1.578125 4.714844 -2.136719 4.714844 -2.882812 C 4.714844 -3.589844 4.554688 -4.125 4.234375 -4.488281 C 3.914062 -4.851562 3.515625 -5.03125 3.039062 -5.03125 C 2.554688 -5.03125 2.15625 -4.851562 1.835938 -4.492188 C 1.519531 -4.128906 1.359375 -3.582031 1.359375 -2.851562 Z M 1.359375 -2.851562 "/>
</g>
<g id="glyph-1-8">
<path d="M 0.726562 0 L 0.726562 -5.703125 L 1.59375 -5.703125 L 1.59375 -4.894531 C 2.015625 -5.519531 2.621094 -5.832031 3.410156 -5.832031 C 3.753906 -5.832031 4.070312 -5.769531 4.359375 -5.648438 C 4.648438 -5.523438 4.863281 -5.363281 5.007812 -5.160156 C 5.148438 -4.960938 5.25 -4.722656 5.304688 -4.445312 C 5.34375 -4.269531 5.359375 -3.953125 5.359375 -3.507812 L 5.359375 0 L 4.394531 0 L 4.394531 -3.46875 C 4.394531 -3.863281 4.355469 -4.15625 4.28125 -4.351562 C 4.207031 -4.546875 4.070312 -4.703125 3.878906 -4.820312 C 3.6875 -4.9375 3.464844 -4.996094 3.207031 -4.996094 C 2.792969 -4.996094 2.4375 -4.863281 2.140625 -4.601562 C 1.839844 -4.339844 1.691406 -3.84375 1.691406 -3.117188 L 1.691406 0 Z M 0.726562 0 "/>
</g>
<g id="glyph-1-9">
</g>
<g id="glyph-1-10">
<path d="M 0.726562 2.1875 L 0.726562 -5.703125 L 1.605469 -5.703125 L 1.605469 -4.960938 C 1.8125 -5.253906 2.046875 -5.46875 2.308594 -5.617188 C 2.570312 -5.761719 2.886719 -5.832031 3.261719 -5.832031 C 3.746094 -5.832031 4.175781 -5.707031 4.550781 -5.457031 C 4.921875 -5.207031 5.203125 -4.851562 5.390625 -4.394531 C 5.582031 -3.941406 5.675781 -3.4375 5.675781 -2.894531 C 5.675781 -2.3125 5.574219 -1.785156 5.363281 -1.320312 C 5.152344 -0.851562 4.847656 -0.492188 4.449219 -0.246094 C 4.050781 0.00390625 3.632812 0.128906 3.191406 0.128906 C 2.867188 0.128906 2.578125 0.0625 2.324219 -0.0742188 C 2.066406 -0.210938 1.855469 -0.382812 1.691406 -0.589844 L 1.691406 2.1875 L 0.726562 2.1875 M 1.601562 -2.820312 C 1.601562 -2.085938 1.75 -1.542969 2.046875 -1.191406 C 2.34375 -0.839844 2.703125 -0.664062 3.125 -0.664062 C 3.554688 -0.664062 3.921875 -0.847656 4.230469 -1.210938 C 4.535156 -1.574219 4.6875 -2.136719 4.6875 -2.898438 C 4.6875 -3.628906 4.539062 -4.171875 4.242188 -4.53125 C 3.941406 -4.894531 3.585938 -5.074219 3.167969 -5.074219 C 2.757812 -5.074219 2.394531 -4.882812 2.074219 -4.5 C 1.757812 -4.113281 1.601562 -3.554688 1.601562 -2.820312 Z M 1.601562 -2.820312 "/>
</g>
<g id="glyph-1-11">
<path d="M 1.617188 0 L 0.71875 0 L 0.71875 -7.875 L 1.6875 -7.875 L 1.6875 -5.066406 C 2.09375 -5.578125 2.617188 -5.832031 3.25 -5.832031 C 3.601562 -5.832031 3.933594 -5.761719 4.246094 -5.621094 C 4.558594 -5.480469 4.816406 -5.28125 5.019531 -5.023438 C 5.222656 -4.769531 5.378906 -4.460938 5.496094 -4.097656 C 5.609375 -3.738281 5.667969 -3.351562 5.667969 -2.9375 C 5.667969 -1.960938 5.425781 -1.203125 4.941406 -0.671875 C 4.457031 -0.136719 3.878906 0.128906 3.203125 0.128906 C 2.527344 0.128906 2 -0.152344 1.617188 -0.714844 L 1.617188 0 M 1.605469 -2.894531 C 1.605469 -2.210938 1.699219 -1.71875 1.886719 -1.414062 C 2.191406 -0.914062 2.601562 -0.664062 3.121094 -0.664062 C 3.542969 -0.664062 3.910156 -0.847656 4.214844 -1.214844 C 4.523438 -1.582031 4.679688 -2.128906 4.679688 -2.859375 C 4.679688 -3.601562 4.53125 -4.152344 4.234375 -4.507812 C 3.941406 -4.859375 3.582031 -5.039062 3.164062 -5.039062 C 2.742188 -5.039062 2.375 -4.855469 2.066406 -4.488281 C 1.761719 -4.121094 1.605469 -3.589844 1.605469 -2.894531 Z M 1.605469 -2.894531 "/>
</g>
<g id="glyph-1-12">
<path d="M 0.703125 0 L 0.703125 -7.875 L 1.671875 -7.875 L 1.671875 0 Z M 0.703125 0 "/>
</g>
<g id="glyph-1-13">
<path d="M 0.683594 2.195312 L 0.574219 1.289062 C 0.785156 1.347656 0.96875 1.375 1.128906 1.375 C 1.34375 1.375 1.515625 1.339844 1.644531 1.265625 C 1.773438 1.195312 1.878906 1.09375 1.960938 0.96875 C 2.019531 0.871094 2.121094 0.628906 2.257812 0.246094 C 2.273438 0.195312 2.300781 0.113281 2.34375 0.0117188 L 0.175781 -5.703125 L 1.21875 -5.703125 L 2.40625 -2.402344 C 2.558594 -1.980469 2.699219 -1.542969 2.820312 -1.078125 C 2.929688 -1.523438 3.0625 -1.957031 3.21875 -2.378906 L 4.4375 -5.703125 L 5.402344 -5.703125 L 3.234375 0.0976562 C 3 0.722656 2.820312 1.15625 2.691406 1.390625 C 2.519531 1.710938 2.320312 1.945312 2.101562 2.09375 C 1.878906 2.242188 1.613281 2.316406 1.304688 2.316406 C 1.117188 2.316406 0.910156 2.277344 0.683594 2.195312 Z M 0.683594 2.195312 "/>
</g>
<g id="glyph-1-14">
<path d="M 4.445312 -2.089844 L 5.398438 -1.964844 C 5.292969 -1.3125 5.027344 -0.796875 4.601562 -0.425781 C 4.171875 -0.0546875 3.648438 0.128906 3.023438 0.128906 C 2.242188 0.128906 1.617188 -0.125 1.140625 -0.636719 C 0.667969 -1.148438 0.429688 -1.878906 0.429688 -2.832031 C 0.429688 -3.445312 0.53125 -3.984375 0.734375 -4.445312 C 0.941406 -4.910156 1.25 -5.253906 1.667969 -5.488281 C 2.085938 -5.71875 2.539062 -5.832031 3.03125 -5.832031 C 3.648438 -5.832031 4.15625 -5.675781 4.550781 -5.363281 C 4.941406 -5.050781 5.195312 -4.605469 5.304688 -4.027344 L 4.367188 -3.882812 C 4.277344 -4.265625 4.117188 -4.554688 3.890625 -4.75 C 3.664062 -4.941406 3.390625 -5.039062 3.066406 -5.039062 C 2.578125 -5.039062 2.183594 -4.863281 1.878906 -4.515625 C 1.574219 -4.164062 1.421875 -3.613281 1.421875 -2.859375 C 1.421875 -2.089844 1.570312 -1.535156 1.863281 -1.1875 C 2.15625 -0.839844 2.539062 -0.664062 3.011719 -0.664062 C 3.394531 -0.664062 3.710938 -0.78125 3.964844 -1.015625 C 4.21875 -1.246094 4.378906 -1.605469 4.445312 -2.089844 Z M 4.445312 -2.089844 "/>
</g>
<g id="glyph-2-0">
<path d="M 0 -0.804688 L -7.875 -0.804688 L -7.875 -1.847656 L -0.929688 -1.847656 L -0.929688 -5.726562 L 0 -5.726562 Z M 0 -0.804688 "/>
</g>
<g id="glyph-2-1">
<path d="M -6.761719 -0.730469 L -7.875 -0.730469 L -7.875 -1.699219 L -6.761719 -1.699219 L -6.761719 -0.730469 M 0 -0.730469 L -5.703125 -0.730469 L -5.703125 -1.699219 L 0 -1.695312 Z M 0 -0.730469 "/>
</g>
<g id="glyph-2-2">
<path d="M 0 -0.730469 L -7.875 -0.730469 L -7.875 -1.699219 L -3.382812 -1.699219 L -5.703125 -3.984375 L -5.703125 -5.238281 L -3.585938 -3.054688 L 0 -5.457031 L 0 -4.265625 L -2.917969 -2.378906 L -2.261719 -1.699219 L 0 -1.695312 Z M 0 -0.730469 "/>
</g>
<g id="glyph-2-3">
<path d="M -1.835938 -4.628906 L -1.714844 -5.628906 C -1.128906 -5.472656 -0.675781 -5.179688 -0.355469 -4.753906 C -0.03125 -4.328125 0.128906 -3.78125 0.128906 -3.121094 C 0.128906 -2.285156 -0.128906 -1.625 -0.640625 -1.136719 C -1.15625 -0.648438 -1.875 -0.402344 -2.804688 -0.402344 C -3.761719 -0.402344 -4.507812 -0.648438 -5.039062 -1.144531 C -5.566406 -1.636719 -5.832031 -2.277344 -5.832031 -3.066406 C -5.832031 -3.828125 -5.574219 -4.453125 -5.054688 -4.9375 C -4.535156 -5.417969 -3.804688 -5.660156 -2.863281 -5.660156 C -2.804688 -5.660156 -2.71875 -5.660156 -2.605469 -5.65625 L -2.605469 -1.402344 C -1.976562 -1.4375 -1.5 -1.613281 -1.164062 -1.933594 C -0.832031 -2.253906 -0.664062 -2.648438 -0.664062 -3.125 C -0.664062 -3.480469 -0.757812 -3.78125 -0.945312 -4.035156 C -1.132812 -4.285156 -1.429688 -4.484375 -1.835938 -4.628906 M -3.398438 -1.457031 L -3.398438 -4.640625 C -3.878906 -4.597656 -4.238281 -4.476562 -4.480469 -4.273438 C -4.851562 -3.96875 -5.039062 -3.566406 -5.039062 -3.078125 C -5.039062 -2.632812 -4.890625 -2.261719 -4.59375 -1.957031 C -4.296875 -1.65625 -3.898438 -1.488281 -3.398438 -1.457031 Z M -3.398438 -1.457031 "/>
</g>
<g id="glyph-2-4">
<path d="M 0 -0.703125 L -7.875 -0.703125 L -7.875 -1.671875 L 0 -1.671875 Z M 0 -0.703125 "/>
</g>
<g id="glyph-2-5">
<path d="M 0 -0.726562 L -7.875 -0.726562 L -7.875 -1.691406 L -5.046875 -1.691406 C -5.570312 -2.144531 -5.832031 -2.710938 -5.832031 -3.398438 C -5.832031 -3.824219 -5.75 -4.1875 -5.582031 -4.5 C -5.417969 -4.8125 -5.1875 -5.035156 -4.894531 -5.167969 C -4.597656 -5.304688 -4.171875 -5.371094 -3.613281 -5.371094 L 0 -5.371094 L 0 -4.40625 L -3.613281 -4.40625 C -4.097656 -4.40625 -4.449219 -4.300781 -4.671875 -4.089844 C -4.890625 -3.878906 -5 -3.585938 -5 -3.203125 C -5 -2.914062 -4.925781 -2.644531 -4.777344 -2.394531 C -4.628906 -2.140625 -4.425781 -1.960938 -4.171875 -1.851562 C -3.917969 -1.746094 -3.566406 -1.691406 -3.121094 -1.691406 L 0 -1.691406 Z M 0 -0.726562 "/>
</g>
<g id="glyph-2-6">
<path d="M -2.851562 -0.367188 C -3.910156 -0.367188 -4.691406 -0.660156 -5.199219 -1.246094 C -5.621094 -1.738281 -5.832031 -2.335938 -5.832031 -3.039062 C -5.832031 -3.824219 -5.574219 -4.464844 -5.0625 -4.960938 C -4.546875 -5.460938 -3.839844 -5.710938 -2.933594 -5.710938 C -2.199219 -5.710938 -1.621094 -5.597656 -1.199219 -5.378906 C -0.78125 -5.160156 -0.453125 -4.839844 -0.21875 -4.417969 C 0.0117188 -3.996094 0.128906 -3.539062 0.128906 -3.039062 C 0.128906 -2.242188 -0.128906 -1.597656 -0.640625 -1.105469 C -1.152344 -0.613281 -1.890625 -0.367188 -2.851562 -0.367188 M -2.851562 -1.359375 C -2.121094 -1.359375 -1.574219 -1.519531 -1.210938 -1.835938 C -0.847656 -2.15625 -0.664062 -2.554688 -0.664062 -3.039062 C -0.664062 -3.519531 -0.847656 -3.917969 -1.214844 -4.238281 C -1.578125 -4.554688 -2.136719 -4.714844 -2.882812 -4.714844 C -3.589844 -4.714844 -4.125 -4.554688 -4.488281 -4.234375 C -4.851562 -3.914062 -5.03125 -3.515625 -5.03125 -3.039062 C -5.03125 -2.558594 -4.851562 -2.15625 -4.492188 -1.835938 C -4.128906 -1.519531 -3.582031 -1.359375 -2.851562 -1.359375 Z M -2.851562 -1.359375 "/>
</g>
<g id="glyph-2-7">
<path d="M 0 -4.425781 L -0.71875 -4.425781 C -0.152344 -4.0625 0.128906 -3.53125 0.128906 -2.832031 C 0.128906 -2.375 0.00390625 -1.957031 -0.246094 -1.578125 C -0.496094 -1.195312 -0.847656 -0.898438 -1.296875 -0.691406 C -1.746094 -0.480469 -2.261719 -0.375 -2.847656 -0.375 C -3.414062 -0.375 -3.933594 -0.472656 -4.394531 -0.660156 C -4.859375 -0.851562 -5.214844 -1.136719 -5.460938 -1.515625 C -5.710938 -1.894531 -5.832031 -2.320312 -5.832031 -2.789062 C -5.832031 -3.132812 -5.761719 -3.4375 -5.617188 -3.707031 C -5.46875 -3.976562 -5.28125 -4.191406 -5.046875 -4.359375 L -7.875 -4.363281 L -7.875 -5.324219 L 0 -5.324219 L 0 -4.425781 M -2.847656 -1.371094 C -2.117188 -1.371094 -1.570312 -1.523438 -1.207031 -1.832031 C -0.847656 -2.140625 -0.664062 -2.503906 -0.664062 -2.921875 C -0.664062 -3.34375 -0.839844 -3.703125 -1.183594 -4 C -1.53125 -4.292969 -2.058594 -4.441406 -2.765625 -4.441406 C -3.546875 -4.441406 -4.121094 -4.292969 -4.484375 -3.992188 C -4.851562 -3.691406 -5.03125 -3.320312 -5.03125 -2.878906 C -5.03125 -2.449219 -4.855469 -2.089844 -4.507812 -1.800781 C -4.15625 -1.515625 -3.601562 -1.371094 -2.847656 -1.371094 Z M -2.847656 -1.371094 "/>
</g>
</g>
<clipPath id="clip-0">
<path clip-rule="nonzero" d="M 47.847656 5.480469 L 246.523438 5.480469 L 246.523438 180.511719 L 47.847656 180.511719 Z M 47.847656 5.480469 "/>
</clipPath>
<clipPath id="clip-1">
<path clip-rule="nonzero" d="M 188 5.480469 L 190 5.480469 L 190 180.511719 L 188 180.511719 Z M 188 5.480469 "/>
</clipPath>
<clipPath id="clip-2">
<path clip-rule="nonzero" d="M 47.847656 12 L 246.523438 12 L 246.523438 14 L 47.847656 14 Z M 47.847656 12 "/>
</clipPath>
</defs>
<rect x="-25.2" y="-21.6" width="302.4" height="259.2" fill="rgb(100%, 100%, 100%)" fill-opacity="1"/>
<rect x="-25.2" y="-21.6" width="302.4" height="259.2" fill="rgb(100%, 100%, 100%)" fill-opacity="1"/>
<path fill="none" stroke-width="1.066978" stroke-linecap="round" stroke-linejoin="round" stroke="rgb(100%, 100%, 100%)" stroke-opacity="1" stroke-miterlimit="10" d="M 0 216 L 252 216 L 252 0 L 0 0 Z M 0 216 "/>
<g clip-path="url(#clip-0)">
<path fill-rule="nonzero" fill="rgb(100%, 100%, 100%)" fill-opacity="1" d="M 47.847656 180.507812 L 246.523438 180.507812 L 246.523438 5.476562 L 47.847656 5.476562 Z M 47.847656 180.507812 "/>
</g>
<path fill="none" stroke-width="1.066978" stroke-linecap="butt" stroke-linejoin="round" stroke="rgb(0%, 0%, 0%)" stroke-opacity="1" stroke-miterlimit="10" d="M 56.878906 172.554688 L 58.90625 163.375 L 60.9375 155.035156 L 62.964844 147.394531 L 64.996094 140.355469 L 67.023438 133.832031 L 69.054688 127.761719 L 71.082031 122.085938 L 73.113281 116.761719 L 75.140625 111.753906 L 77.171875 107.03125 L 79.199219 102.5625 L 81.230469 98.324219 L 83.257812 94.300781 L 85.289062 90.472656 L 87.316406 86.828125 L 89.347656 83.34375 L 91.375 80.015625 L 93.40625 76.832031 L 95.433594 73.785156 L 97.464844 70.859375 L 99.492188 68.054688 L 101.523438 65.363281 L 103.550781 62.773438 L 105.582031 60.285156 L 107.609375 57.890625 L 109.640625 55.585938 L 111.667969 53.367188 L 113.699219 51.226562 L 115.730469 49.167969 L 117.757812 47.183594 L 119.789062 45.269531 L 121.816406 43.425781 L 123.847656 41.648438 L 125.875 39.9375 L 127.90625 38.285156 L 129.933594 36.699219 L 131.964844 35.167969 L 133.992188 33.691406 L 136.023438 32.277344 L 138.050781 30.914062 L 140.082031 29.601562 L 142.109375 28.347656 L 144.140625 27.140625 L 146.167969 25.984375 L 148.199219 24.882812 L 150.226562 23.828125 L 152.257812 22.820312 L 154.285156 21.863281 L 156.316406 20.957031 L 158.34375 20.097656 L 160.375 19.285156 L 162.402344 18.523438 L 164.433594 17.8125 L 166.460938 17.148438 L 168.492188 16.535156 L 170.519531 15.972656 L 172.550781 15.464844 L 174.578125 15.007812 L 176.609375 14.605469 L 178.636719 14.257812 L 180.667969 13.96875 L 182.699219 13.742188 L 184.726562 13.574219 L 186.757812 13.46875 L 188.785156 13.433594 L 190.816406 13.472656 L 192.84375 13.582031 L 194.875 13.773438 L 196.902344 14.050781 L 198.933594 14.421875 L 200.960938 14.890625 L 202.992188 15.464844 L 205.019531 16.160156 L 207.050781 16.984375 L 209.078125 17.957031 L 211.109375 19.089844 L 213.136719 20.40625 L 215.167969 21.933594 L 217.195312 23.707031 L 219.226562 25.769531 L 221.253906 28.183594 L 223.285156 31.023438 L 225.3125 34.398438 L 227.34375 38.476562 L 229.371094 43.507812 L 231.402344 49.910156 L 233.429688 58.480469 L 235.460938 70.996094 L 237.488281 93.132812 "/>
<g clip-path="url(#clip-1)">
<path fill="none" stroke-width="1.066978" stroke-linecap="butt" stroke-linejoin="round" stroke="rgb(0%, 0%, 0%)" stroke-opacity="1" stroke-dasharray="4.267913 4.267913" stroke-miterlimit="10" d="M 188.785156 180.507812 L 188.785156 5.480469 "/>
</g>
<g clip-path="url(#clip-2)">
<path fill="none" stroke-width="1.066978" stroke-linecap="butt" stroke-linejoin="round" stroke="rgb(0%, 0%, 0%)" stroke-opacity="1" stroke-dasharray="4.267913 4.267913" stroke-miterlimit="10" d="M 47.847656 13.433594 L 246.519531 13.433594 "/>
</g>
<path fill="none" stroke-width="1.066978" stroke-linecap="square" stroke-linejoin="round" stroke="rgb(0%, 0%, 0%)" stroke-opacity="1" stroke-miterlimit="10" d="M 47.847656 180.507812 L 47.847656 5.480469 "/>
<g fill="rgb(0%, 0%, 0%)" fill-opacity="1">
<use xlink:href="#glyph-0-0" x="20.40625" y="153.308594"/>
<use xlink:href="#glyph-0-1" x="25.300391" y="153.308594"/>
<use xlink:href="#glyph-0-2" x="30.194531" y="153.308594"/>
<use xlink:href="#glyph-0-3" x="33.125" y="153.308594"/>
<use xlink:href="#glyph-0-0" x="38.019141" y="153.308594"/>
</g>
<g fill="rgb(0%, 0%, 0%)" fill-opacity="1">
<use xlink:href="#glyph-0-0" x="20.40625" y="114.851562"/>
<use xlink:href="#glyph-0-1" x="25.300391" y="114.851562"/>
<use xlink:href="#glyph-0-2" x="30.194531" y="114.851562"/>
<use xlink:href="#glyph-0-0" x="33.125" y="114.851562"/>
<use xlink:href="#glyph-0-4" x="38.019141" y="114.851562"/>
</g>
<g fill="rgb(0%, 0%, 0%)" fill-opacity="1">
<use xlink:href="#glyph-0-0" x="20.40625" y="76.398438"/>
<use xlink:href="#glyph-0-1" x="25.300391" y="76.398438"/>
<use xlink:href="#glyph-0-2" x="30.194531" y="76.398438"/>
<use xlink:href="#glyph-0-0" x="33.125" y="76.398438"/>
<use xlink:href="#glyph-0-0" x="38.019141" y="76.398438"/>
</g>
<g fill="rgb(0%, 0%, 0%)" fill-opacity="1">
<use xlink:href="#glyph-0-0" x="20.40625" y="37.941406"/>
<use xlink:href="#glyph-0-1" x="25.300391" y="37.941406"/>
<use xlink:href="#glyph-0-2" x="30.194531" y="37.941406"/>
<use xlink:href="#glyph-0-5" x="33.125" y="37.941406"/>
<use xlink:href="#glyph-0-4" x="38.019141" y="37.941406"/>
</g>
<path fill="none" stroke-width="1.066978" stroke-linecap="butt" stroke-linejoin="round" stroke="rgb(0%, 0%, 0%)" stroke-opacity="1" stroke-miterlimit="10" d="M 45.105469 149.65625 L 47.847656 149.65625 "/>
<path fill="none" stroke-width="1.066978" stroke-linecap="butt" stroke-linejoin="round" stroke="rgb(0%, 0%, 0%)" stroke-opacity="1" stroke-miterlimit="10" d="M 45.105469 111.203125 L 47.847656 111.203125 "/>
<path fill="none" stroke-width="1.066978" stroke-linecap="butt" stroke-linejoin="round" stroke="rgb(0%, 0%, 0%)" stroke-opacity="1" stroke-miterlimit="10" d="M 45.105469 72.746094 L 47.847656 72.746094 "/>
<path fill="none" stroke-width="1.066978" stroke-linecap="butt" stroke-linejoin="round" stroke="rgb(0%, 0%, 0%)" stroke-opacity="1" stroke-miterlimit="10" d="M 45.105469 34.292969 L 47.847656 34.292969 "/>
<path fill="none" stroke-width="1.066978" stroke-linecap="square" stroke-linejoin="round" stroke="rgb(0%, 0%, 0%)" stroke-opacity="1" stroke-miterlimit="10" d="M 47.847656 180.507812 L 246.519531 180.507812 "/>
<path fill="none" stroke-width="1.066978" stroke-linecap="butt" stroke-linejoin="round" stroke="rgb(0%, 0%, 0%)" stroke-opacity="1" stroke-miterlimit="10" d="M 87.316406 183.25 L 87.316406 180.507812 "/>
<path fill="none" stroke-width="1.066978" stroke-linecap="butt" stroke-linejoin="round" stroke="rgb(0%, 0%, 0%)" stroke-opacity="1" stroke-miterlimit="10" d="M 138.050781 183.25 L 138.050781 180.507812 "/>
<path fill="none" stroke-width="1.066978" stroke-linecap="butt" stroke-linejoin="round" stroke="rgb(0%, 0%, 0%)" stroke-opacity="1" stroke-miterlimit="10" d="M 188.785156 183.25 L 188.785156 180.507812 "/>
<path fill="none" stroke-width="1.066978" stroke-linecap="butt" stroke-linejoin="round" stroke="rgb(0%, 0%, 0%)" stroke-opacity="1" stroke-miterlimit="10" d="M 239.519531 183.25 L 239.519531 180.507812 "/>
<g fill="rgb(0%, 0%, 0%)" fill-opacity="1">
<use xlink:href="#glyph-0-5" x="78.753906" y="192.738281"/>
<use xlink:href="#glyph-0-6" x="83.648047" y="192.738281"/>
<use xlink:href="#glyph-0-3" x="86.092969" y="192.738281"/>
<use xlink:href="#glyph-0-7" x="90.987109" y="192.738281"/>
</g>
<g fill="rgb(0%, 0%, 0%)" fill-opacity="1">
<use xlink:href="#glyph-0-5" x="129.488281" y="192.738281"/>
<use xlink:href="#glyph-0-6" x="134.382422" y="192.738281"/>
<use xlink:href="#glyph-0-7" x="136.827344" y="192.738281"/>
<use xlink:href="#glyph-0-5" x="141.721484" y="192.738281"/>
</g>
<g fill="rgb(0%, 0%, 0%)" fill-opacity="1">
<use xlink:href="#glyph-0-5" x="180.222656" y="192.738281"/>
<use xlink:href="#glyph-0-6" x="185.116797" y="192.738281"/>
<use xlink:href="#glyph-0-8" x="187.561719" y="192.738281"/>
<use xlink:href="#glyph-0-7" x="192.455859" y="192.738281"/>
</g>
<g fill="rgb(0%, 0%, 0%)" fill-opacity="1">
<use xlink:href="#glyph-0-0" x="230.957031" y="192.738281"/>
<use xlink:href="#glyph-0-6" x="235.851172" y="192.738281"/>
<use xlink:href="#glyph-0-5" x="238.296094" y="192.738281"/>
<use xlink:href="#glyph-0-5" x="243.190234" y="192.738281"/>
</g>
<g fill="rgb(0%, 0%, 0%)" fill-opacity="1">
<use xlink:href="#glyph-1-0" x="71.359375" y="207.207031"/>
<use xlink:href="#glyph-1-1" x="78.696289" y="207.207031"/>
<use xlink:href="#glyph-1-2" x="82.359375" y="207.207031"/>
<use xlink:href="#glyph-1-3" x="88.477051" y="207.207031"/>
<use xlink:href="#glyph-1-4" x="94.594727" y="207.207031"/>
<use xlink:href="#glyph-1-5" x="100.712402" y="207.207031"/>
<use xlink:href="#glyph-1-6" x="103.768555" y="207.207031"/>
<use xlink:href="#glyph-1-7" x="106.212402" y="207.207031"/>
<use xlink:href="#glyph-1-8" x="112.330078" y="207.207031"/>
<use xlink:href="#glyph-1-9" x="118.447754" y="207.207031"/>
<use xlink:href="#glyph-1-10" x="121.503906" y="207.207031"/>
<use xlink:href="#glyph-1-1" x="127.621582" y="207.207031"/>
<use xlink:href="#glyph-1-7" x="131.284668" y="207.207031"/>
<use xlink:href="#glyph-1-11" x="137.402344" y="207.207031"/>
<use xlink:href="#glyph-1-4" x="143.52002" y="207.207031"/>
<use xlink:href="#glyph-1-11" x="149.637695" y="207.207031"/>
<use xlink:href="#glyph-1-6" x="155.755371" y="207.207031"/>
<use xlink:href="#glyph-1-12" x="158.199219" y="207.207031"/>
<use xlink:href="#glyph-1-6" x="160.643066" y="207.207031"/>
<use xlink:href="#glyph-1-5" x="163.086914" y="207.207031"/>
<use xlink:href="#glyph-1-13" x="166.143066" y="207.207031"/>
<use xlink:href="#glyph-1-9" x="171.643066" y="207.207031"/>
<use xlink:href="#glyph-1-10" x="174.699219" y="207.207031"/>
<use xlink:href="#glyph-1-2" x="180.816895" y="207.207031"/>
<use xlink:href="#glyph-1-1" x="186.93457" y="207.207031"/>
<use xlink:href="#glyph-1-9" x="190.597656" y="207.207031"/>
<use xlink:href="#glyph-1-14" x="193.653809" y="207.207031"/>
<use xlink:href="#glyph-1-4" x="199.153809" y="207.207031"/>
<use xlink:href="#glyph-1-10" x="205.271484" y="207.207031"/>
<use xlink:href="#glyph-1-6" x="211.38916" y="207.207031"/>
<use xlink:href="#glyph-1-5" x="213.833008" y="207.207031"/>
<use xlink:href="#glyph-1-4" x="216.88916" y="207.207031"/>
</g>
<g fill="rgb(0%, 0%, 0%)" fill-opacity="1">
<use xlink:href="#glyph-2-0" x="14.351562" y="117.765625"/>
<use xlink:href="#glyph-2-1" x="14.351562" y="111.647949"/>
<use xlink:href="#glyph-2-2" x="14.351562" y="109.204102"/>
<use xlink:href="#glyph-2-3" x="14.351562" y="103.704102"/>
<use xlink:href="#glyph-2-4" x="14.351563" y="97.586426"/>
<use xlink:href="#glyph-2-1" x="14.351563" y="95.142578"/>
<use xlink:href="#glyph-2-5" x="14.351563" y="92.69873"/>
<use xlink:href="#glyph-2-6" x="14.351563" y="86.581055"/>
<use xlink:href="#glyph-2-6" x="14.351563" y="80.463379"/>
<use xlink:href="#glyph-2-7" x="14.351563" y="74.345703"/>
</g>
</svg>
