<?xml version="1.0" encoding="UTF-8"?>
<svg xmlns="http://www.w3.org/2000/svg" xmlns:xlink="http://www.w3.org/1999/xlink" width="288pt" height="180pt" viewBox="0 0 288 180">
<defs>
<g>
<g id="glyph-0-0">
<path d="M 0.398438 -3.390625 C 0.398438 -4.203125 0.480469 -4.855469 0.648438 -5.351562 C 0.816406 -5.847656 1.066406 -6.226562 1.394531 -6.496094 C 1.722656 -6.765625 2.140625 -6.898438 2.640625 -6.898438 C 3.007812 -6.898438 3.332031 -6.824219 3.609375 -6.675781 C 3.886719 -6.527344 4.117188 -6.316406 4.296875 -6.035156 C 4.480469 -5.753906 4.621094 -5.414062 4.726562 -5.011719 C 4.828125 -4.613281 4.878906 -4.070312 4.878906 -3.390625 C 4.878906 -2.582031 4.796875 -1.933594 4.632812 -1.4375 C 4.464844 -0.941406 4.21875 -0.558594 3.886719 -0.289062 C 3.558594 -0.0195312 3.140625 0.117188 2.640625 0.117188 C 1.976562 0.117188 1.457031 -0.121094 1.078125 -0.59375 C 0.625 -1.167969 0.398438 -2.097656 0.398438 -3.390625 M 1.265625 -3.390625 C 1.265625 -2.261719 1.398438 -1.511719 1.660156 -1.136719 C 1.925781 -0.761719 2.25 -0.578125 2.640625 -0.578125 C 3.027344 -0.578125 3.351562 -0.765625 3.617188 -1.140625 C 3.878906 -1.515625 4.011719 -2.265625 4.011719 -3.390625 C 4.011719 -4.519531 3.878906 -5.273438 3.617188 -5.644531 C 3.351562 -6.015625 3.023438 -6.203125 2.628906 -6.203125 C 2.242188 -6.203125 1.933594 -6.039062 1.703125 -5.710938 C 1.410156 -5.289062 1.265625 -4.515625 1.265625 -3.390625 Z M 1.265625 -3.390625 "/>
</g>
<g id="glyph-0-1">
<path d="M 0.398438 -1.800781 L 1.285156 -1.875 C 1.351562 -1.445312 1.503906 -1.121094 1.742188 -0.902344 C 1.980469 -0.683594 2.269531 -0.578125 2.605469 -0.578125 C 3.011719 -0.578125 3.355469 -0.730469 3.636719 -1.035156 C 3.917969 -1.34375 4.058594 -1.75 4.058594 -2.253906 C 4.058594 -2.734375 3.925781 -3.117188 3.652344 -3.394531 C 3.382812 -3.671875 3.03125 -3.8125 2.59375 -3.8125 C 2.320312 -3.8125 2.074219 -3.75 1.855469 -3.625 C 1.636719 -3.503906 1.464844 -3.34375 1.339844 -3.144531 L 0.546875 -3.25 L 1.214844 -6.777344 L 4.632812 -6.777344 L 4.632812 -5.972656 L 1.890625 -5.972656 L 1.519531 -4.125 C 1.929688 -4.414062 2.363281 -4.554688 2.816406 -4.554688 C 3.417969 -4.554688 3.921875 -4.347656 4.335938 -3.933594 C 4.75 -3.515625 4.953125 -2.984375 4.953125 -2.328125 C 4.953125 -1.707031 4.773438 -1.171875 4.410156 -0.71875 C 3.96875 -0.160156 3.367188 0.117188 2.605469 0.117188 C 1.980469 0.117188 1.472656 -0.0585938 1.074219 -0.40625 C 0.679688 -0.757812 0.453125 -1.222656 0.398438 -1.800781 Z M 0.398438 -1.800781 "/>
</g>
<g id="glyph-0-2">
<path d="M 3.578125 0 L 2.734375 0 L 2.734375 -5.375 C 2.53125 -5.183594 2.261719 -4.988281 1.933594 -4.796875 C 1.605469 -4.601562 1.308594 -4.457031 1.046875 -4.359375 L 1.046875 -5.175781 C 1.515625 -5.398438 1.929688 -5.664062 2.28125 -5.980469 C 2.636719 -6.296875 2.886719 -6.601562 3.03125 -6.898438 L 3.578125 -6.898438 Z M 3.578125 0 "/>
</g>
<g id="glyph-0-3">
<path d="M 4.832031 -0.8125 L 4.832031 0 L 0.289062 0 C 0.285156 -0.203125 0.316406 -0.398438 0.390625 -0.585938 C 0.503906 -0.894531 0.691406 -1.199219 0.945312 -1.5 C 1.199219 -1.800781 1.566406 -2.148438 2.046875 -2.539062 C 2.796875 -3.152344 3.300781 -3.636719 3.5625 -3.996094 C 3.824219 -4.355469 3.957031 -4.691406 3.957031 -5.011719 C 3.957031 -5.34375 3.835938 -5.628906 3.597656 -5.855469 C 3.359375 -6.085938 3.046875 -6.203125 2.664062 -6.203125 C 2.257812 -6.203125 1.929688 -6.078125 1.6875 -5.835938 C 1.445312 -5.59375 1.320312 -5.253906 1.316406 -4.824219 L 0.449219 -4.914062 C 0.507812 -5.558594 0.734375 -6.050781 1.121094 -6.390625 C 1.507812 -6.730469 2.027344 -6.898438 2.679688 -6.898438 C 3.339844 -6.898438 3.863281 -6.71875 4.246094 -6.351562 C 4.632812 -5.984375 4.824219 -5.53125 4.824219 -4.992188 C 4.824219 -4.71875 4.765625 -4.445312 4.65625 -4.179688 C 4.542969 -3.914062 4.355469 -3.636719 4.09375 -3.34375 C 3.832031 -3.046875 3.398438 -2.644531 2.792969 -2.132812 C 2.289062 -1.707031 1.960938 -1.417969 1.820312 -1.269531 C 1.675781 -1.117188 1.554688 -0.964844 1.460938 -0.8125 Z M 4.832031 -0.8125 "/>
</g>
<g id="glyph-0-4">
<path d="M 0.402344 -1.8125 L 1.246094 -1.925781 C 1.34375 -1.449219 1.507812 -1.105469 1.742188 -0.894531 C 1.972656 -0.683594 2.257812 -0.578125 2.59375 -0.578125 C 2.988281 -0.578125 3.324219 -0.714844 3.597656 -0.988281 C 3.871094 -1.265625 4.007812 -1.605469 4.007812 -2.011719 C 4.007812 -2.398438 3.882812 -2.71875 3.628906 -2.96875 C 3.375 -3.222656 3.054688 -3.347656 2.664062 -3.347656 C 2.503906 -3.347656 2.304688 -3.316406 2.066406 -3.253906 L 2.160156 -3.992188 C 2.21875 -3.988281 2.261719 -3.984375 2.296875 -3.984375 C 2.65625 -3.984375 2.980469 -4.078125 3.265625 -4.265625 C 3.554688 -4.453125 3.699219 -4.742188 3.699219 -5.132812 C 3.699219 -5.441406 3.59375 -5.699219 3.382812 -5.902344 C 3.175781 -6.105469 2.90625 -6.207031 2.574219 -6.207031 C 2.246094 -6.207031 1.972656 -6.101562 1.753906 -5.898438 C 1.535156 -5.691406 1.394531 -5.382812 1.332031 -4.96875 L 0.488281 -5.117188 C 0.589844 -5.683594 0.824219 -6.121094 1.191406 -6.433594 C 1.554688 -6.746094 2.011719 -6.898438 2.554688 -6.898438 C 2.929688 -6.898438 3.273438 -6.820312 3.589844 -6.660156 C 3.90625 -6.496094 4.148438 -6.277344 4.316406 -6 C 4.480469 -5.722656 4.566406 -5.425781 4.566406 -5.113281 C 4.566406 -4.816406 4.484375 -4.546875 4.328125 -4.304688 C 4.167969 -4.058594 3.929688 -3.867188 3.617188 -3.722656 C 4.023438 -3.628906 4.339844 -3.433594 4.566406 -3.136719 C 4.789062 -2.84375 4.902344 -2.472656 4.902344 -2.03125 C 4.902344 -1.429688 4.683594 -0.921875 4.246094 -0.503906 C 3.808594 -0.0859375 3.257812 0.121094 2.585938 0.121094 C 1.984375 0.121094 1.484375 -0.0585938 1.085938 -0.417969 C 0.6875 -0.777344 0.460938 -1.242188 0.402344 -1.8125 Z M 0.402344 -1.8125 "/>
</g>
<g id="glyph-0-5">
<path d="M 3.101562 0 L 3.101562 -1.644531 L 0.121094 -1.644531 L 0.121094 -2.417969 L 3.257812 -6.871094 L 3.945312 -6.871094 L 3.945312 -2.417969 L 4.875 -2.417969 L 4.875 -1.644531 L 3.945312 -1.644531 L 3.945312 0 L 3.101562 0 M 3.101562 -2.417969 L 3.101562 -5.515625 L 0.953125 -2.417969 Z M 3.101562 -2.417969 "/>
</g>
<g id="glyph-1-0">
<path d="M 0.925781 0 L 0.925781 -8.589844 L 3.882812 -8.589844 C 4.550781 -8.589844 5.0625 -8.546875 5.414062 -8.46875 C 5.90625 -8.351562 6.324219 -8.148438 6.671875 -7.851562 C 7.125 -7.46875 7.464844 -6.980469 7.691406 -6.382812 C 7.914062 -5.789062 8.027344 -5.105469 8.027344 -4.34375 C 8.027344 -3.6875 7.953125 -3.109375 7.796875 -2.609375 C 7.648438 -2.101562 7.449219 -1.6875 7.210938 -1.355469 C 6.972656 -1.027344 6.714844 -0.765625 6.429688 -0.578125 C 6.148438 -0.386719 5.804688 -0.242188 5.40625 -0.148438 C 5.003906 -0.0507812 4.542969 0 4.023438 0 L 0.925781 0 M 2.0625 -1.015625 L 3.898438 -1.015625 C 4.460938 -1.015625 4.90625 -1.066406 5.230469 -1.171875 C 5.550781 -1.277344 5.808594 -1.425781 6 -1.617188 C 6.269531 -1.886719 6.480469 -2.25 6.628906 -2.703125 C 6.78125 -3.160156 6.855469 -3.710938 6.855469 -4.359375 C 6.855469 -5.257812 6.707031 -5.949219 6.414062 -6.429688 C 6.117188 -6.914062 5.757812 -7.234375 5.335938 -7.398438 C 5.03125 -7.515625 4.542969 -7.578125 3.867188 -7.578125 L 2.0625 -7.578125 Z M 2.0625 -1.015625 "/>
</g>
<g id="glyph-1-1">
<path d="M 4.851562 -0.765625 C 4.460938 -0.433594 4.085938 -0.199219 3.722656 -0.0625 C 3.363281 0.0703125 2.972656 0.140625 2.5625 0.140625 C 1.875 0.140625 1.351562 -0.0273438 0.984375 -0.359375 C 0.617188 -0.695312 0.433594 -1.121094 0.433594 -1.640625 C 0.433594 -1.945312 0.503906 -2.222656 0.640625 -2.476562 C 0.78125 -2.726562 0.960938 -2.929688 1.1875 -3.082031 C 1.410156 -3.234375 1.664062 -3.347656 1.945312 -3.429688 C 2.152344 -3.480469 2.464844 -3.535156 2.882812 -3.585938 C 3.734375 -3.6875 4.359375 -3.808594 4.765625 -3.949219 C 4.765625 -4.09375 4.769531 -4.183594 4.769531 -4.226562 C 4.769531 -4.652344 4.671875 -4.957031 4.46875 -5.132812 C 4.203125 -5.371094 3.800781 -5.492188 3.269531 -5.492188 C 2.773438 -5.492188 2.40625 -5.402344 2.171875 -5.230469 C 1.933594 -5.054688 1.757812 -4.746094 1.648438 -4.304688 L 0.617188 -4.445312 C 0.707031 -4.886719 0.863281 -5.246094 1.078125 -5.515625 C 1.292969 -5.789062 1.601562 -5.996094 2.007812 -6.144531 C 2.414062 -6.289062 2.886719 -6.363281 3.421875 -6.363281 C 3.953125 -6.363281 4.382812 -6.300781 4.71875 -6.175781 C 5.046875 -6.050781 5.292969 -5.894531 5.449219 -5.703125 C 5.605469 -5.515625 5.714844 -5.273438 5.777344 -4.984375 C 5.8125 -4.804688 5.828125 -4.484375 5.828125 -4.015625 L 5.828125 -2.609375 C 5.828125 -1.628906 5.851562 -1.007812 5.898438 -0.746094 C 5.941406 -0.488281 6.03125 -0.238281 6.164062 0 L 5.0625 0 C 4.953125 -0.21875 4.882812 -0.476562 4.851562 -0.765625 M 4.765625 -3.125 C 4.378906 -2.964844 3.804688 -2.832031 3.039062 -2.726562 C 2.605469 -2.660156 2.300781 -2.589844 2.121094 -2.515625 C 1.941406 -2.433594 1.800781 -2.320312 1.703125 -2.171875 C 1.605469 -2.019531 1.558594 -1.851562 1.558594 -1.671875 C 1.558594 -1.386719 1.664062 -1.152344 1.878906 -0.96875 C 2.089844 -0.78125 2.402344 -0.683594 2.8125 -0.6875 C 3.21875 -0.683594 3.578125 -0.773438 3.898438 -0.953125 C 4.210938 -1.128906 4.445312 -1.371094 4.59375 -1.679688 C 4.707031 -1.917969 4.761719 -2.269531 4.765625 -2.734375 Z M 4.765625 -3.125 "/>
</g>
<g id="glyph-1-2">
<path d="M 0.742188 2.398438 L 0.625 1.40625 C 0.855469 1.46875 1.058594 1.5 1.230469 1.5 C 1.464844 1.5 1.652344 1.460938 1.792969 1.382812 C 1.933594 1.304688 2.046875 1.195312 2.140625 1.054688 C 2.203125 0.949219 2.3125 0.6875 2.460938 0.269531 C 2.480469 0.210938 2.511719 0.125 2.554688 0.0117188 L 0.195312 -6.222656 L 1.328125 -6.222656 L 2.625 -2.617188 C 2.792969 -2.164062 2.941406 -1.679688 3.078125 -1.179688 C 3.195312 -1.660156 3.339844 -2.132812 3.507812 -2.59375 L 4.839844 -6.222656 L 5.894531 -6.222656 L 3.527344 0.105469 C 3.273438 0.789062 3.078125 1.257812 2.9375 1.515625 C 2.746094 1.863281 2.53125 2.121094 2.289062 2.28125 C 2.046875 2.445312 1.757812 2.523438 1.421875 2.523438 C 1.21875 2.523438 0.992188 2.480469 0.742188 2.398438 Z M 0.742188 2.398438 "/>
</g>
<g id="glyph-2-0">
<path d="M 0 -1.117188 L -8.589844 -1.121094 L -8.589844 -2.257812 L 0 -2.257812 Z M 0 -1.117188 "/>
</g>
<g id="glyph-2-1">
<path d="M 0 -0.789062 L -6.222656 -0.792969 L -6.222656 -1.742188 L -5.335938 -1.742188 C -6.019531 -2.195312 -6.363281 -2.855469 -6.363281 -3.722656 C -6.363281 -4.09375 -6.296875 -4.441406 -6.160156 -4.753906 C -6.027344 -5.070312 -5.847656 -5.304688 -5.632812 -5.460938 C -5.410156 -5.617188 -5.152344 -5.726562 -4.851562 -5.789062 C -4.65625 -5.828125 -4.3125 -5.847656 -3.824219 -5.847656 L 0 -5.847656 L 0 -4.792969 L -3.785156 -4.792969 C -4.214844 -4.792969 -4.535156 -4.75 -4.75 -4.671875 C -4.960938 -4.585938 -5.132812 -4.441406 -5.257812 -4.234375 C -5.386719 -4.023438 -5.449219 -3.78125 -5.449219 -3.5 C -5.449219 -3.046875 -5.304688 -2.660156 -5.023438 -2.335938 C -4.734375 -2.007812 -4.195312 -1.847656 -3.398438 -1.847656 L 0 -1.84375 Z M 0 -0.789062 "/>
</g>
<g id="glyph-2-2">
<path d="M -2.277344 -4.851562 L -2.144531 -5.890625 C -1.429688 -5.773438 -0.871094 -5.484375 -0.464844 -5.019531 C -0.0625 -4.550781 0.140625 -3.976562 0.140625 -3.296875 C 0.140625 -2.445312 -0.136719 -1.761719 -0.695312 -1.246094 C -1.25 -0.726562 -2.046875 -0.46875 -3.085938 -0.46875 C -3.757812 -0.46875 -4.347656 -0.582031 -4.851562 -0.804688 C -5.355469 -1.027344 -5.734375 -1.363281 -5.984375 -1.820312 C -6.238281 -2.273438 -6.363281 -2.769531 -6.363281 -3.304688 C -6.363281 -3.980469 -6.191406 -4.53125 -5.851562 -4.960938 C -5.507812 -5.390625 -5.023438 -5.667969 -4.394531 -5.789062 L -4.234375 -4.765625 C -4.652344 -4.664062 -4.96875 -4.492188 -5.179688 -4.246094 C -5.390625 -3.996094 -5.496094 -3.699219 -5.496094 -3.347656 C -5.496094 -2.8125 -5.304688 -2.382812 -4.925781 -2.050781 C -4.542969 -1.71875 -3.941406 -1.554688 -3.117188 -1.554688 C -2.28125 -1.554688 -1.671875 -1.710938 -1.292969 -2.03125 C -0.917969 -2.351562 -0.726562 -2.769531 -0.726562 -3.289062 C -0.726562 -3.699219 -0.851562 -4.046875 -1.105469 -4.324219 C -1.359375 -4.601562 -1.75 -4.777344 -2.277344 -4.851562 Z M -2.277344 -4.851562 "/>
</g>
<g id="glyph-2-3">
<path d="M -7.375 -0.796875 L -8.589844 -0.796875 L -8.589844 -1.851562 L -7.375 -1.851562 L -7.375 -0.796875 M 0 -0.796875 L -6.222656 -0.796875 L -6.222656 -1.851562 L 0 -1.851562 Z M 0 -0.796875 "/>
</g>
<g id="glyph-2-4">
<path d="M 0 -4.828125 L -0.785156 -4.828125 C -0.167969 -4.433594 0.140625 -3.851562 0.140625 -3.085938 C 0.140625 -2.589844 0.00390625 -2.136719 -0.269531 -1.71875 C -0.542969 -1.304688 -0.925781 -0.980469 -1.414062 -0.753906 C -1.90625 -0.523438 -2.46875 -0.410156 -3.105469 -0.410156 C -3.726562 -0.410156 -4.289062 -0.511719 -4.796875 -0.722656 C -5.300781 -0.925781 -5.6875 -1.238281 -5.960938 -1.652344 C -6.226562 -2.066406 -6.363281 -2.527344 -6.363281 -3.042969 C -6.363281 -3.417969 -6.285156 -3.75 -6.125 -4.042969 C -5.96875 -4.335938 -5.761719 -4.574219 -5.507812 -4.757812 L -8.589844 -4.757812 L -8.589844 -5.808594 L 0 -5.804688 L 0 -4.828125 M -3.105469 -1.496094 C -2.308594 -1.492188 -1.710938 -1.660156 -1.316406 -2 C -0.921875 -2.332031 -0.726562 -2.730469 -0.726562 -3.1875 C -0.726562 -3.648438 -0.914062 -4.039062 -1.292969 -4.363281 C -1.667969 -4.683594 -2.242188 -4.84375 -3.015625 -4.84375 C -3.867188 -4.84375 -4.492188 -4.679688 -4.890625 -4.351562 C -5.289062 -4.023438 -5.492188 -3.621094 -5.492188 -3.140625 C -5.492188 -2.671875 -5.296875 -2.28125 -4.914062 -1.964844 C -4.53125 -1.652344 -3.929688 -1.492188 -3.105469 -1.496094 Z M -3.105469 -1.496094 "/>
</g>
<g id="glyph-2-5">
<path d="M -2.003906 -5.050781 L -1.867188 -6.140625 C -1.230469 -5.96875 -0.738281 -5.648438 -0.386719 -5.1875 C -0.0351562 -4.71875 0.140625 -4.125 0.140625 -3.40625 C 0.140625 -2.492188 -0.140625 -1.773438 -0.699219 -1.238281 C -1.261719 -0.707031 -2.046875 -0.441406 -3.058594 -0.441406 C -4.105469 -0.441406 -4.917969 -0.710938 -5.496094 -1.25 C -6.074219 -1.789062 -6.363281 -2.484375 -6.363281 -3.347656 C -6.363281 -4.179688 -6.078125 -4.859375 -5.515625 -5.382812 C -4.945312 -5.914062 -4.148438 -6.175781 -3.121094 -6.175781 C -3.058594 -6.175781 -2.964844 -6.171875 -2.839844 -6.171875 L -2.84375 -1.53125 C -2.15625 -1.566406 -1.632812 -1.761719 -1.269531 -2.109375 C -0.90625 -2.457031 -0.726562 -2.890625 -0.726562 -3.410156 C -0.726562 -3.796875 -0.828125 -4.125 -1.03125 -4.398438 C -1.234375 -4.671875 -1.558594 -4.890625 -2.003906 -5.050781 M -3.710938 -1.589844 L -3.707031 -5.0625 C -4.230469 -5.015625 -4.625 -4.882812 -4.886719 -4.664062 C -5.292969 -4.328125 -5.496094 -3.890625 -5.496094 -3.359375 C -5.496094 -2.871094 -5.332031 -2.464844 -5.007812 -2.136719 C -4.683594 -1.804688 -4.25 -1.625 -3.710938 -1.589844 Z M -3.710938 -1.589844 "/>
</g>
</g>
<clipPath id="clip-0">
<path clip-rule="nonzero" d="M 41.128906 5.976562 L 282.023438 5.976562 L 282.023438 138.65625 L 41.128906 138.65625 Z M 41.128906 5.976562 "/>
</clipPath>
<clipPath id="clip-1">
<path clip-rule="nonzero" d="M 41.128906 132 L 282.023438 132 L 282.023438 134 L 41.128906 134 Z M 41.128906 132 "/>
</clipPath>
<clipPath id="clip-2">
<path clip-rule="nonzero" d="M 41.128906 85 L 282.023438 85 L 282.023438 87 L 41.128906 87 Z M 41.128906 85 "/>
</clipPath>
<clipPath id="clip-3">
<path clip-rule="nonzero" d="M 41.128906 39 L 282.023438 39 L 282.023438 41 L 41.128906 41 Z M 41.128906 39 "/>
</clipPath>
<clipPath id="clip-4">
<path clip-rule="nonzero" d="M 51 5.976562 L 53 5.976562 L 53 138.65625 L 51 138.65625 Z M 51 5.976562 "/>
</clipPath>
<clipPath id="clip-5">
<path clip-rule="nonzero" d="M 95 5.976562 L 97 5.976562 L 97 138.65625 L 95 138.65625 Z M 95 5.976562 "/>
</clipPath>
<clipPath id="clip-6">
<path clip-rule="nonzero" d="M 139 5.976562 L 141 5.976562 L 141 138.65625 L 139 138.65625 Z M 139 5.976562 "/>
</clipPath>
<clipPath id="clip-7">
<path clip-rule="nonzero" d="M 182 5.976562 L 185 5.976562 L 185 138.65625 L 182 138.65625 Z M 182 5.976562 "/>
</clipPath>
<clipPath id="clip-8">
<path clip-rule="nonzero" d="M 226 5.976562 L 228 5.976562 L 228 138.65625 L 226 138.65625 Z M 226 5.976562 "/>
</clipPath>
<clipPath id="clip-9">
<path clip-rule="nonzero" d="M 270 5.976562 L 272 5.976562 L 272 138.65625 L 270 138.65625 Z M 270 5.976562 "/>
</clipPath>
</defs>
<rect x="-28.8" y="-18" width="345.6" height="216" fill="rgb(100%, 100%, 100%)" fill-opacity="1"/>
<rect x="-28.8" y="-18" width="345.6" height="216" fill="rgb(100%, 100%, 100%)" fill-opacity="1"/>
<g clip-path="url(#clip-0)">
<path fill-rule="nonzero" fill="rgb(100%, 100%, 100%)" fill-opacity="1" d="M 41.128906 138.65625 L 282.023438 138.65625 L 282.023438 5.976562 L 41.128906 5.976562 Z M 41.128906 138.65625 "/>
</g>
<g clip-path="url(#clip-1)">
<path fill="none" stroke-width="1.066978" stroke-linecap="butt" stroke-linejoin="round" stroke="rgb(89.019608%, 92.941176%, 97.647059%)" stroke-opacity="1" stroke-miterlimit="10" d="M 41.128906 132.625 L 282.023438 132.625 "/>
</g>
<g clip-path="url(#clip-2)">
<path fill="none" stroke-width="1.066978" stroke-linecap="butt" stroke-linejoin="round" stroke="rgb(89.019608%, 92.941176%, 97.647059%)" stroke-opacity="1" stroke-miterlimit="10" d="M 41.128906 86.234375 L 282.023438 86.234375 "/>
</g>
<g clip-path="url(#clip-3)">
<path fill="none" stroke-width="1.066978" stroke-linecap="butt" stroke-linejoin="round" stroke="rgb(89.019608%, 92.941176%, 97.647059%)" stroke-opacity="1" stroke-miterlimit="10" d="M 41.128906 39.84375 L 282.023438 39.84375 "/>
</g>
<g clip-path="url(#clip-4)">
<path fill="none" stroke-width="1.066978" stroke-linecap="butt" stroke-linejoin="round" stroke="rgb(89.019608%, 92.941176%, 97.647059%)" stroke-opacity="1" stroke-miterlimit="10" d="M 52.078125 138.65625 L 52.078125 5.976562 "/>
</g>
<g clip-path="url(#clip-5)">
<path fill="none" stroke-width="1.066978" stroke-linecap="butt" stroke-linejoin="round" stroke="rgb(89.019608%, 92.941176%, 97.647059%)" stroke-opacity="1" stroke-miterlimit="10" d="M 95.878906 138.65625 L 95.878906 5.976562 "/>
</g>
<g clip-path="url(#clip-6)">
<path fill="none" stroke-width="1.066978" stroke-linecap="butt" stroke-linejoin="round" stroke="rgb(89.019608%, 92.941176%, 97.647059%)" stroke-opacity="1" stroke-miterlimit="10" d="M 139.675781 138.65625 L 139.675781 5.976562 "/>
</g>
<g clip-path="url(#clip-7)">
<path fill="none" stroke-width="1.066978" stroke-linecap="butt" stroke-linejoin="round" stroke="rgb(89.019608%, 92.941176%, 97.647059%)" stroke-opacity="1" stroke-miterlimit="10" d="M 183.476562 138.65625 L 183.476562 5.976562 "/>
</g>
<g clip-path="url(#clip-8)">
<path fill="none" stroke-width="1.066978" stroke-linecap="butt" stroke-linejoin="round" stroke="rgb(89.019608%, 92.941176%, 97.647059%)" stroke-opacity="1" stroke-miterlimit="10" d="M 227.273438 138.65625 L 227.273438 5.976562 "/>
</g>
<g clip-path="url(#clip-9)">
<path fill="none" stroke-width="1.066978" stroke-linecap="butt" stroke-linejoin="round" stroke="rgb(89.019608%, 92.941176%, 97.647059%)" stroke-opacity="1" stroke-miterlimit="10" d="M 271.074219 138.65625 L 271.074219 5.976562 "/>
</g>
<path fill="none" stroke-width="2.560748" stroke-linecap="butt" stroke-linejoin="round" stroke="rgb(49.411765%, 35.294118%, 83.921569%)" stroke-opacity="1" stroke-miterlimit="10" d="M 52.078125 123.347656 L 56.457031 123.550781 L 60.835938 117.996094 L 65.21875 113.964844 L 69.597656 109.050781 L 73.976562 103.113281 L 78.359375 96.089844 L 82.738281 88.019531 L 87.117188 79.074219 L 91.496094 69.613281 L 95.878906 60.199219 L 100.257812 51.582031 L 104.636719 44.589844 L 109.015625 40.007812 L 113.398438 38.386719 L 117.777344 39.90625 L 122.15625 44.347656 L 126.535156 51.144531 L 130.917969 59.519531 L 135.296875 68.671875 L 139.675781 77.894531 L 144.054688 86.65625 L 148.4375 94.617188 L 152.816406 101.601562 L 157.195312 107.5625 L 161.574219 112.554688 L 165.957031 116.65625 L 170.335938 119.988281 L 174.714844 122.667969 L 179.09375 124.804688 L 183.476562 126.5 L 187.855469 127.839844 L 192.234375 128.890625 L 196.613281 129.714844 L 200.996094 130.359375 L 205.375 130.863281 L 209.753906 131.253906 L 214.132812 131.558594 L 218.515625 131.796875 L 222.894531 131.984375 L 227.273438 132.125 L 231.652344 132.238281 L 236.035156 132.324219 L 240.414062 132.390625 L 244.792969 132.445312 L 249.171875 132.484375 L 253.554688 132.515625 L 257.933594 132.542969 L 262.3125 132.5625 L 266.691406 132.574219 L 271.074219 132.585938 "/>
<path fill-rule="nonzero" fill="rgb(0%, 0%, 0%)" fill-opacity="1" stroke-width="0.773085" stroke-linecap="round" stroke-linejoin="round" stroke="rgb(0%, 0%, 0%)" stroke-opacity="1" stroke-miterlimit="10" d="M 54.210938 132.625 C 54.210938 135.46875 49.945312 135.46875 49.945312 132.625 C 49.945312 129.785156 54.210938 129.785156 54.210938 132.625 "/>
<path fill-rule="nonzero" fill="rgb(0%, 0%, 0%)" fill-opacity="1" stroke-width="0.773085" stroke-linecap="round" stroke-linejoin="round" stroke="rgb(0%, 0%, 0%)" stroke-opacity="1" stroke-miterlimit="10" d="M 58.589844 123.347656 C 58.589844 126.191406 54.324219 126.191406 54.324219 123.347656 C 54.324219 120.503906 58.589844 120.503906 58.589844 123.347656 "/>
<path fill-rule="nonzero" fill="rgb(0%, 0%, 0%)" fill-opacity="1" stroke-width="0.773085" stroke-linecap="round" stroke-linejoin="round" stroke="rgb(0%, 0%, 0%)" stroke-opacity="1" stroke-miterlimit="10" d="M 62.96875 123.347656 C 62.96875 126.191406 58.707031 126.191406 58.707031 123.347656 C 58.707031 120.503906 62.96875 120.503906 62.96875 123.347656 "/>
<path fill-rule="nonzero" fill="rgb(0%, 0%, 0%)" fill-opacity="1" stroke-width="0.773085" stroke-linecap="round" stroke-linejoin="round" stroke="rgb(0%, 0%, 0%)" stroke-opacity="1" stroke-miterlimit="10" d="M 67.351562 132.625 C 67.351562 135.46875 63.085938 135.46875 63.085938 132.625 C 63.085938 129.785156 67.351562 129.785156 67.351562 132.625 "/>
<path fill-rule="nonzero" fill="rgb(0%, 0%, 0%)" fill-opacity="1" stroke-width="0.773085" stroke-linecap="round" stroke-linejoin="round" stroke="rgb(0%, 0%, 0%)" stroke-opacity="1" stroke-miterlimit="10" d="M 71.730469 114.070312 C 71.730469 116.914062 67.464844 116.914062 67.464844 114.070312 C 67.464844 111.226562 71.730469 111.226562 71.730469 114.070312 "/>
<path fill-rule="nonzero" fill="rgb(0%, 0%, 0%)" fill-opacity="1" stroke-width="0.773085" stroke-linecap="round" stroke-linejoin="round" stroke="rgb(0%, 0%, 0%)" stroke-opacity="1" stroke-miterlimit="10" d="M 76.109375 86.234375 C 76.109375 89.078125 71.84375 89.078125 71.84375 86.234375 C 71.84375 83.390625 76.109375 83.390625 76.109375 86.234375 "/>
<path fill-rule="nonzero" fill="rgb(0%, 0%, 0%)" fill-opacity="1" stroke-width="0.773085" stroke-linecap="round" stroke-linejoin="round" stroke="rgb(0%, 0%, 0%)" stroke-opacity="1" stroke-miterlimit="10" d="M 80.488281 104.792969 C 80.488281 107.636719 76.226562 107.636719 76.226562 104.792969 C 76.226562 101.949219 80.488281 101.949219 80.488281 104.792969 "/>
<path fill-rule="nonzero" fill="rgb(0%, 0%, 0%)" fill-opacity="1" stroke-width="0.773085" stroke-linecap="round" stroke-linejoin="round" stroke="rgb(0%, 0%, 0%)" stroke-opacity="1" stroke-miterlimit="10" d="M 84.871094 104.792969 C 84.871094 107.636719 80.605469 107.636719 80.605469 104.792969 C 80.605469 101.949219 84.871094 101.949219 84.871094 104.792969 "/>
<path fill-rule="nonzero" fill="rgb(0%, 0%, 0%)" fill-opacity="1" stroke-width="0.773085" stroke-linecap="round" stroke-linejoin="round" stroke="rgb(0%, 0%, 0%)" stroke-opacity="1" stroke-miterlimit="10" d="M 89.25 104.792969 C 89.25 107.636719 84.984375 107.636719 84.984375 104.792969 C 84.984375 101.949219 89.25 101.949219 89.25 104.792969 "/>
<path fill-rule="nonzero" fill="rgb(0%, 0%, 0%)" fill-opacity="1" stroke-width="0.773085" stroke-linecap="round" stroke-linejoin="round" stroke="rgb(0%, 0%, 0%)" stroke-opacity="1" stroke-miterlimit="10" d="M 93.628906 76.957031 C 93.628906 79.800781 89.363281 79.800781 89.363281 76.957031 C 89.363281 74.113281 93.628906 74.113281 93.628906 76.957031 "/>
<path fill-rule="nonzero" fill="rgb(0%, 0%, 0%)" fill-opacity="1" stroke-width="0.773085" stroke-linecap="round" stroke-linejoin="round" stroke="rgb(0%, 0%, 0%)" stroke-opacity="1" stroke-miterlimit="10" d="M 98.007812 114.070312 C 98.007812 116.914062 93.746094 116.914062 93.746094 114.070312 C 93.746094 111.226562 98.007812 111.226562 98.007812 114.070312 "/>
<path fill-rule="nonzero" fill="rgb(0%, 0%, 0%)" fill-opacity="1" stroke-width="0.773085" stroke-linecap="round" stroke-linejoin="round" stroke="rgb(0%, 0%, 0%)" stroke-opacity="1" stroke-miterlimit="10" d="M 102.390625 86.234375 C 102.390625 89.078125 98.125 89.078125 98.125 86.234375 C 98.125 83.390625 102.390625 83.390625 102.390625 86.234375 "/>
<path fill-rule="nonzero" fill="rgb(0%, 0%, 0%)" fill-opacity="1" stroke-width="0.773085" stroke-linecap="round" stroke-linejoin="round" stroke="rgb(0%, 0%, 0%)" stroke-opacity="1" stroke-miterlimit="10" d="M 106.769531 49.121094 C 106.769531 51.964844 102.503906 51.964844 102.503906 49.121094 C 102.503906 46.277344 106.769531 46.277344 106.769531 49.121094 "/>
<path fill-rule="nonzero" fill="rgb(0%, 0%, 0%)" fill-opacity="1" stroke-width="0.773085" stroke-linecap="round" stroke-linejoin="round" stroke="rgb(0%, 0%, 0%)" stroke-opacity="1" stroke-miterlimit="10" d="M 111.148438 12.007812 C 111.148438 14.851562 106.882812 14.851562 106.882812 12.007812 C 106.882812 9.164062 111.148438 9.164062 111.148438 12.007812 "/>
<path fill-rule="nonzero" fill="rgb(0%, 0%, 0%)" fill-opacity="1" stroke-width="0.773085" stroke-linecap="round" stroke-linejoin="round" stroke="rgb(0%, 0%, 0%)" stroke-opacity="1" stroke-miterlimit="10" d="M 115.527344 21.285156 C 115.527344 24.128906 111.265625 24.128906 111.265625 21.285156 C 111.265625 18.445312 115.527344 18.445312 115.527344 21.285156 "/>
<path fill-rule="nonzero" fill="rgb(0%, 0%, 0%)" fill-opacity="1" stroke-width="0.773085" stroke-linecap="round" stroke-linejoin="round" stroke="rgb(0%, 0%, 0%)" stroke-opacity="1" stroke-miterlimit="10" d="M 119.910156 12.007812 C 119.910156 14.851562 115.644531 14.851562 115.644531 12.007812 C 115.644531 9.164062 119.910156 9.164062 119.910156 12.007812 "/>
<path fill-rule="nonzero" fill="rgb(0%, 0%, 0%)" fill-opacity="1" stroke-width="0.773085" stroke-linecap="round" stroke-linejoin="round" stroke="rgb(0%, 0%, 0%)" stroke-opacity="1" stroke-miterlimit="10" d="M 124.289062 30.566406 C 124.289062 33.410156 120.023438 33.410156 120.023438 30.566406 C 120.023438 27.722656 124.289062 27.722656 124.289062 30.566406 "/>
<path fill-rule="nonzero" fill="rgb(0%, 0%, 0%)" fill-opacity="1" stroke-width="0.773085" stroke-linecap="round" stroke-linejoin="round" stroke="rgb(0%, 0%, 0%)" stroke-opacity="1" stroke-miterlimit="10" d="M 128.667969 21.285156 C 128.667969 24.128906 124.402344 24.128906 124.402344 21.285156 C 124.402344 18.445312 128.667969 18.445312 128.667969 21.285156 "/>
<path fill-rule="nonzero" fill="rgb(0%, 0%, 0%)" fill-opacity="1" stroke-width="0.773085" stroke-linecap="round" stroke-linejoin="round" stroke="rgb(0%, 0%, 0%)" stroke-opacity="1" stroke-miterlimit="10" d="M 133.046875 76.957031 C 133.046875 79.800781 128.785156 79.800781 128.785156 76.957031 C 128.785156 74.113281 133.046875 74.113281 133.046875 76.957031 "/>
<path fill-rule="nonzero" fill="rgb(0%, 0%, 0%)" fill-opacity="1" stroke-width="0.773085" stroke-linecap="round" stroke-linejoin="round" stroke="rgb(0%, 0%, 0%)" stroke-opacity="1" stroke-miterlimit="10" d="M 137.429688 76.957031 C 137.429688 79.800781 133.164062 79.800781 133.164062 76.957031 C 133.164062 74.113281 137.429688 74.113281 137.429688 76.957031 "/>
<path fill-rule="nonzero" fill="rgb(0%, 0%, 0%)" fill-opacity="1" stroke-width="0.773085" stroke-linecap="round" stroke-linejoin="round" stroke="rgb(0%, 0%, 0%)" stroke-opacity="1" stroke-miterlimit="10" d="M 141.808594 76.957031 C 141.808594 79.800781 137.542969 79.800781 137.542969 76.957031 C 137.542969 74.113281 141.808594 74.113281 141.808594 76.957031 "/>
<path fill-rule="nonzero" fill="rgb(0%, 0%, 0%)" fill-opacity="1" stroke-width="0.773085" stroke-linecap="round" stroke-linejoin="round" stroke="rgb(0%, 0%, 0%)" stroke-opacity="1" stroke-miterlimit="10" d="M 146.1875 104.792969 C 146.1875 107.636719 141.921875 107.636719 141.921875 104.792969 C 141.921875 101.949219 146.1875 101.949219 146.1875 104.792969 "/>
<path fill-rule="nonzero" fill="rgb(0%, 0%, 0%)" fill-opacity="1" stroke-width="0.773085" stroke-linecap="round" stroke-linejoin="round" stroke="rgb(0%, 0%, 0%)" stroke-opacity="1" stroke-miterlimit="10" d="M 150.566406 123.347656 C 150.566406 126.191406 146.304688 126.191406 146.304688 123.347656 C 146.304688 120.503906 150.566406 120.503906 150.566406 123.347656 "/>
<path fill-rule="nonzero" fill="rgb(0%, 0%, 0%)" fill-opacity="1" stroke-width="0.773085" stroke-linecap="round" stroke-linejoin="round" stroke="rgb(0%, 0%, 0%)" stroke-opacity="1" stroke-miterlimit="10" d="M 154.949219 132.625 C 154.949219 135.46875 150.683594 135.46875 150.683594 132.625 C 150.683594 129.785156 154.949219 129.785156 154.949219 132.625 "/>
<path fill-rule="nonzero" fill="rgb(0%, 0%, 0%)" fill-opacity="1" stroke-width="0.773085" stroke-linecap="round" stroke-linejoin="round" stroke="rgb(0%, 0%, 0%)" stroke-opacity="1" stroke-miterlimit="10" d="M 159.328125 114.070312 C 159.328125 116.914062 155.0625 116.914062 155.0625 114.070312 C 155.0625 111.226562 159.328125 111.226562 159.328125 114.070312 "/>
<path fill-rule="nonzero" fill="rgb(0%, 0%, 0%)" fill-opacity="1" stroke-width="0.773085" stroke-linecap="round" stroke-linejoin="round" stroke="rgb(0%, 0%, 0%)" stroke-opacity="1" stroke-miterlimit="10" d="M 163.707031 132.625 C 163.707031 135.46875 159.441406 135.46875 159.441406 132.625 C 159.441406 129.785156 163.707031 129.785156 163.707031 132.625 "/>
<path fill-rule="nonzero" fill="rgb(0%, 0%, 0%)" fill-opacity="1" stroke-width="0.773085" stroke-linecap="round" stroke-linejoin="round" stroke="rgb(0%, 0%, 0%)" stroke-opacity="1" stroke-miterlimit="10" d="M 168.085938 132.625 C 168.085938 135.46875 163.824219 135.46875 163.824219 132.625 C 163.824219 129.785156 168.085938 129.785156 168.085938 132.625 "/>
<path fill-rule="nonzero" fill="rgb(0%, 0%, 0%)" fill-opacity="1" stroke-width="0.773085" stroke-linecap="round" stroke-linejoin="round" stroke="rgb(0%, 0%, 0%)" stroke-opacity="1" stroke-miterlimit="10" d="M 172.46875 132.625 C 172.46875 135.46875 168.203125 135.46875 168.203125 132.625 C 168.203125 129.785156 172.46875 129.785156 172.46875 132.625 "/>
<path fill-rule="nonzero" fill="rgb(0%, 0%, 0%)" fill-opacity="1" stroke-width="0.773085" stroke-linecap="round" stroke-linejoin="round" stroke="rgb(0%, 0%, 0%)" stroke-opacity="1" stroke-miterlimit="10" d="M 176.847656 132.625 C 176.847656 135.46875 172.582031 135.46875 172.582031 132.625 C 172.582031 129.785156 176.847656 129.785156 176.847656 132.625 "/>
<path fill-rule="nonzero" fill="rgb(0%, 0%, 0%)" fill-opacity="1" stroke-width="0.773085" stroke-linecap="round" stroke-linejoin="round" stroke="rgb(0%, 0%, 0%)" stroke-opacity="1" stroke-miterlimit="10" d="M 181.226562 114.070312 C 181.226562 116.914062 176.960938 116.914062 176.960938 114.070312 C 176.960938 111.226562 181.226562 111.226562 181.226562 114.070312 "/>
<path fill-rule="nonzero" fill="rgb(0%, 0%, 0%)" fill-opacity="1" stroke-width="0.773085" stroke-linecap="round" stroke-linejoin="round" stroke="rgb(0%, 0%, 0%)" stroke-opacity="1" stroke-miterlimit="10" d="M 185.605469 132.625 C 185.605469 135.46875 181.34375 135.46875 181.34375 132.625 C 181.34375 129.785156 185.605469 129.785156 185.605469 132.625 "/>
<path fill-rule="nonzero" fill="rgb(0%, 0%, 0%)" fill-opacity="1" stroke-width="0.773085" stroke-linecap="round" stroke-linejoin="round" stroke="rgb(0%, 0%, 0%)" stroke-opacity="1" stroke-miterlimit="10" d="M 189.988281 114.070312 C 189.988281 116.914062 185.722656 116.914062 185.722656 114.070312 C 185.722656 111.226562 189.988281 111.226562 189.988281 114.070312 "/>
<path fill-rule="nonzero" fill="rgb(0%, 0%, 0%)" fill-opacity="1" stroke-width="0.773085" stroke-linecap="round" stroke-linejoin="round" stroke="rgb(0%, 0%, 0%)" stroke-opacity="1" stroke-miterlimit="10" d="M 194.367188 132.625 C 194.367188 135.46875 190.101562 135.46875 190.101562 132.625 C 190.101562 129.785156 194.367188 129.785156 194.367188 132.625 "/>
<path fill-rule="nonzero" fill="rgb(0%, 0%, 0%)" fill-opacity="1" stroke-width="0.773085" stroke-linecap="round" stroke-linejoin="round" stroke="rgb(0%, 0%, 0%)" stroke-opacity="1" stroke-miterlimit="10" d="M 198.746094 132.625 C 198.746094 135.46875 194.480469 135.46875 194.480469 132.625 C 194.480469 129.785156 198.746094 129.785156 198.746094 132.625 "/>
<path fill-rule="nonzero" fill="rgb(0%, 0%, 0%)" fill-opacity="1" stroke-width="0.773085" stroke-linecap="round" stroke-linejoin="round" stroke="rgb(0%, 0%, 0%)" stroke-opacity="1" stroke-miterlimit="10" d="M 203.125 132.625 C 203.125 135.46875 198.863281 135.46875 198.863281 132.625 C 198.863281 129.785156 203.125 129.785156 203.125 132.625 "/>
<path fill-rule="nonzero" fill="rgb(0%, 0%, 0%)" fill-opacity="1" stroke-width="0.773085" stroke-linecap="round" stroke-linejoin="round" stroke="rgb(0%, 0%, 0%)" stroke-opacity="1" stroke-miterlimit="10" d="M 207.507812 132.625 C 207.507812 135.46875 203.242188 135.46875 203.242188 132.625 C 203.242188 129.785156 207.507812 129.785156 207.507812 132.625 "/>
<path fill-rule="nonzero" fill="rgb(0%, 0%, 0%)" fill-opacity="1" stroke-width="0.773085" stroke-linecap="round" stroke-linejoin="round" stroke="rgb(0%, 0%, 0%)" stroke-opacity="1" stroke-miterlimit="10" d="M 211.886719 132.625 C 211.886719 135.46875 207.621094 135.46875 207.621094 132.625 C 207.621094 129.785156 211.886719 129.785156 211.886719 132.625 "/>
<path fill-rule="nonzero" fill="rgb(0%, 0%, 0%)" fill-opacity="1" stroke-width="0.773085" stroke-linecap="round" stroke-linejoin="round" stroke="rgb(0%, 0%, 0%)" stroke-opacity="1" stroke-miterlimit="10" d="M 216.265625 132.625 C 216.265625 135.46875 212 135.46875 212 132.625 C 212 129.785156 216.265625 129.785156 216.265625 132.625 "/>
<path fill-rule="nonzero" fill="rgb(0%, 0%, 0%)" fill-opacity="1" stroke-width="0.773085" stroke-linecap="round" stroke-linejoin="round" stroke="rgb(0%, 0%, 0%)" stroke-opacity="1" stroke-miterlimit="10" d="M 220.648438 132.625 C 220.648438 135.46875 216.382812 135.46875 216.382812 132.625 C 216.382812 129.785156 220.648438 129.785156 220.648438 132.625 "/>
<path fill-rule="nonzero" fill="rgb(0%, 0%, 0%)" fill-opacity="1" stroke-width="0.773085" stroke-linecap="round" stroke-linejoin="round" stroke="rgb(0%, 0%, 0%)" stroke-opacity="1" stroke-miterlimit="10" d="M 225.027344 132.625 C 225.027344 135.46875 220.761719 135.46875 220.761719 132.625 C 220.761719 129.785156 225.027344 129.785156 225.027344 132.625 "/>
<path fill-rule="nonzero" fill="rgb(0%, 0%, 0%)" fill-opacity="1" stroke-width="0.773085" stroke-linecap="round" stroke-linejoin="round" stroke="rgb(0%, 0%, 0%)" stroke-opacity="1" stroke-miterlimit="10" d="M 229.40625 132.625 C 229.40625 135.46875 225.140625 135.46875 225.140625 132.625 C 225.140625 129.785156 229.40625 129.785156 229.40625 132.625 "/>
<path fill-rule="nonzero" fill="rgb(0%, 0%, 0%)" fill-opacity="1" stroke-width="0.773085" stroke-linecap="round" stroke-linejoin="round" stroke="rgb(0%, 0%, 0%)" stroke-opacity="1" stroke-miterlimit="10" d="M 233.785156 132.625 C 233.785156 135.46875 229.519531 135.46875 229.519531 132.625 C 229.519531 129.785156 233.785156 129.785156 233.785156 132.625 "/>
<path fill-rule="nonzero" fill="rgb(0%, 0%, 0%)" fill-opacity="1" stroke-width="0.773085" stroke-linecap="round" stroke-linejoin="round" stroke="rgb(0%, 0%, 0%)" stroke-opacity="1" stroke-miterlimit="10" d="M 238.167969 132.625 C 238.167969 135.46875 233.902344 135.46875 233.902344 132.625 C 233.902344 129.785156 238.167969 129.785156 238.167969 132.625 "/>
<path fill-rule="nonzero" fill="rgb(0%, 0%, 0%)" fill-opacity="1" stroke-width="0.773085" stroke-linecap="round" stroke-linejoin="round" stroke="rgb(0%, 0%, 0%)" stroke-opacity="1" stroke-miterlimit="10" d="M 242.546875 132.625 C 242.546875 135.46875 238.28125 135.46875 238.28125 132.625 C 238.28125 129.785156 242.546875 129.785156 242.546875 132.625 "/>
<path fill-rule="nonzero" fill="rgb(0%, 0%, 0%)" fill-opacity="1" stroke-width="0.773085" stroke-linecap="round" stroke-linejoin="round" stroke="rgb(0%, 0%, 0%)" stroke-opacity="1" stroke-miterlimit="10" d="M 246.925781 132.625 C 246.925781 135.46875 242.660156 135.46875 242.660156 132.625 C 242.660156 129.785156 246.925781 129.785156 246.925781 132.625 "/>
<path fill-rule="nonzero" fill="rgb(0%, 0%, 0%)" fill-opacity="1" stroke-width="0.773085" stroke-linecap="round" stroke-linejoin="round" stroke="rgb(0%, 0%, 0%)" stroke-opacity="1" stroke-miterlimit="10" d="M 251.304688 132.625 C 251.304688 135.46875 247.039062 135.46875 247.039062 132.625 C 247.039062 129.785156 251.304688 129.785156 251.304688 132.625 "/>
<path fill-rule="nonzero" fill="rgb(0%, 0%, 0%)" fill-opacity="1" stroke-width="0.773085" stroke-linecap="round" stroke-linejoin="round" stroke="rgb(0%, 0%, 0%)" stroke-opacity="1" stroke-miterlimit="10" d="M 255.6875 132.625 C 255.6875 135.46875 251.421875 135.46875 251.421875 132.625 C 251.421875 129.785156 255.6875 129.785156 255.6875 132.625 "/>
<path fill-rule="nonzero" fill="rgb(0%, 0%, 0%)" fill-opacity="1" stroke-width="0.773085" stroke-linecap="round" stroke-linejoin="round" stroke="rgb(0%, 0%, 0%)" stroke-opacity="1" stroke-miterlimit="10" d="M 260.066406 132.625 C 260.066406 135.46875 255.800781 135.46875 255.800781 132.625 C 255.800781 129.785156 260.066406 129.785156 260.066406 132.625 "/>
<path fill-rule="nonzero" fill="rgb(0%, 0%, 0%)" fill-opacity="1" stroke-width="0.773085" stroke-linecap="round" stroke-linejoin="round" stroke="rgb(0%, 0%, 0%)" stroke-opacity="1" stroke-miterlimit="10" d="M 264.445312 132.625 C 264.445312 135.46875 260.179688 135.46875 260.179688 132.625 C 260.179688 129.785156 264.445312 129.785156 264.445312 132.625 "/>
<path fill-rule="nonzero" fill="rgb(0%, 0%, 0%)" fill-opacity="1" stroke-width="0.773085" stroke-linecap="round" stroke-linejoin="round" stroke="rgb(0%, 0%, 0%)" stroke-opacity="1" stroke-miterlimit="10" d="M 268.824219 132.625 C 268.824219 135.46875 264.558594 135.46875 264.558594 132.625 C 264.558594 129.785156 268.824219 129.785156 268.824219 132.625 "/>
<path fill-rule="nonzero" fill="rgb(0%, 0%, 0%)" fill-opacity="1" stroke-width="0.773085" stroke-linecap="round" stroke-linejoin="round" stroke="rgb(0%, 0%, 0%)" stroke-opacity="1" stroke-miterlimit="10" d="M 273.207031 132.625 C 273.207031 135.46875 268.941406 135.46875 268.941406 132.625 C 268.941406 129.785156 273.207031 129.785156 273.207031 132.625 "/>
<path fill="none" stroke-width="1.066978" stroke-linecap="butt" stroke-linejoin="round" stroke="rgb(81.176471%, 87.843137%, 94.901961%)" stroke-opacity="1" stroke-miterlimit="10" d="M 41.128906 138.65625 L 41.128906 5.976562 "/>
<g fill="rgb(39.215686%, 45.882353%, 52.941176%)" fill-opacity="1">
<use xlink:href="#glyph-0-0" x="27.417969" y="136.5625"/>
</g>
<g fill="rgb(39.215686%, 45.882353%, 52.941176%)" fill-opacity="1">
<use xlink:href="#glyph-0-1" x="27.417969" y="90.171875"/>
</g>
<g fill="rgb(39.215686%, 45.882353%, 52.941176%)" fill-opacity="1">
<use xlink:href="#glyph-0-2" x="22.078125" y="43.78125"/>
<use xlink:href="#glyph-0-0" x="27.417188" y="43.78125"/>
</g>
<path fill="none" stroke-width="0.853583" stroke-linecap="butt" stroke-linejoin="round" stroke="rgb(81.176471%, 87.843137%, 94.901961%)" stroke-opacity="1" stroke-miterlimit="10" d="M 38.140625 132.625 L 41.128906 132.625 "/>
<path fill="none" stroke-width="0.853583" stroke-linecap="butt" stroke-linejoin="round" stroke="rgb(81.176471%, 87.843137%, 94.901961%)" stroke-opacity="1" stroke-miterlimit="10" d="M 38.140625 86.234375 L 41.128906 86.234375 "/>
<path fill="none" stroke-width="0.853583" stroke-linecap="butt" stroke-linejoin="round" stroke="rgb(81.176471%, 87.843137%, 94.901961%)" stroke-opacity="1" stroke-miterlimit="10" d="M 38.140625 39.84375 L 41.128906 39.84375 "/>
<path fill="none" stroke-width="1.066978" stroke-linecap="butt" stroke-linejoin="round" stroke="rgb(81.176471%, 87.843137%, 94.901961%)" stroke-opacity="1" stroke-miterlimit="10" d="M 41.128906 138.65625 L 282.023438 138.65625 "/>
<path fill="none" stroke-width="0.853583" stroke-linecap="butt" stroke-linejoin="round" stroke="rgb(81.176471%, 87.843137%, 94.901961%)" stroke-opacity="1" stroke-miterlimit="10" d="M 52.078125 141.644531 L 52.078125 138.65625 "/>
<path fill="none" stroke-width="0.853583" stroke-linecap="butt" stroke-linejoin="round" stroke="rgb(81.176471%, 87.843137%, 94.901961%)" stroke-opacity="1" stroke-miterlimit="10" d="M 95.878906 141.644531 L 95.878906 138.65625 "/>
<path fill="none" stroke-width="0.853583" stroke-linecap="butt" stroke-linejoin="round" stroke="rgb(81.176471%, 87.843137%, 94.901961%)" stroke-opacity="1" stroke-miterlimit="10" d="M 139.675781 141.644531 L 139.675781 138.65625 "/>
<path fill="none" stroke-width="0.853583" stroke-linecap="butt" stroke-linejoin="round" stroke="rgb(81.176471%, 87.843137%, 94.901961%)" stroke-opacity="1" stroke-miterlimit="10" d="M 183.476562 141.644531 L 183.476562 138.65625 "/>
<path fill="none" stroke-width="0.853583" stroke-linecap="butt" stroke-linejoin="round" stroke="rgb(81.176471%, 87.843137%, 94.901961%)" stroke-opacity="1" stroke-miterlimit="10" d="M 227.273438 141.644531 L 227.273438 138.65625 "/>
<path fill="none" stroke-width="0.853583" stroke-linecap="butt" stroke-linejoin="round" stroke="rgb(81.176471%, 87.843137%, 94.901961%)" stroke-opacity="1" stroke-miterlimit="10" d="M 271.074219 141.644531 L 271.074219 138.65625 "/>
<g fill="rgb(39.215686%, 45.882353%, 52.941176%)" fill-opacity="1">
<use xlink:href="#glyph-0-0" x="49.410156" y="154.898438"/>
</g>
<g fill="rgb(39.215686%, 45.882353%, 52.941176%)" fill-opacity="1">
<use xlink:href="#glyph-0-2" x="90.539062" y="154.898438"/>
<use xlink:href="#glyph-0-0" x="95.878125" y="154.898438"/>
</g>
<g fill="rgb(39.215686%, 45.882353%, 52.941176%)" fill-opacity="1">
<use xlink:href="#glyph-0-3" x="134.335938" y="154.898438"/>
<use xlink:href="#glyph-0-0" x="139.675" y="154.898438"/>
</g>
<g fill="rgb(39.215686%, 45.882353%, 52.941176%)" fill-opacity="1">
<use xlink:href="#glyph-0-4" x="178.136719" y="154.898438"/>
<use xlink:href="#glyph-0-0" x="183.475781" y="154.898438"/>
</g>
<g fill="rgb(39.215686%, 45.882353%, 52.941176%)" fill-opacity="1">
<use xlink:href="#glyph-0-5" x="221.933594" y="154.898438"/>
<use xlink:href="#glyph-0-0" x="227.272656" y="154.898438"/>
</g>
<g fill="rgb(39.215686%, 45.882353%, 52.941176%)" fill-opacity="1">
<use xlink:href="#glyph-0-1" x="265.734375" y="154.898438"/>
<use xlink:href="#glyph-0-0" x="271.073438" y="154.898438"/>
</g>
<g fill="rgb(25.882353%, 33.72549%, 41.960784%)" fill-opacity="1">
<use xlink:href="#glyph-1-0" x="150.902344" y="170.496094"/>
<use xlink:href="#glyph-1-1" x="159.568359" y="170.496094"/>
<use xlink:href="#glyph-1-2" x="166.242188" y="170.496094"/>
</g>
<g fill="rgb(25.882353%, 33.72549%, 41.960784%)" fill-opacity="1">
<use xlink:href="#glyph-2-0" x="15.566406" y="98"/>
<use xlink:href="#glyph-2-1" x="15.566406" y="94.666016"/>
<use xlink:href="#glyph-2-2" x="15.566406" y="87.992188"/>
<use xlink:href="#glyph-2-3" x="15.566406" y="81.992188"/>
<use xlink:href="#glyph-2-4" x="15.566406" y="79.326172"/>
<use xlink:href="#glyph-2-5" x="15.566406" y="72.652344"/>
<use xlink:href="#glyph-2-1" x="15.566406" y="65.978516"/>
<use xlink:href="#glyph-2-2" x="15.566406" y="59.304688"/>
<use xlink:href="#glyph-2-5" x="15.566406" y="53.304688"/>
</g>
</svg>
