<?xml version="1.0" encoding="UTF-8"?>
<svg xmlns="http://www.w3.org/2000/svg" xmlns:xlink="http://www.w3.org/1999/xlink" width="288pt" height="180pt" viewBox="0 0 288 180">
<defs>
<g>
<g id="glyph-0-0">
<path d="M 0.398438 -3.390625 C 0.398438 -4.203125 0.480469 -4.855469 0.648438 -5.351562 C 0.816406 -5.847656 1.066406 -6.226562 1.394531 -6.496094 C 1.722656 -6.765625 2.140625 -6.898438 2.640625 -6.898438 C 3.007812 -6.898438 3.332031 -6.824219 3.609375 -6.675781 C 3.886719 -6.527344 4.117188 -6.316406 4.296875 -6.035156 C 4.480469 -5.753906 4.621094 -5.414062 4.726562 -5.011719 C 4.828125 -4.613281 4.878906 -4.070312 4.878906 -3.390625 C 4.878906 -2.582031 4.796875 -1.933594 4.632812 -1.4375 C 4.464844 -0.941406 4.21875 -0.558594 3.886719 -0.289062 C 3.558594 -0.0195312 3.140625 0.117188 2.640625 0.117188 C 1.976562 0.117188 1.457031 -0.121094 1.078125 -0.59375 C 0.625 -1.167969 0.398438 -2.097656 0.398438 -3.390625 M 1.265625 -3.390625 C 1.265625 -2.261719 1.398438 -1.511719 1.660156 -1.136719 C 1.925781 -0.761719 2.25 -0.578125 2.640625 -0.578125 C 3.027344 -0.578125 3.351562 -0.765625 3.617188 -1.140625 C 3.878906 -1.515625 4.011719 -2.265625 4.011719 -3.390625 C 4.011719 -4.519531 3.878906 -5.273438 3.617188 -5.644531 C 3.351562 -6.015625 3.023438 -6.203125 2.628906 -6.203125 C 2.242188 -6.203125 1.933594 -6.039062 1.703125 -5.710938 C 1.410156 -5.289062 1.265625 -4.515625 1.265625 -3.390625 Z M 1.265625 -3.390625 "/>
</g>
<g id="glyph-0-1">
<path d="M 3.578125 0 L 2.734375 0 L 2.734375 -5.375 C 2.53125 -5.183594 2.261719 -4.988281 1.933594 -4.796875 C 1.605469 -4.601562 1.308594 -4.457031 1.046875 -4.359375 L 1.046875 -5.175781 C 1.515625 -5.398438 1.929688 -5.664062 2.28125 -5.980469 C 2.636719 -6.296875 2.886719 -6.601562 3.03125 -6.898438 L 3.578125 -6.898438 Z M 3.578125 0 "/>
</g>
<g id="glyph-0-2">
<path d="M 4.832031 -0.8125 L 4.832031 0 L 0.289062 0 C 0.285156 -0.203125 0.316406 -0.398438 0.390625 -0.585938 C 0.503906 -0.894531 0.691406 -1.199219 0.945312 -1.5 C 1.199219 -1.800781 1.566406 -2.148438 2.046875 -2.539062 C 2.796875 -3.152344 3.300781 -3.636719 3.5625 -3.996094 C 3.824219 -4.355469 3.957031 -4.691406 3.957031 -5.011719 C 3.957031 -5.34375 3.835938 -5.628906 3.597656 -5.855469 C 3.359375 -6.085938 3.046875 -6.203125 2.664062 -6.203125 C 2.257812 -6.203125 1.929688 -6.078125 1.6875 -5.835938 C 1.445312 -5.59375 1.320312 -5.253906 1.316406 -4.824219 L 0.449219 -4.914062 C 0.507812 -5.558594 0.734375 -6.050781 1.121094 -6.390625 C 1.507812 -6.730469 2.027344 -6.898438 2.679688 -6.898438 C 3.339844 -6.898438 3.863281 -6.71875 4.246094 -6.351562 C 4.632812 -5.984375 4.824219 -5.53125 4.824219 -4.992188 C 4.824219 -4.71875 4.765625 -4.445312 4.65625 -4.179688 C 4.542969 -3.914062 4.355469 -3.636719 4.09375 -3.34375 C 3.832031 -3.046875 3.398438 -2.644531 2.792969 -2.132812 C 2.289062 -1.707031 1.960938 -1.417969 1.820312 -1.269531 C 1.675781 -1.117188 1.554688 -0.964844 1.460938 -0.8125 Z M 4.832031 -0.8125 "/>
</g>
<g id="glyph-0-3">
<path d="M 0.398438 -1.800781 L 1.285156 -1.875 C 1.351562 -1.445312 1.503906 -1.121094 1.742188 -0.902344 C 1.980469 -0.683594 2.269531 -0.578125 2.605469 -0.578125 C 3.011719 -0.578125 3.355469 -0.730469 3.636719 -1.035156 C 3.917969 -1.34375 4.058594 -1.75 4.058594 -2.253906 C 4.058594 -2.734375 3.925781 -3.117188 3.652344 -3.394531 C 3.382812 -3.671875 3.03125 -3.8125 2.59375 -3.8125 C 2.320312 -3.8125 2.074219 -3.75 1.855469 -3.625 C 1.636719 -3.503906 1.464844 -3.34375 1.339844 -3.144531 L 0.546875 -3.25 L 1.214844 -6.777344 L 4.632812 -6.777344 L 4.632812 -5.972656 L 1.890625 -5.972656 L 1.519531 -4.125 C 1.929688 -4.414062 2.363281 -4.554688 2.816406 -4.554688 C 3.417969 -4.554688 3.921875 -4.347656 4.335938 -3.933594 C 4.75 -3.515625 4.953125 -2.984375 4.953125 -2.328125 C 4.953125 -1.707031 4.773438 -1.171875 4.410156 -0.71875 C 3.96875 -0.160156 3.367188 0.117188 2.605469 0.117188 C 1.980469 0.117188 1.472656 -0.0585938 1.074219 -0.40625 C 0.679688 -0.757812 0.453125 -1.222656 0.398438 -1.800781 Z M 0.398438 -1.800781 "/>
</g>
<g id="glyph-0-4">
<path d="M 0.453125 -5.972656 L 0.453125 -6.78125 L 4.902344 -6.78125 L 4.902344 -6.125 C 4.464844 -5.660156 4.03125 -5.042969 3.601562 -4.269531 C 3.171875 -3.5 2.839844 -2.703125 2.605469 -1.890625 C 2.4375 -1.3125 2.328125 -0.683594 2.28125 0 L 1.414062 0 C 1.425781 -0.539062 1.53125 -1.195312 1.734375 -1.960938 C 1.9375 -2.726562 2.230469 -3.464844 2.609375 -4.175781 C 2.988281 -4.886719 3.390625 -5.484375 3.820312 -5.972656 Z M 0.453125 -5.972656 "/>
</g>
<g id="glyph-1-0">
<path d="M 0.539062 -2.757812 L 1.609375 -2.851562 C 1.660156 -2.421875 1.78125 -2.070312 1.964844 -1.796875 C 2.152344 -1.519531 2.4375 -1.296875 2.828125 -1.128906 C 3.21875 -0.957031 3.660156 -0.875 4.148438 -0.875 C 4.582031 -0.875 4.964844 -0.9375 5.296875 -1.066406 C 5.628906 -1.195312 5.875 -1.371094 6.039062 -1.597656 C 6.199219 -1.820312 6.28125 -2.066406 6.28125 -2.332031 C 6.28125 -2.601562 6.203125 -2.835938 6.046875 -3.039062 C 5.890625 -3.238281 5.632812 -3.40625 5.273438 -3.546875 C 5.042969 -3.632812 4.53125 -3.773438 3.742188 -3.964844 C 2.953125 -4.152344 2.402344 -4.332031 2.085938 -4.5 C 1.675781 -4.714844 1.371094 -4.980469 1.167969 -5.300781 C 0.96875 -5.617188 0.867188 -5.972656 0.867188 -6.367188 C 0.867188 -6.804688 0.992188 -7.207031 1.234375 -7.585938 C 1.484375 -7.960938 1.839844 -8.246094 2.3125 -8.445312 C 2.785156 -8.636719 3.3125 -8.734375 3.890625 -8.734375 C 4.527344 -8.734375 5.089844 -8.632812 5.574219 -8.429688 C 6.0625 -8.222656 6.433594 -7.921875 6.695312 -7.523438 C 6.957031 -7.125 7.097656 -6.671875 7.117188 -6.171875 L 6.03125 -6.085938 C 5.96875 -6.628906 5.773438 -7.039062 5.433594 -7.320312 C 5.097656 -7.59375 4.597656 -7.734375 3.9375 -7.734375 C 3.25 -7.734375 2.75 -7.609375 2.433594 -7.355469 C 2.121094 -7.105469 1.960938 -6.800781 1.960938 -6.445312 C 1.960938 -6.136719 2.074219 -5.882812 2.296875 -5.683594 C 2.515625 -5.484375 3.085938 -5.28125 4.011719 -5.070312 C 4.933594 -4.863281 5.566406 -4.679688 5.914062 -4.523438 C 6.410156 -4.292969 6.78125 -4 7.019531 -3.648438 C 7.257812 -3.292969 7.375 -2.886719 7.375 -2.425781 C 7.375 -1.96875 7.246094 -1.539062 6.984375 -1.132812 C 6.722656 -0.730469 6.347656 -0.414062 5.855469 -0.191406 C 5.367188 0.0351562 4.8125 0.148438 4.203125 0.148438 C 3.421875 0.148438 2.773438 0.03125 2.246094 -0.195312 C 1.722656 -0.417969 1.308594 -0.761719 1.011719 -1.214844 C 0.710938 -1.671875 0.554688 -2.1875 0.539062 -2.757812 Z M 0.539062 -2.757812 "/>
</g>
<g id="glyph-1-1">
<path d="M 5.050781 -2.003906 L 6.140625 -1.867188 C 5.96875 -1.230469 5.648438 -0.738281 5.1875 -0.386719 C 4.71875 -0.0351562 4.125 0.140625 3.40625 0.140625 C 2.492188 0.140625 1.773438 -0.140625 1.238281 -0.699219 C 0.707031 -1.261719 0.4375 -2.046875 0.4375 -3.058594 C 0.4375 -4.105469 0.710938 -4.917969 1.25 -5.496094 C 1.789062 -6.074219 2.484375 -6.363281 3.34375 -6.363281 C 4.179688 -6.363281 4.859375 -6.078125 5.382812 -5.515625 C 5.914062 -4.945312 6.175781 -4.148438 6.175781 -3.125 C 6.175781 -3.058594 6.171875 -2.964844 6.171875 -2.84375 L 1.53125 -2.84375 C 1.566406 -2.15625 1.761719 -1.632812 2.109375 -1.273438 C 2.457031 -0.90625 2.890625 -0.726562 3.410156 -0.726562 C 3.796875 -0.726562 4.125 -0.828125 4.398438 -1.03125 C 4.671875 -1.234375 4.890625 -1.558594 5.050781 -2.003906 M 1.585938 -3.710938 L 5.0625 -3.710938 C 5.015625 -4.230469 4.882812 -4.625 4.664062 -4.886719 C 4.328125 -5.292969 3.890625 -5.496094 3.359375 -5.496094 C 2.871094 -5.496094 2.464844 -5.332031 2.136719 -5.007812 C 1.804688 -4.683594 1.625 -4.25 1.585938 -3.710938 Z M 1.585938 -3.710938 "/>
</g>
<g id="glyph-1-2">
<path d="M 0.78125 0 L 0.78125 -6.222656 L 1.726562 -6.222656 L 1.726562 -5.28125 C 1.96875 -5.71875 2.195312 -6.011719 2.398438 -6.152344 C 2.605469 -6.292969 2.828125 -6.363281 3.078125 -6.363281 C 3.429688 -6.363281 3.792969 -6.25 4.160156 -6.023438 L 3.796875 -5.046875 C 3.539062 -5.195312 3.28125 -5.273438 3.023438 -5.273438 C 2.792969 -5.273438 2.585938 -5.203125 2.402344 -5.066406 C 2.21875 -4.925781 2.085938 -4.734375 2.007812 -4.488281 C 1.890625 -4.113281 1.835938 -3.703125 1.835938 -3.257812 L 1.835938 0 Z M 0.78125 0 "/>
</g>
<g id="glyph-1-3">
<path d="M 0.796875 -7.375 L 0.796875 -8.589844 L 1.851562 -8.589844 L 1.851562 -7.375 L 0.796875 -7.375 M 0.796875 0 L 0.796875 -6.222656 L 1.851562 -6.222656 L 1.851562 0 Z M 0.796875 0 "/>
</g>
<g id="glyph-1-4">
<path d="M 4.851562 -0.765625 C 4.460938 -0.433594 4.085938 -0.199219 3.722656 -0.0625 C 3.363281 0.0703125 2.972656 0.140625 2.5625 0.140625 C 1.875 0.140625 1.351562 -0.0273438 0.984375 -0.359375 C 0.617188 -0.695312 0.433594 -1.121094 0.433594 -1.640625 C 0.433594 -1.945312 0.503906 -2.222656 0.640625 -2.476562 C 0.78125 -2.726562 0.960938 -2.929688 1.1875 -3.082031 C 1.410156 -3.234375 1.664062 -3.347656 1.945312 -3.429688 C 2.152344 -3.480469 2.464844 -3.535156 2.882812 -3.585938 C 3.734375 -3.6875 4.359375 -3.808594 4.765625 -3.949219 C 4.765625 -4.09375 4.769531 -4.183594 4.769531 -4.226562 C 4.769531 -4.652344 4.671875 -4.957031 4.46875 -5.132812 C 4.203125 -5.371094 3.800781 -5.492188 3.269531 -5.492188 C 2.773438 -5.492188 2.40625 -5.402344 2.171875 -5.230469 C 1.933594 -5.054688 1.757812 -4.746094 1.648438 -4.304688 L 0.617188 -4.445312 C 0.707031 -4.886719 0.863281 -5.246094 1.078125 -5.515625 C 1.292969 -5.789062 1.601562 -5.996094 2.007812 -6.144531 C 2.414062 -6.289062 2.886719 -6.363281 3.421875 -6.363281 C 3.953125 -6.363281 4.382812 -6.300781 4.71875 -6.175781 C 5.046875 -6.050781 5.292969 -5.894531 5.449219 -5.703125 C 5.605469 -5.515625 5.714844 -5.273438 5.777344 -4.984375 C 5.8125 -4.804688 5.828125 -4.484375 5.828125 -4.015625 L 5.828125 -2.609375 C 5.828125 -1.628906 5.851562 -1.007812 5.898438 -0.746094 C 5.941406 -0.488281 6.03125 -0.238281 6.164062 0 L 5.0625 0 C 4.953125 -0.21875 4.882812 -0.476562 4.851562 -0.765625 M 4.765625 -3.125 C 4.378906 -2.964844 3.804688 -2.832031 3.039062 -2.726562 C 2.605469 -2.660156 2.300781 -2.589844 2.121094 -2.515625 C 1.941406 -2.433594 1.800781 -2.320312 1.703125 -2.171875 C 1.605469 -2.019531 1.558594 -1.851562 1.558594 -1.671875 C 1.558594 -1.386719 1.664062 -1.152344 1.878906 -0.96875 C 2.089844 -0.78125 2.402344 -0.683594 2.8125 -0.6875 C 3.21875 -0.683594 3.578125 -0.773438 3.898438 -0.953125 C 4.210938 -1.128906 4.445312 -1.371094 4.59375 -1.679688 C 4.707031 -1.917969 4.761719 -2.269531 4.765625 -2.734375 Z M 4.765625 -3.125 "/>
</g>
<g id="glyph-1-5">
<path d="M 0.765625 0 L 0.765625 -8.589844 L 1.820312 -8.589844 L 1.820312 0 Z M 0.765625 0 "/>
</g>
<g id="glyph-1-6">
</g>
<g id="glyph-1-7">
<path d="M 0.789062 0 L 0.789062 -6.222656 L 1.742188 -6.222656 L 1.742188 -5.335938 C 2.195312 -6.019531 2.855469 -6.363281 3.71875 -6.363281 C 4.09375 -6.363281 4.441406 -6.296875 4.753906 -6.160156 C 5.070312 -6.027344 5.304688 -5.847656 5.460938 -5.632812 C 5.617188 -5.410156 5.726562 -5.152344 5.789062 -4.851562 C 5.828125 -4.65625 5.847656 -4.3125 5.847656 -3.828125 L 5.847656 0 L 4.792969 0 L 4.792969 -3.785156 C 4.792969 -4.214844 4.75 -4.535156 4.671875 -4.75 C 4.585938 -4.960938 4.441406 -5.132812 4.234375 -5.257812 C 4.023438 -5.386719 3.78125 -5.449219 3.5 -5.449219 C 3.046875 -5.449219 2.660156 -5.304688 2.335938 -5.023438 C 2.007812 -4.734375 1.84375 -4.195312 1.84375 -3.398438 L 1.84375 0 Z M 0.789062 0 "/>
</g>
<g id="glyph-1-8">
<path d="M 3.09375 -0.945312 L 3.246094 -0.0117188 C 2.949219 0.0507812 2.683594 0.0820312 2.449219 0.0820312 C 2.066406 0.0820312 1.769531 0.0195312 1.558594 -0.101562 C 1.347656 -0.21875 1.199219 -0.378906 1.113281 -0.578125 C 1.027344 -0.773438 0.984375 -1.1875 0.984375 -1.820312 L 0.984375 -5.402344 L 0.210938 -5.402344 L 0.210938 -6.222656 L 0.984375 -6.222656 L 0.984375 -7.765625 L 2.03125 -8.398438 L 2.03125 -6.222656 L 3.09375 -6.222656 L 3.09375 -5.402344 L 2.03125 -5.402344 L 2.03125 -1.765625 C 2.03125 -1.460938 2.050781 -1.269531 2.089844 -1.183594 C 2.125 -1.097656 2.1875 -1.027344 2.269531 -0.976562 C 2.355469 -0.925781 2.472656 -0.902344 2.632812 -0.902344 C 2.75 -0.902344 2.902344 -0.914062 3.09375 -0.945312 Z M 3.09375 -0.945312 "/>
</g>
<g id="glyph-1-9">
<path d="M 2.519531 0 L 0.152344 -6.222656 L 1.265625 -6.222656 L 2.601562 -2.496094 C 2.746094 -2.09375 2.878906 -1.675781 3 -1.242188 C 3.09375 -1.570312 3.222656 -1.964844 3.390625 -2.425781 L 4.773438 -6.222656 L 5.859375 -6.222656 L 3.503906 0 Z M 2.519531 0 "/>
</g>
<g id="glyph-1-10">
<path d="M 0.367188 -1.859375 L 1.414062 -2.023438 C 1.46875 -1.601562 1.632812 -1.28125 1.902344 -1.0625 C 2.167969 -0.835938 2.542969 -0.726562 3.023438 -0.726562 C 3.507812 -0.726562 3.867188 -0.824219 4.101562 -1.023438 C 4.335938 -1.21875 4.453125 -1.449219 4.453125 -1.71875 C 4.453125 -1.953125 4.347656 -2.140625 4.140625 -2.28125 C 3.996094 -2.375 3.640625 -2.492188 3.0625 -2.636719 C 2.289062 -2.832031 1.753906 -3 1.457031 -3.144531 C 1.15625 -3.285156 0.929688 -3.484375 0.777344 -3.734375 C 0.621094 -3.988281 0.546875 -4.265625 0.546875 -4.570312 C 0.546875 -4.847656 0.609375 -5.105469 0.734375 -5.339844 C 0.863281 -5.578125 1.035156 -5.773438 1.253906 -5.929688 C 1.417969 -6.050781 1.640625 -6.152344 1.925781 -6.238281 C 2.207031 -6.320312 2.511719 -6.363281 2.835938 -6.363281 C 3.324219 -6.363281 3.753906 -6.292969 4.121094 -6.152344 C 4.492188 -6.011719 4.761719 -5.820312 4.9375 -5.582031 C 5.113281 -5.339844 5.234375 -5.019531 5.304688 -4.617188 L 4.273438 -4.476562 C 4.226562 -4.796875 4.089844 -5.046875 3.863281 -5.226562 C 3.640625 -5.40625 3.320312 -5.496094 2.914062 -5.496094 C 2.425781 -5.496094 2.082031 -5.414062 1.875 -5.257812 C 1.667969 -5.09375 1.5625 -4.90625 1.5625 -4.695312 C 1.5625 -4.554688 1.605469 -4.433594 1.695312 -4.324219 C 1.777344 -4.210938 1.914062 -4.117188 2.097656 -4.042969 C 2.203125 -4.003906 2.515625 -3.914062 3.03125 -3.773438 C 3.773438 -3.574219 4.296875 -3.410156 4.589844 -3.285156 C 4.886719 -3.15625 5.117188 -2.972656 5.285156 -2.730469 C 5.453125 -2.488281 5.535156 -2.1875 5.539062 -1.828125 C 5.535156 -1.476562 5.433594 -1.144531 5.230469 -0.835938 C 5.023438 -0.523438 4.726562 -0.285156 4.34375 -0.113281 C 3.953125 0.0546875 3.515625 0.140625 3.03125 0.140625 C 2.21875 0.140625 1.605469 -0.0273438 1.179688 -0.363281 C 0.757812 -0.699219 0.484375 -1.199219 0.367188 -1.859375 Z M 0.367188 -1.859375 "/>
</g>
</g>
<clipPath id="clip-0">
<path clip-rule="nonzero" d="M 30.363281 5.976562 L 282.023438 5.976562 L 282.023438 138.65625 L 30.363281 138.65625 Z M 30.363281 5.976562 "/>
</clipPath>
<clipPath id="clip-1">
<path clip-rule="nonzero" d="M 30.363281 132 L 282.023438 132 L 282.023438 134 L 30.363281 134 Z M 30.363281 132 "/>
</clipPath>
<clipPath id="clip-2">
<path clip-rule="nonzero" d="M 30.363281 89 L 282.023438 89 L 282.023438 91 L 30.363281 91 Z M 30.363281 89 "/>
</clipPath>
<clipPath id="clip-3">
<path clip-rule="nonzero" d="M 30.363281 45 L 282.023438 45 L 282.023438 48 L 30.363281 48 Z M 30.363281 45 "/>
</clipPath>
<clipPath id="clip-4">
<path clip-rule="nonzero" d="M 43 5.976562 L 45 5.976562 L 45 138.65625 L 43 138.65625 Z M 43 5.976562 "/>
</clipPath>
<clipPath id="clip-5">
<path clip-rule="nonzero" d="M 100 5.976562 L 102 5.976562 L 102 138.65625 L 100 138.65625 Z M 100 5.976562 "/>
</clipPath>
<clipPath id="clip-6">
<path clip-rule="nonzero" d="M 156 5.976562 L 158 5.976562 L 158 138.65625 L 156 138.65625 Z M 156 5.976562 "/>
</clipPath>
<clipPath id="clip-7">
<path clip-rule="nonzero" d="M 213 5.976562 L 215 5.976562 L 215 138.65625 L 213 138.65625 Z M 213 5.976562 "/>
</clipPath>
<clipPath id="clip-8">
<path clip-rule="nonzero" d="M 270 5.976562 L 272 5.976562 L 272 138.65625 L 270 138.65625 Z M 270 5.976562 "/>
</clipPath>
</defs>
<rect x="-28.8" y="-18" width="345.6" height="216" fill="rgb(100%, 100%, 100%)" fill-opacity="1"/>
<rect x="-28.8" y="-18" width="345.6" height="216" fill="rgb(100%, 100%, 100%)" fill-opacity="1"/>
<g clip-path="url(#clip-0)">
<path fill-rule="nonzero" fill="rgb(100%, 100%, 100%)" fill-opacity="1" d="M 30.363281 138.65625 L 282.023438 138.65625 L 282.023438 5.976562 L 30.363281 5.976562 Z M 30.363281 138.65625 "/>
</g>
<g clip-path="url(#clip-1)">
<path fill="none" stroke-width="1.066978" stroke-linecap="butt" stroke-linejoin="round" stroke="rgb(89.019608%, 92.941176%, 97.647059%)" stroke-opacity="1" stroke-miterlimit="10" d="M 30.363281 132.625 L 282.023438 132.625 "/>
</g>
<g clip-path="url(#clip-2)">
<path fill="none" stroke-width="1.066978" stroke-linecap="butt" stroke-linejoin="round" stroke="rgb(89.019608%, 92.941176%, 97.647059%)" stroke-opacity="1" stroke-miterlimit="10" d="M 30.363281 89.546875 L 282.023438 89.546875 "/>
</g>
<g clip-path="url(#clip-3)">
<path fill="none" stroke-width="1.066978" stroke-linecap="butt" stroke-linejoin="round" stroke="rgb(89.019608%, 92.941176%, 97.647059%)" stroke-opacity="1" stroke-miterlimit="10" d="M 30.363281 46.472656 L 282.023438 46.472656 "/>
</g>
<g clip-path="url(#clip-4)">
<path fill="none" stroke-width="1.066978" stroke-linecap="butt" stroke-linejoin="round" stroke="rgb(89.019608%, 92.941176%, 97.647059%)" stroke-opacity="1" stroke-miterlimit="10" d="M 44.089844 138.65625 L 44.089844 5.976562 "/>
</g>
<g clip-path="url(#clip-5)">
<path fill="none" stroke-width="1.066978" stroke-linecap="butt" stroke-linejoin="round" stroke="rgb(89.019608%, 92.941176%, 97.647059%)" stroke-opacity="1" stroke-miterlimit="10" d="M 100.707031 138.65625 L 100.707031 5.976562 "/>
</g>
<g clip-path="url(#clip-6)">
<path fill="none" stroke-width="1.066978" stroke-linecap="butt" stroke-linejoin="round" stroke="rgb(89.019608%, 92.941176%, 97.647059%)" stroke-opacity="1" stroke-miterlimit="10" d="M 157.324219 138.65625 L 157.324219 5.976562 "/>
</g>
<g clip-path="url(#clip-7)">
<path fill="none" stroke-width="1.066978" stroke-linecap="butt" stroke-linejoin="round" stroke="rgb(89.019608%, 92.941176%, 97.647059%)" stroke-opacity="1" stroke-miterlimit="10" d="M 213.941406 138.65625 L 213.941406 5.976562 "/>
</g>
<g clip-path="url(#clip-8)">
<path fill="none" stroke-width="1.066978" stroke-linecap="butt" stroke-linejoin="round" stroke="rgb(89.019608%, 92.941176%, 97.647059%)" stroke-opacity="1" stroke-miterlimit="10" d="M 270.558594 138.65625 L 270.558594 5.976562 "/>
</g>
<path fill-rule="nonzero" fill="rgb(0%, 0%, 100%)" fill-opacity="0.4" stroke-width="1.163976" stroke-linecap="butt" stroke-linejoin="miter" stroke="rgb(100%, 100%, 100%)" stroke-opacity="1" stroke-miterlimit="10" d="M 41.800781 132.625 L 46.375 132.625 L 46.375 111.949219 L 41.800781 111.949219 Z M 41.800781 132.625 "/>
<path fill-rule="nonzero" fill="rgb(0%, 0%, 100%)" fill-opacity="0.4" stroke-width="1.163976" stroke-linecap="butt" stroke-linejoin="miter" stroke="rgb(100%, 100%, 100%)" stroke-opacity="1" stroke-miterlimit="10" d="M 46.378906 132.625 L 50.953125 132.625 L 50.953125 40.867188 L 46.378906 40.867188 Z M 46.378906 132.625 "/>
<path fill-rule="nonzero" fill="rgb(0%, 0%, 100%)" fill-opacity="0.4" stroke-width="1.163976" stroke-linecap="butt" stroke-linejoin="miter" stroke="rgb(100%, 100%, 100%)" stroke-opacity="1" stroke-miterlimit="10" d="M 50.953125 132.625 L 55.527344 132.625 L 55.527344 14.160156 L 50.953125 14.160156 Z M 50.953125 132.625 "/>
<path fill-rule="nonzero" fill="rgb(0%, 0%, 100%)" fill-opacity="0.4" stroke-width="1.163976" stroke-linecap="butt" stroke-linejoin="miter" stroke="rgb(100%, 100%, 100%)" stroke-opacity="1" stroke-miterlimit="10" d="M 55.527344 132.625 L 60.101562 132.625 L 60.101562 12.007812 L 55.527344 12.007812 Z M 55.527344 132.625 "/>
<path fill-rule="nonzero" fill="rgb(0%, 0%, 100%)" fill-opacity="0.4" stroke-width="1.163976" stroke-linecap="butt" stroke-linejoin="miter" stroke="rgb(100%, 100%, 100%)" stroke-opacity="1" stroke-miterlimit="10" d="M 60.105469 132.625 L 64.679688 132.625 L 64.679688 36.992188 L 60.105469 36.992188 Z M 60.105469 132.625 "/>
<path fill-rule="nonzero" fill="rgb(0%, 0%, 100%)" fill-opacity="0.4" stroke-width="1.163976" stroke-linecap="butt" stroke-linejoin="miter" stroke="rgb(100%, 100%, 100%)" stroke-opacity="1" stroke-miterlimit="10" d="M 64.679688 132.625 L 69.253906 132.625 L 69.253906 40.4375 L 64.679688 40.4375 Z M 64.679688 132.625 "/>
<path fill-rule="nonzero" fill="rgb(0%, 0%, 100%)" fill-opacity="0.4" stroke-width="1.163976" stroke-linecap="butt" stroke-linejoin="miter" stroke="rgb(100%, 100%, 100%)" stroke-opacity="1" stroke-miterlimit="10" d="M 69.257812 132.625 L 73.832031 132.625 L 73.832031 69.300781 L 69.257812 69.300781 Z M 69.257812 132.625 "/>
<path fill-rule="nonzero" fill="rgb(0%, 0%, 100%)" fill-opacity="0.4" stroke-width="1.163976" stroke-linecap="butt" stroke-linejoin="miter" stroke="rgb(100%, 100%, 100%)" stroke-opacity="1" stroke-miterlimit="10" d="M 73.832031 132.625 L 78.40625 132.625 L 78.40625 68.871094 L 73.832031 68.871094 Z M 73.832031 132.625 "/>
<path fill-rule="nonzero" fill="rgb(0%, 0%, 100%)" fill-opacity="0.4" stroke-width="1.163976" stroke-linecap="butt" stroke-linejoin="miter" stroke="rgb(100%, 100%, 100%)" stroke-opacity="1" stroke-miterlimit="10" d="M 78.40625 132.625 L 82.980469 132.625 L 82.980469 93.425781 L 78.40625 93.425781 Z M 78.40625 132.625 "/>
<path fill-rule="nonzero" fill="rgb(0%, 0%, 100%)" fill-opacity="0.4" stroke-width="1.163976" stroke-linecap="butt" stroke-linejoin="miter" stroke="rgb(100%, 100%, 100%)" stroke-opacity="1" stroke-miterlimit="10" d="M 82.984375 132.625 L 87.558594 132.625 L 87.558594 104.195312 L 82.984375 104.195312 Z M 82.984375 132.625 "/>
<path fill-rule="nonzero" fill="rgb(0%, 0%, 100%)" fill-opacity="0.4" stroke-width="1.163976" stroke-linecap="butt" stroke-linejoin="miter" stroke="rgb(100%, 100%, 100%)" stroke-opacity="1" stroke-miterlimit="10" d="M 87.558594 132.625 L 92.132812 132.625 L 92.132812 104.625 L 87.558594 104.625 Z M 87.558594 132.625 "/>
<path fill-rule="nonzero" fill="rgb(0%, 0%, 100%)" fill-opacity="0.4" stroke-width="1.163976" stroke-linecap="butt" stroke-linejoin="miter" stroke="rgb(100%, 100%, 100%)" stroke-opacity="1" stroke-miterlimit="10" d="M 92.132812 132.625 L 96.707031 132.625 L 96.707031 108.5 L 92.132812 108.5 Z M 92.132812 132.625 "/>
<path fill-rule="nonzero" fill="rgb(0%, 0%, 100%)" fill-opacity="0.4" stroke-width="1.163976" stroke-linecap="butt" stroke-linejoin="miter" stroke="rgb(100%, 100%, 100%)" stroke-opacity="1" stroke-miterlimit="10" d="M 96.710938 132.625 L 101.285156 132.625 L 101.285156 117.546875 L 96.710938 117.546875 Z M 96.710938 132.625 "/>
<path fill-rule="nonzero" fill="rgb(0%, 0%, 100%)" fill-opacity="0.4" stroke-width="1.163976" stroke-linecap="butt" stroke-linejoin="miter" stroke="rgb(100%, 100%, 100%)" stroke-opacity="1" stroke-miterlimit="10" d="M 101.285156 132.625 L 105.859375 132.625 L 105.859375 120.992188 L 101.285156 120.992188 Z M 101.285156 132.625 "/>
<path fill-rule="nonzero" fill="rgb(0%, 0%, 100%)" fill-opacity="0.4" stroke-width="1.163976" stroke-linecap="butt" stroke-linejoin="miter" stroke="rgb(100%, 100%, 100%)" stroke-opacity="1" stroke-miterlimit="10" d="M 105.859375 132.625 L 110.433594 132.625 L 110.433594 120.132812 L 105.859375 120.132812 Z M 105.859375 132.625 "/>
<path fill-rule="nonzero" fill="rgb(0%, 0%, 100%)" fill-opacity="0.4" stroke-width="1.163976" stroke-linecap="butt" stroke-linejoin="miter" stroke="rgb(100%, 100%, 100%)" stroke-opacity="1" stroke-miterlimit="10" d="M 110.4375 132.625 L 115.011719 132.625 L 115.011719 127.023438 L 110.4375 127.023438 Z M 110.4375 132.625 "/>
<path fill-rule="nonzero" fill="rgb(0%, 0%, 100%)" fill-opacity="0.4" stroke-width="1.163976" stroke-linecap="butt" stroke-linejoin="miter" stroke="rgb(100%, 100%, 100%)" stroke-opacity="1" stroke-miterlimit="10" d="M 115.011719 132.625 L 119.585938 132.625 L 119.585938 125.734375 L 115.011719 125.734375 Z M 115.011719 132.625 "/>
<path fill-rule="nonzero" fill="rgb(0%, 0%, 100%)" fill-opacity="0.4" stroke-width="1.163976" stroke-linecap="butt" stroke-linejoin="miter" stroke="rgb(100%, 100%, 100%)" stroke-opacity="1" stroke-miterlimit="10" d="M 119.589844 132.625 L 124.164062 132.625 L 124.164062 129.179688 L 119.589844 129.179688 Z M 119.589844 132.625 "/>
<path fill-rule="nonzero" fill="rgb(0%, 0%, 100%)" fill-opacity="0.4" stroke-width="1.163976" stroke-linecap="butt" stroke-linejoin="miter" stroke="rgb(100%, 100%, 100%)" stroke-opacity="1" stroke-miterlimit="10" d="M 124.164062 132.625 L 128.738281 132.625 L 128.738281 128.316406 L 124.164062 128.316406 Z M 124.164062 132.625 "/>
<path fill-rule="nonzero" fill="rgb(0%, 0%, 100%)" fill-opacity="0.4" stroke-width="1.163976" stroke-linecap="butt" stroke-linejoin="miter" stroke="rgb(100%, 100%, 100%)" stroke-opacity="1" stroke-miterlimit="10" d="M 128.738281 132.625 L 133.3125 132.625 L 133.3125 129.609375 L 128.738281 129.609375 Z M 128.738281 132.625 "/>
<path fill-rule="nonzero" fill="rgb(0%, 0%, 100%)" fill-opacity="0.4" stroke-width="1.163976" stroke-linecap="butt" stroke-linejoin="miter" stroke="rgb(100%, 100%, 100%)" stroke-opacity="1" stroke-miterlimit="10" d="M 133.316406 132.625 L 137.890625 132.625 L 137.890625 131.761719 L 133.316406 131.761719 Z M 133.316406 132.625 "/>
<path fill-rule="nonzero" fill="rgb(0%, 0%, 100%)" fill-opacity="0.4" stroke-width="1.163976" stroke-linecap="butt" stroke-linejoin="miter" stroke="rgb(100%, 100%, 100%)" stroke-opacity="1" stroke-miterlimit="10" d="M 137.890625 132.625 L 142.464844 132.625 L 142.464844 132.195312 L 137.890625 132.195312 Z M 137.890625 132.625 "/>
<path fill-rule="nonzero" fill="rgb(0%, 0%, 100%)" fill-opacity="0.4" stroke-width="1.163976" stroke-linecap="butt" stroke-linejoin="miter" stroke="rgb(100%, 100%, 100%)" stroke-opacity="1" stroke-miterlimit="10" d="M 142.464844 132.625 L 147.039062 132.625 L 147.039062 131.761719 L 142.464844 131.761719 Z M 142.464844 132.625 "/>
<path fill-rule="nonzero" fill="rgb(0%, 0%, 100%)" fill-opacity="0.4" stroke-width="1.163976" stroke-linecap="butt" stroke-linejoin="miter" stroke="rgb(100%, 100%, 100%)" stroke-opacity="1" stroke-miterlimit="10" d="M 147.042969 132.625 L 151.617188 132.625 L 151.617188 131.761719 L 147.042969 131.761719 Z M 147.042969 132.625 "/>
<path fill="none" stroke-width="1.163976" stroke-linecap="butt" stroke-linejoin="miter" stroke="rgb(100%, 100%, 100%)" stroke-opacity="1" stroke-miterlimit="10" d="M 151.617188 132.625 L 156.191406 132.625 Z M 151.617188 132.625 "/>
<path fill-rule="nonzero" fill="rgb(0%, 0%, 100%)" fill-opacity="0.4" stroke-width="1.163976" stroke-linecap="butt" stroke-linejoin="miter" stroke="rgb(100%, 100%, 100%)" stroke-opacity="1" stroke-miterlimit="10" d="M 156.191406 132.625 L 160.765625 132.625 L 160.765625 132.195312 L 156.191406 132.195312 Z M 156.191406 132.625 "/>
<path fill="none" stroke-width="1.163976" stroke-linecap="butt" stroke-linejoin="miter" stroke="rgb(100%, 100%, 100%)" stroke-opacity="1" stroke-miterlimit="10" d="M 160.769531 132.625 L 165.34375 132.625 Z M 160.769531 132.625 "/>
<path fill="none" stroke-width="1.163976" stroke-linecap="butt" stroke-linejoin="miter" stroke="rgb(100%, 100%, 100%)" stroke-opacity="1" stroke-miterlimit="10" d="M 165.34375 132.625 L 169.917969 132.625 Z M 165.34375 132.625 "/>
<path fill="none" stroke-width="1.163976" stroke-linecap="butt" stroke-linejoin="miter" stroke="rgb(100%, 100%, 100%)" stroke-opacity="1" stroke-miterlimit="10" d="M 169.917969 132.625 L 174.492188 132.625 Z M 169.917969 132.625 "/>
<path fill="none" stroke-width="1.163976" stroke-linecap="butt" stroke-linejoin="miter" stroke="rgb(100%, 100%, 100%)" stroke-opacity="1" stroke-miterlimit="10" d="M 174.496094 132.625 L 179.070312 132.625 Z M 174.496094 132.625 "/>
<path fill="none" stroke-width="1.163976" stroke-linecap="butt" stroke-linejoin="miter" stroke="rgb(100%, 100%, 100%)" stroke-opacity="1" stroke-miterlimit="10" d="M 179.070312 132.625 L 183.644531 132.625 Z M 179.070312 132.625 "/>
<path fill="none" stroke-width="1.163976" stroke-linecap="butt" stroke-linejoin="miter" stroke="rgb(100%, 100%, 100%)" stroke-opacity="1" stroke-miterlimit="10" d="M 183.648438 132.625 L 188.222656 132.625 Z M 183.648438 132.625 "/>
<path fill="none" stroke-width="1.163976" stroke-linecap="butt" stroke-linejoin="miter" stroke="rgb(100%, 100%, 100%)" stroke-opacity="1" stroke-miterlimit="10" d="M 188.222656 132.625 L 192.796875 132.625 Z M 188.222656 132.625 "/>
<path fill="none" stroke-width="1.163976" stroke-linecap="butt" stroke-linejoin="miter" stroke="rgb(100%, 100%, 100%)" stroke-opacity="1" stroke-miterlimit="10" d="M 192.796875 132.625 L 197.371094 132.625 Z M 192.796875 132.625 "/>
<path fill="none" stroke-width="1.163976" stroke-linecap="butt" stroke-linejoin="miter" stroke="rgb(100%, 100%, 100%)" stroke-opacity="1" stroke-miterlimit="10" d="M 197.375 132.625 L 201.949219 132.625 Z M 197.375 132.625 "/>
<path fill="none" stroke-width="1.163976" stroke-linecap="butt" stroke-linejoin="miter" stroke="rgb(100%, 100%, 100%)" stroke-opacity="1" stroke-miterlimit="10" d="M 201.949219 132.625 L 206.523438 132.625 Z M 201.949219 132.625 "/>
<path fill="none" stroke-width="1.163976" stroke-linecap="butt" stroke-linejoin="miter" stroke="rgb(100%, 100%, 100%)" stroke-opacity="1" stroke-miterlimit="10" d="M 206.523438 132.625 L 211.097656 132.625 Z M 206.523438 132.625 "/>
<path fill="none" stroke-width="1.163976" stroke-linecap="butt" stroke-linejoin="miter" stroke="rgb(100%, 100%, 100%)" stroke-opacity="1" stroke-miterlimit="10" d="M 211.101562 132.625 L 215.675781 132.625 Z M 211.101562 132.625 "/>
<path fill="none" stroke-width="1.163976" stroke-linecap="butt" stroke-linejoin="miter" stroke="rgb(100%, 100%, 100%)" stroke-opacity="1" stroke-miterlimit="10" d="M 215.675781 132.625 L 220.25 132.625 Z M 215.675781 132.625 "/>
<path fill="none" stroke-width="1.163976" stroke-linecap="butt" stroke-linejoin="miter" stroke="rgb(100%, 100%, 100%)" stroke-opacity="1" stroke-miterlimit="10" d="M 220.25 132.625 L 224.824219 132.625 Z M 220.25 132.625 "/>
<path fill="none" stroke-width="1.163976" stroke-linecap="butt" stroke-linejoin="miter" stroke="rgb(100%, 100%, 100%)" stroke-opacity="1" stroke-miterlimit="10" d="M 224.828125 132.625 L 229.402344 132.625 Z M 224.828125 132.625 "/>
<path fill="none" stroke-width="1.163976" stroke-linecap="butt" stroke-linejoin="miter" stroke="rgb(100%, 100%, 100%)" stroke-opacity="1" stroke-miterlimit="10" d="M 229.402344 132.625 L 233.976562 132.625 Z M 229.402344 132.625 "/>
<path fill="none" stroke-width="1.163976" stroke-linecap="butt" stroke-linejoin="miter" stroke="rgb(100%, 100%, 100%)" stroke-opacity="1" stroke-miterlimit="10" d="M 233.976562 132.625 L 238.550781 132.625 Z M 233.976562 132.625 "/>
<path fill-rule="nonzero" fill="rgb(0%, 0%, 100%)" fill-opacity="0.4" stroke-width="1.163976" stroke-linecap="butt" stroke-linejoin="miter" stroke="rgb(100%, 100%, 100%)" stroke-opacity="1" stroke-miterlimit="10" d="M 238.554688 132.625 L 243.128906 132.625 L 243.128906 132.195312 L 238.554688 132.195312 Z M 238.554688 132.625 "/>
<path fill="none" stroke-width="1.163976" stroke-linecap="butt" stroke-linejoin="miter" stroke="rgb(100%, 100%, 100%)" stroke-opacity="1" stroke-miterlimit="10" d="M 243.128906 132.625 L 247.703125 132.625 Z M 243.128906 132.625 "/>
<path fill="none" stroke-width="1.163976" stroke-linecap="butt" stroke-linejoin="miter" stroke="rgb(100%, 100%, 100%)" stroke-opacity="1" stroke-miterlimit="10" d="M 247.707031 132.625 L 252.28125 132.625 Z M 247.707031 132.625 "/>
<path fill="none" stroke-width="1.163976" stroke-linecap="butt" stroke-linejoin="miter" stroke="rgb(100%, 100%, 100%)" stroke-opacity="1" stroke-miterlimit="10" d="M 252.28125 132.625 L 256.855469 132.625 Z M 252.28125 132.625 "/>
<path fill="none" stroke-width="1.163976" stroke-linecap="butt" stroke-linejoin="miter" stroke="rgb(100%, 100%, 100%)" stroke-opacity="1" stroke-miterlimit="10" d="M 256.855469 132.625 L 261.429688 132.625 Z M 256.855469 132.625 "/>
<path fill="none" stroke-width="1.163976" stroke-linecap="butt" stroke-linejoin="miter" stroke="rgb(100%, 100%, 100%)" stroke-opacity="1" stroke-miterlimit="10" d="M 261.433594 132.625 L 266.007812 132.625 Z M 261.433594 132.625 "/>
<path fill-rule="nonzero" fill="rgb(0%, 0%, 100%)" fill-opacity="0.4" stroke-width="1.163976" stroke-linecap="butt" stroke-linejoin="miter" stroke="rgb(100%, 100%, 100%)" stroke-opacity="1" stroke-miterlimit="10" d="M 266.007812 132.625 L 270.582031 132.625 L 270.582031 132.195312 L 266.007812 132.195312 Z M 266.007812 132.625 "/>
<path fill="none" stroke-width="1.163976" stroke-linecap="butt" stroke-linejoin="round" stroke="rgb(0%, 0%, 0%)" stroke-opacity="1" stroke-miterlimit="10" d="M 44.089844 132.625 L 46.355469 97.882812 L 48.621094 65.199219 L 50.882812 40.953125 L 53.148438 24.882812 L 55.414062 15.714844 L 57.679688 12.011719 L 59.941406 12.453125 L 62.207031 15.910156 L 64.472656 21.453125 L 66.738281 28.347656 L 69 36.019531 L 71.265625 44.042969 L 73.53125 52.097656 L 75.796875 59.957031 L 78.0625 67.460938 L 80.324219 74.511719 L 82.589844 81.050781 L 84.855469 87.046875 L 87.121094 92.503906 L 89.382812 97.425781 L 91.648438 101.839844 L 93.914062 105.777344 L 96.179688 109.269531 L 98.441406 112.355469 L 100.707031 115.070312 L 102.972656 117.453125 L 105.238281 119.535156 L 107.5 121.351562 L 109.765625 122.929688 L 112.03125 124.300781 L 114.296875 125.488281 L 116.5625 126.515625 L 118.824219 127.398438 L 121.089844 128.160156 L 123.355469 128.8125 L 125.621094 129.375 L 127.882812 129.859375 L 130.148438 130.269531 L 132.414062 130.625 L 134.679688 130.925781 L 136.941406 131.183594 L 139.207031 131.402344 L 141.472656 131.585938 L 143.738281 131.746094 L 146 131.882812 L 148.265625 131.996094 L 150.53125 132.09375 L 152.796875 132.175781 L 155.0625 132.246094 L 157.324219 132.304688 L 159.589844 132.355469 L 161.855469 132.398438 L 164.121094 132.433594 L 166.382812 132.464844 L 170.914062 132.511719 L 173.179688 132.53125 L 175.441406 132.546875 L 179.972656 132.570312 L 182.238281 132.578125 L 184.5 132.585938 L 186.765625 132.59375 L 191.296875 132.601562 L 193.558594 132.605469 L 198.089844 132.613281 L 200.355469 132.613281 L 202.621094 132.617188 L 204.882812 132.617188 L 207.148438 132.621094 L 213.941406 132.621094 L 216.207031 132.625 L 268.296875 132.625 "/>
<path fill="none" stroke-width="1.066978" stroke-linecap="butt" stroke-linejoin="round" stroke="rgb(81.176471%, 87.843137%, 94.901961%)" stroke-opacity="1" stroke-miterlimit="10" d="M 30.363281 138.65625 L 30.363281 5.976562 "/>
<g fill="rgb(39.215686%, 45.882353%, 52.941176%)" fill-opacity="1">
<use xlink:href="#glyph-0-0" x="16.65625" y="136.5625"/>
</g>
<g fill="rgb(39.215686%, 45.882353%, 52.941176%)" fill-opacity="1">
<use xlink:href="#glyph-0-1" x="5.980469" y="93.484375"/>
<use xlink:href="#glyph-0-0" x="11.319531" y="93.484375"/>
<use xlink:href="#glyph-0-0" x="16.658594" y="93.484375"/>
</g>
<g fill="rgb(39.215686%, 45.882353%, 52.941176%)" fill-opacity="1">
<use xlink:href="#glyph-0-2" x="5.980469" y="50.40625"/>
<use xlink:href="#glyph-0-0" x="11.319531" y="50.40625"/>
<use xlink:href="#glyph-0-0" x="16.658594" y="50.40625"/>
</g>
<path fill="none" stroke-width="0.853583" stroke-linecap="butt" stroke-linejoin="round" stroke="rgb(81.176471%, 87.843137%, 94.901961%)" stroke-opacity="1" stroke-miterlimit="10" d="M 27.375 132.625 L 30.363281 132.625 "/>
<path fill="none" stroke-width="0.853583" stroke-linecap="butt" stroke-linejoin="round" stroke="rgb(81.176471%, 87.843137%, 94.901961%)" stroke-opacity="1" stroke-miterlimit="10" d="M 27.375 89.546875 L 30.363281 89.546875 "/>
<path fill="none" stroke-width="0.853583" stroke-linecap="butt" stroke-linejoin="round" stroke="rgb(81.176471%, 87.843137%, 94.901961%)" stroke-opacity="1" stroke-miterlimit="10" d="M 27.375 46.472656 L 30.363281 46.472656 "/>
<path fill="none" stroke-width="1.066978" stroke-linecap="butt" stroke-linejoin="round" stroke="rgb(81.176471%, 87.843137%, 94.901961%)" stroke-opacity="1" stroke-miterlimit="10" d="M 30.363281 138.65625 L 282.023438 138.65625 "/>
<path fill="none" stroke-width="0.853583" stroke-linecap="butt" stroke-linejoin="round" stroke="rgb(81.176471%, 87.843137%, 94.901961%)" stroke-opacity="1" stroke-miterlimit="10" d="M 44.089844 141.644531 L 44.089844 138.65625 "/>
<path fill="none" stroke-width="0.853583" stroke-linecap="butt" stroke-linejoin="round" stroke="rgb(81.176471%, 87.843137%, 94.901961%)" stroke-opacity="1" stroke-miterlimit="10" d="M 100.707031 141.644531 L 100.707031 138.65625 "/>
<path fill="none" stroke-width="0.853583" stroke-linecap="butt" stroke-linejoin="round" stroke="rgb(81.176471%, 87.843137%, 94.901961%)" stroke-opacity="1" stroke-miterlimit="10" d="M 157.324219 141.644531 L 157.324219 138.65625 "/>
<path fill="none" stroke-width="0.853583" stroke-linecap="butt" stroke-linejoin="round" stroke="rgb(81.176471%, 87.843137%, 94.901961%)" stroke-opacity="1" stroke-miterlimit="10" d="M 213.941406 141.644531 L 213.941406 138.65625 "/>
<path fill="none" stroke-width="0.853583" stroke-linecap="butt" stroke-linejoin="round" stroke="rgb(81.176471%, 87.843137%, 94.901961%)" stroke-opacity="1" stroke-miterlimit="10" d="M 270.558594 141.644531 L 270.558594 138.65625 "/>
<g fill="rgb(39.215686%, 45.882353%, 52.941176%)" fill-opacity="1">
<use xlink:href="#glyph-0-0" x="41.421875" y="154.898438"/>
</g>
<g fill="rgb(39.215686%, 45.882353%, 52.941176%)" fill-opacity="1">
<use xlink:href="#glyph-0-2" x="95.367188" y="154.898438"/>
<use xlink:href="#glyph-0-3" x="100.70625" y="154.898438"/>
</g>
<g fill="rgb(39.215686%, 45.882353%, 52.941176%)" fill-opacity="1">
<use xlink:href="#glyph-0-3" x="151.984375" y="154.898438"/>
<use xlink:href="#glyph-0-0" x="157.323438" y="154.898438"/>
</g>
<g fill="rgb(39.215686%, 45.882353%, 52.941176%)" fill-opacity="1">
<use xlink:href="#glyph-0-4" x="208.601562" y="154.898438"/>
<use xlink:href="#glyph-0-3" x="213.940625" y="154.898438"/>
</g>
<g fill="rgb(39.215686%, 45.882353%, 52.941176%)" fill-opacity="1">
<use xlink:href="#glyph-0-1" x="262.550781" y="154.898438"/>
<use xlink:href="#glyph-0-0" x="267.889844" y="154.898438"/>
<use xlink:href="#glyph-0-0" x="273.228906" y="154.898438"/>
</g>
<g fill="rgb(25.882353%, 33.72549%, 41.960784%)" fill-opacity="1">
<use xlink:href="#glyph-1-0" x="116.84375" y="170.496094"/>
<use xlink:href="#glyph-1-1" x="124.847656" y="170.496094"/>
<use xlink:href="#glyph-1-2" x="131.521484" y="170.496094"/>
<use xlink:href="#glyph-1-3" x="135.517578" y="170.496094"/>
<use xlink:href="#glyph-1-4" x="138.183594" y="170.496094"/>
<use xlink:href="#glyph-1-5" x="144.857422" y="170.496094"/>
<use xlink:href="#glyph-1-6" x="147.523438" y="170.496094"/>
<use xlink:href="#glyph-1-3" x="150.857422" y="170.496094"/>
<use xlink:href="#glyph-1-7" x="153.523438" y="170.496094"/>
<use xlink:href="#glyph-1-8" x="160.197266" y="170.496094"/>
<use xlink:href="#glyph-1-1" x="163.53125" y="170.496094"/>
<use xlink:href="#glyph-1-2" x="170.205078" y="170.496094"/>
<use xlink:href="#glyph-1-9" x="174.201172" y="170.496094"/>
<use xlink:href="#glyph-1-4" x="180.201172" y="170.496094"/>
<use xlink:href="#glyph-1-5" x="186.875" y="170.496094"/>
<use xlink:href="#glyph-1-10" x="189.541016" y="170.496094"/>
</g>
</svg>
