<svg xmlns="http://www.w3.org/2000/svg" xmlns:xlink="http://www.w3.org/1999/xlink" width="241.9" height="164.3"><defs><linearGradient id="d"><stop offset="0" style="stop-color:#ccc;stop-opacity:1"/><stop offset="1" style="stop-color:#ccc;stop-opacity:0"/></linearGradient><linearGradient id="c"><stop offset="0" style="stop-color:#595959;stop-opacity:1"/><stop offset="1" style="stop-color:#cbcbcb;stop-opacity:.99"/></linearGradient><linearGradient xlink:href="#a" id="e" x1="425.3" x2="425.3" y1="410.5" y2="363.5" gradientTransform="rotate(.18 -2735.514 6549.68)" gradientUnits="userSpaceOnUse"/><linearGradient id="a"><stop offset="0" style="stop-color:black;stop-opacity:1"/><stop offset="1" style="stop-color:black;stop-opacity:0"/></linearGradient><linearGradient xlink:href="#b" id="g" x1="412.8" x2="414.9" y1="772.1" y2="244" gradientUnits="userSpaceOnUse"/><linearGradient id="b"><stop offset="0" style="stop-color:#b5b5b5;stop-opacity:1"/><stop offset=".966" style="stop-color:#dadada;stop-opacity:1"/><stop offset="1" style="stop-color:white;stop-opacity:1"/></linearGradient><linearGradient xlink:href="#a" id="h" x1="456.6" x2="456.6" y1="225.6" y2="374.8" gradientTransform="rotate(.18 -2735.514 6549.68)" gradientUnits="userSpaceOnUse"/><linearGradient xlink:href="#c" id="m" x1="-380.2" x2="-193.3" y1="390.6" y2="390.6" gradientTransform="rotate(77.2 59.394 190.409)scale(.12288)" gradientUnits="userSpaceOnUse"/><linearGradient xlink:href="#d" id="n" x1="686.1" x2="706.7" y1="-368.3" y2="-368.3" gradientTransform="matrix(.55 0 0 .55 -278.813 44.401)" gradientUnits="userSpaceOnUse"/><filter id="f"><feGaussianBlur stdDeviation="1.259"/></filter><filter id="i"><feGaussianBlur stdDeviation="3.453"/></filter><filter id="j"><feGaussianBlur stdDeviation="1.702"/></filter><filter id="k"><feGaussianBlur stdDeviation="2.061"/></filter><filter id="l"><feGaussianBlur stdDeviation="1.883"/></filter><marker id="p" orient="auto" style="overflow:visible"><path d="m0 0 5-5-17.5 5L5 5Z" style="fill:#8f5902;stroke:#8f5902;stroke-width:1pt" transform="translate(10)scale(.8)"/></marker><marker id="q" orient="auto" style="overflow:visible"><path d="m0 0 5-5-17.5 5L5 5Z" style="fill:#8f5902;stroke:#8f5902;stroke-width:1pt" transform="translate(-10)scale(-.8)"/></marker><marker id="o" orient="auto" style="overflow:visible"><path d="m0 0 5-5-17.5 5L5 5Z" style="fill:#005c94;stroke:#005c94;stroke-width:1pt" transform="translate(-10)scale(-.8)"/></marker><marker id="r" orient="auto" style="overflow:visible"><path d="M8.7 4-2.2 0 8.7-4C7-1.6 7 1.6 8.7 4Z" style="fill:#204a87;stroke:#204a87;stroke-width:.63;stroke-linejoin:round;stroke-opacity:1;fill-opacity:1" transform="translate(1.1)scale(1.1)"/></marker></defs><g transform="rotate(90.334 24.24 230.375)scale(-.28902 .28902)"><path d="m455.4 347.9 1.9 7.3h2.4l2-7.5m-20 .1 1.9 7.3h2.4l2-7.5" style="color:#000;overflow:visible;fill:#616161;stroke:#000;stroke-width:2"/><path d="m427.9 347.8 1.9 7.3h2.4l2-7.5" style="color:#000;overflow:visible;fill:#777;stroke:#000;stroke-width:2"/><path d="M408 384.7c-4-4.6-4.3-11.3-.8-16.2" style="color:#000;overflow:visible;fill:#616161;stroke:#000;stroke-width:2"/><path d="m423.4 347.8 45.5.1-.1-.1c4.8-2.4-.1-4-3.9-5.8-12.9-.1-25.7 0-37.8 1.1-3.2.7-7.7 2.6-3.7 4.6z" style="color:#000;overflow:visible;fill:#787878;stroke:#000;stroke-width:2"/><path d="m421.1 352.4 1-2.4h4.3l2.6 7.7 5-.1 2.1-7.4 4.5-.1 2.5 7.7h4.7l2.2-7.5h4.4l2.3 7.4 5.4-.1 2.1-7.4 4.1-.1 2.6 7.9-.2 36.7-2.5 6.1-4.7.2-1.6-6-5.4-.1-2.2 6-4.6.1-1.8-6.2-5.8.1-1.7 6.1h-4.8l-1.6-6.2-5.7.1-1.8 6-4.2-.2-1.2-6.3.3-41.9z" style="color:#000;overflow:visible;fill:#b4b4b4;stroke-width:2"/><path d="m421.1 352.4 1-2.4h4.3l2.6 7.7 5-.1 2.1-7.4 4.5-.1 2.5 7.7h4.7l2.2-7.5h4.4l2.3 7.4 5.4-.1 2.1-7.4 4.1-.1 2.6 7.9-.2 36.7-2.5 6.1-4.7.2-1.6-6-5.4-.1-2.2 6-4.6.1-1.8-6.2-5.8.1-1.7 6.1h-4.8l-1.6-6.2-5.7.1-1.8 6-4.2-.2-1.2-6.3.3-41.9z" style="color:#000;overflow:visible;fill:url(#e);stroke-width:2"/><path d="m400.3 347.7 1.9 7.3h2.4l.6-2.2 1.4-5.1-6.3.1zm-13.7 0 1.9 7.3h2.4l2-7.5m-20.1.2 1.9 7.3h2.4l2-7.5" style="color:#000;overflow:visible;fill:#616161;stroke:#000;stroke-width:2"/><path d="m452.5 319.9-4.8-5.9v-6l1.5-.9.2-60.3c-13.3 1.8-23.4 7.8-30 19l-32.1 53.8-14.7 19.8-3.6 8.2 35.3.1" style="fill:#c8c8c8;stroke:#000;stroke-width:4.13"/><path d="M407.3 251.6c-13.2 2.5-22.1 13.5-27.6 24.9-13.6 22.7-26.3 46.2-42.8 66.9 6.3 1.4 13.9-.7 20.6.5 11 1.4 18.9-7.7 28.2-11.9 7.5-4.4 15.1-8.7 22.6-13.1-3.8-4.4-2.9-10.4-1.3-15.4.9-17.3.3-35 .3-52z" style="fill:none;filter:url(#f);stroke:#fff;stroke-width:9.45" transform="translate(38)"/><path d="m523.2 245-.2 63.8c-.7 6.6-10.1 9.5-19.7 9.2l-103.4-.3c5.5 37.2 17.3 80.2-4.9 125.7L260.3 719.5c-3 6.1-5.2 11.9-5.2 18.7-.1 20.1 16.2 36.5 36.3 36.6 14.8 0 27.9-8.6 33.3-21.4l128.2-302.7c19.9-47 66.3-65.5 101-96.9 23-20.8 3.4-98.4-30.7-108.7zm-59.6 98.8c3.9 0 7 3.2 7 7.1l-.1 47.2c0 3.9-3.1 7-7 7h-35.4c-3.9 0-7-3.2-7-7.1l.1-47.2c0-3.9 3.1-7 7-7l35.4.1zM293 708.2c15.5 0 28 12.7 28 28.2-.1 15.5-12.7 28.1-28.2 28s-28.1-12.7-28-28.2 12.7-28 28.2-28z" style="fill:url(#g);stroke:#000;stroke-width:4.13"/><path d="M400.1 319.7h-12.6M373 339l29.7.1" style="fill:none;stroke:#000;stroke-width:1px"/><path d="m434.9 162.9-13.6-50.8h-4.7l-2.1 7.7" style="fill:none;stroke:#000;stroke-width:1px" transform="rotate(.18 -75587.32 10788.953)"/><path d="m416.6 112.1 13.6 50.8h5l1.6-6.1" style="fill:none;stroke:#000;stroke-width:1px" transform="rotate(.18 -75587.32 10788.953)"/><path d="m447.8 307.4-20.5 11.8" style="fill:none;stroke:#000;stroke-width:1px"/><path d="M456.5 357.7h9.3m-36.9-.1h9.2m4.9 0h8.7m-30-.1h2.3m42.4 37.2h3.9m-31.6-.1h9.1m-23.2-.1h9.3m18.9.1h8.8" style="color:#000;overflow:visible;fill:#b4b4b4;stroke:#000;stroke-width:2"/><path d="m434.9 162.9-13.6-50.8h-4.7l-2.1 7.7" style="fill:none;stroke:#000;stroke-width:1px" transform="rotate(.18 -75578.22 6395.946)"/><path d="m416.6 112.1 13.6 50.8h5l1.6-6.1" style="fill:none;stroke:#000;stroke-width:1px" transform="rotate(.18 -75578.22 6395.946)"/><path d="m434.9 162.9-13.6-50.8h-4.7l-.6 2.4" style="fill:none;stroke:#000;stroke-width:1px" transform="rotate(.18 -75572.44 1923.231)"/><path d="m416.6 112.1 13.6 50.8h5l1.6-6.1" style="fill:none;stroke:#000;stroke-width:1px" transform="rotate(.18 -75572.44 1923.231)"/><path d="m434.9 162.9-5.2-19.3m.1 17.8.4 1.6h5l1.6-6.1" style="fill:none;stroke:#000;stroke-width:1px" transform="rotate(.18 -75566.598 -2509.675)"/><path d="m423.5 120.5-2.2-8.4h-4.7l-2.1 7.7m2.1-7.7 7 26.1" style="fill:none;stroke:#000;stroke-width:1px" transform="rotate(.18 -75593.1 15261.828)"/><path d="M405.4 350.7c4 17.5 3.4 35 2.1 52.5H421c.1-17.5-.7-30.5-.2-50l-2.4-2.5zm64.8 52.7 21.3.1c19.3-15 47.7-34.5 63.7-49.8 4.3-4.1 5.3-9.8 6.8-13.4-3.1 5.7-10.2 10.6-16.5 10.8l-72.2-.2-2.6 2.3-.4 50.2z" style="fill:url(#h);stroke-width:1px"/><path d="m387.3 319.7 12.6.1 3.1 19.4-30-.1 14.3-19.3z" style="fill:#000;fill-opacity:.28;stroke-width:1px"/><path d="m447.8 307.7-21.2 12.1 25.8.1-4.7-5.8z" style="color:#000;overflow:visible;fill:#000;fill-opacity:.28;stroke-width:1px"/><path d="m372.8 341 30.3.1" style="fill:none;stroke:#000;stroke-width:1px"/><rect width="54.7" height="75.8" x="419.1" y="336.4" rx="13.3" ry="11.4" style="color:#000;overflow:visible;fill:none;stroke:#000;stroke-width:1" transform="rotate(.104)"/><path d="M155 254.9v24.5m-3.6-24.5v20.8m-3.7-20.8v20.8m-3.6-20.8v20.8m-3.7-20.8v20.8m-3.6-20.8v27.9m-3.7-27.9v20.8m-3.6-20.8v20.8m-3.7-20.8v20.8m-3.6-20.8v20.8m-3.7-20.8v24.5m-3.6-24.5v20.8m-3.7-20.8v20.8m-3.6-20.8v20.8m-3.7-20.8v20.8m-3.6-20.8v28.4m-3.7-28.4v20.8M93 254.9v20.8m-3.7-20.8v20.8m-3.6-20.8v20.8M82 254.9v24.5m-3.6-24.5v20.8m-3.7-21.1v21m-3.6-21.2v21.2m-3.7-20.8v20.8m-3.6-21.2v29" style="fill:none;stroke:#000;stroke-width:1.41" transform="matrix(-1 0 0 .50126 563.11 193.04)"/><path d="m346.5 253-29.7-16.5 29.1-17.5Z" style="color:#000;overflow:visible;fill:none;stroke:#000;stroke-width:2.05;stroke-linecap:square" transform="rotate(30.967 -208.114 805.594)scale(.2435)"/><path d="m346.5 253-29.7-16.5 29.1-17.5Z" style="color:#000;overflow:visible;fill:none;stroke:#000;stroke-width:2.05;stroke-linecap:square" transform="matrix(.2088 -.1253 -.1253 -.2088 458.75 432.85)"/><path d="M403.2 446.4c-13.9 28.3-102 214.2-105.1 220.2-15.2 30.3 28.3 57.6 47.5 14.2s81-191 91.9-219.2c11.6-29.9-20.5-43.4-34.3-15.2z" style="fill:none;stroke:#000;stroke-width:3.13"/><path d="m513.2 245-.2 63.8c-.7 6.6-10.1 9.5-19.7 9.2l-103.4-.3c5.5 37.2 17.3 80.2-4.9 125.7L250.3 719.5c-3 6.1-5.2 11.9-5.2 18.7-.1 20.1 16.2 36.5 36.3 36.6 14.8 0 27.9-8.6 33.3-21.4l128.2-302.7c19.9-47 66.3-65.5 101-96.9 23-20.8 3.4-98.4-30.7-108.7zm-59.6 98.8c3.9 0 7 3.2 7 7.1l-.1 47.2c0 3.9-3.1 7-7 7h-35.4c-3.9 0-7-3.2-7-7.1l.1-47.2c0-3.9 3.1-7 7-7l35.4.1zM283 708.2c15.5 0 28 12.7 28 28.2-.1 15.5-12.7 28.1-28.2 28s-28.1-12.7-28-28.2c0-15.5 12.7-28 28.2-28z" style="fill:none;filter:url(#i);stroke:#000;stroke-width:2" transform="translate(10)"/><path d="M106.4 291.6c11.8-.3 21.6 12 14.3 30.7-10.9 28.1-72.8 175.7-92 219.2-6.5 14.8-15.9 21.4-24.8 22.4 7.8-2.2 15.6-8.9 21.3-21.7 19.2-43.5 81-191 91.9-219.2 7.5-19.2-3.1-31.7-15.3-30.6 1.6-.5 3.1-.8 4.6-.8" style="opacity:.43;fill:#000;filter:url(#j);stroke:#000;stroke-width:1px" transform="translate(316.64 140.57)"/><path d="M509 308.8c-1.1 10.2-13.1 13.4-21.9 13.3l-100.5-.3c6.3 36.5 13.2 75.7-.9 111.3-10.1 25.5-24 49.2-35.3 74.2-35.9 74.1-72.7 147.7-107.9 222.2-6.6 18.9 9.1 41.1 28.9 41.5 13.7 1.1 27.8-7.8 32.5-20.5-7.5 15.8-28.8 23.2-44.1 14.4-16.3-8.5-22.3-31.7-11.3-46.6 10-15.2 33.6-18.8 47.2-6.2 9.4 8 13.8 21.6 10.1 33.6C349 644.3 391.3 542.5 435 441.4c18.1-35.5 54.2-55.7 84.7-79.2 9.6-6.8 19.9-14.9 21.2-27.5 3.5-22.4-3.1-45.6-14.2-65.2-4.4-7.2-10.1-13.9-17.5-18.1-.1 19.2-.2 38.4-.2 57.6zm-77.5 30.8c7.2.9 16.2-2 22 3.4 6.3 8 1.7 19 3 28.3-.2 10.5 1.1 21.3-1.1 31.6-4.4 8.8-15.8 6.1-23.7 6-9.1-.4-19.1 2-27.8-1.7-8.2-6-4-17.5-4.8-26 .4-11.8-1.5-24.1 1.2-35.6 3.7-7.7 13.1-5.8 20-5.9 3.7 0 7.4-.1 11.1-.2z" style="fill:none;filter:url(#k);stroke:#fefefe;stroke-width:9.45" transform="translate(18)"/><path d="m428.5 319.9-4.8-5.9v-6l1.5-.9.2-60.3c-13.3 1.8-23.4 7.8-30 19l-32.1 53.8-14.7 19.8-3.6 8.2 35.3.1" style="fill:none;filter:url(#l);stroke:#000;stroke-width:2" transform="translate(24)"/></g><path d="m171.3 77-6-10.4 6-10.4h12l6 10.4-6 10.4z" style="color:#000;overflow:visible;fill:url(#m);stroke-width:.61;stroke-linecap:round"/><circle cx="104.2" cy="-158.1" r="5.229" style="color:#000;overflow:visible;fill:none;stroke:url(#n);stroke-width:.86;stroke-linecap:round" transform="rotate(77.2)"/><path d="M8.7 20 44 103.4" style="marker-end:url(#o);fill:#005c94;stroke:#005c94;stroke-width:1.82"/><path d="m40.1 94.4 29.5 69.8" style="fill:#8f5902;stroke:#8f5902;stroke-width:.67"/><path d="m173.3 57.3 22.7 53.6" style="fill:#8f5902;stroke:#8f5902;stroke-width:.51"/><path d="M191.1 102.5 66.4 155.2" style="marker-start:url(#p);marker-end:url(#q);fill:#8f5902;stroke:#8f5902;stroke-width:.81"/><text x="4.5" y="60.1" style="font-family:Verdana;font-size:20.6px;color:#000;overflow:visible;fill:#005c94;stroke-width:.55px" transform="rotate(-21.926)">Force</text><text x="34.9" y="164.5" style="font-family:Verdana;font-size:15.7px;color:#000;overflow:visible;fill:#8f5902;stroke-width:.55px" transform="rotate(-22.807)">Distance</text><path d="m59.3 140.1 15.5-6.6m-.1-.1 6.6 15.5" style="fill:#009100;stroke:#009100;stroke-width:1.1"/><text x="56.8" y="150.6" style="font-family:Verdana;text-align:end;text-anchor:end;font-size:12px;color:#000;overflow:visible;fill:#009100;stroke-width:.55px">Right</text><path d="M139.1 47.3a42.9 42.9 0 0 1 37.1-21.7 42.9 42.9 0 0 1 37.3 21.3 42.9 42.9 0 0 1 .3 43" style="color:#000;marker-start:url(#r);overflow:visible;fill:none;stroke:#204a87;stroke-width:1.41;stroke-miterlimit:4;stroke-dasharray:none"/><text x="121.6" y="19.4" style="font-family:Verdana;font-weight:700;font-size:26.7px;color:#000;overflow:visible;fill:#204a87;stroke-width:.55px" transform="scale(1.0001 .9999)">Moment</text><text x="58.6" y="161.4" style="font-family:Verdana;text-align:end;text-anchor:end;font-size:12px;color:#000;overflow:visible;fill:#009100;stroke-width:.55px">Angle</text></svg>