<svg xmlns="http://www.w3.org/2000/svg" xmlns:xlink="http://www.w3.org/1999/xlink" width="650" height="250" viewBox="0 0 487.5 187.5"><g data-name="Artifact"><path fill="#3b5fb5" fill-rule="evenodd" d="M17.221 61.11h453.05V4.469H17.221Z"/><path fill="#3b5fb5" fill-opacity=".502" fill-rule="evenodd" d="M415.979 101.75h54.291V61.105h-54.291Zm0 40.65h54.291v-40.645h-54.291Z"/><path fill="#3b5fb5" fill-opacity=".502" fill-rule="evenodd" d="M415.979 183.04h54.291v-40.645h-54.291Z"/><path fill="none" stroke="#3b5fb5" stroke-linejoin="round" stroke-width=".5" d="M415.979 60.86v122.43M16.971 61.11h399.008"/><path fill="none" stroke="#fff" stroke-linejoin="round" stroke-width=".5" d="M415.979 61.11h54.55"/><path fill="none" stroke="#3b5fb5" stroke-linejoin="round" stroke-width=".5" d="M16.971 101.75h399.008"/><path fill="none" stroke="#fff" stroke-linejoin="round" stroke-width=".5" d="M415.979 101.75h54.55"/><path fill="none" stroke="#3b5fb5" stroke-linejoin="round" stroke-width=".5" d="M16.971 142.4h399.008"/><path fill="none" stroke="#fff" stroke-linejoin="round" stroke-width=".5" d="M415.979 142.4h54.55"/><path fill="none" stroke="#3b5fb5" stroke-linejoin="round" stroke-width=".5" d="M17.221 4.21v179.08M470.279 4.21v179.08M16.971 4.46h453.558M16.971 183.04h399.008"/><path fill="none" stroke="#fff" stroke-linejoin="round" stroke-width=".5" d="M415.979 183.04h54.55"/></g><g data-name="Span" transform="translate(-54.101 -411.83)"><clipPath id="a"><path fill-rule="evenodd" d="M0 841.92h595.2V0H0Z"/></clipPath><g fill="#fff" clip-path="url(#a)"><path d="M245.77 442.246h-2.964v2.064h2.724v1.536h-2.724v3.264h-1.896v-8.4h4.86zm2.138-.096a1.08 1.08 0 0 1-.768-.264.9.9 0 0 1-.3-.696c0-.276.096-.504.3-.684a1.12 1.12 0 0 1 .768-.264 1.1 1.1 0 0 1 .768.264.86.86 0 0 1 .3.684.89.89 0 0 1-.3.684 1.08 1.08 0 0 1-.768.276m.912 6.96h-1.848v-6h1.848zm7.306 0h-1.848v-3.336c.012-.924-.336-1.392-.996-1.392a.98.98 0 0 0-.792.36 1.4 1.4 0 0 0-.312.96v3.408h-1.848v-6h1.848v.96h.024c.444-.744 1.08-1.104 1.92-1.104 1.344 0 2.004.816 2.004 2.472zm6.394.002h-1.752v-.864h-.024a1.96 1.96 0 0 1-1.788 1.008 1.88 1.88 0 0 1-1.368-.492 1.8 1.8 0 0 1-.504-1.32c0-1.164.684-1.836 2.064-2.028l1.632-.216c0-.648-.36-.984-1.056-.984a3.64 3.64 0 0 0-2.04.648v-1.392a5.6 5.6 0 0 1 2.28-.504c1.716 0 2.568.84 2.568 2.556v3.588m-1.752-2.436v-.42l-1.08.156c-.612.072-.924.348-.924.804a.74.74 0 0 0 .228.528.86.86 0 0 0 .6.204c.348 0 .636-.12.84-.36a1.32 1.32 0 0 0 .336-.912m5.053 2.434h-1.848v-8.88h1.848zm12.614 0h-1.92l-3.444-5.28a8 8 0 0 1-.42-.696h-.036c.036.3.048.744.048 1.356v4.62h-1.788v-8.4h2.04l3.336 5.112.42.684h.024a9 9 0 0 1-.06-1.152v-4.644h1.8zm3.816 0h-1.896v-8.4h1.896zm7.861-6.864h-2.4v6.864h-1.896v-6.864h-2.388v-1.536h6.684zm7.713 6.864h-2.04l-.6-1.872h-3l-.6 1.872h-2.04l3.06-8.4h2.244zm-3.084-3.324-.9-2.82a3.7 3.7 0 0 1-.144-.756h-.048a3.2 3.2 0 0 1-.144.72l-.912 2.868h2.16zm10.887 2.75a6.05 6.05 0 0 1-3.06.72 4.44 4.44 0 0 1-3.204-1.116 4.1 4.1 0 0 1-1.164-3.096c0-1.32.42-2.4 1.272-3.24.852-.816 1.992-1.236 3.408-1.236.888 0 1.68.12 2.352.36v1.8a4.7 4.7 0 0 0-2.376-.564 2.56 2.56 0 0 0-1.92.768 2.8 2.8 0 0 0-.744 2.04c0 .864.216 1.524.66 2.004a2.35 2.35 0 0 0 1.8.708c.456 0 .816-.072 1.08-.192v-1.644h-1.692v-1.512h3.576v4.2Zm10.548.576h-1.848v-.84h-.024a2.08 2.08 0 0 1-1.86.984 2.28 2.28 0 0 1-1.8-.792 3.3 3.3 0 0 1-.696-2.208c0-1.008.252-1.8.756-2.4s1.164-.888 1.98-.888c.768 0 1.32.276 1.62.828h.024v-3.564h1.848zm-1.812-2.916v-.456c0-.396-.12-.72-.348-.972a1.13 1.13 0 0 0-.876-.384 1.12 1.12 0 0 0-.96.48 2.23 2.23 0 0 0-.36 1.32c0 .54.12.936.348 1.224a1.1 1.1 0 0 0 .924.432c.372 0 .672-.156.912-.456s.36-.696.36-1.2zm8.76.444h-3.912c.06.864.6 1.296 1.644 1.296.66 0 1.236-.156 1.74-.48v1.368a4.6 4.6 0 0 1-2.16.432 3.05 3.05 0 0 1-2.256-.804 3.06 3.06 0 0 1-.804-2.244c0-.996.288-1.8.864-2.376a2.88 2.88 0 0 1 2.136-.864c.876 0 1.56.252 2.028.768a3 3 0 0 1 .72 2.112zm-1.716-1.14c0-.864-.348-1.284-1.044-1.284a1 1 0 0 0-.768.36 1.7 1.7 0 0 0-.396.924Zm7.368 3.396a3.66 3.66 0 0 1-1.812.36 3.06 3.06 0 0 1-2.256-.84 2.9 2.9 0 0 1-.84-2.16c0-1.02.3-1.824.912-2.4.612-.6 1.44-.888 2.46-.888a3.14 3.14 0 0 1 1.536.276v1.56a2.1 2.1 0 0 0-1.308-.408 1.72 1.72 0 0 0-1.26.456 1.74 1.74 0 0 0-.456 1.284c0 .528.144.948.444 1.248a1.64 1.64 0 0 0 1.224.456c.456 0 .912-.144 1.356-.432zm2.148-6.746a1.08 1.08 0 0 1-.768-.264.9.9 0 0 1-.3-.696c0-.276.096-.504.3-.684a1.12 1.12 0 0 1 .768-.264 1.1 1.1 0 0 1 .768.264.86.86 0 0 1 .3.684.89.89 0 0 1-.3.684 1.08 1.08 0 0 1-.768.276m.912 6.96H330v-6h1.848zm1.117-.154v-1.5a4 4 0 0 0 .912.408 3 3 0 0 0 .852.132c.336 0 .6-.048.78-.132.192-.096.288-.24.288-.408a.45.45 0 0 0-.12-.3 1.2 1.2 0 0 0-.348-.204 4 4 0 0 0-.432-.156 5.4 5.4 0 0 1-1.104-.444 2 2 0 0 1-.456-.36 1.5 1.5 0 0 1-.276-.48 2 2 0 0 1-.096-.636c0-.336.072-.624.216-.876a1.8 1.8 0 0 1 .588-.588c.24-.156.516-.264.84-.336a4.3 4.3 0 0 1 1.8-.048 6 6 0 0 1 .804.18v1.428a3.06 3.06 0 0 0-1.536-.42 1.6 1.6 0 0 0-.648.12.5.5 0 0 0-.18.168.41.41 0 0 0 .036.504 1 1 0 0 0 .276.204 3 3 0 0 0 .36.156 13 13 0 0 1 1.104.408 2 2 0 0 1 .504.36 1.4 1.4 0 0 1 .324.48 1.7 1.7 0 0 1 .12.66 1.72 1.72 0 0 1-.852 1.524 2.8 2.8 0 0 1-.888.348 5.36 5.36 0 0 1-2.88-.192Zm6.611-6.806a1.08 1.08 0 0 1-.768-.264.9.9 0 0 1-.3-.696c0-.276.096-.504.3-.684a1.12 1.12 0 0 1 .768-.264 1.1 1.1 0 0 1 .768.264.86.86 0 0 1 .3.684.89.89 0 0 1-.3.684 1.08 1.08 0 0 1-.768.276m.912 6.96h-1.848v-6h1.848zm4.368.146a3.24 3.24 0 0 1-2.364-.84 3.06 3.06 0 0 1-.852-2.28c0-.996.3-1.776.888-2.328a3.36 3.36 0 0 1 2.4-.84 3.18 3.18 0 0 1 2.352.84 2.98 2.98 0 0 1 .852 2.208 3.17 3.17 0 0 1-.876 2.376 3.24 3.24 0 0 1-2.4.864m.048-4.872a1.24 1.24 0 0 0-1.02.432 2 2 0 0 0-.36 1.284c0 1.152.456 1.728 1.392 1.728.888 0 1.32-.6 1.32-1.776 0-1.128-.432-1.68-1.332-1.68zm10.222 4.726h-1.848v-3.336c.012-.924-.336-1.392-.996-1.392a.98.98 0 0 0-.792.36 1.4 1.4 0 0 0-.312.96v3.408h-1.848v-6h1.848v.96h.024c.444-.744 1.08-1.104 1.92-1.104 1.344 0 2.004.816 2.004 2.472z"/></g></g><g data-name="Span" transform="translate(-54.101 -411.83)"><clipPath id="b"><path fill-rule="evenodd" d="M0 841.92h595.2V0H0Z"/></clipPath><g clip-path="url(#b)"><path d="M105.598 496.68h-.9l-3.24-5.022a2 2 0 0 1-.216-.396h-.018a6.5 6.5 0 0 1 .036.864v4.554h-.738v-6.3h.954l3.159 4.95a6 6 0 0 1 .252.405h.018a7 7 0 0 1-.045-.927v-4.428h.738zm2.394 0h-.738v-6.3h.738zm5.384-5.634h-1.818v5.634h-.738v-5.634h-1.818v-.666h4.374zm5.821 5.634h-.81l-.684-1.764h-2.664l-.63 1.764h-.819l2.421-6.3h.765zm-1.728-2.43-.99-2.682a2.6 2.6 0 0 1-.09-.423h-.018a2.4 2.4 0 0 1-.108.423l-.981 2.682Zm7.327 1.995a4.2 4.2 0 0 1-2.124.54c-.9 0-1.62-.288-2.187-.873a3.2 3.2 0 0 1-.819-2.304c0-.963.306-1.773.927-2.394a3.15 3.15 0 0 1 2.34-.945c.693 0 1.26.126 1.728.333v.819a3.3 3.3 0 0 0-1.809-.477 2.26 2.26 0 0 0-1.737.72 2.66 2.66 0 0 0-.675 1.89c0 .81.207 1.431.63 1.89a2.2 2.2 0 0 0 1.71.675c.486 0 .909-.09 1.269-.288v-1.773h-1.377v-.666h2.115v2.853Zm.577.435"/></g></g><g data-name="Span" transform="translate(-54.101 -411.83)"><clipPath id="c"><path fill-rule="evenodd" d="M0 841.92h595.2V0H0Z"/></clipPath><g clip-path="url(#c)"><path d="M130.97 492.909a.9.9 0 0 0-.54-.144c-.306 0-.567.135-.774.432a2.03 2.03 0 0 0-.306 1.188v2.295h-.72v-4.5h.72v.927h.018a1.56 1.56 0 0 1 .468-.738c.216-.18.45-.27.711-.27a1.2 1.2 0 0 1 .423.063Zm4.408 1.698h-3.177a1.68 1.68 0 0 0 .405 1.17 1.4 1.4 0 0 0 1.062.405c.504 0 .972-.171 1.395-.504v.675a2.6 2.6 0 0 1-1.566.432 1.9 1.9 0 0 1-1.494-.612 2.52 2.52 0 0 1-.549-1.728c0-.702.198-1.26.594-1.71a1.9 1.9 0 0 1 1.476-.657 1.7 1.7 0 0 1 1.368.567 2.4 2.4 0 0 1 .486 1.584zm-.738-.612a1.46 1.46 0 0 0-.306-.963 1.02 1.02 0 0 0-.819-.36 1.17 1.17 0 0 0-.864.369 1.66 1.66 0 0 0-.441.954Zm4.86 2.475a2.34 2.34 0 0 1-1.233.315 2.05 2.05 0 0 1-1.557-.63 2.3 2.3 0 0 1-.585-1.62c0-.738.216-1.332.63-1.782.432-.45.999-.675 1.71-.675a2.4 2.4 0 0 1 1.044.207v.747a1.84 1.84 0 0 0-1.08-.36 1.45 1.45 0 0 0-1.116.513 1.87 1.87 0 0 0-.45 1.287 1.8 1.8 0 0 0 .414 1.251 1.44 1.44 0 0 0 1.116.45 1.8 1.8 0 0 0 1.107-.387Zm3.006.315a2.1 2.1 0 0 1-1.593-.63 2.35 2.35 0 0 1-.594-1.674c0-.756.207-1.35.621-1.773s.972-.63 1.674-.63a2 2 0 0 1 1.566.612 2.45 2.45 0 0 1 .567 1.719 2.42 2.42 0 0 1-.612 1.728 2.13 2.13 0 0 1-1.62.648m.045-4.104a1.37 1.37 0 0 0-1.098.477 1.94 1.94 0 0 0-.405 1.287c0 .54.135.954.405 1.26a1.39 1.39 0 0 0 1.107.477c.468 0 .819-.153 1.08-.45a1.95 1.95 0 0 0 .36-1.305c0-.549-.126-.972-.378-1.287a1.3 1.3 0 0 0-1.062-.459Zm9.73 3.999h-.72v-2.583c0-.495-.09-.855-.234-1.08-.153-.225-.414-.333-.774-.333a.96.96 0 0 0-.783.423 1.62 1.62 0 0 0-.324 1.008v2.565h-.72v-2.673c0-.882-.342-1.323-1.035-1.323a.95.95 0 0 0-.774.396 1.64 1.64 0 0 0-.306 1.035v2.565h-.72v-4.5h.72v.72h.018a1.53 1.53 0 0 1 1.395-.828 1.296 1.296 0 0 1 1.287.936 1.6 1.6 0 0 1 1.494-.936c.981 0 1.476.612 1.476 1.836zm7.795 0h-.72v-2.583c0-.495-.09-.855-.234-1.08-.153-.225-.414-.333-.774-.333a.96.96 0 0 0-.783.423 1.62 1.62 0 0 0-.324 1.008v2.565h-.72v-2.673c0-.882-.342-1.323-1.035-1.323a.95.95 0 0 0-.774.396 1.64 1.64 0 0 0-.306 1.035v2.565h-.72v-4.5h.72v.72h.018a1.53 1.53 0 0 1 1.395-.828 1.296 1.296 0 0 1 1.287.936 1.6 1.6 0 0 1 1.494-.936c.981 0 1.476.612 1.476 1.836zm5.019-2.073h-3.177a1.68 1.68 0 0 0 .405 1.17 1.4 1.4 0 0 0 1.062.405c.504 0 .972-.171 1.395-.504v.675a2.6 2.6 0 0 1-1.566.432 1.9 1.9 0 0 1-1.494-.612 2.52 2.52 0 0 1-.549-1.728c0-.702.198-1.26.594-1.71a1.9 1.9 0 0 1 1.476-.657 1.7 1.7 0 0 1 1.368.567 2.4 2.4 0 0 1 .486 1.584zm-.738-.612a1.46 1.46 0 0 0-.306-.963 1.02 1.02 0 0 0-.819-.36 1.17 1.17 0 0 0-.864.369 1.66 1.66 0 0 0-.441.954Zm5.538 2.685h-.72v-2.565c0-.954-.351-1.44-1.044-1.44a1.13 1.13 0 0 0-.9.414 1.5 1.5 0 0 0-.351 1.026v2.565h-.72v-4.5h.72v.747h.018a1.62 1.62 0 0 1 1.476-.855q.742 0 1.134.486a2.1 2.1 0 0 1 .387 1.368Zm5.136-.003h-.72v-.765a1.67 1.67 0 0 1-1.557.873 1.7 1.7 0 0 1-1.35-.603 2.5 2.5 0 0 1-.513-1.647 2.7 2.7 0 0 1 .567-1.791c.369-.45.873-.666 1.494-.666s1.071.243 1.35.72h.009v-2.781h.72zm-.72-2.034v-.666c0-.36-.117-.666-.36-.918a1.2 1.2 0 0 0-.918-.378 1.24 1.24 0 0 0-1.035.486 2.1 2.1 0 0 0-.378 1.332c0 .522.117.927.36 1.233a1.2 1.2 0 0 0 .981.45c.405 0 .729-.144.981-.441a1.62 1.62 0 0 0 .369-1.098m1.917 1.872v-.774a2.13 2.13 0 0 0 1.296.441c.63 0 .954-.216.954-.63a.53.53 0 0 0-.09-.306.8.8 0 0 0-.216-.225 1.5 1.5 0 0 0-.324-.18 6 6 0 0 1-.927-.396 1.7 1.7 0 0 1-.378-.27 1.1 1.1 0 0 1-.234-.351 1.26 1.26 0 0 1 .072-1.008 1.3 1.3 0 0 1 .387-.405 1.8 1.8 0 0 1 .549-.252 2.58 2.58 0 0 1 1.701.117v.729a2.03 2.03 0 0 0-1.53-.27.9.9 0 0 0-.27.108.6.6 0 0 0-.18.216.53.53 0 0 0-.063.252.6.6 0 0 0 .063.297.7.7 0 0 0 .18.207 1.4 1.4 0 0 0 .315.18l.387.153a5 5 0 0 1 .54.234 1.8 1.8 0 0 1 .405.27 1 1 0 0 1 .252.36 1.1 1.1 0 0 1 .09.459 1.1 1.1 0 0 1-.135.594 1.24 1.24 0 0 1-.414.396 1.8 1.8 0 0 1-.558.243 2.8 2.8 0 0 1-.666.081 2.56 2.56 0 0 1-1.206-.27"/></g></g><g data-name="Span" transform="translate(-54.101 -411.83)"><clipPath id="d"><path fill-rule="evenodd" d="M0 841.92h595.2V0H0Z"/></clipPath><g clip-path="url(#d)"><path d="M184.977 496.633a1.4 1.4 0 0 1-.675.144c-.783 0-1.179-.441-1.179-1.314v-2.664h-.774v-.621h.774v-1.098l.72-.234v1.341h1.134v.612h-1.134v2.529c0 .306.054.522.153.648s.27.198.513.198c.18 0 .333-.054.468-.153zm4.648.047h-.72v-2.592c0-.936-.351-1.404-1.044-1.404a1.13 1.13 0 0 0-.891.396 1.5 1.5 0 0 0-.36 1.053v2.547h-.72v-6.66h.72v2.907h.018a1.64 1.64 0 0 1 1.476-.855c1.026 0 1.521.612 1.521 1.836zm4.924-2.073h-3.177a1.68 1.68 0 0 0 .405 1.17 1.4 1.4 0 0 0 1.062.405c.504 0 .972-.171 1.395-.504v.675a2.6 2.6 0 0 1-1.566.432 1.9 1.9 0 0 1-1.494-.612 2.52 2.52 0 0 1-.549-1.728c0-.702.198-1.26.594-1.71a1.9 1.9 0 0 1 1.476-.657 1.7 1.7 0 0 1 1.368.567 2.4 2.4 0 0 1 .486 1.584zm-.738-.612a1.46 1.46 0 0 0-.306-.963 1.02 1.02 0 0 0-.819-.36 1.17 1.17 0 0 0-.864.369 1.66 1.66 0 0 0-.441.954Z"/></g></g><g data-name="Span" transform="translate(-54.101 -411.83)"><clipPath id="e"><path fill-rule="evenodd" d="M0 841.92h595.2V0H0Z"/></clipPath><g clip-path="url(#e)"><path d="M198.741 491.037a.45.45 0 0 1-.468-.468.45.45 0 0 1 .135-.333.45.45 0 0 1 .333-.135.45.45 0 0 1 .333.135.44.44 0 0 1 .135.333.45.45 0 0 1-.126.333.45.45 0 0 1-.342.135m.342 5.643h-.72v-4.5h.72zm5.199 0h-.72v-2.565c0-.954-.351-1.44-1.044-1.44a1.13 1.13 0 0 0-.9.414 1.5 1.5 0 0 0-.351 1.026v2.565h-.72v-4.5h.72v.747h.018a1.62 1.62 0 0 1 1.476-.855q.743 0 1.134.486a2.1 2.1 0 0 1 .387 1.368Zm3.375-.047a1.4 1.4 0 0 1-.675.144c-.783 0-1.179-.441-1.179-1.314v-2.664h-.774v-.621h.774v-1.098l.72-.234v1.341h1.134v.612h-1.134v2.529c0 .306.054.522.153.648s.27.198.513.198c.18 0 .333-.054.468-.153zm4.526-2.026h-3.177a1.68 1.68 0 0 0 .405 1.17 1.4 1.4 0 0 0 1.062.405c.504 0 .972-.171 1.395-.504v.675a2.6 2.6 0 0 1-1.566.432 1.9 1.9 0 0 1-1.494-.612 2.52 2.52 0 0 1-.549-1.728c0-.702.198-1.26.594-1.71a1.9 1.9 0 0 1 1.476-.657 1.7 1.7 0 0 1 1.368.567 2.4 2.4 0 0 1 .486 1.584zm-.738-.612a1.46 1.46 0 0 0-.306-.963 1.02 1.02 0 0 0-.819-.36 1.17 1.17 0 0 0-.864.369 1.66 1.66 0 0 0-.441.954Zm4.141-1.086a.9.9 0 0 0-.54-.144c-.306 0-.567.135-.774.432a2.03 2.03 0 0 0-.306 1.188v2.295h-.72v-4.5h.72v.927h.018a1.56 1.56 0 0 1 .468-.738c.216-.18.45-.27.711-.27a1.2 1.2 0 0 1 .423.063Zm4.327-.729-1.791 4.5h-.702l-1.71-4.5h.792l1.143 3.267a3 3 0 0 1 .153.63h.018a3 3 0 0 1 .144-.612l1.197-3.285Zm4.393 2.427h-3.177a1.68 1.68 0 0 0 .405 1.17 1.4 1.4 0 0 0 1.062.405c.504 0 .972-.171 1.395-.504v.675a2.6 2.6 0 0 1-1.566.432 1.9 1.9 0 0 1-1.494-.612 2.52 2.52 0 0 1-.549-1.728c0-.702.198-1.26.594-1.71a1.9 1.9 0 0 1 1.476-.657 1.7 1.7 0 0 1 1.368.567 2.4 2.4 0 0 1 .486 1.584zm-.738-.612a1.46 1.46 0 0 0-.306-.963 1.02 1.02 0 0 0-.819-.36 1.17 1.17 0 0 0-.864.369 1.66 1.66 0 0 0-.441.954Zm5.537 2.685h-.72v-2.565c0-.954-.351-1.44-1.044-1.44a1.13 1.13 0 0 0-.9.414 1.5 1.5 0 0 0-.351 1.026v2.565h-.72v-4.5h.72v.747h.018a1.62 1.62 0 0 1 1.476-.855q.743 0 1.134.486a2.1 2.1 0 0 1 .387 1.368Zm3.392-.047a1.4 1.4 0 0 1-.675.144c-.783 0-1.179-.441-1.179-1.314v-2.664h-.774v-.621h.774v-1.098l.72-.234v1.341h1.134v.612h-1.134v2.529c0 .306.054.522.153.648s.27.198.513.198c.18 0 .333-.054.468-.153zm1.281-5.596a.45.45 0 0 1-.468-.468.45.45 0 0 1 .135-.333.45.45 0 0 1 .333-.135.45.45 0 0 1 .333.135.44.44 0 0 1 .135.333.45.45 0 0 1-.126.333.45.45 0 0 1-.342.135m.342 5.643h-.72v-4.5h.72zm3.344.105a2.1 2.1 0 0 1-1.593-.63 2.35 2.35 0 0 1-.594-1.674c0-.756.207-1.35.621-1.773s.972-.63 1.674-.63a2 2 0 0 1 1.566.612 2.45 2.45 0 0 1 .567 1.719 2.42 2.42 0 0 1-.612 1.728 2.13 2.13 0 0 1-1.62.648m.045-4.104a1.37 1.37 0 0 0-1.098.477 1.94 1.94 0 0 0-.405 1.287c0 .54.135.954.405 1.26a1.39 1.39 0 0 0 1.107.477c.468 0 .819-.153 1.08-.45a1.95 1.95 0 0 0 .36-1.305c0-.549-.126-.972-.378-1.287a1.3 1.3 0 0 0-1.062-.459Zm7.075 3.999h-.72v-2.565c0-.954-.351-1.44-1.044-1.44a1.13 1.13 0 0 0-.9.414 1.5 1.5 0 0 0-.351 1.026v2.565h-.72v-4.5h.72v.747h.018a1.62 1.62 0 0 1 1.476-.855q.743 0 1.134.486a2.1 2.1 0 0 1 .387 1.368Z"/></g></g><g data-name="Span" transform="translate(-54.101 -411.83)"><clipPath id="f"><path fill-rule="evenodd" d="M0 841.92h595.2V0H0Z"/></clipPath><g clip-path="url(#f)"><path d="M246.138 496.777a.48.48 0 0 1-.342-.144.48.48 0 0 1-.144-.351c0-.135.045-.252.144-.342a.45.45 0 0 1 .342-.153.47.47 0 0 1 .36.153.48.48 0 0 1 .135.342.48.48 0 0 1-.144.351.48.48 0 0 1-.351.144"/></g></g><g data-name="Span" transform="translate(-54.101 -411.83)"><clipPath id="g"><path fill-rule="evenodd" d="M0 841.92h595.2V0H0Z"/></clipPath><g clip-path="url(#g)"><path d="M105.598 531.94h-.9l-3.24-5.022a2 2 0 0 1-.216-.396h-.018a6.5 6.5 0 0 1 .036.864v4.554h-.738v-6.3h.954l3.159 4.95a6 6 0 0 1 .252.405h.018a7 7 0 0 1-.045-.927v-4.428h.738zm2.394 0h-.738v-6.3h.738zm5.384-5.634h-1.818v5.634h-.738v-5.634h-1.818v-.666h4.374zm5.821 5.634h-.81l-.684-1.764h-2.664l-.63 1.764h-.819l2.421-6.3h.765zm-1.728-2.43-.99-2.682a2.6 2.6 0 0 1-.09-.423h-.018a2.4 2.4 0 0 1-.108.423l-.981 2.682Zm7.327 1.995a4.2 4.2 0 0 1-2.124.54c-.9 0-1.62-.288-2.187-.873a3.2 3.2 0 0 1-.819-2.304c0-.963.306-1.773.927-2.394a3.15 3.15 0 0 1 2.34-.945c.693 0 1.26.126 1.728.333v.819a3.3 3.3 0 0 0-1.809-.477 2.26 2.26 0 0 0-1.737.72 2.66 2.66 0 0 0-.675 1.89c0 .81.207 1.431.63 1.89a2.2 2.2 0 0 0 1.71.675c.486 0 .909-.09 1.269-.288v-1.773h-1.377v-.666h2.115v2.853Zm.577.435"/></g></g><g data-name="Span" transform="translate(-54.101 -411.83)"><clipPath id="h"><path fill-rule="evenodd" d="M0 841.92h595.2V0H0Z"/></clipPath><g clip-path="url(#h)"><path d="M130.97 528.169a.9.9 0 0 0-.54-.144c-.306 0-.567.135-.774.432a2.03 2.03 0 0 0-.306 1.188v2.295h-.72v-4.5h.72v.927h.018a1.56 1.56 0 0 1 .468-.738c.216-.18.45-.27.711-.27a1.2 1.2 0 0 1 .423.063Zm4.408 1.698h-3.177a1.68 1.68 0 0 0 .405 1.17 1.4 1.4 0 0 0 1.062.405c.504 0 .972-.171 1.395-.504v.675a2.6 2.6 0 0 1-1.566.432 1.9 1.9 0 0 1-1.494-.612 2.52 2.52 0 0 1-.549-1.728c0-.702.198-1.26.594-1.71a1.9 1.9 0 0 1 1.476-.657 1.7 1.7 0 0 1 1.368.567 2.4 2.4 0 0 1 .486 1.584zm-.738-.612a1.46 1.46 0 0 0-.306-.963 1.02 1.02 0 0 0-.819-.36 1.17 1.17 0 0 0-.864.369 1.66 1.66 0 0 0-.441.954Zm4.86 2.475a2.34 2.34 0 0 1-1.233.315 2.05 2.05 0 0 1-1.557-.63 2.3 2.3 0 0 1-.585-1.62c0-.738.216-1.332.63-1.782.432-.45.999-.675 1.71-.675a2.4 2.4 0 0 1 1.044.207v.747a1.84 1.84 0 0 0-1.08-.36 1.45 1.45 0 0 0-1.116.513 1.87 1.87 0 0 0-.45 1.287 1.8 1.8 0 0 0 .414 1.251 1.44 1.44 0 0 0 1.116.45 1.8 1.8 0 0 0 1.107-.387Zm3.006.315a2.1 2.1 0 0 1-1.593-.63 2.35 2.35 0 0 1-.594-1.674c0-.756.207-1.35.621-1.773s.972-.63 1.674-.63a2 2 0 0 1 1.566.612 2.45 2.45 0 0 1 .567 1.719 2.42 2.42 0 0 1-.612 1.728 2.13 2.13 0 0 1-1.62.648m.045-4.104a1.37 1.37 0 0 0-1.098.477 1.94 1.94 0 0 0-.405 1.287c0 .54.135.954.405 1.26a1.39 1.39 0 0 0 1.107.477c.468 0 .819-.153 1.08-.45a1.95 1.95 0 0 0 .36-1.305c0-.549-.126-.972-.378-1.287a1.3 1.3 0 0 0-1.062-.459Zm9.73 3.999h-.72v-2.583c0-.495-.09-.855-.234-1.08-.153-.225-.414-.333-.774-.333a.96.96 0 0 0-.783.423 1.62 1.62 0 0 0-.324 1.008v2.565h-.72v-2.673c0-.882-.342-1.323-1.035-1.323a.95.95 0 0 0-.774.396 1.64 1.64 0 0 0-.306 1.035v2.565h-.72v-4.5h.72v.72h.018a1.53 1.53 0 0 1 1.395-.828 1.296 1.296 0 0 1 1.287.936 1.6 1.6 0 0 1 1.494-.936c.981 0 1.476.612 1.476 1.836zm7.795 0h-.72v-2.583c0-.495-.09-.855-.234-1.08-.153-.225-.414-.333-.774-.333a.96.96 0 0 0-.783.423 1.62 1.62 0 0 0-.324 1.008v2.565h-.72v-2.673c0-.882-.342-1.323-1.035-1.323a.95.95 0 0 0-.774.396 1.64 1.64 0 0 0-.306 1.035v2.565h-.72v-4.5h.72v.72h.018a1.53 1.53 0 0 1 1.395-.828 1.296 1.296 0 0 1 1.287.936 1.6 1.6 0 0 1 1.494-.936c.981 0 1.476.612 1.476 1.836zm5.019-2.073h-3.177a1.68 1.68 0 0 0 .405 1.17 1.4 1.4 0 0 0 1.062.405c.504 0 .972-.171 1.395-.504v.675a2.6 2.6 0 0 1-1.566.432 1.9 1.9 0 0 1-1.494-.612 2.52 2.52 0 0 1-.549-1.728c0-.702.198-1.26.594-1.71a1.9 1.9 0 0 1 1.476-.657 1.7 1.7 0 0 1 1.368.567 2.4 2.4 0 0 1 .486 1.584zm-.738-.612a1.46 1.46 0 0 0-.306-.963 1.02 1.02 0 0 0-.819-.36 1.17 1.17 0 0 0-.864.369 1.66 1.66 0 0 0-.441.954Zm5.538 2.685h-.72v-2.565c0-.954-.351-1.44-1.044-1.44a1.13 1.13 0 0 0-.9.414 1.5 1.5 0 0 0-.351 1.026v2.565h-.72v-4.5h.72v.747h.018a1.62 1.62 0 0 1 1.476-.855q.742 0 1.134.486a2.1 2.1 0 0 1 .387 1.368Zm5.136-.003h-.72v-.765a1.67 1.67 0 0 1-1.557.873 1.7 1.7 0 0 1-1.35-.603 2.5 2.5 0 0 1-.513-1.647 2.7 2.7 0 0 1 .567-1.791c.369-.45.873-.666 1.494-.666s1.071.243 1.35.72h.009v-2.781h.72zm-.72-2.034v-.666c0-.36-.117-.666-.36-.918a1.2 1.2 0 0 0-.918-.378 1.24 1.24 0 0 0-1.035.486 2.1 2.1 0 0 0-.378 1.332c0 .522.117.927.36 1.233a1.2 1.2 0 0 0 .981.45c.405 0 .729-.144.981-.441a1.62 1.62 0 0 0 .369-1.098m1.917 1.872v-.774a2.13 2.13 0 0 0 1.296.441c.63 0 .954-.216.954-.63a.53.53 0 0 0-.09-.306.8.8 0 0 0-.216-.225 1.5 1.5 0 0 0-.324-.18 6 6 0 0 1-.927-.396 1.7 1.7 0 0 1-.378-.27 1.1 1.1 0 0 1-.234-.351 1.26 1.26 0 0 1 .072-1.008 1.3 1.3 0 0 1 .387-.405 1.8 1.8 0 0 1 .549-.252 2.58 2.58 0 0 1 1.701.117v.729a2.03 2.03 0 0 0-1.53-.27.9.9 0 0 0-.27.108.6.6 0 0 0-.18.216.53.53 0 0 0-.063.252.6.6 0 0 0 .063.297.7.7 0 0 0 .18.207 1.4 1.4 0 0 0 .315.18l.387.153a5 5 0 0 1 .54.234 1.8 1.8 0 0 1 .405.27 1 1 0 0 1 .252.36 1.1 1.1 0 0 1 .09.459 1.1 1.1 0 0 1-.135.594 1.24 1.24 0 0 1-.414.396 1.8 1.8 0 0 1-.558.243 2.8 2.8 0 0 1-.666.081 2.56 2.56 0 0 1-1.206-.27"/></g></g><g data-name="Span" transform="translate(-54.101 -411.83)"><clipPath id="i"><path fill-rule="evenodd" d="M0 841.92h595.2V0H0Z"/></clipPath><g clip-path="url(#i)"><path d="M184.977 531.893a1.4 1.4 0 0 1-.675.144c-.783 0-1.179-.441-1.179-1.314v-2.664h-.774v-.621h.774v-1.098l.72-.234v1.341h1.134v.612h-1.134v2.529c0 .306.054.522.153.648s.27.198.513.198c.18 0 .333-.054.468-.153zm4.648.047h-.72v-2.592c0-.936-.351-1.404-1.044-1.404a1.13 1.13 0 0 0-.891.396 1.5 1.5 0 0 0-.36 1.053v2.547h-.72v-6.66h.72v2.907h.018a1.64 1.64 0 0 1 1.476-.855c1.026 0 1.521.612 1.521 1.836zm4.924-2.073h-3.177a1.68 1.68 0 0 0 .405 1.17 1.4 1.4 0 0 0 1.062.405c.504 0 .972-.171 1.395-.504v.675a2.6 2.6 0 0 1-1.566.432 1.9 1.9 0 0 1-1.494-.612 2.52 2.52 0 0 1-.549-1.728c0-.702.198-1.26.594-1.71a1.9 1.9 0 0 1 1.476-.657 1.7 1.7 0 0 1 1.368.567 2.4 2.4 0 0 1 .486 1.584zm-.738-.612a1.46 1.46 0 0 0-.306-.963 1.02 1.02 0 0 0-.819-.36 1.17 1.17 0 0 0-.864.369 1.66 1.66 0 0 0-.441.954Z"/></g></g><g data-name="Span" transform="translate(-54.101 -411.83)"><clipPath id="j"><path fill-rule="evenodd" d="M0 841.92h595.2V0H0Z"/></clipPath><g clip-path="url(#j)"><path d="M198.741 526.297a.45.45 0 0 1-.468-.468.45.45 0 0 1 .135-.333.45.45 0 0 1 .333-.135.45.45 0 0 1 .333.135.44.44 0 0 1 .135.333.45.45 0 0 1-.126.333.45.45 0 0 1-.342.135m.342 5.643h-.72v-4.5h.72zm5.199 0h-.72v-2.565c0-.954-.351-1.44-1.044-1.44a1.13 1.13 0 0 0-.9.414 1.5 1.5 0 0 0-.351 1.026v2.565h-.72v-4.5h.72v.747h.018a1.62 1.62 0 0 1 1.476-.855q.743 0 1.134.486a2.1 2.1 0 0 1 .387 1.368Zm3.375-.047a1.4 1.4 0 0 1-.675.144c-.783 0-1.179-.441-1.179-1.314v-2.664h-.774v-.621h.774v-1.098l.72-.234v1.341h1.134v.612h-1.134v2.529c0 .306.054.522.153.648s.27.198.513.198c.18 0 .333-.054.468-.153zm4.526-2.026h-3.177a1.68 1.68 0 0 0 .405 1.17 1.4 1.4 0 0 0 1.062.405c.504 0 .972-.171 1.395-.504v.675a2.6 2.6 0 0 1-1.566.432 1.9 1.9 0 0 1-1.494-.612 2.52 2.52 0 0 1-.549-1.728c0-.702.198-1.26.594-1.71a1.9 1.9 0 0 1 1.476-.657 1.7 1.7 0 0 1 1.368.567 2.4 2.4 0 0 1 .486 1.584zm-.738-.612a1.46 1.46 0 0 0-.306-.963 1.02 1.02 0 0 0-.819-.36 1.17 1.17 0 0 0-.864.369 1.66 1.66 0 0 0-.441.954Zm4.141-1.086a.9.9 0 0 0-.54-.144c-.306 0-.567.135-.774.432a2.03 2.03 0 0 0-.306 1.188v2.295h-.72v-4.5h.72v.927h.018a1.56 1.56 0 0 1 .468-.738c.216-.18.45-.27.711-.27a1.2 1.2 0 0 1 .423.063Zm4.327-.729-1.791 4.5h-.702l-1.71-4.5h.792l1.143 3.267a3 3 0 0 1 .153.63h.018a3 3 0 0 1 .144-.612l1.197-3.285Zm4.393 2.427h-3.177a1.68 1.68 0 0 0 .405 1.17 1.4 1.4 0 0 0 1.062.405c.504 0 .972-.171 1.395-.504v.675a2.6 2.6 0 0 1-1.566.432 1.9 1.9 0 0 1-1.494-.612 2.52 2.52 0 0 1-.549-1.728c0-.702.198-1.26.594-1.71a1.9 1.9 0 0 1 1.476-.657 1.7 1.7 0 0 1 1.368.567 2.4 2.4 0 0 1 .486 1.584zm-.738-.612a1.46 1.46 0 0 0-.306-.963 1.02 1.02 0 0 0-.819-.36 1.17 1.17 0 0 0-.864.369 1.66 1.66 0 0 0-.441.954Zm5.537 2.685h-.72v-2.565c0-.954-.351-1.44-1.044-1.44a1.13 1.13 0 0 0-.9.414 1.5 1.5 0 0 0-.351 1.026v2.565h-.72v-4.5h.72v.747h.018a1.62 1.62 0 0 1 1.476-.855q.743 0 1.134.486a2.1 2.1 0 0 1 .387 1.368Zm3.392-.047a1.4 1.4 0 0 1-.675.144c-.783 0-1.179-.441-1.179-1.314v-2.664h-.774v-.621h.774v-1.098l.72-.234v1.341h1.134v.612h-1.134v2.529c0 .306.054.522.153.648s.27.198.513.198c.18 0 .333-.054.468-.153zm1.281-5.596a.45.45 0 0 1-.468-.468.45.45 0 0 1 .135-.333.45.45 0 0 1 .333-.135.45.45 0 0 1 .333.135.44.44 0 0 1 .135.333.45.45 0 0 1-.126.333.45.45 0 0 1-.342.135m.342 5.643h-.72v-4.5h.72zm3.344.105a2.1 2.1 0 0 1-1.593-.63 2.35 2.35 0 0 1-.594-1.674c0-.756.207-1.35.621-1.773s.972-.63 1.674-.63a2 2 0 0 1 1.566.612 2.45 2.45 0 0 1 .567 1.719 2.42 2.42 0 0 1-.612 1.728 2.13 2.13 0 0 1-1.62.648m.045-4.104a1.37 1.37 0 0 0-1.098.477 1.94 1.94 0 0 0-.405 1.287c0 .54.135.954.405 1.26a1.39 1.39 0 0 0 1.107.477c.468 0 .819-.153 1.08-.45a1.95 1.95 0 0 0 .36-1.305c0-.549-.126-.972-.378-1.287a1.3 1.3 0 0 0-1.062-.459Zm7.075 3.999h-.72v-2.565c0-.954-.351-1.44-1.044-1.44a1.13 1.13 0 0 0-.9.414 1.5 1.5 0 0 0-.351 1.026v2.565h-.72v-4.5h.72v.747h.018a1.62 1.62 0 0 1 1.476-.855q.743 0 1.134.486a2.1 2.1 0 0 1 .387 1.368Z"/></g></g><g data-name="Span" transform="translate(-54.101 -411.83)"><clipPath id="k"><path fill-rule="evenodd" d="M0 841.92h595.2V0H0Z"/></clipPath><g clip-path="url(#k)"><path d="M250.751 525.91a.96.96 0 0 0-.468-.117c-.513 0-.765.315-.765.954v.693h1.053v.612h-1.053v3.888h-.72v-3.888h-.765v-.612h.765v-.729c0-.468.144-.846.414-1.116s.612-.414 1.017-.414a1.4 1.4 0 0 1 .522.081Zm2.421 6.135a2.1 2.1 0 0 1-1.593-.63 2.35 2.35 0 0 1-.594-1.674c0-.756.207-1.35.621-1.773s.972-.63 1.674-.63a2 2 0 0 1 1.566.612 2.45 2.45 0 0 1 .567 1.719 2.42 2.42 0 0 1-.612 1.728 2.13 2.13 0 0 1-1.62.648m.045-4.104a1.37 1.37 0 0 0-1.098.477 1.94 1.94 0 0 0-.405 1.287c0 .54.135.954.405 1.26a1.39 1.39 0 0 0 1.107.477c.468 0 .819-.153 1.08-.45a1.95 1.95 0 0 0 .36-1.305c0-.549-.126-.972-.378-1.287a1.3 1.3 0 0 0-1.062-.459Zm5.681.228a.9.9 0 0 0-.54-.144c-.306 0-.567.135-.774.432a2.03 2.03 0 0 0-.306 1.188v2.295h-.72v-4.5h.72v.927h.018a1.56 1.56 0 0 1 .468-.738c.216-.18.45-.27.711-.27a1.2 1.2 0 0 1 .423.063Zm.062 3.771"/></g></g><g data-name="Span" transform="translate(-54.101 -411.83)"><clipPath id="l"><path fill-rule="evenodd" d="M0 841.92h595.2V0H0Z"/></clipPath><g clip-path="url(#l)"><path d="M262.701 526.297a.45.45 0 0 1-.468-.468.45.45 0 0 1 .135-.333.45.45 0 0 1 .333-.135.45.45 0 0 1 .333.135.44.44 0 0 1 .135.333.45.45 0 0 1-.126.333.45.45 0 0 1-.342.135m.342 5.643h-.72v-4.5h.72zm5.199 0h-.72v-2.565c0-.954-.351-1.44-1.044-1.44a1.13 1.13 0 0 0-.9.414 1.5 1.5 0 0 0-.351 1.026v2.565h-.72v-4.5h.72v.747h.018a1.62 1.62 0 0 1 1.476-.855q.742 0 1.134.486a2.1 2.1 0 0 1 .387 1.368Zm5.12-.003h-.72v-.765a1.67 1.67 0 0 1-1.557.873 1.7 1.7 0 0 1-1.35-.603 2.5 2.5 0 0 1-.513-1.647 2.7 2.7 0 0 1 .567-1.791c.369-.45.873-.666 1.494-.666s1.071.243 1.35.72h.009v-2.781h.72zm-.72-2.034v-.666c0-.36-.117-.666-.36-.918a1.2 1.2 0 0 0-.918-.378 1.24 1.24 0 0 0-1.035.486 2.1 2.1 0 0 0-.378 1.332c0 .522.117.927.36 1.233a1.2 1.2 0 0 0 .981.45c.405 0 .729-.144.981-.441a1.62 1.62 0 0 0 .369-1.098m2.56-3.606a.45.45 0 0 1-.468-.468.45.45 0 0 1 .135-.333.45.45 0 0 1 .333-.135.45.45 0 0 1 .333.135.44.44 0 0 1 .135.333.45.45 0 0 1-.126.333.45.45 0 0 1-.342.135m.342 5.643h-.72v-4.5h.72zm4.964-4.5-1.791 4.5h-.702l-1.71-4.5h.792l1.143 3.267a3 3 0 0 1 .153.63h.018a3 3 0 0 1 .144-.612l1.197-3.285Zm1.147-1.143a.45.45 0 0 1-.468-.468.45.45 0 0 1 .135-.333.45.45 0 0 1 .333-.135.45.45 0 0 1 .333.135.44.44 0 0 1 .135.333.45.45 0 0 1-.126.333.45.45 0 0 1-.342.135m.342 5.643h-.72v-4.5h.72zm5.297-.003h-.72v-.765a1.67 1.67 0 0 1-1.557.873 1.7 1.7 0 0 1-1.35-.603 2.5 2.5 0 0 1-.513-1.647 2.7 2.7 0 0 1 .567-1.791c.369-.45.873-.666 1.494-.666s1.071.243 1.35.72h.009v-2.781h.72zm-.72-2.034v-.666c0-.36-.117-.666-.36-.918a1.2 1.2 0 0 0-.918-.378 1.24 1.24 0 0 0-1.035.486 2.1 2.1 0 0 0-.378 1.332c0 .522.117.927.36 1.233a1.2 1.2 0 0 0 .981.45c.405 0 .729-.144.981-.441a1.62 1.62 0 0 0 .369-1.098m5.8 2.034h-.72v-.702h-.018a1.48 1.48 0 0 1-1.386.81c-1.08 0-1.611-.639-1.611-1.917v-2.691h.72v2.574q0 1.431 1.08 1.431c.36 0 .648-.135.873-.387a1.5 1.5 0 0 0 .342-1.026v-2.592h.72zm4.623 0h-.72v-.702h-.018a1.51 1.51 0 0 1-1.386.81 1.5 1.5 0 0 1-1.053-.36 1.23 1.23 0 0 1-.378-.945c0-.837.495-1.323 1.485-1.467l1.35-.18c0-.783-.315-1.161-.927-1.161a2.2 2.2 0 0 0-1.467.558v-.738a2.8 2.8 0 0 1 1.53-.414c1.053 0 1.584.558 1.584 1.674zm-.72-2.277-1.08.153a1.74 1.74 0 0 0-.765.252c-.171.117-.252.324-.252.63 0 .216.081.396.234.54a.93.93 0 0 0 .63.207c.36 0 .648-.126.882-.378a1.35 1.35 0 0 0 .351-.954zm2.799 2.28h-.72v-6.66h.72zm1.15-.165v-.774a2.13 2.13 0 0 0 1.296.441c.63 0 .954-.216.954-.63a.53.53 0 0 0-.09-.306.8.8 0 0 0-.216-.225 1.5 1.5 0 0 0-.324-.18 6 6 0 0 1-.927-.396 1.7 1.7 0 0 1-.378-.27 1.1 1.1 0 0 1-.234-.351 1.26 1.26 0 0 1 .072-1.008 1.3 1.3 0 0 1 .387-.405 1.8 1.8 0 0 1 .549-.252 2.58 2.58 0 0 1 1.701.117v.729a2.03 2.03 0 0 0-1.53-.27.9.9 0 0 0-.27.108.6.6 0 0 0-.18.216.53.53 0 0 0-.063.252.6.6 0 0 0 .063.297.7.7 0 0 0 .18.207 1.4 1.4 0 0 0 .315.18l.387.153a5 5 0 0 1 .54.234 1.8 1.8 0 0 1 .405.27 1 1 0 0 1 .252.36 1.1 1.1 0 0 1 .09.459 1.1 1.1 0 0 1-.135.594 1.24 1.24 0 0 1-.414.396 1.8 1.8 0 0 1-.558.243 2.8 2.8 0 0 1-.666.081 2.56 2.56 0 0 1-1.206-.27"/></g></g><g data-name="Span" transform="translate(-54.101 -411.83)"><clipPath id="m"><path fill-rule="evenodd" d="M0 841.92h595.2V0H0Z"/></clipPath><g clip-path="url(#m)"><path d="M307.608 531.289h-.018v.648h-.72v-6.66h.72v2.952h.018c.36-.594.873-.9 1.557-.9a1.64 1.64 0 0 1 1.35.612 2.48 2.48 0 0 1 .495 1.62 2.8 2.8 0 0 1-.549 1.8 1.83 1.83 0 0 1-1.503.684 1.48 1.48 0 0 1-1.35-.756m-.018-1.818v.63a1.35 1.35 0 0 0 .36.954 1.22 1.22 0 0 0 .927.387c.432 0 .774-.171 1.017-.504a2.3 2.3 0 0 0 .378-1.395c0-.495-.117-.9-.351-1.17a1.15 1.15 0 0 0-.936-.432 1.28 1.28 0 0 0-1.008.441 1.6 1.6 0 0 0-.387 1.089m7.792 2.466h-.72v-.702h-.018a1.51 1.51 0 0 1-1.386.81 1.5 1.5 0 0 1-1.053-.36 1.23 1.23 0 0 1-.378-.945c0-.837.495-1.323 1.485-1.467l1.35-.18c0-.783-.315-1.161-.927-1.161a2.2 2.2 0 0 0-1.467.558v-.738a2.8 2.8 0 0 1 1.53-.414c1.053 0 1.584.558 1.584 1.674zm-.72-2.277-1.08.153a1.74 1.74 0 0 0-.765.252c-.171.117-.252.324-.252.63 0 .216.081.396.234.54a.93.93 0 0 0 .63.207c.36 0 .648-.126.882-.378a1.35 1.35 0 0 0 .351-.954zm1.772 2.115v-.774a2.13 2.13 0 0 0 1.296.441c.63 0 .954-.216.954-.63a.53.53 0 0 0-.09-.306.8.8 0 0 0-.216-.225 1.5 1.5 0 0 0-.324-.18 6 6 0 0 1-.927-.396 1.7 1.7 0 0 1-.378-.27 1.1 1.1 0 0 1-.234-.351 1.26 1.26 0 0 1 .072-1.008 1.3 1.3 0 0 1 .387-.405 1.8 1.8 0 0 1 .549-.252 2.58 2.58 0 0 1 1.701.117v.729a2.03 2.03 0 0 0-1.53-.27.9.9 0 0 0-.27.108.6.6 0 0 0-.18.216.53.53 0 0 0-.063.252.6.6 0 0 0 .063.297.7.7 0 0 0 .18.207 1.4 1.4 0 0 0 .315.18l.387.153a5 5 0 0 1 .54.234 1.8 1.8 0 0 1 .405.27 1 1 0 0 1 .252.36 1.1 1.1 0 0 1 .09.459 1.1 1.1 0 0 1-.135.594 1.24 1.24 0 0 1-.414.396 1.8 1.8 0 0 1-.558.243 2.8 2.8 0 0 1-.666.081 2.56 2.56 0 0 1-1.206-.27m7.705-1.908h-3.177a1.68 1.68 0 0 0 .405 1.17 1.4 1.4 0 0 0 1.062.405c.504 0 .972-.171 1.395-.504v.675a2.6 2.6 0 0 1-1.566.432 1.9 1.9 0 0 1-1.494-.612 2.52 2.52 0 0 1-.549-1.728c0-.702.198-1.26.594-1.71a1.9 1.9 0 0 1 1.476-.657 1.7 1.7 0 0 1 1.368.567 2.4 2.4 0 0 1 .486 1.584zm-.738-.612a1.46 1.46 0 0 0-.306-.963 1.02 1.02 0 0 0-.819-.36 1.17 1.17 0 0 0-.864.369 1.66 1.66 0 0 0-.441.954Zm5.661 2.682h-.72v-.765a1.67 1.67 0 0 1-1.557.873 1.7 1.7 0 0 1-1.35-.603 2.5 2.5 0 0 1-.513-1.647 2.7 2.7 0 0 1 .567-1.791c.369-.45.873-.666 1.494-.666s1.071.243 1.35.72h.009v-2.781h.72zm-.72-2.034v-.666c0-.36-.117-.666-.36-.918a1.2 1.2 0 0 0-.918-.378 1.24 1.24 0 0 0-1.035.486 2.1 2.1 0 0 0-.378 1.332c0 .522.117.927.36 1.233a1.2 1.2 0 0 0 .981.45c.405 0 .729-.144.981-.441a1.62 1.62 0 0 0 .369-1.098"/></g></g><g data-name="Span" transform="translate(-54.101 -411.83)"><clipPath id="n"><path fill-rule="evenodd" d="M0 841.92h595.2V0H0Z"/></clipPath><g clip-path="url(#n)"><path d="M335.029 532.045a2.1 2.1 0 0 1-1.593-.63 2.35 2.35 0 0 1-.594-1.674c0-.756.207-1.35.621-1.773s.972-.63 1.674-.63a2 2 0 0 1 1.566.612 2.45 2.45 0 0 1 .567 1.719 2.42 2.42 0 0 1-.612 1.728 2.13 2.13 0 0 1-1.62.648m.045-4.104a1.37 1.37 0 0 0-1.098.477 1.94 1.94 0 0 0-.405 1.287c0 .54.135.954.405 1.26a1.39 1.39 0 0 0 1.107.477c.468 0 .819-.153 1.08-.45a1.95 1.95 0 0 0 .36-1.305c0-.549-.126-.972-.378-1.287a1.3 1.3 0 0 0-1.062-.459Zm7.082 3.999h-.72v-2.565c0-.954-.351-1.44-1.044-1.44a1.13 1.13 0 0 0-.9.414 1.5 1.5 0 0 0-.351 1.026v2.565h-.72v-4.5h.72v.747h.018a1.62 1.62 0 0 1 1.476-.855q.742 0 1.134.486a2.1 2.1 0 0 1 .387 1.368Z"/></g></g><g data-name="Span" transform="translate(-54.101 -411.83)"><clipPath id="o"><path fill-rule="evenodd" d="M0 841.92h595.2V0H0Z"/></clipPath><g clip-path="url(#o)"><path d="M345.717 531.775v-.774a2.13 2.13 0 0 0 1.296.441c.63 0 .954-.216.954-.63a.53.53 0 0 0-.09-.306.8.8 0 0 0-.216-.225 1.5 1.5 0 0 0-.324-.18 6 6 0 0 1-.927-.396 1.7 1.7 0 0 1-.378-.27 1.1 1.1 0 0 1-.234-.351 1.26 1.26 0 0 1 .072-1.008 1.3 1.3 0 0 1 .387-.405 1.8 1.8 0 0 1 .549-.252 2.58 2.58 0 0 1 1.701.117v.729a2.03 2.03 0 0 0-1.53-.27.9.9 0 0 0-.27.108.6.6 0 0 0-.18.216.53.53 0 0 0-.063.252.6.6 0 0 0 .063.297.7.7 0 0 0 .18.207 1.4 1.4 0 0 0 .315.18l.387.153a5 5 0 0 1 .54.234 1.8 1.8 0 0 1 .405.27 1 1 0 0 1 .252.36 1.1 1.1 0 0 1 .09.459 1.1 1.1 0 0 1-.135.594 1.24 1.24 0 0 1-.414.396 1.8 1.8 0 0 1-.558.243 2.8 2.8 0 0 1-.666.081 2.56 2.56 0 0 1-1.206-.27m7.823.165h-.72v-2.592c0-.936-.351-1.404-1.044-1.404a1.13 1.13 0 0 0-.891.396 1.5 1.5 0 0 0-.36 1.053v2.547h-.72v-6.66h.72v2.907h.018a1.64 1.64 0 0 1 1.476-.855c1.026 0 1.521.612 1.521 1.836zm4.553-.003h-.72v-.702h-.018a1.51 1.51 0 0 1-1.386.81 1.5 1.5 0 0 1-1.053-.36 1.23 1.23 0 0 1-.378-.945c0-.837.495-1.323 1.485-1.467l1.35-.18c0-.783-.315-1.161-.927-1.161a2.2 2.2 0 0 0-1.467.558v-.738a2.8 2.8 0 0 1 1.53-.414c1.053 0 1.584.558 1.584 1.674zm-.72-2.277-1.08.153a1.74 1.74 0 0 0-.765.252c-.171.117-.252.324-.252.63 0 .216.081.396.234.54a.93.93 0 0 0 .63.207c.36 0 .648-.126.882-.378a1.35 1.35 0 0 0 .351-.954zm4.421-1.491a.9.9 0 0 0-.54-.144c-.306 0-.567.135-.774.432a2.03 2.03 0 0 0-.306 1.188v2.295h-.72v-4.5h.72v.927h.018a1.56 1.56 0 0 1 .468-.738c.216-.18.45-.27.711-.27a1.2 1.2 0 0 1 .423.063Zm4.372 1.698h-3.177a1.68 1.68 0 0 0 .405 1.17 1.4 1.4 0 0 0 1.062.405c.504 0 .972-.171 1.395-.504v.675a2.6 2.6 0 0 1-1.566.432 1.9 1.9 0 0 1-1.494-.612 2.52 2.52 0 0 1-.549-1.728c0-.702.198-1.26.594-1.71a1.9 1.9 0 0 1 1.476-.657 1.7 1.7 0 0 1 1.368.567 2.4 2.4 0 0 1 .486 1.584zm-.738-.612a1.46 1.46 0 0 0-.306-.963 1.02 1.02 0 0 0-.819-.36 1.17 1.17 0 0 0-.864.369 1.66 1.66 0 0 0-.441.954Zm5.634 2.682h-.72v-.765a1.67 1.67 0 0 1-1.557.873 1.7 1.7 0 0 1-1.35-.603 2.5 2.5 0 0 1-.513-1.647 2.7 2.7 0 0 1 .567-1.791c.369-.45.873-.666 1.494-.666s1.071.243 1.35.72h.009v-2.781h.72zm-.72-2.034v-.666c0-.36-.117-.666-.36-.918a1.2 1.2 0 0 0-.918-.378 1.24 1.24 0 0 0-1.035.486 2.1 2.1 0 0 0-.378 1.332c0 .522.117.927.36 1.233a1.2 1.2 0 0 0 .981.45c.405 0 .729-.144.981-.441a1.62 1.62 0 0 0 .369-1.098"/></g></g><g data-name="Span" transform="translate(-54.101 -411.83)"><clipPath id="p"><path fill-rule="evenodd" d="M0 841.92h595.2V0H0Z"/></clipPath><g clip-path="url(#p)"><path d="M378.337 531.73a2.34 2.34 0 0 1-1.233.315 2.05 2.05 0 0 1-1.557-.63 2.3 2.3 0 0 1-.585-1.62c0-.738.216-1.332.63-1.782.432-.45.999-.675 1.71-.675a2.4 2.4 0 0 1 1.044.207v.747a1.84 1.84 0 0 0-1.08-.36 1.45 1.45 0 0 0-1.116.513 1.87 1.87 0 0 0-.45 1.287 1.8 1.8 0 0 0 .414 1.251 1.44 1.44 0 0 0 1.116.45 1.8 1.8 0 0 0 1.107-.387Zm1.847.21h-.72v-6.66h.72zm1.829-5.643a.45.45 0 0 1-.468-.468.45.45 0 0 1 .135-.333.45.45 0 0 1 .333-.135.45.45 0 0 1 .333.135.44.44 0 0 1 .135.333.45.45 0 0 1-.126.333.45.45 0 0 1-.342.135m.342 5.643h-.72v-4.5h.72zm5.164 0h-.72v-2.565c0-.954-.351-1.44-1.044-1.44a1.13 1.13 0 0 0-.9.414 1.5 1.5 0 0 0-.351 1.026v2.565h-.72v-4.5h.72v.747h.018a1.62 1.62 0 0 1 1.476-.855q.742 0 1.134.486a2.1 2.1 0 0 1 .387 1.368Zm1.676-5.643a.45.45 0 0 1-.468-.468.45.45 0 0 1 .135-.333.45.45 0 0 1 .333-.135.45.45 0 0 1 .333.135.44.44 0 0 1 .135.333.45.45 0 0 1-.126.333.45.45 0 0 1-.342.135m.342 5.643h-.72v-4.5h.72zm4.532-.21a2.34 2.34 0 0 1-1.233.315 2.05 2.05 0 0 1-1.557-.63 2.3 2.3 0 0 1-.585-1.62c0-.738.216-1.332.63-1.782.432-.45.999-.675 1.71-.675a2.4 2.4 0 0 1 1.044.207v.747a1.84 1.84 0 0 0-1.08-.36 1.45 1.45 0 0 0-1.116.513 1.87 1.87 0 0 0-.45 1.287 1.8 1.8 0 0 0 .414 1.251 1.44 1.44 0 0 0 1.116.45 1.8 1.8 0 0 0 1.107-.387Zm4.312.207h-.72v-.702h-.018a1.51 1.51 0 0 1-1.386.81 1.5 1.5 0 0 1-1.053-.36 1.23 1.23 0 0 1-.378-.945c0-.837.495-1.323 1.485-1.467l1.35-.18c0-.783-.315-1.161-.927-1.161a2.2 2.2 0 0 0-1.467.558v-.738a2.8 2.8 0 0 1 1.53-.414c1.053 0 1.584.558 1.584 1.674zm-.72-2.277-1.08.153a1.74 1.74 0 0 0-.765.252c-.171.117-.252.324-.252.63 0 .216.081.396.234.54a.93.93 0 0 0 .63.207c.36 0 .648-.126.882-.378a1.35 1.35 0 0 0 .351-.954zm2.799 2.28h-.72v-6.66h.72z"/></g></g><g data-name="Span" transform="translate(-54.101 -411.83)"><clipPath id="q"><path fill-rule="evenodd" d="M0 841.92h595.2V0H0Z"/></clipPath><g clip-path="url(#q)"><path d="M408.052 531.937h-.72v-.765a1.67 1.67 0 0 1-1.557.873 1.7 1.7 0 0 1-1.35-.603 2.5 2.5 0 0 1-.513-1.647 2.7 2.7 0 0 1 .567-1.791c.369-.45.873-.666 1.494-.666s1.071.243 1.35.72h.009v-2.781h.72zm-.72-2.034v-.666c0-.36-.117-.666-.36-.918a1.2 1.2 0 0 0-.918-.378 1.24 1.24 0 0 0-1.035.486 2.1 2.1 0 0 0-.378 1.332c0 .522.117.927.36 1.233a1.2 1.2 0 0 0 .981.45c.405 0 .729-.144.981-.441a1.62 1.62 0 0 0 .369-1.098m5.805-.036h-3.177a1.68 1.68 0 0 0 .405 1.17 1.4 1.4 0 0 0 1.062.405c.504 0 .972-.171 1.395-.504v.675a2.6 2.6 0 0 1-1.566.432 1.9 1.9 0 0 1-1.494-.612 2.52 2.52 0 0 1-.549-1.728c0-.702.198-1.26.594-1.71a1.9 1.9 0 0 1 1.476-.657 1.7 1.7 0 0 1 1.368.567 2.4 2.4 0 0 1 .486 1.584zm-.738-.612a1.46 1.46 0 0 0-.306-.963 1.02 1.02 0 0 0-.819-.36 1.17 1.17 0 0 0-.864.369 1.66 1.66 0 0 0-.441.954Zm4.851 2.475a2.34 2.34 0 0 1-1.233.315 2.05 2.05 0 0 1-1.557-.63 2.3 2.3 0 0 1-.585-1.62c0-.738.216-1.332.63-1.782.432-.45.999-.675 1.71-.675a2.4 2.4 0 0 1 1.044.207v.747a1.84 1.84 0 0 0-1.08-.36 1.45 1.45 0 0 0-1.116.513 1.87 1.87 0 0 0-.45 1.287 1.8 1.8 0 0 0 .414 1.251 1.44 1.44 0 0 0 1.116.45 1.8 1.8 0 0 0 1.107-.387Zm1.498-5.433a.45.45 0 0 1-.468-.468.45.45 0 0 1 .135-.333.45.45 0 0 1 .333-.135.45.45 0 0 1 .333.135.44.44 0 0 1 .135.333.45.45 0 0 1-.126.333.45.45 0 0 1-.342.135m.342 5.643h-.72v-4.5h.72zm1.192-.165v-.774a2.13 2.13 0 0 0 1.296.441c.63 0 .954-.216.954-.63a.53.53 0 0 0-.09-.306.8.8 0 0 0-.216-.225 1.5 1.5 0 0 0-.324-.18 6 6 0 0 1-.927-.396 1.7 1.7 0 0 1-.378-.27 1.1 1.1 0 0 1-.234-.351 1.26 1.26 0 0 1 .072-1.008 1.3 1.3 0 0 1 .387-.405 1.8 1.8 0 0 1 .549-.252 2.58 2.58 0 0 1 1.701.117v.729a2.03 2.03 0 0 0-1.53-.27.9.9 0 0 0-.27.108.6.6 0 0 0-.18.216.53.53 0 0 0-.063.252.6.6 0 0 0 .063.297.7.7 0 0 0 .18.207 1.4 1.4 0 0 0 .315.18l.387.153a5 5 0 0 1 .54.234 1.8 1.8 0 0 1 .405.27 1 1 0 0 1 .252.36 1.1 1.1 0 0 1 .09.459 1.1 1.1 0 0 1-.135.594 1.24 1.24 0 0 1-.414.396 1.8 1.8 0 0 1-.558.243 2.8 2.8 0 0 1-.666.081 2.56 2.56 0 0 1-1.206-.27m4.46-5.478a.45.45 0 0 1-.468-.468.45.45 0 0 1 .135-.333.45.45 0 0 1 .333-.135.45.45 0 0 1 .333.135.44.44 0 0 1 .135.333.45.45 0 0 1-.126.333.45.45 0 0 1-.342.135m.342 5.643h-.72v-4.5h.72zm3.343.105a2.1 2.1 0 0 1-1.593-.63 2.35 2.35 0 0 1-.594-1.674c0-.756.207-1.35.621-1.773s.972-.63 1.674-.63a2 2 0 0 1 1.566.612 2.45 2.45 0 0 1 .567 1.719 2.42 2.42 0 0 1-.612 1.728 2.13 2.13 0 0 1-1.62.648m.045-4.104a1.37 1.37 0 0 0-1.098.477 1.94 1.94 0 0 0-.405 1.287c0 .54.135.954.405 1.26a1.39 1.39 0 0 0 1.107.477c.468 0 .819-.153 1.08-.45a1.95 1.95 0 0 0 .36-1.305c0-.549-.126-.972-.378-1.287a1.3 1.3 0 0 0-1.062-.459Zm7.076 3.999h-.72v-2.565c0-.954-.351-1.44-1.044-1.44a1.13 1.13 0 0 0-.9.414 1.5 1.5 0 0 0-.351 1.026v2.565h-.72v-4.5h.72v.747h.018a1.62 1.62 0 0 1 1.476-.855q.742 0 1.134.486a2.1 2.1 0 0 1 .387 1.368Z"/></g></g><g data-name="Span" transform="translate(-54.101 -411.83)"><clipPath id="r"><path fill-rule="evenodd" d="M0 841.92h595.2V0H0Z"/></clipPath><g clip-path="url(#r)"><symbol id="s"><path d="M.267 0H0v.063h.267z"/></symbol><use xlink:href="#s" transform="matrix(9 0 0 -9 436.763 529.716)"/></g></g><g data-name="Span" transform="translate(-54.101 -411.83)"><clipPath id="t"><path fill-rule="evenodd" d="M0 841.92h595.2V0H0Z"/></clipPath><g clip-path="url(#t)"><path d="M106.815 542.74h-.72v-2.583c0-.495-.09-.855-.234-1.08-.153-.225-.414-.333-.774-.333a.96.96 0 0 0-.783.423 1.62 1.62 0 0 0-.324 1.008v2.565h-.72v-2.673c0-.882-.342-1.323-1.035-1.323a.95.95 0 0 0-.774.396 1.64 1.64 0 0 0-.306 1.035v2.565h-.72v-4.5h.72v.72h.018a1.53 1.53 0 0 1 1.395-.828 1.296 1.296 0 0 1 1.287.936 1.6 1.6 0 0 1 1.494-.936c.981 0 1.476.612 1.476 1.836zm4.626-.003h-.72v-.702h-.018a1.51 1.51 0 0 1-1.386.81 1.5 1.5 0 0 1-1.053-.36 1.23 1.23 0 0 1-.378-.945c0-.837.495-1.323 1.485-1.467l1.35-.18c0-.783-.315-1.161-.927-1.161a2.2 2.2 0 0 0-1.467.558v-.738a2.8 2.8 0 0 1 1.53-.414c1.053 0 1.584.558 1.584 1.674zm-.72-2.277-1.08.153a1.74 1.74 0 0 0-.765.252c-.171.117-.252.324-.252.63 0 .216.081.396.234.54a.93.93 0 0 0 .63.207c.36 0 .648-.126.882-.378a1.35 1.35 0 0 0 .351-.954zm5.814 2.28h-1.008l-1.989-2.16h-.018v2.16h-.72v-6.66h.72v4.221h.018l1.89-2.061h.945l-2.088 2.169Zm1.056-5.643a.45.45 0 0 1-.468-.468.45.45 0 0 1 .135-.333.45.45 0 0 1 .333-.135.45.45 0 0 1 .333.135.44.44 0 0 1 .135.333.45.45 0 0 1-.126.333.45.45 0 0 1-.342.135m.342 5.643h-.72v-4.5h.72zm5.199 0h-.72v-2.565c0-.954-.351-1.44-1.044-1.44a1.13 1.13 0 0 0-.9.414 1.5 1.5 0 0 0-.351 1.026v2.565h-.72v-4.5h.72v.747h.018a1.62 1.62 0 0 1 1.476-.855q.743 0 1.134.486a2.1 2.1 0 0 1 .387 1.368Zm5.12-.357c0 1.647-.774 2.475-2.358 2.475a3.2 3.2 0 0 1-1.458-.315v-.72a3 3 0 0 0 1.44.423c1.107 0 1.665-.594 1.665-1.773v-.486h-.018a1.68 1.68 0 0 1-1.548.855 1.7 1.7 0 0 1-1.35-.594 2.4 2.4 0 0 1-.513-1.62c0-.756.18-1.368.549-1.818q.554-.675 1.512-.675a1.47 1.47 0 0 1 1.35.729h.009v-.63h.72v4.14m-.72-1.656v-.666a1.287 1.287 0 0 0-1.26-1.314 1.25 1.25 0 0 0-1.053.495 2.16 2.16 0 0 0-.378 1.35c0 .504.117.9.36 1.206a1.18 1.18 0 0 0 .981.459c.405 0 .729-.144.99-.432a1.6 1.6 0 0 0 .36-1.098"/></g></g><g data-name="Span" transform="translate(-54.101 -411.83)"><clipPath id="u"><path fill-rule="evenodd" d="M0 841.92h595.2V0H0Z"/></clipPath><g clip-path="url(#u)"><path d="M129.958 542.837a.48.48 0 0 1-.342-.144.48.48 0 0 1-.144-.351c0-.135.045-.252.144-.342a.45.45 0 0 1 .342-.153.47.47 0 0 1 .36.153.48.48 0 0 1 .135.342.48.48 0 0 1-.144.351.48.48 0 0 1-.351.144"/></g></g><g data-name="Span" transform="translate(-54.101 -411.83)"><clipPath id="v"><path fill-rule="evenodd" d="M0 841.92h595.2V0H0Z"/></clipPath><g clip-path="url(#v)"><path d="M105.598 577.99h-.9l-3.24-5.022a2 2 0 0 1-.216-.396h-.018a6.5 6.5 0 0 1 .036.864v4.554h-.738v-6.3h.954l3.159 4.95a6 6 0 0 1 .252.405h.018a7 7 0 0 1-.045-.927v-4.428h.738zm2.394 0h-.738v-6.3h.738zm5.384-5.634h-1.818v5.634h-.738v-5.634h-1.818v-.666h4.374zm5.821 5.634h-.81l-.684-1.764h-2.664l-.63 1.764h-.819l2.421-6.3h.765zm-1.728-2.43-.99-2.682a2.6 2.6 0 0 1-.09-.423h-.018a2.4 2.4 0 0 1-.108.423l-.981 2.682Zm7.327 1.995a4.2 4.2 0 0 1-2.124.54c-.9 0-1.62-.288-2.187-.873a3.2 3.2 0 0 1-.819-2.304c0-.963.306-1.773.927-2.394a3.15 3.15 0 0 1 2.34-.945c.693 0 1.26.126 1.728.333v.819a3.3 3.3 0 0 0-1.809-.477 2.26 2.26 0 0 0-1.737.72 2.66 2.66 0 0 0-.675 1.89c0 .81.207 1.431.63 1.89a2.2 2.2 0 0 0 1.71.675c.486 0 .909-.09 1.269-.288v-1.773h-1.377v-.666h2.115v2.853Zm7.65.432h-.72v-.765a1.67 1.67 0 0 1-1.557.873 1.7 1.7 0 0 1-1.35-.603 2.5 2.5 0 0 1-.513-1.647 2.7 2.7 0 0 1 .567-1.791c.369-.45.873-.666 1.494-.666s1.071.243 1.35.72h.009v-2.781h.72zm-.72-2.034v-.666c0-.36-.117-.666-.36-.918a1.2 1.2 0 0 0-.918-.378 1.24 1.24 0 0 0-1.035.486 2.1 2.1 0 0 0-.378 1.332c0 .522.117.927.36 1.233a1.2 1.2 0 0 0 .981.45c.405 0 .729-.144.981-.441a1.62 1.62 0 0 0 .369-1.098m4.068 2.142a2.1 2.1 0 0 1-1.593-.63 2.35 2.35 0 0 1-.594-1.674c0-.756.207-1.35.621-1.773s.972-.63 1.674-.63a2 2 0 0 1 1.566.612 2.45 2.45 0 0 1 .567 1.719 2.42 2.42 0 0 1-.612 1.728 2.13 2.13 0 0 1-1.62.648m.045-4.104a1.37 1.37 0 0 0-1.098.477 1.94 1.94 0 0 0-.405 1.287c0 .54.135.954.405 1.26a1.39 1.39 0 0 0 1.107.477c.468 0 .819-.153 1.08-.45a1.95 1.95 0 0 0 .36-1.305c0-.549-.126-.972-.378-1.287a1.3 1.3 0 0 0-1.062-.459Zm6.956 1.926h-3.177a1.68 1.68 0 0 0 .405 1.17 1.4 1.4 0 0 0 1.062.405c.504 0 .972-.171 1.395-.504v.675a2.6 2.6 0 0 1-1.566.432 1.9 1.9 0 0 1-1.494-.612 2.52 2.52 0 0 1-.549-1.728c0-.702.198-1.26.594-1.71a1.9 1.9 0 0 1 1.476-.657 1.7 1.7 0 0 1 1.368.567 2.4 2.4 0 0 1 .486 1.584zm-.738-.612a1.46 1.46 0 0 0-.306-.963 1.02 1.02 0 0 0-.819-.36 1.17 1.17 0 0 0-.864.369 1.66 1.66 0 0 0-.441.954Zm1.512 2.52v-.774a2.13 2.13 0 0 0 1.296.441c.63 0 .954-.216.954-.63a.53.53 0 0 0-.09-.306.8.8 0 0 0-.216-.225 1.5 1.5 0 0 0-.324-.18 6 6 0 0 1-.927-.396 1.7 1.7 0 0 1-.378-.27 1.1 1.1 0 0 1-.234-.351 1.26 1.26 0 0 1 .072-1.008 1.3 1.3 0 0 1 .387-.405 1.8 1.8 0 0 1 .549-.252 2.58 2.58 0 0 1 1.701.117v.729a2.03 2.03 0 0 0-1.53-.27.9.9 0 0 0-.27.108.6.6 0 0 0-.18.216.53.53 0 0 0-.063.252.6.6 0 0 0 .063.297.7.7 0 0 0 .18.207 1.4 1.4 0 0 0 .315.18l.387.153a5 5 0 0 1 .54.234 1.8 1.8 0 0 1 .405.27 1 1 0 0 1 .252.36 1.1 1.1 0 0 1 .09.459 1.1 1.1 0 0 1-.135.594 1.24 1.24 0 0 1-.414.396 1.8 1.8 0 0 1-.558.243 2.8 2.8 0 0 1-.666.081 2.56 2.56 0 0 1-1.206-.27m10.478.165h-.72v-2.565c0-.954-.351-1.44-1.044-1.44a1.13 1.13 0 0 0-.9.414 1.5 1.5 0 0 0-.351 1.026v2.565h-.72v-4.5h.72v.747h.018a1.62 1.62 0 0 1 1.476-.855q.743 0 1.134.486a2.1 2.1 0 0 1 .387 1.368Zm3.185.105a2.1 2.1 0 0 1-1.593-.63 2.35 2.35 0 0 1-.594-1.674c0-.756.207-1.35.621-1.773s.972-.63 1.674-.63a2 2 0 0 1 1.566.612 2.45 2.45 0 0 1 .567 1.719 2.42 2.42 0 0 1-.612 1.728 2.13 2.13 0 0 1-1.62.648m.045-4.104a1.37 1.37 0 0 0-1.098.477 1.94 1.94 0 0 0-.405 1.287c0 .54.135.954.405 1.26a1.39 1.39 0 0 0 1.107.477c.468 0 .819-.153 1.08-.45a1.95 1.95 0 0 0 .36-1.305c0-.549-.126-.972-.378-1.287a1.3 1.3 0 0 0-1.062-.459Zm5.428 3.952a1.4 1.4 0 0 1-.675.144c-.783 0-1.179-.441-1.179-1.314v-2.664h-.774v-.621h.774v-1.098l.72-.234v1.341h1.134v.612h-1.134v2.529c0 .306.054.522.153.648s.27.198.513.198c.18 0 .333-.054.468-.153zm5.77-3.724a.9.9 0 0 0-.54-.144c-.306 0-.567.135-.774.432a2.03 2.03 0 0 0-.306 1.188v2.295h-.72v-4.5h.72v.927h.018a1.56 1.56 0 0 1 .468-.738c.216-.18.45-.27.711-.27a1.2 1.2 0 0 1 .423.063Zm4.408 1.698h-3.177a1.68 1.68 0 0 0 .405 1.17 1.4 1.4 0 0 0 1.062.405c.504 0 .972-.171 1.395-.504v.675a2.6 2.6 0 0 1-1.566.432 1.9 1.9 0 0 1-1.494-.612 2.52 2.52 0 0 1-.549-1.728c0-.702.198-1.26.594-1.71a1.9 1.9 0 0 1 1.476-.657 1.7 1.7 0 0 1 1.368.567 2.4 2.4 0 0 1 .486 1.584zm-.738-.612a1.46 1.46 0 0 0-.306-.963 1.02 1.02 0 0 0-.819-.36 1.17 1.17 0 0 0-.864.369 1.66 1.66 0 0 0-.441.954Zm4.86 2.475a2.34 2.34 0 0 1-1.233.315 2.05 2.05 0 0 1-1.557-.63 2.3 2.3 0 0 1-.585-1.62c0-.738.216-1.332.63-1.782.432-.45.999-.675 1.71-.675a2.4 2.4 0 0 1 1.044.207v.747a1.84 1.84 0 0 0-1.08-.36 1.45 1.45 0 0 0-1.116.513 1.87 1.87 0 0 0-.45 1.287 1.8 1.8 0 0 0 .414 1.251 1.44 1.44 0 0 0 1.116.45 1.8 1.8 0 0 0 1.107-.387Zm3.006.315a2.1 2.1 0 0 1-1.593-.63 2.35 2.35 0 0 1-.594-1.674c0-.756.207-1.35.621-1.773s.972-.63 1.674-.63a2 2 0 0 1 1.566.612 2.45 2.45 0 0 1 .567 1.719 2.42 2.42 0 0 1-.612 1.728 2.13 2.13 0 0 1-1.62.648m.045-4.104a1.37 1.37 0 0 0-1.098.477 1.94 1.94 0 0 0-.405 1.287c0 .54.135.954.405 1.26a1.39 1.39 0 0 0 1.107.477c.468 0 .819-.153 1.08-.45a1.95 1.95 0 0 0 .36-1.305c0-.549-.126-.972-.378-1.287a1.3 1.3 0 0 0-1.062-.459Zm9.731 3.999h-.72v-2.583c0-.495-.09-.855-.234-1.08-.153-.225-.414-.333-.774-.333a.96.96 0 0 0-.783.423 1.62 1.62 0 0 0-.324 1.008v2.565h-.72v-2.673c0-.882-.342-1.323-1.035-1.323a.95.95 0 0 0-.774.396 1.64 1.64 0 0 0-.306 1.035v2.565h-.72v-4.5h.72v.72h.018a1.53 1.53 0 0 1 1.395-.828 1.296 1.296 0 0 1 1.287.936 1.6 1.6 0 0 1 1.494-.936c.981 0 1.476.612 1.476 1.836zm7.794 0h-.72v-2.583c0-.495-.09-.855-.234-1.08-.153-.225-.414-.333-.774-.333a.96.96 0 0 0-.783.423 1.62 1.62 0 0 0-.324 1.008v2.565h-.72v-2.673c0-.882-.342-1.323-1.035-1.323a.95.95 0 0 0-.774.396 1.64 1.64 0 0 0-.306 1.035v2.565h-.72v-4.5h.72v.72h.018a1.53 1.53 0 0 1 1.395-.828 1.296 1.296 0 0 1 1.287.936 1.6 1.6 0 0 1 1.494-.936c.981 0 1.476.612 1.476 1.836zm5.02-2.073h-3.177a1.68 1.68 0 0 0 .405 1.17 1.4 1.4 0 0 0 1.062.405c.504 0 .972-.171 1.395-.504v.675a2.6 2.6 0 0 1-1.566.432 1.9 1.9 0 0 1-1.494-.612 2.52 2.52 0 0 1-.549-1.728c0-.702.198-1.26.594-1.71a1.9 1.9 0 0 1 1.476-.657 1.7 1.7 0 0 1 1.368.567 2.4 2.4 0 0 1 .486 1.584zm-.738-.612a1.46 1.46 0 0 0-.306-.963 1.02 1.02 0 0 0-.819-.36 1.17 1.17 0 0 0-.864.369 1.66 1.66 0 0 0-.441.954Zm5.537 2.685h-.72v-2.565c0-.954-.351-1.44-1.044-1.44a1.13 1.13 0 0 0-.9.414 1.5 1.5 0 0 0-.351 1.026v2.565h-.72v-4.5h.72v.747h.018a1.62 1.62 0 0 1 1.476-.855q.743 0 1.134.486a2.1 2.1 0 0 1 .387 1.368Zm5.137-.003h-.72v-.765a1.67 1.67 0 0 1-1.557.873 1.7 1.7 0 0 1-1.35-.603 2.5 2.5 0 0 1-.513-1.647 2.7 2.7 0 0 1 .567-1.791c.369-.45.873-.666 1.494-.666s1.071.243 1.35.72h.009v-2.781h.72zm-.72-2.034v-.666c0-.36-.117-.666-.36-.918a1.2 1.2 0 0 0-.918-.378 1.24 1.24 0 0 0-1.035.486 2.1 2.1 0 0 0-.378 1.332c0 .522.117.927.36 1.233a1.2 1.2 0 0 0 .981.45c.405 0 .729-.144.981-.441a1.62 1.62 0 0 0 .369-1.098m6.769 1.99a1.4 1.4 0 0 1-.675.144c-.783 0-1.179-.441-1.179-1.314v-2.664h-.774v-.621h.774v-1.098l.72-.234v1.341h1.134v.612h-1.134v2.529c0 .306.054.522.153.648s.27.198.513.198c.18 0 .333-.054.468-.153zm4.645.047h-.72v-2.592c0-.936-.351-1.404-1.044-1.404a1.13 1.13 0 0 0-.891.396 1.5 1.5 0 0 0-.36 1.053v2.547h-.72v-6.66h.72v2.907h.018a1.64 1.64 0 0 1 1.476-.855c1.026 0 1.521.612 1.521 1.836zm4.921-2.073h-3.177a1.68 1.68 0 0 0 .405 1.17 1.4 1.4 0 0 0 1.062.405c.504 0 .972-.171 1.395-.504v.675a2.6 2.6 0 0 1-1.566.432 1.9 1.9 0 0 1-1.494-.612 2.52 2.52 0 0 1-.549-1.728c0-.702.198-1.26.594-1.71a1.9 1.9 0 0 1 1.476-.657 1.7 1.7 0 0 1 1.368.567 2.4 2.4 0 0 1 .486 1.584zm-.738-.612a1.46 1.46 0 0 0-.306-.963 1.02 1.02 0 0 0-.819-.36 1.17 1.17 0 0 0-.864.369 1.66 1.66 0 0 0-.441.954Zm4.801-2.958a.45.45 0 0 1-.468-.468.45.45 0 0 1 .135-.333.45.45 0 0 1 .333-.135.45.45 0 0 1 .333.135.44.44 0 0 1 .135.333.45.45 0 0 1-.126.333.45.45 0 0 1-.342.135m.342 5.643h-.72v-4.5h.72zm5.2 0h-.72v-2.565c0-.954-.351-1.44-1.044-1.44a1.13 1.13 0 0 0-.9.414 1.5 1.5 0 0 0-.351 1.026v2.565h-.72v-4.5h.72v.747h.018a1.62 1.62 0 0 1 1.476-.855q.742 0 1.134.486a2.1 2.1 0 0 1 .387 1.368Zm3.374-.047a1.4 1.4 0 0 1-.675.144c-.783 0-1.179-.441-1.179-1.314v-2.664h-.774v-.621h.774v-1.098l.72-.234v1.341h1.134v.612h-1.134v2.529c0 .306.054.522.153.648s.27.198.513.198c.18 0 .333-.054.468-.153zm4.526-2.026h-3.177a1.68 1.68 0 0 0 .405 1.17 1.4 1.4 0 0 0 1.062.405c.504 0 .972-.171 1.395-.504v.675a2.6 2.6 0 0 1-1.566.432 1.9 1.9 0 0 1-1.494-.612 2.52 2.52 0 0 1-.549-1.728c0-.702.198-1.26.594-1.71a1.9 1.9 0 0 1 1.476-.657 1.7 1.7 0 0 1 1.368.567 2.4 2.4 0 0 1 .486 1.584zm-.738-.612a1.46 1.46 0 0 0-.306-.963 1.02 1.02 0 0 0-.819-.36 1.17 1.17 0 0 0-.864.369 1.66 1.66 0 0 0-.441.954Zm4.142-1.086a.9.9 0 0 0-.54-.144c-.306 0-.567.135-.774.432a2.03 2.03 0 0 0-.306 1.188v2.295h-.72v-4.5h.72v.927h.018a1.56 1.56 0 0 1 .468-.738c.216-.18.45-.27.711-.27a1.2 1.2 0 0 1 .423.063Zm4.327-.729-1.791 4.5h-.702l-1.71-4.5h.792l1.143 3.267a3 3 0 0 1 .153.63h.018a3 3 0 0 1 .144-.612l1.197-3.285Zm4.392 2.427h-3.177a1.68 1.68 0 0 0 .405 1.17 1.4 1.4 0 0 0 1.062.405c.504 0 .972-.171 1.395-.504v.675a2.6 2.6 0 0 1-1.566.432 1.9 1.9 0 0 1-1.494-.612 2.52 2.52 0 0 1-.549-1.728c0-.702.198-1.26.594-1.71a1.9 1.9 0 0 1 1.476-.657 1.7 1.7 0 0 1 1.368.567 2.4 2.4 0 0 1 .486 1.584zm-.738-.612a1.46 1.46 0 0 0-.306-.963 1.02 1.02 0 0 0-.819-.36 1.17 1.17 0 0 0-.864.369 1.66 1.66 0 0 0-.441.954Zm5.536 2.685h-.72v-2.565c0-.954-.351-1.44-1.044-1.44a1.13 1.13 0 0 0-.9.414 1.5 1.5 0 0 0-.351 1.026v2.565h-.72v-4.5h.72v.747h.018a1.62 1.62 0 0 1 1.476-.855q.743 0 1.134.486a2.1 2.1 0 0 1 .387 1.368Zm3.393-.047a1.4 1.4 0 0 1-.675.144c-.783 0-1.179-.441-1.179-1.314v-2.664h-.774v-.621h.774v-1.098l.72-.234v1.341h1.134v.612h-1.134v2.529c0 .306.054.522.153.648s.27.198.513.198c.18 0 .333-.054.468-.153zm1.28-5.596a.45.45 0 0 1-.468-.468.45.45 0 0 1 .135-.333.45.45 0 0 1 .333-.135.45.45 0 0 1 .333.135.44.44 0 0 1 .135.333.45.45 0 0 1-.126.333.45.45 0 0 1-.342.135m.342 5.643h-.72v-4.5h.72zm3.345.105a2.1 2.1 0 0 1-1.593-.63 2.35 2.35 0 0 1-.594-1.674c0-.756.207-1.35.621-1.773s.972-.63 1.674-.63a2 2 0 0 1 1.566.612 2.45 2.45 0 0 1 .567 1.719 2.42 2.42 0 0 1-.612 1.728 2.13 2.13 0 0 1-1.62.648m.045-4.104a1.37 1.37 0 0 0-1.098.477 1.94 1.94 0 0 0-.405 1.287c0 .54.135.954.405 1.26a1.39 1.39 0 0 0 1.107.477c.468 0 .819-.153 1.08-.45a1.95 1.95 0 0 0 .36-1.305c0-.549-.126-.972-.378-1.287a1.3 1.3 0 0 0-1.062-.459Zm7.076 3.999h-.72v-2.565c0-.954-.351-1.44-1.044-1.44a1.13 1.13 0 0 0-.9.414 1.5 1.5 0 0 0-.351 1.026v2.565h-.72v-4.5h.72v.747h.018a1.62 1.62 0 0 1 1.476-.855q.743 0 1.134.486a2.1 2.1 0 0 1 .387 1.368Zm5.942 1.433h-.657a5.62 5.62 0 0 1-1.35-3.834c0-1.53.45-2.826 1.359-3.906h.657a5.92 5.92 0 0 0-1.386 3.897c0 1.467.459 2.745 1.377 3.843m1.6-2.084h-.018v.648h-.72v-6.66h.72v2.952h.018c.36-.594.873-.9 1.557-.9a1.64 1.64 0 0 1 1.35.612 2.48 2.48 0 0 1 .495 1.62 2.8 2.8 0 0 1-.549 1.8 1.83 1.83 0 0 1-1.503.684 1.48 1.48 0 0 1-1.35-.756m-.018-1.818v.63a1.35 1.35 0 0 0 .36.954 1.22 1.22 0 0 0 .927.387c.432 0 .774-.171 1.017-.504a2.3 2.3 0 0 0 .378-1.395c0-.495-.117-.9-.351-1.17a1.15 1.15 0 0 0-.936-.432 1.28 1.28 0 0 0-1.008.441 1.6 1.6 0 0 0-.387 1.089m8.21 2.466h-.72v-.702h-.018a1.48 1.48 0 0 1-1.386.81c-1.08 0-1.611-.639-1.611-1.917v-2.691h.72v2.574q0 1.431 1.08 1.431c.36 0 .648-.135.873-.387a1.5 1.5 0 0 0 .342-1.026v-2.592h.72zm3.48-.044a1.4 1.4 0 0 1-.675.144c-.783 0-1.179-.441-1.179-1.314v-2.664h-.774v-.621h.774v-1.098l.72-.234v1.341h1.134v.612h-1.134v2.529c0 .306.054.522.153.648s.27.198.513.198c.18 0 .333-.054.468-.153zm5.508 0a1.4 1.4 0 0 1-.675.144c-.783 0-1.179-.441-1.179-1.314v-2.664h-.774v-.621h.774v-1.098l.72-.234v1.341h1.134v.612h-1.134v2.529c0 .306.054.522.153.648s.27.198.513.198c.18 0 .333-.054.468-.153zm4.645.047h-.72v-2.592c0-.936-.351-1.404-1.044-1.404a1.13 1.13 0 0 0-.891.396 1.5 1.5 0 0 0-.36 1.053v2.547h-.72v-6.66h.72v2.907h.018a1.64 1.64 0 0 1 1.476-.855c1.026 0 1.521.612 1.521 1.836zm4.921-2.073h-3.177a1.68 1.68 0 0 0 .405 1.17 1.4 1.4 0 0 0 1.062.405c.504 0 .972-.171 1.395-.504v.675a2.6 2.6 0 0 1-1.566.432 1.9 1.9 0 0 1-1.494-.612 2.52 2.52 0 0 1-.549-1.728c0-.702.198-1.26.594-1.71a1.9 1.9 0 0 1 1.476-.657 1.7 1.7 0 0 1 1.368.567 2.4 2.4 0 0 1 .486 1.584zm-.738-.612a1.46 1.46 0 0 0-.306-.963 1.02 1.02 0 0 0-.819-.36 1.17 1.17 0 0 0-.864.369 1.66 1.66 0 0 0-.441.954Zm7.497 2.475a2.34 2.34 0 0 1-1.233.315 2.05 2.05 0 0 1-1.557-.63 2.3 2.3 0 0 1-.585-1.62c0-.738.216-1.332.63-1.782.432-.45.999-.675 1.71-.675a2.4 2.4 0 0 1 1.044.207v.747a1.84 1.84 0 0 0-1.08-.36 1.45 1.45 0 0 0-1.116.513 1.87 1.87 0 0 0-.45 1.287 1.8 1.8 0 0 0 .414 1.251 1.44 1.44 0 0 0 1.116.45 1.8 1.8 0 0 0 1.107-.387Zm3.005.315a2.1 2.1 0 0 1-1.593-.63 2.35 2.35 0 0 1-.594-1.674c0-.756.207-1.35.621-1.773s.972-.63 1.674-.63a2 2 0 0 1 1.566.612 2.45 2.45 0 0 1 .567 1.719 2.42 2.42 0 0 1-.612 1.728 2.13 2.13 0 0 1-1.62.648m.045-4.104a1.37 1.37 0 0 0-1.098.477 1.94 1.94 0 0 0-.405 1.287c0 .54.135.954.405 1.26a1.39 1.39 0 0 0 1.107.477c.468 0 .819-.153 1.08-.45a1.95 1.95 0 0 0 .36-1.305c0-.549-.126-.972-.378-1.287a1.3 1.3 0 0 0-1.062-.459Zm9.732 3.999h-.72v-2.583c0-.495-.09-.855-.234-1.08-.153-.225-.414-.333-.774-.333a.96.96 0 0 0-.783.423 1.62 1.62 0 0 0-.324 1.008v2.565h-.72v-2.673c0-.882-.342-1.323-1.035-1.323a.95.95 0 0 0-.774.396 1.64 1.64 0 0 0-.306 1.035v2.565h-.72v-4.5h.72v.72h.018a1.53 1.53 0 0 1 1.395-.828 1.296 1.296 0 0 1 1.287.936 1.6 1.6 0 0 1 1.494-.936c.981 0 1.476.612 1.476 1.836zm2.142-.648h-.018v2.718h-.72v-6.57h.72v.792h.018c.36-.594.873-.9 1.557-.9a1.65 1.65 0 0 1 1.35.612 2.5 2.5 0 0 1 .495 1.62 2.8 2.8 0 0 1-.549 1.8 1.83 1.83 0 0 1-1.503.684 1.5 1.5 0 0 1-1.35-.756m-.018-1.818v.63a1.35 1.35 0 0 0 .36.936 1.22 1.22 0 0 0 .927.396c.423 0 .774-.162 1.017-.486a2.3 2.3 0 0 0 .378-1.395c0-.504-.117-.9-.351-1.179a1.15 1.15 0 0 0-.936-.423 1.28 1.28 0 0 0-1.008.441 1.6 1.6 0 0 0-.387 1.08m7.793 2.463h-.72v-.702h-.018a1.51 1.51 0 0 1-1.386.81 1.5 1.5 0 0 1-1.053-.36 1.23 1.23 0 0 1-.378-.945c0-.837.495-1.323 1.485-1.467l1.35-.18c0-.783-.315-1.161-.927-1.161a2.2 2.2 0 0 0-1.467.558v-.738a2.8 2.8 0 0 1 1.53-.414c1.053 0 1.584.558 1.584 1.674zm-.72-2.277-1.08.153a1.74 1.74 0 0 0-.765.252c-.171.117-.252.324-.252.63 0 .216.081.396.234.54a.93.93 0 0 0 .63.207c.36 0 .648-.126.882-.378a1.35 1.35 0 0 0 .351-.954zm4.383-1.491a.9.9 0 0 0-.54-.144c-.306 0-.567.135-.774.432a2.03 2.03 0 0 0-.306 1.188v2.295h-.72v-4.5h.72v.927h.018a1.56 1.56 0 0 1 .468-.738c.216-.18.45-.27.711-.27a1.2 1.2 0 0 1 .423.063Zm1.164-1.872a.45.45 0 0 1-.468-.468.45.45 0 0 1 .135-.333.45.45 0 0 1 .333-.135.45.45 0 0 1 .333.135.44.44 0 0 1 .135.333.45.45 0 0 1-.126.333.45.45 0 0 1-.342.135m.342 5.643h-.72v-4.5h.72zm1.165-.165v-.774a2.13 2.13 0 0 0 1.296.441c.63 0 .954-.216.954-.63a.53.53 0 0 0-.09-.306.8.8 0 0 0-.216-.225 1.5 1.5 0 0 0-.324-.18 6 6 0 0 1-.927-.396 1.7 1.7 0 0 1-.378-.27 1.1 1.1 0 0 1-.234-.351 1.26 1.26 0 0 1 .072-1.008 1.3 1.3 0 0 1 .387-.405 1.8 1.8 0 0 1 .549-.252 2.58 2.58 0 0 1 1.701.117v.729a2.03 2.03 0 0 0-1.53-.27.9.9 0 0 0-.27.108.6.6 0 0 0-.18.216.53.53 0 0 0-.063.252.6.6 0 0 0 .063.297.7.7 0 0 0 .18.207 1.4 1.4 0 0 0 .315.18l.387.153a5 5 0 0 1 .54.234 1.8 1.8 0 0 1 .405.27 1 1 0 0 1 .252.36 1.1 1.1 0 0 1 .09.459 1.1 1.1 0 0 1-.135.594 1.24 1.24 0 0 1-.414.396 1.8 1.8 0 0 1-.558.243 2.8 2.8 0 0 1-.666.081 2.56 2.56 0 0 1-1.206-.27m5.968.27a2.1 2.1 0 0 1-1.593-.63 2.35 2.35 0 0 1-.594-1.674c0-.756.207-1.35.621-1.773s.972-.63 1.674-.63a2 2 0 0 1 1.566.612 2.45 2.45 0 0 1 .567 1.719 2.42 2.42 0 0 1-.612 1.728 2.13 2.13 0 0 1-1.62.648m.045-4.104a1.37 1.37 0 0 0-1.098.477 1.94 1.94 0 0 0-.405 1.287c0 .54.135.954.405 1.26a1.39 1.39 0 0 0 1.107.477c.468 0 .819-.153 1.08-.45a1.95 1.95 0 0 0 .36-1.305c0-.549-.126-.972-.378-1.287a1.3 1.3 0 0 0-1.062-.459Zm7.093 3.999h-.72v-2.565c0-.954-.351-1.44-1.044-1.44a1.13 1.13 0 0 0-.9.414 1.5 1.5 0 0 0-.351 1.026v2.565h-.72v-4.5h.72v.747h.018a1.62 1.62 0 0 1 1.476-.855q.742 0 1.134.486a2.1 2.1 0 0 1 .387 1.368Zm1.962-1-.702 2.16h-.513l.513-2.16zm4.143-4.643a.45.45 0 0 1-.468-.468.45.45 0 0 1 .135-.333.45.45 0 0 1 .333-.135.45.45 0 0 1 .333.135.44.44 0 0 1 .135.333.45.45 0 0 1-.126.333.45.45 0 0 1-.342.135m.342 5.643h-.72v-4.5h.72zm3.686-6.03a.96.96 0 0 0-.468-.117c-.513 0-.765.315-.765.954v.693h1.053v.612h-1.053v3.888h-.72v-3.888h-.765v-.612h.765v-.729c0-.468.144-.846.414-1.116s.612-.414 1.017-.414a1.4 1.4 0 0 1 .522.081Zm5.375 2.259a.9.9 0 0 0-.54-.144c-.306 0-.567.135-.774.432a2.03 2.03 0 0 0-.306 1.188v2.295h-.72v-4.5h.72v.927h.018a1.56 1.56 0 0 1 .468-.738c.216-.18.45-.27.711-.27a1.2 1.2 0 0 1 .423.063Zm4.407 1.698h-3.177a1.68 1.68 0 0 0 .405 1.17 1.4 1.4 0 0 0 1.062.405c.504 0 .972-.171 1.395-.504v.675a2.6 2.6 0 0 1-1.566.432 1.9 1.9 0 0 1-1.494-.612 2.52 2.52 0 0 1-.549-1.728c0-.702.198-1.26.594-1.71a1.9 1.9 0 0 1 1.476-.657 1.7 1.7 0 0 1 1.368.567 2.4 2.4 0 0 1 .486 1.584zm-.738-.612a1.46 1.46 0 0 0-.306-.963 1.02 1.02 0 0 0-.819-.36 1.17 1.17 0 0 0-.864.369 1.66 1.66 0 0 0-.441.954Zm2.514 2.685h-.72v-6.66h.72zm5.074-2.073h-3.177a1.68 1.68 0 0 0 .405 1.17 1.4 1.4 0 0 0 1.062.405c.504 0 .972-.171 1.395-.504v.675a2.6 2.6 0 0 1-1.566.432 1.9 1.9 0 0 1-1.494-.612 2.52 2.52 0 0 1-.549-1.728c0-.702.198-1.26.594-1.71a1.9 1.9 0 0 1 1.476-.657 1.7 1.7 0 0 1 1.368.567 2.4 2.4 0 0 1 .486 1.584zm-.738-.612a1.46 1.46 0 0 0-.306-.963 1.02 1.02 0 0 0-.819-.36 1.17 1.17 0 0 0-.864.369 1.66 1.66 0 0 0-.441.954Zm5.319-1.815-1.791 4.5h-.702l-1.71-4.5h.792l1.143 3.267a3 3 0 0 1 .153.63h.018a3 3 0 0 1 .144-.612l1.197-3.285Zm3.997 4.497h-.72v-.702h-.018a1.51 1.51 0 0 1-1.386.81 1.5 1.5 0 0 1-1.053-.36 1.23 1.23 0 0 1-.378-.945c0-.837.495-1.323 1.485-1.467l1.35-.18c0-.783-.315-1.161-.927-1.161a2.2 2.2 0 0 0-1.467.558v-.738a2.8 2.8 0 0 1 1.53-.414c1.053 0 1.584.558 1.584 1.674zm-.72-2.277-1.08.153a1.74 1.74 0 0 0-.765.252c-.171.117-.252.324-.252.63 0 .216.081.396.234.54a.93.93 0 0 0 .63.207c.36 0 .648-.126.882-.378a1.35 1.35 0 0 0 .351-.954zm5.815 2.28h-.72v-2.565c0-.954-.351-1.44-1.044-1.44a1.13 1.13 0 0 0-.9.414 1.5 1.5 0 0 0-.351 1.026v2.565h-.72v-4.5h.72v.747h.018a1.62 1.62 0 0 1 1.476-.855q.743 0 1.134.486a2.1 2.1 0 0 1 .387 1.368Zm3.383-.047a1.4 1.4 0 0 1-.675.144c-.783 0-1.179-.441-1.179-1.314v-2.664h-.774v-.621h.774v-1.098l.72-.234v1.341h1.134v.612h-1.134v2.529c0 .306.054.522.153.648s.27.198.513.198c.18 0 .333-.054.468-.153zm.925 1.48h-.639a5.82 5.82 0 0 0 1.368-3.843 5.92 5.92 0 0 0-1.377-3.897h.648a5.8 5.8 0 0 1 1.377 3.906 5.6 5.6 0 0 1-1.377 3.834"/></g></g><path fill="#fff" fill-rule="evenodd" d="M435.739 79.99a6.901 6.901 0 0 1 13.8 0 6.901 6.901 0 0 1-13.8 0m0 39.66c0-3.78 3.09-6.84 6.9-6.84s6.9 3.06 6.9 6.84-3.09 6.84-6.9 6.84-6.9-3.06-6.9-6.84m0 40.86a6.901 6.901 0 0 1 13.8 0 6.901 6.901 0 0 1-13.8 0" data-name="P"/><g data-name="Artifact" transform="translate(-48.772 -411.765)"><clipPath id="w"><path fill-rule="evenodd" d="M0 841.92h595.2V0H0Z"/></clipPath><g clip-path="url(#w)"><symbol id="x"><path d="M.54.235A.2.2 0 0 0 .52.138.2.2 0 0 0 .462.063a.3.3 0 0 0-.09-.047.65.65 0 0 0-.371.03L0 .204h.018A.5.5 0 0 1 .11.16.3.3 0 0 1 .267.146a.1.1 0 0 1 .052.02q.017.012.027.03a.1.1 0 0 1 .01.05.1.1 0 0 1-.014.05.1.1 0 0 1-.038.025.2.2 0 0 1-.056.01H.16V.46h.028q.033 0 .061.002a.2.2 0 0 1 .047.012.1.1 0 0 1 .03.026.1.1 0 0 1 .012.045.06.06 0 0 1-.01.036.1.1 0 0 1-.026.022.1.1 0 0 1-.04.011.3.3 0 0 1-.095-.003.4.4 0 0 1-.13-.055H.02V.71a.6.6 0 0 0 .344.035.3.3 0 0 0 .081-.033.15.15 0 0 0 .056-.058.2.2 0 0 0 .019-.08.17.17 0 0 0-.037-.109.16.16 0 0 0-.094-.06V.4A.2.2 0 0 0 .44.386a.15.15 0 0 0 .085-.08.2.2 0 0 0 .015-.07Z"/></symbol><symbol id="y"><path d="M.575.22A.2.2 0 0 0 .5.061.3.3 0 0 0 .409.018.4.4 0 0 0 .287 0a.5.5 0 0 0-.129.017.3.3 0 0 0-.09.045.2.2 0 0 0-.051.068A.2.2 0 0 0 0 .213q0 .063.034.104a.3.3 0 0 0 .1.07v.002a.2.2 0 0 0-.09.076.2.2 0 0 0-.024.099q0 .04.017.075.018.036.053.063.033.027.084.042.05.016.115.016A.4.4 0 0 0 .406.746.3.3 0 0 0 .488.708.16.16 0 0 0 .557.577a.16.16 0 0 0-.03-.094.2.2 0 0 0-.092-.07V.41A.24.24 0 0 0 .54.333.2.2 0 0 0 .575.219M.38.555a.08.08 0 0 1-.025.06.1.1 0 0 1-.066.022.1.1 0 0 1-.065-.02A.06.06 0 0 1 .2.567Q.2.537.214.52A.14.14 0 0 1 .261.487L.293.473l.05-.019A.15.15 0 0 1 .38.555M.395.211A.1.1 0 0 1 .38.266.2.2 0 0 1 .315.31L.227.346A.2.2 0 0 1 .193.299.13.13 0 0 1 .178.237q0-.05.032-.08A.12.12 0 0 1 .295.124q.014 0 .033.004A.1.1 0 0 1 .386.17a.1.1 0 0 1 .009.041"/></symbol><use xlink:href="#x" fill="#3faf8b" transform="matrix(8.04 0 0 -8.04 560.304 817.322)"/><use xlink:href="#y" fill="#3faf8b" transform="matrix(8.04 0 0 -8.04 565.307 817.333)"/></g></g></svg>