<svg xmlns="http://www.w3.org/2000/svg" width="1280" height="720" overflow="hidden"><path fill="#fff" d="M0 0h1280v720H0z"/><path fill="#112d4e" fill-rule="evenodd" stroke="#042433" stroke-miterlimit="8" stroke-width="3" d="M42.5 275.667a8.167 8.167 0 0 1 8.167-8.167h176.666a8.166 8.166 0 0 1 8.167 8.167v32.666a8.166 8.166 0 0 1-8.167 8.167H50.667a8.167 8.167 0 0 1-8.167-8.167Z"/><text fill="#fff" font-family="Cambria Math,Cambria Math_MSFontService,sans-serif" font-size="27" font-weight="400" transform="translate(73.135 302)">Susceptible</text><path fill="#3f72af" fill-rule="evenodd" stroke="#042433" stroke-miterlimit="8" stroke-width="3" d="M289.5 148.667a8.166 8.166 0 0 1 8.167-8.167h175.666a8.166 8.166 0 0 1 8.167 8.167v32.666a8.166 8.166 0 0 1-8.167 8.167H297.667a8.166 8.166 0 0 1-8.167-8.167Z"/><text fill="#fff" font-family="Cambria Math,Cambria Math_MSFontService,sans-serif" font-size="27" font-weight="400" transform="translate(323.422 174)">No vaccine</text><path fill="#3f72af" fill-rule="evenodd" stroke="#042433" stroke-miterlimit="8" stroke-width="3" d="M289.5 403.667a8.166 8.166 0 0 1 8.167-8.167h175.666a8.166 8.166 0 0 1 8.167 8.167v32.666a8.166 8.166 0 0 1-8.167 8.167H297.667a8.166 8.166 0 0 1-8.167-8.167Z"/><text fill="#fff" font-family="Cambria Math,Cambria Math_MSFontService,sans-serif" font-size="27" font-weight="400" transform="translate(341.665 430)">Vaccine</text><path fill="#dbe2ef" fill-rule="evenodd" stroke="#042433" stroke-miterlimit="8" stroke-width="3" d="M530.5 76.834a8.334 8.334 0 0 1 8.334-8.334h176.333a8.333 8.333 0 0 1 8.333 8.334v33.332a8.333 8.333 0 0 1-8.333 8.334H538.834a8.334 8.334 0 0 1-8.334-8.334Z"/><text font-family="Cambria Math,Cambria Math_MSFontService,sans-serif" font-size="27" font-weight="400" transform="translate(575.549 103)">Infection</text><path fill="#f9f7f7" fill-rule="evenodd" stroke="#042433" stroke-miterlimit="8" stroke-width="3" d="M530.5 220.834a8.334 8.334 0 0 1 8.334-8.334h176.333a8.333 8.333 0 0 1 8.333 8.334v33.332a8.333 8.333 0 0 1-8.333 8.334H538.834a8.334 8.334 0 0 1-8.334-8.334Z"/><text font-family="Cambria Math,Cambria Math_MSFontService,sans-serif" font-size="27" font-weight="400" transform="translate(557.132 247)">No infection</text><path fill="#dbe2ef" fill-rule="evenodd" stroke="#042433" stroke-miterlimit="8" stroke-width="3" d="M530.5 338.667a8.166 8.166 0 0 1 8.167-8.167h176.666a8.166 8.166 0 0 1 8.167 8.167v32.666a8.166 8.166 0 0 1-8.167 8.167H538.667a8.166 8.166 0 0 1-8.167-8.167Z"/><text font-family="Cambria Math,Cambria Math_MSFontService,sans-serif" font-size="27" font-weight="400" transform="translate(564.699 364)">Vaccinated</text><path fill="#dbe2ef" fill-rule="evenodd" stroke="#042433" stroke-miterlimit="8" stroke-width="3" d="M530.5 482.667a8.166 8.166 0 0 1 8.167-8.167h176.666a8.166 8.166 0 0 1 8.167 8.167v32.666a8.166 8.166 0 0 1-8.167 8.167H538.667a8.166 8.166 0 0 1-8.167-8.167Z"/><text font-family="Cambria Math,Cambria Math_MSFontService,sans-serif" font-size="27" font-weight="400" transform="translate(541.955 508)">Not vaccinated</text><path d="m236.842 292.072 50.01-118.084-3.683-1.56-50.01 118.084Zm52.914-114.683L288.91 164l-10.205 8.71Z"/><path d="m236.843 291.224 50.032 118.86-3.687 1.552-50.031-118.86Zm52.942 115.465-.874 13.388-10.186-8.732Zm192.868-241.272 42.946-63.027-3.305-2.252-42.947 63.027Zm45.126-59.122L529.577 93l-11.715 6.538Z"/><path d="m482.663 162.889 43.021 64.373-3.326 2.223-43.021-64.374Zm45.235 60.488 1.679 13.311-11.656-6.643Zm-45.293 197.167 42.612-57.325-3.21-2.386-42.612 57.325Zm44.629-53.334 2.343-13.21-11.974 6.051Z"/><path d="m482.701 418.949 43.322 70.12-3.403 2.103-43.321-70.121Zm45.674 66.317 1.202 13.362-11.411-7.055Z"/><path fill="#f9f7f7" fill-rule="evenodd" stroke="#042433" stroke-miterlimit="8" stroke-width="3" d="M782.5 299.667a8.166 8.166 0 0 1 8.167-8.167h176.666a8.166 8.166 0 0 1 8.167 8.167v32.666a8.166 8.166 0 0 1-8.167 8.167H790.667a8.166 8.166 0 0 1-8.167-8.167Z"/><text font-family="Cambria Math,Cambria Math_MSFontService,sans-serif" font-size="27" font-weight="400" transform="translate(809.311 326)">No infection</text><path fill="#dbe2ef" fill-rule="evenodd" stroke="#042433" stroke-miterlimit="8" stroke-width="3" d="M782.5 373.667a8.166 8.166 0 0 1 8.167-8.167h176.666a8.166 8.166 0 0 1 8.167 8.167v32.666a8.166 8.166 0 0 1-8.167 8.167H790.667a8.166 8.166 0 0 1-8.167-8.167Z"/><text font-family="Cambria Math,Cambria Math_MSFontService,sans-serif" font-size="27" font-weight="400" transform="translate(827.727 399)">Infection</text><path fill="#f9f7f7" fill-rule="evenodd" stroke="#042433" stroke-miterlimit="8" stroke-width="3" d="M1040.5 489.667a8.17 8.17 0 0 1 8.17-8.167h176.66a8.17 8.17 0 0 1 8.17 8.167v32.666a8.17 8.17 0 0 1-8.17 8.167h-176.66a8.17 8.17 0 0 1-8.17-8.167Z"/><text font-family="Cambria Math,Cambria Math_MSFontService,sans-serif" font-size="27" font-weight="400" transform="translate(1076.96 515)">Recovered</text><path fill="#f9f7f7" fill-rule="evenodd" stroke="#042433" stroke-miterlimit="8" stroke-width="3" d="M1040.5 563.667a8.17 8.17 0 0 1 8.17-8.167h176.66a8.17 8.17 0 0 1 8.17 8.167v32.666a8.17 8.17 0 0 1-8.17 8.167h-176.66a8.17 8.17 0 0 1-8.17-8.167Z"/><text font-family="Cambria Math,Cambria Math_MSFontService,sans-serif" font-size="27" font-weight="400" transform="translate(1102.82 589)">Death</text><path d="M724.038 94.808 774.915 63.9l-2.077-3.418-50.876 30.906Zm51.244-26.45L782.422 57l-13.37 1.102Z"/><path d="m724.069 91.31 50.973 32.255-2.139 3.38-50.972-32.255Zm51.422 27.806 6.932 11.487-13.349-1.347Zm-51.399 237.263 51.043-33.246-2.183-3.351-51.044 33.245Zm51.55-28.802 6.78-11.577-13.33 1.521Z"/><path d="m724.015 352.277 50.806 29.923-2.03 3.446-50.806-29.923Zm51.113 25.461 7.295 11.26-13.385-.92Zm-51.186 122.765 50.602-27.028-1.884-3.528-50.602 27.028Zm50.723-22.557L782.423 467l-13.412.361Z"/><path d="m724.154 496.366 51.254 36.194-2.308 3.267-51.254-36.193Zm51.927 31.772 6.342 11.824-13.264-2.021ZM975.936 391.35l56.495-29.904-1.871-3.535-56.496 29.904Zm56.598-25.433 7.8-10.917-13.414.311Z"/><path d="m976.027 387.284 56.753 33.981-2.05 3.432-56.757-33.981Zm57.093 29.522 7.21 11.312-13.37-1.017Zm-57.18 124.748 56.507-30.089-1.88-3.53-56.507 30.089Zm56.621-25.618 7.772-10.936-13.412.344Z"/><path d="m976.023 538.282 56.747 33.794-2.05 3.437-56.743-33.795Zm57.067 29.334 7.24 11.296-13.38-.986Z"/><path fill="#f9f7f7" fill-rule="evenodd" stroke="#042433" stroke-miterlimit="8" stroke-width="3" d="M782.5 450.667a8.166 8.166 0 0 1 8.167-8.167h176.666a8.166 8.166 0 0 1 8.167 8.167v32.666a8.166 8.166 0 0 1-8.167 8.167H790.667a8.166 8.166 0 0 1-8.167-8.167Z"/><text font-family="Cambria Math,Cambria Math_MSFontService,sans-serif" font-size="27" font-weight="400" transform="translate(809.311 477)">No infection</text><path fill="#dbe2ef" fill-rule="evenodd" stroke="#042433" stroke-miterlimit="8" stroke-width="3" d="M782.5 524.667a8.166 8.166 0 0 1 8.167-8.167h176.666a8.166 8.166 0 0 1 8.167 8.167v32.666a8.166 8.166 0 0 1-8.167 8.167H790.667a8.166 8.166 0 0 1-8.167-8.167Z"/><text font-family="Cambria Math,Cambria Math_MSFontService,sans-serif" font-size="27" font-weight="400" transform="translate(827.727 550)">Infection</text><path fill="#f9f7f7" fill-rule="evenodd" stroke="#042433" stroke-miterlimit="8" stroke-width="3" d="M1040.5 338.667a8.17 8.17 0 0 1 8.17-8.167h176.66a8.17 8.17 0 0 1 8.17 8.167v32.666a8.17 8.17 0 0 1-8.17 8.167h-176.66a8.17 8.17 0 0 1-8.17-8.167Z"/><text font-family="Cambria Math,Cambria Math_MSFontService,sans-serif" font-size="27" font-weight="400" transform="translate(1076.96 365)">Recovered</text><path fill="#f9f7f7" fill-rule="evenodd" stroke="#042433" stroke-miterlimit="8" stroke-width="3" d="M1040.5 412.667a8.17 8.17 0 0 1 8.17-8.167h176.66a8.17 8.17 0 0 1 8.17 8.167v32.666a8.17 8.17 0 0 1-8.17 8.167h-176.66a8.17 8.17 0 0 1-8.17-8.167Z"/><text font-family="Cambria Math,Cambria Math_MSFontService,sans-serif" font-size="27" font-weight="400" transform="translate(1102.82 438)">Death</text><path fill="#f9f7f7" fill-rule="evenodd" stroke="#042433" stroke-miterlimit="8" stroke-width="3" d="M782.5 40.667a8.167 8.167 0 0 1 8.167-8.167h176.666a8.167 8.167 0 0 1 8.167 8.167v32.666a8.167 8.167 0 0 1-8.167 8.167H790.667a8.167 8.167 0 0 1-8.167-8.167Z"/><text font-family="Cambria Math,Cambria Math_MSFontService,sans-serif" font-size="27" font-weight="400" transform="translate(818.874 67)">Recovered</text><path fill="#f9f7f7" fill-rule="evenodd" stroke="#042433" stroke-miterlimit="8" stroke-width="3" d="M782.5 114.667a8.166 8.166 0 0 1 8.167-8.167h176.666a8.166 8.166 0 0 1 8.167 8.167v32.666a8.166 8.166 0 0 1-8.167 8.167H790.667a8.166 8.166 0 0 1-8.167-8.167Z"/><text font-family="Cambria Math,Cambria Math_MSFontService,sans-serif" font-size="27" font-weight="400" transform="translate(844.731 141)">Death</text><path fill="#dbe2ef" fill-rule="evenodd" stroke="#042433" stroke-miterlimit="8" stroke-width="3" d="M42.5 581.5a8 8 0 0 1 8-8h32a8 8 0 0 1 8 8v34a8 8 0 0 1-8 8h-32a8 8 0 0 1-8-8Z"/><path fill="#f9f7f7" fill-rule="evenodd" stroke="#042433" stroke-miterlimit="8" stroke-width="3" d="M42.5 644.5a8 8 0 0 1 8-8h32a8 8 0 0 1 8 8v33a8 8 0 0 1-8 8h-32a8 8 0 0 1-8-8Z"/><path fill="#3f72af" fill-rule="evenodd" stroke="#042433" stroke-miterlimit="8" stroke-width="3" d="M42.5 519.5a8 8 0 0 1 8-8h32a8 8 0 0 1 8 8v33a8 8 0 0 1-8 8h-32a8 8 0 0 1-8-8Z"/><text font-family="Cambria Math,Cambria Math_MSFontService,sans-serif" font-size="27" font-weight="400" transform="translate(105.351 545)">Decision nodes</text><text font-family="Cambria Math,Cambria Math_MSFontService,sans-serif" font-size="27" font-weight="400" transform="translate(105.351 607)">Chance nodes</text><text font-family="Cambria Math,Cambria Math_MSFontService,sans-serif" font-size="27" font-weight="400" transform="translate(105.351 670)">Terminal nodes</text></svg>