<?xml version="1.0" encoding="UTF-8" standalone="no"?>
<svg
   width="1280"
   height="640"
   overflow="hidden"
   version="1.1"
   id="svg156"
   sodipodi:docname="he-decision-tree.svg"
   inkscape:version="1.2.2 (732a01da63, 2022-12-09)"
   xmlns:inkscape="http://www.inkscape.org/namespaces/inkscape"
   xmlns:sodipodi="http://sodipodi.sourceforge.net/DTD/sodipodi-0.dtd"
   xmlns="http://www.w3.org/2000/svg"
   xmlns:svg="http://www.w3.org/2000/svg">
  <defs
     id="defs160" />
  <sodipodi:namedview
     id="namedview158"
     pagecolor="#ffffff"
     bordercolor="#000000"
     borderopacity="0.25"
     inkscape:showpageshadow="2"
     inkscape:pageopacity="0.0"
     inkscape:pagecheckerboard="0"
     inkscape:deskcolor="#d1d1d1"
     showgrid="false"
     inkscape:zoom="0.84355629"
     inkscape:cx="542.93946"
     inkscape:cy="363.34267"
     inkscape:window-width="1716"
     inkscape:window-height="1321"
     inkscape:window-x="1711"
     inkscape:window-y="0"
     inkscape:window-maximized="0"
     inkscape:current-layer="svg156" />
  <g
     id="g154"
     transform="translate(0,-51.854573)">
    <rect
       x="0"
       y="0"
       width="1280"
       height="720"
       fill="#ffffff"
       id="rect48" />
    <path
       d="m 41.5001,321.667 c 0,-4.511 3.6563,-8.167 8.1667,-8.167 H 225.333 c 4.511,0 8.167,3.656 8.167,8.167 v 32.666 c 0,4.511 -3.656,8.167 -8.167,8.167 H 49.6668 c -4.5104,0 -8.1667,-3.656 -8.1667,-8.167 z"
       stroke="#042433"
       stroke-width="3"
       stroke-miterlimit="8"
       fill="none"
       fill-rule="evenodd"
       id="path50" />
    <text
       font-family="'Cambria Math', 'Cambria Math_MSFontService', sans-serif"
       font-weight="400"
       font-size="27px"
       transform="translate(71.872,347)"
       id="text52">Susceptible</text>
    <path
       d="m 287.5,198.667 c 0,-4.511 3.656,-8.167 8.167,-8.167 h 176.666 c 4.511,0 8.167,3.656 8.167,8.167 v 32.666 c 0,4.511 -3.656,8.167 -8.167,8.167 H 295.667 c -4.511,0 -8.167,-3.656 -8.167,-8.167 z"
       stroke="#042433"
       stroke-width="3"
       stroke-miterlimit="8"
       fill="none"
       fill-rule="evenodd"
       id="path54" />
    <text
       font-family="'Cambria Math', 'Cambria Math_MSFontService', sans-serif"
       font-weight="400"
       font-size="27px"
       transform="translate(322.159,225)"
       id="text56">No vaccine</text>
    <path
       d="m 287.5,444.667 c 0,-4.511 3.656,-8.167 8.167,-8.167 h 176.666 c 4.511,0 8.167,3.656 8.167,8.167 v 32.666 c 0,4.511 -3.656,8.167 -8.167,8.167 H 295.667 c -4.511,0 -8.167,-3.656 -8.167,-8.167 z"
       stroke="#042433"
       stroke-width="3"
       stroke-miterlimit="8"
       fill="none"
       fill-rule="evenodd"
       id="path58" />
    <text
       font-family="'Cambria Math', 'Cambria Math_MSFontService', sans-serif"
       font-weight="400"
       font-size="27px"
       transform="translate(316.909,470)"
       id="text60">Has</text>
    <text
       font-family="'Cambria Math', 'Cambria Math_MSFontService', sans-serif"
       font-weight="400"
       font-size="27px"
       transform="translate(365.575,470)"
       id="text62">vaccin</text>
    <text
       font-family="'Cambria Math', 'Cambria Math_MSFontService', sans-serif"
       font-weight="400"
       font-size="27px"
       transform="translate(437.335,470)"
       id="text64">e</text>
    <path
       d="m 529.5,143.667 c 0,-4.511 3.656,-8.167 8.167,-8.167 h 175.666 c 4.511,0 8.167,3.656 8.167,8.167 v 32.666 c 0,4.511 -3.656,8.167 -8.167,8.167 H 537.667 c -4.511,0 -8.167,-3.656 -8.167,-8.167 z"
       stroke="#042433"
       stroke-width="3"
       stroke-miterlimit="8"
       fill="none"
       fill-rule="evenodd"
       id="path66" />
    <text
       font-family="'Cambria Math', 'Cambria Math_MSFontService', sans-serif"
       font-weight="400"
       font-size="27px"
       transform="translate(574.285,169)"
       id="text68">Infection</text>
    <path
       d="m 529.5,261.667 c 0,-4.511 3.656,-8.167 8.167,-8.167 h 175.666 c 4.511,0 8.167,3.656 8.167,8.167 v 32.666 c 0,4.511 -3.656,8.167 -8.167,8.167 H 537.667 c -4.511,0 -8.167,-3.656 -8.167,-8.167 z"
       stroke="#042433"
       stroke-width="3"
       stroke-miterlimit="8"
       fill="none"
       fill-rule="evenodd"
       id="path70" />
    <text
       font-family="'Cambria Math', 'Cambria Math_MSFontService', sans-serif"
       font-weight="400"
       font-size="27px"
       transform="translate(555.869,287)"
       id="text72">No infection</text>
    <path
       d="m 529.5,378.667 c 0,-4.511 3.656,-8.167 8.167,-8.167 h 175.666 c 4.511,0 8.167,3.656 8.167,8.167 v 32.666 c 0,4.511 -3.656,8.167 -8.167,8.167 H 537.667 c -4.511,0 -8.167,-3.656 -8.167,-8.167 z"
       stroke="#042433"
       stroke-width="3"
       stroke-miterlimit="8"
       fill="none"
       fill-rule="evenodd"
       id="path74" />
    <text
       font-family="'Cambria Math', 'Cambria Math_MSFontService', sans-serif"
       font-weight="400"
       font-size="27px"
       transform="translate(563.435,405)"
       id="text76">Vaccinated</text>
    <path
       d="m 529.5,522.667 c 0,-4.511 3.656,-8.167 8.167,-8.167 h 175.666 c 4.511,0 8.167,3.656 8.167,8.167 v 32.666 c 0,4.511 -3.656,8.167 -8.167,8.167 H 537.667 c -4.511,0 -8.167,-3.656 -8.167,-8.167 z"
       stroke="#042433"
       stroke-width="3"
       stroke-miterlimit="8"
       fill="none"
       fill-rule="evenodd"
       id="path78" />
    <text
       font-family="'Cambria Math', 'Cambria Math_MSFontService', sans-serif"
       font-weight="400"
       font-size="27px"
       transform="translate(540.692,549)"
       id="text80">Not vaccinated</text>
    <path
       d="M 1.83116,-0.804271 51.7205,112.784 48.0582,114.392 -1.83116,0.804271 Z M 54.5786,109.344 l -0.6678,13.4 -10.3191,-8.574 z"
       transform="matrix(1,0,0,-1,233,337.744)"
       id="path82" />
    <path
       d="m 234.831,336.196 49.89,113.588 -3.663,1.608 -49.889,-113.588 z m 52.748,110.148 -0.668,13.4 -10.319,-8.574 z"
       id="path84" />
    <path
       d="M 1.50504,-1.31714 43.4967,46.6647 40.4867,49.299 -1.50504,1.31714 Z M 45.1897,42.5253 48.5774,55.507 36.1595,50.4282 Z"
       transform="matrix(1,0,0,-1,480,214.507)"
       id="path86" />
    <path
       d="m 481.582,213.776 42.459,54.896 -3.164,2.448 -42.459,-54.896 z m 44.4,50.867 2.595,13.163 -12.087,-5.821 z"
       id="path88" />
    <path
       d="M 1.60512,-1.19314 44.2168,56.132 41.0066,58.5183 -1.60512,1.19314 Z M 46.2339,52.1406 48.5774,65.3508 36.6032,59.2995 Z"
       transform="matrix(1,0,0,-1,480,460.351)"
       id="path90" />
    <path
       d="m 481.701,458.949 43.322,70.12 -3.403,2.103 -43.321,-70.121 z m 45.674,66.317 1.202,13.362 -11.411,-7.055 z"
       id="path92" />
    <path
       d="m 781.5,339.834 c 0,-4.603 3.731,-8.334 8.334,-8.334 h 176.333 c 4.602,0 8.333,3.731 8.333,8.334 v 33.332 c 0,4.603 -3.731,8.334 -8.333,8.334 H 789.834 c -4.603,0 -8.334,-3.731 -8.334,-8.334 z"
       stroke="#042433"
       stroke-width="3"
       stroke-miterlimit="8"
       fill="none"
       fill-rule="evenodd"
       id="path94" />
    <text
       font-family="'Cambria Math', 'Cambria Math_MSFontService', sans-serif"
       font-weight="400"
       font-size="27px"
       transform="translate(808.047,366)"
       id="text96">No infection</text>
    <path
       d="m 781.5,413.667 c 0,-4.511 3.656,-8.167 8.167,-8.167 h 176.666 c 4.511,0 8.167,3.656 8.167,8.167 v 32.666 c 0,4.511 -3.656,8.167 -8.167,8.167 H 789.667 c -4.511,0 -8.167,-3.656 -8.167,-8.167 z"
       stroke="#042433"
       stroke-width="3"
       stroke-miterlimit="8"
       fill="none"
       fill-rule="evenodd"
       id="path98" />
    <text
       font-family="'Cambria Math', 'Cambria Math_MSFontService', sans-serif"
       font-weight="400"
       font-size="27px"
       transform="translate(826.464,440)"
       id="text100">Infection</text>
    <path
       d="m 1039.5,529.667 c 0,-4.511 3.66,-8.167 8.17,-8.167 h 176.66 c 4.51,0 8.17,3.656 8.17,8.167 v 32.666 c 0,4.511 -3.66,8.167 -8.17,8.167 h -176.66 c -4.51,0 -8.17,-3.656 -8.17,-8.167 z"
       stroke="#042433"
       stroke-width="3"
       stroke-miterlimit="8"
       fill="none"
       fill-rule="evenodd"
       id="path102" />
    <text
       font-family="'Cambria Math', 'Cambria Math_MSFontService', sans-serif"
       font-weight="400"
       font-size="27px"
       transform="translate(1075.7,556)"
       id="text104">Recovered</text>
    <path
       d="m 1039.5,603.667 c 0,-4.511 3.66,-8.167 8.17,-8.167 h 176.66 c 4.51,0 8.17,3.656 8.17,8.167 v 32.666 c 0,4.511 -3.66,8.167 -8.17,8.167 h -176.66 c -4.51,0 -8.17,-3.656 -8.17,-8.167 z"
       stroke="#042433"
       stroke-width="3"
       stroke-miterlimit="8"
       fill="none"
       fill-rule="evenodd"
       id="path106" />
    <text
       font-family="'Cambria Math', 'Cambria Math_MSFontService', sans-serif"
       font-weight="400"
       font-size="27px"
       transform="translate(1101.56,630)"
       id="text108">Death</text>
    <path
       d="M 1.07726,-1.68508 52.0746,30.9173 49.9201,34.2874 -1.07726,1.68508 Z M 52.5441,26.4698 59.4228,37.9887 46.0805,36.5803 Z"
       transform="matrix(1,0,0,-1,721,158.989)"
       id="path110" />
    <path
       d="m 722.03,157.286 50.852,30.561 -2.061,3.428 -50.851,-30.561 z m 51.198,26.102 7.195,11.324 -13.376,-1.039 z"
       id="path112" />
    <path
       d="M 1.09153,-1.67588 52.1349,31.5695 49.9518,34.9212 -1.09153,1.67588 Z M 52.6421,27.1262 59.4228,38.703 46.0929,37.1815 Z"
       transform="matrix(1,0,0,-1,721,394.703)"
       id="path114" />
    <path
       d="m 722.015,393.277 50.806,29.923 -2.03,3.446 -50.806,-29.923 z m 51.113,25.461 7.295,11.26 -13.385,-0.92 z"
       id="path116" />
    <path
       d="M 0.942264,-1.76413 51.5444,25.2638 49.6599,28.792 -0.942264,1.76413 Z M 51.6648,20.7933 59.4228,31.7392 46.0112,31.378 Z"
       transform="matrix(1,0,0,-1,721,538.739)"
       id="path118" />
    <path
       d="m 722.154,537.366 51.254,36.194 -2.308,3.267 -51.254,-36.193 z m 51.927,31.772 6.342,11.824 -13.264,-2.021 z"
       id="path120" />
    <path
       d="M 0.93566,-1.76764 57.4308,28.1369 55.5595,31.6721 -0.93566,1.76764 Z M 57.5345,23.6659 65.3333,34.5828 51.9205,34.2717 Z"
       transform="matrix(1,0,0,-1,974,429.583)"
       id="path122" />
    <path
       d="m 975.027,428.284 56.753,33.981 -2.05,3.432 -56.757,-33.981 z m 57.093,29.522 7.21,11.312 -13.37,-1.017 z"
       id="path124" />
    <path
       d="M 0.940014,-1.76533 57.4467,28.3238 55.5667,31.8545 -0.940014,1.76533 Z M 57.5614,23.8531 65.3333,34.7892 51.9213,34.4451 Z"
       transform="matrix(1,0,0,-1,974,580.789)"
       id="path126" />
    <path
       d="m 975.023,579.282 56.747,33.794 -2.05,3.437 -56.743,-33.795 z m 57.067,29.334 7.24,11.296 -13.38,-0.986 z"
       id="path128" />
    <path
       d="m 781.5,490.834 c 0,-4.603 3.731,-8.334 8.334,-8.334 h 176.333 c 4.602,0 8.333,3.731 8.333,8.334 v 33.333 c 0,4.602 -3.731,8.333 -8.333,8.333 H 789.834 c -4.603,0 -8.334,-3.731 -8.334,-8.333 z"
       stroke="#042433"
       stroke-width="3"
       stroke-miterlimit="8"
       fill="none"
       fill-rule="evenodd"
       id="path130" />
    <text
       font-family="'Cambria Math', 'Cambria Math_MSFontService', sans-serif"
       font-weight="400"
       font-size="27px"
       transform="translate(817.611,517)"
       id="text132">Recovered</text>
    <path
       d="m 781.5,564.667 c 0,-4.511 3.656,-8.167 8.167,-8.167 h 176.666 c 4.511,0 8.167,3.656 8.167,8.167 v 32.666 c 0,4.511 -3.656,8.167 -8.167,8.167 H 789.667 c -4.511,0 -8.167,-3.656 -8.167,-8.167 z"
       stroke="#042433"
       stroke-width="3"
       stroke-miterlimit="8"
       fill="none"
       fill-rule="evenodd"
       id="path134" />
    <text
       font-family="'Cambria Math', 'Cambria Math_MSFontService', sans-serif"
       font-weight="400"
       font-size="27px"
       transform="translate(843.467,591)"
       id="text136">Death</text>
    <path
       d="m 1039.5,379.667 c 0,-4.511 3.66,-8.167 8.17,-8.167 h 176.66 c 4.51,0 8.17,3.656 8.17,8.167 v 32.666 c 0,4.511 -3.66,8.167 -8.17,8.167 h -176.66 c -4.51,0 -8.17,-3.656 -8.17,-8.167 z"
       stroke="#042433"
       stroke-width="3"
       stroke-miterlimit="8"
       fill="none"
       fill-rule="evenodd"
       id="path138" />
    <text
       font-family="'Cambria Math', 'Cambria Math_MSFontService', sans-serif"
       font-weight="400"
       font-size="27px"
       transform="translate(1075.7,405)"
       id="text140">Recovered</text>
    <path
       d="m 1039.5,452.667 c 0,-4.511 3.66,-8.167 8.17,-8.167 h 176.66 c 4.51,0 8.17,3.656 8.17,8.167 v 32.666 c 0,4.511 -3.66,8.167 -8.17,8.167 h -176.66 c -4.51,0 -8.17,-3.656 -8.17,-8.167 z"
       stroke="#042433"
       stroke-width="3"
       stroke-miterlimit="8"
       fill="none"
       fill-rule="evenodd"
       id="path142" />
    <text
       font-family="'Cambria Math', 'Cambria Math_MSFontService', sans-serif"
       font-weight="400"
       font-size="27px"
       transform="translate(1101.56,479)"
       id="text144">Death</text>
    <path
       d="m 781.5,105.667 c 0,-4.511 3.656,-8.1669 8.167,-8.1669 h 176.666 c 4.511,0 8.167,3.6559 8.167,8.1669 v 32.666 c 0,4.511 -3.656,8.167 -8.167,8.167 H 789.667 c -4.511,0 -8.167,-3.656 -8.167,-8.167 z"
       stroke="#042433"
       stroke-width="3"
       stroke-miterlimit="8"
       fill="none"
       fill-rule="evenodd"
       id="path146" />
    <text
       font-family="'Cambria Math', 'Cambria Math_MSFontService', sans-serif"
       font-weight="400"
       font-size="27px"
       transform="translate(817.611,131)"
       id="text148">Recovered</text>
    <path
       d="m 781.5,178.667 c 0,-4.511 3.656,-8.167 8.167,-8.167 h 176.666 c 4.511,0 8.167,3.656 8.167,8.167 v 32.666 c 0,4.511 -3.656,8.167 -8.167,8.167 H 789.667 c -4.511,0 -8.167,-3.656 -8.167,-8.167 z"
       stroke="#042433"
       stroke-width="3"
       stroke-miterlimit="8"
       fill="none"
       fill-rule="evenodd"
       id="path150" />
    <text
       font-family="'Cambria Math', 'Cambria Math_MSFontService', sans-serif"
       font-weight="400"
       font-size="27px"
       transform="translate(843.467,205)"
       id="text152">Death</text>
  </g>
</svg>
