<svg xmlns="http://www.w3.org/2000/svg" width="1280" height="400" overflow="hidden"><path fill="#fff" d="M0-160h1280v720H0z"/><path fill="none" stroke="#042433" stroke-miterlimit="8" stroke-width="3" d="M202.5 65c0-8.008 6.492-14.5 14.5-14.5h108c8.008 0 14.5 6.492 14.5 14.5v58c0 8.008-6.492 14.5-14.5 14.5H217c-8.008 0-14.5-6.492-14.5-14.5z"/><text font-family="'Cambria Math', 'Cambria Math_MSFontService', sans-serif" font-size="48" font-weight="400" transform="translate(252.567 110)">𝑆</text><path fill="none" stroke="#042433" stroke-miterlimit="8" stroke-width="3" d="M568.5 65c0-8.008 6.492-14.5 14.5-14.5h108c8.008 0 14.5 6.492 14.5 14.5v58c0 8.008-6.492 14.5-14.5 14.5H583c-8.008 0-14.5-6.492-14.5-14.5z"/><text font-family="'Cambria Math', 'Cambria Math_MSFontService', sans-serif" font-size="48" font-weight="400" transform="translate(621.447 110)">𝐼</text><path fill="none" stroke="#042433" stroke-miterlimit="8" stroke-width="3" d="M933.5 65c0-8.008 6.492-14.5 14.5-14.5h108c8.01 0 14.5 6.492 14.5 14.5v58c0 8.008-6.49 14.5-14.5 14.5H948c-8.008 0-14.5-6.492-14.5-14.5z"/><text font-family="'Cambria Math', 'Cambria Math_MSFontService', sans-serif" font-size="48" font-weight="400" transform="translate(980.846 110)">𝑅</text><path fill="none" stroke="#042433" stroke-miterlimit="8" stroke-width="3" d="M202.5 285c0-8.008 6.492-14.5 14.5-14.5h108c8.008 0 14.5 6.492 14.5 14.5v58c0 8.008-6.492 14.5-14.5 14.5H217c-8.008 0-14.5-6.492-14.5-14.5z"/><text font-family="'Cambria Math', 'Cambria Math_MSFontService', sans-serif" font-size="48" font-weight="400" transform="translate(249.941 330)">𝑉</text><path d="M339 92h218.589v4H339Zm216.59-4 12 6-12 6zM705 92h218.589v4H705Zm216.589-4 12 6-12 6zM269 137v122.621h4V137Zm-4 120.621 6 12 6-12zm75.02 57.22L628.508 143.82l-2.04-3.441L337.98 311.401ZM628.827 148.28 636.09 137l-13.382.958z"/><path fill="none" stroke="#042433" stroke-miterlimit="8" stroke-width="3" d="M568.5 285c0-8.008 6.492-14.5 14.5-14.5h108c8.008 0 14.5 6.492 14.5 14.5v58c0 8.008-6.492 14.5-14.5 14.5H583c-8.008 0-14.5-6.492-14.5-14.5z"/><text font-family="'Cambria Math', 'Cambria Math_MSFontService', sans-serif" font-size="48" font-weight="400" transform="translate(614.007 330)">𝐷</text><path d="M634 137v122.621h4V137Zm-4 120.621 6 12 6-12zM339.328 91.507l2.247-.193-.319.054 2.23-.565-.395.146 4.336-2.142-.384.247 4.055-3.329-.261.258 3.633-4.317-.184.257 3.07-5.109-.133.264 2.368-5.702-.094.282 1.524-6.098-.053.315.54-6.296-.001.338-.265-3.159.051.311-.773-3.135.087.271-1.247-3.086.109.228-1.688-3.012.121.19-2.095-2.913.126.158-2.467-2.789.191.188-5.917-5.108.257.188-7.001-4.317.266.137-7.813-3.329.287.098-8.356-2.142.236.045-4.296-.564.171.015-4.33-.194.214-.002-8.627.539.234-.028-8.356 1.523.222-.053-7.814 2.367.223-.083-7.001 3.071.244-.128-5.917 3.633.206-.145-2.467 1.983.448-.506-1.297 2.096-3.401-2.105 1.477-2.388 2.833-2.277 6.142-3.771 7.236-3.174 8.037-2.435 8.584-1.565 8.851-.553 4.524.203 4.501.591 8.62 2.21 8.091 3.447 7.265 4.481 6.14 5.301 2.623 2.965 2.219 3.086 1.805 3.221 1.349 3.335.846 3.428.292 3.487-.567 6.623-1.598 6.397-2.481 5.976-3.228 5.371-3.854 4.581-4.375 3.591-4.731 2.338-2.593.656-2.408.208zM282 42.318 271 50l.454-13.409zm57.328 269.189 2.247-.193-.319.054 2.23-.565-.395.146 4.336-2.142-.384.247 4.055-3.329-.261.258 3.633-4.317-.184.257 3.07-5.109-.133.264 2.368-5.702-.094.282 1.524-6.098-.053.315.54-6.296-.001.338-.265-3.159.051.311-.773-3.135.087.271-1.247-3.086.109.228-1.688-3.012.121.19-2.095-2.913.126.158-2.467-2.789.191.188-5.917-5.108.257.188-7.001-4.317.266.137-7.813-3.328.287.097-8.356-2.142.236.045-4.296-.564.171.015-4.33-.194.214-.002-8.627.539.234-.028-8.356 1.523.222-.053-7.814 2.367.223-.083-7.001 3.071.244-.128-5.917 3.633.206-.145-2.467 1.983.448-.506-1.297 2.096-3.401-2.105 1.477-2.388 2.833-2.277 6.142-3.771 7.236-3.174 8.037-2.434 8.584-1.566 8.851-.553 4.524.203 4.501.591 8.62 2.21 8.091 3.447 7.265 4.481 6.14 5.301 2.623 2.965 2.219 3.086 1.805 3.221 1.349 3.335.846 3.428.292 3.487-.567 6.623-1.598 6.397-2.481 5.976-3.228 5.371-3.854 4.581-4.375 3.591-4.731 2.338-2.593.656-2.408.208zM282 262.318 271 270l.454-13.409zM704.328 91.507l2.247-.193-.319.054 2.23-.565-.395.146 4.336-2.142-.384.247 4.055-3.329-.261.258 3.633-4.317-.184.257 3.07-5.109-.133.264 2.368-5.702-.094.282 1.524-6.098-.053.315.54-6.296-.001.338-.265-3.159.051.311-.773-3.135.087.271-1.247-3.086.109.228-1.688-3.012.121.19-2.095-2.913.126.158-2.467-2.789.191.188-5.917-5.108.257.188-7.001-4.317.266.137-7.813-3.329.287.098-8.356-2.142.236.045-4.296-.564.171.015-4.33-.194.214-.002-8.627.539.234-.028-8.356 1.523.222-.053-7.814 2.367.223-.083-7.001 3.071.244-.128-5.917 3.633.206-.145-2.467 1.983.448-.506-1.297 2.096-3.401-2.105 1.477-2.388 2.833-2.277 6.142-3.771 7.236-3.174 8.037-2.435 8.584-1.565 8.851-.553 4.524.203 4.501.591 8.62 2.21 8.091 3.447 7.265 4.481 6.14 5.301 2.623 2.965 2.219 3.086 1.805 3.221 1.349 3.335.846 3.428.292 3.487-.567 6.623-1.598 6.397-2.481 5.976-3.228 5.371-3.854 4.581-4.375 3.591-4.731 2.338-2.592.656-2.409.208zM647 42.318 636 50l.454-13.409z"/></svg>