<svg xmlns="http://www.w3.org/2000/svg" width="1280" height="720" overflow="hidden"><path fill="#fff" d="M0 0h1280v720H0z"/><path fill="none" stroke="#042433" stroke-miterlimit="8" stroke-width="3" d="M296.5 109c0-8.008 6.492-14.5 14.5-14.5h108c8.008 0 14.5 6.492 14.5 14.5v58c0 8.008-6.492 14.5-14.5 14.5H311c-8.008 0-14.5-6.492-14.5-14.5Z"/><text font-family="Cambria Math,Cambria Math_MSFontService,sans-serif" font-size="48" font-weight="400" transform="translate(346.943 153)">𝑆</text><path fill="none" stroke="#042433" stroke-miterlimit="8" stroke-width="3" d="M662.5 109c0-8.008 6.492-14.5 14.5-14.5h108c8.008 0 14.5 6.492 14.5 14.5v58c0 8.008-6.492 14.5-14.5 14.5H677c-8.008 0-14.5-6.492-14.5-14.5Z"/><text font-family="Cambria Math,Cambria Math_MSFontService,sans-serif" font-size="48" font-weight="400" transform="translate(715.823 153)">𝐼</text><path fill="none" stroke="#042433" stroke-miterlimit="8" stroke-width="3" d="M1028.5 109c0-8.008 6.49-14.5 14.5-14.5h108c8.01 0 14.5 6.492 14.5 14.5v58c0 8.008-6.49 14.5-14.5 14.5h-108c-8.01 0-14.5-6.492-14.5-14.5Z"/><text font-family="Cambria Math,Cambria Math_MSFontService,sans-serif" font-size="48" font-weight="400" transform="translate(1075.22 153)">𝑅</text><path fill="none" stroke="#042433" stroke-miterlimit="8" stroke-width="3" d="M296.5 438c0-8.008 6.492-14.5 14.5-14.5h108c8.008 0 14.5 6.492 14.5 14.5v58c0 8.008-6.492 14.5-14.5 14.5H311c-8.008 0-14.5-6.492-14.5-14.5Z"/><text font-family="Cambria Math,Cambria Math_MSFontService,sans-serif" font-size="48" font-weight="400" transform="translate(337.11 483)">𝑆</text><text font-family="Cambria Math,Cambria Math_MSFontService,sans-serif" font-size="35" font-weight="400" transform="translate(360.336 492)">𝑣</text><path fill="none" stroke="#042433" stroke-miterlimit="8" stroke-width="3" d="M662.5 438c0-8.008 6.492-14.5 14.5-14.5h108c8.008 0 14.5 6.492 14.5 14.5v58c0 8.008-6.492 14.5-14.5 14.5H677c-8.008 0-14.5-6.492-14.5-14.5Z"/><text font-family="Cambria Math,Cambria Math_MSFontService,sans-serif" font-size="48" font-weight="400" transform="translate(706.636 483)">𝐼</text><text font-family="Cambria Math,Cambria Math_MSFontService,sans-serif" font-size="35" font-weight="400" transform="translate(721.989 492)">𝑣</text><path fill="none" stroke="#042433" stroke-miterlimit="8" stroke-width="3" d="M1028.5 438c0-8.008 6.49-14.5 14.5-14.5h108c8.01 0 14.5 6.492 14.5 14.5v58c0 8.008-6.49 14.5-14.5 14.5h-108c-8.01 0-14.5-6.492-14.5-14.5Z"/><text font-family="Cambria Math,Cambria Math_MSFontService,sans-serif" font-size="48" font-weight="400" transform="translate(1064.98 483)">𝑅</text><text font-family="Cambria Math,Cambria Math_MSFontService,sans-serif" font-size="35" font-weight="400" transform="translate(1094.83 492)">𝑣</text><path d="M433 135h218.589v4H433Zm216.59-4 12 6-12 6ZM799 135h218.59v4H799Zm216.59-4 12 6-12 6ZM433 464l218.59.028-.001 4L433 468Zm216.59-3.972 12 6.001-12.001 5.999ZM799 464h218.59v4H799Zm216.59-4 12 6-12 6ZM363 181v232.013h4V181Zm-4 230.013 6 12 6-12Z"/><text font-family="Cambria Math,Cambria Math_MSFontService,sans-serif" font-size="48" font-weight="400" transform="translate(900.08 443)">𝛾</text><text font-family="Cambria Math,Cambria Math_MSFontService,sans-serif" font-size="48" font-weight="400" transform="translate(900.08 113)">𝛾</text><text font-family="Cambria Math,Cambria Math_MSFontService,sans-serif" font-size="48" font-weight="400" transform="translate(504.908 113)">𝜆</text><path fill-rule="evenodd" d="M572.178 76.969q6.845 1.804 10.512 7.793 3.668 5.987 3.668 14.45 0 8.483-3.656 14.448-3.657 5.966-10.524 7.77l-.562-1.805q5.414-1.805 8.051-7.125 2.636-5.32 2.636-13.523 0-7.923-2.625-13.16-2.625-5.239-8.133-7.043Zm-23.218 0 .633 1.805q-5.486 1.804-8.121 7.043-2.637 5.238-2.637 13.16 0 8.202 2.637 13.523t8.05 7.125l-.562 1.805q-6.867-1.805-10.524-7.77t-3.656-14.449q0-8.46 3.668-14.45 3.668-5.987 10.512-7.792"/><text font-family="Cambria Math,Cambria Math_MSFontService,sans-serif" font-size="48" font-weight="400" transform="translate(550.481 113)">𝑡</text><text font-family="Cambria Math,Cambria Math_MSFontService,sans-serif" font-size="48" font-weight="400" transform="rotate(20.62 -362.232 2254.434)">𝜌</text><text font-family="Cambria Math,Cambria Math_MSFontService,sans-serif" font-size="35" font-weight="400" transform="rotate(20.62 -401.954 2317.041)">1</text><text font-family="Cambria Math,Cambria Math_MSFontService,sans-serif" font-size="48" font-weight="400" transform="rotate(20.62 -387.032 2383.46)">𝑉𝐸</text><text font-family="Cambria Math,Cambria Math_MSFontService,sans-serif" font-size="35" font-weight="400" transform="rotate(20.62 -441.595 2536.185)">𝑃1</text><text font-family="Cambria Math,Cambria Math_MSFontService,sans-serif" font-size="48" font-weight="400" transform="translate(504.908 442)">𝜆</text><path fill-rule="evenodd" d="M572.178 406.04q6.845 1.805 10.512 7.793t3.668 14.449q0 8.484-3.656 14.449t-10.524 7.77l-.562-1.805q5.414-1.804 8.05-7.125t2.637-13.523q0-7.922-2.625-13.161t-8.133-7.043Zm-23.218 0 .633 1.804q-5.486 1.805-8.121 7.043-2.637 5.239-2.637 13.161 0 8.202 2.637 13.523t8.05 7.125l-.562 1.805q-6.867-1.805-10.524-7.77t-3.656-14.449q0-8.461 3.668-14.449t10.512-7.793"/><text font-family="Cambria Math,Cambria Math_MSFontService,sans-serif" font-size="48" font-weight="400" transform="translate(550.481 442)">𝑡</text><text font-family="Cambria Math,Cambria Math_MSFontService,sans-serif" font-size="48" font-weight="400" transform="translate(77.657 312)">𝜌</text><text font-family="Cambria Math,Cambria Math_MSFontService,sans-serif" font-size="35" font-weight="400" transform="translate(102.184 322)">1</text><text font-family="Cambria Math,Cambria Math_MSFontService,sans-serif" font-size="48" font-weight="400" transform="translate(124.51 312)">(</text><text font-family="Cambria Math,Cambria Math_MSFontService,sans-serif" font-size="48" font-weight="400" transform="translate(144.51 312)">1</text><text font-family="Cambria Math,Cambria Math_MSFontService,sans-serif" font-size="48" font-weight="400" transform="translate(181.677 312)">−</text><text font-family="Cambria Math,Cambria Math_MSFontService,sans-serif" font-size="48" font-weight="400" transform="translate(228.177 312)">𝑉𝐸</text><text font-family="Cambria Math,Cambria Math_MSFontService,sans-serif" font-size="35" font-weight="400" transform="translate(285.597 322)">𝑃1</text><text font-family="Cambria Math,Cambria Math_MSFontService,sans-serif" font-size="48" font-weight="400" transform="translate(330.59 312)">)</text><path d="m432.713 168.131 654.527 249.696-1.42 3.737-654.533-249.695ZM1086.8 413.378l9.07 9.883-13.35 1.328ZM363 510v99.293h735.179v-89.264h-4v87.263l2-2H365l2 2V510Zm739.179 12.03-6-12-6 12Z"/><text font-family="Cambria Math,Cambria Math_MSFontService,sans-serif" font-size="48" font-weight="400" transform="translate(655.445 584)">𝜌</text><text font-family="Cambria Math,Cambria Math_MSFontService,sans-serif" font-size="35" font-weight="400" transform="translate(681.085 593)">2</text><text font-family="Cambria Math,Cambria Math_MSFontService,sans-serif" font-size="48" font-weight="400" transform="translate(703.411 584)">𝑉𝐸</text><text font-family="Cambria Math,Cambria Math_MSFontService,sans-serif" font-size="35" font-weight="400" transform="translate(760.831 593)">𝑃2</text><path d="M729 181v232.042h4V181Zm-4 230.042 6 12 6-12ZM1098 181v232.042h-4V181Zm4 230.042-6 12-6-12Z"/><text font-family="Cambria Math,Cambria Math_MSFontService,sans-serif" font-size="48" font-weight="400" transform="translate(674.52 312)">𝜌</text><text font-family="Cambria Math,Cambria Math_MSFontService,sans-serif" font-size="35" font-weight="400" transform="translate(699.046 322)">1</text><text font-family="Cambria Math,Cambria Math_MSFontService,sans-serif" font-size="48" font-weight="400" transform="translate(1040.11 312)">𝜌</text><text font-family="Cambria Math,Cambria Math_MSFontService,sans-serif" font-size="35" font-weight="400" transform="translate(1064.64 322)">1</text></svg>