<svg xmlns="http://www.w3.org/2000/svg" width="1920" height="300" viewBox="0 0 1440 225"><defs><clipPath id="a"><path d="M22.5 78.164h111.793v90.23H22.5Zm0 0"/></clipPath><clipPath id="b"><path d="M22.5 56.605h111.75v111.75H22.5Zm0 0"/></clipPath><clipPath id="c"><path d="M164.832 78.164h111.79v90.23h-111.79Zm0 0"/></clipPath><clipPath id="d"><path d="M164.832 56.605h111.75v111.75h-111.75Zm0 0"/></clipPath><clipPath id="e"><path d="M307.578 78.164h111.793v90.23H307.578Zm0 0"/></clipPath><clipPath id="f"><path d="M307.578 56.605h111.75v111.75h-111.75Zm0 0"/></clipPath><clipPath id="g"><path d="M449.836 78.164h111.793v90.23H449.836Zm0 0"/></clipPath><clipPath id="h"><path d="M449.836 56.605h111.75v111.75h-111.75Zm0 0"/></clipPath><clipPath id="i"><path d="M592.168 78.164h111.793v90.23H592.168Zm0 0"/></clipPath><clipPath id="j"><path d="M592.168 56.605h111.75v111.75h-111.75Zm0 0"/></clipPath><clipPath id="k"><path d="M734.914 78.164h111.793v90.23H734.914Zm0 0"/></clipPath><clipPath id="l"><path d="M734.914 56.605h111.75v111.75h-111.75Zm0 0"/></clipPath><clipPath id="m"><path d="M877.883 78.164h111.793v90.23H877.883Zm0 0"/></clipPath><clipPath id="n"><path d="M877.883 56.605h111.75v111.75h-111.75Zm0 0"/></clipPath><clipPath id="o"><path d="M1020.21 78.164H1132v90.23h-111.79Zm0 0"/></clipPath><clipPath id="p"><path d="M1020.21 56.605h111.75v111.75h-111.75Zm0 0"/></clipPath><clipPath id="q"><path d="M1162.96 78.164h111.794v90.23H1162.96Zm0 0"/></clipPath><clipPath id="r"><path d="M1162.96 56.605h111.75v111.75h-111.75Zm0 0"/></clipPath><clipPath id="s"><path d="M1305.707 78.164H1417.5v90.23h-111.793Zm0 0"/></clipPath><clipPath id="t"><path d="M1305.707 56.605h111.75v111.75h-111.75Zm0 0"/></clipPath></defs><g clip-path="url(#a)"><path fill="#5271ff" d="M22.5 78.164h111.734v90.23H22.5Zm0 0"/></g><g clip-path="url(#b)"><path fill="none" stroke="#000" stroke-width="10.5" d="M22.5 56.605h111.785v111.786H22.5Zm0 0"/></g><g clip-path="url(#c)"><path fill="#5271ff" d="M164.832 78.164h111.73v90.23h-111.73Zm0 0"/></g><g clip-path="url(#d)"><path fill="none" stroke="#000" stroke-width="10.5" d="M164.832 56.605h111.785v111.786H164.832Zm0 0"/></g><g clip-path="url(#e)"><path fill="#5271ff" d="M307.578 78.164h111.73v90.23h-111.73Zm0 0"/></g><g clip-path="url(#f)"><path fill="none" stroke="#000" stroke-width="10.5" d="M307.578 56.605h111.785v111.786H307.578Zm0 0"/></g><g clip-path="url(#g)"><path fill="#5271ff" d="M449.836 78.164H561.57v90.23H449.836Zm0 0"/></g><g clip-path="url(#h)"><path fill="none" stroke="#000" stroke-width="10.5" d="M449.836 56.605H561.62v111.786H449.836Zm0 0"/></g><g clip-path="url(#i)"><path fill="#5271ff" d="M592.168 78.164h111.73v90.23h-111.73Zm0 0"/></g><g clip-path="url(#j)"><path fill="none" stroke="#000" stroke-width="10.5" d="M592.168 56.605h111.785v111.786H592.168Zm0 0"/></g><g clip-path="url(#k)"><path fill="#5271ff" d="M734.914 78.164h111.734v90.23H734.914Zm0 0"/></g><g clip-path="url(#l)"><path fill="none" stroke="#000" stroke-width="10.5" d="M734.914 56.605H846.7v111.786H734.914Zm0 0"/></g><g clip-path="url(#m)"><path fill="#5271ff" d="M877.883 78.164h111.734v90.23H877.883Zm0 0"/></g><g clip-path="url(#n)"><path fill="none" stroke="#000" stroke-width="10.5" d="M877.883 56.605h111.785v111.786H877.883Zm0 0"/></g><g clip-path="url(#o)"><path fill="#5271ff" d="M1020.21 78.164h111.735v90.23h-111.734Zm0 0"/></g><g clip-path="url(#p)"><path fill="none" stroke="#000" stroke-width="10.5" d="M1020.21 56.605h111.786v111.786h-111.785Zm0 0"/></g><g clip-path="url(#q)"><path fill="#5271ff" d="M1162.96 78.164h111.731v90.23h-111.73Zm0 0"/></g><g clip-path="url(#r)"><path fill="none" stroke="#000" stroke-width="10.5" d="M1162.96 56.605h111.786v111.786h-111.785Zm0 0"/></g><g clip-path="url(#s)"><path fill="#5271ff" d="M1305.707 78.164h111.734v90.23h-111.734Zm0 0"/></g><g clip-path="url(#t)"><path fill="none" stroke="#000" stroke-width="10.5" d="M1305.707 56.605h111.785v111.786h-111.785Zm0 0"/></g></svg>