<svg xmlns="http://www.w3.org/2000/svg" width="1280" height="300" overflow="hidden"><path fill="#fff" d="M0-210h1280v720H0z"/><path fill="none" stroke="#042433" stroke-miterlimit="8" stroke-width="3" d="M206 80.04c0-8.008 6.492-14.5 14.5-14.5h108c8.008 0 14.5 6.492 14.5 14.5v58c0 8.008-6.492 14.5-14.5 14.5h-108c-8.008 0-14.5-6.492-14.5-14.5z"/><text x="256.067" y="125.04" font-family="'Cambria Math', 'Cambria Math_MSFontService', sans-serif" font-size="48" font-weight="400">𝑆</text><path fill="none" stroke="#042433" stroke-miterlimit="8" stroke-width="3" d="M572 80.04c0-8.008 6.492-14.5 14.5-14.5h108c8.008 0 14.5 6.492 14.5 14.5v58c0 8.008-6.492 14.5-14.5 14.5h-108c-8.008 0-14.5-6.492-14.5-14.5z"/><text x="624.947" y="125.04" font-family="'Cambria Math', 'Cambria Math_MSFontService', sans-serif" font-size="48" font-weight="400">𝐼</text><path fill="none" stroke="#042433" stroke-miterlimit="8" stroke-width="3" d="M937 80.04c0-8.008 6.492-14.5 14.5-14.5h108c8.01 0 14.5 6.492 14.5 14.5v58c0 8.008-6.49 14.5-14.5 14.5h-108c-8.008 0-14.5-6.492-14.5-14.5z"/><text x="984.346" y="125.04" font-family="'Cambria Math', 'Cambria Math_MSFontService', sans-serif" font-size="48" font-weight="400">𝑅</text><path d="M342.5 107.04h218.589v4H342.5Zm216.59-4 12 6-12 6zm149.41 4h218.589v4H708.5Zm216.589-4 12 6-12 6z"/><text x="809.205" y="85.04" font-family="'Cambria Math', 'Cambria Math_MSFontService', sans-serif" font-size="48" font-weight="400">𝛾</text><text x="414.033" y="85.04" font-family="'Cambria Math', 'Cambria Math_MSFontService', sans-serif" font-size="48" font-weight="400">𝜆</text><path fill-rule="evenodd" d="M481.303 48.613q6.843 1.804 10.511 7.793 3.669 5.988 3.668 14.449 0 8.485-3.656 14.449-3.656 5.966-10.523 7.77l-.563-1.805q5.414-1.805 8.051-7.125t2.637-13.523q0-7.922-2.625-13.16t-8.133-7.043zm-23.219 0 .633 1.805q-5.484 1.804-8.121 7.043t-2.637 13.16q0 8.203 2.637 13.523t8.051 7.125l-.563 1.805q-6.867-1.805-10.523-7.77-3.656-5.963-3.656-14.45 0-8.46 3.668-14.448t10.511-7.793"/><text x="459.606" y="85.04" font-family="'Cambria Math', 'Cambria Math_MSFontService', sans-serif" font-size="48" font-weight="400">𝑡</text><text x="625.773" y="226.04" font-family="'Cambria Math', 'Cambria Math_MSFontService', sans-serif" font-size="48" font-weight="400">𝜌</text><path d="M272.5 152.04v99.347h735.179v-88.014h-4v86.014l2-2H274.5l2 2V152.04zm739.179 13.333-6-12-6 12z"/></svg>