<svg xmlns="http://www.w3.org/2000/svg" width="1920" height="400" preserveAspectRatio="xMidYMid" viewBox="0 0 1440 300"><path fill="#004aad" d="M400.174 77.47c-49.364 0-46.852-.16-47.72 2.976-.589 2.121-.589 2.63-.015 4.707.63 2.254 1.524 3.028 3.516 3.028h1.687l.305 7.027c.34 7.734.828 11.558 1.89 14.746 1.762 5.281 6.208 12.434 11.446 18.414 3.125 3.57 5.047 5.316 15.023 13.648 2.313 1.934 4.965 4.618 5.891 5.97 4.34 6.323 4.012 15.472-.781 21.757-.625.82-4.613 4.379-8.863 7.91-8.149 6.766-12.653 11.5-16.817 17.68-6.023 8.933-7.242 12.984-7.797 25.937l-.3 7.047h-1.715c-1.102 0-2.028.313-2.578.864-1.2 1.199-1.61 4.453-.86 6.82.496 1.566.887 2.012 2.164 2.445 1.168.399 12.719.54 45.653.559 49.23.027 46.722.183 47.593-2.953 1.297-4.664-.293-7.735-4.004-7.735h-1.316l-.012-3.234c-.015-4.668-.785-13.922-1.34-16.098-.867-3.394-2.351-6.726-4.8-10.793-4.766-7.902-10.035-13.629-19.957-21.691-3.192-2.59-6.676-5.844-7.743-7.227-4.566-5.922-4.878-14.62-.761-21.062 1.511-2.36 2.43-3.215 12.07-11.27 8.188-6.836 14.766-14.761 18.445-22.215 2.805-5.68 3.465-8.957 3.926-19.52l.305-7.026h1.64c3.055 0 4.7-3.442 3.598-7.532-.91-3.375 1.969-3.18-47.773-3.18m-39.86 10.71h79.723l-.297 7.473c-.375 9.48-1.035 12.606-3.844 18.188-4.113 8.172-9.957 14.843-21.203 24.195-9.312 7.742-11.723 11.484-12.168 18.875-.527 8.738 2.153 13.453 12.38 21.781 10.968 8.934 16.878 15.735 21.218 24.41 2.578 5.157 3.27 8.543 3.625 17.743l.289 7.472h-79.723l.29-7.472c.16-4.114.59-8.88.956-10.59 2.035-9.418 10.426-20.602 23.45-31.235 6.558-5.359 9.148-8.117 10.8-11.492 1.543-3.148 2.114-5.644 2.114-9.281 0-5.399-1.618-9.719-5.133-13.723-1.133-1.289-4.602-4.426-7.715-6.972-10.809-8.844-17.43-16.645-21.48-25.313-1.954-4.18-2.649-8.047-2.989-16.586zm15.805 25.028c-3.238.047-6.512.531-9.856 1.672.016.758 5.887 8.832 8.672 11.933 1.707 1.895 6.024 5.871 9.598 8.832 8.145 6.762 10.71 9.434 12.441 12.985 2.153 4.414 2.375 6.863 2.223 24.136l-.137 15.63-1.468 2.976c-1.93 3.918-5.668 7.332-13.227 12.062-12.8 8.012-17.45 12.153-20.426 18.196-.906 1.836-1.773 3.793-1.926 4.347l-.28 1.004h76.886l-.281-1.004c-.157-.554-1.008-2.504-1.89-4.34-2.177-4.519-7.556-9.898-14.095-14.097-15.117-9.707-17.304-11.516-19.605-16.184l-1.457-2.965V171.2c0-15.661.074-17.411.84-19.645 1.507-4.407 4.425-8.208 9.554-12.43 11.391-9.38 15.133-13.164 19.797-20.043 3.235-4.77 3.223-4.828-.793-2.996-20.656 9.281-37.082-3.149-54.57-2.88m43.55 12.832c.31 0 .602.121.821.34a1.155 1.155 0 0 1 0 1.636c-3.539 3.54-9.918 5.657-15.773 12.95a1.16 1.16 0 0 1-1.809-1.453c6.23-7.758 13.148-10.34 15.941-13.133.22-.219.512-.34.82-.34m0 0"/><path fill="#162144" d="M151.22 116.329c2.602 0 4.876.246 6.813.734q2.905.739 7.063 1.688.434 3.392.656 6.953.216 3.549.297 6.406-.082.362-.39.485c-.2.086-.387.125-.563.125q-.253.002-1.25-.079-1.002-.093-1.172-.703-.269-2.343-1.75-5.156a16.1 16.1 0 0 0-3.937-4.906q-2.473-2.076-5.86-2.078-4.16 0-6.281 2.297c-1.418 1.53-2.125 3.57-2.125 6.109q-.002 3.047 1.906 5.484 1.906 2.426 4.766 4.375a363 363 0 0 0 5.64 3.766l4.594 2.953a31.5 31.5 0 0 1 4.563 3.563 16.6 16.6 0 0 1 3.468 4.64q1.343 2.642 1.344 6.203c0 3.18-.883 5.97-2.64 8.375q-2.642 3.597-6.907 5.594a20.7 20.7 0 0 1-8.922 2q-4.171 0-8.39-.828a331 331 0 0 1-7.75-1.61q-.44-2.25-.875-5.203a128 128 0 0 1-.703-5.468 359 359 0 0 1-.328-3.375q.17-.359 1.125-.75.95-.389 1.296-.39c.633 0 .985.26 1.047.78.164.993.551 2.235 1.157 3.735.613 1.5 1.484 2.992 2.609 4.468 1.125 1.48 2.539 2.711 4.25 3.688q2.56 1.47 6.203 1.469 3.657 0 6.516-2.297 2.86-2.295 2.86-7.063c0-2.257-.653-4.172-1.954-5.734-1.305-1.563-2.899-2.945-4.781-4.156a194 194 0 0 0-5.407-3.39 162 162 0 0 1-6.437-4.376c-2.137-1.531-3.914-3.32-5.328-5.375q-2.126-3.092-2.125-7.516c0-3.007.851-5.671 2.562-7.984q2.562-3.468 6.64-5.453 4.079-1.999 8.5-2m38.73 20.641h10.421q.516.002.516 1.046c0 1.043-.524 1.97-1.563 2.782h-9.375v22.125q-.001 6.843 5.125 6.843 1.735.001 3.25-.906 1.512-.902 1.875-1.172.423.439.422.953 0 .346-.172.829-.174.47-.343.64-.517.533-1.86 1.703-1.345 1.175-3.218 2.125a8.76 8.76 0 0 1-4.032.953q-2.425-.002-4.734-.953c-1.531-.632-2.805-1.757-3.813-3.375-1.011-1.625-1.515-3.851-1.515-6.687v-23.078h-5.64a.56.56 0 0 1-.36-.39 2.2 2.2 0 0 1-.078-.563q.34-.609 1.25-1.563.92-.95 1.265-1.312h3.563v-5.032a95 95 0 0 0 3.937-4.03 680 680 0 0 0 3.172-3.423q.528-.435 1.219-.437.686.002.687.343zm31.967 32.625q2 0 3.781-1.079 1.782-1.091 1.782-1.609v-11.969q-1.565.611-3.657 1.297-2.08.69-3.28 1.39-4.267 2.081-4.266 6.25 0 2.597 1.78 4.157 1.781 1.564 3.86 1.563m3.219-33.657c2.02 0 3.883.54 5.594 1.61 1.707 1.062 3.082 2.539 4.125 4.422q1.56 2.813 1.562 6.453v17.093q-.001 1.737.594 2.782.608 1.03 1.75 1.031 1.029 0 1.719-.422c.468-.289.789-.469.968-.531q.25.095.344.437.094.345.094.61 0 .878-.36 1.468-.515.534-1.859 1.438a26 26 0 0 1-2.906 1.687q-1.564.781-2.953.782c-1.336 0-2.578-.532-3.735-1.594-1.156-1.07-1.906-2.219-2.25-3.438q-.344.346-1.515 1.172a40 40 0 0 1-2.781 1.782 24 24 0 0 1-3.172 1.593q-1.547.657-2.766.657c-2.031 0-3.871-.477-5.516-1.422q-2.471-1.436-3.859-3.782a9.66 9.66 0 0 1-1.39-5.03q-.001-2.59 1.468-4.5 1.483-1.923 3.047-2.438 2.074-.687 5.063-1.813 3-1.139 5.906-2.219 2.906-1.09 4.64-1.78c.352-.407.532-1.071.532-2v-2.25q-.001-2.075-.828-4.032-.832-1.95-2.266-3.203-1.423-1.266-3.25-1.266-2.333 0-3.375 1.735-1.048 1.734-1.563 4.5c-.23 1.218-.695 2.195-1.39 2.921q-1.05 1.08-3.031 1.079a3.56 3.56 0 0 1-2.657-1.125 3.75 3.75 0 0 1-1.078-2.688q-.001-.528.25-1.39.263-.875.625-1.485.95-.951 3.469-2.547 2.514-1.605 5.89-2.953 3.389-1.343 6.86-1.344m48.632 0q1.733 0 3.203.516 1.467.518 2.172 1.469.17.363.422 1.312.264.954.265 1.985 0 2.345-1.296 4-1.3 1.64-2.782 1.64a2.82 2.82 0 0 1-1.859-.687 17 17 0 0 0-1.61-1.219q-.61-.515-1.265-.953c-.43-.29-1.047-.438-1.86-.438q-1.814 0-3.25 1.485-1.44 1.469-2.265 3.25-.814 1.782-.813 2.734v11.969q-.002 2.174.079 4.125.093 1.956.437 3.172.17.515 1.688.828 1.53.298 3.125.469c1.07.117 1.78.171 2.125.171q.264.347.265 1.391-.001 1.03-.265 1.469-2.597-.174-5.891-.344-3.3-.17-5.906-.172-2.69.001-5.422.172-2.738.169-5.328.344-.268-.438-.266-1.469-.002-1.044.266-1.39.513.002 1.765-.172 1.266-.17 2.391-.47 1.125-.31 1.312-.827c.282-.813.446-1.836.5-3.078q.094-1.875.094-4.22v-13.187q0-.515-.047-1.687a47 47 0 0 0-.125-2.344q-.081-1.172-.422-1.781c-.242-.457-.765-.801-1.578-1.031a13.5 13.5 0 0 0-2.422-.485q-1.22-.124-1.562-.125-.08-.188-.172-1.265c-.062-.72-.008-1.11.172-1.172a43.6 43.6 0 0 0 8.156-1.64q3.996-1.218 6.516-2.517c.281.055.55.266.812.641.258.375.391.652.391.828q-.082.347-.25 1.953a130 130 0 0 0-.313 3.297q-.126 1.69-.125 2.219-.002.251.172.297.171.046.266-.047.95-1.905 2.516-3.984a16.6 16.6 0 0 1 3.593-3.563c1.364-.976 2.828-1.469 4.391-1.469m25.188 1.032h10.421q.516.002.516 1.046-.002 1.564-1.562 2.782h-9.375v22.125q-.001 6.843 5.125 6.843 1.733.001 3.25-.906 1.51-.902 1.875-1.172.42.439.421.953 0 .346-.171.829-.175.47-.344.64-.517.533-1.86 1.703c-.898.782-1.968 1.493-3.218 2.125a8.76 8.76 0 0 1-4.032.953q-2.425-.002-4.734-.953c-1.531-.632-2.805-1.757-3.812-3.375-1.012-1.625-1.516-3.851-1.516-6.687v-23.078h-5.64a.56.56 0 0 1-.36-.39 2.2 2.2 0 0 1-.078-.563q.34-.609 1.25-1.563.92-.95 1.265-1.312h3.563v-5.032a95 95 0 0 0 3.937-4.03 680 680 0 0 0 3.172-3.423q.527-.435 1.22-.437c.456 0 .687.117.687.343zm0 0"/><path fill="none" stroke="#737373" stroke-width="12.75" d="M494.748 173.157h362.898"/><path fill="none" stroke="#737373" stroke-linecap="round" stroke-linejoin="round" stroke-width="12.75" d="M491.56 154.032v38.25m407.524-19.125c0 10.563-8.563 19.125-19.125 19.125-10.563 0-19.125-8.562-19.125-19.125 0-10.562 8.562-19.125 19.125-19.125 10.562 0 19.125 8.563 19.125 19.125"/><path fill="none" stroke="#004aad" stroke-width="12.75" d="M494.748 131.579h536.355"/><path fill="none" stroke="#004aad" stroke-linecap="round" stroke-linejoin="round" stroke-width="12.75" d="M491.56 112.454v38.25"/><path fill="#004aad" fill-rule="evenodd" d="m1016.201 110.247 14.894 14.898 14.899-14.898c5.215-5.211 13.035 2.61 7.82 7.82l-14.894 14.899 14.894 14.898c5.215 5.211-2.605 13.035-7.82 7.82l-14.899-14.898-14.894 14.898c-5.215 5.215-13.035-2.609-7.82-7.82l14.894-14.898-14.894-14.899c-5.215-5.21 2.605-13.031 7.82-7.82m0 0"/><path fill="#162144" d="M1109.458 117.36c1.5 0 3.445-.023 5.844-.078a461 461 0 0 0 7.718-.266q4.124-.168 7.985-.25a278 278 0 0 1 6.562-.093 62 62 0 0 0 1.156 6.297q.75 3.08 1.36 6.015-.174.188-.781.313a5 5 0 0 1-1.047.125q-1.05 0-1.297-.61c-.93-2.945-2.156-5.07-3.688-6.375-1.53-1.3-3.543-1.953-6.03-1.953h-7.282c-.524 0-1.172.016-1.953.047q-1.173.047-2.14.266-.957.221-1.126.64-.345.88-.344 2.39v19.048q0 .346 1.125.562 1.138.222 2.516.22h4.61q3.374 0 4.937-.438 1.558-.435 2.25-1.735.702-1.295 1.39-3.984.17-.703 1.22-.703c.695 0 1.218.18 1.562.53v16.485q-.345.344-1.47.344-1.048 0-1.312-.703-.86-3.374-1.515-4.281-.643-.92-1.25-1.266-.786-.433-3.094-.516a118 118 0 0 0-4.812-.093q-1.207 0-2.641.047-1.442.046-2.484.265-1.032.207-1.032.64v16.579q-.001 1.394.125 2.828.14 1.423.39 1.938.704.784 2.22 1 1.513.22 3.687.218h5.375q2.513 0 4.985-.515 2.483-.527 4.125-1.922 1.481-1.202 2.734-3.235 1.266-2.044 2.297-5.265.187-.516 1.219-.516.7.001 1.484.172.779.174.953.344a844 844 0 0 1-2.734 7.64q-1.519 4.161-1.953 7.032-2.954 0-7.735-.047-4.77-.047-10.5-.094a1878 1878 0 0 0-11.531-.031c-2.543 0-4.781.023-6.719.078q-2.906.094-4.64.094-.268-.437-.266-1.469-.002-1.043.266-1.406.513.001 1.812-.125a17 17 0 0 0 2.516-.422q1.216-.312 1.39-.828c.29-.813.461-1.836.516-3.078q.093-1.875.094-4.22v-34.53q0-2.343-.094-4.25-.082-1.906-.516-3.032-.174-.528-1.39-.875a14.5 14.5 0 0 0-2.516-.468q-1.299-.141-1.812-.141-.268-.421-.266-1.469-.002-1.044.266-1.39 2.589.175 5.625.343c2.03.118 3.914.172 5.656.172m46.281 19.61q2.59.001 5.156-.25a82 82 0 0 1 4.64-.36q.264.361.22 1.531-.05 1.173-.391 1.344-.439.001-1.563.172-1.126.175-2.125.61-1.001.421-1 1.124v.344q0 .27.094.516c.289.586.797 1.656 1.515 3.219.72 1.562 1.524 3.312 2.422 5.25a413 413 0 0 1 2.563 5.593 479 479 0 0 1 2 4.47l.781 1.78q-.002 0 .688-1.687a994 994 0 0 0 1.78-4.344q1.09-2.654 2.391-5.734 1.296-3.076 2.422-5.766.704-1.558.703-2.953-.001-.95-1-1.516-1.001-.561-2.296-.812-1.3-.265-2.266-.266-.345-.17-.344-1.344-.002-1.17.266-1.53 1.999.187 3.734.405 1.733.205 4.328.204 2.608.001 4.688-.25a52 52 0 0 1 3.906-.36q.264.361.172 1.485-.081 1.125-.344 1.39-.439 0-1.734.219a9 9 0 0 0-2.61.86q-1.299.656-1.906 1.859a366 366 0 0 1-2.125 4.828 637 637 0 0 0-2.906 6.547 532 532 0 0 1-3.172 7.078 358 358 0 0 0-2.906 6.547 2140 2140 0 0 0-2.078 4.86q-1.565 3.203-3.032 3.202-.269 0-.53-.219a1.8 1.8 0 0 0-.423-.296 1538 1538 0 0 1-7.422-16.829 377 377 0 0 0-7.421-16.062 3.53 3.53 0 0 0-1.563-1.688 6.6 6.6 0 0 0-2.078-.734q-1.049-.17-1.469-.172-.264-.435-.265-1.39.001-.951.265-1.485 2.25.095 4.938.36 2.683.251 5.297.25m45.58 12.765q.265 0 2.047-.047 1.78-.046 4.03-.093c1.5-.032 2.884-.055 4.157-.079q1.922-.046 2.438-.14 1.56 0 1.562-1.735 0-1.558-.61-3.515a9 9 0 0 0-1.952-3.422c-.899-.977-2.125-1.469-3.688-1.469-1.562 0-2.867.465-3.906 1.39a10 10 0 0 0-2.469 3.298c-.605 1.273-1.027 2.468-1.266 3.593-.23 1.125-.343 1.868-.343 2.22m-.344 3.297q-.081 5.814 2.047 9.203 2.12 3.376 5.203 4.86 3.076 1.469 5.937 1.468 3.638.001 6.11-1.609c1.656-1.07 2.86-2.016 3.61-2.828.175.062.363.242.562.531q.311.423.312.86 0 .346-.14.874-.128.517-.297.782-.784 1.204-2.688 3.078-1.908 1.862-4.812 3.297c-1.938.945-4.153 1.422-6.64 1.422-3.306 0-6.313-.75-9.032-2.25q-4.078-2.25-6.469-6.329-2.377-4.078-2.375-9.468 0-4.248 1.563-8.016 1.56-3.78 4.203-6.687 2.655-2.907 5.906-4.594 3.247-1.688 6.547-1.688 4.077.001 6.812 1.297c1.82.867 3.266 1.965 4.328 3.297 1.07 1.336 1.829 2.711 2.266 4.125q.657 2.128.656 3.688c0 1.093-.18 2.007-.53 2.734q-.517 1.079-1.642 1.172c-1.105.055-2.64.125-4.609.219q-2.94.128-6.328.25-3.392.127-6.25.218-2.86.094-4.25.094m58.947-17.095c3.238 0 5.68.711 7.328 2.125q2.484 2.127 3.343 6.422.874 4.283.875 10.89v7.626q-.002 2.344.079 4.219c.062 1.242.207 2.265.437 3.078q.171.515 1.344.828 1.17.298 2.422.469c.843.117 1.441.171 1.797.171q.248.347.25 1.391-.002 1.03-.25 1.469-2.614-.174-5.297-.344a84 84 0 0 0-5.297-.172q-2.594.001-5.031.172-2.425.169-5.032.344c-.18-.293-.265-.781-.265-1.469q-.002-1.044.265-1.39.515.002 1.64-.172 1.14-.17 2.173-.47 1.042-.31 1.219-.827c.289-.813.445-1.836.468-3.078q.048-1.875.047-4.22v-7.812q-.001-6.421-1.39-9.797c-.918-2.257-2.825-3.39-5.72-3.39q-1.64 0-3.468.969-1.83.953-3.125 2.078-1.299 1.125-1.297 1.734v16.219q-.002 2.174.078 4.125.093 1.956.438 3.172.17.515 1.25.828a19 19 0 0 0 2.265.469c.782.117 1.344.171 1.688.171q.265.347.266 1.391-.001 1.03-.266 1.469l-5.156-.344a78 78 0 0 0-5.157-.172q-2.706.001-5.312.172-2.596.169-5.188.344c-.18-.293-.265-.781-.265-1.469q-.002-1.044.265-1.39.514.002 1.766-.172 1.265-.17 2.39-.47 1.125-.31 1.313-.827c.281-.813.446-1.836.5-3.078q.094-1.875.094-4.22v-13.187q0-.515-.047-1.687a47 47 0 0 0-.125-2.344q-.082-1.172-.422-1.781c-.242-.457-.765-.801-1.578-1.031a13.5 13.5 0 0 0-2.422-.485c-.812-.082-1.336-.125-1.562-.125q-.08-.188-.172-1.265-.096-1.08.172-1.172a43.6 43.6 0 0 0 8.156-1.64q3.996-1.218 6.516-2.517.42 0 .812.563c.258.375.39.68.39.906q-.08.346-.25 1.485-.173 1.125-.312 2.203-.127 1.078-.125 1.25-.002.532.172.531.093.001.438-.344 1.03-1.218 3.062-2.687a27.5 27.5 0 0 1 4.438-2.61q2.389-1.125 4.375-1.125m36.654 1.032h10.422q.515.002.515 1.046-.002 1.564-1.562 2.782h-9.375v22.125q-.001 6.843 5.125 6.843 1.733.001 3.25-.906 1.512-.902 1.875-1.172.422.439.422.953-.001.346-.172.829-.174.47-.344.64-.517.533-1.86 1.703-1.345 1.175-3.218 2.125a8.76 8.76 0 0 1-4.031.953q-2.425-.002-4.735-.953c-1.53-.632-2.804-1.757-3.812-3.375-1.012-1.625-1.516-3.851-1.516-6.687v-23.078h-5.64a.56.56 0 0 1-.36-.39 2.2 2.2 0 0 1-.078-.563q.341-.609 1.25-1.563.92-.95 1.266-1.312h3.562v-5.032a95 95 0 0 0 3.938-4.03 680 680 0 0 0 3.172-3.423q.527-.435 1.218-.437c.457 0 .688.117.688.343zm0 0"/><path fill="#004aad" d="M602.15 48q2.063.001 3.234-.484 1.184-.497 1.875-.625c.414-.082.75-.082 1 0q.124.676.313 2.235.187 1.566.437 3.406.247 1.828.5 3.328c.164 1 .29 1.711.375 2.125-.086.086-.281.188-.594.313a2.4 2.4 0 0 1-.906.187q-.562 0-.75-.375-.562-3.188-2.25-5.39c-1.117-1.477-2.465-2.22-4.047-2.22h-6.797v30.423q0 1.688.063 3.031.06 1.347.312 2.203.122.376 1 .594.874.222 1.813.344c.625.086 1.062.125 1.312.125q.188.251.188 1c0 .5-.063.851-.188 1.062q-1.876-.128-4.062-.25a72 72 0 0 0-4.047-.125q-1.876.001-4.062.125-2.173.122-4.047.25-.188-.314-.188-1.062 0-.749.188-1 .373.001 1.343-.125a15 15 0 0 0 1.844-.344q.872-.218 1-.594.294-.855.36-2.203.06-1.343.062-3.031V50.5h-6.969q-2.314.002-4.031 2.219-1.721 2.202-2.266 5.39-.188.375-.687.375-.44 0-.938-.187-.503-.186-.625-.313c.082-.414.207-1.125.375-2.125.164-1 .344-2.11.532-3.328q.279-1.84.5-3.406.216-1.56.28-2.235.437-.187 1.048 0 .686.128 1.812.625 1.125.486 3.188.485zm21.293 21.266v11.657q0 1.564.062 2.968c.04.938.145 1.696.313 2.266q.122.376.906.594.779.222 1.61.344.843.127 1.218.125.188.251.188 1c0 .5-.063.851-.188 1.062q-1.863-.128-3.703-.25a56 56 0 0 0-3.703-.125q-1.938.001-3.812.125-1.876.122-3.735.25-.187-.314-.187-1.062 0-.749.187-1 .375.001 1.266-.125a13 13 0 0 0 1.719-.344q.808-.218.937-.594.31-.855.375-2.203.062-1.343.063-3.031v-9.469q-.001-.375-.032-1.219a61 61 0 0 0-.093-1.687q-.066-.844-.313-1.282-.252-.499-1.125-.734a11 11 0 0 0-1.75-.344q-.862-.093-1.11-.093-.064-.122-.124-.907-.063-.78.125-.843a30.7 30.7 0 0 0 5.843-1.188q2.872-.874 4.688-1.812.311.064.594.468.28.41.281.594-.064.252-.188 1.031a32 32 0 0 0-.218 1.625q-.094.845-.094 1.22Zm-7.61-17.89q0-1.622 1.126-2.735 1.124-1.125 2.687-1.125 1.607 0 2.734 1.125 1.125 1.113 1.125 2.735a3.56 3.56 0 0 1-1.125 2.656q-1.127 1.078-2.734 1.078a3.75 3.75 0 0 1-2.687-1.078 3.56 3.56 0 0 1-1.125-2.656m36.138 10.094q2.919 0 4.672 1.156 1.746 1.16 2.672 4.078a28 28 0 0 1 3.093-2.516 19 19 0 0 1 3.454-1.968q1.746-.75 3.187-.75 3.482 0 5.266 1.53c1.187 1.024 1.988 2.563 2.406 4.626.414 2.055.625 4.656.625 7.812v5.485q0 1.688.062 3.031.06 1.347.313 2.203.123.376.922.594.81.222 1.719.344.903.127 1.28.125.188.251.188 1c0 .5-.062.851-.187 1.062-1.25-.086-2.524-.168-3.813-.25a59 59 0 0 0-3.797-.125q-1.876.001-3.593.125-1.704.122-3.578.25-.188-.314-.188-1.062 0-.749.188-1 .374.001 1.187-.125.81-.123 1.531-.344.715-.218.844-.594.31-.855.375-2.203.062-1.343.063-3.031v-5.86q-.001-2.669-.407-4.765-.409-2.094-1.468-3.266-1.067-1.185-3.188-1.187c-.906 0-1.82.23-2.734.687q-1.376.673-2.313 1.516c-.625.562-.937.992-.937 1.281q-.002.064.031.25.03.188.031.312.123 1.125.188 2.532.06 1.394.062 2.64v5.86q0 1.688.063 3.031.06 1.347.312 2.203.123.376.938.594.81.222 1.718.344c.602.086 1.032.125 1.282.125q.187.251.187 1c0 .5-.062.851-.187 1.062q-1.876-.128-3.782-.25a58 58 0 0 0-3.765-.125q-1.875.001-3.656.125l-3.641.25q-.188-.314-.188-1.062 0-.749.188-1 .375.001 1.219-.125a11 11 0 0 0 1.578-.344c.5-.145.789-.344.875-.594q.31-.855.344-2.203.03-1.343.03-3.031V75.25q0-4.545-1.03-6.969-1.018-2.437-3.954-2.437-1.314 0-2.593.656-1.267.645-2.14 1.453c-.587.543-.876.98-.876 1.312v11.657q0 1.564.063 2.968c.039.938.144 1.696.312 2.266q.122.376.906.594.779.222 1.61.344.843.127 1.218.125.188.251.188 1c0 .5-.063.851-.188 1.062q-1.863-.128-3.703-.25a56 56 0 0 0-3.703-.125q-1.938.001-3.812.125-1.876.122-3.735.25-.187-.314-.187-1.062 0-.749.187-1 .375.001 1.266-.125a13 13 0 0 0 1.719-.344q.808-.218.937-.594.31-.855.375-2.203.062-1.343.063-3.031V71.64q-.001-.373-.032-1.25a74 74 0 0 0-.093-1.78q-.066-.904-.313-1.345-.252-.499-1.125-.734a11 11 0 0 0-1.75-.344q-.862-.093-1.11-.093-.064-.122-.124-.907-.063-.78.125-.843a30.7 30.7 0 0 0 5.844-1.188q2.87-.874 4.687-1.812.311.064.594.468.28.41.281.594-.064.252-.187 1.031a40 40 0 0 0-.22 1.532q-.093.751-.093.875-.001.314.125.312.124 0 .313-.187.808-.81 2.203-1.875a17.5 17.5 0 0 1 3.062-1.844q1.654-.78 3.219-.781m40.493 9.922c.125 0 .61-.007 1.453-.03q1.277-.03 2.906-.063 1.624-.03 2.985-.063 1.373-.029 1.75-.094c.75 0 1.125-.414 1.125-1.25 0-.75-.149-1.585-.438-2.515a6.5 6.5 0 0 0-1.406-2.469q-.972-1.061-2.64-1.062c-1.126 0-2.063.336-2.813 1a7.5 7.5 0 0 0-1.782 2.375q-.644 1.359-.89 2.578-.251 1.218-.25 1.593m-.25 2.36q-.065 4.189 1.453 6.625 1.53 2.424 3.75 3.484 2.215 1.065 4.266 1.063c1.75 0 3.21-.383 4.39-1.157q1.78-1.154 2.594-2.03.186.063.406.374.218.316.219.625 0 .251-.094.625-.094.375-.219.563-.564.878-1.937 2.218-1.36 1.33-3.453 2.36-2.097 1.03-4.766 1.031-3.564.002-6.5-1.625-2.924-1.623-4.64-4.547-1.705-2.935-1.704-6.797-.001-3.058 1.11-5.765 1.123-2.718 3.031-4.797 1.904-2.093 4.234-3.313c1.563-.812 3.133-1.218 4.72-1.218q2.919 0 4.89.937 1.967.938 3.11 2.375 1.155 1.441 1.624 2.969.47 1.516.469 2.64 0 1.19-.375 1.97-.377.767-1.188.827-1.19.064-3.312.157a765 765 0 0 1-9.031.343 105 105 0 0 1-3.047.063m24.959-1.172 1.344-.063q1.342-.058 3.36-.187c1.35-.082 2.75-.156 4.187-.219 1.437-.062 2.71-.125 3.828-.187a50 50 0 0 1 2.312-.094q.436 0 .438.562-.002.799-.25 1.766a10.5 10.5 0 0 1-.625 1.781q-1.44.065-3.907.188a535 535 0 0 1-5.359.25q-2.894.128-5.766.25-.438.002-.437-.688 0-.873.281-1.78c.188-.602.383-1.13.594-1.579M748.63 62.22h7.484q.375 0 .375.75 0 1.126-1.125 2h-6.735v15.89q-.002 4.939 3.688 4.938 1.23 0 2.328-.657 1.09-.656 1.344-.843.311.314.312.687-.001.253-.125.594-.128.33-.25.453-.376.375-1.344 1.219a11.5 11.5 0 0 1-2.312 1.531 6.2 6.2 0 0 1-2.89.688 8.8 8.8 0 0 1-3.407-.688c-1.094-.457-2.008-1.266-2.734-2.422q-1.094-1.748-1.094-4.812V64.97h-4.047q-.19-.06-.25-.282a1.4 1.4 0 0 1-.063-.406c.164-.289.47-.664.907-1.125q.655-.686.906-.937h2.547v-3.61c.875-.832 1.82-1.8 2.844-2.906l2.265-2.453q.374-.312.875-.313.499.002.5.25zm25.539 1.5q-2.438.001-3.782 1.625-1.346 1.61-1.843 4.078a25.6 25.6 0 0 0-.485 4.953q0 2.126.422 4.375a16.4 16.4 0 0 0 1.375 4.14q.937 1.91 2.344 3.063 1.406 1.142 3.328 1.14 2.498.001 3.812-1.609 1.313-1.622 1.829-4.047a23 23 0 0 0 .53-4.875q0-2.185-.468-4.422-.456-2.248-1.39-4.14-.939-1.904-2.376-3.094-1.44-1.185-3.296-1.187m.609-2.313q4.25 0 7.39 1.781c2.102 1.188 3.735 2.825 4.891 4.907q1.748 3.112 1.75 7.03-.002 4.004-1.844 7.25a14.13 14.13 0 0 1-4.984 5.173q-3.14 1.922-7.078 1.922c-2.824 0-5.29-.61-7.39-1.829q-3.142-1.839-4.86-4.968-1.704-3.122-1.703-7.047 0-3.983 1.828-7.188a14.2 14.2 0 0 1 4.953-5.125q3.122-1.905 7.047-1.906m22.042 11.172 1.343-.063q1.343-.058 3.36-.187c1.351-.082 2.75-.156 4.187-.219 1.437-.062 2.71-.125 3.828-.187a50 50 0 0 1 2.313-.094q.435 0 .437.562-.002.799-.25 1.766a10.5 10.5 0 0 1-.625 1.781q-1.44.065-3.906.188a535 535 0 0 1-5.36.25q-2.894.128-5.765.25-.439.002-.438-.688 0-.873.282-1.78c.187-.602.382-1.13.593-1.579m29.033-1.188c.125 0 .609-.007 1.453-.03q1.277-.03 2.906-.063 1.624-.03 2.984-.063c.914-.02 1.5-.05 1.75-.094.75 0 1.125-.414 1.125-1.25 0-.75-.148-1.585-.437-2.515a6.5 6.5 0 0 0-1.406-2.469q-.973-1.061-2.641-1.062c-1.125 0-2.063.336-2.813 1a7.5 7.5 0 0 0-1.78 2.375q-.645 1.359-.891 2.578-.251 1.218-.25 1.593m-.25 2.36q-.065 4.189 1.453 6.625 1.53 2.424 3.75 3.484 2.214 1.065 4.265 1.063 2.623.002 4.39-1.157 1.781-1.154 2.595-2.03c.125.042.257.167.406.374q.218.316.219.625 0 .251-.094.625-.095.375-.219.563-.564.878-1.937 2.218-1.361 1.33-3.453 2.36-2.096 1.03-4.766 1.031-3.564.002-6.5-1.625-2.924-1.623-4.64-4.547-1.705-2.935-1.704-6.797c0-2.039.367-3.96 1.11-5.765.75-1.813 1.757-3.41 3.03-4.797q1.904-2.093 4.235-3.313c1.563-.812 3.133-1.218 4.719-1.218 1.945 0 3.578.312 4.89.937q1.968.938 3.11 2.375 1.155 1.441 1.625 2.969.469 1.516.469 2.64 0 1.19-.375 1.97c-.25.51-.649.788-1.188.827q-1.19.064-3.312.157a765 765 0 0 1-9.032.343 105 105 0 0 1-3.046.063m27.709-11.531q1.875 0 3.703-.188a58 58 0 0 1 3.344-.25q.187.25.156 1.094-.035.845-.28.969-.318.001-1.126.125a6.3 6.3 0 0 0-1.531.437q-.72.315-.719.813v.25q0 .188.063.375.31.626 1.093 2.312l1.75 3.766a276 276 0 0 1 1.828 4.015 453 453 0 0 1 1.438 3.22l.562 1.265.5-1.203q.497-1.218 1.282-3.125.78-1.906 1.718-4.11a427 427 0 0 0 1.735-4.156q.499-1.125.5-2.11-.002-.684-.719-1.093a5.4 5.4 0 0 0-1.64-.594q-.94-.187-1.626-.187-.251-.124-.25-.97 0-.842.188-1.093 1.436.13 2.672.281 1.249.158 3.125.157c1.25 0 2.367-.063 3.36-.188q1.5-.187 2.812-.25.185.253.125 1.063-.064.813-.25 1-.315.002-1.25.156a6.7 6.7 0 0 0-1.875.625q-.925.47-1.36 1.344c-.375.867-.886 2.015-1.53 3.453a538 538 0 0 0-2.095 4.718q-1.112 2.549-2.265 5.079a196 196 0 0 0-2.094 4.703q-.938 2.173-1.5 3.484c-.75 1.543-1.477 2.313-2.172 2.313a.6.6 0 0 1-.375-.157 1.6 1.6 0 0 0-.312-.218q-2.878-6.423-5.344-12.094a270 270 0 0 0-5.328-11.531 2.6 2.6 0 0 0-1.125-1.22 4.8 4.8 0 0 0-1.485-.53q-.75-.124-1.062-.125-.188-.31-.188-1 0-.687.188-1.063 1.623.063 3.547.25 1.935.188 3.812.188m32.766 9.171c.125 0 .61-.007 1.453-.03q1.277-.03 2.906-.063 1.624-.03 2.985-.063c.914-.02 1.5-.05 1.75-.094q1.125.002 1.125-1.25c0-.75-.149-1.585-.438-2.515a6.5 6.5 0 0 0-1.406-2.469q-.973-1.061-2.64-1.062-1.688.002-2.813 1a7.5 7.5 0 0 0-1.782 2.375q-.644 1.359-.89 2.578-.251 1.218-.25 1.593m-.25 2.36q-.065 4.189 1.453 6.625 1.53 2.424 3.75 3.484 2.214 1.065 4.266 1.063c1.75 0 3.21-.383 4.39-1.157 1.188-.77 2.05-1.445 2.594-2.03q.186.063.406.374.218.316.219.625 0 .251-.094.625-.094.375-.219.563-.564.878-1.937 2.218-1.36 1.33-3.453 2.36-2.096 1.03-4.766 1.031-3.563.002-6.5-1.625-2.924-1.623-4.64-4.547-1.705-2.935-1.704-6.797-.001-3.058 1.11-5.765 1.123-2.718 3.031-4.797 1.904-2.093 4.234-3.313c1.563-.812 3.133-1.218 4.72-1.218 1.944 0 3.577.312 4.89.937q1.967.938 3.11 2.375 1.155 1.441 1.624 2.969.47 1.516.469 2.64 0 1.19-.375 1.97c-.25.51-.649.788-1.188.827q-1.19.064-3.312.157a765 765 0 0 1-9.031.343 105 105 0 0 1-3.047.063m42.365-12.281q3.48 0 5.25 1.53c1.188 1.024 1.988 2.563 2.406 4.626.414 2.055.625 4.656.625 7.812v5.485q0 1.688.063 3.031.06 1.347.312 2.203.124.376.97.594.842.222 1.75.344c.6.086 1.03.125 1.28.125q.188.251.188 1c0 .5-.063.851-.188 1.062q-1.877-.128-3.812-.25a60 60 0 0 0-3.797-.125q-1.876.001-3.625.125-1.735.122-3.61.25-.187-.314-.187-1.062 0-.749.188-1 .374.001 1.187-.125.81-.123 1.547-.344.749-.218.875-.594.31-.855.344-2.203.03-1.343.031-3.031v-5.61q-.002-4.605-1-7.03-.985-2.439-4.11-2.438-1.187 0-2.5.687-1.298.675-2.234 1.484-.937.816-.937 1.25v11.657q0 1.564.062 2.968.06 1.409.313 2.266.122.376.906.594.779.222 1.61.344.843.127 1.218.125.188.251.188 1c0 .5-.063.851-.188 1.062q-1.863-.128-3.703-.25a56 56 0 0 0-3.703-.125q-1.939.001-3.813.125-1.876.122-3.734.25-.187-.314-.187-1.062 0-.749.187-1 .375.001 1.266-.125a13 13 0 0 0 1.718-.344q.81-.218.938-.594.31-.855.375-2.203.06-1.343.062-3.031v-9.469q0-.375-.03-1.219a61 61 0 0 0-.095-1.687q-.065-.844-.312-1.282-.252-.499-1.125-.734a11 11 0 0 0-1.75-.344q-.862-.093-1.11-.093-.064-.122-.124-.907-.064-.78.125-.843a30.7 30.7 0 0 0 5.843-1.188q2.871-.874 4.688-1.812.311 0 .594.406.28.41.28.656-.063.253-.187 1.063a43 43 0 0 0-.218 1.593q-.094.785-.094.907-.002.375.125.375.06.001.312-.25.75-.872 2.203-1.938a20 20 0 0 1 3.188-1.875q1.715-.81 3.156-.812m26.332.75h7.484q.375 0 .375.75 0 1.126-1.125 2h-6.734v15.89c0 3.293 1.226 4.938 3.687 4.938q1.232 0 2.328-.657 1.091-.656 1.344-.843.311.314.312.687-.001.253-.125.594-.128.33-.25.453-.376.375-1.343 1.219a11.5 11.5 0 0 1-2.313 1.531 6.2 6.2 0 0 1-2.89.688 8.8 8.8 0 0 1-3.407-.688c-1.093-.457-2.008-1.266-2.734-2.422q-1.095-1.748-1.094-4.812V64.97h-4.047q-.189-.06-.25-.282a1.4 1.4 0 0 1-.062-.406c.164-.289.469-.664.906-1.125q.656-.686.906-.937h2.547v-3.61c.875-.832 1.82-1.8 2.844-2.906l2.266-2.453q.373-.312.875-.313.499.002.5.25zm0 0"/><path fill="#737373" d="M579.1 197.78q3.122 0 6.579.282 3.468.269 6.515.953 0 .128.281 1.469.282 1.346.657 3.062.374 1.704.625 3.11c.164.937.25 1.492.25 1.656q-.001.376-.5.687-.503.315-1 .313-.628.002-.875-.313-.188-.808-.782-2.25-.597-1.435-1.875-2.922-1.266-1.5-3.546-2.531-2.269-1.03-5.891-1.031-3.362.002-5.922 1.469-2.565 1.471-4.281 3.968-1.705 2.485-2.578 5.578a23 23 0 0 0-.875 6.375q-.001 3.627.906 7.125.903 3.487 2.703 6.329 1.81 2.83 4.594 4.484c1.851 1.094 4.047 1.64 6.578 1.64q2.872.002 4.766-.765 1.905-.78 3.218-1.969a9.3 9.3 0 0 0 2.14-2.656 22 22 0 0 0 1.345-2.86q.497-1.341.625-1.968.685 0 1.312.219c.414.148.688.28.813.406 0 .25-.086.836-.25 1.75a78 78 0 0 1-.625 3.015 32 32 0 0 1-.813 2.97q-.44 1.298-.75 1.484-2.737 1.253-5.984 2.062-3.234.812-7.547.813-4.487 0-8.36-1.563-3.862-1.558-6.734-4.36a20.3 20.3 0 0 1-4.453-6.515c-1.055-2.477-1.578-5.148-1.578-8.016q-.001-4.42 1.61-8.312 1.62-3.904 4.515-6.86a21.2 21.2 0 0 1 6.766-4.64q3.874-1.688 8.421-1.688m28.034 23.938q.187.002 1.453-.031 1.277-.03 2.906-.063 1.624-.029 2.984-.062 1.373-.03 1.75-.094c.75 0 1.125-.414 1.125-1.25q-.002-1.123-.437-2.516a6.5 6.5 0 0 0-1.406-2.468q-.973-1.062-2.641-1.063c-1.125 0-2.062.336-2.812 1a7.5 7.5 0 0 0-1.782 2.375q-.644 1.36-.89 2.578-.251 1.22-.25 1.594m-.25 2.36q-.065 4.188 1.453 6.624 1.53 2.425 3.75 3.485 2.214 1.064 4.265 1.062 2.623.002 4.391-1.156c1.188-.77 2.05-1.445 2.594-2.031q.186.065.406.375.218.315.219.625 0 .251-.094.625-.094.375-.219.562-.564.878-1.937 2.219-1.36 1.33-3.453 2.36-2.096 1.03-4.766 1.03-3.563.002-6.5-1.624-2.925-1.624-4.64-4.547-1.705-2.936-1.704-6.797c0-2.04.367-3.961 1.11-5.766.75-1.812 1.757-3.41 3.03-4.797q1.904-2.092 4.235-3.312c1.563-.813 3.133-1.219 4.719-1.219 1.945 0 3.578.313 4.89.938q1.968.938 3.11 2.375 1.156 1.44 1.625 2.968.47 1.517.469 2.64 0 1.19-.375 1.97c-.25.511-.649.789-1.188.828q-1.19.064-3.312.156a765 765 0 0 1-9.031.344 105 105 0 0 1-3.047.062m42.365-12.281q3.48.001 5.25 1.531c1.188 1.024 1.988 2.563 2.406 4.625q.623 3.08.625 7.813v5.484q0 1.689.063 3.031.06 1.348.312 2.204.125.376.969.593.843.222 1.75.344c.602.086 1.031.125 1.281.125q.188.251.188 1 0 .748-.188 1.063-1.877-.128-3.812-.25a60 60 0 0 0-3.797-.125q-1.877 0-3.625.125-1.735.122-3.61.25-.187-.315-.187-1.063 0-.749.188-1c.25 0 .644-.039 1.187-.125q.81-.122 1.547-.344.748-.217.875-.593.31-.855.344-2.204.03-1.343.03-3.03v-5.61q-.001-4.605-1-7.031-.984-2.438-4.108-2.438-1.189 0-2.5.688c-.868.449-1.61.945-2.235 1.484q-.937.815-.937 1.25v11.656q0 1.563.062 2.969.06 1.407.313 2.266.121.376.906.593.779.222 1.61.344c.562.086.968.125 1.218.125q.188.251.188 1 0 .748-.188 1.063-1.863-.128-3.703-.25a56 56 0 0 0-3.703-.125q-1.939 0-3.813.125-1.876.122-3.734.25-.188-.315-.188-1.063 0-.749.188-1c.25 0 .672-.039 1.266-.125a13 13 0 0 0 1.718-.344q.81-.217.938-.593.31-.855.375-2.204.06-1.343.062-3.03v-9.47q0-.375-.031-1.218a61 61 0 0 0-.094-1.688q-.065-.842-.312-1.281-.252-.499-1.125-.734a11 11 0 0 0-1.75-.344q-.863-.094-1.11-.094-.066-.122-.125-.906-.064-.78.125-.844a30.7 30.7 0 0 0 5.844-1.187q2.871-.875 4.688-1.813.311.001.593.406.282.41.282.657-.065.252-.188 1.062a43 43 0 0 0-.219 1.594q-.093.784-.093.906-.002.375.125.375.06.001.312-.25.75-.872 2.203-1.937a20 20 0 0 1 3.188-1.875q1.715-.811 3.156-.813m27.769-.062q1.999 0 3.453.375 1.465.376 3.219.687.247 1.003.5 2.375.246 1.377.406 2.719.154 1.33.156 2.14 0 .188-.281.282a1.9 1.9 0 0 1-.594.093q-.563 0-1.125-.375c-.21-.875-.562-1.773-1.062-2.703a7.5 7.5 0 0 0-1.969-2.375q-1.207-.967-2.953-.968-1.875.001-2.938 1-1.047 1.001-1.046 2.671 0 1.629.89 2.594.904.973 2.281 1.656a98 98 0 0 1 5.86 3.204 9.15 9.15 0 0 1 2.719 2.468q1.091 1.5 1.093 3.797 0 2.814-1.531 4.719-1.535 1.894-4.031 2.89c-1.656.665-3.446 1-5.36 1q-2.11 0-3.89-.468a54 54 0 0 0-3.406-.781c-.125-.458-.243-1.204-.344-2.235q-.142-1.56-.266-3.062c-.086-1-.125-1.688-.125-2.063q.123-.188.422-.281.31-.094.563-.094.246 0 .562.094.31.093.438.281.621 3 2.625 4.688 1.999 1.674 4.109 1.672 1.81.002 2.906-1.11 1.092-1.124 1.094-2.875-.001-1.746-1.063-2.812-1.065-1.061-2.687-1.828a45 45 0 0 1-3.234-1.72q-2.314-1.309-4.032-2.984-1.703-1.687-1.703-4.5-.002-2.748 1.578-4.546 1.593-1.811 3.985-2.72c1.601-.6 3.195-.905 4.78-.905m27.781 2.312q-2.438.001-3.78 1.625-1.348 1.612-1.845 4.078a25.6 25.6 0 0 0-.484 4.953q0 2.126.422 4.375a16.4 16.4 0 0 0 1.375 4.14q.937 1.91 2.344 3.063 1.405 1.142 3.328 1.141 2.498.001 3.812-1.61 1.313-1.621 1.828-4.046a23 23 0 0 0 .532-4.875q0-2.185-.47-4.422-.454-2.25-1.39-4.14-.938-1.906-2.375-3.094-1.44-1.186-3.297-1.188m.61-2.312q4.25 0 7.39 1.78c2.102 1.188 3.735 2.825 4.891 4.907 1.164 2.074 1.75 4.418 1.75 7.031q-.002 4.003-1.844 7.25a14.13 14.13 0 0 1-4.984 5.172q-3.14 1.922-7.078 1.922c-2.824 0-5.29-.61-7.39-1.828q-3.143-1.84-4.86-4.969-1.704-3.122-1.703-7.047 0-3.983 1.828-7.187a14.2 14.2 0 0 1 4.953-5.125q3.122-1.906 7.047-1.906m38.322.062q1.248 0 2.297.375 1.06.376 1.563 1.063.124.251.312.937.188.69.188 1.438 0 1.675-.938 2.859-.94 1.188-1.984 1.187c-.5 0-.95-.164-1.344-.5a14 14 0 0 0-1.156-.875c-.293-.25-.594-.476-.906-.687q-.47-.312-1.344-.313-1.312.001-2.344 1.063a8.6 8.6 0 0 0-1.61 2.344q-.595 1.282-.593 1.968v8.594q0 1.563.063 2.969.06 1.407.312 2.266.123.376 1.219.593 1.09.222 2.234.344c.77.086 1.281.125 1.531.125q.188.251.188 1 0 .748-.188 1.063-1.876-.128-4.25-.25a82 82 0 0 0-4.234-.125 62 62 0 0 0-3.89.125q-1.97.122-3.829.25-.187-.315-.187-1.063 0-.749.187-1c.25 0 .672-.039 1.266-.125a13 13 0 0 0 1.719-.344q.808-.217.937-.593.31-.855.375-2.204.061-1.343.063-3.03v-9.47q-.001-.375-.032-1.218a61 61 0 0 0-.093-1.688q-.066-.842-.313-1.281-.252-.499-1.125-.734a11 11 0 0 0-1.75-.344q-.862-.094-1.11-.094-.064-.122-.124-.906-.063-.78.125-.844a30.7 30.7 0 0 0 5.844-1.187q2.87-.875 4.687-1.813.311.065.594.469.28.408.281.594-.064.25-.187 1.406a70 70 0 0 0-.22 2.375q-.093 1.205-.093 1.578-.001.189.125.219.123.034.188-.032.684-1.359 1.796-2.859 1.125-1.498 2.594-2.562 1.467-1.062 3.156-1.063m19.292 7.797v11.656q0 1.563.063 2.969.06 1.407.312 2.266.122.376.906.593.779.222 1.61.344c.562.086.969.125 1.219.125q.187.251.187 1 0 .748-.187 1.063-1.864-.128-3.704-.25a56 56 0 0 0-3.703-.125q-1.938 0-3.812.125-1.876.122-3.735.25-.187-.315-.187-1.063 0-.749.187-1c.25 0 .672-.039 1.266-.125a13 13 0 0 0 1.719-.344q.808-.217.937-.593.31-.855.375-2.204.061-1.343.063-3.03v-9.47q-.001-.375-.031-1.218a61 61 0 0 0-.094-1.688q-.066-.842-.313-1.281-.252-.499-1.125-.734a11 11 0 0 0-1.75-.344q-.862-.094-1.11-.094-.064-.122-.124-.906-.064-.78.125-.844a30.7 30.7 0 0 0 5.844-1.187q2.87-.875 4.687-1.813.311.065.594.469.28.408.281.594-.064.251-.187 1.03a32 32 0 0 0-.22 1.626q-.093.844-.093 1.219Zm-7.61-17.89q0-1.623 1.126-2.735 1.124-1.125 2.687-1.125c1.07 0 1.985.375 2.735 1.125q1.125 1.112 1.125 2.734a3.56 3.56 0 0 1-1.125 2.657q-1.127 1.078-2.735 1.078a3.75 3.75 0 0 1-2.687-1.078 3.56 3.56 0 0 1-1.125-2.657m36.201 10.094q3.48.001 5.25 1.531c1.187 1.024 1.988 2.563 2.406 4.625q.623 3.08.625 7.813v5.484q0 1.689.062 3.031.06 1.348.313 2.204.124.376.969.593.842.222 1.75.344c.601.086 1.031.125 1.281.125q.187.251.187 1 0 .748-.187 1.063-1.877-.128-3.813-.25a60 60 0 0 0-3.796-.125q-1.877 0-3.625.125-1.735.122-3.61.25-.187-.315-.187-1.063 0-.749.187-1c.25 0 .645-.039 1.188-.125q.808-.122 1.547-.344.748-.217.875-.593.31-.855.343-2.204.031-1.343.032-3.03v-5.61q-.002-4.605-1-7.031-.986-2.438-4.11-2.438-1.189 0-2.5.688-1.3.674-2.234 1.484-.938.815-.938 1.25v11.656q0 1.563.063 2.969.06 1.407.312 2.266.122.376.907.593.778.222 1.609.344c.562.086.969.125 1.219.125q.187.251.187 1 0 .748-.187 1.063-1.863-.128-3.703-.25a56 56 0 0 0-3.704-.125q-1.938 0-3.812.125-1.876.122-3.734.25-.188-.315-.188-1.063 0-.749.188-1c.25 0 .671-.039 1.265-.125a13 13 0 0 0 1.719-.344q.809-.217.937-.593.31-.855.375-2.204.061-1.343.063-3.03v-9.47q-.001-.375-.031-1.218a61 61 0 0 0-.094-1.688q-.065-.842-.313-1.281-.252-.499-1.125-.734a11 11 0 0 0-1.75-.344q-.862-.094-1.109-.094-.066-.122-.125-.906-.064-.78.125-.844a30.7 30.7 0 0 0 5.844-1.187q2.87-.875 4.687-1.813.312.001.594.406.281.41.281.657-.064.252-.187 1.062a43 43 0 0 0-.219 1.594q-.094.784-.094.906-.001.375.125.375.06.001.313-.25.75-.872 2.203-1.937a20 20 0 0 1 3.187-1.875q1.716-.811 3.157-.813m28.081 2.125q-1.689 0-2.656 1.031-.972 1.033-1.375 2.563a12.5 12.5 0 0 0-.39 3.14c0 1.211.179 2.407.546 3.594.375 1.18.945 2.164 1.719 2.953q1.155 1.189 2.906 1.188c1.125 0 1.992-.344 2.61-1.031q.936-1.031 1.28-2.547.342-1.53.344-3.094 0-1.81-.5-3.61-.503-1.81-1.593-3-1.08-1.185-2.89-1.187m2.61 26q-.863-.002-2.204.031-1.346.03-2.5.063-1.16.029-1.593.094c-.45.289-.965.75-1.547 1.375-.586.625-.875 1.304-.875 2.046q-.002 3.06 2.172 4.86 2.185 1.811 5.812 1.812c1.695 0 3.172-.304 4.422-.906 1.25-.594 2.21-1.34 2.89-2.234q1.032-1.348 1.032-2.72c0-1.124-.649-2.148-1.938-3.062q-1.921-1.359-5.672-1.359m3.5-5.61q2.685.066 4.703 1.157c1.351.719 2.406 1.578 3.156 2.578q1.125 1.498 1.125 2.938-.002 2.356-1.344 4.578-1.347 2.215-3.656 3.922c-1.531 1.144-3.29 2.05-5.266 2.718-1.969.664-4.039 1-6.203 1q-2.8-.001-5.203-.875-2.407-.88-3.906-2.531-1.486-1.643-1.485-3.953-.002-1.313 1.016-2.531 1.031-1.207 2.437-2.172c.938-.649 1.782-1.156 2.532-1.531q-1.565-.498-3-2.172-1.423-1.687-1.422-3.813.234-.622 1.172-1.437.936-.811 2.093-1.61a27 27 0 0 1 2.032-1.312q-2.501-1.184-4-3.375-1.486-2.187-1.485-4.672a8.17 8.17 0 0 1 1.422-4.672q1.436-2.123 3.89-3.437 2.468-1.313 5.532-1.313 2.062.002 3.61.438 1.559.44 2.624 1.062.499.252.563.281.06.036.312.094l7.235-.875q.623.251.625.625-.001.377-.5 1.469-.503 1.095-1 1.406-1.127-.123-2.125-.187-1.003-.061-1.625-.125-.375 0-.375.187.498.626 1.031 1.938.53 1.3.531 3.046 0 2.362-1.437 4.516-1.425 2.157-3.89 3.5-2.475 1.33-5.579 1.328-.815.001-1.781-.156a12 12 0 0 1-1.594-.344 8.3 8.3 0 0 0-1.25 1.094c-.406.437-.61.867-.61 1.281 0 .375.305.781.923 1.219q.937.656 2.437.656h4.14c1.145 0 2.344.024 3.594.063m0 0"/></svg>