<?xml version="1.0" encoding="UTF-8" standalone="no"?>
<svg
   width="1920"
   zoomAndPan="magnify"
   viewBox="0 0 1440 300"
   height="400"
   preserveAspectRatio="xMidYMid"
   version="1.0"
   id="svg276"
   sodipodi:docname="Survival analysis.svg"
   inkscape:version="1.2.2 (732a01da63, 2022-12-09)"
   xmlns:inkscape="http://www.inkscape.org/namespaces/inkscape"
   xmlns:sodipodi="http://sodipodi.sourceforge.net/DTD/sodipodi-0.dtd"
   xmlns="http://www.w3.org/2000/svg"
   xmlns:svg="http://www.w3.org/2000/svg">
  <sodipodi:namedview
     id="namedview278"
     pagecolor="#ffffff"
     bordercolor="#000000"
     borderopacity="0.25"
     inkscape:showpageshadow="2"
     inkscape:pageopacity="0.0"
     inkscape:pagecheckerboard="0"
     inkscape:deskcolor="#d1d1d1"
     showgrid="false"
     inkscape:zoom="0.7953125"
     inkscape:cx="959.37132"
     inkscape:cy="539.41061"
     inkscape:window-width="3440"
     inkscape:window-height="1334"
     inkscape:window-x="-11"
     inkscape:window-y="-11"
     inkscape:window-maximized="1"
     inkscape:current-layer="svg276" />
  <defs
     id="defs4">
    <g
       id="g2" />
  </defs>
  <g
     id="g642"
     transform="translate(19.224397,-246.71791)">
    <path
       fill="#004aad"
       d="m 380.94922,324.1875 c -49.36328,0 -46.85156,-0.16016 -47.71875,2.97656 -0.58985,2.1211 -0.58985,2.62891 -0.0156,4.70703 0.62891,2.25391 1.52344,3.02735 3.51563,3.02735 h 1.6875 l 0.30469,7.02734 c 0.33984,7.73438 0.82812,11.55859 1.89062,14.74609 1.76172,5.28125 6.20703,12.4336 11.44531,18.41407 3.125,3.57031 5.04688,5.3164 15.02344,13.64843 2.3125,1.9336 4.96484,4.61719 5.89063,5.96875 4.33984,6.32422 4.01171,15.47266 -0.78125,21.75782 -0.625,0.82031 -4.61329,4.3789 -8.86329,7.91015 -8.14843,6.76563 -12.65234,11.5 -16.8164,17.67969 -6.02344,8.93359 -7.24219,12.98438 -7.79688,25.9375 l -0.30078,7.04688 h -1.71484 c -1.10156,0 -2.02735,0.3125 -2.57813,0.86328 -1.19922,1.19922 -1.60937,4.45312 -0.85937,6.82031 0.49609,1.56641 0.88672,2.01172 2.16406,2.44531 1.16797,0.39844 12.71875,0.53906 45.65234,0.5586 49.23047,0.0273 46.72266,0.18359 47.59375,-2.95313 1.29688,-4.66406 -0.29296,-7.73437 -4.0039,-7.73437 h -1.31641 l -0.0117,-3.23438 c -0.0156,-4.66797 -0.78515,-13.92187 -1.33984,-16.09766 -0.86719,-3.39453 -2.35156,-6.72656 -4.80078,-10.79296 -4.76563,-7.90235 -10.03516,-13.62891 -19.95703,-21.69141 -3.19141,-2.58984 -6.67578,-5.84375 -7.74219,-7.22656 -4.56641,-5.92188 -4.87891,-14.6211 -0.76172,-21.0625 1.51172,-2.35938 2.42969,-3.21485 12.07031,-11.26953 8.1875,-6.83594 14.76563,-14.76172 18.44532,-22.21485 2.80468,-5.67969 3.46484,-8.95703 3.92578,-19.51953 l 0.30468,-7.02734 h 1.64063 c 3.05469,0 4.69922,-3.44141 3.59766,-7.53125 -0.91016,-3.375 1.96875,-3.17969 -47.77344,-3.17969 z m -39.85938,10.71094 h 79.72266 l -0.29688,7.47265 c -0.375,9.48047 -1.03515,12.60547 -3.84375,18.1875 -4.11328,8.17188 -9.95703,14.84375 -21.20312,24.19532 -9.3125,7.74218 -11.72266,11.48437 -12.16797,18.875 -0.52734,8.73828 2.15234,13.45312 12.37891,21.78125 10.96875,8.93359 16.8789,15.73437 21.21875,24.41015 2.57812,5.15625 3.26953,8.54297 3.625,17.74219 l 0.28906,7.47266 h -79.72266 l 0.28907,-7.47266 c 0.16015,-4.11328 0.58984,-8.87891 0.95703,-10.58984 2.03515,-9.41797 10.42578,-20.60157 23.44922,-31.23438 6.55859,-5.35937 9.14843,-8.11719 10.80078,-11.49219 1.54297,-3.14843 2.11328,-5.64453 2.11328,-9.28125 0,-5.39843 -1.61719,-9.71875 -5.13281,-13.72265 -1.13282,-1.28907 -4.60157,-4.42578 -7.71485,-6.97266 -10.80859,-8.84375 -17.42969,-16.64453 -21.48047,-25.3125 -1.95312,-4.17969 -2.64843,-8.04687 -2.98828,-16.58594 z m 15.80469,25.02734 c -3.23828,0.0469 -6.51172,0.53125 -9.85547,1.67188 0.0156,0.75781 5.88672,8.83203 8.67188,11.93359 1.70703,1.89453 6.02343,5.87109 9.59765,8.83203 8.14453,6.76172 10.71094,9.43359 12.44141,12.98438 2.15234,4.41406 2.375,6.86328 2.22266,24.13671 l -0.13672,15.62891 -1.46875,2.97656 c -1.92969,3.91797 -5.66797,7.33203 -13.22657,12.0625 -12.80078,8.01172 -17.44921,12.15235 -20.42578,18.19532 -0.90625,1.83593 -1.77343,3.79296 -1.92578,4.34765 l -0.28125,1.00391 h 76.88672 l -0.28125,-1.00391 c -0.15625,-0.55469 -1.00781,-2.5039 -1.89062,-4.33984 -2.17579,-4.51953 -7.55469,-9.89844 -14.09375,-14.09766 -15.11719,-9.70703 -17.30469,-11.51562 -19.60547,-16.18359 l -1.45703,-2.96485 v -17.1914 c 0,-15.66016 0.0742,-17.41016 0.83984,-19.64453 1.50781,-4.40625 4.42578,-8.20703 9.55469,-12.42969 11.39062,-9.37891 15.13281,-13.16406 19.79687,-20.04297 3.23438,-4.76953 3.22266,-4.82812 -0.79297,-2.99609 -20.65625,9.28125 -37.08203,-3.14844 -54.57031,-2.87891 z m 43.55078,12.83203 c 0.3086,0 0.60156,0.1211 0.82031,0.33985 0.45313,0.45312 0.45313,1.1875 0,1.63671 -3.53906,3.53907 -9.91796,5.65625 -15.77343,12.94922 -0.39844,0.4961 -1.12891,0.57813 -1.62891,0.17578 -0.5,-0.39843 -0.57812,-1.1289 -0.17969,-1.6289 6.23047,-7.75781 13.14844,-10.33985 15.94141,-13.13281 0.21875,-0.21875 0.51172,-0.33985 0.82031,-0.33985 z m 0,0"
       fill-opacity="1"
       fill-rule="nonzero"
       id="path6" />
    <g
       fill="#162144"
       fill-opacity="1"
       id="g14">
      <g
         transform="translate(109.09028,420.99999)"
         id="g12">
        <g
           id="g10">
          <path
             d="m 22.90625,-57.953125 c 2.601562,0 4.875,0.246094 6.8125,0.734375 1.9375,0.492188 4.289062,1.054688 7.0625,1.6875 0.289062,2.261719 0.507812,4.578125 0.65625,6.953125 0.144531,2.367187 0.242188,4.5 0.296875,6.40625 -0.05469,0.242187 -0.183594,0.402344 -0.390625,0.484375 -0.199219,0.08594 -0.386719,0.125 -0.5625,0.125 -0.167969,0 -0.585938,-0.02344 -1.25,-0.07813 -0.667969,-0.0625 -1.058594,-0.296875 -1.171875,-0.703125 -0.179687,-1.5625 -0.761719,-3.28125 -1.75,-5.15625 -0.980469,-1.882812 -2.292969,-3.519531 -3.9375,-4.90625 -1.648437,-1.382812 -3.601563,-2.078125 -5.859375,-2.078125 -2.773438,0 -4.867188,0.765625 -6.28125,2.296875 -1.417969,1.53125 -2.125,3.570312 -2.125,6.109375 0,2.03125 0.632812,3.859375 1.90625,5.484375 1.269531,1.617188 2.859375,3.074219 4.765625,4.375 1.914063,1.304688 3.796875,2.558594 5.640625,3.765625 1.445312,0.929687 2.976562,1.914063 4.59375,2.953125 1.625,1.042969 3.144531,2.230469 4.5625,3.5625 1.414062,1.324219 2.570312,2.871094 3.46875,4.640625 0.894531,1.761719 1.34375,3.828125 1.34375,6.203125 0,3.179688 -0.882812,5.96875 -2.640625,8.375 -1.761719,2.398438 -4.0625,4.261719 -6.90625,5.59375 -2.835937,1.332031 -5.808594,2 -8.921875,2 -2.78125,0 -5.578125,-0.277344 -8.390625,-0.828125 -2.804687,-0.550781 -5.386719,-1.085937 -7.75,-1.609375 -0.292969,-1.5 -0.585937,-3.234375 -0.875,-5.203125 C 4.910156,-8.73438 4.675781,-10.554693 4.5,-12.23438 c -0.167969,-1.675781 -0.277344,-2.800781 -0.328125,-3.375 0.113281,-0.238281 0.488281,-0.488281 1.125,-0.75 0.632813,-0.257808 1.066406,-0.39062 1.296875,-0.39062 0.632812,0 0.984375,0.261719 1.046875,0.78125 0.164063,0.992188 0.550781,2.234375 1.15625,3.734375 0.613281,1.5 1.484375,2.992187 2.609375,4.46875 1.125,1.480469 2.539062,2.710937 4.25,3.6875 1.707031,0.980469 3.773438,1.46875 6.203125,1.46875 2.4375,0 4.609375,-0.765625 6.515625,-2.296875 1.90625,-1.53125 2.859375,-3.882812 2.859375,-7.0625 0,-2.257812 -0.652344,-4.171875 -1.953125,-5.734375 -1.304688,-1.5625 -2.898438,-2.945313 -4.78125,-4.15625 -1.875,-1.21875 -3.679688,-2.347656 -5.40625,-3.390625 -2.148438,-1.382812 -4.292969,-2.84375 -6.4375,-4.375 -2.136719,-1.53125 -3.914062,-3.320312 -5.328125,-5.375 -1.417969,-2.0625 -2.125,-4.566406 -2.125,-7.515625 0,-3.007813 0.851563,-5.671875 2.5625,-7.984375 1.707031,-2.3125 3.921875,-4.128906 6.640625,-5.453125 2.71875,-1.332031 5.550781,-2 8.5,-2 z m 0,0"
             id="path8" />
        </g>
      </g>
    </g>
    <g
       fill="#162144"
       fill-opacity="1"
       id="g22">
      <g
         transform="translate(154.50626,420.99999)"
         id="g20">
        <g
           id="g18">
          <path
             d="m 16.21875,-37.3125 h 10.421875 c 0.34375,0 0.515625,0.351562 0.515625,1.046875 0,1.042969 -0.523438,1.96875 -1.5625,2.78125 h -9.375 v 22.125 c 0,4.5625 1.707031,6.84375 5.125,6.84375 1.15625,0 2.238281,-0.300781 3.25,-0.90625 1.007812,-0.601563 1.632812,-0.992187 1.875,-1.171875 0.28125,0.292969 0.421875,0.609375 0.421875,0.953125 0,0.230469 -0.05859,0.507813 -0.171875,0.828125 -0.117188,0.3125 -0.230469,0.527344 -0.34375,0.640625 -0.34375,0.355469 -0.964844,0.921875 -1.859375,1.703125 -0.898437,0.78125 -1.96875,1.492188 -3.21875,2.125 -1.242187,0.632812 -2.585937,0.953125 -4.03125,0.953125 -1.617187,0 -3.195313,-0.320313 -4.734375,-0.953125 C 11,-0.976562 9.726562,-2.101562 8.71875,-3.71875 7.707031,-5.34375 7.203125,-7.570312 7.203125,-10.40625 V -33.484375 H 1.5625 C 1.382812,-33.546875 1.265625,-33.675781 1.203125,-33.875 1.148438,-34.082031 1.125,-34.269531 1.125,-34.4375 1.351562,-34.84375 1.769531,-35.363281 2.375,-36 c 0.613281,-0.632812 1.035156,-1.070312 1.265625,-1.3125 h 3.5625 v -5.03125 c 1.207031,-1.15625 2.519531,-2.5 3.9375,-4.03125 1.425781,-1.53125 2.484375,-2.671875 3.171875,-3.421875 0.351562,-0.289063 0.757812,-0.4375 1.21875,-0.4375 0.457031,0 0.6875,0.117187 0.6875,0.34375 z m 0,0"
             id="path16" />
        </g>
      </g>
    </g>
    <g
       fill="#162144"
       fill-opacity="1"
       id="g30">
      <g
         transform="translate(184.7397,420.99999)"
         id="g28">
        <g
           id="g26">
          <path
             d="m 17.953125,-4.6875 c 1.332031,0 2.59375,-0.359375 3.78125,-1.078125 1.1875,-0.726563 1.78125,-1.265625 1.78125,-1.609375 v -11.96875 c -1.042969,0.40625 -2.261719,0.839844 -3.65625,1.296875 -1.386719,0.460937 -2.480469,0.921875 -3.28125,1.390625 -2.84375,1.386719 -4.265625,3.46875 -4.265625,6.25 0,1.730469 0.59375,3.117188 1.78125,4.15625 1.1875,1.042969 2.472656,1.5625 3.859375,1.5625 z m 3.21875,-33.65625 c 2.019531,0 3.882813,0.539062 5.59375,1.609375 1.707031,1.0625 3.082031,2.539063 4.125,4.421875 1.039063,1.875 1.5625,4.027344 1.5625,6.453125 v 17.09375 c 0,1.15625 0.195313,2.085937 0.59375,2.78125 0.40625,0.6875 0.988281,1.03125 1.75,1.03125 0.6875,0 1.257813,-0.140625 1.71875,-0.421875 0.46875,-0.289062 0.789063,-0.46875 0.96875,-0.53125 0.164063,0.0625 0.28125,0.210938 0.34375,0.4375 0.0625,0.230469 0.09375,0.433594 0.09375,0.609375 0,0.585937 -0.121094,1.074219 -0.359375,1.46875 -0.34375,0.355469 -0.964844,0.835937 -1.859375,1.4375 -0.898437,0.605469 -1.867187,1.167969 -2.90625,1.6875 -1.042969,0.519531 -2.027344,0.78125 -2.953125,0.78125 -1.335938,0 -2.578125,-0.53125 -3.734375,-1.59375 -1.15625,-1.070313 -1.90625,-2.21875 -2.25,-3.4375 C 23.628906,-4.285156 23.125,-3.894531 22.34375,-3.34375 21.5625,-2.789062 20.632812,-2.195312 19.5625,-1.5625 18.488281,-0.925781 17.429688,-0.394531 16.390625,0.03125 15.359375,0.46875 14.4375,0.6875 13.625,0.6875 11.59375,0.6875 9.753906,0.210938 8.109375,-0.734375 6.460938,-1.691406 5.175781,-2.953125 4.25,-4.515625 c -0.929688,-1.5625 -1.390625,-3.238281 -1.390625,-5.03125 0,-1.726563 0.488281,-3.226563 1.46875,-4.5 0.988281,-1.28125 2.003906,-2.09375 3.046875,-2.4375 1.382812,-0.457031 3.070312,-1.0625 5.0625,-1.8125 2,-0.757813 3.96875,-1.5 5.90625,-2.21875 1.9375,-0.726563 3.484375,-1.320313 4.640625,-1.78125 0.351563,-0.40625 0.53125,-1.070313 0.53125,-2 v -2.25 c 0,-1.382813 -0.277344,-2.726563 -0.828125,-4.03125 -0.554688,-1.300781 -1.308594,-2.367187 -2.265625,-3.203125 -0.949219,-0.84375 -2.03125,-1.265625 -3.25,-1.265625 -1.554687,0 -2.679687,0.578125 -3.375,1.734375 -0.699219,1.15625 -1.21875,2.65625 -1.5625,4.5 -0.230469,1.21875 -0.695313,2.195312 -1.390625,2.921875 -0.699219,0.71875 -1.710938,1.078125 -3.03125,1.078125 -1.042969,0 -1.929688,-0.375 -2.65625,-1.125 -0.71875,-0.75 -1.078125,-1.644531 -1.078125,-2.6875 0,-0.351562 0.082031,-0.816406 0.25,-1.390625 0.175781,-0.582031 0.382813,-1.078125 0.625,-1.484375 0.632813,-0.632812 1.789063,-1.484375 3.46875,-2.546875 C 10.097656,-35.117188 12.0625,-36.101562 14.3125,-37 c 2.257812,-0.894531 4.546875,-1.34375 6.859375,-1.34375 z m 0,0"
             id="path24" />
        </g>
      </g>
    </g>
    <g
       fill="#162144"
       fill-opacity="1"
       id="g38">
      <g
         transform="translate(225.73109,420.99999)"
         id="g36">
        <g
           id="g34">
          <path
             d="m 28.8125,-38.34375 c 1.15625,0 2.222656,0.171875 3.203125,0.515625 0.976563,0.34375 1.703125,0.835937 2.171875,1.46875 0.113281,0.242187 0.253906,0.679687 0.421875,1.3125 0.175781,0.636719 0.265625,1.296875 0.265625,1.984375 0,1.5625 -0.433594,2.898438 -1.296875,4 -0.867187,1.09375 -1.792969,1.640625 -2.78125,1.640625 -0.6875,0 -1.308594,-0.226563 -1.859375,-0.6875 -0.554688,-0.46875 -1.089844,-0.875 -1.609375,-1.21875 -0.40625,-0.34375 -0.828125,-0.660156 -1.265625,-0.953125 -0.429688,-0.289062 -1.046875,-0.4375 -1.859375,-0.4375 -1.210937,0 -2.292969,0.496094 -3.25,1.484375 -0.960937,0.980469 -1.714844,2.0625 -2.265625,3.25 -0.542969,1.1875 -0.8125,2.101563 -0.8125,2.734375 v 11.96875 c 0,1.449219 0.02344,2.824219 0.07813,4.125 0.0625,1.304688 0.207031,2.359375 0.4375,3.171875 0.113281,0.34375 0.675781,0.621094 1.6875,0.828125 1.019531,0.199219 2.0625,0.355469 3.125,0.46875 1.070313,0.117188 1.78125,0.171875 2.125,0.171875 0.175781,0.230469 0.265625,0.695313 0.265625,1.390625 0,0.6875 -0.08984,1.1757812 -0.265625,1.46875 C 23.597656,0.226562 21.632812,0.113281 19.4375,0 17.238281,-0.113281 15.269531,-0.171875 13.53125,-0.171875 11.738281,-0.171875 9.929688,-0.113281 8.109375,0 6.285156,0.113281 4.507812,0.226562 2.78125,0.34375 2.601562,0.0507812 2.515625,-0.4375 2.515625,-1.125 c 0,-0.695312 0.085937,-1.160156 0.265625,-1.390625 0.34375,0 0.929688,-0.054687 1.765625,-0.171875 0.84375,-0.113281 1.640625,-0.269531 2.390625,-0.46875 0.75,-0.207031 1.1875,-0.484375 1.3125,-0.828125 0.28125,-0.8125 0.445312,-1.835937 0.5,-3.078125 0.0625,-1.25 0.09375,-2.65625 0.09375,-4.21875 v -13.1875 c 0,-0.34375 -0.015625,-0.90625 -0.046875,-1.6875 -0.023437,-0.78125 -0.0625,-1.5625 -0.125,-2.34375 C 8.617188,-29.28125 8.476562,-29.875 8.25,-30.28125 8.007812,-30.738281 7.484375,-31.082031 6.671875,-31.3125 5.867188,-31.550781 5.0625,-31.710938 4.25,-31.796875 c -0.8125,-0.08203 -1.335938,-0.125 -1.5625,-0.125 -0.054688,-0.125 -0.109375,-0.546875 -0.171875,-1.265625 -0.0625,-0.71875 -0.00781,-1.109375 0.171875,-1.171875 2.78125,-0.289063 5.5,-0.835937 8.15625,-1.640625 2.664062,-0.8125 4.835938,-1.648438 6.515625,-2.515625 0.28125,0.05469 0.550781,0.265625 0.8125,0.640625 0.257813,0.375 0.390625,0.652344 0.390625,0.828125 -0.05469,0.230469 -0.136719,0.882813 -0.25,1.953125 -0.117188,1.074219 -0.21875,2.171875 -0.3125,3.296875 -0.08594,1.125 -0.125,1.867187 -0.125,2.21875 0,0.167969 0.05469,0.265625 0.171875,0.296875 0.113281,0.03125 0.203125,0.01563 0.265625,-0.04687 0.632812,-1.269531 1.472656,-2.597656 2.515625,-3.984375 1.039063,-1.394531 2.238281,-2.582031 3.59375,-3.5625 1.363281,-0.976562 2.828125,-1.46875 4.390625,-1.46875 z m 0,0"
             id="path32" />
        </g>
      </g>
    </g>
    <g
       fill="#162144"
       fill-opacity="1"
       id="g46">
      <g
         transform="translate(263.51245,420.99999)"
         id="g44">
        <g
           id="g42">
          <path
             d="m 16.21875,-37.3125 h 10.421875 c 0.34375,0 0.515625,0.351562 0.515625,1.046875 0,1.042969 -0.523438,1.96875 -1.5625,2.78125 h -9.375 v 22.125 c 0,4.5625 1.707031,6.84375 5.125,6.84375 1.15625,0 2.238281,-0.300781 3.25,-0.90625 1.007812,-0.601563 1.632812,-0.992187 1.875,-1.171875 0.28125,0.292969 0.421875,0.609375 0.421875,0.953125 0,0.230469 -0.05859,0.507813 -0.171875,0.828125 -0.117188,0.3125 -0.230469,0.527344 -0.34375,0.640625 -0.34375,0.355469 -0.964844,0.921875 -1.859375,1.703125 -0.898437,0.78125 -1.96875,1.492188 -3.21875,2.125 -1.242187,0.632812 -2.585937,0.953125 -4.03125,0.953125 -1.617187,0 -3.195313,-0.320313 -4.734375,-0.953125 C 11,-0.976562 9.726562,-2.101562 8.71875,-3.71875 7.707031,-5.34375 7.203125,-7.570312 7.203125,-10.40625 V -33.484375 H 1.5625 C 1.382812,-33.546875 1.265625,-33.675781 1.203125,-33.875 1.148438,-34.082031 1.125,-34.269531 1.125,-34.4375 1.351562,-34.84375 1.769531,-35.363281 2.375,-36 c 0.613281,-0.632812 1.035156,-1.070312 1.265625,-1.3125 h 3.5625 v -5.03125 c 1.207031,-1.15625 2.519531,-2.5 3.9375,-4.03125 1.425781,-1.53125 2.484375,-2.671875 3.171875,-3.421875 0.351562,-0.289063 0.757812,-0.4375 1.21875,-0.4375 0.457031,0 0.6875,0.117187 0.6875,0.34375 z m 0,0"
             id="path40" />
        </g>
      </g>
    </g>
    <path
       stroke-linecap="butt"
       fill="none"
       stroke-linejoin="miter"
       d="M 475.52344,419.875 H 838.42189"
       stroke="#737373"
       stroke-width="12.75"
       stroke-opacity="1"
       stroke-miterlimit="4"
       id="path48" />
    <path
       stroke-linecap="round"
       fill="none"
       stroke-linejoin="round"
       d="M 472.33594,400.75 V 439"
       stroke="#737373"
       stroke-width="12.75"
       stroke-opacity="1"
       stroke-miterlimit="4"
       id="path50" />
    <path
       stroke-linecap="round"
       fill="none"
       stroke-linejoin="round"
       d="m 879.8594,419.875 c 0,10.5625 -8.5625,19.125 -19.12501,19.125 -10.5625,0 -19.125,-8.5625 -19.125,-19.125 0,-10.5625 8.5625,-19.125 19.125,-19.125 10.56251,0 19.12501,8.5625 19.12501,19.125"
       stroke="#737373"
       stroke-width="12.75"
       stroke-opacity="1"
       stroke-miterlimit="4"
       id="path52" />
    <path
       stroke-linecap="butt"
       fill="none"
       stroke-linejoin="miter"
       d="M 475.52344,378.29687 H 1011.8789"
       stroke="#004aad"
       stroke-width="12.75"
       stroke-opacity="1"
       stroke-miterlimit="4"
       id="path54" />
    <path
       stroke-linecap="round"
       fill="none"
       stroke-linejoin="round"
       d="m 472.33594,359.17187 v 38.25"
       stroke="#004aad"
       stroke-width="12.75"
       stroke-opacity="1"
       stroke-miterlimit="4"
       id="path56" />
    <path
       fill="#004aad"
       d="m 996.97656,356.96484 14.89454,14.89844 14.8984,-14.89844 c 5.2149,-5.21093 13.0352,2.60938 7.8203,7.82032 l -14.8945,14.89843 14.8945,14.89844 c 5.2149,5.21094 -2.6054,13.03516 -7.8203,7.82031 l -14.8984,-14.89843 -14.89454,14.89843 c -5.21484,5.21485 -13.03515,-2.60937 -7.82031,-7.82031 l 14.89455,-14.89844 -14.89455,-14.89843 c -5.21484,-5.21094 2.60547,-13.03125 7.82031,-7.82032 z m 0,0"
       fill-opacity="1"
       fill-rule="evenodd"
       id="path58" />
    <g
       fill="#162144"
       fill-opacity="1"
       id="g66">
      <g
         transform="translate(1075.2178,420.99999)"
         id="g64">
        <g
           id="g62">
          <path
             d="m 15.015625,-56.921875 c 1.5,0 3.445313,-0.02344 5.84375,-0.07813 2.40625,-0.0625 4.976563,-0.148438 7.71875,-0.265625 2.75,-0.113281 5.410156,-0.195313 7.984375,-0.25 2.582031,-0.0625 4.769531,-0.09375 6.5625,-0.09375 0.28125,2.136719 0.664062,4.234375 1.15625,6.296875 0.5,2.054688 0.953125,4.058594 1.359375,6.015625 -0.117187,0.125 -0.375,0.230469 -0.78125,0.3125 -0.40625,0.08594 -0.757813,0.125 -1.046875,0.125 -0.699219,0 -1.132812,-0.203125 -1.296875,-0.609375 -0.929687,-2.945312 -2.15625,-5.070312 -3.6875,-6.375 -1.53125,-1.300781 -3.542969,-1.953125 -6.03125,-1.953125 h -7.28125 c -0.523437,0 -1.171875,0.01563 -1.953125,0.04687 -0.78125,0.03125 -1.496094,0.121094 -2.140625,0.265625 -0.636719,0.148437 -1.011719,0.359375 -1.125,0.640625 -0.230469,0.585938 -0.34375,1.382812 -0.34375,2.390625 0,1.011719 0,2.125 0,3.34375 v 15.703125 c 0,0.230469 0.375,0.417969 1.125,0.5625 0.757813,0.148438 1.597656,0.21875 2.515625,0.21875 h 4.609375 c 2.25,0 3.894531,-0.144531 4.9375,-0.4375 1.039063,-0.289062 1.789063,-0.867188 2.25,-1.734375 0.46875,-0.863281 0.929687,-2.191406 1.390625,-3.984375 0.113281,-0.46875 0.519531,-0.703125 1.21875,-0.703125 0.695312,0 1.21875,0.179687 1.5625,0.53125 v 16.484375 c -0.230469,0.230469 -0.71875,0.34375 -1.46875,0.34375 -0.699219,0 -1.136719,-0.234375 -1.3125,-0.703125 -0.574219,-2.25 -1.078125,-3.675781 -1.515625,-4.28125 -0.429687,-0.613281 -0.84375,-1.035156 -1.25,-1.265625 -0.523437,-0.289062 -1.554687,-0.460938 -3.09375,-0.515625 -1.53125,-0.0625 -3.136719,-0.09375 -4.8125,-0.09375 -0.804687,0 -1.683594,0.01563 -2.640625,0.04687 -0.960938,0.03125 -1.789062,0.121094 -2.484375,0.265625 -0.6875,0.136719 -1.03125,0.351563 -1.03125,0.640625 v 14.75 c 0,0.292969 0,0.902344 0,1.828125 0,0.929687 0.03906,1.871094 0.125,2.828125 0.09375,0.949219 0.222656,1.59375 0.390625,1.9375 0.46875,0.523438 1.207031,0.855469 2.21875,1 1.007812,0.148438 2.238281,0.21875 3.6875,0.21875 h 5.375 c 1.675781,0 3.335938,-0.171875 4.984375,-0.515625 1.65625,-0.351563 3.03125,-0.992187 4.125,-1.921875 0.988281,-0.800781 1.898437,-1.878906 2.734375,-3.234375 0.84375,-1.363281 1.609375,-3.117187 2.296875,-5.265625 0.125,-0.34375 0.53125,-0.515625 1.21875,-0.515625 0.46875,0 0.960937,0.05859 1.484375,0.171875 0.519531,0.117188 0.835938,0.230469 0.953125,0.34375 -0.8125,2.3125 -1.726563,4.859375 -2.734375,7.640625 -1.011719,2.773437 -1.664062,5.117187 -1.953125,7.03125 C 42.890625,0.265625 40.3125,0.25 37.125,0.21875 33.945312,0.1875 30.445312,0.15625 26.625,0.125 22.8125,0.101562 18.96875,0.09375 15.09375,0.09375 c -2.542969,0 -4.78125,0.023438 -6.71875,0.078125 -1.9375,0.0625 -3.484375,0.09375 -4.640625,0.09375 -0.179687,-0.2890625 -0.265625,-0.78125 -0.265625,-1.46875 0,-0.695313 0.085938,-1.164063 0.265625,-1.40625 0.34375,0 0.945313,-0.039063 1.8125,-0.125 0.875,-0.082031 1.710937,-0.222656 2.515625,-0.421875 0.8125,-0.207031 1.273438,-0.484375 1.390625,-0.828125 0.289063,-0.8125 0.460937,-1.835937 0.515625,-3.078125 0.0625,-1.25 0.09375,-2.65625 0.09375,-4.21875 V -45.8125 c 0,-1.5625 -0.03125,-2.976562 -0.09375,-4.25 -0.054688,-1.269531 -0.226562,-2.28125 -0.515625,-3.03125 -0.117187,-0.351562 -0.578125,-0.644531 -1.390625,-0.875 -0.804688,-0.226562 -1.640625,-0.382812 -2.515625,-0.46875 -0.867187,-0.09375 -1.46875,-0.140625 -1.8125,-0.140625 -0.179687,-0.28125 -0.265625,-0.769531 -0.265625,-1.46875 0,-0.695313 0.085938,-1.160156 0.265625,-1.390625 1.726563,0.117188 3.601563,0.230469 5.625,0.34375 2.03125,0.117188 3.914063,0.171875 5.65625,0.171875 z m 0,0"
             id="path60" />
        </g>
      </g>
    </g>
    <g
       fill="#162144"
       fill-opacity="1"
       id="g74">
      <g
         transform="translate(1126.1861,420.99999)"
         id="g72">
        <g
           id="g70">
          <path
             d="m 10.328125,-37.3125 c 1.726563,0 3.445313,-0.08203 5.15625,-0.25 1.707031,-0.175781 3.253906,-0.296875 4.640625,-0.359375 0.175781,0.242187 0.25,0.75 0.21875,1.53125 -0.03125,0.78125 -0.164062,1.230469 -0.390625,1.34375 -0.292969,0 -0.8125,0.05859 -1.5625,0.171875 -0.75,0.117188 -1.460937,0.320312 -2.125,0.609375 -0.667969,0.28125 -1,0.65625 -1,1.125 0,0.05469 0,0.167969 0,0.34375 0,0.179687 0.03125,0.351563 0.09375,0.515625 0.289063,0.585938 0.796875,1.65625 1.515625,3.21875 0.71875,1.5625 1.523438,3.3125 2.421875,5.25 0.90625,1.9375 1.757813,3.804688 2.5625,5.59375 0.8125,1.792969 1.476563,3.28125 2,4.46875 0.519531,1.1875 0.78125,1.78125 0.78125,1.78125 0,0 0.226563,-0.5625 0.6875,-1.6875 0.46875,-1.132812 1.0625,-2.582031 1.78125,-4.34375 0.726563,-1.769531 1.523437,-3.679688 2.390625,-5.734375 0.863281,-2.050781 1.671875,-3.972656 2.421875,-5.765625 0.46875,-1.039062 0.703125,-2.023438 0.703125,-2.953125 0,-0.632813 -0.335938,-1.140625 -1,-1.515625 -0.667969,-0.375 -1.433594,-0.644531 -2.296875,-0.8125 -0.867187,-0.175781 -1.621094,-0.265625 -2.265625,-0.265625 -0.230469,-0.113281 -0.34375,-0.5625 -0.34375,-1.34375 0,-0.78125 0.08594,-1.289063 0.265625,-1.53125 1.332031,0.125 2.578125,0.261719 3.734375,0.40625 1.15625,0.136719 2.597656,0.203125 4.328125,0.203125 1.738281,0 3.300781,-0.08203 4.6875,-0.25 1.382813,-0.175781 2.6875,-0.296875 3.90625,-0.359375 0.175781,0.242187 0.234375,0.734375 0.171875,1.484375 -0.05469,0.75 -0.167969,1.214844 -0.34375,1.390625 -0.292969,0 -0.871094,0.07422 -1.734375,0.21875 C 40.867188,-34.691406 40,-34.40625 39.125,-33.96875 c -0.867188,0.4375 -1.5,1.058594 -1.90625,1.859375 -0.523438,1.21875 -1.230469,2.828125 -2.125,4.828125 -0.898438,1.992188 -1.867188,4.171875 -2.90625,6.546875 -1.042969,2.375 -2.101562,4.734375 -3.171875,7.078125 -1.0625,2.335938 -2.03125,4.515625 -2.90625,6.546875 C 25.242188,-5.085938 24.550781,-3.46875 24.03125,-2.25 22.988281,-0.113281 21.976562,0.953125 21,0.953125 c -0.179688,0 -0.355469,-0.074219 -0.53125,-0.21875 C 20.300781,0.585938 20.160156,0.488281 20.046875,0.4375 17.378906,-5.519531 14.90625,-11.128906 12.625,-16.390625 c -2.28125,-5.269531 -4.757812,-10.625 -7.421875,-16.0625 -0.34375,-0.75 -0.867187,-1.3125 -1.5625,-1.6875 -0.6875,-0.375 -1.382813,-0.617187 -2.078125,-0.734375 -0.699219,-0.113281 -1.1875,-0.171875 -1.46875,-0.171875 -0.1757812,-0.289063 -0.265625,-0.753906 -0.265625,-1.390625 0,-0.632812 0.0898438,-1.128906 0.265625,-1.484375 1.5,0.0625 3.144531,0.183594 4.9375,0.359375 1.789062,0.167969 3.554688,0.25 5.296875,0.25 z m 0,0"
             id="path68" />
        </g>
      </g>
    </g>
    <g
       fill="#162144"
       fill-opacity="1"
       id="g82">
      <g
         transform="translate(1169.9537,420.99999)"
         id="g80">
        <g
           id="g78">
          <path
             d="m 12.140625,-24.546875 c 0.175781,0 0.859375,-0.01563 2.046875,-0.04687 1.1875,-0.03125 2.53125,-0.0625 4.03125,-0.09375 1.5,-0.03125 2.882812,-0.05469 4.15625,-0.07813 1.28125,-0.03125 2.09375,-0.07813 2.4375,-0.140625 1.039062,0 1.5625,-0.578125 1.5625,-1.734375 0,-1.039063 -0.203125,-2.210937 -0.609375,-3.515625 -0.40625,-1.300781 -1.058594,-2.441406 -1.953125,-3.421875 -0.898438,-0.976563 -2.125,-1.46875 -3.6875,-1.46875 -1.5625,0 -2.867188,0.464844 -3.90625,1.390625 -1.042969,0.917969 -1.867188,2.015625 -2.46875,3.296875 -0.605469,1.273437 -1.027344,2.46875 -1.265625,3.59375 -0.230469,1.125 -0.34375,1.867187 -0.34375,2.21875 z M 11.796875,-21.25 c -0.05469,3.875 0.628906,6.945312 2.046875,9.203125 1.414062,2.25 3.148438,3.871094 5.203125,4.859375 2.050781,0.980469 4.03125,1.46875 5.9375,1.46875 2.425781,0 4.460937,-0.535156 6.109375,-1.609375 1.65625,-1.070313 2.859375,-2.015625 3.609375,-2.828125 0.175781,0.0625 0.363281,0.242188 0.5625,0.53125 0.207031,0.28125 0.3125,0.570312 0.3125,0.859375 0,0.230469 -0.04687,0.523437 -0.140625,0.875 -0.08594,0.34375 -0.183594,0.605469 -0.296875,0.78125 -0.523437,0.804687 -1.417969,1.828125 -2.6875,3.078125 -1.273437,1.242188 -2.875,2.339844 -4.8125,3.296875 C 25.703125,0.210938 23.488281,0.6875 21,0.6875 c -3.304688,0 -6.3125,-0.75 -9.03125,-2.25 C 9.25,-3.0625 7.09375,-5.171875 5.5,-7.890625 c -1.585938,-2.71875 -2.375,-5.875 -2.375,-9.46875 0,-2.832031 0.519531,-5.503906 1.5625,-8.015625 1.039062,-2.519531 2.441406,-4.75 4.203125,-6.6875 1.769531,-1.9375 3.738281,-3.46875 5.90625,-4.59375 2.164063,-1.125 4.347656,-1.6875 6.546875,-1.6875 2.71875,0 4.988281,0.433594 6.8125,1.296875 1.820312,0.867187 3.265625,1.964844 4.328125,3.296875 1.070313,1.335938 1.828125,2.710938 2.265625,4.125 0.4375,1.417969 0.65625,2.648438 0.65625,3.6875 0,1.09375 -0.179688,2.007812 -0.53125,2.734375 -0.34375,0.71875 -0.890625,1.109375 -1.640625,1.171875 -1.105469,0.05469 -2.640625,0.125 -4.609375,0.21875 -1.960938,0.08594 -4.070312,0.167969 -6.328125,0.25 -2.261719,0.08594 -4.34375,0.15625 -6.25,0.21875 -1.90625,0.0625 -3.324219,0.09375 -4.25,0.09375 z m 0,0"
             id="path76" />
        </g>
      </g>
    </g>
    <g
       fill="#162144"
       fill-opacity="1"
       id="g90">
      <g
         transform="translate(1210.3378,420.99999)"
         id="g88">
        <g
           id="g86">
          <path
             d="m 30.359375,-38.34375 c 3.238281,0 5.679687,0.710938 7.328125,2.125 1.65625,1.417969 2.769531,3.558594 3.34375,6.421875 0.582031,2.855469 0.875,6.484375 0.875,10.890625 v 7.625 c 0,1.5625 0.02344,2.96875 0.07813,4.21875 0.0625,1.242188 0.207031,2.265625 0.4375,3.078125 0.113281,0.34375 0.5625,0.621094 1.34375,0.828125 0.78125,0.199219 1.585937,0.355469 2.421875,0.46875 0.84375,0.117188 1.441406,0.171875 1.796875,0.171875 0.164063,0.230469 0.25,0.695313 0.25,1.390625 0,0.6875 -0.08594,1.1757812 -0.25,1.46875 C 46.242188,0.226562 44.476562,0.113281 42.6875,0 c -1.792969,-0.113281 -3.558594,-0.171875 -5.296875,-0.171875 -1.730469,0 -3.40625,0.058594 -5.03125,0.171875 -1.617187,0.113281 -3.292969,0.226562 -5.03125,0.34375 C 27.148438,0.0507812 27.0625,-0.4375 27.0625,-1.125 c 0,-0.695312 0.08594,-1.160156 0.265625,-1.390625 0.34375,0 0.890625,-0.054687 1.640625,-0.171875 0.757812,-0.113281 1.484375,-0.269531 2.171875,-0.46875 0.695313,-0.207031 1.101563,-0.484375 1.21875,-0.828125 0.289063,-0.8125 0.445313,-1.835937 0.46875,-3.078125 0.03125,-1.25 0.04687,-2.65625 0.04687,-4.21875 v -7.8125 c 0,-4.28125 -0.464844,-7.546875 -1.390625,-9.796875 -0.917969,-2.257813 -2.824219,-3.390625 -5.71875,-3.390625 -1.09375,0 -2.25,0.324219 -3.46875,0.96875 -1.21875,0.636719 -2.261719,1.328125 -3.125,2.078125 -0.867187,0.75 -1.296875,1.328125 -1.296875,1.734375 v 16.21875 c 0,1.449219 0.02344,2.824219 0.07813,4.125 0.0625,1.304688 0.207031,2.359375 0.4375,3.171875 0.113281,0.34375 0.53125,0.621094 1.25,0.828125 0.726563,0.199219 1.484375,0.355469 2.265625,0.46875 0.78125,0.117188 1.34375,0.171875 1.6875,0.171875 0.175781,0.230469 0.265625,0.695313 0.265625,1.390625 0,0.6875 -0.08984,1.1757812 -0.265625,1.46875 C 21.863281,0.226562 20.144531,0.113281 18.4375,0 16.726562,-0.113281 15.007812,-0.171875 13.28125,-0.171875 11.476562,-0.171875 9.707031,-0.113281 7.96875,0 6.238281,0.113281 4.507812,0.226562 2.78125,0.34375 2.601562,0.0507812 2.515625,-0.4375 2.515625,-1.125 c 0,-0.695312 0.085937,-1.160156 0.265625,-1.390625 0.34375,0 0.929688,-0.054687 1.765625,-0.171875 0.84375,-0.113281 1.640625,-0.269531 2.390625,-0.46875 0.75,-0.207031 1.1875,-0.484375 1.3125,-0.828125 0.28125,-0.8125 0.445312,-1.835937 0.5,-3.078125 0.0625,-1.25 0.09375,-2.65625 0.09375,-4.21875 v -13.1875 c 0,-0.34375 -0.015625,-0.90625 -0.046875,-1.6875 -0.023437,-0.78125 -0.0625,-1.5625 -0.125,-2.34375 C 8.617188,-29.28125 8.476562,-29.875 8.25,-30.28125 8.007812,-30.738281 7.484375,-31.082031 6.671875,-31.3125 5.867188,-31.550781 5.0625,-31.710938 4.25,-31.796875 c -0.8125,-0.08203 -1.335938,-0.125 -1.5625,-0.125 -0.054688,-0.125 -0.109375,-0.546875 -0.171875,-1.265625 -0.0625,-0.71875 -0.00781,-1.109375 0.171875,-1.171875 2.78125,-0.289063 5.5,-0.835937 8.15625,-1.640625 2.664062,-0.8125 4.835938,-1.648438 6.515625,-2.515625 0.28125,0 0.550781,0.1875 0.8125,0.5625 0.257813,0.375 0.390625,0.679687 0.390625,0.90625 -0.05469,0.230469 -0.136719,0.726563 -0.25,1.484375 -0.117188,0.75 -0.21875,1.484375 -0.3125,2.203125 -0.08594,0.71875 -0.125,1.136719 -0.125,1.25 0,0.355469 0.05469,0.53125 0.171875,0.53125 0.0625,0 0.207031,-0.113281 0.4375,-0.34375 0.6875,-0.8125 1.707031,-1.707031 3.0625,-2.6875 1.363281,-0.988281 2.84375,-1.859375 4.4375,-2.609375 1.59375,-0.75 3.050781,-1.125 4.375,-1.125 z m 0,0"
             id="path84" />
        </g>
      </g>
    </g>
    <g
       fill="#162144"
       fill-opacity="1"
       id="g98">
      <g
         transform="translate(1261.1328,420.99999)"
         id="g96">
        <g
           id="g94">
          <path
             d="m 16.21875,-37.3125 h 10.421875 c 0.34375,0 0.515625,0.351562 0.515625,1.046875 0,1.042969 -0.523438,1.96875 -1.5625,2.78125 h -9.375 v 22.125 c 0,4.5625 1.707031,6.84375 5.125,6.84375 1.15625,0 2.238281,-0.300781 3.25,-0.90625 1.007812,-0.601563 1.632812,-0.992187 1.875,-1.171875 0.28125,0.292969 0.421875,0.609375 0.421875,0.953125 0,0.230469 -0.05859,0.507813 -0.171875,0.828125 -0.117188,0.3125 -0.230469,0.527344 -0.34375,0.640625 -0.34375,0.355469 -0.964844,0.921875 -1.859375,1.703125 -0.898437,0.78125 -1.96875,1.492188 -3.21875,2.125 -1.242187,0.632812 -2.585937,0.953125 -4.03125,0.953125 -1.617187,0 -3.195313,-0.320313 -4.734375,-0.953125 C 11,-0.976562 9.726562,-2.101562 8.71875,-3.71875 7.707031,-5.34375 7.203125,-7.570312 7.203125,-10.40625 V -33.484375 H 1.5625 C 1.382812,-33.546875 1.265625,-33.675781 1.203125,-33.875 1.148438,-34.082031 1.125,-34.269531 1.125,-34.4375 1.351562,-34.84375 1.769531,-35.363281 2.375,-36 c 0.613281,-0.632812 1.035156,-1.070312 1.265625,-1.3125 h 3.5625 v -5.03125 c 1.207031,-1.15625 2.519531,-2.5 3.9375,-4.03125 1.425781,-1.53125 2.484375,-2.671875 3.171875,-3.421875 0.351562,-0.289063 0.757812,-0.4375 1.21875,-0.4375 0.457031,0 0.6875,0.117187 0.6875,0.34375 z m 0,0"
             id="path92" />
        </g>
      </g>
    </g>
    <g
       fill="#004aad"
       fill-opacity="1"
       id="g106">
      <g
         transform="translate(552.06598,335.75001)"
         id="g104">
        <g
           id="g102">
          <path
             d="m 30.859375,-41.03125 c 1.375,0 2.453125,-0.160156 3.234375,-0.484375 0.789062,-0.332031 1.414062,-0.539063 1.875,-0.625 0.414062,-0.08203 0.75,-0.08203 1,0 0.08203,0.449219 0.1875,1.195313 0.3125,2.234375 0.125,1.042969 0.269531,2.179688 0.4375,3.40625 0.164062,1.21875 0.332031,2.328125 0.5,3.328125 0.164062,1 0.289062,1.710937 0.375,2.125 -0.08594,0.08594 -0.28125,0.1875 -0.59375,0.3125 -0.3125,0.125 -0.617188,0.1875 -0.90625,0.1875 -0.375,0 -0.625,-0.125 -0.75,-0.375 -0.375,-2.125 -1.125,-3.921875 -2.25,-5.390625 -1.117188,-1.476562 -2.464844,-2.21875 -4.046875,-2.21875 H 23.25 v 30.421875 c 0,1.125 0.01953,2.136719 0.0625,3.03125 0.03906,0.898437 0.144531,1.632813 0.3125,2.203125 0.08203,0.25 0.414062,0.449219 1,0.59375 0.582031,0.148438 1.1875,0.261719 1.8125,0.34375 0.625,0.085938 1.0625,0.125 1.3125,0.125 0.125,0.167969 0.1875,0.5 0.1875,1 0,0.5 -0.0625,0.8515625 -0.1875,1.0625 C 26.5,0.164062 25.144531,0.0820312 23.6875,0 c -1.449219,-0.0820312 -2.796875,-0.125 -4.046875,-0.125 -1.25,0 -2.605469,0.0429688 -4.0625,0.125 -1.449219,0.0820312 -2.796875,0.164062 -4.046875,0.25 -0.125,-0.2109375 -0.1875,-0.5625 -0.1875,-1.0625 0,-0.5 0.0625,-0.832031 0.1875,-1 0.25,0 0.695312,-0.039062 1.34375,-0.125 0.644531,-0.082031 1.257812,-0.195312 1.84375,-0.34375 0.582031,-0.144531 0.914062,-0.34375 1,-0.59375 0.195312,-0.570312 0.316406,-1.304688 0.359375,-2.203125 0.03906,-0.894531 0.0625,-1.90625 0.0625,-3.03125 V -38.53125 h -6.96875 c -1.542969,0 -2.886719,0.742188 -4.03125,2.21875 -1.148437,1.46875 -1.902344,3.265625 -2.265625,5.390625 -0.125,0.25 -0.355469,0.375 -0.6875,0.375 -0.292969,0 -0.605469,-0.0625 -0.9375,-0.1875 -0.335938,-0.125 -0.542969,-0.226563 -0.625,-0.3125 0.082031,-0.414063 0.207031,-1.125 0.375,-2.125 0.164062,-1 0.34375,-2.109375 0.53125,-3.328125 0.1875,-1.226562 0.351562,-2.363281 0.5,-3.40625 0.144531,-1.039062 0.238281,-1.785156 0.28125,-2.234375 0.289062,-0.125 0.640625,-0.125 1.046875,0 0.457031,0.08594 1.0625,0.292969 1.8125,0.625 0.75,0.324219 1.8125,0.484375 3.1875,0.484375 z m 0,0"
             id="path100" />
        </g>
      </g>
    </g>
    <g
       fill="#004aad"
       fill-opacity="1"
       id="g114">
      <g
         transform="translate(591.37483,335.75001)"
         id="g112">
        <g
           id="g110">
          <path
             d="m 12.84375,-19.765625 v 11.65625 c 0,1.042969 0.01953,2.03125 0.0625,2.96875 0.03906,0.9375 0.144531,1.695313 0.3125,2.265625 0.08203,0.25 0.382812,0.449219 0.90625,0.59375 0.519531,0.148438 1.054688,0.261719 1.609375,0.34375 0.5625,0.085938 0.96875,0.125 1.21875,0.125 0.125,0.167969 0.1875,0.5 0.1875,1 0,0.5 -0.0625,0.8515625 -0.1875,1.0625 C 15.710938,0.164062 14.476562,0.0820312 13.25,0 12.019531,-0.0820312 10.785156,-0.125 9.546875,-0.125 8.253906,-0.125 6.984375,-0.0820312 5.734375,0 4.484375,0.0820312 3.238281,0.164062 2,0.25 1.875,0.0390625 1.8125,-0.3125 1.8125,-0.8125 c 0,-0.5 0.0625,-0.832031 0.1875,-1 0.25,0 0.671875,-0.039062 1.265625,-0.125 0.601563,-0.082031 1.175781,-0.195312 1.71875,-0.34375 0.539063,-0.144531 0.851563,-0.34375 0.9375,-0.59375 0.207031,-0.570312 0.332031,-1.304688 0.375,-2.203125 0.039063,-0.894531 0.0625,-1.90625 0.0625,-3.03125 v -9.46875 c 0,-0.25 -0.011719,-0.65625 -0.03125,-1.21875 -0.023437,-0.5625 -0.054687,-1.125 -0.09375,-1.6875 -0.042969,-0.5625 -0.148437,-0.988281 -0.3125,-1.28125 -0.167969,-0.332031 -0.542969,-0.578125 -1.125,-0.734375 -0.585937,-0.164062 -1.167969,-0.28125 -1.75,-0.34375 -0.574219,-0.0625 -0.945313,-0.09375 -1.109375,-0.09375 -0.042969,-0.08203 -0.085938,-0.382812 -0.125,-0.90625 -0.042969,-0.519531 0,-0.800781 0.125,-0.84375 1.988281,-0.207031 3.9375,-0.601562 5.84375,-1.1875 1.914062,-0.582031 3.476562,-1.1875 4.6875,-1.8125 0.207031,0.04297 0.40625,0.199219 0.59375,0.46875 0.1875,0.273438 0.28125,0.46875 0.28125,0.59375 -0.04297,0.167969 -0.105469,0.511719 -0.1875,1.03125 -0.08594,0.523438 -0.15625,1.0625 -0.21875,1.625 C 12.875,-23.40625 12.84375,-23 12.84375,-22.75 Z M 5.234375,-37.65625 c 0,-1.082031 0.375,-1.992188 1.125,-2.734375 0.75,-0.75 1.644531,-1.125 2.6875,-1.125 1.070313,0 1.984375,0.375 2.734375,1.125 0.75,0.742187 1.125,1.652344 1.125,2.734375 0,1.042969 -0.375,1.929688 -1.125,2.65625 -0.75,0.71875 -1.664062,1.078125 -2.734375,1.078125 -1.042969,0 -1.9375,-0.359375 -2.6875,-1.078125 -0.75,-0.726562 -1.125,-1.613281 -1.125,-2.65625 z m 0,0"
             id="path108" />
        </g>
      </g>
    </g>
    <g
       fill="#004aad"
       fill-opacity="1"
       id="g122">
      <g
         transform="translate(610.98197,335.75001)"
         id="g120">
        <g
           id="g118">
          <path
             d="m 21.765625,-27.5625 c 1.945313,0 3.503906,0.386719 4.671875,1.15625 1.164062,0.773438 2.054688,2.132812 2.671875,4.078125 0.914063,-0.863281 1.945313,-1.703125 3.09375,-2.515625 1.144531,-0.8125 2.296875,-1.46875 3.453125,-1.96875 1.164062,-0.5 2.226562,-0.75 3.1875,-0.75 2.320312,0 4.078125,0.511719 5.265625,1.53125 1.1875,1.023438 1.988281,2.5625 2.40625,4.625 0.414063,2.054688 0.625,4.65625 0.625,7.8125 v 5.484375 c 0,1.125 0.01953,2.136719 0.0625,3.03125 0.03906,0.898437 0.144531,1.632813 0.3125,2.203125 0.08203,0.25 0.390625,0.449219 0.921875,0.59375 0.539062,0.148438 1.113281,0.261719 1.71875,0.34375 0.601562,0.085938 1.03125,0.125 1.28125,0.125 0.125,0.167969 0.1875,0.5 0.1875,1 0,0.5 -0.0625,0.8515625 -0.1875,1.0625 C 50.1875,0.164062 48.914062,0.0820312 47.625,0 c -1.28125,-0.0820312 -2.546875,-0.125 -3.796875,-0.125 -1.25,0 -2.449219,0.0429688 -3.59375,0.125 -1.136719,0.0820312 -2.328125,0.164062 -3.578125,0.25 -0.125,-0.2109375 -0.1875,-0.5625 -0.1875,-1.0625 0,-0.5 0.0625,-0.832031 0.1875,-1 0.25,0 0.644531,-0.039062 1.1875,-0.125 0.539062,-0.082031 1.050781,-0.195312 1.53125,-0.34375 0.476562,-0.144531 0.757812,-0.34375 0.84375,-0.59375 0.207031,-0.570312 0.332031,-1.304688 0.375,-2.203125 0.03906,-0.894531 0.0625,-1.90625 0.0625,-3.03125 v -5.859375 c 0,-1.78125 -0.136719,-3.367188 -0.40625,-4.765625 C 39.976562,-20.128906 39.488281,-21.21875 38.78125,-22 c -0.710938,-0.789062 -1.773438,-1.1875 -3.1875,-1.1875 -0.90625,0 -1.820312,0.230469 -2.734375,0.6875 -0.917969,0.449219 -1.6875,0.953125 -2.3125,1.515625 -0.625,0.5625 -0.9375,0.992187 -0.9375,1.28125 0,0.04297 0.0078,0.125 0.03125,0.25 0.01953,0.125 0.03125,0.230469 0.03125,0.3125 0.08203,0.75 0.144531,1.59375 0.1875,2.53125 0.03906,0.929687 0.0625,1.808594 0.0625,2.640625 v 5.859375 c 0,1.125 0.01953,2.136719 0.0625,3.03125 0.03906,0.898437 0.144531,1.632813 0.3125,2.203125 0.08203,0.25 0.394531,0.449219 0.9375,0.59375 0.539063,0.148438 1.113281,0.261719 1.71875,0.34375 0.601563,0.085938 1.03125,0.125 1.28125,0.125 0.125,0.167969 0.1875,0.5 0.1875,1 0,0.5 -0.0625,0.8515625 -0.1875,1.0625 C 32.984375,0.164062 31.722656,0.0820312 30.453125,0 29.191406,-0.0820312 27.9375,-0.125 26.6875,-0.125 c -1.25,0 -2.46875,0.0429688 -3.65625,0.125 -1.179688,0.0820312 -2.390625,0.164062 -3.640625,0.25 -0.125,-0.2109375 -0.1875,-0.5625 -0.1875,-1.0625 0,-0.5 0.0625,-0.832031 0.1875,-1 0.25,0 0.65625,-0.039062 1.21875,-0.125 0.5625,-0.082031 1.085937,-0.195312 1.578125,-0.34375 0.5,-0.144531 0.789062,-0.34375 0.875,-0.59375 0.207031,-0.570312 0.320312,-1.304688 0.34375,-2.203125 0.01953,-0.894531 0.03125,-1.90625 0.03125,-3.03125 v -5.671875 c 0,-3.03125 -0.34375,-5.351562 -1.03125,-6.96875 -0.679688,-1.625 -1.996094,-2.4375 -3.953125,-2.4375 -0.875,0 -1.742187,0.21875 -2.59375,0.65625 -0.84375,0.429688 -1.558594,0.914062 -2.140625,1.453125 -0.585938,0.542969 -0.875,0.980469 -0.875,1.3125 v 11.65625 c 0,1.042969 0.01953,2.03125 0.0625,2.96875 0.03906,0.9375 0.144531,1.695313 0.3125,2.265625 0.08203,0.25 0.382812,0.449219 0.90625,0.59375 0.519531,0.148438 1.054688,0.261719 1.609375,0.34375 0.5625,0.085938 0.96875,0.125 1.21875,0.125 0.125,0.167969 0.1875,0.5 0.1875,1 0,0.5 -0.0625,0.8515625 -0.1875,1.0625 C 15.710938,0.164062 14.476562,0.0820312 13.25,0 12.019531,-0.0820312 10.785156,-0.125 9.546875,-0.125 8.253906,-0.125 6.984375,-0.0820312 5.734375,0 4.484375,0.0820312 3.238281,0.164062 2,0.25 1.875,0.0390625 1.8125,-0.3125 1.8125,-0.8125 c 0,-0.5 0.0625,-0.832031 0.1875,-1 0.25,0 0.671875,-0.039062 1.265625,-0.125 0.601563,-0.082031 1.175781,-0.195312 1.71875,-0.34375 0.539063,-0.144531 0.851563,-0.34375 0.9375,-0.59375 0.207031,-0.570312 0.332031,-1.304688 0.375,-2.203125 0.039063,-0.894531 0.0625,-1.90625 0.0625,-3.03125 v -9.28125 c 0,-0.25 -0.011719,-0.664063 -0.03125,-1.25 -0.023437,-0.582031 -0.054687,-1.175781 -0.09375,-1.78125 -0.042969,-0.601563 -0.148437,-1.050781 -0.3125,-1.34375 -0.167969,-0.332031 -0.542969,-0.578125 -1.125,-0.734375 -0.585937,-0.164062 -1.167969,-0.28125 -1.75,-0.34375 -0.574219,-0.0625 -0.945313,-0.09375 -1.109375,-0.09375 -0.042969,-0.08203 -0.085938,-0.382812 -0.125,-0.90625 -0.042969,-0.519531 0,-0.800781 0.125,-0.84375 1.988281,-0.207031 3.9375,-0.601562 5.84375,-1.1875 1.914062,-0.582031 3.476562,-1.1875 4.6875,-1.8125 0.207031,0.04297 0.40625,0.199219 0.59375,0.46875 0.1875,0.273438 0.28125,0.46875 0.28125,0.59375 -0.04297,0.167969 -0.105469,0.511719 -0.1875,1.03125 -0.08594,0.523438 -0.15625,1.03125 -0.21875,1.53125 -0.0625,0.5 -0.09375,0.792969 -0.09375,0.875 0,0.210938 0.03906,0.3125 0.125,0.3125 0.08203,0 0.1875,-0.0625 0.3125,-0.1875 0.539062,-0.539062 1.273438,-1.164062 2.203125,-1.875 0.9375,-0.707031 1.957031,-1.320312 3.0625,-1.84375 1.101563,-0.519531 2.175781,-0.78125 3.21875,-0.78125 z m 0,0"
             id="path116" />
        </g>
      </g>
    </g>
    <g
       fill="#004aad"
       fill-opacity="1"
       id="g130">
      <g
         transform="translate(664.5061,335.75001)"
         id="g128">
        <g
           id="g126">
          <path
             d="m 8.734375,-17.640625 c 0.125,0 0.609375,-0.0078 1.453125,-0.03125 0.851562,-0.01953 1.820312,-0.03906 2.90625,-0.0625 1.082031,-0.01953 2.078125,-0.03906 2.984375,-0.0625 0.914063,-0.01953 1.5,-0.05078 1.75,-0.09375 0.75,0 1.125,-0.414063 1.125,-1.25 0,-0.75 -0.148437,-1.585937 -0.4375,-2.515625 -0.292969,-0.9375 -0.761719,-1.757812 -1.40625,-2.46875 -0.648437,-0.707031 -1.527344,-1.0625 -2.640625,-1.0625 -1.125,0 -2.0625,0.335938 -2.8125,1 -0.75,0.667969 -1.34375,1.460938 -1.78125,2.375 -0.429688,0.90625 -0.726562,1.765625 -0.890625,2.578125 -0.167969,0.8125 -0.25,1.34375 -0.25,1.59375 z m -0.25,2.359375 c -0.042969,2.792969 0.441406,5 1.453125,6.625 1.019531,1.617188 2.269531,2.777344 3.75,3.484375 1.476562,0.710937 2.898438,1.0625 4.265625,1.0625 1.75,0 3.210937,-0.382813 4.390625,-1.15625 1.1875,-0.769531 2.050781,-1.445313 2.59375,-2.03125 0.125,0.042969 0.257812,0.167969 0.40625,0.375 0.144531,0.210937 0.21875,0.417969 0.21875,0.625 0,0.167969 -0.03125,0.375 -0.09375,0.625 -0.0625,0.25 -0.136719,0.4375 -0.21875,0.5625 -0.375,0.585937 -1.023438,1.324219 -1.9375,2.21875 -0.90625,0.886719 -2.058594,1.671875 -3.453125,2.359375 C 18.460938,0.15625 16.875,0.5 15.09375,0.5 c -2.375,0 -4.542969,-0.5390625 -6.5,-1.625 C 6.644531,-2.207031 5.097656,-3.722656 3.953125,-5.671875 2.816406,-7.628906 2.25,-9.894531 2.25,-12.46875 c 0,-2.039062 0.367188,-3.960938 1.109375,-5.765625 0.75,-1.8125 1.757813,-3.410156 3.03125,-4.796875 1.269531,-1.394531 2.679687,-2.5 4.234375,-3.3125 1.5625,-0.8125 3.132812,-1.21875 4.71875,-1.21875 1.945312,0 3.578125,0.3125 4.890625,0.9375 1.3125,0.625 2.347656,1.417969 3.109375,2.375 0.769531,0.960938 1.3125,1.949219 1.625,2.96875 0.3125,1.011719 0.46875,1.890625 0.46875,2.640625 0,0.792969 -0.125,1.449219 -0.375,1.96875 -0.25,0.511719 -0.648438,0.789063 -1.1875,0.828125 -0.792969,0.04297 -1.898438,0.09375 -3.3125,0.15625 -1.40625,0.0625 -2.921875,0.125 -4.546875,0.1875 -1.617187,0.0625 -3.109375,0.117188 -4.484375,0.15625 -1.367188,0.04297 -2.382812,0.0625 -3.046875,0.0625 z m 0,0"
             id="path124" />
        </g>
      </g>
    </g>
    <g
       fill="#004aad"
       fill-opacity="1"
       id="g138">
      <g
         transform="translate(693.5277,335.75001)"
         id="g136">
        <g
           id="g134">
          <path
             d="m 4.421875,-16.453125 c 0,0 0.445313,-0.01953 1.34375,-0.0625 0.894531,-0.03906 2.015625,-0.101563 3.359375,-0.1875 1.351562,-0.08203 2.75,-0.15625 4.1875,-0.21875 1.4375,-0.0625 2.710938,-0.125 3.828125,-0.1875 1.125,-0.0625 1.894531,-0.09375 2.3125,-0.09375 0.289063,0 0.4375,0.1875 0.4375,0.5625 0,0.53125 -0.08594,1.121094 -0.25,1.765625 -0.167969,0.648438 -0.375,1.242188 -0.625,1.78125 -0.960937,0.04297 -2.261719,0.105469 -3.90625,0.1875 -1.636719,0.08594 -3.421875,0.167969 -5.359375,0.25 -1.929688,0.08594 -3.851562,0.167969 -5.765625,0.25 -0.292969,0 -0.4375,-0.226562 -0.4375,-0.6875 0,-0.582031 0.09375,-1.175781 0.28125,-1.78125 0.1875,-0.601562 0.382813,-1.128906 0.59375,-1.578125 z m 0,0"
             id="path132" />
        </g>
      </g>
    </g>
    <g
       fill="#004aad"
       fill-opacity="1"
       id="g146">
      <g
         transform="translate(717.74851,335.75001)"
         id="g144">
        <g
           id="g142">
          <path
             d="m 11.65625,-26.8125 h 7.484375 c 0.25,0 0.375,0.25 0.375,0.75 0,0.75 -0.375,1.417969 -1.125,2 H 11.65625 v 15.890625 c 0,3.292969 1.226562,4.9375 3.6875,4.9375 0.820312,0 1.597656,-0.21875 2.328125,-0.65625 0.726563,-0.4375 1.175781,-0.71875 1.34375,-0.84375 0.207031,0.210937 0.3125,0.4375 0.3125,0.6875 0,0.167969 -0.04297,0.367187 -0.125,0.59375 -0.08594,0.21875 -0.167969,0.371094 -0.25,0.453125 -0.25,0.25 -0.699219,0.65625 -1.34375,1.21875 -0.648437,0.5625 -1.417969,1.074219 -2.3125,1.53125 C 14.410156,0.207031 13.445312,0.4375 12.40625,0.4375 11.238281,0.4375 10.101562,0.207031 9,-0.25 7.90625,-0.707031 6.992188,-1.515625 6.265625,-2.671875 5.535156,-3.835938 5.171875,-5.441406 5.171875,-7.484375 V -24.0625 H 1.125 C 1,-24.101562 0.914062,-24.195312 0.875,-24.34375 0.832031,-24.488281 0.8125,-24.625 0.8125,-24.75 c 0.164062,-0.289062 0.46875,-0.664062 0.90625,-1.125 0.4375,-0.457031 0.738281,-0.769531 0.90625,-0.9375 h 2.546875 v -3.609375 c 0.875,-0.832031 1.820313,-1.800781 2.84375,-2.90625 1.019531,-1.101563 1.773437,-1.921875 2.265625,-2.453125 0.25,-0.207031 0.539062,-0.3125 0.875,-0.3125 0.332031,0 0.5,0.08594 0.5,0.25 z m 0,0"
             id="path140" />
        </g>
      </g>
    </g>
    <g
       fill="#004aad"
       fill-opacity="1"
       id="g154">
      <g
         transform="translate(739.47546,335.75001)"
         id="g152">
        <g
           id="g150">
          <path
             d="m 15.46875,-25.3125 c -1.625,0 -2.886719,0.542969 -3.78125,1.625 -0.898438,1.074219 -1.511719,2.433594 -1.84375,4.078125 -0.324219,1.648437 -0.484375,3.296875 -0.484375,4.953125 0,1.417969 0.140625,2.875 0.421875,4.375 0.289062,1.492188 0.75,2.871094 1.375,4.140625 0.625,1.273437 1.40625,2.292969 2.34375,3.0625 0.9375,0.761719 2.046875,1.140625 3.328125,1.140625 1.664063,0 2.9375,-0.535156 3.8125,-1.609375 0.875,-1.082031 1.484375,-2.429687 1.828125,-4.046875 0.351562,-1.625 0.53125,-3.25 0.53125,-4.875 0,-1.457031 -0.15625,-2.929688 -0.46875,-4.421875 -0.304688,-1.5 -0.765625,-2.878906 -1.390625,-4.140625 -0.625,-1.269531 -1.417969,-2.300781 -2.375,-3.09375 -0.960937,-0.789062 -2.058594,-1.1875 -3.296875,-1.1875 z m 0.609375,-2.3125 c 2.832031,0 5.296875,0.59375 7.390625,1.78125 2.101562,1.1875 3.734375,2.824219 4.890625,4.90625 1.164063,2.074219 1.75,4.417969 1.75,7.03125 0,2.667969 -0.617187,5.085938 -1.84375,7.25 C 27.046875,-4.5 25.382812,-2.773438 23.28125,-1.484375 21.1875,-0.203125 18.828125,0.4375 16.203125,0.4375 13.378906,0.4375 10.914062,-0.171875 8.8125,-1.390625 6.71875,-2.617188 5.097656,-4.273438 3.953125,-6.359375 2.816406,-8.441406 2.25,-10.789062 2.25,-13.40625 c 0,-2.65625 0.609375,-5.050781 1.828125,-7.1875 1.226563,-2.144531 2.878906,-3.851562 4.953125,-5.125 2.082031,-1.269531 4.429688,-1.90625 7.046875,-1.90625 z m 0,0"
             id="path148" />
        </g>
      </g>
    </g>
    <g
       fill="#004aad"
       fill-opacity="1"
       id="g162">
      <g
         transform="translate(773.1731,335.75001)"
         id="g160">
        <g
           id="g158">
          <path
             d="m 4.421875,-16.453125 c 0,0 0.445313,-0.01953 1.34375,-0.0625 0.894531,-0.03906 2.015625,-0.101563 3.359375,-0.1875 1.351562,-0.08203 2.75,-0.15625 4.1875,-0.21875 1.4375,-0.0625 2.710938,-0.125 3.828125,-0.1875 1.125,-0.0625 1.894531,-0.09375 2.3125,-0.09375 0.289063,0 0.4375,0.1875 0.4375,0.5625 0,0.53125 -0.08594,1.121094 -0.25,1.765625 -0.167969,0.648438 -0.375,1.242188 -0.625,1.78125 -0.960937,0.04297 -2.261719,0.105469 -3.90625,0.1875 -1.636719,0.08594 -3.421875,0.167969 -5.359375,0.25 -1.929688,0.08594 -3.851562,0.167969 -5.765625,0.25 -0.292969,0 -0.4375,-0.226562 -0.4375,-0.6875 0,-0.582031 0.09375,-1.175781 0.28125,-1.78125 0.1875,-0.601562 0.382813,-1.128906 0.59375,-1.578125 z m 0,0"
             id="path156" />
        </g>
      </g>
    </g>
    <g
       fill="#004aad"
       fill-opacity="1"
       id="g170">
      <g
         transform="translate(797.89273,335.75001)"
         id="g168">
        <g
           id="g166">
          <path
             d="m 8.734375,-17.640625 c 0.125,0 0.609375,-0.0078 1.453125,-0.03125 0.851562,-0.01953 1.820312,-0.03906 2.90625,-0.0625 1.082031,-0.01953 2.078125,-0.03906 2.984375,-0.0625 0.914063,-0.01953 1.5,-0.05078 1.75,-0.09375 0.75,0 1.125,-0.414063 1.125,-1.25 0,-0.75 -0.148437,-1.585937 -0.4375,-2.515625 -0.292969,-0.9375 -0.761719,-1.757812 -1.40625,-2.46875 -0.648437,-0.707031 -1.527344,-1.0625 -2.640625,-1.0625 -1.125,0 -2.0625,0.335938 -2.8125,1 -0.75,0.667969 -1.34375,1.460938 -1.78125,2.375 -0.429688,0.90625 -0.726562,1.765625 -0.890625,2.578125 -0.167969,0.8125 -0.25,1.34375 -0.25,1.59375 z m -0.25,2.359375 c -0.042969,2.792969 0.441406,5 1.453125,6.625 1.019531,1.617188 2.269531,2.777344 3.75,3.484375 1.476562,0.710937 2.898438,1.0625 4.265625,1.0625 1.75,0 3.210937,-0.382813 4.390625,-1.15625 1.1875,-0.769531 2.050781,-1.445313 2.59375,-2.03125 0.125,0.042969 0.257812,0.167969 0.40625,0.375 0.144531,0.210937 0.21875,0.417969 0.21875,0.625 0,0.167969 -0.03125,0.375 -0.09375,0.625 -0.0625,0.25 -0.136719,0.4375 -0.21875,0.5625 -0.375,0.585937 -1.023438,1.324219 -1.9375,2.21875 -0.90625,0.886719 -2.058594,1.671875 -3.453125,2.359375 C 18.460938,0.15625 16.875,0.5 15.09375,0.5 c -2.375,0 -4.542969,-0.5390625 -6.5,-1.625 C 6.644531,-2.207031 5.097656,-3.722656 3.953125,-5.671875 2.816406,-7.628906 2.25,-9.894531 2.25,-12.46875 c 0,-2.039062 0.367188,-3.960938 1.109375,-5.765625 0.75,-1.8125 1.757813,-3.410156 3.03125,-4.796875 1.269531,-1.394531 2.679687,-2.5 4.234375,-3.3125 1.5625,-0.8125 3.132812,-1.21875 4.71875,-1.21875 1.945312,0 3.578125,0.3125 4.890625,0.9375 1.3125,0.625 2.347656,1.417969 3.109375,2.375 0.769531,0.960938 1.3125,1.949219 1.625,2.96875 0.3125,1.011719 0.46875,1.890625 0.46875,2.640625 0,0.792969 -0.125,1.449219 -0.375,1.96875 -0.25,0.511719 -0.648438,0.789063 -1.1875,0.828125 -0.792969,0.04297 -1.898438,0.09375 -3.3125,0.15625 -1.40625,0.0625 -2.921875,0.125 -4.546875,0.1875 -1.617187,0.0625 -3.109375,0.117188 -4.484375,0.15625 -1.367188,0.04297 -2.382812,0.0625 -3.046875,0.0625 z m 0,0"
             id="path164" />
        </g>
      </g>
    </g>
    <g
       fill="#004aad"
       fill-opacity="1"
       id="g178">
      <g
         transform="translate(826.66494,335.75001)"
         id="g176">
        <g
           id="g174">
          <path
             d="m 7.421875,-26.8125 c 1.25,0 2.484375,-0.0625 3.703125,-0.1875 1.226562,-0.125 2.34375,-0.207031 3.34375,-0.25 0.125,0.167969 0.175781,0.53125 0.15625,1.09375 -0.02344,0.5625 -0.117188,0.886719 -0.28125,0.96875 -0.210938,0 -0.585938,0.04297 -1.125,0.125 -0.542969,0.08594 -1.054688,0.230469 -1.53125,0.4375 -0.480469,0.210938 -0.71875,0.480469 -0.71875,0.8125 0,0.04297 0,0.125 0,0.25 0,0.125 0.01953,0.25 0.0625,0.375 0.207031,0.417969 0.570312,1.1875 1.09375,2.3125 0.519531,1.117188 1.101562,2.371094 1.75,3.765625 0.644531,1.386719 1.253906,2.726563 1.828125,4.015625 0.582031,1.292969 1.0625,2.367188 1.4375,3.21875 0.375,0.84375 0.5625,1.265625 0.5625,1.265625 0,0 0.164063,-0.398437 0.5,-1.203125 0.332031,-0.8125 0.757813,-1.851562 1.28125,-3.125 0.519531,-1.269531 1.09375,-2.640625 1.71875,-4.109375 0.625,-1.476563 1.203125,-2.863281 1.734375,-4.15625 0.332031,-0.75 0.5,-1.453125 0.5,-2.109375 0,-0.457031 -0.242188,-0.820312 -0.71875,-1.09375 C 22.25,-24.675781 21.703125,-24.875 21.078125,-25 c -0.625,-0.125 -1.167969,-0.1875 -1.625,-0.1875 -0.167969,-0.08203 -0.25,-0.40625 -0.25,-0.96875 0,-0.5625 0.0625,-0.925781 0.1875,-1.09375 0.957031,0.08594 1.847656,0.179688 2.671875,0.28125 0.832031,0.105469 1.875,0.15625 3.125,0.15625 1.25,0 2.367188,-0.0625 3.359375,-0.1875 1,-0.125 1.9375,-0.207031 2.8125,-0.25 0.125,0.167969 0.164063,0.523438 0.125,1.0625 -0.04297,0.542969 -0.125,0.875 -0.25,1 -0.210937,0 -0.625,0.05469 -1.25,0.15625 -0.625,0.105469 -1.25,0.3125 -1.875,0.625 -0.617187,0.3125 -1.070313,0.761719 -1.359375,1.34375 -0.375,0.867188 -0.886719,2.015625 -1.53125,3.453125 -0.648438,1.4375 -1.34375,3.011719 -2.09375,4.71875 -0.742188,1.699219 -1.496094,3.390625 -2.265625,5.078125 -0.773437,1.679688 -1.46875,3.246094 -2.09375,4.703125 -0.625,1.449219 -1.125,2.609375 -1.5,3.484375 -0.75,1.5429688 -1.476563,2.3125 -2.171875,2.3125 -0.125,0 -0.25,-0.054688 -0.375,-0.15625 C 14.59375,0.425781 14.488281,0.351562 14.40625,0.3125 12.488281,-3.96875 10.707031,-8 9.0625,-11.78125 7.425781,-15.5625 5.648438,-19.40625 3.734375,-23.3125 c -0.25,-0.539062 -0.625,-0.945312 -1.125,-1.21875 C 2.117188,-24.800781 1.625,-24.976562 1.125,-25.0625 c -0.5,-0.08203 -0.855469,-0.125 -1.0625,-0.125 -0.125,-0.207031 -0.1875,-0.539062 -0.1875,-1 0,-0.457031 0.0625,-0.8125 0.1875,-1.0625 1.082031,0.04297 2.265625,0.125 3.546875,0.25 1.289063,0.125 2.5625,0.1875 3.8125,0.1875 z m 0,0"
             id="path172" />
        </g>
      </g>
    </g>
    <g
       fill="#004aad"
       fill-opacity="1"
       id="g186">
      <g
         transform="translate(858.11802,335.75001)"
         id="g184">
        <g
           id="g182">
          <path
             d="m 8.734375,-17.640625 c 0.125,0 0.609375,-0.0078 1.453125,-0.03125 0.851562,-0.01953 1.820312,-0.03906 2.90625,-0.0625 1.082031,-0.01953 2.078125,-0.03906 2.984375,-0.0625 0.914063,-0.01953 1.5,-0.05078 1.75,-0.09375 0.75,0 1.125,-0.414063 1.125,-1.25 0,-0.75 -0.148437,-1.585937 -0.4375,-2.515625 -0.292969,-0.9375 -0.761719,-1.757812 -1.40625,-2.46875 -0.648437,-0.707031 -1.527344,-1.0625 -2.640625,-1.0625 -1.125,0 -2.0625,0.335938 -2.8125,1 -0.75,0.667969 -1.34375,1.460938 -1.78125,2.375 -0.429688,0.90625 -0.726562,1.765625 -0.890625,2.578125 -0.167969,0.8125 -0.25,1.34375 -0.25,1.59375 z m -0.25,2.359375 c -0.042969,2.792969 0.441406,5 1.453125,6.625 1.019531,1.617188 2.269531,2.777344 3.75,3.484375 1.476562,0.710937 2.898438,1.0625 4.265625,1.0625 1.75,0 3.210937,-0.382813 4.390625,-1.15625 1.1875,-0.769531 2.050781,-1.445313 2.59375,-2.03125 0.125,0.042969 0.257812,0.167969 0.40625,0.375 0.144531,0.210937 0.21875,0.417969 0.21875,0.625 0,0.167969 -0.03125,0.375 -0.09375,0.625 -0.0625,0.25 -0.136719,0.4375 -0.21875,0.5625 -0.375,0.585937 -1.023438,1.324219 -1.9375,2.21875 -0.90625,0.886719 -2.058594,1.671875 -3.453125,2.359375 C 18.460938,0.15625 16.875,0.5 15.09375,0.5 c -2.375,0 -4.542969,-0.5390625 -6.5,-1.625 C 6.644531,-2.207031 5.097656,-3.722656 3.953125,-5.671875 2.816406,-7.628906 2.25,-9.894531 2.25,-12.46875 c 0,-2.039062 0.367188,-3.960938 1.109375,-5.765625 0.75,-1.8125 1.757813,-3.410156 3.03125,-4.796875 1.269531,-1.394531 2.679687,-2.5 4.234375,-3.3125 1.5625,-0.8125 3.132812,-1.21875 4.71875,-1.21875 1.945312,0 3.578125,0.3125 4.890625,0.9375 1.3125,0.625 2.347656,1.417969 3.109375,2.375 0.769531,0.960938 1.3125,1.949219 1.625,2.96875 0.3125,1.011719 0.46875,1.890625 0.46875,2.640625 0,0.792969 -0.125,1.449219 -0.375,1.96875 -0.25,0.511719 -0.648438,0.789063 -1.1875,0.828125 -0.792969,0.04297 -1.898438,0.09375 -3.3125,0.15625 -1.40625,0.0625 -2.921875,0.125 -4.546875,0.1875 -1.617187,0.0625 -3.109375,0.117188 -4.484375,0.15625 -1.367188,0.04297 -2.382812,0.0625 -3.046875,0.0625 z m 0,0"
             id="path180" />
        </g>
      </g>
    </g>
    <g
       fill="#004aad"
       fill-opacity="1"
       id="g194">
      <g
         transform="translate(887.13961,335.75001)"
         id="g192">
        <g
           id="g190">
          <path
             d="m 21.828125,-27.5625 c 2.320313,0 4.070313,0.511719 5.25,1.53125 1.1875,1.023438 1.988281,2.5625 2.40625,4.625 0.414063,2.054688 0.625,4.65625 0.625,7.8125 v 5.484375 c 0,1.125 0.01953,2.136719 0.0625,3.03125 0.03906,0.898437 0.144531,1.632813 0.3125,2.203125 0.08203,0.25 0.40625,0.449219 0.96875,0.59375 0.5625,0.148438 1.144531,0.261719 1.75,0.34375 0.601563,0.085938 1.03125,0.125 1.28125,0.125 0.125,0.167969 0.1875,0.5 0.1875,1 0,0.5 -0.0625,0.8515625 -0.1875,1.0625 -1.25,-0.085938 -2.523437,-0.1679688 -3.8125,-0.25 -1.292969,-0.0820312 -2.558594,-0.125 -3.796875,-0.125 -1.25,0 -2.460938,0.0429688 -3.625,0.125 -1.15625,0.0820312 -2.359375,0.164062 -3.609375,0.25 -0.125,-0.2109375 -0.1875,-0.5625 -0.1875,-1.0625 0,-0.5 0.0625,-0.832031 0.1875,-1 0.25,0 0.644531,-0.039062 1.1875,-0.125 0.539063,-0.082031 1.054687,-0.195312 1.546875,-0.34375 0.5,-0.144531 0.789062,-0.34375 0.875,-0.59375 0.207031,-0.570312 0.320312,-1.304688 0.34375,-2.203125 0.01953,-0.894531 0.03125,-1.90625 0.03125,-3.03125 v -5.609375 c 0,-3.070312 -0.335938,-5.414062 -1,-7.03125 -0.65625,-1.625 -2.027344,-2.4375 -4.109375,-2.4375 -0.792969,0 -1.625,0.230469 -2.5,0.6875 -0.867187,0.449219 -1.609375,0.945312 -2.234375,1.484375 -0.625,0.542969 -0.9375,0.960937 -0.9375,1.25 v 11.65625 c 0,1.042969 0.01953,2.03125 0.0625,2.96875 0.03906,0.9375 0.144531,1.695313 0.3125,2.265625 0.08203,0.25 0.382812,0.449219 0.90625,0.59375 0.519531,0.148438 1.054688,0.261719 1.609375,0.34375 0.5625,0.085938 0.96875,0.125 1.21875,0.125 0.125,0.167969 0.1875,0.5 0.1875,1 0,0.5 -0.0625,0.8515625 -0.1875,1.0625 C 15.710938,0.164062 14.476562,0.0820312 13.25,0 12.019531,-0.0820312 10.785156,-0.125 9.546875,-0.125 8.253906,-0.125 6.984375,-0.0820312 5.734375,0 4.484375,0.0820312 3.238281,0.164062 2,0.25 1.875,0.0390625 1.8125,-0.3125 1.8125,-0.8125 c 0,-0.5 0.0625,-0.832031 0.1875,-1 0.25,0 0.671875,-0.039062 1.265625,-0.125 0.601563,-0.082031 1.175781,-0.195312 1.71875,-0.34375 0.539063,-0.144531 0.851563,-0.34375 0.9375,-0.59375 0.207031,-0.570312 0.332031,-1.304688 0.375,-2.203125 0.039063,-0.894531 0.0625,-1.90625 0.0625,-3.03125 v -9.46875 c 0,-0.25 -0.011719,-0.65625 -0.03125,-1.21875 -0.023437,-0.5625 -0.054687,-1.125 -0.09375,-1.6875 -0.042969,-0.5625 -0.148437,-0.988281 -0.3125,-1.28125 -0.167969,-0.332031 -0.542969,-0.578125 -1.125,-0.734375 -0.585937,-0.164062 -1.167969,-0.28125 -1.75,-0.34375 -0.574219,-0.0625 -0.945313,-0.09375 -1.109375,-0.09375 -0.042969,-0.08203 -0.085938,-0.382812 -0.125,-0.90625 -0.042969,-0.519531 0,-0.800781 0.125,-0.84375 1.988281,-0.207031 3.9375,-0.601562 5.84375,-1.1875 1.914062,-0.582031 3.476562,-1.1875 4.6875,-1.8125 0.207031,0 0.40625,0.136719 0.59375,0.40625 0.1875,0.273438 0.28125,0.492188 0.28125,0.65625 -0.04297,0.167969 -0.105469,0.523438 -0.1875,1.0625 -0.08594,0.542969 -0.15625,1.074219 -0.21875,1.59375 -0.0625,0.523438 -0.09375,0.824219 -0.09375,0.90625 0,0.25 0.03906,0.375 0.125,0.375 0.03906,0 0.144531,-0.08203 0.3125,-0.25 0.5,-0.582031 1.234375,-1.226562 2.203125,-1.9375 0.976563,-0.707031 2.039063,-1.332031 3.1875,-1.875 1.144531,-0.539062 2.195313,-0.8125 3.15625,-0.8125 z m 0,0"
             id="path188" />
        </g>
      </g>
    </g>
    <g
       fill="#004aad"
       fill-opacity="1"
       id="g202">
      <g
         transform="translate(923.6429,335.75001)"
         id="g200">
        <g
           id="g198">
          <path
             d="m 11.65625,-26.8125 h 7.484375 c 0.25,0 0.375,0.25 0.375,0.75 0,0.75 -0.375,1.417969 -1.125,2 H 11.65625 v 15.890625 c 0,3.292969 1.226562,4.9375 3.6875,4.9375 0.820312,0 1.597656,-0.21875 2.328125,-0.65625 0.726563,-0.4375 1.175781,-0.71875 1.34375,-0.84375 0.207031,0.210937 0.3125,0.4375 0.3125,0.6875 0,0.167969 -0.04297,0.367187 -0.125,0.59375 -0.08594,0.21875 -0.167969,0.371094 -0.25,0.453125 -0.25,0.25 -0.699219,0.65625 -1.34375,1.21875 -0.648437,0.5625 -1.417969,1.074219 -2.3125,1.53125 C 14.410156,0.207031 13.445312,0.4375 12.40625,0.4375 11.238281,0.4375 10.101562,0.207031 9,-0.25 7.90625,-0.707031 6.992188,-1.515625 6.265625,-2.671875 5.535156,-3.835938 5.171875,-5.441406 5.171875,-7.484375 V -24.0625 H 1.125 C 1,-24.101562 0.914062,-24.195312 0.875,-24.34375 0.832031,-24.488281 0.8125,-24.625 0.8125,-24.75 c 0.164062,-0.289062 0.46875,-0.664062 0.90625,-1.125 0.4375,-0.457031 0.738281,-0.769531 0.90625,-0.9375 h 2.546875 v -3.609375 c 0.875,-0.832031 1.820313,-1.800781 2.84375,-2.90625 1.019531,-1.101563 1.773437,-1.921875 2.265625,-2.453125 0.25,-0.207031 0.539062,-0.3125 0.875,-0.3125 0.332031,0 0.5,0.08594 0.5,0.25 z m 0,0"
             id="path196" />
        </g>
      </g>
    </g>
    <g
       fill="#737373"
       fill-opacity="1"
       id="g210">
      <g
         transform="translate(535.75103,486.07644)"
         id="g208">
        <g
           id="g206">
          <path
             d="m 24.125,-41.578125 c 2.082031,0 4.273438,0.09375 6.578125,0.28125 2.3125,0.179687 4.484375,0.496094 6.515625,0.953125 0,0.08594 0.09375,0.574219 0.28125,1.46875 0.1875,0.898438 0.40625,1.917969 0.65625,3.0625 0.25,1.136719 0.457031,2.171875 0.625,3.109375 0.164062,0.9375 0.25,1.492187 0.25,1.65625 0,0.25 -0.167969,0.480469 -0.5,0.6875 -0.335938,0.210937 -0.667969,0.3125 -1,0.3125 -0.417969,0 -0.710938,-0.101563 -0.875,-0.3125 -0.125,-0.539063 -0.386719,-1.289063 -0.78125,-2.25 -0.398438,-0.957031 -1.023438,-1.929687 -1.875,-2.921875 -0.84375,-1 -2.027344,-1.84375 -3.546875,-2.53125 -1.511719,-0.6875 -3.476563,-1.03125 -5.890625,-1.03125 -2.242188,0 -4.214844,0.492188 -5.921875,1.46875 -1.710937,0.980469 -3.136719,2.304688 -4.28125,3.96875 -1.136719,1.65625 -1.996094,3.515625 -2.578125,5.578125 -0.585938,2.054687 -0.875,4.179687 -0.875,6.375 0,2.417969 0.300781,4.792969 0.90625,7.125 0.601562,2.324219 1.503906,4.433594 2.703125,6.328125 1.207031,1.886719 2.738281,3.382812 4.59375,4.484375 1.851563,1.09375 4.046875,1.640625 6.578125,1.640625 1.914062,0 3.503906,-0.253906 4.765625,-0.765625 1.269531,-0.519531 2.34375,-1.175781 3.21875,-1.96875 0.875,-0.75 1.585937,-1.632813 2.140625,-2.65625 0.5625,-1.019531 1.007812,-1.972656 1.34375,-2.859375 0.332031,-0.894531 0.539062,-1.550781 0.625,-1.96875 0.457031,0 0.894531,0.07422 1.3125,0.21875 0.414062,0.148438 0.6875,0.28125 0.8125,0.40625 0,0.25 -0.08594,0.835938 -0.25,1.75 -0.167969,0.90625 -0.375,1.914062 -0.625,3.015625 -0.25,1.105469 -0.523438,2.09375 -0.8125,2.96875 -0.292969,0.867187 -0.542969,1.359375 -0.75,1.484375 -1.824219,0.835938 -3.820312,1.523438 -5.984375,2.0625 C 29.328125,0.101562 26.8125,0.375 23.9375,0.375 20.945312,0.375 18.160156,-0.144531 15.578125,-1.1875 13.003906,-2.226562 10.757812,-3.679688 8.84375,-5.546875 6.9375,-7.421875 5.453125,-9.59375 4.390625,-12.0625 3.335938,-14.539062 2.8125,-17.210938 2.8125,-20.078125 c 0,-2.945313 0.535156,-5.71875 1.609375,-8.3125 1.082031,-2.601563 2.585937,-4.890625 4.515625,-6.859375 1.9375,-1.976562 4.191406,-3.523438 6.765625,-4.640625 2.582031,-1.125 5.390625,-1.6875 8.421875,-1.6875 z m 0,0"
             id="path204" />
        </g>
      </g>
    </g>
    <g
       fill="#737373"
       fill-opacity="1"
       id="g218">
      <g
         transform="translate(579.17488,486.07644)"
         id="g216">
        <g
           id="g214">
          <path
             d="m 8.734375,-17.640625 c 0.125,0 0.609375,-0.0078 1.453125,-0.03125 0.851562,-0.01953 1.820312,-0.03906 2.90625,-0.0625 1.082031,-0.01953 2.078125,-0.03906 2.984375,-0.0625 0.914063,-0.01953 1.5,-0.05078 1.75,-0.09375 0.75,0 1.125,-0.414063 1.125,-1.25 0,-0.75 -0.148437,-1.585937 -0.4375,-2.515625 -0.292969,-0.9375 -0.761719,-1.757812 -1.40625,-2.46875 -0.648437,-0.707031 -1.527344,-1.0625 -2.640625,-1.0625 -1.125,0 -2.0625,0.335938 -2.8125,1 -0.75,0.667969 -1.34375,1.460938 -1.78125,2.375 -0.429688,0.90625 -0.726562,1.765625 -0.890625,2.578125 -0.167969,0.8125 -0.25,1.34375 -0.25,1.59375 z m -0.25,2.359375 c -0.042969,2.792969 0.441406,5 1.453125,6.625 1.019531,1.617188 2.269531,2.777344 3.75,3.484375 1.476562,0.710937 2.898438,1.0625 4.265625,1.0625 1.75,0 3.210937,-0.382813 4.390625,-1.15625 1.1875,-0.769531 2.050781,-1.445313 2.59375,-2.03125 0.125,0.042969 0.257812,0.167969 0.40625,0.375 0.144531,0.210937 0.21875,0.417969 0.21875,0.625 0,0.167969 -0.03125,0.375 -0.09375,0.625 -0.0625,0.25 -0.136719,0.4375 -0.21875,0.5625 -0.375,0.585937 -1.023438,1.324219 -1.9375,2.21875 -0.90625,0.886719 -2.058594,1.671875 -3.453125,2.359375 C 18.460938,0.15625 16.875,0.5 15.09375,0.5 c -2.375,0 -4.542969,-0.5390625 -6.5,-1.625 C 6.644531,-2.207031 5.097656,-3.722656 3.953125,-5.671875 2.816406,-7.628906 2.25,-9.894531 2.25,-12.46875 c 0,-2.039062 0.367188,-3.960938 1.109375,-5.765625 0.75,-1.8125 1.757813,-3.410156 3.03125,-4.796875 1.269531,-1.394531 2.679687,-2.5 4.234375,-3.3125 1.5625,-0.8125 3.132812,-1.21875 4.71875,-1.21875 1.945312,0 3.578125,0.3125 4.890625,0.9375 1.3125,0.625 2.347656,1.417969 3.109375,2.375 0.769531,0.960938 1.3125,1.949219 1.625,2.96875 0.3125,1.011719 0.46875,1.890625 0.46875,2.640625 0,0.792969 -0.125,1.449219 -0.375,1.96875 -0.25,0.511719 -0.648438,0.789063 -1.1875,0.828125 -0.792969,0.04297 -1.898438,0.09375 -3.3125,0.15625 -1.40625,0.0625 -2.921875,0.125 -4.546875,0.1875 -1.617187,0.0625 -3.109375,0.117188 -4.484375,0.15625 -1.367188,0.04297 -2.382812,0.0625 -3.046875,0.0625 z m 0,0"
             id="path212" />
        </g>
      </g>
    </g>
    <g
       fill="#737373"
       fill-opacity="1"
       id="g226">
      <g
         transform="translate(608.19648,486.07644)"
         id="g224">
        <g
           id="g222">
          <path
             d="m 21.828125,-27.5625 c 2.320313,0 4.070313,0.511719 5.25,1.53125 1.1875,1.023438 1.988281,2.5625 2.40625,4.625 0.414063,2.054688 0.625,4.65625 0.625,7.8125 v 5.484375 c 0,1.125 0.01953,2.136719 0.0625,3.03125 0.03906,0.898437 0.144531,1.632813 0.3125,2.203125 0.08203,0.25 0.40625,0.449219 0.96875,0.59375 0.5625,0.148438 1.144531,0.261719 1.75,0.34375 0.601563,0.085938 1.03125,0.125 1.28125,0.125 0.125,0.167969 0.1875,0.5 0.1875,1 0,0.5 -0.0625,0.8515625 -0.1875,1.0625 -1.25,-0.085938 -2.523437,-0.1679688 -3.8125,-0.25 -1.292969,-0.0820312 -2.558594,-0.125 -3.796875,-0.125 -1.25,0 -2.460938,0.0429688 -3.625,0.125 -1.15625,0.0820312 -2.359375,0.164062 -3.609375,0.25 -0.125,-0.2109375 -0.1875,-0.5625 -0.1875,-1.0625 0,-0.5 0.0625,-0.832031 0.1875,-1 0.25,0 0.644531,-0.039062 1.1875,-0.125 0.539063,-0.082031 1.054687,-0.195312 1.546875,-0.34375 0.5,-0.144531 0.789062,-0.34375 0.875,-0.59375 0.207031,-0.570312 0.320312,-1.304688 0.34375,-2.203125 0.01953,-0.894531 0.03125,-1.90625 0.03125,-3.03125 v -5.609375 c 0,-3.070312 -0.335938,-5.414062 -1,-7.03125 -0.65625,-1.625 -2.027344,-2.4375 -4.109375,-2.4375 -0.792969,0 -1.625,0.230469 -2.5,0.6875 -0.867187,0.449219 -1.609375,0.945312 -2.234375,1.484375 -0.625,0.542969 -0.9375,0.960937 -0.9375,1.25 v 11.65625 c 0,1.042969 0.01953,2.03125 0.0625,2.96875 0.03906,0.9375 0.144531,1.695313 0.3125,2.265625 0.08203,0.25 0.382812,0.449219 0.90625,0.59375 0.519531,0.148438 1.054688,0.261719 1.609375,0.34375 0.5625,0.085938 0.96875,0.125 1.21875,0.125 0.125,0.167969 0.1875,0.5 0.1875,1 0,0.5 -0.0625,0.8515625 -0.1875,1.0625 C 15.710938,0.164062 14.476562,0.0820312 13.25,0 12.019531,-0.0820312 10.785156,-0.125 9.546875,-0.125 8.253906,-0.125 6.984375,-0.0820312 5.734375,0 4.484375,0.0820312 3.238281,0.164062 2,0.25 1.875,0.0390625 1.8125,-0.3125 1.8125,-0.8125 c 0,-0.5 0.0625,-0.832031 0.1875,-1 0.25,0 0.671875,-0.039062 1.265625,-0.125 0.601563,-0.082031 1.175781,-0.195312 1.71875,-0.34375 0.539063,-0.144531 0.851563,-0.34375 0.9375,-0.59375 0.207031,-0.570312 0.332031,-1.304688 0.375,-2.203125 0.039063,-0.894531 0.0625,-1.90625 0.0625,-3.03125 v -9.46875 c 0,-0.25 -0.011719,-0.65625 -0.03125,-1.21875 -0.023437,-0.5625 -0.054687,-1.125 -0.09375,-1.6875 -0.042969,-0.5625 -0.148437,-0.988281 -0.3125,-1.28125 -0.167969,-0.332031 -0.542969,-0.578125 -1.125,-0.734375 -0.585937,-0.164062 -1.167969,-0.28125 -1.75,-0.34375 -0.574219,-0.0625 -0.945313,-0.09375 -1.109375,-0.09375 -0.042969,-0.08203 -0.085938,-0.382812 -0.125,-0.90625 -0.042969,-0.519531 0,-0.800781 0.125,-0.84375 1.988281,-0.207031 3.9375,-0.601562 5.84375,-1.1875 1.914062,-0.582031 3.476562,-1.1875 4.6875,-1.8125 0.207031,0 0.40625,0.136719 0.59375,0.40625 0.1875,0.273438 0.28125,0.492188 0.28125,0.65625 -0.04297,0.167969 -0.105469,0.523438 -0.1875,1.0625 -0.08594,0.542969 -0.15625,1.074219 -0.21875,1.59375 -0.0625,0.523438 -0.09375,0.824219 -0.09375,0.90625 0,0.25 0.03906,0.375 0.125,0.375 0.03906,0 0.144531,-0.08203 0.3125,-0.25 0.5,-0.582031 1.234375,-1.226562 2.203125,-1.9375 0.976563,-0.707031 2.039063,-1.332031 3.1875,-1.875 1.144531,-0.539062 2.195313,-0.8125 3.15625,-0.8125 z m 0,0"
             id="path220" />
        </g>
      </g>
    </g>
    <g
       fill="#737373"
       fill-opacity="1"
       id="g234">
      <g
         transform="translate(644.69977,486.07644)"
         id="g232">
        <g
           id="g230">
          <path
             d="m 13.09375,-27.625 c 1.332031,0 2.484375,0.125 3.453125,0.375 0.976563,0.25 2.050781,0.480469 3.21875,0.6875 0.164063,0.667969 0.332031,1.460938 0.5,2.375 0.164063,0.917969 0.300781,1.824219 0.40625,2.71875 0.101563,0.886719 0.15625,1.601562 0.15625,2.140625 0,0.125 -0.09375,0.21875 -0.28125,0.28125 -0.1875,0.0625 -0.386719,0.09375 -0.59375,0.09375 -0.375,0 -0.75,-0.125 -1.125,-0.375 -0.210937,-0.875 -0.5625,-1.773437 -1.0625,-2.703125 -0.5,-0.9375 -1.15625,-1.726562 -1.96875,-2.375 -0.804687,-0.644531 -1.789063,-0.96875 -2.953125,-0.96875 -1.25,0 -2.230469,0.335938 -2.9375,1 -0.699219,0.667969 -1.046875,1.558594 -1.046875,2.671875 0,1.085937 0.296875,1.949219 0.890625,2.59375 0.601562,0.648437 1.363281,1.199219 2.28125,1.65625 0.914062,0.460937 1.832031,0.9375 2.75,1.4375 0.988281,0.53125 2.023438,1.121094 3.109375,1.765625 1.082031,0.648438 1.988281,1.46875 2.71875,2.46875 0.726563,1 1.09375,2.265625 1.09375,3.796875 0,1.875 -0.511719,3.449219 -1.53125,4.71875 -1.023437,1.261719 -2.367187,2.226563 -4.03125,2.890625 -1.65625,0.664062 -3.445313,1 -5.359375,1 -1.40625,0 -2.703125,-0.15625 -3.890625,-0.46875 -1.1875,-0.3125 -2.324219,-0.570312 -3.40625,-0.78125 -0.125,-0.457031 -0.242187,-1.203125 -0.34375,-2.234375 -0.09375,-1.039063 -0.183594,-2.0625 -0.265625,-3.0625 -0.085938,-1 -0.125,-1.6875 -0.125,-2.0625 0.082031,-0.125 0.222656,-0.21875 0.421875,-0.28125 0.207031,-0.0625 0.394531,-0.09375 0.5625,-0.09375 0.164063,0 0.351563,0.03125 0.5625,0.09375 0.207031,0.0625 0.351563,0.15625 0.4375,0.28125 0.414063,2 1.289063,3.5625 2.625,4.6875 1.332031,1.117187 2.703125,1.671875 4.109375,1.671875 1.207031,0 2.175781,-0.367188 2.90625,-1.109375 0.726562,-0.75 1.09375,-1.707031 1.09375,-2.875 0,-1.164063 -0.355469,-2.101563 -1.0625,-2.8125 -0.710938,-0.707031 -1.605469,-1.316406 -2.6875,-1.828125 -1.085938,-0.519531 -2.164062,-1.09375 -3.234375,-1.71875 -1.542969,-0.875 -2.886719,-1.867188 -4.03125,-2.984375 -1.136719,-1.125 -1.703125,-2.625 -1.703125,-4.5 0,-1.832031 0.523438,-3.347656 1.578125,-4.546875 1.0625,-1.207031 2.390625,-2.113281 3.984375,-2.71875 1.601562,-0.601562 3.195312,-0.90625 4.78125,-0.90625 z m 0,0"
             id="path228" />
        </g>
      </g>
    </g>
    <g
       fill="#737373"
       fill-opacity="1"
       id="g242">
      <g
         transform="translate(670.10522,486.07644)"
         id="g240">
        <g
           id="g238">
          <path
             d="m 15.46875,-25.3125 c -1.625,0 -2.886719,0.542969 -3.78125,1.625 -0.898438,1.074219 -1.511719,2.433594 -1.84375,4.078125 -0.324219,1.648437 -0.484375,3.296875 -0.484375,4.953125 0,1.417969 0.140625,2.875 0.421875,4.375 0.289062,1.492188 0.75,2.871094 1.375,4.140625 0.625,1.273437 1.40625,2.292969 2.34375,3.0625 0.9375,0.761719 2.046875,1.140625 3.328125,1.140625 1.664063,0 2.9375,-0.535156 3.8125,-1.609375 0.875,-1.082031 1.484375,-2.429687 1.828125,-4.046875 0.351562,-1.625 0.53125,-3.25 0.53125,-4.875 0,-1.457031 -0.15625,-2.929688 -0.46875,-4.421875 -0.304688,-1.5 -0.765625,-2.878906 -1.390625,-4.140625 -0.625,-1.269531 -1.417969,-2.300781 -2.375,-3.09375 -0.960937,-0.789062 -2.058594,-1.1875 -3.296875,-1.1875 z m 0.609375,-2.3125 c 2.832031,0 5.296875,0.59375 7.390625,1.78125 2.101562,1.1875 3.734375,2.824219 4.890625,4.90625 1.164063,2.074219 1.75,4.417969 1.75,7.03125 0,2.667969 -0.617187,5.085938 -1.84375,7.25 C 27.046875,-4.5 25.382812,-2.773438 23.28125,-1.484375 21.1875,-0.203125 18.828125,0.4375 16.203125,0.4375 13.378906,0.4375 10.914062,-0.171875 8.8125,-1.390625 6.71875,-2.617188 5.097656,-4.273438 3.953125,-6.359375 2.816406,-8.441406 2.25,-10.789062 2.25,-13.40625 c 0,-2.65625 0.609375,-5.050781 1.828125,-7.1875 1.226563,-2.144531 2.878906,-3.851562 4.953125,-5.125 2.082031,-1.269531 4.429688,-1.90625 7.046875,-1.90625 z m 0,0"
             id="path236" />
        </g>
      </g>
    </g>
    <g
       fill="#737373"
       fill-opacity="1"
       id="g250">
      <g
         transform="translate(703.80287,486.07644)"
         id="g248">
        <g
           id="g246">
          <path
             d="m 20.703125,-27.5625 c 0.832031,0 1.597656,0.125 2.296875,0.375 0.707031,0.25 1.226562,0.605469 1.5625,1.0625 0.08203,0.167969 0.1875,0.480469 0.3125,0.9375 0.125,0.460938 0.1875,0.9375 0.1875,1.4375 0,1.117188 -0.3125,2.070312 -0.9375,2.859375 -0.625,0.792969 -1.289062,1.1875 -1.984375,1.1875 -0.5,0 -0.949219,-0.164063 -1.34375,-0.5 -0.398437,-0.332031 -0.78125,-0.625 -1.15625,-0.875 -0.292969,-0.25 -0.59375,-0.476563 -0.90625,-0.6875 -0.3125,-0.207031 -0.761719,-0.3125 -1.34375,-0.3125 -0.875,0 -1.65625,0.355469 -2.34375,1.0625 -0.679687,0.710937 -1.214844,1.492187 -1.609375,2.34375 -0.398438,0.855469 -0.59375,1.511719 -0.59375,1.96875 v 8.59375 c 0,1.042969 0.01953,2.03125 0.0625,2.96875 0.03906,0.9375 0.144531,1.695313 0.3125,2.265625 0.08203,0.25 0.488281,0.449219 1.21875,0.59375 0.726562,0.148438 1.472656,0.261719 2.234375,0.34375 0.769531,0.085938 1.28125,0.125 1.53125,0.125 0.125,0.167969 0.1875,0.5 0.1875,1 0,0.5 -0.0625,0.8515625 -0.1875,1.0625 -1.25,-0.085938 -2.667969,-0.1679688 -4.25,-0.25 C 12.378906,-0.0820312 10.96875,-0.125 9.71875,-0.125 8.4375,-0.125 7.140625,-0.0820312 5.828125,0 4.515625,0.0820312 3.238281,0.164062 2,0.25 1.875,0.0390625 1.8125,-0.3125 1.8125,-0.8125 c 0,-0.5 0.0625,-0.832031 0.1875,-1 0.25,0 0.671875,-0.039062 1.265625,-0.125 0.601563,-0.082031 1.175781,-0.195312 1.71875,-0.34375 0.539063,-0.144531 0.851563,-0.34375 0.9375,-0.59375 0.207031,-0.570312 0.332031,-1.304688 0.375,-2.203125 0.039063,-0.894531 0.0625,-1.90625 0.0625,-3.03125 v -9.46875 c 0,-0.25 -0.011719,-0.65625 -0.03125,-1.21875 -0.023437,-0.5625 -0.054687,-1.125 -0.09375,-1.6875 -0.042969,-0.5625 -0.148437,-0.988281 -0.3125,-1.28125 -0.167969,-0.332031 -0.542969,-0.578125 -1.125,-0.734375 -0.585937,-0.164062 -1.167969,-0.28125 -1.75,-0.34375 -0.574219,-0.0625 -0.945313,-0.09375 -1.109375,-0.09375 -0.042969,-0.08203 -0.085938,-0.382812 -0.125,-0.90625 -0.042969,-0.519531 0,-0.800781 0.125,-0.84375 1.988281,-0.207031 3.9375,-0.601562 5.84375,-1.1875 1.914062,-0.582031 3.476562,-1.1875 4.6875,-1.8125 0.207031,0.04297 0.40625,0.199219 0.59375,0.46875 0.1875,0.273438 0.28125,0.46875 0.28125,0.59375 -0.04297,0.167969 -0.105469,0.636719 -0.1875,1.40625 -0.08594,0.773438 -0.15625,1.5625 -0.21875,2.375 -0.0625,0.804688 -0.09375,1.328125 -0.09375,1.578125 0,0.125 0.03906,0.199219 0.125,0.21875 0.08203,0.02344 0.144531,0.01172 0.1875,-0.03125 0.457031,-0.90625 1.054688,-1.859375 1.796875,-2.859375 0.75,-1 1.613281,-1.851562 2.59375,-2.5625 0.976563,-0.707031 2.03125,-1.0625 3.15625,-1.0625 z m 0,0"
             id="path244" />
        </g>
      </g>
    </g>
    <g
       fill="#737373"
       fill-opacity="1"
       id="g258">
      <g
         transform="translate(730.95404,486.07644)"
         id="g256">
        <g
           id="g254">
          <path
             d="m 12.84375,-19.765625 v 11.65625 c 0,1.042969 0.01953,2.03125 0.0625,2.96875 0.03906,0.9375 0.144531,1.695313 0.3125,2.265625 0.08203,0.25 0.382812,0.449219 0.90625,0.59375 0.519531,0.148438 1.054688,0.261719 1.609375,0.34375 0.5625,0.085938 0.96875,0.125 1.21875,0.125 0.125,0.167969 0.1875,0.5 0.1875,1 0,0.5 -0.0625,0.8515625 -0.1875,1.0625 C 15.710938,0.164062 14.476562,0.0820312 13.25,0 12.019531,-0.0820312 10.785156,-0.125 9.546875,-0.125 8.253906,-0.125 6.984375,-0.0820312 5.734375,0 4.484375,0.0820312 3.238281,0.164062 2,0.25 1.875,0.0390625 1.8125,-0.3125 1.8125,-0.8125 c 0,-0.5 0.0625,-0.832031 0.1875,-1 0.25,0 0.671875,-0.039062 1.265625,-0.125 0.601563,-0.082031 1.175781,-0.195312 1.71875,-0.34375 0.539063,-0.144531 0.851563,-0.34375 0.9375,-0.59375 0.207031,-0.570312 0.332031,-1.304688 0.375,-2.203125 0.039063,-0.894531 0.0625,-1.90625 0.0625,-3.03125 v -9.46875 c 0,-0.25 -0.011719,-0.65625 -0.03125,-1.21875 -0.023437,-0.5625 -0.054687,-1.125 -0.09375,-1.6875 -0.042969,-0.5625 -0.148437,-0.988281 -0.3125,-1.28125 -0.167969,-0.332031 -0.542969,-0.578125 -1.125,-0.734375 -0.585937,-0.164062 -1.167969,-0.28125 -1.75,-0.34375 -0.574219,-0.0625 -0.945313,-0.09375 -1.109375,-0.09375 -0.042969,-0.08203 -0.085938,-0.382812 -0.125,-0.90625 -0.042969,-0.519531 0,-0.800781 0.125,-0.84375 1.988281,-0.207031 3.9375,-0.601562 5.84375,-1.1875 1.914062,-0.582031 3.476562,-1.1875 4.6875,-1.8125 0.207031,0.04297 0.40625,0.199219 0.59375,0.46875 0.1875,0.273438 0.28125,0.46875 0.28125,0.59375 -0.04297,0.167969 -0.105469,0.511719 -0.1875,1.03125 -0.08594,0.523438 -0.15625,1.0625 -0.21875,1.625 C 12.875,-23.40625 12.84375,-23 12.84375,-22.75 Z M 5.234375,-37.65625 c 0,-1.082031 0.375,-1.992188 1.125,-2.734375 0.75,-0.75 1.644531,-1.125 2.6875,-1.125 1.070313,0 1.984375,0.375 2.734375,1.125 0.75,0.742187 1.125,1.652344 1.125,2.734375 0,1.042969 -0.375,1.929688 -1.125,2.65625 -0.75,0.71875 -1.664062,1.078125 -2.734375,1.078125 -1.042969,0 -1.9375,-0.359375 -2.6875,-1.078125 -0.75,-0.726562 -1.125,-1.613281 -1.125,-2.65625 z m 0,0"
             id="path252" />
        </g>
      </g>
    </g>
    <g
       fill="#737373"
       fill-opacity="1"
       id="g266">
      <g
         transform="translate(750.56118,486.07644)"
         id="g264">
        <g
           id="g262">
          <path
             d="m 21.828125,-27.5625 c 2.320313,0 4.070313,0.511719 5.25,1.53125 1.1875,1.023438 1.988281,2.5625 2.40625,4.625 0.414063,2.054688 0.625,4.65625 0.625,7.8125 v 5.484375 c 0,1.125 0.01953,2.136719 0.0625,3.03125 0.03906,0.898437 0.144531,1.632813 0.3125,2.203125 0.08203,0.25 0.40625,0.449219 0.96875,0.59375 0.5625,0.148438 1.144531,0.261719 1.75,0.34375 0.601563,0.085938 1.03125,0.125 1.28125,0.125 0.125,0.167969 0.1875,0.5 0.1875,1 0,0.5 -0.0625,0.8515625 -0.1875,1.0625 -1.25,-0.085938 -2.523437,-0.1679688 -3.8125,-0.25 -1.292969,-0.0820312 -2.558594,-0.125 -3.796875,-0.125 -1.25,0 -2.460938,0.0429688 -3.625,0.125 -1.15625,0.0820312 -2.359375,0.164062 -3.609375,0.25 -0.125,-0.2109375 -0.1875,-0.5625 -0.1875,-1.0625 0,-0.5 0.0625,-0.832031 0.1875,-1 0.25,0 0.644531,-0.039062 1.1875,-0.125 0.539063,-0.082031 1.054687,-0.195312 1.546875,-0.34375 0.5,-0.144531 0.789062,-0.34375 0.875,-0.59375 0.207031,-0.570312 0.320312,-1.304688 0.34375,-2.203125 0.01953,-0.894531 0.03125,-1.90625 0.03125,-3.03125 v -5.609375 c 0,-3.070312 -0.335938,-5.414062 -1,-7.03125 -0.65625,-1.625 -2.027344,-2.4375 -4.109375,-2.4375 -0.792969,0 -1.625,0.230469 -2.5,0.6875 -0.867187,0.449219 -1.609375,0.945312 -2.234375,1.484375 -0.625,0.542969 -0.9375,0.960937 -0.9375,1.25 v 11.65625 c 0,1.042969 0.01953,2.03125 0.0625,2.96875 0.03906,0.9375 0.144531,1.695313 0.3125,2.265625 0.08203,0.25 0.382812,0.449219 0.90625,0.59375 0.519531,0.148438 1.054688,0.261719 1.609375,0.34375 0.5625,0.085938 0.96875,0.125 1.21875,0.125 0.125,0.167969 0.1875,0.5 0.1875,1 0,0.5 -0.0625,0.8515625 -0.1875,1.0625 C 15.710938,0.164062 14.476562,0.0820312 13.25,0 12.019531,-0.0820312 10.785156,-0.125 9.546875,-0.125 8.253906,-0.125 6.984375,-0.0820312 5.734375,0 4.484375,0.0820312 3.238281,0.164062 2,0.25 1.875,0.0390625 1.8125,-0.3125 1.8125,-0.8125 c 0,-0.5 0.0625,-0.832031 0.1875,-1 0.25,0 0.671875,-0.039062 1.265625,-0.125 0.601563,-0.082031 1.175781,-0.195312 1.71875,-0.34375 0.539063,-0.144531 0.851563,-0.34375 0.9375,-0.59375 0.207031,-0.570312 0.332031,-1.304688 0.375,-2.203125 0.039063,-0.894531 0.0625,-1.90625 0.0625,-3.03125 v -9.46875 c 0,-0.25 -0.011719,-0.65625 -0.03125,-1.21875 -0.023437,-0.5625 -0.054687,-1.125 -0.09375,-1.6875 -0.042969,-0.5625 -0.148437,-0.988281 -0.3125,-1.28125 -0.167969,-0.332031 -0.542969,-0.578125 -1.125,-0.734375 -0.585937,-0.164062 -1.167969,-0.28125 -1.75,-0.34375 -0.574219,-0.0625 -0.945313,-0.09375 -1.109375,-0.09375 -0.042969,-0.08203 -0.085938,-0.382812 -0.125,-0.90625 -0.042969,-0.519531 0,-0.800781 0.125,-0.84375 1.988281,-0.207031 3.9375,-0.601562 5.84375,-1.1875 1.914062,-0.582031 3.476562,-1.1875 4.6875,-1.8125 0.207031,0 0.40625,0.136719 0.59375,0.40625 0.1875,0.273438 0.28125,0.492188 0.28125,0.65625 -0.04297,0.167969 -0.105469,0.523438 -0.1875,1.0625 -0.08594,0.542969 -0.15625,1.074219 -0.21875,1.59375 -0.0625,0.523438 -0.09375,0.824219 -0.09375,0.90625 0,0.25 0.03906,0.375 0.125,0.375 0.03906,0 0.144531,-0.08203 0.3125,-0.25 0.5,-0.582031 1.234375,-1.226562 2.203125,-1.9375 0.976563,-0.707031 2.039063,-1.332031 3.1875,-1.875 1.144531,-0.539062 2.195313,-0.8125 3.15625,-0.8125 z m 0,0"
             id="path260" />
        </g>
      </g>
    </g>
    <g
       fill="#737373"
       fill-opacity="1"
       id="g274">
      <g
         transform="translate(787.06447,486.07644)"
         id="g272">
        <g
           id="g270">
          <path
             d="m 13.40625,-25.4375 c -1.125,0 -2.011719,0.34375 -2.65625,1.03125 -0.648438,0.6875 -1.105469,1.542969 -1.375,2.5625 -0.261719,1.011719 -0.390625,2.058594 -0.390625,3.140625 0,1.210937 0.179687,2.40625 0.546875,3.59375 0.375,1.179687 0.945312,2.164063 1.71875,2.953125 0.769531,0.792969 1.738281,1.1875 2.90625,1.1875 1.125,0 1.992188,-0.34375 2.609375,-1.03125 0.625,-0.6875 1.050781,-1.535156 1.28125,-2.546875 0.226563,-1.019531 0.34375,-2.050781 0.34375,-3.09375 0,-1.207031 -0.167969,-2.410156 -0.5,-3.609375 -0.335937,-1.207031 -0.867187,-2.207031 -1.59375,-3 -0.71875,-0.789062 -1.683594,-1.1875 -2.890625,-1.1875 z m 2.609375,26 c -0.574219,0 -1.308594,0.007812 -2.203125,0.03125 -0.898438,0.019531 -1.730469,0.039062 -2.5,0.0625 C 10.539062,0.675781 10.007812,0.707031 9.71875,0.75 9.269531,1.039062 8.753906,1.5 8.171875,2.125 c -0.585937,0.625 -0.875,1.304688 -0.875,2.046875 0,2.039063 0.722656,3.660156 2.171875,4.859375 1.457031,1.207031 3.394531,1.8125 5.8125,1.8125 1.695312,0 3.171875,-0.304688 4.421875,-0.90625 1.25,-0.59375 2.210937,-1.339844 2.890625,-2.234375 0.6875,-0.898437 1.03125,-1.804687 1.03125,-2.71875 0,-1.125 -0.648438,-2.148437 -1.9375,-3.0625 C 20.40625,1.015625 18.515625,0.5625 16.015625,0.5625 Z m 3.5,-5.609375 c 1.789063,0.042969 3.359375,0.429687 4.703125,1.15625 1.351562,0.71875 2.40625,1.578125 3.15625,2.578125 0.75,1 1.125,1.976562 1.125,2.9375 0,1.570312 -0.449219,3.097656 -1.34375,4.578125 C 26.257812,7.679688 25.039062,8.988281 23.5,10.125 c -1.53125,1.144531 -3.289062,2.050781 -5.265625,2.71875 -1.96875,0.664062 -4.039063,1 -6.203125,1 -1.867188,0 -3.601562,-0.292969 -5.203125,-0.875 C 5.222656,12.382812 3.921875,11.539062 2.921875,10.4375 1.929688,9.34375 1.4375,8.023438 1.4375,6.484375 c 0,-0.875 0.335938,-1.71875 1.015625,-2.53125 0.6875,-0.804687 1.5,-1.527344 2.4375,-2.171875 C 5.828125,1.132812 6.671875,0.625 7.421875,0.25 6.378906,-0.0820312 5.378906,-0.804688 4.421875,-1.921875 3.472656,-3.046875 3,-4.316406 3,-5.734375 c 0.15625,-0.414063 0.546875,-0.894531 1.171875,-1.4375 0.625,-0.539063 1.320313,-1.078125 2.09375,-1.609375 0.769531,-0.539062 1.445313,-0.976562 2.03125,-1.3125 -1.667969,-0.789062 -3,-1.914062 -4,-3.375 -0.992187,-1.457031 -1.484375,-3.015625 -1.484375,-4.671875 0,-1.707031 0.472656,-3.265625 1.421875,-4.671875 0.957031,-1.414062 2.253906,-2.5625 3.890625,-3.4375 1.644531,-0.875 3.488281,-1.3125 5.53125,-1.3125 1.375,0 2.578125,0.148438 3.609375,0.4375 1.039063,0.292969 1.914063,0.648438 2.625,1.0625 0.332031,0.167969 0.519531,0.261719 0.5625,0.28125 0.03906,0.02344 0.144531,0.05469 0.3125,0.09375 L 28,-26.5625 c 0.414062,0.167969 0.625,0.375 0.625,0.625 0,0.25 -0.167969,0.742188 -0.5,1.46875 -0.335938,0.730469 -0.667969,1.199219 -1,1.40625 -0.75,-0.08203 -1.460938,-0.144531 -2.125,-0.1875 -0.667969,-0.03906 -1.210938,-0.08203 -1.625,-0.125 -0.25,0 -0.375,0.0625 -0.375,0.1875 0.332031,0.417969 0.675781,1.0625 1.03125,1.9375 0.351562,0.867188 0.53125,1.882812 0.53125,3.046875 0,1.574219 -0.480469,3.078125 -1.4375,4.515625 -0.949219,1.4375 -2.246094,2.605469 -3.890625,3.5 -1.648437,0.886719 -3.507813,1.328125 -5.578125,1.328125 -0.542969,0 -1.136719,-0.050781 -1.78125,-0.15625 -0.648438,-0.101563 -1.179688,-0.21875 -1.59375,-0.34375 -0.417969,0.292969 -0.835938,0.65625 -1.25,1.09375 -0.40625,0.4375 -0.609375,0.867187 -0.609375,1.28125 0,0.375 0.304687,0.78125 0.921875,1.21875 0.625,0.4375 1.4375,0.65625 2.4375,0.65625 1.625,0 3.003906,0 4.140625,0 1.144531,0 2.34375,0.023437 3.59375,0.0625 z m 0,0"
             id="path268" />
        </g>
      </g>
    </g>
  </g>
</svg>
