<svg xmlns="http://www.w3.org/2000/svg" width="1280" height="220" overflow="hidden"><path fill="#fff" d="M0 0h1280v251.421H0z" style="stroke-width:.590928"/><path fill="none" stroke="#042433" stroke-miterlimit="8" stroke-width="3" d="M66.5 130.5c0-24.853 20.147-45 45-45s45 20.147 45 45-20.147 45-45 45-45-20.147-45-45z"/><text x="82.502" y="148" font-family="'Cambria Math', 'Cambria Math_MSFontService', sans-serif" font-size="48" font-weight="400">𝑥</text><text x="106.422" y="158" font-family="'Cambria Math', 'Cambria Math_MSFontService', sans-serif" font-size="35" font-weight="400">1</text><path fill="none" stroke="#042433" stroke-miterlimit="8" stroke-width="3" d="M220.5 130.5c0-24.853 20.147-45 45-45s45 20.147 45 45-20.147 45-45 45-45-20.147-45-45z"/><text x="236.172" y="148" font-family="'Cambria Math', 'Cambria Math_MSFontService', sans-serif" font-size="48" font-weight="400">𝑥</text><text x="261.205" y="158" font-family="'Cambria Math', 'Cambria Math_MSFontService', sans-serif" font-size="35" font-weight="400">2</text><path fill="none" stroke="#042433" stroke-miterlimit="8" stroke-width="3" d="M374.5 130.5c0-24.853 20.147-45 45-45s45 20.147 45 45-20.147 45-45 45-45-20.147-45-45z"/><text x="390.398" y="148" font-family="'Cambria Math', 'Cambria Math_MSFontService', sans-serif" font-size="48" font-weight="400">𝑥</text><text x="415.431" y="158" font-family="'Cambria Math', 'Cambria Math_MSFontService', sans-serif" font-size="35" font-weight="400">3</text><path fill="none" stroke="#042433" stroke-miterlimit="8" stroke-width="3" d="M1145.5 130.5c0-24.853 20.15-45 45-45s45 20.147 45 45-20.15 45-45 45-45-20.147-45-45z"/><text x="1159.56" y="148" font-family="'Cambria Math', 'Cambria Math_MSFontService', sans-serif" font-size="48" font-weight="400">𝑥</text><text x="1186.3" y="158" font-family="'Cambria Math', 'Cambria Math_MSFontService', sans-serif" font-size="35" font-weight="400">𝑇</text><path d="M156 128h54.275v4H156Zm52.275-4 12 6-12 6zM310 128h54.275v4H310Zm52.275-4 12 6-12 6z"/><text x="1018.15" y="148" font-family="'Cambria Math', 'Cambria Math_MSFontService', sans-serif" font-size="48" font-style="oblique" font-weight="400">…</text><path d="M1081 128h54.28v4H1081Zm52.28-4 12 6-12 6z"/><path fill="none" stroke="#000" stroke-miterlimit="8" stroke-width="4" d="M927 130h64.275"/><path fill="none" stroke="#042433" stroke-miterlimit="8" stroke-width="3" d="M529.5 130.5c0-24.853 20.147-45 45-45s45 20.147 45 45-20.147 45-45 45-45-20.147-45-45z"/><text x="544.624" y="148" font-family="'Cambria Math', 'Cambria Math_MSFontService', sans-serif" font-size="48" font-weight="400">𝑥</text><text x="569.657" y="158" font-family="'Cambria Math', 'Cambria Math_MSFontService', sans-serif" font-size="35" font-weight="400">4</text><path fill="none" stroke="#042433" stroke-miterlimit="8" stroke-width="3" d="M683.5 130.5c0-24.853 20.147-45 45-45s45 20.147 45 45-20.147 45-45 45-45-20.147-45-45z"/><text x="698.85" y="148" font-family="'Cambria Math', 'Cambria Math_MSFontService', sans-serif" font-size="48" font-weight="400">𝑥</text><text x="723.883" y="158" font-family="'Cambria Math', 'Cambria Math_MSFontService', sans-serif" font-size="35" font-weight="400">5</text><path fill="none" stroke="#042433" stroke-miterlimit="8" stroke-width="3" d="M837.5 130.5c0-24.853 20.147-45 45-45s45 20.147 45 45-20.147 45-45 45-45-20.147-45-45z"/><text x="853.076" y="148" font-family="'Cambria Math', 'Cambria Math_MSFontService', sans-serif" font-size="48" font-weight="400">𝑥</text><text x="878.109" y="158" font-family="'Cambria Math', 'Cambria Math_MSFontService', sans-serif" font-size="35" font-weight="400">6</text><path d="M619 128h54.275v4H619Zm52.275-4 12 6-12 6zM773 128h54.275v4H773Zm52.275-4 12 6-12 6zM464 128h54.275v4H464Zm52.275-4 12 6-12 6z"/><path fill="none" stroke="#042433" stroke-miterlimit="8" stroke-width="3" d="M47.5 93.334C47.5 82.38 56.38 73.5 67.334 73.5h396.332c10.954 0 19.834 8.88 19.834 19.834v79.332c0 10.954-8.88 19.834-19.834 19.834H67.334c-10.954 0-19.834-8.88-19.834-19.834z"/><path fill="none" stroke="#042433" stroke-miterlimit="8" stroke-width="3.017" d="M504.861 93.34c0-10.953 8.983-19.831 20.062-19.831h400.889c11.08 0 20.062 8.878 20.062 19.83v79.321c0 10.953-8.982 19.832-20.062 19.832H524.923c-11.08 0-20.062-8.88-20.062-19.832z"/><text x="187.229" y="53" font-family="'Cambria Math', 'Cambria Math_MSFontService', sans-serif" font-size="32" font-weight="400">Aggregated</text><text x="650.12" y="53" font-family="'Cambria Math', 'Cambria Math_MSFontService', sans-serif" font-size="32" font-weight="400">Aggregated</text></svg>