<svg xmlns="http://www.w3.org/2000/svg" xmlns:svg="http://www.w3.org/2000/svg" width="191.069" height="188.846"><path d="M124.367 123.874H30.011a1.524 1.524 0 0 1-1.527-1.527V65.019c0-.846.681-1.527 1.527-1.527l11.979-.044m10.695-.22 99.908.265c.846 0 1.527.68 1.527 1.527v57.327c0 .846-.681 1.527-1.527 1.527h-17.84" style="fill:none;stroke:#000;stroke-width:3;stroke-linecap:round;stroke-miterlimit:4;stroke-opacity:1"/><path d="M124.588 123.391v15.734l-5.833 6.894" style="fill:none;stroke:#000;stroke-width:1px;stroke-linecap:butt;stroke-linejoin:miter;stroke-opacity:1"/><path d="M124.588 123.391v15.734l-5.833 6.894" style="fill:none;stroke:#000;stroke-width:1px;stroke-linecap:butt;stroke-linejoin:miter;stroke-opacity:1"/><g style="stroke:#000;stroke-opacity:1"><path d="m130.55 126.46.088 14.85-5.834 6.894m16-21.654v14.76l5.834 6.894" style="fill:none;stroke:#000;stroke-width:3;stroke-linecap:round;stroke-linejoin:round;stroke-miterlimit:4;stroke-opacity:1;stroke-dasharray:none" transform="translate(-6.05 -2.186)"/></g><g style="stroke:#000;stroke-opacity:1"><path d="m130.461 127.875.177 13.435-5.834 6.894m15.912-19.799.088 12.905 5.834 6.894" style="fill:none;stroke:#000;stroke-width:3;stroke-linecap:round;stroke-linejoin:round;stroke-miterlimit:4;stroke-opacity:1;stroke-dasharray:none" transform="matrix(1 0 0 -1 -88.05 191.308)"/></g><g style="fill:#000"><path d="m49.144 43.906 4.861 5.038 4.685-5.038zm4.773 0V36.57" style="fill:#000;stroke:#000;stroke-width:1px;stroke-linecap:butt;stroke-linejoin:miter;stroke-opacity:1" transform="translate(-6.05 -2.186)"/></g><g style="fill:#000"><path d="m49.144 43.906 4.861 5.038 4.685-5.038zm4.773 0V36.57" style="fill:#000;stroke:#000;stroke-width:1px;stroke-linecap:butt;stroke-linejoin:miter;stroke-opacity:1" transform="translate(75.95 103.814)"/></g><svg:switch style="font-size:40px;font-style:normal;font-weight:400;fill:#000;fill-opacity:1;stroke:none;font-family:Bitstream Vera Sans"><svg:text xml:space="preserve" x="16.224" y="29.17" style="font-size:40px;font-style:normal;font-weight:400;fill:#000;fill-opacity:1;stroke:none;font-family:Bitstream Vera Sans" systemLanguage="ca"><svg:tspan x="16.224" y="29.17" style="font-size:16px">ENTRADA x</svg:tspan></svg:text><svg:text xml:space="preserve" x="16.224" y="29.17" style="font-size:40px;font-style:normal;font-weight:400;fill:#000;fill-opacity:1;stroke:none;font-family:Bitstream Vera Sans" systemLanguage="lv"><svg:tspan x="16.224" y="29.17" style="font-size:16px">IEVADE x</svg:tspan></svg:text><svg:text xml:space="preserve" x="16.224" y="29.17" style="font-size:40px;font-style:normal;font-weight:400;fill:#000;fill-opacity:1;stroke:none;font-family:Bitstream Vera Sans"><svg:tspan x="16.224" y="29.17" style="font-size:16px">INPUT x</svg:tspan></svg:text></svg:switch><svg:switch style="font-size:40px;font-style:normal;font-weight:400;fill:#000;fill-opacity:1;stroke:none;font-family:Bitstream Vera Sans"><svg:text xml:space="preserve" x="44.155" y="99.527" style="font-size:40px;font-style:normal;font-weight:400;fill:#000;fill-opacity:1;stroke:none;font-family:Bitstream Vera Sans" systemLanguage="ca"><svg:tspan x="44.155" y="99.527" style="font-size:16px">FUNCIÓ f:</svg:tspan></svg:text><svg:text xml:space="preserve" x="44.155" y="99.527" style="font-size:40px;font-style:normal;font-weight:400;fill:#000;fill-opacity:1;stroke:none;font-family:Bitstream Vera Sans" systemLanguage="lv"><svg:tspan x="44.155" y="99.527" style="font-size:16px">FUNKCIJA f:</svg:tspan></svg:text><svg:text xml:space="preserve" x="44.155" y="99.527" style="font-size:40px;font-style:normal;font-weight:400;fill:#000;fill-opacity:1;stroke:none;font-family:Bitstream Vera Sans"><svg:tspan x="44.155" y="99.527" style="font-size:16px">FUNCTION f:</svg:tspan></svg:text></svg:switch><svg:switch style="font-size:40px;font-style:normal;font-weight:400;fill:#000;fill-opacity:1;stroke:none;font-family:Bitstream Vera Sans"><svg:text xml:space="preserve" x="80.571" y="167.762" style="font-size:40px;font-style:normal;font-weight:400;fill:#000;fill-opacity:1;stroke:none;font-family:Bitstream Vera Sans" systemLanguage="ca"><svg:tspan x="80.571" y="167.762" style="font-size:16px">SORTIDA f(x)</svg:tspan></svg:text><svg:text xml:space="preserve" x="80.571" y="167.762" style="font-size:40px;font-style:normal;font-weight:400;fill:#000;fill-opacity:1;stroke:none;font-family:Bitstream Vera Sans" systemLanguage="lv"><svg:tspan x="80.571" y="167.762" style="font-size:16px">IZVADE f(x)</svg:tspan></svg:text><svg:text xml:space="preserve" x="80.571" y="167.762" style="font-size:40px;font-style:normal;font-weight:400;fill:#000;fill-opacity:1;stroke:none;font-family:Bitstream Vera Sans"><svg:tspan x="80.571" y="167.762" style="font-size:16px">OUTPUT f(x)</svg:tspan></svg:text></svg:switch></svg>