<svg xmlns="http://www.w3.org/2000/svg" width="1280" height="300" overflow="hidden"><path fill="none" stroke="#042433" stroke-miterlimit="8" stroke-width="3" d="M257.88 64.828c0-28.995 23.505-52.5 52.5-52.5s52.5 23.505 52.5 52.5-23.505 52.5-52.5 52.5-52.5-23.505-52.5-52.5z"/><text x="295.027" y="199" font-family="'Cambria Math', 'Cambria Math_MSFontService', sans-serif" font-size="48" font-weight="400" transform="translate(-13.62 -116.172)">𝑥</text><text x="318.947" y="209" font-family="'Cambria Math', 'Cambria Math_MSFontService', sans-serif" font-size="35" font-weight="400" transform="translate(-13.62 -116.172)">1</text><path fill="none" stroke="#042433" stroke-miterlimit="8" stroke-width="3" d="M477.88 64.828c0-28.995 23.505-52.5 52.5-52.5s52.5 23.505 52.5 52.5-23.505 52.5-52.5 52.5-52.5-23.505-52.5-52.5z"/><text x="514.47" y="199" font-family="'Cambria Math', 'Cambria Math_MSFontService', sans-serif" font-size="48" font-weight="400" transform="translate(-13.62 -116.172)">𝑥</text><text x="539.503" y="209" font-family="'Cambria Math', 'Cambria Math_MSFontService', sans-serif" font-size="35" font-weight="400" transform="translate(-13.62 -116.172)">2</text><path fill="none" stroke="#042433" stroke-miterlimit="8" stroke-width="3" d="M697.88 64.828c0-28.995 23.505-52.5 52.5-52.5s52.5 23.505 52.5 52.5-23.505 52.5-52.5 52.5-52.5-23.505-52.5-52.5z"/><text x="734.47" y="199" font-family="'Cambria Math', 'Cambria Math_MSFontService', sans-serif" font-size="48" font-weight="400" transform="translate(-13.62 -116.172)">𝑥</text><text x="759.503" y="209" font-family="'Cambria Math', 'Cambria Math_MSFontService', sans-serif" font-size="35" font-weight="400" transform="translate(-13.62 -116.172)">3</text><path fill="none" stroke="#042433" stroke-miterlimit="8" stroke-width="3" d="M1137.88 64.828c0-28.995 23.51-52.5 52.5-52.5s52.5 23.505 52.5 52.5-23.51 52.5-52.5 52.5-52.5-23.505-52.5-52.5z"/><text x="1172.5" y="199" font-family="'Cambria Math', 'Cambria Math_MSFontService', sans-serif" font-size="48" font-weight="400" transform="translate(-13.62 -116.172)">𝑥</text><text x="1199.24" y="209" font-family="'Cambria Math', 'Cambria Math_MSFontService', sans-serif" font-size="35" font-weight="400" transform="translate(-13.62 -116.172)">𝑇</text><path d="M362.38 62.828h105.6v4h-105.6Zm103.6-4 12 6-12 6zm116.4 4h105.6v4h-105.6Zm103.6-4 12 6-12 6z"/><text x="965.317" y="199" font-family="'Cambria Math', 'Cambria Math_MSFontService', sans-serif" font-size="48" font-style="oblique" font-weight="400" transform="translate(-13.62 -116.172)">…</text><path d="M1022.38 62.828h105.6v4h-105.6Zm103.6-4 12 6-12 6z"/><path fill="none" stroke="#000" stroke-miterlimit="8" stroke-width="4" d="M802.38 64.828h115.6"/><path fill="none" stroke="#042433" stroke-miterlimit="8" stroke-width="3" d="M257.88 238.328c0-28.719 23.505-52 52.5-52s52.5 23.281 52.5 52-23.505 52-52.5 52-52.5-23.28-52.5-52z"/><text x="294.853" y="372" font-family="'Cambria Math', 'Cambria Math_MSFontService', sans-serif" font-size="48" font-weight="400" transform="translate(-13.62 -116.172)">𝑦</text><text x="319.12" y="382" font-family="'Cambria Math', 'Cambria Math_MSFontService', sans-serif" font-size="35" font-weight="400" transform="translate(-13.62 -116.172)">1</text><path fill="none" stroke="#042433" stroke-miterlimit="8" stroke-width="3" d="M477.88 238.328c0-28.719 23.505-52 52.5-52s52.5 23.281 52.5 52-23.505 52-52.5 52-52.5-23.28-52.5-52z"/><text x="514.297" y="372" font-family="'Cambria Math', 'Cambria Math_MSFontService', sans-serif" font-size="48" font-weight="400" transform="translate(-13.62 -116.172)">𝑦</text><text x="539.677" y="382" font-family="'Cambria Math', 'Cambria Math_MSFontService', sans-serif" font-size="35" font-weight="400" transform="translate(-13.62 -116.172)">2</text><path fill="none" stroke="#042433" stroke-miterlimit="8" stroke-width="3" d="M697.88 238.328c0-28.719 23.505-52 52.5-52s52.5 23.281 52.5 52-23.505 52-52.5 52-52.5-23.28-52.5-52z"/><text x="734.297" y="372" font-family="'Cambria Math', 'Cambria Math_MSFontService', sans-serif" font-size="48" font-weight="400" transform="translate(-13.62 -116.172)">𝑦</text><text x="759.677" y="382" font-family="'Cambria Math', 'Cambria Math_MSFontService', sans-serif" font-size="35" font-weight="400" transform="translate(-13.62 -116.172)">3</text><path fill="none" stroke="#042433" stroke-miterlimit="8" stroke-width="3" d="M1137.88 238.328c0-28.719 23.51-52 52.5-52s52.5 23.281 52.5 52-23.51 52-52.5 52-52.5-23.28-52.5-52z"/><text x="1172.33" y="372" font-family="'Cambria Math', 'Cambria Math_MSFontService', sans-serif" font-size="48" font-weight="400" transform="translate(-13.62 -116.172)">𝑦</text><text x="1199.42" y="382" font-family="'Cambria Math', 'Cambria Math_MSFontService', sans-serif" font-size="35" font-weight="400" transform="translate(-13.62 -116.172)">𝑇</text><text x="965.317" y="372" font-family="'Cambria Math', 'Cambria Math_MSFontService', sans-serif" font-size="48" font-style="oblique" font-weight="400" transform="translate(-13.62 -116.172)">…</text><path d="M311.38 116.828v59h-4v-59zm4 57-6 12-6-12zm216-57v59h-4v-59zm4 57-6 12-6-12zm216-57v59h-4v-59zm4 57-6 12-6-12zm436-57v59h-4v-59zm4 57-6 12-6-12z"/><text x="47.412" y="173" font-family="'Cambria Math', 'Cambria Math_MSFontService', sans-serif" font-size="32" font-weight="400" transform="translate(-13.62 -116.172)">Markov chain</text><text x="47.412" y="212" font-family="'Cambria Math', 'Cambria Math_MSFontService', sans-serif" font-size="32" font-weight="400" transform="translate(-13.62 -116.172)">(</text><text x="60.745" y="212" font-family="'Cambria Math', 'Cambria Math_MSFontService', sans-serif" font-size="32" font-weight="400" transform="translate(-13.62 -116.172)">hidden state)</text><text x="47.412" y="366" font-family="'Cambria Math', 'Cambria Math_MSFontService', sans-serif" font-size="32" font-weight="400" transform="translate(-13.62 -116.172)">Observations</text><text x="411.364" y="158" font-family="'Cambria Math', 'Cambria Math_MSFontService', sans-serif" font-size="48" font-weight="400" transform="translate(-13.62 -116.172)">𝑓</text><text x="430.197" y="168" font-family="'Cambria Math', 'Cambria Math_MSFontService', sans-serif" font-size="35" font-weight="400" transform="translate(-13.62 -116.172)">𝜃</text><text x="259.651" y="271" font-family="'Cambria Math', 'Cambria Math_MSFontService', sans-serif" font-size="48" font-weight="400" transform="translate(-13.62 -116.172)">𝑔</text><text x="287.345" y="280" font-family="'Cambria Math', 'Cambria Math_MSFontService', sans-serif" font-size="35" font-weight="400" transform="translate(-13.62 -116.172)">𝜃</text></svg>