<svg xmlns="http://www.w3.org/2000/svg" xmlns:xlink="http://www.w3.org/1999/xlink" width="793.6" height="1122.56" viewBox="0 0 595.2 841.92"><g data-name="Artifact"><clipPath id="a"><path fill-rule="evenodd" d="M0 841.92h595.2V0H0z"/></clipPath><g clip-path="url(#a)"><path fill="#fff" fill-rule="evenodd" d="M0 841.92h595.2V0H0z"/></g></g><g data-name="Artifact"><path fill="#3b5fb5" fill-rule="evenodd" d="M70.875 183.09h453.5v-23.523h-453.5z"/><path fill="none" stroke="#3b5fb5" stroke-linejoin="round" stroke-width=".75" d="M70.5 183.09h454.25M70.5 286.63h454.25M70.875 159.19v153.4m453.505-153.4v153.4M70.5 159.56h454.25M70.5 312.21h454.25"/></g><g data-name="Span"><clipPath id="b"><path fill-rule="evenodd" d="M0 841.92h595.2V0H0z"/></clipPath><g clip-path="url(#b)"><symbol id="c"><path d="M0 .124a.12.12 0 0 0 .036.087.12.12 0 0 0 .088.037A.12.12 0 0 0 .21.21.12.12 0 0 0 .248.124.12.12 0 0 0 .21.036.12.12 0 0 0 .124 0a.12.12 0 0 0-.088.036A.12.12 0 0 0 0 .124"/></symbol><use xlink:href="#c" fill="#3b5fb5" transform="matrix(9.96 0 0 -9.96 272.55 172.823)"/></g></g><g data-name="Span"><clipPath id="d"><path fill-rule="evenodd" d="M0 841.92h595.2V0H0z"/></clipPath><g clip-path="url(#d)"><symbol id="e"><path d="M.158 0H0v.7h.158z"/></symbol><symbol id="f"><path d="M.483 0H.329v.278q0 .116-.083.116A.08.08 0 0 1 .18.364a.12.12 0 0 1-.026-.08V0H0v.5h.154V.42h.002q.055.092.16.092.167 0 .167-.206z"/></symbol><symbol id="g"><path d="M.347.018A.2.2 0 0 0 .244 0Q.081 0 .081.17v.228H0v.114h.081V.62l.154.044V.512h.112V.398H.235V.196q0-.078.062-.078.024 0 .05.014z"/></symbol><symbol id="h"><path d="M.326.36a.13.13 0 0 1-.065.016.1.1 0 0 1-.078-.037.16.16 0 0 1-.029-.1V0H0v.5h.154V.407h.002Q.193.509.288.51A.1.1 0 0 0 .326.503z"/></symbol><symbol id="i"><path d="M.268 0a.27.27 0 0 0-.197.07A.26.26 0 0 0 0 .26q0 .125.074.194a.28.28 0 0 0 .2.07.27.27 0 0 0 .196-.07A.25.25 0 0 0 .541.27.26.26 0 0 0 .468.072.27.27 0 0 0 .268 0m.004.406A.1.1 0 0 1 .187.37a.17.17 0 0 1-.03-.107q0-.144.116-.144.11 0 .11.148 0 .14-.111.14z"/></symbol><symbol id="j"><path d="M.519.012H.365v.07H.363A.17.17 0 0 0 .208 0a.19.19 0 0 0-.15.066A.28.28 0 0 0 0 .25a.3.3 0 0 0 .063.2q.063.074.165.074.097 0 .135-.069h.002v.297h.154zM.368.255v.038q0 .05-.029.081a.1.1 0 0 1-.073.032.1.1 0 0 1-.08-.04.2.2 0 0 1-.03-.11q0-.067.029-.102A.1.1 0 0 1 .262.118q.046 0 .076.038.03.037.03.1z"/></symbol><symbol id="k"><path d="M.483.012H.329v.076H.327A.17.17 0 0 0 .174 0Q0 0 0 .21v.302h.154V.224q0-.106.084-.106.041 0 .066.029t.025.08v.285h.154z"/></symbol><symbol id="l"><path d="M.409.03A.3.3 0 0 0 .258 0 .26.26 0 0 0 .07.07.24.24 0 0 0 0 .25q0 .128.076.2a.28.28 0 0 0 .205.074.26.26 0 0 0 .128-.023v-.13A.2.2 0 0 1 .3.405.14.14 0 0 1 .195.367.14.14 0 0 1 .157.26.14.14 0 0 1 .194.156.14.14 0 0 1 .296.118q.057 0 .113.036z"/></symbol><symbol id="m"><path d="M.089.58a.1.1 0 0 0-.064.022A.08.08 0 0 0 0 .66q0 .035.025.057a.1.1 0 0 0 .064.022.1.1 0 0 0 .064-.022A.07.07 0 0 0 .178.66.07.07 0 0 0 .153.603.1.1 0 0 0 .089.58M.165 0H.011v.5h.154z"/></symbol><use xlink:href="#e" fill="#fff" transform="matrix(9.96 0 0 -9.96 286.378 175.08)"/><use xlink:href="#f" fill="#fff" transform="matrix(9.96 0 0 -9.96 289.344 175.08)"/><use xlink:href="#g" fill="#fff" transform="matrix(9.96 0 0 -9.96 294.923 175.202)"/><use xlink:href="#h" fill="#fff" transform="matrix(9.96 0 0 -9.96 299.185 175.08)"/><use xlink:href="#i" fill="#fff" transform="matrix(9.96 0 0 -9.96 302.852 175.202)"/><use xlink:href="#j" fill="#fff" transform="matrix(9.96 0 0 -9.96 308.958 175.202)"/><use xlink:href="#k" fill="#fff" transform="matrix(9.96 0 0 -9.96 315.292 175.202)"/><use xlink:href="#l" fill="#fff" transform="matrix(9.96 0 0 -9.96 321.099 175.202)"/><use xlink:href="#g" fill="#fff" transform="matrix(9.96 0 0 -9.96 325.729 175.202)"/><use xlink:href="#m" fill="#fff" transform="matrix(9.96 0 0 -9.96 329.904 175.08)"/><use xlink:href="#i" fill="#fff" transform="matrix(9.96 0 0 -9.96 332.583 175.202)"/><use xlink:href="#f" fill="#fff" transform="matrix(9.96 0 0 -9.96 338.985 175.08)"/></g></g><g data-name="Span"><clipPath id="n"><path fill-rule="evenodd" d="M0 841.92h595.2V0H0z"/></clipPath><g clip-path="url(#n)"><symbol id="o"><path d="M.003.04v.155A.3.3 0 0 1 .196.124a.2.2 0 0 1 .052.005.1.1 0 0 1 .037.015Q.3.154.307.167a.06.06 0 0 1-.004.065.1.1 0 0 1-.032.03.3.3 0 0 1-.048.026l-.06.025A.3.3 0 0 0 .04.397a.18.18 0 0 0-.04.12Q0 .57.022.61a.2.2 0 0 0 .06.065q.037.026.087.037a.6.6 0 0 0 .202.005.4.4 0 0 0 .079-.02V.551a.3.3 0 0 1-.125.046L.284.6a.2.2 0 0 1-.05-.005A.1.1 0 0 1 .199.58.1.1 0 0 1 .174.558a.06.06 0 0 1 .001-.06A.1.1 0 0 1 .202.47L.243.447.298.422.374.385A.3.3 0 0 0 .43.34.2.2 0 0 0 .468.283.2.2 0 0 0 .48.21.18.18 0 0 0 .397.046.3.3 0 0 0 .31.01a.6.6 0 0 0-.217 0 .3.3 0 0 0-.09.03"/></symbol><symbol id="p"><path d="M.156.288H.154V0H0v.73h.154V.655h.002a.18.18 0 0 0 .16.087.18.18 0 0 0 .15-.067.28.28 0 0 0 .054-.18.3.3 0 0 0-.062-.203.2.2 0 0 0-.164-.074.16.16 0 0 0-.138.07M.152.493v-.04q0-.051.027-.083A.09.09 0 0 1 .251.336q.052 0 .082.04.03.042.029.116 0 .132-.103.132A.1.1 0 0 1 .182.588a.14.14 0 0 1-.03-.095"/></symbol><symbol id="q"><path d="M.479.218H.153Q.16.11.29.11q.082 0 .145.04V.036A.4.4 0 0 0 .255 0a.25.25 0 0 0-.188.067A.26.26 0 0 0 0 .254q0 .125.072.198A.24.24 0 0 0 .25.524Q.36.524.419.46a.25.25 0 0 0 .06-.176zM.336.313q0 .108-.087.107A.08.08 0 0 1 .185.39.14.14 0 0 1 .152.313z"/></symbol><symbol id="r"><path d="M.37.622a.2.2 0 0 1-.058.012q-.075 0-.074-.08V.5h.114V.386H.238V0H.084v.386H0V.5h.084v.062A.18.18 0 0 0 .14.7a.2.2 0 0 0 .15.052.3.3 0 0 0 .078-.01v-.12z"/></symbol><symbol id="s"><path d="M.154 0H0v.74h.154z"/></symbol><symbol id="t"><path d="M.543.735.34.195Q.265 0 .12 0a.3.3 0 0 0-.093.013v.123A.13.13 0 0 1 .094.118q.06 0 .083.056l.026.062L0 .735h.17L.265.43A.4.4 0 0 0 .278.364H.28Q.284.392.296.43L.39.735z"/></symbol><symbol id="u"><path d="M.519 0H.365v.299H.363A.17.17 0 0 0 .209.218a.2.2 0 0 0-.152.065A.27.27 0 0 0 0 .468a.3.3 0 0 0 .063.2q.063.075.164.074.091 0 .136-.07h.002V.73h.154zM.368.469v.04q0 .049-.029.082a.1.1 0 0 1-.072.033.1.1 0 0 1-.081-.04.2.2 0 0 1-.03-.112q0-.063.03-.1A.1.1 0 0 1 .26.336q.048 0 .078.037.03.036.03.096"/></symbol><symbol id="w"><path d="M0 .025V.15A.3.3 0 0 1 .076.116.3.3 0 0 1 .147.105q.042 0 .065.011.024.012.024.034 0 .015-.01.025a.1.1 0 0 1-.029.017L.161.205a.5.5 0 0 0-.092.037.2.2 0 0 0-.038.03.1.1 0 0 0-.023.04A.2.2 0 0 0 0 .365q0 .042.018.073a.15.15 0 0 0 .049.049.2.2 0 0 0 .07.028.4.4 0 0 0 .15.004L.354.504V.385A.26.26 0 0 1 .226.42.14.14 0 0 1 .172.41.04.04 0 0 1 .157.396.034.034 0 0 1 .16.354.1.1 0 0 1 .183.337l.03-.013A1 1 0 0 0 .305.29.2.2 0 0 0 .347.26.1.1 0 0 0 .374.22a.14.14 0 0 0 .01-.055.14.14 0 0 0-.071-.127.2.2 0 0 0-.074-.029.45.45 0 0 0-.24.016z"/></symbol><symbol id="x"><path d="M.089.357A.1.1 0 0 0 .025.38.08.08 0 0 0 0 .438q0 .035.026.058.027.022.065.022A.1.1 0 0 0 .156.495.07.07 0 0 0 .18.438.07.07 0 0 0 .155.38.1.1 0 0 0 .09.357M.09 0a.1.1 0 0 0-.064.023A.08.08 0 0 0 0 .081Q0 .116.026.14A.1.1 0 0 0 .09.16.1.1 0 0 0 .156.138.07.07 0 0 0 .18.081.08.08 0 0 0 .155.022.1.1 0 0 0 .09 0"/></symbol><use xlink:href="#o" fill="#3b5fb5" transform="matrix(9.96 0 0 -9.96 99.687 214.732)"/><use xlink:href="#p" fill="#3b5fb5" transform="matrix(9.96 0 0 -9.96 105.514 216.9)"/><use xlink:href="#q" fill="#3b5fb5" transform="matrix(9.96 0 0 -9.96 111.333 214.732)"/><use xlink:href="#l" fill="#3b5fb5" transform="matrix(9.96 0 0 -9.96 116.721 214.732)"/><use xlink:href="#m" fill="#3b5fb5" transform="matrix(9.96 0 0 -9.96 121.712 214.61)"/><use xlink:href="#r" fill="#3b5fb5" transform="matrix(9.96 0 0 -9.96 124.26 214.61)"/><use xlink:href="#m" fill="#3b5fb5" transform="matrix(9.96 0 0 -9.96 128.395 214.61)"/><use xlink:href="#l" fill="#3b5fb5" transform="matrix(9.96 0 0 -9.96 131.104 214.732)"/><use xlink:href="#p" fill="#3b5fb5" transform="matrix(9.96 0 0 -9.96 138.95 216.9)"/><use xlink:href="#i" fill="#3b5fb5" transform="matrix(9.96 0 0 -9.96 144.769 214.732)"/><use xlink:href="#s" fill="#3b5fb5" transform="matrix(9.96 0 0 -9.96 151.17 214.61)"/><use xlink:href="#m" fill="#3b5fb5" transform="matrix(9.96 0 0 -9.96 153.932 214.61)"/><use xlink:href="#l" fill="#3b5fb5" transform="matrix(9.96 0 0 -9.96 156.611 214.732)"/><use xlink:href="#t" fill="#3b5fb5" transform="matrix(9.96 0 0 -9.96 161.022 216.95)"/><use xlink:href="#u" fill="#3b5fb5" transform="matrix(9.96 0 0 -9.96 169.55 216.9)"/><use xlink:href="#k" fill="#3b5fb5" transform="matrix(9.96 0 0 -9.96 175.903 214.732)"/><use xlink:href="#q" fill="#3b5fb5" transform="matrix(9.96 0 0 -9.96 181.71 214.732)"/><use xlink:href="#w" fill="#3b5fb5" transform="matrix(9.96 0 0 -9.96 187.07 214.732)"/><use xlink:href="#g" fill="#3b5fb5" transform="matrix(9.96 0 0 -9.96 191.36 214.732)"/><use xlink:href="#m" fill="#3b5fb5" transform="matrix(9.96 0 0 -9.96 195.545 214.61)"/><use xlink:href="#i" fill="#3b5fb5" transform="matrix(9.96 0 0 -9.96 198.224 214.732)"/><use xlink:href="#f" fill="#3b5fb5" transform="matrix(9.96 0 0 -9.96 204.626 214.61)"/><use xlink:href="#x" fill="#3b5fb5" transform="matrix(9.96 0 0 -9.96 210.453 214.732)"/></g></g><g data-name="Span"><clipPath id="y"><path fill-rule="evenodd" d="M0 841.92h595.2V0H0z"/></clipPath><g clip-path="url(#y)"><use xlink:href="#c" fill="#3b5fb5" transform="matrix(9.96 0 0 -9.96 99.77 236.353)"/></g></g><g data-name="Span"><clipPath id="z"><path fill-rule="evenodd" d="M0 841.92h595.2V0H0z"/></clipPath><g clip-path="url(#z)"><symbol id="A"><path d="M0 .04v.097A.2.2 0 0 1 .04.11.4.4 0 0 1 .188.074q.075 0 .113.028a.1.1 0 0 1 .037.08.1.1 0 0 1-.012.05.1.1 0 0 1-.034.038.3.3 0 0 1-.053.033L.175.337.106.375a.3.3 0 0 0-.055.042.2.2 0 0 0-.037.051.2.2 0 0 0-.013.069q0 .048.021.083a.2.2 0 0 0 .055.058.3.3 0 0 0 .078.034.4.4 0 0 0 .09.012.35.35 0 0 0 .15-.025V.606a.27.27 0 0 1-.16.043.3.3 0 0 1-.053-.005.2.2 0 0 1-.048-.019A.1.1 0 0 1 .1.593a.1.1 0 0 1-.013-.05q0-.026.01-.045a.1.1 0 0 1 .03-.036A.3.3 0 0 1 .173.43L.239.397.31.358A.3.3 0 0 0 .37.313.2.2 0 0 0 .41.258a.15.15 0 0 0 .014-.07A.16.16 0 0 0 .35.042.2.2 0 0 0 .27.01.43.43 0 0 0 0 .04"/></symbol><symbol id="B"><path d="M.082.302H.08V0H0v.73h.08V.642h.002q.06.1.173.1a.18.18 0 0 0 .15-.068.28.28 0 0 0 .055-.18.3.3 0 0 0-.061-.2.2.2 0 0 0-.167-.076.17.17 0 0 0-.15.084M.08.504v-.07A.15.15 0 0 1 .12.33.14.14 0 0 1 .223.286q.071 0 .113.054a.25.25 0 0 1 .042.155q0 .084-.039.131a.13.13 0 0 1-.104.047.14.14 0 0 1-.112-.049.18.18 0 0 1-.043-.12"/></symbol><symbol id="C"><path d="M.436.242H.083a.2.2 0 0 1 .045-.13.16.16 0 0 1 .118-.045q.084 0 .155.056V.048A.3.3 0 0 0 .227 0a.21.21 0 0 0-.166.068A.28.28 0 0 0 0 .26q0 .116.066.19A.21.21 0 0 0 .23.523.19.19 0 0 0 .382.46.27.27 0 0 0 .436.284zM.354.31A.16.16 0 0 1 .32.417a.11.11 0 0 1-.091.04.13.13 0 0 1-.096-.041A.2.2 0 0 1 .084.31z"/></symbol><symbol id="D"><path d="M.375.035A.26.26 0 0 0 .238 0a.23.23 0 0 0-.173.07A.25.25 0 0 0 0 .25q0 .123.07.198a.25.25 0 0 0 .19.075A.3.3 0 0 0 .376.5V.417a.2.2 0 0 1-.12.04A.16.16 0 0 1 .132.4a.2.2 0 0 1-.05-.143.2.2 0 0 1 .046-.139.16.16 0 0 1 .124-.05.2.2 0 0 1 .123.043z"/></symbol><symbol id="E"><path d="M.052.627A.05.05 0 0 0 0 .679a.05.05 0 0 0 .015.037.05.05 0 0 0 .037.015.05.05 0 0 0 .037-.015.05.05 0 0 0 .015-.037A.05.05 0 0 0 .09.642.05.05 0 0 0 .052.627M.09 0H.01v.5h.08z"/></symbol><symbol id="F"><path d="M.302.67A.1.1 0 0 1 .25.683Q.165.683.165.577V.5h.117V.432H.165V0h-.08v.432H0V.5h.085v.081q0 .079.046.124C.177.75.199.751.244.751A.2.2 0 0 0 .302.742z"/></symbol><symbol id="G"><path d="M.415 0h-.08v.285q0 .16-.116.16a.13.13 0 0 1-.1-.046A.17.17 0 0 1 .08.285V0H0v.5h.08V.417h.002a.18.18 0 0 0 .164.095q.083 0 .126-.054A.24.24 0 0 0 .415.306z"/></symbol><symbol id="H"><path d="M.292.016A.15.15 0 0 0 .217 0q-.13 0-.131.146v.296H0v.069h.086v.122l.08.026V.51h.126V.442H.166V.161q0-.051.017-.072Q.2.067.24.067q.03 0 .052.017z"/></symbol><symbol id="I"><path d="M.26.419A.1.1 0 0 1 .2.435.1.1 0 0 1 .114.387.23.23 0 0 1 .08.255V0H0v.5h.08V.397h.002a.2.2 0 0 0 .052.082q.036.03.079.03A.1.1 0 0 0 .26.502z"/></symbol><symbol id="K"><path d="M.467.5.268 0H.19L0 .5h.088L.215.137a.3.3 0 0 0 .017-.07h.002A.3.3 0 0 0 .25.135L.383.5z"/></symbol><symbol id="L"><path d="M.243 0a.23.23 0 0 0-.177.07A.26.26 0 0 0 0 .256q0 .126.069.197.069.07.186.07A.22.22 0 0 0 .429.455.27.27 0 0 0 .492.264.27.27 0 0 0 .424.072.24.24 0 0 0 .244 0m.005.456A.15.15 0 0 1 .127.403.22.22 0 0 1 .082.26q0-.09.045-.14A.15.15 0 0 1 .25.067a.15.15 0 0 1 .12.05.22.22 0 0 1 .04.145.22.22 0 0 1-.042.143.14.14 0 0 1-.118.051z"/></symbol><use xlink:href="#A" fill="#3b5fb5" transform="matrix(9.96 0 0 -9.96 113.388 238.727)"/><use xlink:href="#B" fill="#3b5fb5" transform="matrix(9.96 0 0 -9.96 118.896 240.9)"/><use xlink:href="#C" fill="#3b5fb5" transform="matrix(9.96 0 0 -9.96 124.412 238.727)"/><use xlink:href="#D" fill="#3b5fb5" transform="matrix(9.96 0 0 -9.96 129.591 238.727)"/><use xlink:href="#E" fill="#3b5fb5" transform="matrix(9.96 0 0 -9.96 134.386 238.61)"/><use xlink:href="#F" fill="#3b5fb5" transform="matrix(9.96 0 0 -9.96 136.354 238.61)"/><use xlink:href="#E" fill="#3b5fb5" transform="matrix(9.96 0 0 -9.96 139.914 238.61)"/><use xlink:href="#D" fill="#3b5fb5" transform="matrix(9.96 0 0 -9.96 142.091 238.727)"/><use xlink:href="#E" fill="#3b5fb5" transform="matrix(9.96 0 0 -9.96 149.854 238.61)"/><use xlink:href="#G" fill="#3b5fb5" transform="matrix(9.96 0 0 -9.96 152.372 238.61)"/><use xlink:href="#H" fill="#3b5fb5" transform="matrix(9.96 0 0 -9.96 157.41 238.717)"/><use xlink:href="#C" fill="#3b5fb5" transform="matrix(9.96 0 0 -9.96 161.045 238.727)"/><use xlink:href="#I" fill="#3b5fb5" transform="matrix(9.96 0 0 -9.96 166.525 238.61)"/><use xlink:href="#K" fill="#3b5fb5" transform="matrix(9.96 0 0 -9.96 169.252 238.61)"/><use xlink:href="#C" fill="#3b5fb5" transform="matrix(9.96 0 0 -9.96 174.451 238.727)"/><use xlink:href="#G" fill="#3b5fb5" transform="matrix(9.96 0 0 -9.96 179.95 238.61)"/><use xlink:href="#H" fill="#3b5fb5" transform="matrix(9.96 0 0 -9.96 184.99 238.717)"/><use xlink:href="#E" fill="#3b5fb5" transform="matrix(9.96 0 0 -9.96 188.858 238.61)"/><use xlink:href="#L" fill="#3b5fb5" transform="matrix(9.96 0 0 -9.96 191.035 238.727)"/><use xlink:href="#G" fill="#3b5fb5" transform="matrix(9.96 0 0 -9.96 197.212 238.61)"/></g></g><g data-name="Span"><clipPath id="M"><path fill-rule="evenodd" d="M0 841.92h595.2V0H0z"/></clipPath><g clip-path="url(#M)"><use xlink:href="#c" fill="#3b5fb5" transform="matrix(9.96 0 0 -9.96 99.77 248.353)"/></g></g><g data-name="Span"><clipPath id="N"><path fill-rule="evenodd" d="M0 841.92h595.2V0H0z"/></clipPath><g clip-path="url(#N)"><symbol id="O"><path d="M.082.265V0H0v.7h.192A.25.25 0 0 0 .366.646.2.2 0 0 0 .428.49.21.21 0 0 0 .36.328.26.26 0 0 0 .174.265zm0 .361V.339h.086q.085 0 .13.038.044.04.044.11 0 .14-.164.139z"/></symbol><symbol id="P"><path d="M.415.012h-.08V.09H.333A.16.16 0 0 0 .179 0Q-.001 0 0 .213v.299h.08V.226Q.08.067.2.067q.06 0 .097.043a.17.17 0 0 1 .038.114v.288h.08z"/></symbol><symbol id="Q"><path d="M.08 0H0v.74h.08z"/></symbol><symbol id="R"><path d="M.395.012h-.08V.09H.313A.17.17 0 0 0 .159 0a.17.17 0 0 0-.117.04A.14.14 0 0 0 0 .145q0 .14.165.163l.15.02q0 .13-.103.129A.25.25 0 0 1 .049.395v.082a.3.3 0 0 0 .17.046q.176 0 .176-.186zm-.08.253L.195.248A.2.2 0 0 1 .11.22Q.082.2.082.15A.08.08 0 0 1 .108.09a.1.1 0 0 1 .07-.023q.06 0 .098.042a.15.15 0 0 1 .039.106z"/></symbol><symbol id="S"><path d="M.46.275Q.461 0 .198 0a.35.35 0 0 0-.162.035v.08a.33.33 0 0 1 .16-.047q.185 0 .185.197v.054H.379A.19.19 0 0 0 .207.224a.19.19 0 0 0-.15.066A.27.27 0 0 0 0 .47q0 .127.061.202.062.075.168.075a.16.16 0 0 0 .15-.081H.38v.07h.08zM.38.46v.074A.143.143 0 0 1 .24.68.14.14 0 0 1 .123.625a.24.24 0 0 1-.042-.15q0-.084.04-.134A.13.13 0 0 1 .23.29q.067 0 .11.048A.18.18 0 0 1 .38.46"/></symbol><symbol id="T"><path d="M.46.012H.38v.085A.19.19 0 0 0 .207 0a.19.19 0 0 0-.15.067A.28.28 0 0 0 0 .25a.3.3 0 0 0 .063.199q.062.074.166.074c.104 0 .119-.027.15-.08H.38v.309h.08zM.38.238v.074q0 .06-.04.102a.13.13 0 0 1-.102.042.14.14 0 0 1-.115-.054.24.24 0 0 1-.042-.148q0-.086.04-.137A.13.13 0 0 1 .23.067q.067 0 .109.049A.18.18 0 0 1 .38.238"/></symbol><symbol id="U"><path d="M.415 0h-.08v.288q0 .156-.116.156A.13.13 0 0 1 .12.4.17.17 0 0 1 .08.283V0H0v.74h.08V.417h.002a.18.18 0 0 0 .164.095q.17 0 .169-.204z"/></symbol><use xlink:href="#O" fill="#3b5fb5" transform="matrix(9.96 0 0 -9.96 113.714 250.61)"/><use xlink:href="#L" fill="#3b5fb5" transform="matrix(9.96 0 0 -9.96 118.785 250.727)"/><use xlink:href="#B" fill="#3b5fb5" transform="matrix(9.96 0 0 -9.96 124.992 252.9)"/><use xlink:href="#P" fill="#3b5fb5" transform="matrix(9.96 0 0 -9.96 130.741 250.727)"/><use xlink:href="#Q" fill="#3b5fb5" transform="matrix(9.96 0 0 -9.96 136.485 250.61)"/><use xlink:href="#R" fill="#3b5fb5" transform="matrix(9.96 0 0 -9.96 138.526 250.727)"/><use xlink:href="#H" fill="#3b5fb5" transform="matrix(9.96 0 0 -9.96 143.367 250.717)"/><use xlink:href="#E" fill="#3b5fb5" transform="matrix(9.96 0 0 -9.96 147.205 250.61)"/><use xlink:href="#L" fill="#3b5fb5" transform="matrix(9.96 0 0 -9.96 149.382 250.727)"/><use xlink:href="#G" fill="#3b5fb5" transform="matrix(9.96 0 0 -9.96 155.579 250.61)"/><use xlink:href="#H" fill="#3b5fb5" transform="matrix(9.96 0 0 -9.96 163.486 250.717)"/><use xlink:href="#R" fill="#3b5fb5" transform="matrix(9.96 0 0 -9.96 167.091 250.727)"/><use xlink:href="#I" fill="#3b5fb5" transform="matrix(9.96 0 0 -9.96 172.48 250.61)"/><use xlink:href="#S" fill="#3b5fb5" transform="matrix(9.96 0 0 -9.96 175.606 252.954)"/><use xlink:href="#C" fill="#3b5fb5" transform="matrix(9.96 0 0 -9.96 181.473 250.727)"/><use xlink:href="#H" fill="#3b5fb5" transform="matrix(9.96 0 0 -9.96 186.424 250.717)"/><use xlink:href="#C" fill="#3b5fb5" transform="matrix(9.96 0 0 -9.96 190.019 250.727)"/><use xlink:href="#T" fill="#3b5fb5" transform="matrix(9.96 0 0 -9.96 195.178 250.727)"/><use xlink:href="#F" fill="#3b5fb5" transform="matrix(9.96 0 0 -9.96 203.843 250.61)"/><use xlink:href="#L" fill="#3b5fb5" transform="matrix(9.96 0 0 -9.96 207.17 250.727)"/><use xlink:href="#I" fill="#3b5fb5" transform="matrix(9.96 0 0 -9.96 213.387 250.61)"/><use xlink:href="#H" fill="#3b5fb5" transform="matrix(9.96 0 0 -9.96 219.023 250.717)"/><use xlink:href="#U" fill="#3b5fb5" transform="matrix(9.96 0 0 -9.96 222.998 250.61)"/><use xlink:href="#C" fill="#3b5fb5" transform="matrix(9.96 0 0 -9.96 228.295 250.727)"/><use xlink:href="#E" fill="#3b5fb5" transform="matrix(9.96 0 0 -9.96 236.546 250.61)"/><use xlink:href="#G" fill="#3b5fb5" transform="matrix(9.96 0 0 -9.96 239.063 250.61)"/><use xlink:href="#H" fill="#3b5fb5" transform="matrix(9.96 0 0 -9.96 244.103 250.717)"/><use xlink:href="#C" fill="#3b5fb5" transform="matrix(9.96 0 0 -9.96 247.737 250.727)"/><use xlink:href="#I" fill="#3b5fb5" transform="matrix(9.96 0 0 -9.96 253.217 250.61)"/><use xlink:href="#K" fill="#3b5fb5" transform="matrix(9.96 0 0 -9.96 255.943 250.61)"/><use xlink:href="#C" fill="#3b5fb5" transform="matrix(9.96 0 0 -9.96 261.143 250.727)"/><use xlink:href="#G" fill="#3b5fb5" transform="matrix(9.96 0 0 -9.96 266.643 250.61)"/><use xlink:href="#H" fill="#3b5fb5" transform="matrix(9.96 0 0 -9.96 271.682 250.717)"/><use xlink:href="#E" fill="#3b5fb5" transform="matrix(9.96 0 0 -9.96 275.55 250.61)"/><use xlink:href="#L" fill="#3b5fb5" transform="matrix(9.96 0 0 -9.96 277.726 250.727)"/><use xlink:href="#G" fill="#3b5fb5" transform="matrix(9.96 0 0 -9.96 283.903 250.61)"/></g></g><g data-name="Span"><clipPath id="V"><path fill-rule="evenodd" d="M0 841.92h595.2V0H0z"/></clipPath><g clip-path="url(#V)"><use xlink:href="#c" fill="#3b5fb5" transform="matrix(9.96 0 0 -9.96 99.77 260.353)"/></g></g><g data-name="Span"><clipPath id="W"><path fill-rule="evenodd" d="M0 841.92h595.2V0H0z"/></clipPath><g clip-path="url(#W)"><symbol id="X"><path d="M.57.06A.5.5 0 0 0 .334 0q-.15 0-.243.097A.36.36 0 0 0 0 .353q0 .161.103.266a.35.35 0 0 0 .26.105Q.478.723.555.687V.596a.37.37 0 0 1-.201.053.25.25 0 0 1-.193-.08.3.3 0 0 1-.075-.21q0-.134.07-.21a.25.25 0 0 1 .19-.075q.081 0 .141.032v.197H.334v.074h.235V.06z"/></symbol><symbol id="Y"><path d="M0 .03v.086A.24.24 0 0 1 .144.067q.106 0 .106.07a.06.06 0 0 1-.01.034.1.1 0 0 1-.024.025.2.2 0 0 1-.036.02A1 1 0 0 0 .077.26a.2.2 0 0 0-.042.03.1.1 0 0 0-.026.039.14.14 0 0 0 .008.112.14.14 0 0 0 .043.045.2.2 0 0 0 .061.028A.3.3 0 0 0 .31.501V.42a.23.23 0 0 1-.17.03.1.1 0 0 1-.03-.012.1.1 0 0 1-.02-.024.1.1 0 0 1-.007-.028A.1.1 0 0 1 .09.353.1.1 0 0 1 .11.33.2.2 0 0 1 .145.31L.188.293l.06-.026a.2.2 0 0 0 .045-.03.1.1 0 0 0 .028-.04.1.1 0 0 0 .01-.051A.12.12 0 0 0 .316.08.14.14 0 0 0 .27.036.2.2 0 0 0 .208.009.3.3 0 0 0 .134 0 .3.3 0 0 0 0 .03"/></symbol><symbol id="Z"><path d="M.082.084H.08V.012H0v.74h.08V.424h.002q.06.1.173.1a.18.18 0 0 0 .15-.068.28.28 0 0 0 .055-.18.3.3 0 0 0-.061-.2A.2.2 0 0 0 .232 0a.16.16 0 0 0-.15.084M.08.286v-.07A.15.15 0 0 1 .12.11.14.14 0 0 1 .223.067q.072 0 .113.056a.25.25 0 0 1 .042.155q0 .084-.039.13a.13.13 0 0 1-.104.048.14.14 0 0 1-.112-.049A.18.18 0 0 1 .08.286"/></symbol><symbol id="aa"><path d="m.472.735-.23-.58Q.182 0 .07 0a.2.2 0 0 0-.052.006v.072A.2.2 0 0 1 .064.07q.06 0 .091.073l.04.094-.195.5h.089L.224.35l.01-.038h.003l.01.037.142.385h.083z"/></symbol><use xlink:href="#X" fill="#3b5fb5" transform="matrix(9.96 0 0 -9.96 113.257 262.727)"/><use xlink:href="#L" fill="#3b5fb5" transform="matrix(9.96 0 0 -9.96 120.1 262.727)"/><use xlink:href="#R" fill="#3b5fb5" transform="matrix(9.96 0 0 -9.96 125.947 262.727)"/><use xlink:href="#Q" fill="#3b5fb5" transform="matrix(9.96 0 0 -9.96 131.386 262.61)"/><use xlink:href="#H" fill="#3b5fb5" transform="matrix(9.96 0 0 -9.96 136.027 262.717)"/><use xlink:href="#U" fill="#3b5fb5" transform="matrix(9.96 0 0 -9.96 140.001 262.61)"/><use xlink:href="#R" fill="#3b5fb5" transform="matrix(9.96 0 0 -9.96 145.269 262.727)"/><use xlink:href="#H" fill="#3b5fb5" transform="matrix(9.96 0 0 -9.96 150.07 262.717)"/><use xlink:href="#Y" fill="#3b5fb5" transform="matrix(9.96 0 0 -9.96 156.472 262.727)"/><use xlink:href="#U" fill="#3b5fb5" transform="matrix(9.96 0 0 -9.96 160.997 262.61)"/><use xlink:href="#L" fill="#3b5fb5" transform="matrix(9.96 0 0 -9.96 166.294 262.727)"/><use xlink:href="#P" fill="#3b5fb5" transform="matrix(9.96 0 0 -9.96 172.394 262.727)"/><use xlink:href="#Q" fill="#3b5fb5" transform="matrix(9.96 0 0 -9.96 178.138 262.61)"/><use xlink:href="#T" fill="#3b5fb5" transform="matrix(9.96 0 0 -9.96 180.208 262.727)"/><use xlink:href="#Z" fill="#3b5fb5" transform="matrix(9.96 0 0 -9.96 189.174 262.727)"/><use xlink:href="#C" fill="#3b5fb5" transform="matrix(9.96 0 0 -9.96 194.69 262.727)"/><use xlink:href="#I" fill="#3b5fb5" transform="matrix(9.96 0 0 -9.96 203.088 262.61)"/><use xlink:href="#C" fill="#3b5fb5" transform="matrix(9.96 0 0 -9.96 206.214 262.727)"/><use xlink:href="#R" fill="#3b5fb5" transform="matrix(9.96 0 0 -9.96 211.354 262.727)"/><use xlink:href="#D" fill="#3b5fb5" transform="matrix(9.96 0 0 -9.96 216.452 262.727)"/><use xlink:href="#U" fill="#3b5fb5" transform="matrix(9.96 0 0 -9.96 221.325 262.61)"/><use xlink:href="#C" fill="#3b5fb5" transform="matrix(9.96 0 0 -9.96 226.622 262.727)"/><use xlink:href="#T" fill="#3b5fb5" transform="matrix(9.96 0 0 -9.96 231.78 262.727)"/><use xlink:href="#Z" fill="#3b5fb5" transform="matrix(9.96 0 0 -9.96 241.115 262.727)"/><use xlink:href="#aa" fill="#3b5fb5" transform="matrix(9.96 0 0 -9.96 246.232 264.954)"/><use xlink:href="#H" fill="#3b5fb5" transform="matrix(9.96 0 0 -9.96 253.943 262.717)"/><use xlink:href="#U" fill="#3b5fb5" transform="matrix(9.96 0 0 -9.96 257.918 262.61)"/><use xlink:href="#C" fill="#3b5fb5" transform="matrix(9.96 0 0 -9.96 263.215 262.727)"/><use xlink:href="#E" fill="#3b5fb5" transform="matrix(9.96 0 0 -9.96 271.466 262.61)"/><use xlink:href="#G" fill="#3b5fb5" transform="matrix(9.96 0 0 -9.96 273.983 262.61)"/><use xlink:href="#H" fill="#3b5fb5" transform="matrix(9.96 0 0 -9.96 279.022 262.717)"/><use xlink:href="#I" fill="#3b5fb5" transform="matrix(9.96 0 0 -9.96 282.997 262.61)"/><use xlink:href="#L" fill="#3b5fb5" transform="matrix(9.96 0 0 -9.96 286.123 262.727)"/><use xlink:href="#T" fill="#3b5fb5" transform="matrix(9.96 0 0 -9.96 291.98 262.727)"/><use xlink:href="#P" fill="#3b5fb5" transform="matrix(9.96 0 0 -9.96 298.079 262.727)"/><use xlink:href="#D" fill="#3b5fb5" transform="matrix(9.96 0 0 -9.96 303.483 262.727)"/><use xlink:href="#H" fill="#3b5fb5" transform="matrix(9.96 0 0 -9.96 307.827 262.717)"/><use xlink:href="#E" fill="#3b5fb5" transform="matrix(9.96 0 0 -9.96 311.654 262.61)"/><use xlink:href="#L" fill="#3b5fb5" transform="matrix(9.96 0 0 -9.96 313.831 262.727)"/><use xlink:href="#G" fill="#3b5fb5" transform="matrix(9.96 0 0 -9.96 320.028 262.61)"/><use xlink:href="#L" fill="#3b5fb5" transform="matrix(9.96 0 0 -9.96 328.074 262.727)"/><use xlink:href="#F" fill="#3b5fb5" transform="matrix(9.96 0 0 -9.96 333.731 262.61)"/><use xlink:href="#H" fill="#3b5fb5" transform="matrix(9.96 0 0 -9.96 339.55 262.717)"/><use xlink:href="#U" fill="#3b5fb5" transform="matrix(9.96 0 0 -9.96 343.524 262.61)"/><use xlink:href="#C" fill="#3b5fb5" transform="matrix(9.96 0 0 -9.96 348.82 262.727)"/><use xlink:href="#E" fill="#3b5fb5" transform="matrix(9.96 0 0 -9.96 356.952 262.61)"/><use xlink:href="#G" fill="#3b5fb5" transform="matrix(9.96 0 0 -9.96 359.47 262.61)"/><use xlink:href="#H" fill="#3b5fb5" transform="matrix(9.96 0 0 -9.96 364.509 262.717)"/><use xlink:href="#C" fill="#3b5fb5" transform="matrix(9.96 0 0 -9.96 368.143 262.727)"/><use xlink:href="#I" fill="#3b5fb5" transform="matrix(9.96 0 0 -9.96 373.623 262.61)"/><use xlink:href="#K" fill="#3b5fb5" transform="matrix(9.96 0 0 -9.96 376.35 262.61)"/><use xlink:href="#C" fill="#3b5fb5" transform="matrix(9.96 0 0 -9.96 381.55 262.727)"/><use xlink:href="#G" fill="#3b5fb5" transform="matrix(9.96 0 0 -9.96 387.05 262.61)"/><use xlink:href="#H" fill="#3b5fb5" transform="matrix(9.96 0 0 -9.96 392.088 262.717)"/><use xlink:href="#E" fill="#3b5fb5" transform="matrix(9.96 0 0 -9.96 395.956 262.61)"/><use xlink:href="#L" fill="#3b5fb5" transform="matrix(9.96 0 0 -9.96 398.133 262.727)"/><use xlink:href="#G" fill="#3b5fb5" transform="matrix(9.96 0 0 -9.96 404.31 262.61)"/><use xlink:href="#E" fill="#3b5fb5" transform="matrix(9.96 0 0 -9.96 412.728 262.61)"/><use xlink:href="#G" fill="#3b5fb5" transform="matrix(9.96 0 0 -9.96 415.246 262.61)"/><use xlink:href="#H" fill="#3b5fb5" transform="matrix(9.96 0 0 -9.96 422.914 262.717)"/><use xlink:href="#U" fill="#3b5fb5" transform="matrix(9.96 0 0 -9.96 426.889 262.61)"/><use xlink:href="#C" fill="#3b5fb5" transform="matrix(9.96 0 0 -9.96 432.186 262.727)"/><use xlink:href="#H" fill="#3b5fb5" transform="matrix(9.96 0 0 -9.96 439.946 262.717)"/><use xlink:href="#R" fill="#3b5fb5" transform="matrix(9.96 0 0 -9.96 443.55 262.727)"/><use xlink:href="#I" fill="#3b5fb5" transform="matrix(9.96 0 0 -9.96 448.94 262.61)"/><use xlink:href="#S" fill="#3b5fb5" transform="matrix(9.96 0 0 -9.96 452.066 264.954)"/><use xlink:href="#C" fill="#3b5fb5" transform="matrix(9.96 0 0 -9.96 457.933 262.727)"/><use xlink:href="#H" fill="#3b5fb5" transform="matrix(9.96 0 0 -9.96 462.884 262.717)"/><use xlink:href="#S" fill="#3b5fb5" transform="matrix(9.96 0 0 -9.96 469.466 264.954)"/><use xlink:href="#I" fill="#3b5fb5" transform="matrix(9.96 0 0 -9.96 475.673 262.61)"/><use xlink:href="#L" fill="#3b5fb5" transform="matrix(9.96 0 0 -9.96 478.799 262.727)"/><use xlink:href="#P" fill="#3b5fb5" transform="matrix(9.96 0 0 -9.96 484.928 262.727)"/><use xlink:href="#B" fill="#3b5fb5" transform="matrix(9.96 0 0 -9.96 490.673 264.9)"/></g></g><g data-name="Span"><clipPath id="ab"><path fill-rule="evenodd" d="M0 841.92h595.2V0H0z"/></clipPath><g clip-path="url(#ab)"><symbol id="ac"><path d="M0 0v.7h.255a.3.3 0 0 0 .18-.043.14.14 0 0 0 .063-.12.14.14 0 0 0-.039-.1.2.2 0 0 0-.097-.06A.2.2 0 0 0 .48.321.15.15 0 0 0 .526.209.19.19 0 0 0 .457.056.3.3 0 0 0 .269 0zm.158.584V.418h.07q.048 0 .076.023a.08.08 0 0 1 .028.066q0 .077-.115.077zm0-.283V.116h.086A.13.13 0 0 1 .33.142q.03.026.03.069 0 .041-.03.066A.13.13 0 0 1 .244.3H.158z"/></symbol><symbol id="ad"><path d="M.453.012H.307v.072H.305A.16.16 0 0 0 .156 0a.16.16 0 0 0-.114.041.15.15 0 0 0-.042.11Q0 .296.172.32l.136.018Q.308.42.22.42A.3.3 0 0 1 .05.366v.116a.5.5 0 0 0 .19.042q.214 0 .214-.213V.012M.308.215V.25L.218.237Q.141.227.141.17A.06.06 0 0 1 .16.126.07.07 0 0 1 .21.109q.044 0 .07.03a.1.1 0 0 1 .028.076"/></symbol><symbol id="ae"><path d="M.501 0H.316l-.16.248H.154V0H0v.74h.154V.27h.002l.15.23h.182L.31.265z"/></symbol><symbol id="af"><path d="M.52.292A.28.28 0 0 0 .44.077.33.33 0 0 0 .205 0a.4.4 0 0 0-.16.029v.13A.3.3 0 0 1 .202.114q.078 0 .12.041a.15.15 0 0 1 .044.112v.04H.364A.17.17 0 0 0 .208.223.19.19 0 0 0 .056.29.27.27 0 0 0 0 .47q0 .128.063.202.062.075.164.075.09 0 .137-.07h.002v.058H.52zM.368.475v.04a.12.12 0 0 1-.029.08.09.09 0 0 1-.072.034.1.1 0 0 1-.081-.04.2.2 0 0 1-.03-.113.16.16 0 0 1 .029-.099A.09.09 0 0 1 .26.341q.048 0 .077.036.03.038.03.098z"/></symbol><use xlink:href="#ac" fill="#3b5fb5" transform="matrix(9.96 0 0 -9.96 100.038 303.19)"/><use xlink:href="#ad" fill="#3b5fb5" transform="matrix(9.96 0 0 -9.96 105.902 303.312)"/><use xlink:href="#l" fill="#3b5fb5" transform="matrix(9.96 0 0 -9.96 111.333 303.312)"/><use xlink:href="#ae" fill="#3b5fb5" transform="matrix(9.96 0 0 -9.96 116.44 303.19)"/><use xlink:href="#af" fill="#3b5fb5" transform="matrix(9.96 0 0 -9.96 121.662 305.53)"/><use xlink:href="#h" fill="#3b5fb5" transform="matrix(9.96 0 0 -9.96 128.074 303.19)"/><use xlink:href="#i" fill="#3b5fb5" transform="matrix(9.96 0 0 -9.96 131.741 303.312)"/><use xlink:href="#k" fill="#3b5fb5" transform="matrix(9.96 0 0 -9.96 138.065 303.312)"/><use xlink:href="#f" fill="#3b5fb5" transform="matrix(9.96 0 0 -9.96 144.169 303.19)"/><use xlink:href="#j" fill="#3b5fb5" transform="matrix(9.96 0 0 -9.96 149.848 303.312)"/><use xlink:href="#x" fill="#3b5fb5" transform="matrix(9.96 0 0 -9.96 156.061 303.312)"/></g></g><g data-name="Span"><clipPath id="ag"><path fill-rule="evenodd" d="M0 841.92h595.2V0H0z"/></clipPath><g clip-path="url(#ag)"><symbol id="ah"><path d="M.557.572h-.2V0H.199v.572H0V.7h.557z"/></symbol><symbol id="ai"><path d="M.156.07H.154V.012H0v.74h.154V.437h.002A.18.18 0 0 0 .32.524.18.18 0 0 0 .468.458.3.3 0 0 0 .52.276a.3.3 0 0 0-.061-.2A.2.2 0 0 0 .296 0a.16.16 0 0 0-.14.07M.152.281V.23A.12.12 0 0 1 .18.15.1.1 0 0 1 .25.118q.052 0 .082.04.03.042.029.116a.15.15 0 0 1-.027.097.09.09 0 0 1-.076.035.1.1 0 0 1-.077-.034.13.13 0 0 1-.03-.09z"/></symbol><symbol id="aj"><path d="M0 .035V.17A.27.27 0 0 1 .164.12q.06 0 .092.025.033.024.033.07a.08.08 0 0 1-.041.073.2.2 0 0 1-.112.025H.071V.43h.06q.137 0 .137.091 0 .085-.105.085A.24.24 0 0 1 .026.561v.126q.075.037.172.037A.26.26 0 0 0 .365.676.15.15 0 0 0 .425.55Q.426.415.286.378V.376A.2.2 0 0 0 .403.322a.15.15 0 0 0 .043-.11.19.19 0 0 0-.071-.155A.3.3 0 0 0 .176 0 .4.4 0 0 0 0 .035"/></symbol><symbol id="ak"><path d="M.089 0a.1.1 0 0 0-.064.023A.08.08 0 0 0 0 .081Q0 .116.026.14A.1.1 0 0 0 .09.16.1.1 0 0 0 .156.138.07.07 0 0 0 .18.081.08.08 0 0 0 .155.022.1.1 0 0 0 .09 0z"/></symbol><symbol id="al"><path d="M.42 0H0v.7h.404V.572H.158V.416h.229V.288h-.23v-.16H.42z"/></symbol><symbol id="am"><path d="M.587 0h-.18l-.11.18-.046.064a.1.1 0 0 1-.024.018L.2.268H.158V0H0v.7h.25Q.505.7.505.51A.19.19 0 0 0 .412.343.3.3 0 0 0 .348.315V.313a.1.1 0 0 0 .03-.016A.3.3 0 0 0 .432.24L.455.207zm-.43.582V.387h.07q.05 0 .08.03Q.34.446.34.49q0 .092-.11.092H.158z"/></symbol><symbol id="an"><path d="M.405.572H.158V.4h.227V.272H.158V0H0v.7h.405z"/></symbol><symbol id="ao"><path d="M.794 0H.64v.285q0 .11-.08.109A.07.07 0 0 1 .498.361.13.13 0 0 1 .474.28V0H.32v.288q0 .105-.08.106A.08.08 0 0 1 .178.363.14.14 0 0 1 .154.278V0H0v.5h.154V.422h.002a.2.2 0 0 0 .067.065q.044.025.095.025.105 0 .145-.093A.19.19 0 0 0 .63.512q.164 0 .164-.201z"/></symbol><symbol id="ap"><path d="M.781.5.637 0H.475L.401.293a.3.3 0 0 0-.008.064H.39A.4.4 0 0 0 .38.295L.301 0h-.16L0 .5h.157l.07-.326.005-.056h.003a.3.3 0 0 0 .01.058L.33.5h.147L.555.174.562.117h.003l.008.057L.638.5z"/></symbol><use xlink:href="#ah" fill="#3b5fb5" transform="matrix(14.04 0 0 -14.04 72.14 113.06)"/><use xlink:href="#ad" fill="#3b5fb5" transform="matrix(14.04 0 0 -14.04 79.395 113.231)"/><use xlink:href="#ai" fill="#3b5fb5" transform="matrix(14.04 0 0 -14.04 87.47 113.231)"/><use xlink:href="#s" fill="#3b5fb5" transform="matrix(14.04 0 0 -14.04 96.216 113.06)"/><use xlink:href="#q" fill="#3b5fb5" transform="matrix(14.04 0 0 -14.04 99.786 113.231)"/><use xlink:href="#aj" fill="#3b5fb5" transform="matrix(14.04 0 0 -14.04 111.354 113.231)"/><use xlink:href="#ak" fill="#3b5fb5" transform="matrix(14.04 0 0 -14.04 119.256 113.231)"/><use xlink:href="#al" fill="#3b5fb5" transform="matrix(14.04 0 0 -14.04 127.43 113.06)"/><use xlink:href="#g" fill="#3b5fb5" transform="matrix(14.04 0 0 -14.04 134 113.231)"/><use xlink:href="#am" fill="#3b5fb5" transform="matrix(14.04 0 0 -14.04 140.346 113.06)"/><use xlink:href="#an" fill="#3b5fb5" transform="matrix(14.04 0 0 -14.04 153.347 113.06)"/><use xlink:href="#h" fill="#3b5fb5" transform="matrix(14.04 0 0 -14.04 160.435 113.06)"/><use xlink:href="#ad" fill="#3b5fb5" transform="matrix(14.04 0 0 -14.04 165.502 113.231)"/><use xlink:href="#ao" fill="#3b5fb5" transform="matrix(14.04 0 0 -14.04 173.605 113.06)"/><use xlink:href="#q" fill="#3b5fb5" transform="matrix(14.04 0 0 -14.04 186.047 113.231)"/><use xlink:href="#ap" fill="#3b5fb5" transform="matrix(14.04 0 0 -14.04 193.203 113.06)"/><use xlink:href="#i" fill="#3b5fb5" transform="matrix(14.04 0 0 -14.04 204.622 113.231)"/><use xlink:href="#h" fill="#3b5fb5" transform="matrix(14.04 0 0 -14.04 213.661 113.06)"/><use xlink:href="#ae" fill="#3b5fb5" transform="matrix(14.04 0 0 -14.04 219.291 113.06)"/></g></g><g data-name="Span"><clipPath id="aq"><path fill-rule="evenodd" d="M0 841.92h595.2V0H0z"/></clipPath><g clip-path="url(#aq)"><symbol id="ar"><path d="M.5 0H0v.108h.5z"/></symbol><use xlink:href="#ar" fill="#3b5fb5" transform="matrix(14.04 0 0 -14.04 230.11 110.071)"/></g></g><g data-name="Span"><clipPath id="as"><path fill-rule="evenodd" d="M0 841.92h595.2V0H0z"/></clipPath><g clip-path="url(#as)"><symbol id="at"><path d="M.54.5.352 0H.177L0 .5h.165L.252.192A.5.5 0 0 0 .269.103h.002l.018.086L.378.5h.161z"/></symbol><use xlink:href="#o" fill="#3b5fb5" transform="matrix(14.04 0 0 -14.04 241.54 113.231)"/><use xlink:href="#k" fill="#3b5fb5" transform="matrix(14.04 0 0 -14.04 249.617 113.231)"/><use xlink:href="#ao" fill="#3b5fb5" transform="matrix(14.04 0 0 -14.04 258.22 113.06)"/><use xlink:href="#ao" fill="#3b5fb5" transform="matrix(14.04 0 0 -14.04 271.081 113.06)"/><use xlink:href="#ad" fill="#3b5fb5" transform="matrix(14.04 0 0 -14.04 283.42 113.231)"/><use xlink:href="#h" fill="#3b5fb5" transform="matrix(14.04 0 0 -14.04 291.495 113.06)"/><use xlink:href="#t" fill="#3b5fb5" transform="matrix(14.04 0 0 -14.04 296.776 116.357)"/><use xlink:href="#i" fill="#3b5fb5" transform="matrix(14.04 0 0 -14.04 308.57 113.231)"/><use xlink:href="#r" fill="#3b5fb5" transform="matrix(14.04 0 0 -14.04 316.782 113.06)"/><use xlink:href="#al" fill="#3b5fb5" transform="matrix(14.04 0 0 -14.04 326.724 113.06)"/><use xlink:href="#at" fill="#3b5fb5" transform="matrix(14.04 0 0 -14.04 333.096 113.06)"/><use xlink:href="#m" fill="#3b5fb5" transform="matrix(14.04 0 0 -14.04 341.355 113.06)"/><use xlink:href="#j" fill="#3b5fb5" transform="matrix(14.04 0 0 -14.04 345.075 113.231)"/><use xlink:href="#q" fill="#3b5fb5" transform="matrix(14.04 0 0 -14.04 353.681 113.231)"/><use xlink:href="#f" fill="#3b5fb5" transform="matrix(14.04 0 0 -14.04 361.695 113.06)"/><use xlink:href="#l" fill="#3b5fb5" transform="matrix(14.04 0 0 -14.04 369.771 113.231)"/><use xlink:href="#q" fill="#3b5fb5" transform="matrix(14.04 0 0 -14.04 376.51 113.231)"/><use xlink:href="#g" fill="#3b5fb5" transform="matrix(14.04 0 0 -14.04 388.007 113.231)"/><use xlink:href="#i" fill="#3b5fb5" transform="matrix(14.04 0 0 -14.04 393.723 113.231)"/></g></g><g data-name="Span"><clipPath id="au"><path fill-rule="evenodd" d="M0 841.92h595.2V0H0z"/></clipPath><g fill="#3b5fb5" clip-path="url(#au)"><use xlink:href="#am" transform="matrix(14.04 0 0 -14.04 73.052 129.86)"/><use xlink:href="#q" transform="matrix(14.04 0 0 -14.04 81.183 130.031)"/><use xlink:href="#l" transform="matrix(14.04 0 0 -14.04 88.778 130.031)"/><use xlink:href="#i" transform="matrix(14.04 0 0 -14.04 95.461 130.031)"/><use xlink:href="#ao" transform="matrix(14.04 0 0 -14.04 104.5 129.86)"/><use xlink:href="#ao" transform="matrix(14.04 0 0 -14.04 117.36 129.86)"/><use xlink:href="#q" transform="matrix(14.04 0 0 -14.04 129.803 130.031)"/><use xlink:href="#f" transform="matrix(14.04 0 0 -14.04 137.747 129.86)"/><use xlink:href="#j" transform="matrix(14.04 0 0 -14.04 145.823 130.031)"/><use xlink:href="#ad" transform="matrix(14.04 0 0 -14.04 154.41 130.031)"/><use xlink:href="#g" transform="matrix(14.04 0 0 -14.04 161.854 130.031)"/><use xlink:href="#m" transform="matrix(14.04 0 0 -14.04 167.796 129.86)"/><use xlink:href="#i" transform="matrix(14.04 0 0 -14.04 171.516 130.031)"/><use xlink:href="#f" transform="matrix(14.04 0 0 -14.04 180.569 129.86)"/></g></g><path fill="none" stroke="#3b5fb5" stroke-miterlimit="8" stroke-width=".48" d="M70.92 135.6h453.95" data-name="P"/><g data-name="Artifact"><path fill="#3b5fb5" fill-rule="evenodd" d="M70.875 356.85h453.5v-26.846h-453.5z"/><path fill="#c5e7f2" fill-opacity=".502" fill-rule="evenodd" d="M70.875 424.05h134.84v-67.2H70.875z"/><path fill="#c5e7f2" fill-opacity=".502" fill-rule="evenodd" d="M205.71 424.05H336v-67.2H205.71zm130.29 0h104.84v-67.2H336z"/><path fill="#c5e7f2" fill-opacity=".502" fill-rule="evenodd" d="M440.84 424.05h83.533v-67.2H440.84z"/><path fill="none" stroke="#3b5fb5" stroke-linejoin="round" stroke-width=".75" d="M205.71 356.47v303.36M336 356.47v268.94m104.84-268.94v268.94M70.5 356.85h454.25M70.5 424.05h454.25M70.5 450.89h454.25M70.5 482.09h454.25M70.5 513.29h454.25M70.5 544.49h454.25M70.5 571.34h454.25M70.5 598.18h454.25M70.5 625.03h454.25M70.875 329.63v330.2m453.505-330.2v330.2M70.5 330h454.25M70.5 659.46h454.25"/></g><g data-name="Span"><clipPath id="av"><path fill-rule="evenodd" d="M0 841.92h595.2V0H0z"/></clipPath><g clip-path="url(#av)"><symbol id="aw"><path d="M.546.037A.5.5 0 0 0 .346 0a.34.34 0 0 0-.254.095A.35.35 0 0 0 0 .347.37.37 0 0 0 .104.62a.36.36 0 0 0 .269.104.5.5 0 0 0 .173-.026V.546a.3.3 0 0 1-.16.042.21.21 0 0 1-.16-.062.23.23 0 0 1-.06-.168q0-.1.057-.162.058-.06.154-.06.092 0 .169.045z"/></symbol><use xlink:href="#aw" fill="#fff" transform="matrix(9.96 0 0 -9.96 280.73 347.302)"/><use xlink:href="#h" fill="#fff" transform="matrix(9.96 0 0 -9.96 287.232 347.18)"/><use xlink:href="#m" fill="#fff" transform="matrix(9.96 0 0 -9.96 291.089 347.18)"/><use xlink:href="#g" fill="#fff" transform="matrix(9.96 0 0 -9.96 293.637 347.302)"/><use xlink:href="#q" fill="#fff" transform="matrix(9.96 0 0 -9.96 297.632 347.302)"/><use xlink:href="#h" fill="#fff" transform="matrix(9.96 0 0 -9.96 303.317 347.18)"/><use xlink:href="#m" fill="#fff" transform="matrix(9.96 0 0 -9.96 307.174 347.18)"/><use xlink:href="#ad" fill="#fff" transform="matrix(9.96 0 0 -9.96 309.79 347.302)"/></g></g><g data-name="Span"><clipPath id="ax"><path fill-rule="evenodd" d="M0 841.92h595.2V0H0z"/></clipPath><g fill="#3b5fb5" clip-path="url(#ax)"><use xlink:href="#aw" transform="matrix(9.96 0 0 -9.96 117.98 394.342)"/><use xlink:href="#h" transform="matrix(9.96 0 0 -9.96 124.482 394.22)"/><use xlink:href="#m" transform="matrix(9.96 0 0 -9.96 128.339 394.22)"/><use xlink:href="#g" transform="matrix(9.96 0 0 -9.96 130.887 394.342)"/><use xlink:href="#q" transform="matrix(9.96 0 0 -9.96 134.882 394.342)"/><use xlink:href="#h" transform="matrix(9.96 0 0 -9.96 140.567 394.22)"/><use xlink:href="#m" transform="matrix(9.96 0 0 -9.96 144.424 394.22)"/><use xlink:href="#i" transform="matrix(9.96 0 0 -9.96 147.113 394.342)"/><use xlink:href="#f" transform="matrix(9.96 0 0 -9.96 153.515 394.22)"/></g></g><g data-name="Span"><clipPath id="ay"><path fill-rule="evenodd" d="M0 841.92h595.2V0H0z"/></clipPath><g fill="#3b5fb5" clip-path="url(#ay)"><use xlink:href="#aw" transform="matrix(9.96 0 0 -9.96 230.02 382.342)"/><use xlink:href="#h" transform="matrix(9.96 0 0 -9.96 236.522 382.22)"/><use xlink:href="#m" transform="matrix(9.96 0 0 -9.96 240.379 382.22)"/><use xlink:href="#g" transform="matrix(9.96 0 0 -9.96 242.927 382.342)"/><use xlink:href="#q" transform="matrix(9.96 0 0 -9.96 246.922 382.342)"/><use xlink:href="#h" transform="matrix(9.96 0 0 -9.96 252.607 382.22)"/><use xlink:href="#m" transform="matrix(9.96 0 0 -9.96 256.464 382.22)"/><use xlink:href="#ad" transform="matrix(9.96 0 0 -9.96 259.08 382.342)"/><use xlink:href="#u" transform="matrix(9.96 0 0 -9.96 267.29 384.51)"/><use xlink:href="#k" transform="matrix(9.96 0 0 -9.96 273.645 382.342)"/><use xlink:href="#q" transform="matrix(9.96 0 0 -9.96 279.452 382.342)"/><use xlink:href="#w" transform="matrix(9.96 0 0 -9.96 284.81 382.342)"/><use xlink:href="#g" transform="matrix(9.96 0 0 -9.96 289.102 382.342)"/><use xlink:href="#m" transform="matrix(9.96 0 0 -9.96 293.287 382.22)"/><use xlink:href="#i" transform="matrix(9.96 0 0 -9.96 295.965 382.342)"/><use xlink:href="#f" transform="matrix(9.96 0 0 -9.96 302.368 382.22)"/><use xlink:href="#w" transform="matrix(9.96 0 0 -9.96 308.067 382.342)"/></g></g><g data-name="Span"><clipPath id="az"><path fill-rule="evenodd" d="M0 841.92h595.2V0H0z"/></clipPath><g clip-path="url(#az)"><symbol id="aA"><path d="M.987.7.802 0H.627L.511.45A.4.4 0 0 0 .5.527H.498L.485.449.366 0H.184L0 .7h.172L.271.234l.01-.08h.002a.4.4 0 0 0 .014.082L.424.7h.17L.707.23.719.155h.002l.01.078L.828.7h.16z"/></symbol><symbol id="aB"><path d="M.619.06A.5.5 0 0 0 .364 0a.37.37 0 0 0-.267.093A.34.34 0 0 0 0 .351q0 .165.106.27A.4.4 0 0 0 .39.724q.112 0 .196-.03v-.15a.4.4 0 0 1-.198.047.21.21 0 0 1-.16-.064.23.23 0 0 1-.062-.17q0-.108.055-.167a.2.2 0 0 1 .15-.059.2.2 0 0 1 .09.016v.137H.32V.41h.298V.06z"/></symbol><symbol id="aC"><path d="M.479.816.138 0H0l.34.816z"/></symbol><use xlink:href="#ad" fill="#3b5fb5" transform="matrix(9.96 0 0 -9.96 225.017 394.342)"/><use xlink:href="#f" fill="#3b5fb5" transform="matrix(9.96 0 0 -9.96 230.775 394.22)"/><use xlink:href="#j" fill="#3b5fb5" transform="matrix(9.96 0 0 -9.96 236.504 394.342)"/><use xlink:href="#aA" fill="#3b5fb5" transform="matrix(9.96 0 0 -9.96 245.206 394.22)"/><use xlink:href="#aB" fill="#3b5fb5" transform="matrix(9.96 0 0 -9.96 255.438 394.342)"/><use xlink:href="#aC" fill="#3b5fb5" transform="matrix(9.96 0 0 -9.96 261.921 395.377)"/><use xlink:href="#o" fill="#3b5fb5" transform="matrix(9.96 0 0 -9.96 267.02 394.342)"/><use xlink:href="#q" fill="#3b5fb5" transform="matrix(9.96 0 0 -9.96 272.58 394.342)"/><use xlink:href="#l" fill="#3b5fb5" transform="matrix(9.96 0 0 -9.96 277.968 394.342)"/><use xlink:href="#h" fill="#3b5fb5" transform="matrix(9.96 0 0 -9.96 283.065 394.22)"/><use xlink:href="#q" fill="#3b5fb5" transform="matrix(9.96 0 0 -9.96 286.733 394.342)"/><use xlink:href="#g" fill="#3b5fb5" transform="matrix(9.96 0 0 -9.96 291.97 394.342)"/><use xlink:href="#ad" fill="#3b5fb5" transform="matrix(9.96 0 0 -9.96 295.923 394.342)"/><use xlink:href="#h" fill="#3b5fb5" transform="matrix(9.96 0 0 -9.96 301.65 394.22)"/><use xlink:href="#m" fill="#3b5fb5" transform="matrix(9.96 0 0 -9.96 305.508 394.22)"/><use xlink:href="#ad" fill="#3b5fb5" transform="matrix(9.96 0 0 -9.96 308.124 394.342)"/><use xlink:href="#g" fill="#3b5fb5" transform="matrix(9.96 0 0 -9.96 313.434 394.342)"/></g></g><g data-name="Span"><clipPath id="aD"><path fill-rule="evenodd" d="M0 841.92h595.2V0H0z"/></clipPath><g clip-path="url(#aD)"><symbol id="aE"><path d="M.208.814a.1.1 0 0 0-.064.023.08.08 0 0 0-.025.057q0 .035.025.057a.1.1 0 0 0 .064.022A.1.1 0 0 0 .272.95.07.07 0 0 0 .297.894.07.07 0 0 0 .272.836.1.1 0 0 0 .208.814m.076-.57A.27.27 0 0 0 .23.066Q.176 0 .074 0A.2.2 0 0 0 0 .015v.12A.1.1 0 0 1 .057.119Q.13.118.13.232v.503h.154z"/></symbol><use xlink:href="#aE" fill="#3b5fb5" transform="matrix(9.96 0 0 -9.96 242.573 408.56)"/><use xlink:href="#k" fill="#3b5fb5" transform="matrix(9.96 0 0 -9.96 246.657 406.342)"/><use xlink:href="#j" fill="#3b5fb5" transform="matrix(9.96 0 0 -9.96 252.464 406.342)"/><use xlink:href="#af" fill="#3b5fb5" transform="matrix(9.96 0 0 -9.96 258.56 408.56)"/><use xlink:href="#q" fill="#3b5fb5" transform="matrix(9.96 0 0 -9.96 264.675 406.342)"/><use xlink:href="#ao" fill="#3b5fb5" transform="matrix(9.96 0 0 -9.96 270.36 406.22)"/><use xlink:href="#q" fill="#3b5fb5" transform="matrix(9.96 0 0 -9.96 279.187 406.342)"/><use xlink:href="#f" fill="#3b5fb5" transform="matrix(9.96 0 0 -9.96 284.872 406.22)"/><use xlink:href="#g" fill="#3b5fb5" transform="matrix(9.96 0 0 -9.96 290.45 406.342)"/><use xlink:href="#w" fill="#3b5fb5" transform="matrix(9.96 0 0 -9.96 294.407 406.342)"/></g></g><g data-name="Span"><clipPath id="aF"><path fill-rule="evenodd" d="M0 841.92h595.2V0H0z"/></clipPath><g fill="#3b5fb5" clip-path="url(#aF)"><use xlink:href="#o" transform="matrix(9.96 0 0 -9.96 360.207 388.342)"/><use xlink:href="#k" transform="matrix(9.96 0 0 -9.96 365.956 388.342)"/><use xlink:href="#ao" transform="matrix(9.96 0 0 -9.96 372.06 388.22)"/><use xlink:href="#ao" transform="matrix(9.96 0 0 -9.96 381.183 388.22)"/><use xlink:href="#ad" transform="matrix(9.96 0 0 -9.96 389.907 388.342)"/><use xlink:href="#h" transform="matrix(9.96 0 0 -9.96 395.665 388.22)"/><use xlink:href="#t" transform="matrix(9.96 0 0 -9.96 398.963 390.56)"/><use xlink:href="#i" transform="matrix(9.96 0 0 -9.96 407.47 388.342)"/><use xlink:href="#r" transform="matrix(9.96 0 0 -9.96 413.464 388.22)"/></g></g><g data-name="Span"><clipPath id="aG"><path fill-rule="evenodd" d="M0 841.92h595.2V0H0z"/></clipPath><g fill="#3b5fb5" clip-path="url(#aG)"><use xlink:href="#q" transform="matrix(9.96 0 0 -9.96 368.15 400.342)"/><use xlink:href="#at" transform="matrix(9.96 0 0 -9.96 373.208 400.22)"/><use xlink:href="#m" transform="matrix(9.96 0 0 -9.96 379.127 400.22)"/><use xlink:href="#j" transform="matrix(9.96 0 0 -9.96 381.815 400.342)"/><use xlink:href="#q" transform="matrix(9.96 0 0 -9.96 387.93 400.342)"/><use xlink:href="#f" transform="matrix(9.96 0 0 -9.96 393.616 400.22)"/><use xlink:href="#l" transform="matrix(9.96 0 0 -9.96 399.345 400.342)"/><use xlink:href="#q" transform="matrix(9.96 0 0 -9.96 404.126 400.342)"/></g></g><g data-name="Span"><clipPath id="aH"><path fill-rule="evenodd" d="M0 841.92h595.2V0H0z"/></clipPath><g clip-path="url(#aH)"><symbol id="aI"><path d="M.69 0H.52L.47.156H.22L.17 0H0l.255.7h.187zM.433.277.358.512a.3.3 0 0 0-.012.063H.342A.3.3 0 0 0 .33.515L.254.276h.18z"/></symbol><use xlink:href="#aI" fill="#3b5fb5" transform="matrix(9.96 0 0 -9.96 458.159 388.22)"/><use xlink:href="#j" fill="#3b5fb5" transform="matrix(9.96 0 0 -9.96 465.422 388.342)"/><use xlink:href="#j" fill="#3b5fb5" transform="matrix(9.96 0 0 -9.96 471.538 388.342)"/><use xlink:href="#m" fill="#3b5fb5" transform="matrix(9.96 0 0 -9.96 477.843 388.22)"/><use xlink:href="#g" fill="#3b5fb5" transform="matrix(9.96 0 0 -9.96 480.37 388.342)"/><use xlink:href="#m" fill="#3b5fb5" transform="matrix(9.96 0 0 -9.96 484.556 388.22)"/><use xlink:href="#i" fill="#3b5fb5" transform="matrix(9.96 0 0 -9.96 487.235 388.342)"/><use xlink:href="#f" fill="#3b5fb5" transform="matrix(9.96 0 0 -9.96 493.637 388.22)"/><use xlink:href="#ad" fill="#3b5fb5" transform="matrix(9.96 0 0 -9.96 499.293 388.342)"/><use xlink:href="#s" fill="#3b5fb5" transform="matrix(9.96 0 0 -9.96 505.021 388.22)"/></g></g><g data-name="Span"><clipPath id="aJ"><path fill-rule="evenodd" d="M0 841.92h595.2V0H0z"/></clipPath><g fill="#3b5fb5" clip-path="url(#aJ)"><use xlink:href="#m" transform="matrix(9.96 0 0 -9.96 455.17 400.22)"/><use xlink:href="#f" transform="matrix(9.96 0 0 -9.96 458.145 400.22)"/><use xlink:href="#r" transform="matrix(9.96 0 0 -9.96 463.743 400.22)"/><use xlink:href="#i" transform="matrix(9.96 0 0 -9.96 467.69 400.342)"/><use xlink:href="#h" transform="matrix(9.96 0 0 -9.96 474.091 400.22)"/><use xlink:href="#ao" transform="matrix(9.96 0 0 -9.96 478.055 400.22)"/><use xlink:href="#ad" transform="matrix(9.96 0 0 -9.96 486.81 400.342)"/><use xlink:href="#g" transform="matrix(9.96 0 0 -9.96 492.11 400.342)"/><use xlink:href="#m" transform="matrix(9.96 0 0 -9.96 496.295 400.22)"/><use xlink:href="#i" transform="matrix(9.96 0 0 -9.96 498.973 400.342)"/><use xlink:href="#f" transform="matrix(9.96 0 0 -9.96 505.376 400.22)"/></g></g><g data-name="Span"><clipPath id="aK"><path fill-rule="evenodd" d="M0 841.92h595.2V0H0z"/></clipPath><g clip-path="url(#aK)"><symbol id="aL"><path d="M.242 0h-.08v.605A.4.4 0 0 0 .048.538L0 .522v.081A.5.5 0 0 1 .114.65a1 1 0 0 1 .098.066h.03z"/></symbol><symbol id="aM"><path d="M.054 0a.05.05 0 0 0-.038.016A.05.05 0 0 0 0 .055a.05.05 0 0 0 .016.038.05.05 0 0 0 .038.017.05.05 0 0 0 .04-.017.05.05 0 0 0 .015-.038.05.05 0 0 0-.016-.039A.05.05 0 0 0 .054 0"/></symbol><symbol id="aN"><path d="M.71 0H.63v.287Q.629.369.604.407.578.444.518.444A.1.1 0 0 1 .431.397.18.18 0 0 1 .395.285V0h-.08v.297Q.315.444.2.444A.1.1 0 0 1 .114.4.2.2 0 0 1 .08.285V0H0v.5h.08V.42h.002a.17.17 0 0 0 .155.092A.144.144 0 0 0 .38.408a.18.18 0 0 0 .166.104Q.71.512.71.308z"/></symbol><use xlink:href="#aL" transform="matrix(9.96 0 0 -9.96 86.189 441.26)"/><use xlink:href="#aM" transform="matrix(9.96 0 0 -9.96 91.013 441.367)"/><use xlink:href="#O" transform="matrix(9.96 0 0 -9.96 96.183 441.26)"/><use xlink:href="#I" transform="matrix(9.96 0 0 -9.96 101.594 441.26)"/><use xlink:href="#L" transform="matrix(9.96 0 0 -9.96 104.72 441.377)"/><use xlink:href="#Z" transform="matrix(9.96 0 0 -9.96 110.947 441.377)"/><use xlink:href="#Q" transform="matrix(9.96 0 0 -9.96 116.803 441.26)"/><use xlink:href="#C" transform="matrix(9.96 0 0 -9.96 118.873 441.377)"/><use xlink:href="#aN" transform="matrix(9.96 0 0 -9.96 124.383 441.26)"/></g></g><g data-name="Span"><clipPath id="aO"><path fill-rule="evenodd" d="M0 841.92h595.2V0H0z"/></clipPath><g clip-path="url(#aO)"><symbol id="aP"><path d="M.324.517a.2.2 0 0 1-.01.056.1.1 0 0 1-.068.063.16.16 0 0 1-.097.002.2.2 0 0 1-.085-.045A.3.3 0 0 1 .027.56v.086a.24.24 0 0 0 .178.067A.2.2 0 0 0 .285.7.17.17 0 0 0 .39.604a.2.2 0 0 0 .015-.08.3.3 0 0 0-.01-.076.2.2 0 0 0-.028-.063.3.3 0 0 0-.049-.057L.25.272.168.212a.4.4 0 0 1-.05-.047A.1.1 0 0 1 .09.122a.2.2 0 0 1-.008-.05h.35V0H0v.035Q0 .08.01.114a.2.2 0 0 0 .032.065.4.4 0 0 0 .059.061Q.137.27.19.31l.063.052a.3.3 0 0 1 .042.05.2.2 0 0 1 .022.05.2.2 0 0 1 .007.055"/></symbol><symbol id="aQ"><path d="M0 0v.7h.2Q.29.7.342.656A.14.14 0 0 0 .396.54.17.17 0 0 0 .364.437.17.17 0 0 0 .275.374V.372A.18.18 0 0 0 .39.318.16.16 0 0 0 .43.201.18.18 0 0 0 .367.056.24.24 0 0 0 .204 0zm.082.626V.4h.084Q.233.4.272.432a.11.11 0 0 1 .039.092q0 .102-.135.102zm0-.3V.074h.111q.073 0 .112.034t.04.094Q.346.326.176.326z"/></symbol><use xlink:href="#aP" transform="matrix(9.96 0 0 -9.96 85.61 464.28)"/><use xlink:href="#aM" transform="matrix(9.96 0 0 -9.96 91.013 464.387)"/><use xlink:href="#aQ" transform="matrix(9.96 0 0 -9.96 96.183 464.28)"/><use xlink:href="#C" transform="matrix(9.96 0 0 -9.96 101.483 464.397)"/><use xlink:href="#G" transform="matrix(9.96 0 0 -9.96 106.983 464.28)"/><use xlink:href="#C" transform="matrix(9.96 0 0 -9.96 112.28 464.397)"/><use xlink:href="#F" transform="matrix(9.96 0 0 -9.96 117.23 464.28)"/><use xlink:href="#E" transform="matrix(9.96 0 0 -9.96 120.79 464.28)"/><use xlink:href="#H" transform="matrix(9.96 0 0 -9.96 122.709 464.387)"/><use xlink:href="#Y" transform="matrix(9.96 0 0 -9.96 126.382 464.397)"/><use xlink:href="#R" transform="matrix(9.96 0 0 -9.96 133.475 464.397)"/><use xlink:href="#G" transform="matrix(9.96 0 0 -9.96 138.914 464.28)"/><use xlink:href="#T" transform="matrix(9.96 0 0 -9.96 144.211 464.397)"/><use xlink:href="#U" transform="matrix(9.96 0 0 -9.96 153.147 464.28)"/><use xlink:href="#R" transform="matrix(9.96 0 0 -9.96 158.415 464.397)"/><use xlink:href="#I" transform="matrix(9.96 0 0 -9.96 163.854 464.28)"/><use xlink:href="#aN" transform="matrix(9.96 0 0 -9.96 167.32 464.28)"/><use xlink:href="#Y" transform="matrix(9.96 0 0 -9.96 175.544 464.397)"/><use xlink:href="#L" transform="matrix(9.96 0 0 -9.96 182.697 464.397)"/><use xlink:href="#F" transform="matrix(9.96 0 0 -9.96 188.354 464.28)"/></g></g><g data-name="Span"><clipPath id="aR"><path fill-rule="evenodd" d="M0 841.92h595.2V0H0z"/></clipPath><g clip-path="url(#aR)"><use xlink:href="#H" transform="matrix(9.96 0 0 -9.96 92.25 476.387)"/><use xlink:href="#U" transform="matrix(9.96 0 0 -9.96 96.224 476.28)"/><use xlink:href="#C" transform="matrix(9.96 0 0 -9.96 101.52 476.397)"/><use xlink:href="#E" transform="matrix(9.96 0 0 -9.96 109.772 476.28)"/><use xlink:href="#G" transform="matrix(9.96 0 0 -9.96 112.29 476.28)"/><use xlink:href="#H" transform="matrix(9.96 0 0 -9.96 117.328 476.387)"/><use xlink:href="#C" transform="matrix(9.96 0 0 -9.96 120.963 476.397)"/><use xlink:href="#I" transform="matrix(9.96 0 0 -9.96 126.442 476.28)"/><use xlink:href="#K" transform="matrix(9.96 0 0 -9.96 129.17 476.28)"/><use xlink:href="#C" transform="matrix(9.96 0 0 -9.96 134.369 476.397)"/><use xlink:href="#G" transform="matrix(9.96 0 0 -9.96 139.868 476.28)"/><use xlink:href="#H" transform="matrix(9.96 0 0 -9.96 144.908 476.387)"/><use xlink:href="#E" transform="matrix(9.96 0 0 -9.96 148.775 476.28)"/><use xlink:href="#L" transform="matrix(9.96 0 0 -9.96 150.952 476.397)"/><use xlink:href="#G" transform="matrix(9.96 0 0 -9.96 157.13 476.28)"/></g></g><g data-name="Span"><clipPath id="aS"><path fill-rule="evenodd" d="M70.8 581.76h135V413.64h-135z"/></clipPath><g clip-path="url(#aS)"><symbol id="aT"><path d="M.405.21A.2.2 0 0 0 .387.124a.2.2 0 0 0-.05-.066.2.2 0 0 0-.078-.043A.3.3 0 0 0 .16 0 .3.3 0 0 0 0 .038v.086A.26.26 0 0 1 .228.078a.14.14 0 0 1 .05.026.1.1 0 0 1 .034.043.1.1 0 0 1 .011.056q0 .138-.195.137H.07v.068h.055q.173 0 .173.13 0 .118-.132.118a.22.22 0 0 1-.14-.05v.078a.3.3 0 0 0 .24.028.2.2 0 0 0 .06-.034.16.16 0 0 0 .053-.12Q.381.418.24.378V.377A.2.2 0 0 0 .306.36.2.2 0 0 0 .358.325.16.16 0 0 0 .405.21"/></symbol><symbol id="aU"><path d="M.604.7.344 0h-.09L0 .7h.091L.285.145A.3.3 0 0 0 .3.083h.002q.004.03.016.063L.515.7z"/></symbol><use xlink:href="#aT" transform="matrix(9.96 0 0 -9.96 85.678 495.602)"/><use xlink:href="#aM" transform="matrix(9.96 0 0 -9.96 91.013 495.587)"/><use xlink:href="#aU" transform="matrix(9.96 0 0 -9.96 95.357 495.48)"/><use xlink:href="#R" transform="matrix(9.96 0 0 -9.96 101.942 495.597)"/><use xlink:href="#Q" transform="matrix(9.96 0 0 -9.96 107.381 495.48)"/><use xlink:href="#P" transform="matrix(9.96 0 0 -9.96 109.644 495.597)"/><use xlink:href="#C" transform="matrix(9.96 0 0 -9.96 115.048 495.597)"/><use xlink:href="#Y" transform="matrix(9.96 0 0 -9.96 120.247 495.597)"/><use xlink:href="#R" transform="matrix(9.96 0 0 -9.96 127.37 495.597)"/><use xlink:href="#G" transform="matrix(9.96 0 0 -9.96 132.809 495.48)"/><use xlink:href="#T" transform="matrix(9.96 0 0 -9.96 138.106 495.597)"/><use xlink:href="#B" transform="matrix(9.96 0 0 -9.96 147.042 497.77)"/><use xlink:href="#I" transform="matrix(9.96 0 0 -9.96 152.928 495.48)"/><use xlink:href="#C" transform="matrix(9.96 0 0 -9.96 156.054 495.597)"/><use xlink:href="#F" transform="matrix(9.96 0 0 -9.96 161.014 495.48)"/><use xlink:href="#C" transform="matrix(9.96 0 0 -9.96 164.34 495.597)"/><use xlink:href="#I" transform="matrix(9.96 0 0 -9.96 169.84 495.48)"/><use xlink:href="#C" transform="matrix(9.96 0 0 -9.96 172.966 495.597)"/><use xlink:href="#G" transform="matrix(9.96 0 0 -9.96 178.475 495.48)"/><use xlink:href="#D" transform="matrix(9.96 0 0 -9.96 183.772 495.597)"/><use xlink:href="#C" transform="matrix(9.96 0 0 -9.96 188.334 495.597)"/><use xlink:href="#Y" transform="matrix(9.96 0 0 -9.96 193.532 495.597)"/></g></g><g data-name="Span"><clipPath id="aV"><path fill-rule="evenodd" d="M0 841.92h595.2V0H0z"/></clipPath><g clip-path="url(#aV)"><use xlink:href="#L" transform="matrix(9.96 0 0 -9.96 92.507 507.597)"/><use xlink:href="#F" transform="matrix(9.96 0 0 -9.96 98.164 507.48)"/><use xlink:href="#H" transform="matrix(9.96 0 0 -9.96 103.982 507.587)"/><use xlink:href="#U" transform="matrix(9.96 0 0 -9.96 107.957 507.48)"/><use xlink:href="#C" transform="matrix(9.96 0 0 -9.96 113.254 507.597)"/><use xlink:href="#H" transform="matrix(9.96 0 0 -9.96 121.014 507.587)"/><use xlink:href="#R" transform="matrix(9.96 0 0 -9.96 124.619 507.597)"/><use xlink:href="#I" transform="matrix(9.96 0 0 -9.96 130.008 507.48)"/><use xlink:href="#S" transform="matrix(9.96 0 0 -9.96 133.134 509.824)"/><use xlink:href="#C" transform="matrix(9.96 0 0 -9.96 139 507.597)"/><use xlink:href="#H" transform="matrix(9.96 0 0 -9.96 143.951 507.587)"/><use xlink:href="#B" transform="matrix(9.96 0 0 -9.96 150.755 509.77)"/><use xlink:href="#L" transform="matrix(9.96 0 0 -9.96 156.27 507.597)"/><use xlink:href="#B" transform="matrix(9.96 0 0 -9.96 162.508 509.77)"/><use xlink:href="#P" transform="matrix(9.96 0 0 -9.96 168.257 507.597)"/><use xlink:href="#Q" transform="matrix(9.96 0 0 -9.96 174.001 507.48)"/><use xlink:href="#R" transform="matrix(9.96 0 0 -9.96 176.042 507.597)"/><use xlink:href="#H" transform="matrix(9.96 0 0 -9.96 180.883 507.587)"/><use xlink:href="#E" transform="matrix(9.96 0 0 -9.96 184.72 507.48)"/><use xlink:href="#L" transform="matrix(9.96 0 0 -9.96 186.898 507.597)"/><use xlink:href="#G" transform="matrix(9.96 0 0 -9.96 193.095 507.48)"/></g></g><g data-name="Span"><clipPath id="aW"><path fill-rule="evenodd" d="M0 841.92h595.2V0H0z"/></clipPath><g clip-path="url(#aW)"><symbol id="aX"><path d="M.408.7V.238h.09V.165h-.09V0H.33v.165H0v.069a3 3 0 0 1 .182.23q.043.06.08.12.036.061.06.116zM.09.238h.24V.58A2.4 2.4 0 0 0 .09.238"/></symbol><symbol id="aY"><path d="M.623 0h-.09L.457.196H.161L.091 0H0l.269.7h.085zM.431.27l-.11.298-.01.047H.309L.297.568.188.27z"/></symbol><use xlink:href="#aX" transform="matrix(9.96 0 0 -9.96 85.148 526.68)"/><use xlink:href="#aM" transform="matrix(9.96 0 0 -9.96 91.013 526.787)"/><use xlink:href="#aY" transform="matrix(9.96 0 0 -9.96 95.376 526.68)"/><use xlink:href="#D" transform="matrix(9.96 0 0 -9.96 102.21 526.797)"/><use xlink:href="#D" transform="matrix(9.96 0 0 -9.96 106.772 526.797)"/><use xlink:href="#C" transform="matrix(9.96 0 0 -9.96 111.333 526.797)"/><use xlink:href="#B" transform="matrix(9.96 0 0 -9.96 116.833 528.97)"/><use xlink:href="#H" transform="matrix(9.96 0 0 -9.96 122.091 526.787)"/><use xlink:href="#R" transform="matrix(9.96 0 0 -9.96 125.696 526.797)"/><use xlink:href="#Z" transform="matrix(9.96 0 0 -9.96 131.136 526.797)"/><use xlink:href="#E" transform="matrix(9.96 0 0 -9.96 136.885 526.68)"/><use xlink:href="#Q" transform="matrix(9.96 0 0 -9.96 139.402 526.68)"/><use xlink:href="#E" transform="matrix(9.96 0 0 -9.96 141.706 526.68)"/><use xlink:href="#H" transform="matrix(9.96 0 0 -9.96 143.595 526.787)"/><use xlink:href="#aa" transform="matrix(9.96 0 0 -9.96 146.83 529.024)"/><use xlink:href="#H" transform="matrix(9.96 0 0 -9.96 154.86 526.787)"/><use xlink:href="#L" transform="matrix(9.96 0 0 -9.96 158.494 526.797)"/></g></g><g data-name="Span"><clipPath id="aZ"><path fill-rule="evenodd" d="M0 841.92h595.2V0H0z"/></clipPath><g clip-path="url(#aZ)"><symbol id="ba"><path d="M.415 0H.303L.082.24H.08V0H0v.74h.08V.271h.002L.292.5h.105L.165.259z"/></symbol><use xlink:href="#Y" transform="matrix(9.96 0 0 -9.96 92.546 538.817)"/><use xlink:href="#H" transform="matrix(9.96 0 0 -9.96 96.472 538.807)"/><use xlink:href="#R" transform="matrix(9.96 0 0 -9.96 100.037 538.817)"/><use xlink:href="#ba" transform="matrix(9.96 0 0 -9.96 105.477 538.7)"/><use xlink:href="#C" transform="matrix(9.96 0 0 -9.96 110.027 538.817)"/><use xlink:href="#U" transform="matrix(9.96 0 0 -9.96 115.526 538.7)"/><use xlink:href="#L" transform="matrix(9.96 0 0 -9.96 120.823 538.817)"/><use xlink:href="#Q" transform="matrix(9.96 0 0 -9.96 127.04 538.7)"/><use xlink:href="#T" transform="matrix(9.96 0 0 -9.96 129.11 538.817)"/><use xlink:href="#C" transform="matrix(9.96 0 0 -9.96 134.976 538.817)"/><use xlink:href="#I" transform="matrix(9.96 0 0 -9.96 140.476 538.7)"/><use xlink:href="#Y" transform="matrix(9.96 0 0 -9.96 143.64 538.817)"/></g></g><g data-name="Span"><clipPath id="bb"><path fill-rule="evenodd" d="M0 841.92h595.2V0H0z"/></clipPath><g clip-path="url(#bb)"><symbol id="bc"><path d="M.393.226A.2.2 0 0 0 .375.133a.2.2 0 0 0-.05-.071.2.2 0 0 0-.078-.046A.3.3 0 0 0 .145 0 .3.3 0 0 0 0 .03v.084A.27.27 0 0 1 .146.068q.038 0 .068.012.03.01.053.03A.16.16 0 0 1 .31.22a.13.13 0 0 1-.045.11.2.2 0 0 1-.133.038A1 1 0 0 1 .013.36l.024.351h.324V.64H.106L.092.435l.065.002q.055 0 .1-.015A.2.2 0 0 0 .33.38.2.2 0 0 0 .377.314.2.2 0 0 0 .393.226"/></symbol><symbol id="bd"><path d="M.502 0H.404L.287.196.256.243a.2.2 0 0 1-.031.031.1.1 0 0 1-.035.018.1.1 0 0 1-.04.006H.081V0H0v.7h.209A.3.3 0 0 0 .293.688.2.2 0 0 0 .361.654.2.2 0 0 0 .406.595.2.2 0 0 0 .422.514.2.2 0 0 0 .41.446.2.2 0 0 0 .33.351.3.3 0 0 0 .267.325V.323A.2.2 0 0 0 .322.281L.37.21zm-.42.626V.372h.111q.03 0 .057.01A.12.12 0 0 1 .325.45a.14.14 0 0 1 .01.056A.11.11 0 0 1 .3.594a.16.16 0 0 1-.106.032z"/></symbol><use xlink:href="#bc" transform="matrix(9.96 0 0 -9.96 85.878 561.842)"/><use xlink:href="#aM" transform="matrix(9.96 0 0 -9.96 91.013 561.827)"/><use xlink:href="#bd" transform="matrix(9.96 0 0 -9.96 96.183 561.72)"/><use xlink:href="#C" transform="matrix(9.96 0 0 -9.96 101.722 561.837)"/><use xlink:href="#Y" transform="matrix(9.96 0 0 -9.96 106.92 561.837)"/><use xlink:href="#L" transform="matrix(9.96 0 0 -9.96 111.104 561.837)"/><use xlink:href="#P" transform="matrix(9.96 0 0 -9.96 117.174 561.837)"/><use xlink:href="#I" transform="matrix(9.96 0 0 -9.96 122.919 561.72)"/><use xlink:href="#D" transform="matrix(9.96 0 0 -9.96 126.074 561.837)"/><use xlink:href="#C" transform="matrix(9.96 0 0 -9.96 130.636 561.837)"/><use xlink:href="#P" transform="matrix(9.96 0 0 -9.96 139.136 561.837)"/><use xlink:href="#Y" transform="matrix(9.96 0 0 -9.96 144.579 561.837)"/><use xlink:href="#C" transform="matrix(9.96 0 0 -9.96 148.763 561.837)"/></g></g><g data-name="Span"><clipPath id="be"><path fill-rule="evenodd" d="M0 841.92h595.2V0H0z"/></clipPath><g clip-path="url(#be)"><symbol id="bf"><path d="M.445.234A.3.3 0 0 0 .428.14.21.21 0 0 0 .224 0 .2.2 0 0 0 .13.022a.2.2 0 0 0-.07.063.3.3 0 0 0-.045.101.64.64 0 0 0 .005.3q.02.075.058.127a.3.3 0 0 0 .09.082q.052.03.118.03a.3.3 0 0 0 .116-.02V.627a.25.25 0 0 1-.114.028.2.2 0 0 1-.085-.02.2.2 0 0 1-.064-.06.3.3 0 0 1-.042-.093.5.5 0 0 1-.014-.12h.002Q.133.45.245.45.291.45.327.435A.2.2 0 0 0 .39.39.2.2 0 0 0 .43.322.3.3 0 0 0 .446.234M.363.224a.2.2 0 0 1-.01.066.14.14 0 0 1-.026.05.1.1 0 0 1-.043.031.14.14 0 0 1-.057.011.14.14 0 0 1-.1-.042.14.14 0 0 1-.04-.099.2.2 0 0 1 .011-.068A.2.2 0 0 1 .127.12.12.12 0 0 1 .228.07q.03 0 .055.01.025.013.043.033t.027.049q.01.028.01.063z"/></symbol><symbol id="bg"><path d="M.371 0H0v.7h.355V.626H.082V.393h.253V.32H.082V.074h.29V0z"/></symbol><symbol id="bh"><path d="M.46 0H.38v.316A.18.18 0 0 0 .208.218a.19.19 0 0 0-.151.067A.28.28 0 0 0 0 .468q0 .125.063.199.062.075.167.075.104 0 .15-.082v.07h.08zM.38.455v.073a.14.14 0 0 1-.04.104.13.13 0 0 1-.103.042.14.14 0 0 1-.114-.053.24.24 0 0 1-.042-.15q0-.087.04-.137A.13.13 0 0 1 .228.286.14.14 0 0 1 .34.333a.18.18 0 0 1 .04.122"/></symbol><use xlink:href="#bf" transform="matrix(9.96 0 0 -9.96 85.62 588.702)"/><use xlink:href="#aM" transform="matrix(9.96 0 0 -9.96 91.013 588.687)"/><use xlink:href="#bg" transform="matrix(9.96 0 0 -9.96 96.183 588.58)"/><use xlink:href="#bh" transform="matrix(9.96 0 0 -9.96 100.776 590.87)"/><use xlink:href="#P" transform="matrix(9.96 0 0 -9.96 106.876 588.697)"/><use xlink:href="#E" transform="matrix(9.96 0 0 -9.96 112.513 588.58)"/><use xlink:href="#H" transform="matrix(9.96 0 0 -9.96 114.432 588.687)"/><use xlink:href="#aa" transform="matrix(9.96 0 0 -9.96 117.667 590.924)"/></g></g><g data-name="Span"><clipPath id="bi"><path fill-rule="evenodd" d="M0 841.92h595.2V0H0z"/></clipPath><g clip-path="url(#bi)"><symbol id="bj"><path d="M.445.654A4 4 0 0 1 .358.49a3 3 0 0 1-.1-.234 2 2 0 0 1-.041-.13A1 1 0 0 1 .192 0H.106a1 1 0 0 0 .027.127 1.8 1.8 0 0 0 .14.356 3 3 0 0 0 .078.145H0V.7h.445z"/></symbol><symbol id="bk"><path d="M.355.626H.082V.384h.253V.31H.082V0H0v.7h.355z"/></symbol><use xlink:href="#bj" transform="matrix(9.96 0 0 -9.96 85.557 615.41)"/><use xlink:href="#aM" transform="matrix(9.96 0 0 -9.96 91.013 615.517)"/><use xlink:href="#bk" transform="matrix(9.96 0 0 -9.96 96.183 615.41)"/><use xlink:href="#C" transform="matrix(9.96 0 0 -9.96 100.646 615.527)"/><use xlink:href="#R" transform="matrix(9.96 0 0 -9.96 105.776 615.527)"/><use xlink:href="#Y" transform="matrix(9.96 0 0 -9.96 110.914 615.527)"/><use xlink:href="#E" transform="matrix(9.96 0 0 -9.96 115.282 615.41)"/><use xlink:href="#Z" transform="matrix(9.96 0 0 -9.96 117.8 615.527)"/><use xlink:href="#E" transform="matrix(9.96 0 0 -9.96 123.549 615.41)"/><use xlink:href="#Q" transform="matrix(9.96 0 0 -9.96 126.066 615.41)"/><use xlink:href="#E" transform="matrix(9.96 0 0 -9.96 128.37 615.41)"/><use xlink:href="#H" transform="matrix(9.96 0 0 -9.96 130.288 615.517)"/><use xlink:href="#aa" transform="matrix(9.96 0 0 -9.96 133.494 617.754)"/></g></g><g data-name="Span"><clipPath id="bl"><path fill-rule="evenodd" d="M0 841.92h595.2V0H0z"/></clipPath><g clip-path="url(#bl)"><use xlink:href="#aQ" transform="matrix(9.96 0 0 -9.96 85.994 640.06)"/><use xlink:href="#R" transform="matrix(9.96 0 0 -9.96 91.265 640.177)"/><use xlink:href="#Q" transform="matrix(9.96 0 0 -9.96 96.704 640.06)"/><use xlink:href="#R" transform="matrix(9.96 0 0 -9.96 98.705 640.177)"/><use xlink:href="#G" transform="matrix(9.96 0 0 -9.96 104.144 640.06)"/><use xlink:href="#D" transform="matrix(9.96 0 0 -9.96 109.44 640.177)"/><use xlink:href="#C" transform="matrix(9.96 0 0 -9.96 113.973 640.177)"/><use xlink:href="#L" transform="matrix(9.96 0 0 -9.96 122.12 640.177)"/><use xlink:href="#F" transform="matrix(9.96 0 0 -9.96 127.777 640.06)"/><use xlink:href="#D" transform="matrix(9.96 0 0 -9.96 133.853 640.177)"/><use xlink:href="#L" transform="matrix(9.96 0 0 -9.96 138.415 640.177)"/><use xlink:href="#G" transform="matrix(9.96 0 0 -9.96 144.621 640.06)"/><use xlink:href="#Y" transform="matrix(9.96 0 0 -9.96 149.957 640.177)"/><use xlink:href="#C" transform="matrix(9.96 0 0 -9.96 154.141 640.177)"/><use xlink:href="#bh" transform="matrix(9.96 0 0 -9.96 159.28 642.35)"/><use xlink:href="#P" transform="matrix(9.96 0 0 -9.96 165.38 640.177)"/><use xlink:href="#C" transform="matrix(9.96 0 0 -9.96 170.785 640.177)"/><use xlink:href="#G" transform="matrix(9.96 0 0 -9.96 176.304 640.06)"/><use xlink:href="#D" transform="matrix(9.96 0 0 -9.96 181.601 640.177)"/><use xlink:href="#C" transform="matrix(9.96 0 0 -9.96 186.163 640.177)"/><use xlink:href="#Y" transform="matrix(9.96 0 0 -9.96 191.36 640.177)"/></g></g><g data-name="Span"><clipPath id="bm"><path fill-rule="evenodd" d="M0 841.92h595.2V0H0z"/></clipPath><g clip-path="url(#bm)"><use xlink:href="#L" transform="matrix(9.96 0 0 -9.96 85.547 652.177)"/><use xlink:href="#F" transform="matrix(9.96 0 0 -9.96 91.204 652.06)"/><use xlink:href="#E" transform="matrix(9.96 0 0 -9.96 97.513 652.06)"/><use xlink:href="#G" transform="matrix(9.96 0 0 -9.96 100.03 652.06)"/><use xlink:href="#H" transform="matrix(9.96 0 0 -9.96 105.07 652.167)"/><use xlink:href="#C" transform="matrix(9.96 0 0 -9.96 108.704 652.177)"/><use xlink:href="#I" transform="matrix(9.96 0 0 -9.96 114.184 652.06)"/><use xlink:href="#K" transform="matrix(9.96 0 0 -9.96 116.91 652.06)"/><use xlink:href="#C" transform="matrix(9.96 0 0 -9.96 122.11 652.177)"/><use xlink:href="#G" transform="matrix(9.96 0 0 -9.96 127.61 652.06)"/><use xlink:href="#H" transform="matrix(9.96 0 0 -9.96 132.649 652.167)"/><use xlink:href="#E" transform="matrix(9.96 0 0 -9.96 136.517 652.06)"/><use xlink:href="#L" transform="matrix(9.96 0 0 -9.96 138.693 652.177)"/><use xlink:href="#G" transform="matrix(9.96 0 0 -9.96 144.87 652.06)"/></g></g><g data-name="Artifact"><path fill="#3b5fb5" fill-rule="evenodd" d="M70.875 708.29h453.5v-27.103h-453.5z"/><path fill="none" stroke="#3b5fb5" stroke-linejoin="round" stroke-width=".75" d="M206.4 707.92v82.06M70.5 708.29h454.25M70.5 735.4h454.25M70.5 762.502h454.25M70.875 680.82v109.16M524.38 680.82v109.16M70.5 681.19h454.25M70.5 789.605h454.25"/></g><g data-name="Span"><clipPath id="bn"><path fill-rule="evenodd" d="M0 841.92h595.2V0H0z"/></clipPath><g clip-path="url(#bn)"><symbol id="bo"><path d="M0 0v.7h.248Q.621.7.621.36A.35.35 0 0 0 .52.098.38.38 0 0 0 .248 0zm.158.572V.128h.078a.21.21 0 0 1 .16.061.23.23 0 0 1 .06.168.2.2 0 0 1-.059.157.22.22 0 0 1-.162.058z"/></symbol><use xlink:href="#bo" fill="#fff" transform="matrix(9.96 0 0 -9.96 157.208 698.57)"/><use xlink:href="#h" fill="#fff" transform="matrix(9.96 0 0 -9.96 164.397 698.57)"/><use xlink:href="#ad" fill="#fff" transform="matrix(9.96 0 0 -9.96 167.992 698.692)"/><use xlink:href="#r" fill="#fff" transform="matrix(9.96 0 0 -9.96 173.292 698.57)"/><use xlink:href="#g" fill="#fff" transform="matrix(9.96 0 0 -9.96 177.117 698.692)"/></g></g><g data-name="Span"><clipPath id="bp"><path fill-rule="evenodd" d="M0 841.92h595.2V0H0z"/></clipPath><g clip-path="url(#bp)"><symbol id="bq"><path d="M.63 0H.47L.183.44.148.498H.145Q.149.461.149.385V0H0v.7h.17L.448.274.483.217h.002A1 1 0 0 0 .48.313V.7h.15z"/></symbol><use xlink:href="#bq" fill="#fff" transform="matrix(9.96 0 0 -9.96 184.448 698.57)"/><use xlink:href="#e" fill="#fff" transform="matrix(9.96 0 0 -9.96 192.356 698.57)"/><use xlink:href="#ah" fill="#fff" transform="matrix(9.96 0 0 -9.96 194.826 698.57)"/><use xlink:href="#aI" fill="#fff" transform="matrix(9.96 0 0 -9.96 200.59 698.57)"/><use xlink:href="#aB" fill="#fff" transform="matrix(9.96 0 0 -9.96 207.864 698.692)"/></g></g><g data-name="Span"><clipPath id="br"><path fill-rule="evenodd" d="M0 841.92h595.2V0H0z"/></clipPath><g fill="#fff" clip-path="url(#br)"><use xlink:href="#h" transform="matrix(9.96 0 0 -9.96 218.017 698.57)"/><use xlink:href="#q" transform="matrix(9.96 0 0 -9.96 221.684 698.692)"/><use xlink:href="#l" transform="matrix(9.96 0 0 -9.96 227.073 698.692)"/><use xlink:href="#i" transform="matrix(9.96 0 0 -9.96 231.853 698.692)"/><use xlink:href="#ao" transform="matrix(9.96 0 0 -9.96 238.285 698.57)"/><use xlink:href="#ao" transform="matrix(9.96 0 0 -9.96 247.409 698.57)"/><use xlink:href="#q" transform="matrix(9.96 0 0 -9.96 256.236 698.692)"/><use xlink:href="#f" transform="matrix(9.96 0 0 -9.96 261.92 698.57)"/><use xlink:href="#j" transform="matrix(9.96 0 0 -9.96 267.65 698.692)"/><use xlink:href="#ad" transform="matrix(9.96 0 0 -9.96 273.672 698.692)"/><use xlink:href="#g" transform="matrix(9.96 0 0 -9.96 278.983 698.692)"/><use xlink:href="#m" transform="matrix(9.96 0 0 -9.96 283.168 698.57)"/><use xlink:href="#i" transform="matrix(9.96 0 0 -9.96 285.847 698.692)"/><use xlink:href="#f" transform="matrix(9.96 0 0 -9.96 292.249 698.57)"/></g></g><g data-name="Span"><clipPath id="bs"><path fill-rule="evenodd" d="M0 841.92h595.2V0H0z"/></clipPath><g fill="#fff" clip-path="url(#bs)"><use xlink:href="#j" transform="matrix(9.96 0 0 -9.96 300.9 698.692)"/><use xlink:href="#q" transform="matrix(9.96 0 0 -9.96 307.016 698.692)"/><use xlink:href="#at" transform="matrix(9.96 0 0 -9.96 312.073 698.57)"/><use xlink:href="#q" transform="matrix(9.96 0 0 -9.96 317.802 698.692)"/><use xlink:href="#s" transform="matrix(9.96 0 0 -9.96 323.487 698.57)"/><use xlink:href="#i" transform="matrix(9.96 0 0 -9.96 326.089 698.692)"/><use xlink:href="#p" transform="matrix(9.96 0 0 -9.96 332.491 700.86)"/><use xlink:href="#q" transform="matrix(9.96 0 0 -9.96 338.31 698.692)"/><use xlink:href="#j" transform="matrix(9.96 0 0 -9.96 343.698 698.692)"/></g></g><g data-name="Span"><clipPath id="bt"><path fill-rule="evenodd" d="M0 841.92h595.2V0H0z"/></clipPath><g fill="#fff" clip-path="url(#bt)"><use xlink:href="#ai" transform="matrix(9.96 0 0 -9.96 353.187 698.692)"/><use xlink:href="#t" transform="matrix(9.96 0 0 -9.96 358.64 700.91)"/></g></g><g data-name="Span"><clipPath id="bu"><path fill-rule="evenodd" d="M0 841.92h595.2V0H0z"/></clipPath><g fill="#fff" clip-path="url(#bu)"><use xlink:href="#aA" transform="matrix(9.96 0 0 -9.96 367.028 698.57)"/><use xlink:href="#aB" transform="matrix(9.96 0 0 -9.96 377.26 698.692)"/><use xlink:href="#aC" transform="matrix(9.96 0 0 -9.96 383.743 699.727)"/></g></g><g data-name="Span"><clipPath id="bv"><path fill-rule="evenodd" d="M0 841.92h595.2V0H0z"/></clipPath><g fill="#fff" clip-path="url(#bv)"><use xlink:href="#o" transform="matrix(9.96 0 0 -9.96 388.867 698.692)"/><use xlink:href="#q" transform="matrix(9.96 0 0 -9.96 394.398 698.692)"/><use xlink:href="#l" transform="matrix(9.96 0 0 -9.96 399.786 698.692)"/><use xlink:href="#h" transform="matrix(9.96 0 0 -9.96 404.883 698.57)"/><use xlink:href="#q" transform="matrix(9.96 0 0 -9.96 408.55 698.692)"/><use xlink:href="#g" transform="matrix(9.96 0 0 -9.96 413.788 698.692)"/><use xlink:href="#ad" transform="matrix(9.96 0 0 -9.96 417.74 698.692)"/><use xlink:href="#h" transform="matrix(9.96 0 0 -9.96 423.469 698.57)"/><use xlink:href="#m" transform="matrix(9.96 0 0 -9.96 427.326 698.57)"/><use xlink:href="#ad" transform="matrix(9.96 0 0 -9.96 429.942 698.692)"/><use xlink:href="#g" transform="matrix(9.96 0 0 -9.96 435.252 698.692)"/></g></g><g data-name="Span"><clipPath id="bw"><path fill-rule="evenodd" d="M0 841.92h595.2V0H0z"/></clipPath><g clip-path="url(#bw)"><symbol id="bx"><path d="M0 0v.7h.193q.37 0 .37-.34A.34.34 0 0 0 .46.099.38.38 0 0 0 .186 0zm.082.626V.074h.105Q.324.075.4.148q.077.075.077.209 0 .27-.287.269z"/></symbol><use xlink:href="#bx" transform="matrix(9.96 0 0 -9.96 79.01 725.66)"/><use xlink:href="#I" transform="matrix(9.96 0 0 -9.96 85.885 725.66)"/><use xlink:href="#R" transform="matrix(9.96 0 0 -9.96 88.982 725.777)"/><use xlink:href="#F" transform="matrix(9.96 0 0 -9.96 93.832 725.66)"/><use xlink:href="#H" transform="matrix(9.96 0 0 -9.96 96.9 725.767)"/></g></g><g data-name="Span"><clipPath id="by"><path fill-rule="evenodd" d="M0 841.92h595.2V0H0z"/></clipPath><g clip-path="url(#by)"><symbol id="bz"><path d="M.564 0h-.1l-.36.558A.2.2 0 0 0 .08.602H.078A1 1 0 0 0 .082.506V0H0v.7h.106L.457.15.485.105h.002a1 1 0 0 0-.005.103V.7h.082z"/></symbol><symbol id="bA"><path d="M.082 0H0v.7h.082z"/></symbol><symbol id="bB"><path d="M.486.626H.284V0H.202v.626H0V.7h.486z"/></symbol><use xlink:href="#bz" transform="matrix(9.96 0 0 -9.96 103.854 725.66)"/><use xlink:href="#bA" transform="matrix(9.96 0 0 -9.96 111.304 725.66)"/><use xlink:href="#bB" transform="matrix(9.96 0 0 -9.96 113.239 725.66)"/><use xlink:href="#aY" transform="matrix(9.96 0 0 -9.96 118.286 725.66)"/><use xlink:href="#X" transform="matrix(9.96 0 0 -9.96 125.11 725.777)"/></g></g><g data-name="Span"><clipPath id="bC"><path fill-rule="evenodd" d="M0 841.92h595.2V0H0z"/></clipPath><g clip-path="url(#bC)"><use xlink:href="#T" transform="matrix(9.96 0 0 -9.96 134.967 725.777)"/><use xlink:href="#C" transform="matrix(9.96 0 0 -9.96 140.833 725.777)"/><use xlink:href="#D" transform="matrix(9.96 0 0 -9.96 146.003 725.777)"/><use xlink:href="#E" transform="matrix(9.96 0 0 -9.96 150.798 725.66)"/><use xlink:href="#Y" transform="matrix(9.96 0 0 -9.96 153.013 725.777)"/><use xlink:href="#E" transform="matrix(9.96 0 0 -9.96 157.401 725.66)"/><use xlink:href="#L" transform="matrix(9.96 0 0 -9.96 159.578 725.777)"/><use xlink:href="#G" transform="matrix(9.96 0 0 -9.96 165.775 725.66)"/></g></g><g data-name="Span"><clipPath id="bD"><path fill-rule="evenodd" d="M0 841.92h595.2V0H0z"/></clipPath><g clip-path="url(#bD)"><use xlink:href="#bx" transform="matrix(9.96 0 0 -9.96 79.01 752.784)"/><use xlink:href="#I" transform="matrix(9.96 0 0 -9.96 85.885 752.784)"/><use xlink:href="#R" transform="matrix(9.96 0 0 -9.96 88.982 752.9)"/><use xlink:href="#F" transform="matrix(9.96 0 0 -9.96 93.832 752.784)"/><use xlink:href="#H" transform="matrix(9.96 0 0 -9.96 96.9 752.891)"/></g></g><g data-name="Span"><clipPath id="bE"><path fill-rule="evenodd" d="M0 841.92h595.2V0H0z"/></clipPath><g clip-path="url(#bE)"><use xlink:href="#I" transform="matrix(9.96 0 0 -9.96 103.747 752.784)"/><use xlink:href="#C" transform="matrix(9.96 0 0 -9.96 106.873 752.9)"/><use xlink:href="#D" transform="matrix(9.96 0 0 -9.96 112.042 752.9)"/><use xlink:href="#L" transform="matrix(9.96 0 0 -9.96 116.604 752.9)"/><use xlink:href="#aN" transform="matrix(9.96 0 0 -9.96 122.81 752.784)"/><use xlink:href="#aN" transform="matrix(9.96 0 0 -9.96 131.327 752.784)"/><use xlink:href="#C" transform="matrix(9.96 0 0 -9.96 139.502 752.9)"/><use xlink:href="#G" transform="matrix(9.96 0 0 -9.96 145.002 752.784)"/><use xlink:href="#T" transform="matrix(9.96 0 0 -9.96 150.299 752.9)"/><use xlink:href="#R" transform="matrix(9.96 0 0 -9.96 156.136 752.9)"/><use xlink:href="#H" transform="matrix(9.96 0 0 -9.96 160.977 752.891)"/><use xlink:href="#E" transform="matrix(9.96 0 0 -9.96 164.815 752.784)"/><use xlink:href="#L" transform="matrix(9.96 0 0 -9.96 166.992 752.9)"/><use xlink:href="#G" transform="matrix(9.96 0 0 -9.96 173.188 752.784)"/></g></g><g data-name="Span"><clipPath id="bF"><path fill-rule="evenodd" d="M0 841.92h595.2V0H0z"/></clipPath><g clip-path="url(#bF)"><use xlink:href="#aY" transform="matrix(9.96 0 0 -9.96 78.203 779.88)"/><use xlink:href="#T" transform="matrix(9.96 0 0 -9.96 85.037 779.997)"/><use xlink:href="#T" transform="matrix(9.96 0 0 -9.96 90.903 779.997)"/><use xlink:href="#E" transform="matrix(9.96 0 0 -9.96 97.003 779.88)"/><use xlink:href="#H" transform="matrix(9.96 0 0 -9.96 98.922 779.987)"/><use xlink:href="#E" transform="matrix(9.96 0 0 -9.96 102.79 779.88)"/><use xlink:href="#L" transform="matrix(9.96 0 0 -9.96 104.967 779.997)"/><use xlink:href="#G" transform="matrix(9.96 0 0 -9.96 111.164 779.88)"/><use xlink:href="#R" transform="matrix(9.96 0 0 -9.96 116.431 779.997)"/><use xlink:href="#Q" transform="matrix(9.96 0 0 -9.96 121.87 779.88)"/></g></g><g data-name="Span"><clipPath id="bG"><path fill-rule="evenodd" d="M0 841.92h595.2V0H0z"/></clipPath><g clip-path="url(#bG)"><use xlink:href="#D" transform="matrix(9.96 0 0 -9.96 126.687 779.997)"/><use xlink:href="#L" transform="matrix(9.96 0 0 -9.96 131.249 779.997)"/><use xlink:href="#G" transform="matrix(9.96 0 0 -9.96 137.455 779.88)"/><use xlink:href="#Y" transform="matrix(9.96 0 0 -9.96 142.791 779.997)"/><use xlink:href="#E" transform="matrix(9.96 0 0 -9.96 147.209 779.88)"/><use xlink:href="#T" transform="matrix(9.96 0 0 -9.96 149.356 779.997)"/><use xlink:href="#C" transform="matrix(9.96 0 0 -9.96 155.222 779.997)"/><use xlink:href="#I" transform="matrix(9.96 0 0 -9.96 160.732 779.88)"/><use xlink:href="#R" transform="matrix(9.96 0 0 -9.96 163.828 779.997)"/><use xlink:href="#H" transform="matrix(9.96 0 0 -9.96 168.67 779.987)"/><use xlink:href="#E" transform="matrix(9.96 0 0 -9.96 172.507 779.88)"/><use xlink:href="#L" transform="matrix(9.96 0 0 -9.96 174.684 779.997)"/><use xlink:href="#G" transform="matrix(9.96 0 0 -9.96 180.881 779.88)"/><use xlink:href="#Y" transform="matrix(9.96 0 0 -9.96 186.217 779.997)"/></g></g><g data-name="Artifact"><clipPath id="bH"><path fill-rule="evenodd" d="M0 841.92h595.2V0H0z"/></clipPath><g clip-path="url(#bH)"><symbol id="bI"><path d="M.48 0H0v.127h.153v.384H0V.63l.067.004Q.1.639.12.648A.09.09 0 0 1 .171.73h.16V.127h.15V0z"/></symbol><use xlink:href="#bI" fill="#3b5fb5" transform="matrix(8.04 0 0 -8.04 560.665 817.2)"/><use xlink:href="#bI" fill="#3b5fb5" transform="matrix(8.04 0 0 -8.04 565.826 817.2)"/></g></g><g data-name="Span"><clipPath id="bJ"><path fill-rule="evenodd" d="M0 841.92h595.2V0H0z"/></clipPath><g clip-path="url(#bJ)"><use xlink:href="#bB" transform="matrix(11.04 0 0 -11.04 75.005 810.864)"/><use xlink:href="#U" transform="matrix(11.04 0 0 -11.04 81.464 810.864)"/><use xlink:href="#C" transform="matrix(11.04 0 0 -11.04 87.302 810.993)"/><use xlink:href="#P" transform="matrix(11.04 0 0 -11.04 96.315 810.993)"/><use xlink:href="#Y" transform="matrix(11.04 0 0 -11.04 102.348 810.993)"/><use xlink:href="#C" transform="matrix(11.04 0 0 -11.04 106.986 810.993)"/><use xlink:href="#L" transform="matrix(11.04 0 0 -11.04 115.62 810.993)"/><use xlink:href="#F" transform="matrix(11.04 0 0 -11.04 121.857 810.864)"/><use xlink:href="#H" transform="matrix(11.04 0 0 -11.04 128.394 810.983)"/><use xlink:href="#U" transform="matrix(11.04 0 0 -11.04 132.8 810.864)"/><use xlink:href="#C" transform="matrix(11.04 0 0 -11.04 138.671 810.993)"/><use xlink:href="#Y" transform="matrix(11.04 0 0 -11.04 144.444 810.993)"/><use xlink:href="#C" transform="matrix(11.04 0 0 -11.04 149.082 810.993)"/><use xlink:href="#H" transform="matrix(11.04 0 0 -11.04 157.44 810.983)"/><use xlink:href="#L" transform="matrix(11.04 0 0 -11.04 161.469 810.993)"/><use xlink:href="#L" transform="matrix(11.04 0 0 -11.04 167.938 810.993)"/><use xlink:href="#Q" transform="matrix(11.04 0 0 -11.04 174.785 810.864)"/><use xlink:href="#Y" transform="matrix(11.04 0 0 -11.04 177.122 810.993)"/><use xlink:href="#F" transform="matrix(11.04 0 0 -11.04 184.52 810.864)"/><use xlink:href="#L" transform="matrix(11.04 0 0 -11.04 188.208 810.993)"/><use xlink:href="#I" transform="matrix(11.04 0 0 -11.04 195.054 810.864)"/><use xlink:href="#D" transform="matrix(11.04 0 0 -11.04 201.632 810.993)"/><use xlink:href="#L" transform="matrix(11.04 0 0 -11.04 206.677 810.993)"/><use xlink:href="#aN" transform="matrix(11.04 0 0 -11.04 213.524 810.864)"/><use xlink:href="#B" transform="matrix(11.04 0 0 -11.04 223.03 813.403)"/><use xlink:href="#Q" transform="matrix(11.04 0 0 -11.04 229.521 810.864)"/><use xlink:href="#C" transform="matrix(11.04 0 0 -11.04 231.76 810.993)"/><use xlink:href="#H" transform="matrix(11.04 0 0 -11.04 237.249 810.983)"/><use xlink:href="#E" transform="matrix(11.04 0 0 -11.04 241.502 810.864)"/><use xlink:href="#G" transform="matrix(11.04 0 0 -11.04 244.293 810.864)"/><use xlink:href="#S" transform="matrix(11.04 0 0 -11.04 250.12 813.462)"/><use xlink:href="#Y" transform="matrix(11.04 0 0 -11.04 259.867 810.993)"/><use xlink:href="#H" transform="matrix(11.04 0 0 -11.04 264.22 810.983)"/><use xlink:href="#C" transform="matrix(11.04 0 0 -11.04 268.248 810.993)"/><use xlink:href="#B" transform="matrix(11.04 0 0 -11.04 274.366 813.403)"/><use xlink:href="#Y" transform="matrix(11.04 0 0 -11.04 280.523 810.993)"/><use xlink:href="#aL" transform="matrix(11.04 0 0 -11.04 288.743 810.864)"/></g></g><g data-name="Span"><clipPath id="bK"><path fill-rule="evenodd" d="M0 841.92h595.2V0H0z"/></clipPath><g clip-path="url(#bK)"><symbol id="bL"><path d="M.5 0H0v.063h.5z"/></symbol><use xlink:href="#bL" transform="matrix(11.04 0 0 -11.04 293.59 808.136)"/></g></g><g data-name="Span"><clipPath id="bM"><path fill-rule="evenodd" d="M0 841.92h595.2V0H0z"/></clipPath><g clip-path="url(#bM)"><symbol id="bN"><path d="M.7.5.55 0H.465L.363.358a.2.2 0 0 0-.008.046H.354A.2.2 0 0 0 .344.36L.23 0H.15L0 .5h.084L.187.124A.2.2 0 0 0 .195.079h.004a.2.2 0 0 0 .009.046L.322.5h.074L.499.123.506.078H.51a.2.2 0 0 0 .009.045L.62.5z"/></symbol><use xlink:href="#aX" transform="matrix(11.04 0 0 -11.04 299.185 810.864)"/><use xlink:href="#E" transform="matrix(11.04 0 0 -11.04 308.63 810.864)"/><use xlink:href="#Y" transform="matrix(11.04 0 0 -11.04 311.086 810.993)"/><use xlink:href="#T" transform="matrix(11.04 0 0 -11.04 318.572 810.993)"/><use xlink:href="#C" transform="matrix(11.04 0 0 -11.04 325.075 810.993)"/><use xlink:href="#Y" transform="matrix(11.04 0 0 -11.04 330.859 810.993)"/><use xlink:href="#D" transform="matrix(11.04 0 0 -11.04 335.497 810.993)"/><use xlink:href="#I" transform="matrix(11.04 0 0 -11.04 340.908 810.864)"/><use xlink:href="#E" transform="matrix(11.04 0 0 -11.04 344.631 810.864)"/><use xlink:href="#Z" transform="matrix(11.04 0 0 -11.04 347.389 810.993)"/><use xlink:href="#C" transform="matrix(11.04 0 0 -11.04 353.503 810.993)"/><use xlink:href="#T" transform="matrix(11.04 0 0 -11.04 359.277 810.993)"/><use xlink:href="#Z" transform="matrix(11.04 0 0 -11.04 369.226 810.993)"/><use xlink:href="#C" transform="matrix(11.04 0 0 -11.04 375.34 810.993)"/><use xlink:href="#Q" transform="matrix(11.04 0 0 -11.04 381.491 810.864)"/><use xlink:href="#L" transform="matrix(11.04 0 0 -11.04 383.73 810.993)"/><use xlink:href="#bN" transform="matrix(11.04 0 0 -11.04 389.812 810.864)"/></g></g><g data-name="Span"><clipPath id="bO"><path fill-rule="evenodd" d="M0 841.92h595.2V0H0z"/></clipPath><g clip-path="url(#bO)"><use xlink:href="#aM" transform="matrix(12 0 0 -12 398.316 810.993)"/></g></g></svg>