<svg xmlns="http://www.w3.org/2000/svg" width="1280" height="400" overflow="hidden"><path fill="#fff" d="M0-160h1280v720H0z"/><path fill="none" stroke="#042433" stroke-miterlimit="8" stroke-width="3" d="M202.5 65c0-8.008 6.492-14.5 14.5-14.5h108c8.008 0 14.5 6.492 14.5 14.5v58c0 8.008-6.492 14.5-14.5 14.5H217c-8.008 0-14.5-6.492-14.5-14.5z"/><text font-family="'Cambria Math', 'Cambria Math_MSFontService', sans-serif" font-size="48" font-weight="400" transform="translate(252.567 110)">𝑆</text><path fill="none" stroke="#042433" stroke-miterlimit="8" stroke-width="3" d="M568.5 65c0-8.008 6.492-14.5 14.5-14.5h108c8.008 0 14.5 6.492 14.5 14.5v58c0 8.008-6.492 14.5-14.5 14.5H583c-8.008 0-14.5-6.492-14.5-14.5z"/><text font-family="'Cambria Math', 'Cambria Math_MSFontService', sans-serif" font-size="48" font-weight="400" transform="translate(621.447 110)">𝐼</text><path fill="none" stroke="#042433" stroke-miterlimit="8" stroke-width="3" d="M933.5 65c0-8.008 6.492-14.5 14.5-14.5h108c8.01 0 14.5 6.492 14.5 14.5v58c0 8.008-6.49 14.5-14.5 14.5H948c-8.008 0-14.5-6.492-14.5-14.5z"/><text font-family="'Cambria Math', 'Cambria Math_MSFontService', sans-serif" font-size="48" font-weight="400" transform="translate(980.846 110)">𝑅</text><path fill="none" stroke="#042433" stroke-miterlimit="8" stroke-width="3" d="M202.5 285c0-8.008 6.492-14.5 14.5-14.5h108c8.008 0 14.5 6.492 14.5 14.5v58c0 8.008-6.492 14.5-14.5 14.5H217c-8.008 0-14.5-6.492-14.5-14.5z"/><text font-family="'Cambria Math', 'Cambria Math_MSFontService', sans-serif" font-size="48" font-weight="400" transform="translate(249.941 330)">𝑉</text><path d="M339 92h218.589v4H339Zm216.59-4 12 6-12 6zM705 92h218.589v4H705Zm216.589-4 12 6-12 6zM269 137v122.621h4V137Zm-4 120.621 6 12 6-12zm75.02 57.22L628.508 143.82l-2.04-3.441L337.98 311.401ZM628.827 148.28 636.09 137l-13.382.958z"/><path fill="none" stroke="#042433" stroke-miterlimit="8" stroke-width="3" d="M568.5 285c0-8.008 6.492-14.5 14.5-14.5h108c8.008 0 14.5 6.492 14.5 14.5v58c0 8.008-6.492 14.5-14.5 14.5H583c-8.008 0-14.5-6.492-14.5-14.5z"/><text font-family="'Cambria Math', 'Cambria Math_MSFontService', sans-serif" font-size="48" font-weight="400" transform="translate(614.007 330)">𝐷</text><path d="M638 137v122.621h-4V137Zm4 120.621-6 12-6-12z"/><text font-family="'Cambria Math', 'Cambria Math_MSFontService', sans-serif" font-size="48" font-weight="400" transform="translate(410.533 70)">𝜆</text><path fill-rule="evenodd" d="M477.803 33.573q6.843 1.805 10.511 7.793 3.669 5.988 3.668 14.449 0 8.485-3.656 14.449-3.656 5.966-10.523 7.77l-.563-1.805q5.414-1.805 8.051-7.125t2.637-13.523q0-7.922-2.625-13.16t-8.133-7.043zm-23.219 0 .633 1.805q-5.484 1.805-8.121 7.043t-2.637 13.16q0 8.203 2.637 13.523t8.051 7.125l-.563 1.805q-6.867-1.805-10.523-7.77t-3.656-14.449q0-8.46 3.668-14.449t10.511-7.793"/><text font-family="'Cambria Math', 'Cambria Math_MSFontService', sans-serif" font-size="48" font-weight="400" transform="translate(456.106 70)">𝑡</text></svg>