<?xml version="1.0" encoding="UTF-8"?>
<svg xmlns="http://www.w3.org/2000/svg" xmlns:xlink="http://www.w3.org/1999/xlink" width="504pt" height="316pt" viewBox="0 0 504 316">
<defs>
<g>
<g id="glyph-0-0">
<path d="M 0.398438 -3.390625 C 0.398438 -4.203125 0.480469 -4.855469 0.648438 -5.351562 C 0.816406 -5.847656 1.066406 -6.226562 1.394531 -6.496094 C 1.722656 -6.765625 2.140625 -6.898438 2.640625 -6.898438 C 3.007812 -6.898438 3.332031 -6.824219 3.609375 -6.675781 C 3.886719 -6.527344 4.117188 -6.316406 4.296875 -6.035156 C 4.480469 -5.753906 4.621094 -5.414062 4.726562 -5.011719 C 4.828125 -4.613281 4.878906 -4.070312 4.878906 -3.390625 C 4.878906 -2.582031 4.796875 -1.933594 4.632812 -1.4375 C 4.464844 -0.941406 4.21875 -0.558594 3.886719 -0.289062 C 3.558594 -0.0195312 3.140625 0.117188 2.640625 0.117188 C 1.976562 0.117188 1.457031 -0.121094 1.078125 -0.59375 C 0.625 -1.167969 0.398438 -2.097656 0.398438 -3.390625 M 1.265625 -3.390625 C 1.265625 -2.261719 1.398438 -1.511719 1.660156 -1.136719 C 1.925781 -0.761719 2.25 -0.578125 2.640625 -0.578125 C 3.027344 -0.578125 3.351562 -0.765625 3.617188 -1.140625 C 3.878906 -1.515625 4.011719 -2.265625 4.011719 -3.390625 C 4.011719 -4.519531 3.878906 -5.273438 3.617188 -5.644531 C 3.351562 -6.015625 3.023438 -6.203125 2.628906 -6.203125 C 2.242188 -6.203125 1.933594 -6.039062 1.703125 -5.710938 C 1.410156 -5.289062 1.265625 -4.515625 1.265625 -3.390625 Z M 1.265625 -3.390625 "/>
</g>
<g id="glyph-0-1">
<path d="M 0.398438 -1.800781 L 1.285156 -1.875 C 1.351562 -1.445312 1.503906 -1.121094 1.742188 -0.902344 C 1.980469 -0.683594 2.269531 -0.578125 2.605469 -0.578125 C 3.011719 -0.578125 3.355469 -0.730469 3.636719 -1.035156 C 3.917969 -1.34375 4.058594 -1.75 4.058594 -2.253906 C 4.058594 -2.734375 3.925781 -3.117188 3.652344 -3.394531 C 3.382812 -3.671875 3.03125 -3.8125 2.59375 -3.8125 C 2.320312 -3.8125 2.074219 -3.75 1.855469 -3.625 C 1.636719 -3.503906 1.464844 -3.34375 1.339844 -3.144531 L 0.546875 -3.25 L 1.214844 -6.777344 L 4.632812 -6.777344 L 4.632812 -5.972656 L 1.890625 -5.972656 L 1.519531 -4.125 C 1.929688 -4.414062 2.363281 -4.554688 2.816406 -4.554688 C 3.417969 -4.554688 3.921875 -4.347656 4.335938 -3.933594 C 4.75 -3.515625 4.953125 -2.984375 4.953125 -2.328125 C 4.953125 -1.707031 4.773438 -1.171875 4.410156 -0.71875 C 3.96875 -0.160156 3.367188 0.117188 2.605469 0.117188 C 1.980469 0.117188 1.472656 -0.0585938 1.074219 -0.40625 C 0.679688 -0.757812 0.453125 -1.222656 0.398438 -1.800781 Z M 0.398438 -1.800781 "/>
</g>
<g id="glyph-0-2">
<path d="M 3.578125 0 L 2.734375 0 L 2.734375 -5.375 C 2.53125 -5.183594 2.261719 -4.988281 1.933594 -4.796875 C 1.605469 -4.601562 1.308594 -4.457031 1.046875 -4.359375 L 1.046875 -5.175781 C 1.515625 -5.398438 1.929688 -5.664062 2.28125 -5.980469 C 2.636719 -6.296875 2.886719 -6.601562 3.03125 -6.898438 L 3.578125 -6.898438 Z M 3.578125 0 "/>
</g>
<g id="glyph-0-3">
<path d="M 4.832031 -0.8125 L 4.832031 0 L 0.289062 0 C 0.285156 -0.203125 0.316406 -0.398438 0.390625 -0.585938 C 0.503906 -0.894531 0.691406 -1.199219 0.945312 -1.5 C 1.199219 -1.800781 1.566406 -2.148438 2.046875 -2.539062 C 2.796875 -3.152344 3.300781 -3.636719 3.5625 -3.996094 C 3.824219 -4.355469 3.957031 -4.691406 3.957031 -5.011719 C 3.957031 -5.34375 3.835938 -5.628906 3.597656 -5.855469 C 3.359375 -6.085938 3.046875 -6.203125 2.664062 -6.203125 C 2.257812 -6.203125 1.929688 -6.078125 1.6875 -5.835938 C 1.445312 -5.59375 1.320312 -5.253906 1.316406 -4.824219 L 0.449219 -4.914062 C 0.507812 -5.558594 0.734375 -6.050781 1.121094 -6.390625 C 1.507812 -6.730469 2.027344 -6.898438 2.679688 -6.898438 C 3.339844 -6.898438 3.863281 -6.71875 4.246094 -6.351562 C 4.632812 -5.984375 4.824219 -5.53125 4.824219 -4.992188 C 4.824219 -4.71875 4.765625 -4.445312 4.65625 -4.179688 C 4.542969 -3.914062 4.355469 -3.636719 4.09375 -3.34375 C 3.832031 -3.046875 3.398438 -2.644531 2.792969 -2.132812 C 2.289062 -1.707031 1.960938 -1.417969 1.820312 -1.269531 C 1.675781 -1.117188 1.554688 -0.964844 1.460938 -0.8125 Z M 4.832031 -0.8125 "/>
</g>
<g id="glyph-0-4">
<path d="M 0.523438 -1.589844 L 1.335938 -1.664062 C 1.40625 -1.28125 1.535156 -1.007812 1.730469 -0.835938 C 1.921875 -0.664062 2.171875 -0.578125 2.476562 -0.578125 C 2.734375 -0.578125 2.960938 -0.636719 3.15625 -0.753906 C 3.351562 -0.875 3.511719 -1.03125 3.636719 -1.230469 C 3.761719 -1.429688 3.867188 -1.695312 3.953125 -2.035156 C 4.035156 -2.371094 4.078125 -2.714844 4.078125 -3.066406 C 4.078125 -3.101562 4.078125 -3.160156 4.074219 -3.234375 C 3.90625 -2.964844 3.675781 -2.746094 3.382812 -2.582031 C 3.089844 -2.414062 2.773438 -2.328125 2.433594 -2.328125 C 1.863281 -2.328125 1.382812 -2.535156 0.988281 -2.949219 C 0.59375 -3.359375 0.398438 -3.90625 0.398438 -4.578125 C 0.398438 -5.277344 0.605469 -5.835938 1.015625 -6.261719 C 1.425781 -6.6875 1.941406 -6.898438 2.558594 -6.898438 C 3.007812 -6.898438 3.414062 -6.78125 3.785156 -6.539062 C 4.15625 -6.296875 4.4375 -5.957031 4.628906 -5.511719 C 4.820312 -5.066406 4.917969 -4.421875 4.917969 -3.578125 C 4.917969 -2.699219 4.820312 -2 4.632812 -1.480469 C 4.441406 -0.957031 4.15625 -0.5625 3.78125 -0.289062 C 3.402344 -0.0195312 2.960938 0.117188 2.457031 0.117188 C 1.917969 0.117188 1.480469 -0.03125 1.140625 -0.332031 C 0.796875 -0.628906 0.59375 -1.046875 0.523438 -1.589844 M 3.980469 -4.621094 C 3.980469 -5.105469 3.851562 -5.492188 3.59375 -5.773438 C 3.335938 -6.058594 3.023438 -6.203125 2.664062 -6.203125 C 2.289062 -6.203125 1.960938 -6.046875 1.683594 -5.742188 C 1.40625 -5.4375 1.265625 -5.039062 1.265625 -4.550781 C 1.265625 -4.113281 1.398438 -3.757812 1.660156 -3.484375 C 1.925781 -3.210938 2.25 -3.074219 2.640625 -3.074219 C 3.03125 -3.074219 3.351562 -3.210938 3.601562 -3.484375 C 3.855469 -3.757812 3.980469 -4.136719 3.980469 -4.621094 Z M 3.980469 -4.621094 "/>
</g>
<g id="glyph-0-5">
<path d="M 0.304688 -2.0625 L 0.304688 -2.910156 L 2.898438 -2.910156 L 2.898438 -2.0625 Z M 0.304688 -2.0625 "/>
</g>
<g id="glyph-0-6">
<path d="M 3.101562 0 L 3.101562 -1.644531 L 0.121094 -1.644531 L 0.121094 -2.417969 L 3.257812 -6.871094 L 3.945312 -6.871094 L 3.945312 -2.417969 L 4.875 -2.417969 L 4.875 -1.644531 L 3.945312 -1.644531 L 3.945312 0 L 3.101562 0 M 3.101562 -2.417969 L 3.101562 -5.515625 L 0.953125 -2.417969 Z M 3.101562 -2.417969 "/>
</g>
<g id="glyph-0-7">
<path d="M 0.453125 -5.972656 L 0.453125 -6.78125 L 4.902344 -6.78125 L 4.902344 -6.125 C 4.464844 -5.660156 4.03125 -5.042969 3.601562 -4.269531 C 3.171875 -3.5 2.839844 -2.703125 2.605469 -1.890625 C 2.4375 -1.3125 2.328125 -0.683594 2.28125 0 L 1.414062 0 C 1.425781 -0.539062 1.53125 -1.195312 1.734375 -1.960938 C 1.9375 -2.726562 2.230469 -3.464844 2.609375 -4.175781 C 2.988281 -4.886719 3.390625 -5.484375 3.820312 -5.972656 Z M 0.453125 -5.972656 "/>
</g>
<g id="glyph-0-8">
<path d="M 1.695312 -3.726562 C 1.347656 -3.855469 1.085938 -4.039062 0.917969 -4.273438 C 0.75 -4.511719 0.664062 -4.796875 0.664062 -5.128906 C 0.664062 -5.628906 0.84375 -6.046875 1.203125 -6.390625 C 1.5625 -6.730469 2.042969 -6.898438 2.640625 -6.898438 C 3.238281 -6.898438 3.722656 -6.726562 4.085938 -6.378906 C 4.453125 -6.027344 4.636719 -5.605469 4.636719 -5.105469 C 4.636719 -4.785156 4.550781 -4.507812 4.386719 -4.273438 C 4.21875 -4.035156 3.964844 -3.855469 3.625 -3.726562 C 4.046875 -3.589844 4.367188 -3.367188 4.585938 -3.0625 C 4.808594 -2.753906 4.917969 -2.390625 4.917969 -1.964844 C 4.917969 -1.375 4.710938 -0.882812 4.292969 -0.484375 C 3.878906 -0.0820312 3.332031 0.117188 2.652344 0.117188 C 1.976562 0.117188 1.429688 -0.0820312 1.011719 -0.484375 C 0.597656 -0.886719 0.390625 -1.386719 0.390625 -1.988281 C 0.390625 -2.433594 0.503906 -2.808594 0.730469 -3.109375 C 0.957031 -3.410156 1.277344 -3.617188 1.695312 -3.726562 M 1.527344 -5.15625 C 1.527344 -4.832031 1.632812 -4.566406 1.84375 -4.359375 C 2.050781 -4.152344 2.324219 -4.050781 2.65625 -4.050781 C 2.984375 -4.050781 3.25 -4.152344 3.457031 -4.355469 C 3.664062 -4.5625 3.769531 -4.8125 3.769531 -5.109375 C 3.769531 -5.417969 3.660156 -5.679688 3.449219 -5.890625 C 3.234375 -6.101562 2.96875 -6.207031 2.648438 -6.207031 C 2.328125 -6.207031 2.058594 -6.101562 1.847656 -5.898438 C 1.632812 -5.691406 1.527344 -5.445312 1.527344 -5.15625 M 1.257812 -1.984375 C 1.257812 -1.742188 1.3125 -1.507812 1.425781 -1.285156 C 1.542969 -1.058594 1.710938 -0.886719 1.9375 -0.761719 C 2.160156 -0.636719 2.402344 -0.578125 2.664062 -0.578125 C 3.066406 -0.578125 3.398438 -0.707031 3.660156 -0.964844 C 3.921875 -1.226562 4.054688 -1.554688 4.054688 -1.953125 C 4.054688 -2.359375 3.917969 -2.695312 3.648438 -2.960938 C 3.378906 -3.226562 3.039062 -3.359375 2.632812 -3.359375 C 2.238281 -3.359375 1.910156 -3.230469 1.648438 -2.96875 C 1.386719 -2.703125 1.257812 -2.375 1.257812 -1.984375 Z M 1.257812 -1.984375 "/>
</g>
<g id="glyph-0-9">
<path d="M -0.015625 0 L 2.625 -6.871094 L 3.605469 -6.871094 L 6.417969 0 L 5.382812 0 L 4.578125 -2.082031 L 1.707031 -2.082031 L 0.953125 0 L -0.015625 0 M 1.96875 -2.820312 L 4.296875 -2.820312 L 3.582031 -4.726562 C 3.363281 -5.304688 3.199219 -5.777344 3.09375 -6.148438 C 3.007812 -5.710938 2.882812 -5.273438 2.722656 -4.835938 Z M 1.96875 -2.820312 "/>
</g>
<g id="glyph-0-10">
<path d="M 0.632812 1.90625 L 0.632812 -4.976562 L 1.402344 -4.976562 L 1.402344 -4.332031 C 1.582031 -4.585938 1.789062 -4.773438 2.015625 -4.902344 C 2.242188 -5.027344 2.519531 -5.089844 2.84375 -5.089844 C 3.269531 -5.089844 3.644531 -4.980469 3.96875 -4.761719 C 4.296875 -4.542969 4.539062 -4.234375 4.707031 -3.835938 C 4.871094 -3.4375 4.953125 -3 4.953125 -2.527344 C 4.953125 -2.015625 4.863281 -1.558594 4.679688 -1.152344 C 4.496094 -0.742188 4.230469 -0.429688 3.882812 -0.214844 C 3.535156 0.00390625 3.167969 0.113281 2.785156 0.113281 C 2.503906 0.113281 2.25 0.0546875 2.027344 -0.0664062 C 1.804688 -0.183594 1.621094 -0.335938 1.476562 -0.515625 L 1.476562 1.90625 L 0.632812 1.90625 M 1.398438 -2.460938 C 1.398438 -1.820312 1.527344 -1.347656 1.785156 -1.039062 C 2.046875 -0.734375 2.359375 -0.582031 2.726562 -0.582031 C 3.101562 -0.582031 3.425781 -0.738281 3.691406 -1.058594 C 3.957031 -1.375 4.09375 -1.867188 4.09375 -2.53125 C 4.09375 -3.164062 3.960938 -3.640625 3.699219 -3.957031 C 3.441406 -4.273438 3.128906 -4.429688 2.765625 -4.429688 C 2.40625 -4.429688 2.089844 -4.261719 1.8125 -3.925781 C 1.535156 -3.589844 1.398438 -3.101562 1.398438 -2.460938 Z M 1.398438 -2.460938 "/>
</g>
<g id="glyph-0-11">
<path d="M 0.625 0 L 0.625 -4.976562 L 1.382812 -4.976562 L 1.382812 -4.222656 C 1.578125 -4.578125 1.753906 -4.808594 1.917969 -4.921875 C 2.082031 -5.035156 2.265625 -5.089844 2.460938 -5.089844 C 2.746094 -5.089844 3.035156 -5 3.328125 -4.820312 L 3.039062 -4.035156 C 2.832031 -4.15625 2.625 -4.21875 2.417969 -4.21875 C 2.234375 -4.21875 2.070312 -4.164062 1.921875 -4.050781 C 1.773438 -3.941406 1.671875 -3.789062 1.609375 -3.589844 C 1.515625 -3.289062 1.46875 -2.960938 1.46875 -2.605469 L 1.46875 0 Z M 0.625 0 "/>
</g>
<g id="glyph-0-12">
</g>
<g id="glyph-0-13">
<path d="M 0.710938 0 L 0.710938 -6.871094 L 2.082031 -6.871094 L 3.707031 -2.007812 C 3.859375 -1.554688 3.96875 -1.214844 4.035156 -0.988281 C 4.113281 -1.238281 4.234375 -1.605469 4.402344 -2.089844 L 6.046875 -6.871094 L 7.269531 -6.871094 L 7.269531 0 L 6.394531 0 L 6.394531 -5.75 L 4.398438 0 L 3.578125 0 L 1.589844 -5.851562 L 1.589844 0 Z M 0.710938 0 "/>
</g>
<g id="glyph-0-14">
<path d="M 3.882812 -0.613281 C 3.570312 -0.347656 3.269531 -0.160156 2.980469 -0.0507812 C 2.691406 0.0585938 2.378906 0.113281 2.046875 0.113281 C 1.5 0.113281 1.082031 -0.0195312 0.789062 -0.289062 C 0.492188 -0.554688 0.347656 -0.898438 0.347656 -1.3125 C 0.347656 -1.554688 0.402344 -1.777344 0.511719 -1.980469 C 0.625 -2.183594 0.769531 -2.34375 0.949219 -2.464844 C 1.128906 -2.585938 1.332031 -2.679688 1.554688 -2.742188 C 1.722656 -2.785156 1.972656 -2.828125 2.304688 -2.867188 C 2.988281 -2.949219 3.488281 -3.046875 3.8125 -3.160156 C 3.8125 -3.273438 3.816406 -3.347656 3.816406 -3.378906 C 3.816406 -3.722656 3.734375 -3.964844 3.578125 -4.105469 C 3.359375 -4.296875 3.039062 -4.390625 2.617188 -4.390625 C 2.21875 -4.390625 1.925781 -4.324219 1.738281 -4.183594 C 1.546875 -4.042969 1.40625 -3.796875 1.316406 -3.445312 L 0.492188 -3.558594 C 0.566406 -3.910156 0.691406 -4.195312 0.863281 -4.414062 C 1.035156 -4.628906 1.28125 -4.796875 1.609375 -4.914062 C 1.933594 -5.03125 2.308594 -5.089844 2.738281 -5.089844 C 3.164062 -5.089844 3.507812 -5.039062 3.773438 -4.941406 C 4.039062 -4.839844 4.234375 -4.714844 4.359375 -4.5625 C 4.484375 -4.410156 4.570312 -4.21875 4.621094 -3.988281 C 4.648438 -3.84375 4.664062 -3.585938 4.664062 -3.210938 L 4.664062 -2.085938 C 4.664062 -1.300781 4.683594 -0.804688 4.71875 -0.597656 C 4.753906 -0.390625 4.824219 -0.191406 4.929688 0 L 4.050781 0 C 3.960938 -0.175781 3.90625 -0.378906 3.882812 -0.613281 M 3.8125 -2.5 C 3.503906 -2.375 3.046875 -2.265625 2.433594 -2.179688 C 2.085938 -2.128906 1.839844 -2.074219 1.695312 -2.011719 C 1.554688 -1.949219 1.441406 -1.855469 1.363281 -1.738281 C 1.285156 -1.617188 1.246094 -1.484375 1.246094 -1.335938 C 1.246094 -1.109375 1.332031 -0.921875 1.503906 -0.773438 C 1.671875 -0.625 1.921875 -0.546875 2.25 -0.546875 C 2.574219 -0.546875 2.863281 -0.621094 3.117188 -0.761719 C 3.371094 -0.902344 3.554688 -1.097656 3.675781 -1.34375 C 3.765625 -1.535156 3.8125 -1.816406 3.8125 -2.1875 Z M 3.8125 -2.5 "/>
</g>
<g id="glyph-0-15">
<path d="M 0.59375 1.917969 L 0.5 1.125 C 0.6875 1.175781 0.847656 1.199219 0.984375 1.199219 C 1.171875 1.199219 1.320312 1.167969 1.433594 1.105469 C 1.546875 1.042969 1.640625 0.957031 1.710938 0.84375 C 1.765625 0.757812 1.851562 0.550781 1.96875 0.214844 C 1.984375 0.167969 2.007812 0.101562 2.042969 0.0078125 L 0.15625 -4.976562 L 1.0625 -4.976562 L 2.101562 -2.09375 C 2.234375 -1.730469 2.355469 -1.34375 2.460938 -0.941406 C 2.558594 -1.328125 2.671875 -1.707031 2.808594 -2.078125 L 3.871094 -4.976562 L 4.714844 -4.976562 L 2.820312 0.0859375 C 2.617188 0.632812 2.460938 1.007812 2.347656 1.214844 C 2.199219 1.492188 2.027344 1.695312 1.832031 1.824219 C 1.640625 1.957031 1.40625 2.019531 1.140625 2.019531 C 0.976562 2.019531 0.796875 1.984375 0.59375 1.917969 Z M 0.59375 1.917969 "/>
</g>
<g id="glyph-0-16">
<path d="M 4.039062 -1.601562 L 4.914062 -1.496094 C 4.773438 -0.984375 4.519531 -0.589844 4.148438 -0.308594 C 3.777344 -0.0273438 3.300781 0.113281 2.722656 0.113281 C 1.996094 0.113281 1.417969 -0.113281 0.992188 -0.558594 C 0.566406 -1.007812 0.351562 -1.636719 0.351562 -2.445312 C 0.351562 -3.285156 0.566406 -3.933594 1 -4.398438 C 1.429688 -4.859375 1.988281 -5.089844 2.675781 -5.089844 C 3.34375 -5.089844 3.886719 -4.863281 4.308594 -4.410156 C 4.730469 -3.957031 4.941406 -3.320312 4.941406 -2.5 C 4.941406 -2.449219 4.9375 -2.375 4.9375 -2.273438 L 1.222656 -2.273438 C 1.253906 -1.726562 1.410156 -1.308594 1.6875 -1.015625 C 1.964844 -0.726562 2.3125 -0.582031 2.726562 -0.582031 C 3.039062 -0.582031 3.300781 -0.664062 3.519531 -0.824219 C 3.738281 -0.988281 3.914062 -1.246094 4.039062 -1.601562 M 1.269531 -2.96875 L 4.050781 -2.96875 C 4.011719 -3.386719 3.90625 -3.699219 3.730469 -3.910156 C 3.460938 -4.234375 3.113281 -4.398438 2.6875 -4.398438 C 2.296875 -4.398438 1.972656 -4.265625 1.707031 -4.007812 C 1.445312 -3.75 1.296875 -3.402344 1.269531 -2.96875 Z M 1.269531 -2.96875 "/>
</g>
<g id="glyph-0-17">
<path d="M 0.632812 0 L 0.632812 -4.976562 L 1.390625 -4.976562 L 1.390625 -4.269531 C 1.757812 -4.816406 2.285156 -5.089844 2.976562 -5.089844 C 3.277344 -5.089844 3.550781 -5.035156 3.804688 -4.929688 C 4.054688 -4.820312 4.242188 -4.679688 4.367188 -4.503906 C 4.492188 -4.328125 4.582031 -4.121094 4.632812 -3.882812 C 4.664062 -3.726562 4.679688 -3.453125 4.679688 -3.0625 L 4.679688 0 L 3.835938 0 L 3.835938 -3.027344 C 3.835938 -3.371094 3.800781 -3.628906 3.734375 -3.800781 C 3.671875 -3.96875 3.554688 -4.105469 3.386719 -4.207031 C 3.21875 -4.308594 3.023438 -4.359375 2.796875 -4.359375 C 2.4375 -4.359375 2.128906 -4.246094 1.867188 -4.015625 C 1.605469 -3.789062 1.476562 -3.355469 1.476562 -2.71875 L 1.476562 0 Z M 0.632812 0 "/>
</g>
<g id="glyph-0-18">
<path d="M 0.558594 -5.222656 C 0.558594 -5.710938 0.679688 -6.128906 0.929688 -6.472656 C 1.175781 -6.816406 1.53125 -6.988281 2 -6.988281 C 2.433594 -6.988281 2.789062 -6.835938 3.074219 -6.527344 C 3.355469 -6.21875 3.496094 -5.765625 3.496094 -5.171875 C 3.496094 -4.589844 3.355469 -4.140625 3.066406 -3.828125 C 2.78125 -3.511719 2.429688 -3.355469 2.011719 -3.355469 C 1.59375 -3.355469 1.25 -3.511719 0.972656 -3.820312 C 0.695312 -4.128906 0.558594 -4.597656 0.558594 -5.222656 M 2.023438 -6.40625 C 1.816406 -6.40625 1.640625 -6.316406 1.503906 -6.136719 C 1.363281 -5.953125 1.292969 -5.621094 1.292969 -5.136719 C 1.292969 -4.695312 1.363281 -4.386719 1.503906 -4.207031 C 1.644531 -4.027344 1.820312 -3.9375 2.023438 -3.9375 C 2.238281 -3.9375 2.414062 -4.027344 2.550781 -4.210938 C 2.691406 -4.390625 2.761719 -4.722656 2.761719 -5.203125 C 2.761719 -5.648438 2.691406 -5.957031 2.550781 -6.136719 C 2.410156 -6.316406 2.234375 -6.40625 2.023438 -6.40625 M 2.03125 0.253906 L 5.789062 -6.988281 L 6.472656 -6.988281 L 2.726562 0.253906 L 2.03125 0.253906 M 5 -1.613281 C 5 -2.105469 5.125 -2.523438 5.371094 -2.867188 C 5.617188 -3.207031 5.976562 -3.378906 6.449219 -3.378906 C 6.882812 -3.378906 7.238281 -3.226562 7.519531 -2.917969 C 7.804688 -2.609375 7.945312 -2.15625 7.945312 -1.5625 C 7.945312 -0.980469 7.800781 -0.53125 7.515625 -0.21875 C 7.230469 0.0976562 6.875 0.253906 6.453125 0.253906 C 6.039062 0.253906 5.691406 0.0976562 5.417969 -0.214844 C 5.140625 -0.523438 5 -0.992188 5 -1.613281 M 6.472656 -2.796875 C 6.261719 -2.796875 6.085938 -2.707031 5.945312 -2.527344 C 5.808594 -2.34375 5.738281 -2.011719 5.738281 -1.527344 C 5.738281 -1.089844 5.808594 -0.78125 5.949219 -0.601562 C 6.089844 -0.417969 6.261719 -0.328125 6.46875 -0.328125 C 6.683594 -0.328125 6.863281 -0.417969 7 -0.601562 C 7.140625 -0.78125 7.210938 -1.113281 7.210938 -1.59375 C 7.210938 -2.039062 7.140625 -2.347656 7 -2.527344 C 6.859375 -2.707031 6.683594 -2.796875 6.472656 -2.796875 Z M 6.472656 -2.796875 "/>
</g>
<g id="glyph-0-19">
<path d="M 5.644531 -2.410156 L 6.554688 -2.179688 C 6.363281 -1.433594 6.019531 -0.863281 5.523438 -0.472656 C 5.027344 -0.078125 4.421875 0.117188 3.707031 0.117188 C 2.96875 0.117188 2.363281 -0.0351562 1.902344 -0.335938 C 1.4375 -0.636719 1.082031 -1.074219 0.839844 -1.644531 C 0.597656 -2.21875 0.476562 -2.832031 0.476562 -3.488281 C 0.476562 -4.203125 0.613281 -4.828125 0.886719 -5.359375 C 1.160156 -5.894531 1.550781 -6.296875 2.054688 -6.574219 C 2.558594 -6.851562 3.117188 -6.988281 3.722656 -6.988281 C 4.410156 -6.988281 4.988281 -6.8125 5.457031 -6.464844 C 5.925781 -6.113281 6.25 -5.621094 6.4375 -4.988281 L 5.539062 -4.777344 C 5.382812 -5.277344 5.148438 -5.640625 4.847656 -5.867188 C 4.542969 -6.097656 4.164062 -6.210938 3.703125 -6.210938 C 3.175781 -6.210938 2.734375 -6.085938 2.378906 -5.832031 C 2.023438 -5.578125 1.773438 -5.238281 1.632812 -4.8125 C 1.488281 -4.386719 1.414062 -3.945312 1.414062 -3.492188 C 1.414062 -2.90625 1.5 -2.398438 1.671875 -1.960938 C 1.839844 -1.527344 2.105469 -1.199219 2.464844 -0.984375 C 2.824219 -0.769531 3.214844 -0.660156 3.632812 -0.660156 C 4.140625 -0.660156 4.574219 -0.808594 4.925781 -1.101562 C 5.28125 -1.394531 5.519531 -1.832031 5.644531 -2.410156 Z M 5.644531 -2.410156 "/>
</g>
<g id="glyph-0-20">
<path d="M 0.894531 0 L 0.894531 -6.871094 L 1.804688 -6.871094 L 1.804688 0 Z M 0.894531 0 "/>
</g>
<g id="glyph-0-21">
<path d="M 0.871094 0 L 0.871094 -0.960938 L 1.832031 -0.960938 L 1.832031 0 Z M 0.871094 0 "/>
</g>
<g id="glyph-0-22">
<path d="M 0.402344 -1.8125 L 1.246094 -1.925781 C 1.34375 -1.449219 1.507812 -1.105469 1.742188 -0.894531 C 1.972656 -0.683594 2.257812 -0.578125 2.59375 -0.578125 C 2.988281 -0.578125 3.324219 -0.714844 3.597656 -0.988281 C 3.871094 -1.265625 4.007812 -1.605469 4.007812 -2.011719 C 4.007812 -2.398438 3.882812 -2.71875 3.628906 -2.96875 C 3.375 -3.222656 3.054688 -3.347656 2.664062 -3.347656 C 2.503906 -3.347656 2.304688 -3.316406 2.066406 -3.253906 L 2.160156 -3.992188 C 2.21875 -3.988281 2.261719 -3.984375 2.296875 -3.984375 C 2.65625 -3.984375 2.980469 -4.078125 3.265625 -4.265625 C 3.554688 -4.453125 3.699219 -4.742188 3.699219 -5.132812 C 3.699219 -5.441406 3.59375 -5.699219 3.382812 -5.902344 C 3.175781 -6.105469 2.90625 -6.207031 2.574219 -6.207031 C 2.246094 -6.207031 1.972656 -6.101562 1.753906 -5.898438 C 1.535156 -5.691406 1.394531 -5.382812 1.332031 -4.96875 L 0.488281 -5.117188 C 0.589844 -5.683594 0.824219 -6.121094 1.191406 -6.433594 C 1.554688 -6.746094 2.011719 -6.898438 2.554688 -6.898438 C 2.929688 -6.898438 3.273438 -6.820312 3.589844 -6.660156 C 3.90625 -6.496094 4.148438 -6.277344 4.316406 -6 C 4.480469 -5.722656 4.566406 -5.425781 4.566406 -5.113281 C 4.566406 -4.816406 4.484375 -4.546875 4.328125 -4.304688 C 4.167969 -4.058594 3.929688 -3.867188 3.617188 -3.722656 C 4.023438 -3.628906 4.339844 -3.433594 4.566406 -3.136719 C 4.789062 -2.84375 4.902344 -2.472656 4.902344 -2.03125 C 4.902344 -1.429688 4.683594 -0.921875 4.246094 -0.503906 C 3.808594 -0.0859375 3.257812 0.121094 2.585938 0.121094 C 1.984375 0.121094 1.484375 -0.0585938 1.085938 -0.417969 C 0.6875 -0.777344 0.460938 -1.242188 0.402344 -1.8125 Z M 0.402344 -1.8125 "/>
</g>
<g id="glyph-1-0">
<path d="M 3.109375 0 L 3.109375 -7.578125 L 0.28125 -7.578125 L 0.28125 -8.589844 L 7.089844 -8.589844 L 7.089844 -7.578125 L 4.25 -7.578125 L 4.25 0 Z M 3.109375 0 "/>
</g>
<g id="glyph-1-1">
<path d="M 0.796875 -7.375 L 0.796875 -8.589844 L 1.851562 -8.589844 L 1.851562 -7.375 L 0.796875 -7.375 M 0.796875 0 L 0.796875 -6.222656 L 1.851562 -6.222656 L 1.851562 0 Z M 0.796875 0 "/>
</g>
<g id="glyph-1-2">
<path d="M 0.789062 0 L 0.789062 -6.222656 L 1.734375 -6.222656 L 1.734375 -5.351562 C 1.929688 -5.65625 2.1875 -5.898438 2.515625 -6.085938 C 2.835938 -6.269531 3.207031 -6.363281 3.621094 -6.363281 C 4.082031 -6.363281 4.460938 -6.265625 4.753906 -6.078125 C 5.050781 -5.882812 5.257812 -5.617188 5.378906 -5.273438 C 5.871094 -6 6.511719 -6.363281 7.300781 -6.363281 C 7.917969 -6.363281 8.390625 -6.191406 8.726562 -5.851562 C 9.054688 -5.507812 9.222656 -4.980469 9.222656 -4.273438 L 9.222656 0 L 8.171875 0 L 8.171875 -3.921875 C 8.171875 -4.339844 8.140625 -4.644531 8.070312 -4.832031 C 8.003906 -5.015625 7.878906 -5.164062 7.699219 -5.28125 C 7.519531 -5.390625 7.308594 -5.449219 7.066406 -5.449219 C 6.628906 -5.449219 6.265625 -5.304688 5.976562 -5.011719 C 5.6875 -4.722656 5.542969 -4.253906 5.542969 -3.617188 L 5.542969 0 L 4.488281 0 L 4.488281 -4.042969 C 4.488281 -4.511719 4.402344 -4.863281 4.230469 -5.097656 C 4.058594 -5.332031 3.777344 -5.449219 3.386719 -5.449219 C 3.089844 -5.449219 2.816406 -5.371094 2.5625 -5.214844 C 2.3125 -5.058594 2.128906 -4.828125 2.015625 -4.53125 C 1.902344 -4.226562 1.84375 -3.792969 1.84375 -3.226562 L 1.84375 0 Z M 0.789062 0 "/>
</g>
<g id="glyph-1-3">
<path d="M 5.050781 -2.003906 L 6.140625 -1.867188 C 5.96875 -1.230469 5.648438 -0.738281 5.1875 -0.386719 C 4.71875 -0.0351562 4.125 0.140625 3.40625 0.140625 C 2.492188 0.140625 1.773438 -0.140625 1.238281 -0.699219 C 0.707031 -1.261719 0.4375 -2.046875 0.4375 -3.058594 C 0.4375 -4.105469 0.710938 -4.917969 1.25 -5.496094 C 1.789062 -6.074219 2.484375 -6.363281 3.34375 -6.363281 C 4.179688 -6.363281 4.859375 -6.078125 5.382812 -5.515625 C 5.914062 -4.945312 6.175781 -4.148438 6.175781 -3.125 C 6.175781 -3.058594 6.171875 -2.964844 6.171875 -2.84375 L 1.53125 -2.84375 C 1.566406 -2.15625 1.761719 -1.632812 2.109375 -1.273438 C 2.457031 -0.90625 2.890625 -0.726562 3.410156 -0.726562 C 3.796875 -0.726562 4.125 -0.828125 4.398438 -1.03125 C 4.671875 -1.234375 4.890625 -1.558594 5.050781 -2.003906 M 1.585938 -3.710938 L 5.0625 -3.710938 C 5.015625 -4.230469 4.882812 -4.625 4.664062 -4.886719 C 4.328125 -5.292969 3.890625 -5.496094 3.359375 -5.496094 C 2.871094 -5.496094 2.464844 -5.332031 2.136719 -5.007812 C 1.804688 -4.683594 1.625 -4.25 1.585938 -3.710938 Z M 1.585938 -3.710938 "/>
</g>
<g id="glyph-2-0">
<path d="M 0 -1.117188 L -8.589844 -1.121094 L -8.589844 -2.257812 L 0 -2.257812 Z M 0 -1.117188 "/>
</g>
<g id="glyph-2-1">
<path d="M 0 -0.789062 L -6.222656 -0.792969 L -6.222656 -1.742188 L -5.335938 -1.742188 C -6.019531 -2.195312 -6.363281 -2.855469 -6.363281 -3.722656 C -6.363281 -4.09375 -6.296875 -4.441406 -6.160156 -4.753906 C -6.027344 -5.070312 -5.847656 -5.304688 -5.632812 -5.460938 C -5.410156 -5.617188 -5.152344 -5.726562 -4.851562 -5.789062 C -4.65625 -5.828125 -4.3125 -5.847656 -3.824219 -5.847656 L 0 -5.847656 L 0 -4.792969 L -3.785156 -4.792969 C -4.214844 -4.792969 -4.535156 -4.75 -4.75 -4.671875 C -4.960938 -4.585938 -5.132812 -4.441406 -5.257812 -4.234375 C -5.386719 -4.023438 -5.449219 -3.78125 -5.449219 -3.5 C -5.449219 -3.046875 -5.304688 -2.660156 -5.023438 -2.335938 C -4.734375 -2.007812 -4.195312 -1.847656 -3.398438 -1.847656 L 0 -1.84375 Z M 0 -0.789062 "/>
</g>
<g id="glyph-2-2">
<path d="M -2.277344 -4.851562 L -2.144531 -5.890625 C -1.429688 -5.773438 -0.871094 -5.484375 -0.464844 -5.019531 C -0.0625 -4.550781 0.140625 -3.976562 0.140625 -3.296875 C 0.140625 -2.445312 -0.136719 -1.761719 -0.695312 -1.246094 C -1.25 -0.726562 -2.046875 -0.46875 -3.085938 -0.46875 C -3.757812 -0.46875 -4.347656 -0.582031 -4.851562 -0.804688 C -5.355469 -1.027344 -5.734375 -1.363281 -5.984375 -1.820312 C -6.238281 -2.273438 -6.363281 -2.769531 -6.363281 -3.304688 C -6.363281 -3.980469 -6.191406 -4.53125 -5.851562 -4.960938 C -5.507812 -5.390625 -5.023438 -5.667969 -4.394531 -5.789062 L -4.234375 -4.765625 C -4.652344 -4.664062 -4.96875 -4.492188 -5.179688 -4.246094 C -5.390625 -3.996094 -5.496094 -3.699219 -5.496094 -3.347656 C -5.496094 -2.8125 -5.304688 -2.382812 -4.925781 -2.050781 C -4.542969 -1.71875 -3.941406 -1.554688 -3.117188 -1.554688 C -2.28125 -1.554688 -1.671875 -1.710938 -1.292969 -2.03125 C -0.917969 -2.351562 -0.726562 -2.769531 -0.726562 -3.289062 C -0.726562 -3.699219 -0.851562 -4.046875 -1.105469 -4.324219 C -1.359375 -4.601562 -1.75 -4.777344 -2.277344 -4.851562 Z M -2.277344 -4.851562 "/>
</g>
<g id="glyph-2-3">
<path d="M -7.375 -0.796875 L -8.589844 -0.796875 L -8.589844 -1.851562 L -7.375 -1.851562 L -7.375 -0.796875 M 0 -0.796875 L -6.222656 -0.796875 L -6.222656 -1.851562 L 0 -1.851562 Z M 0 -0.796875 "/>
</g>
<g id="glyph-2-4">
<path d="M 0 -4.828125 L -0.785156 -4.828125 C -0.167969 -4.433594 0.140625 -3.851562 0.140625 -3.085938 C 0.140625 -2.589844 0.00390625 -2.136719 -0.269531 -1.71875 C -0.542969 -1.304688 -0.925781 -0.980469 -1.414062 -0.753906 C -1.90625 -0.523438 -2.46875 -0.410156 -3.105469 -0.410156 C -3.726562 -0.410156 -4.289062 -0.511719 -4.796875 -0.722656 C -5.300781 -0.925781 -5.6875 -1.238281 -5.960938 -1.652344 C -6.226562 -2.066406 -6.363281 -2.527344 -6.363281 -3.042969 C -6.363281 -3.417969 -6.285156 -3.75 -6.125 -4.042969 C -5.96875 -4.335938 -5.761719 -4.574219 -5.507812 -4.757812 L -8.589844 -4.757812 L -8.589844 -5.808594 L 0 -5.804688 L 0 -4.828125 M -3.105469 -1.496094 C -2.308594 -1.492188 -1.710938 -1.660156 -1.316406 -2 C -0.921875 -2.332031 -0.726562 -2.730469 -0.726562 -3.1875 C -0.726562 -3.648438 -0.914062 -4.039062 -1.292969 -4.363281 C -1.667969 -4.683594 -2.242188 -4.84375 -3.015625 -4.84375 C -3.867188 -4.84375 -4.492188 -4.679688 -4.890625 -4.351562 C -5.289062 -4.023438 -5.492188 -3.621094 -5.492188 -3.140625 C -5.492188 -2.671875 -5.296875 -2.28125 -4.914062 -1.964844 C -4.53125 -1.652344 -3.929688 -1.492188 -3.105469 -1.496094 Z M -3.105469 -1.496094 "/>
</g>
<g id="glyph-2-5">
<path d="M -2.003906 -5.050781 L -1.867188 -6.140625 C -1.230469 -5.96875 -0.738281 -5.648438 -0.386719 -5.1875 C -0.0351562 -4.71875 0.140625 -4.125 0.140625 -3.40625 C 0.140625 -2.492188 -0.140625 -1.773438 -0.699219 -1.238281 C -1.261719 -0.707031 -2.046875 -0.441406 -3.058594 -0.441406 C -4.105469 -0.441406 -4.917969 -0.710938 -5.496094 -1.25 C -6.074219 -1.789062 -6.363281 -2.484375 -6.363281 -3.347656 C -6.363281 -4.179688 -6.078125 -4.859375 -5.515625 -5.382812 C -4.945312 -5.914062 -4.148438 -6.175781 -3.121094 -6.175781 C -3.058594 -6.175781 -2.964844 -6.171875 -2.839844 -6.171875 L -2.84375 -1.53125 C -2.15625 -1.566406 -1.632812 -1.761719 -1.269531 -2.109375 C -0.90625 -2.457031 -0.726562 -2.890625 -0.726562 -3.410156 C -0.726562 -3.796875 -0.828125 -4.125 -1.03125 -4.398438 C -1.234375 -4.671875 -1.558594 -4.890625 -2.003906 -5.050781 M -3.710938 -1.589844 L -3.707031 -5.0625 C -4.230469 -5.015625 -4.625 -4.882812 -4.886719 -4.664062 C -5.292969 -4.328125 -5.496094 -3.890625 -5.496094 -3.359375 C -5.496094 -2.871094 -5.332031 -2.464844 -5.007812 -2.136719 C -4.683594 -1.804688 -4.25 -1.625 -3.710938 -1.589844 Z M -3.710938 -1.589844 "/>
</g>
<g id="glyph-2-6">
<path d="M 0 -0.945312 L -8.589844 -0.945312 L -8.589844 -4.753906 C -8.589844 -5.515625 -8.511719 -6.101562 -8.359375 -6.5 C -8.203125 -6.898438 -7.929688 -7.214844 -7.539062 -7.453125 C -7.148438 -7.691406 -6.71875 -7.8125 -6.246094 -7.8125 C -5.636719 -7.8125 -5.121094 -7.613281 -4.703125 -7.21875 C -4.285156 -6.824219 -4.019531 -6.214844 -3.90625 -5.390625 C -3.761719 -5.691406 -3.621094 -5.917969 -3.480469 -6.078125 C -3.175781 -6.40625 -2.792969 -6.722656 -2.335938 -7.019531 L 0 -8.515625 L 0 -7.085938 L -1.785156 -5.945312 C -2.300781 -5.613281 -2.695312 -5.339844 -2.96875 -5.125 C -3.242188 -4.910156 -3.433594 -4.71875 -3.542969 -4.550781 C -3.652344 -4.378906 -3.730469 -4.207031 -3.773438 -4.03125 C -3.800781 -3.902344 -3.8125 -3.691406 -3.8125 -3.398438 L -3.8125 -2.082031 L 0 -2.078125 L 0 -0.945312 M -4.796875 -2.082031 L -4.796875 -4.523438 C -4.796875 -5.042969 -4.851562 -5.449219 -4.960938 -5.742188 C -5.066406 -6.035156 -5.238281 -6.257812 -5.476562 -6.410156 C -5.710938 -6.5625 -5.96875 -6.640625 -6.246094 -6.640625 C -6.652344 -6.640625 -6.984375 -6.492188 -7.25 -6.195312 C -7.507812 -5.902344 -7.640625 -5.433594 -7.640625 -4.800781 L -7.640625 -2.082031 Z M -4.796875 -2.082031 "/>
</g>
<g id="glyph-2-7">
<path d="M 0 -0.984375 L -8.589844 -0.984375 L -8.589844 -6.78125 L -7.578125 -6.78125 L -7.578125 -2.121094 L -4.914062 -2.121094 L -4.914062 -6.152344 L -3.902344 -6.152344 L -3.902344 -2.121094 L 0 -2.121094 Z M 0 -0.984375 "/>
</g>
<g id="glyph-2-8">
<path d="M 0 -0.78125 L -6.222656 -0.78125 L -6.222656 -1.730469 L -5.28125 -1.730469 C -5.71875 -1.96875 -6.011719 -2.195312 -6.152344 -2.398438 C -6.292969 -2.605469 -6.363281 -2.828125 -6.363281 -3.078125 C -6.363281 -3.429688 -6.25 -3.792969 -6.023438 -4.160156 L -5.046875 -3.796875 C -5.195312 -3.539062 -5.273438 -3.28125 -5.273438 -3.023438 C -5.273438 -2.792969 -5.203125 -2.585938 -5.066406 -2.402344 C -4.925781 -2.21875 -4.734375 -2.085938 -4.488281 -2.011719 C -4.113281 -1.894531 -3.703125 -1.835938 -3.257812 -1.835938 L 0 -1.835938 Z M 0 -0.78125 "/>
</g>
<g id="glyph-2-9">
<path d="M 2.386719 -4.757812 L -0.660156 -4.757812 C -0.429688 -4.59375 -0.238281 -4.363281 -0.0859375 -4.070312 C 0.0625 -3.773438 0.140625 -3.460938 0.140625 -3.128906 C 0.140625 -2.390625 -0.15625 -1.753906 -0.742188 -1.222656 C -1.332031 -0.6875 -2.144531 -0.421875 -3.171875 -0.421875 C -3.792969 -0.421875 -4.355469 -0.53125 -4.851562 -0.746094 C -5.347656 -0.964844 -5.722656 -1.277344 -5.980469 -1.691406 C -6.234375 -2.101562 -6.363281 -2.554688 -6.363281 -3.046875 C -6.363281 -3.816406 -6.039062 -4.421875 -5.390625 -4.863281 L -6.222656 -4.863281 L -6.222656 -5.8125 L 2.386719 -5.8125 L 2.386719 -4.757812 M -3.128906 -1.507812 C -2.328125 -1.507812 -1.726562 -1.671875 -1.328125 -2.007812 C -0.925781 -2.34375 -0.726562 -2.746094 -0.726562 -3.21875 C -0.726562 -3.664062 -0.917969 -4.050781 -1.296875 -4.375 C -1.679688 -4.699219 -2.257812 -4.863281 -3.035156 -4.863281 C -3.863281 -4.863281 -4.484375 -4.691406 -4.90625 -4.351562 C -5.320312 -4.007812 -5.53125 -3.605469 -5.53125 -3.148438 C -5.53125 -2.6875 -5.335938 -2.300781 -4.949219 -1.984375 C -4.558594 -1.664062 -3.953125 -1.507812 -3.128906 -1.507812 Z M -3.128906 -1.507812 "/>
</g>
<g id="glyph-2-10">
<path d="M 0 -4.867188 L -0.914062 -4.867188 C -0.210938 -4.382812 0.140625 -3.726562 0.140625 -2.894531 C 0.140625 -2.527344 0.0703125 -2.183594 -0.0703125 -1.867188 C -0.210938 -1.546875 -0.386719 -1.3125 -0.601562 -1.15625 C -0.8125 -1.003906 -1.074219 -0.894531 -1.382812 -0.832031 C -1.589844 -0.789062 -1.917969 -0.769531 -2.367188 -0.769531 L -6.222656 -0.769531 L -6.222656 -1.824219 L -2.773438 -1.824219 C -2.21875 -1.824219 -1.847656 -1.84375 -1.65625 -1.886719 C -1.378906 -1.953125 -1.164062 -2.09375 -1.003906 -2.308594 C -0.847656 -2.523438 -0.765625 -2.789062 -0.765625 -3.105469 C -0.765625 -3.421875 -0.847656 -3.71875 -1.011719 -3.996094 C -1.171875 -4.273438 -1.394531 -4.46875 -1.671875 -4.585938 C -1.953125 -4.699219 -2.355469 -4.757812 -2.886719 -4.757812 L -6.222656 -4.757812 L -6.222656 -5.8125 L 0 -5.8125 Z M 0 -4.867188 "/>
</g>
<g id="glyph-2-11">
<path d="M 2.398438 -0.742188 L 1.40625 -0.625 C 1.46875 -0.855469 1.5 -1.058594 1.5 -1.230469 C 1.5 -1.464844 1.460938 -1.652344 1.382812 -1.792969 C 1.304688 -1.933594 1.195312 -2.046875 1.054688 -2.140625 C 0.949219 -2.203125 0.6875 -2.3125 0.269531 -2.460938 C 0.210938 -2.480469 0.125 -2.511719 0.0117188 -2.554688 L -6.222656 -0.195312 L -6.222656 -1.332031 L -2.617188 -2.625 C -2.164062 -2.792969 -1.679688 -2.941406 -1.175781 -3.078125 C -1.660156 -3.195312 -2.132812 -3.339844 -2.59375 -3.507812 L -6.222656 -4.839844 L -6.222656 -5.894531 L 0.105469 -3.527344 C 0.789062 -3.273438 1.261719 -3.078125 1.519531 -2.9375 C 1.863281 -2.746094 2.121094 -2.53125 2.28125 -2.289062 C 2.445312 -2.046875 2.523438 -1.757812 2.523438 -1.421875 C 2.523438 -1.21875 2.480469 -0.992188 2.398438 -0.742188 Z M 2.398438 -0.742188 "/>
</g>
<g id="glyph-3-0">
<path d="M 1.179688 0 L 1.179688 -11.597656 L 9.777344 -11.597656 L 9.777344 -9.632812 L 3.519531 -9.632812 L 3.519531 -7.0625 L 9.34375 -7.0625 L 9.34375 -5.109375 L 3.519531 -5.109375 L 3.519531 -1.953125 L 10 -1.953125 L 10 0 Z M 1.179688 0 "/>
</g>
<g id="glyph-3-1">
<path d="M 1.097656 -8.402344 L 3.171875 -8.402344 L 3.171875 -7.167969 C 3.441406 -7.589844 3.804688 -7.929688 4.261719 -8.195312 C 4.722656 -8.457031 5.230469 -8.589844 5.789062 -8.589844 C 6.765625 -8.589844 7.59375 -8.207031 8.273438 -7.445312 C 8.953125 -6.679688 9.292969 -5.613281 9.292969 -4.246094 C 9.292969 -2.84375 8.953125 -1.753906 8.265625 -0.976562 C 7.582031 -0.199219 6.75 0.191406 5.773438 0.191406 C 5.308594 0.191406 4.890625 0.0976562 4.511719 -0.0859375 C 4.136719 -0.273438 3.738281 -0.589844 3.324219 -1.035156 L 3.324219 3.195312 L 1.097656 3.195312 L 1.097656 -8.402344 M 3.296875 -4.34375 C 3.296875 -3.398438 3.484375 -2.703125 3.859375 -2.25 C 4.234375 -1.800781 4.691406 -1.574219 5.230469 -1.574219 C 5.746094 -1.574219 6.175781 -1.78125 6.519531 -2.195312 C 6.859375 -2.609375 7.03125 -3.289062 7.03125 -4.230469 C 7.03125 -5.113281 6.855469 -5.765625 6.503906 -6.195312 C 6.148438 -6.621094 5.710938 -6.835938 5.1875 -6.835938 C 4.644531 -6.835938 4.195312 -6.625 3.835938 -6.207031 C 3.476562 -5.785156 3.296875 -5.164062 3.296875 -4.34375 Z M 3.296875 -4.34375 "/>
</g>
<g id="glyph-3-2">
<path d="M 1.164062 -9.539062 L 1.164062 -11.597656 L 3.386719 -11.597656 L 3.386719 -9.539062 L 1.164062 -9.539062 M 1.164062 0 L 1.164062 -8.402344 L 3.386719 -8.402344 L 3.386719 0 Z M 1.164062 0 "/>
</g>
<g id="glyph-3-3">
<path d="M 8.867188 0 L 6.804688 0 L 6.804688 -1.234375 C 6.460938 -0.753906 6.054688 -0.398438 5.589844 -0.164062 C 5.121094 0.0742188 4.652344 0.191406 4.175781 0.191406 C 3.210938 0.191406 2.386719 -0.199219 1.695312 -0.976562 C 1.007812 -1.753906 0.664062 -2.839844 0.664062 -4.230469 C 0.664062 -5.65625 1 -6.738281 1.667969 -7.480469 C 2.339844 -8.21875 3.183594 -8.589844 4.207031 -8.589844 C 5.148438 -8.589844 5.957031 -8.199219 6.644531 -7.417969 L 6.644531 -11.597656 L 8.867188 -11.597656 L 8.867188 0 M 2.933594 -4.382812 C 2.933594 -3.484375 3.058594 -2.835938 3.304688 -2.4375 C 3.664062 -1.855469 4.164062 -1.566406 4.808594 -1.566406 C 5.320312 -1.566406 5.757812 -1.785156 6.113281 -2.21875 C 6.472656 -2.652344 6.652344 -3.304688 6.652344 -4.167969 C 6.652344 -5.132812 6.476562 -5.828125 6.128906 -6.253906 C 5.78125 -6.675781 5.335938 -6.890625 4.792969 -6.890625 C 4.265625 -6.890625 3.824219 -6.679688 3.46875 -6.261719 C 3.113281 -5.839844 2.933594 -5.214844 2.933594 -4.382812 Z M 2.933594 -4.382812 "/>
</g>
<g id="glyph-3-4">
<path d="M 6.027344 -2.671875 L 8.242188 -2.300781 C 7.957031 -1.488281 7.507812 -0.871094 6.894531 -0.445312 C 6.28125 -0.0234375 5.511719 0.191406 4.589844 0.191406 C 3.128906 0.191406 2.046875 -0.289062 1.34375 -1.242188 C 0.792969 -2.007812 0.515625 -2.972656 0.515625 -4.136719 C 0.515625 -5.527344 0.878906 -6.621094 1.605469 -7.40625 C 2.332031 -8.195312 3.253906 -8.589844 4.367188 -8.589844 C 5.617188 -8.589844 6.601562 -8.179688 7.324219 -7.351562 C 8.046875 -6.527344 8.394531 -5.261719 8.359375 -3.558594 L 2.792969 -3.558594 C 2.808594 -2.898438 2.988281 -2.386719 3.332031 -2.019531 C 3.671875 -1.65625 4.101562 -1.472656 4.613281 -1.472656 C 4.960938 -1.472656 5.253906 -1.566406 5.488281 -1.757812 C 5.726562 -1.945312 5.90625 -2.25 6.027344 -2.671875 M 6.152344 -4.921875 C 6.136719 -5.5625 5.972656 -6.050781 5.65625 -6.386719 C 5.339844 -6.722656 4.953125 -6.890625 4.5 -6.890625 C 4.015625 -6.890625 3.613281 -6.714844 3.296875 -6.359375 C 2.980469 -6.007812 2.828125 -5.527344 2.832031 -4.921875 Z M 6.152344 -4.921875 "/>
</g>
<g id="glyph-3-5">
<path d="M 0.996094 -8.402344 L 3.046875 -8.402344 L 3.046875 -7.253906 C 3.777344 -8.144531 4.652344 -8.589844 5.664062 -8.589844 C 6.203125 -8.589844 6.667969 -8.480469 7.0625 -8.257812 C 7.460938 -8.035156 7.785156 -7.703125 8.035156 -7.253906 C 8.40625 -7.703125 8.804688 -8.035156 9.230469 -8.257812 C 9.660156 -8.480469 10.113281 -8.589844 10.601562 -8.589844 C 11.214844 -8.589844 11.738281 -8.464844 12.164062 -8.214844 C 12.59375 -7.964844 12.910156 -7.597656 13.121094 -7.109375 C 13.277344 -6.753906 13.351562 -6.171875 13.351562 -5.371094 L 13.351562 0 L 11.128906 0 L 11.128906 -4.800781 C 11.128906 -5.632812 11.054688 -6.171875 10.898438 -6.414062 C 10.695312 -6.730469 10.378906 -6.890625 9.949219 -6.890625 C 9.640625 -6.890625 9.347656 -6.792969 9.074219 -6.605469 C 8.796875 -6.414062 8.601562 -6.136719 8.480469 -5.769531 C 8.359375 -5.402344 8.296875 -4.824219 8.296875 -4.035156 L 8.296875 0 L 6.074219 0 L 6.074219 -4.605469 C 6.074219 -5.421875 6.035156 -5.949219 5.957031 -6.1875 C 5.878906 -6.421875 5.753906 -6.601562 5.589844 -6.714844 C 5.421875 -6.832031 5.195312 -6.890625 4.914062 -6.890625 C 4.570312 -6.890625 4.261719 -6.796875 3.988281 -6.613281 C 3.710938 -6.429688 3.515625 -6.160156 3.398438 -5.8125 C 3.277344 -5.464844 3.21875 -4.886719 3.21875 -4.082031 L 3.21875 0 L 0.996094 0 Z M 0.996094 -8.402344 "/>
</g>
<g id="glyph-3-6">
<path d="M 8.488281 -5.917969 L 6.296875 -5.519531 C 6.222656 -5.957031 6.054688 -6.289062 5.792969 -6.511719 C 5.53125 -6.730469 5.195312 -6.84375 4.777344 -6.84375 C 4.222656 -6.84375 3.78125 -6.652344 3.453125 -6.269531 C 3.125 -5.886719 2.957031 -5.246094 2.957031 -4.351562 C 2.957031 -3.355469 3.125 -2.648438 3.460938 -2.238281 C 3.796875 -1.828125 4.246094 -1.621094 4.808594 -1.621094 C 5.230469 -1.621094 5.578125 -1.742188 5.84375 -1.980469 C 6.113281 -2.222656 6.304688 -2.632812 6.414062 -3.21875 L 8.597656 -2.847656 C 8.371094 -1.84375 7.9375 -1.089844 7.292969 -0.578125 C 6.648438 -0.0664062 5.789062 0.191406 4.707031 0.191406 C 3.476562 0.191406 2.5 -0.199219 1.769531 -0.972656 C 1.039062 -1.75 0.671875 -2.820312 0.671875 -4.191406 C 0.671875 -5.578125 1.039062 -6.660156 1.773438 -7.429688 C 2.503906 -8.203125 3.496094 -8.589844 4.746094 -8.589844 C 5.769531 -8.589844 6.582031 -8.371094 7.1875 -7.929688 C 7.789062 -7.488281 8.222656 -6.820312 8.488281 -5.917969 Z M 8.488281 -5.917969 "/>
</g>
<g id="glyph-3-7">
</g>
<g id="glyph-3-8">
<path d="M 6.691406 0 L 6.691406 -1.257812 C 6.386719 -0.808594 5.984375 -0.457031 5.484375 -0.199219 C 4.988281 0.0625 4.460938 0.191406 3.90625 0.191406 C 3.34375 0.191406 2.835938 0.0664062 2.390625 -0.183594 C 1.941406 -0.429688 1.617188 -0.777344 1.414062 -1.226562 C 1.214844 -1.675781 1.117188 -2.292969 1.117188 -3.085938 L 1.117188 -8.402344 L 3.339844 -8.402344 L 3.339844 -4.539062 C 3.339844 -3.359375 3.378906 -2.636719 3.460938 -2.367188 C 3.542969 -2.101562 3.691406 -1.890625 3.90625 -1.734375 C 4.125 -1.582031 4.398438 -1.503906 4.730469 -1.503906 C 5.109375 -1.503906 5.449219 -1.605469 5.75 -1.816406 C 6.050781 -2.023438 6.257812 -2.28125 6.367188 -2.589844 C 6.476562 -2.898438 6.535156 -3.65625 6.535156 -4.855469 L 6.535156 -8.402344 L 8.757812 -8.402344 L 8.757812 0 Z M 6.691406 0 "/>
</g>
<g id="glyph-3-9">
<path d="M 3.289062 0 L 1.066406 0 L 1.066406 -8.402344 L 3.132812 -8.402344 L 3.132812 -7.207031 C 3.484375 -7.769531 3.804688 -8.140625 4.085938 -8.320312 C 4.367188 -8.5 4.6875 -8.589844 5.046875 -8.589844 C 5.554688 -8.589844 6.039062 -8.449219 6.511719 -8.171875 L 5.820312 -6.234375 C 5.449219 -6.476562 5.097656 -6.597656 4.777344 -6.597656 C 4.464844 -6.597656 4.203125 -6.511719 3.988281 -6.339844 C 3.769531 -6.167969 3.601562 -5.859375 3.476562 -5.410156 C 3.351562 -4.960938 3.289062 -4.023438 3.289062 -2.59375 Z M 3.289062 0 "/>
</g>
<g id="glyph-3-10">
<path d="M 3.472656 0 L 0.0859375 -8.402344 L 2.421875 -8.402344 L 4.003906 -4.113281 L 4.460938 -2.679688 C 4.582031 -3.046875 4.660156 -3.285156 4.691406 -3.402344 C 4.765625 -3.640625 4.84375 -3.875 4.929688 -4.113281 L 6.527344 -8.402344 L 8.8125 -8.402344 L 5.472656 0 Z M 3.472656 0 "/>
</g>
<g id="glyph-3-11">
<path d="M 0.378906 -2.398438 L 2.609375 -2.738281 C 2.707031 -2.304688 2.898438 -1.976562 3.1875 -1.753906 C 3.476562 -1.527344 3.882812 -1.414062 4.40625 -1.414062 C 4.980469 -1.414062 5.414062 -1.519531 5.703125 -1.730469 C 5.898438 -1.878906 5.996094 -2.078125 5.996094 -2.324219 C 5.996094 -2.496094 5.941406 -2.632812 5.835938 -2.746094 C 5.726562 -2.851562 5.480469 -2.949219 5.09375 -3.039062 C 3.300781 -3.433594 2.164062 -3.792969 1.683594 -4.121094 C 1.019531 -4.574219 0.6875 -5.203125 0.6875 -6.011719 C 0.6875 -6.738281 0.976562 -7.351562 1.550781 -7.847656 C 2.125 -8.34375 3.015625 -8.589844 4.222656 -8.589844 C 5.375 -8.589844 6.226562 -8.402344 6.785156 -8.027344 C 7.347656 -7.65625 7.730469 -7.101562 7.941406 -6.367188 L 5.84375 -5.980469 C 5.757812 -6.308594 5.585938 -6.558594 5.335938 -6.730469 C 5.085938 -6.90625 4.726562 -6.992188 4.261719 -6.992188 C 3.679688 -6.992188 3.257812 -6.910156 3.007812 -6.746094 C 2.835938 -6.632812 2.753906 -6.480469 2.753906 -6.296875 C 2.753906 -6.136719 2.828125 -6.003906 2.972656 -5.894531 C 3.175781 -5.746094 3.867188 -5.539062 5.050781 -5.269531 C 6.234375 -5 7.0625 -4.667969 7.53125 -4.28125 C 7.996094 -3.882812 8.226562 -3.332031 8.226562 -2.625 C 8.226562 -1.855469 7.90625 -1.195312 7.261719 -0.640625 C 6.617188 -0.0859375 5.667969 0.191406 4.40625 0.191406 C 3.261719 0.191406 2.355469 -0.0429688 1.6875 -0.507812 C 1.023438 -0.96875 0.585938 -1.601562 0.378906 -2.398438 Z M 0.378906 -2.398438 "/>
</g>
<g id="glyph-3-12">
<path d="M 5.015625 -8.402344 L 5.015625 -6.628906 L 3.496094 -6.628906 L 3.496094 -3.242188 C 3.496094 -2.558594 3.511719 -2.15625 3.539062 -2.042969 C 3.570312 -1.929688 3.632812 -1.835938 3.738281 -1.765625 C 3.839844 -1.691406 3.964844 -1.652344 4.113281 -1.652344 C 4.320312 -1.652344 4.617188 -1.722656 5.007812 -1.867188 L 5.195312 -0.140625 C 4.679688 0.078125 4.09375 0.191406 3.441406 0.191406 C 3.039062 0.191406 2.679688 0.121094 2.355469 -0.0117188 C 2.035156 -0.144531 1.800781 -0.320312 1.648438 -0.535156 C 1.5 -0.746094 1.394531 -1.035156 1.335938 -1.398438 C 1.289062 -1.660156 1.265625 -2.179688 1.265625 -2.964844 L 1.265625 -6.628906 L 0.246094 -6.628906 L 0.246094 -8.402344 L 1.265625 -8.402344 L 1.265625 -10.070312 L 3.496094 -11.367188 L 3.496094 -8.402344 Z M 5.015625 -8.402344 "/>
</g>
<g id="glyph-3-13">
<path d="M 2.824219 -5.835938 L 0.808594 -6.203125 C 1.035156 -7.011719 1.425781 -7.613281 1.976562 -8.003906 C 2.53125 -8.394531 3.355469 -8.589844 4.445312 -8.589844 C 5.4375 -8.589844 6.175781 -8.472656 6.660156 -8.238281 C 7.144531 -8.003906 7.488281 -7.707031 7.683594 -7.34375 C 7.882812 -6.984375 7.980469 -6.320312 7.980469 -5.355469 L 7.957031 -2.761719 C 7.957031 -2.023438 7.992188 -1.476562 8.0625 -1.128906 C 8.136719 -0.777344 8.269531 -0.402344 8.464844 0 L 6.265625 0 C 6.207031 -0.148438 6.136719 -0.367188 6.050781 -0.65625 C 6.015625 -0.789062 5.988281 -0.875 5.972656 -0.917969 C 5.59375 -0.546875 5.1875 -0.273438 4.753906 -0.0859375 C 4.320312 0.0976562 3.859375 0.191406 3.371094 0.191406 C 2.503906 0.191406 1.824219 -0.0429688 1.324219 -0.515625 C 0.828125 -0.984375 0.578125 -1.578125 0.578125 -2.292969 C 0.578125 -2.769531 0.691406 -3.191406 0.917969 -3.5625 C 1.144531 -3.933594 1.460938 -4.21875 1.871094 -4.417969 C 2.28125 -4.617188 2.867188 -4.789062 3.640625 -4.9375 C 4.675781 -5.132812 5.398438 -5.3125 5.796875 -5.480469 L 5.796875 -5.703125 C 5.796875 -6.128906 5.691406 -6.433594 5.480469 -6.617188 C 5.269531 -6.796875 4.871094 -6.890625 4.289062 -6.890625 C 3.890625 -6.890625 3.582031 -6.8125 3.363281 -6.65625 C 3.140625 -6.5 2.960938 -6.226562 2.824219 -5.835938 M 5.796875 -4.035156 C 5.511719 -3.9375 5.0625 -3.824219 4.445312 -3.695312 C 3.828125 -3.5625 3.425781 -3.433594 3.234375 -3.304688 C 2.945312 -3.101562 2.800781 -2.839844 2.800781 -2.523438 C 2.800781 -2.210938 2.917969 -1.941406 3.148438 -1.714844 C 3.378906 -1.488281 3.675781 -1.375 4.035156 -1.375 C 4.433594 -1.375 4.816406 -1.507812 5.179688 -1.773438 C 5.449219 -1.972656 5.625 -2.21875 5.710938 -2.507812 C 5.769531 -2.699219 5.796875 -3.058594 5.796875 -3.589844 Z M 5.796875 -4.035156 "/>
</g>
<g id="glyph-3-14">
<path d="M 1.1875 0 L 1.1875 -11.597656 L 6.113281 -11.597656 C 7.355469 -11.597656 8.253906 -11.492188 8.816406 -11.285156 C 9.378906 -11.074219 9.828125 -10.703125 10.164062 -10.171875 C 10.503906 -9.640625 10.671875 -9.03125 10.671875 -8.34375 C 10.671875 -7.476562 10.414062 -6.757812 9.902344 -6.191406 C 9.390625 -5.621094 8.628906 -5.265625 7.609375 -5.117188 C 8.117188 -4.824219 8.535156 -4.5 8.863281 -4.144531 C 9.191406 -3.792969 9.636719 -3.164062 10.195312 -2.261719 L 11.613281 0 L 8.8125 0 L 7.121094 -2.523438 C 6.519531 -3.425781 6.105469 -3.992188 5.886719 -4.226562 C 5.664062 -4.460938 5.429688 -4.625 5.179688 -4.710938 C 4.933594 -4.796875 4.539062 -4.839844 4.003906 -4.839844 L 3.527344 -4.839844 L 3.527344 0 L 1.1875 0 M 3.527344 -6.691406 L 5.261719 -6.691406 C 6.382812 -6.691406 7.085938 -6.738281 7.363281 -6.835938 C 7.644531 -6.929688 7.863281 -7.09375 8.019531 -7.324219 C 8.179688 -7.558594 8.257812 -7.847656 8.257812 -8.195312 C 8.257812 -8.585938 8.152344 -8.898438 7.945312 -9.140625 C 7.738281 -9.378906 7.445312 -9.53125 7.0625 -9.59375 C 6.875 -9.621094 6.304688 -9.632812 5.355469 -9.632812 L 3.527344 -9.632812 Z M 3.527344 -6.691406 "/>
</g>
<g id="glyph-3-15">
<path d="M 0.09375 0 L 3.125 -4.328125 L 0.222656 -8.402344 L 2.933594 -8.402344 L 4.421875 -6.089844 L 5.988281 -8.402344 L 8.597656 -8.402344 L 5.75 -4.421875 L 8.859375 0 L 6.128906 0 L 4.421875 -2.601562 L 2.699219 0 Z M 0.09375 0 "/>
</g>
<g id="glyph-3-16">
<path d="M 1.164062 0 L 1.164062 -11.597656 L 3.386719 -11.597656 L 3.386719 0 Z M 1.164062 0 "/>
</g>
<g id="glyph-3-17">
<path d="M 0.648438 -4.320312 C 0.648438 -5.058594 0.832031 -5.773438 1.195312 -6.460938 C 1.558594 -7.152344 2.074219 -7.679688 2.742188 -8.042969 C 3.40625 -8.410156 4.152344 -8.589844 4.976562 -8.589844 C 6.246094 -8.589844 7.289062 -8.179688 8.101562 -7.351562 C 8.910156 -6.527344 9.316406 -5.484375 9.316406 -4.222656 C 9.316406 -2.953125 8.90625 -1.898438 8.089844 -1.0625 C 7.269531 -0.226562 6.234375 0.191406 4.992188 0.191406 C 4.222656 0.191406 3.488281 0.015625 2.789062 -0.332031 C 2.089844 -0.679688 1.558594 -1.191406 1.195312 -1.863281 C 0.832031 -2.535156 0.648438 -3.355469 0.648438 -4.320312 M 2.925781 -4.199219 C 2.925781 -3.367188 3.125 -2.730469 3.519531 -2.285156 C 3.914062 -1.84375 4.402344 -1.621094 4.984375 -1.621094 C 5.5625 -1.621094 6.050781 -1.84375 6.441406 -2.285156 C 6.835938 -2.730469 7.03125 -3.371094 7.03125 -4.214844 C 7.03125 -5.039062 6.835938 -5.671875 6.441406 -6.113281 C 6.050781 -6.558594 5.5625 -6.777344 4.984375 -6.777344 C 4.402344 -6.777344 3.914062 -6.558594 3.519531 -6.113281 C 3.125 -5.671875 2.925781 -5.035156 2.925781 -4.199219 Z M 2.925781 -4.199219 "/>
</g>
<g id="glyph-3-18">
<path d="M 0.585938 -3.773438 L 2.863281 -3.996094 C 3 -3.230469 3.277344 -2.667969 3.699219 -2.308594 C 4.117188 -1.949219 4.683594 -1.773438 5.394531 -1.773438 C 6.148438 -1.773438 6.71875 -1.929688 7.097656 -2.25 C 7.480469 -2.570312 7.671875 -2.941406 7.671875 -3.371094 C 7.671875 -3.644531 7.59375 -3.878906 7.429688 -4.070312 C 7.269531 -4.261719 6.988281 -4.429688 6.589844 -4.570312 C 6.316406 -4.667969 5.691406 -4.835938 4.714844 -5.078125 C 3.460938 -5.390625 2.578125 -5.773438 2.074219 -6.226562 C 1.359375 -6.863281 1.003906 -7.640625 1.003906 -8.558594 C 1.003906 -9.148438 1.171875 -9.703125 1.507812 -10.214844 C 1.839844 -10.730469 2.324219 -11.121094 2.953125 -11.390625 C 3.585938 -11.660156 4.34375 -11.792969 5.238281 -11.792969 C 6.691406 -11.792969 7.789062 -11.476562 8.523438 -10.835938 C 9.257812 -10.199219 9.644531 -9.347656 9.683594 -8.28125 L 7.339844 -8.179688 C 7.242188 -8.773438 7.027344 -9.203125 6.695312 -9.464844 C 6.367188 -9.726562 5.871094 -9.855469 5.210938 -9.855469 C 4.53125 -9.855469 4 -9.714844 3.613281 -9.4375 C 3.367188 -9.257812 3.242188 -9.019531 3.242188 -8.71875 C 3.242188 -8.441406 3.359375 -8.207031 3.589844 -8.011719 C 3.886719 -7.765625 4.605469 -7.507812 5.742188 -7.238281 C 6.882812 -6.96875 7.722656 -6.691406 8.269531 -6.402344 C 8.816406 -6.117188 9.242188 -5.722656 9.550781 -5.226562 C 9.859375 -4.726562 10.015625 -4.109375 10.015625 -3.378906 C 10.015625 -2.714844 9.828125 -2.089844 9.460938 -1.511719 C 9.089844 -0.929688 8.570312 -0.5 7.894531 -0.21875 C 7.21875 0.0664062 6.378906 0.207031 5.371094 0.207031 C 3.90625 0.207031 2.777344 -0.132812 1.992188 -0.8125 C 1.207031 -1.488281 0.738281 -2.476562 0.585938 -3.773438 Z M 0.585938 -3.773438 "/>
</g>
<g id="glyph-3-19">
<path d="M 1.109375 0 L 1.109375 -11.597656 L 3.449219 -11.597656 L 3.449219 0 Z M 1.109375 0 "/>
</g>
<g id="glyph-3-20">
<path d="M 1.066406 0 L 1.066406 -11.597656 L 3.289062 -11.597656 L 3.289062 -7.417969 C 3.976562 -8.199219 4.789062 -8.589844 5.726562 -8.589844 C 6.75 -8.589844 7.597656 -8.21875 8.265625 -7.480469 C 8.9375 -6.738281 9.269531 -5.675781 9.269531 -4.289062 C 9.269531 -2.851562 8.929688 -1.75 8.246094 -0.972656 C 7.5625 -0.199219 6.734375 0.191406 5.757812 0.191406 C 5.277344 0.191406 4.804688 0.0703125 4.339844 -0.171875 C 3.871094 -0.410156 3.46875 -0.765625 3.132812 -1.234375 L 3.132812 0 L 1.066406 0 M 3.273438 -4.382812 C 3.273438 -3.511719 3.410156 -2.867188 3.6875 -2.453125 C 4.070312 -1.863281 4.582031 -1.566406 5.222656 -1.566406 C 5.710938 -1.566406 6.128906 -1.777344 6.472656 -2.195312 C 6.820312 -2.613281 6.992188 -3.273438 6.992188 -4.175781 C 6.992188 -5.136719 6.820312 -5.828125 6.46875 -6.253906 C 6.121094 -6.675781 5.675781 -6.890625 5.132812 -6.890625 C 4.601562 -6.890625 4.15625 -6.683594 3.804688 -6.269531 C 3.453125 -5.855469 3.273438 -5.226562 3.273438 -4.382812 Z M 3.273438 -4.382812 "/>
</g>
<g id="glyph-3-21">
<path d="M 8.804688 0 L 6.582031 0 L 6.582031 -4.289062 C 6.582031 -5.195312 6.535156 -5.78125 6.4375 -6.046875 C 6.34375 -6.3125 6.191406 -6.519531 5.976562 -6.667969 C 5.761719 -6.816406 5.503906 -6.890625 5.203125 -6.890625 C 4.820312 -6.890625 4.472656 -6.785156 4.167969 -6.574219 C 3.863281 -6.363281 3.652344 -6.082031 3.539062 -5.734375 C 3.425781 -5.386719 3.371094 -4.742188 3.371094 -3.804688 L 3.371094 0 L 1.148438 0 L 1.148438 -8.402344 L 3.210938 -8.402344 L 3.210938 -7.167969 C 3.945312 -8.117188 4.867188 -8.589844 5.980469 -8.589844 C 6.46875 -8.589844 6.917969 -8.503906 7.324219 -8.324219 C 7.730469 -8.148438 8.039062 -7.921875 8.246094 -7.648438 C 8.453125 -7.375 8.601562 -7.0625 8.679688 -6.714844 C 8.761719 -6.367188 8.804688 -5.871094 8.804688 -5.222656 Z M 8.804688 0 "/>
</g>
</g>
<clipPath id="clip-0">
<path clip-rule="nonzero" d="M 0 0 L 504 0 L 504 105.332031 L 0 105.332031 Z M 0 0 "/>
</clipPath>
<clipPath id="clip-1">
<path clip-rule="nonzero" d="M 41.128906 28.960938 L 498.023438 28.960938 L 498.023438 63.992188 L 41.128906 63.992188 Z M 41.128906 28.960938 "/>
</clipPath>
<clipPath id="clip-2">
<path clip-rule="nonzero" d="M 41.128906 61 L 498.023438 61 L 498.023438 63 L 41.128906 63 Z M 41.128906 61 "/>
</clipPath>
<clipPath id="clip-3">
<path clip-rule="nonzero" d="M 41.128906 49 L 498.023438 49 L 498.023438 51 L 41.128906 51 Z M 41.128906 49 "/>
</clipPath>
<clipPath id="clip-4">
<path clip-rule="nonzero" d="M 41.128906 37 L 498.023438 37 L 498.023438 39 L 41.128906 39 Z M 41.128906 37 "/>
</clipPath>
<clipPath id="clip-5">
<path clip-rule="nonzero" d="M 61 28.960938 L 63 28.960938 L 63 63.992188 L 61 63.992188 Z M 61 28.960938 "/>
</clipPath>
<clipPath id="clip-6">
<path clip-rule="nonzero" d="M 152 28.960938 L 154 28.960938 L 154 63.992188 L 152 63.992188 Z M 152 28.960938 "/>
</clipPath>
<clipPath id="clip-7">
<path clip-rule="nonzero" d="M 243 28.960938 L 245 28.960938 L 245 63.992188 L 243 63.992188 Z M 243 28.960938 "/>
</clipPath>
<clipPath id="clip-8">
<path clip-rule="nonzero" d="M 333 28.960938 L 336 28.960938 L 336 63.992188 L 333 63.992188 Z M 333 28.960938 "/>
</clipPath>
<clipPath id="clip-9">
<path clip-rule="nonzero" d="M 424 28.960938 L 426 28.960938 L 426 63.992188 L 424 63.992188 Z M 424 28.960938 "/>
</clipPath>
<clipPath id="clip-10">
<path clip-rule="nonzero" d="M 0 105.332031 L 504 105.332031 L 504 210.664062 L 0 210.664062 Z M 0 105.332031 "/>
</clipPath>
<clipPath id="clip-11">
<path clip-rule="nonzero" d="M 35.789062 134.292969 L 418.84375 134.292969 L 418.84375 169.324219 L 35.789062 169.324219 Z M 35.789062 134.292969 "/>
</clipPath>
<clipPath id="clip-12">
<path clip-rule="nonzero" d="M 35.789062 167 L 418.84375 167 L 418.84375 169 L 35.789062 169 Z M 35.789062 167 "/>
</clipPath>
<clipPath id="clip-13">
<path clip-rule="nonzero" d="M 35.789062 155 L 418.84375 155 L 418.84375 157 L 35.789062 157 Z M 35.789062 155 "/>
</clipPath>
<clipPath id="clip-14">
<path clip-rule="nonzero" d="M 35.789062 142 L 418.84375 142 L 418.84375 144 L 35.789062 144 Z M 35.789062 142 "/>
</clipPath>
<clipPath id="clip-15">
<path clip-rule="nonzero" d="M 52 134.292969 L 54 134.292969 L 54 169.324219 L 52 169.324219 Z M 52 134.292969 "/>
</clipPath>
<clipPath id="clip-16">
<path clip-rule="nonzero" d="M 128 134.292969 L 130 134.292969 L 130 169.324219 L 128 169.324219 Z M 128 134.292969 "/>
</clipPath>
<clipPath id="clip-17">
<path clip-rule="nonzero" d="M 205 134.292969 L 207 134.292969 L 207 169.324219 L 205 169.324219 Z M 205 134.292969 "/>
</clipPath>
<clipPath id="clip-18">
<path clip-rule="nonzero" d="M 281 134.292969 L 283 134.292969 L 283 169.324219 L 281 169.324219 Z M 281 134.292969 "/>
</clipPath>
<clipPath id="clip-19">
<path clip-rule="nonzero" d="M 357 134.292969 L 359 134.292969 L 359 169.324219 L 357 169.324219 Z M 357 134.292969 "/>
</clipPath>
<clipPath id="clip-20">
<path clip-rule="nonzero" d="M 35.789062 155 L 418.84375 155 L 418.84375 157 L 35.789062 157 Z M 35.789062 155 "/>
</clipPath>
<clipPath id="clip-21">
<path clip-rule="nonzero" d="M 0 210.667969 L 504 210.667969 L 504 316 L 0 316 Z M 0 210.667969 "/>
</clipPath>
<clipPath id="clip-22">
<path clip-rule="nonzero" d="M 43.796875 239.628906 L 498.023438 239.628906 L 498.023438 274.660156 L 43.796875 274.660156 Z M 43.796875 239.628906 "/>
</clipPath>
<clipPath id="clip-23">
<path clip-rule="nonzero" d="M 43.796875 272 L 498.023438 272 L 498.023438 274 L 43.796875 274 Z M 43.796875 272 "/>
</clipPath>
<clipPath id="clip-24">
<path clip-rule="nonzero" d="M 43.796875 263 L 498.023438 263 L 498.023438 265 L 43.796875 265 Z M 43.796875 263 "/>
</clipPath>
<clipPath id="clip-25">
<path clip-rule="nonzero" d="M 43.796875 254 L 498.023438 254 L 498.023438 256 L 43.796875 256 Z M 43.796875 254 "/>
</clipPath>
<clipPath id="clip-26">
<path clip-rule="nonzero" d="M 43.796875 245 L 498.023438 245 L 498.023438 247 L 43.796875 247 Z M 43.796875 245 "/>
</clipPath>
<clipPath id="clip-27">
<path clip-rule="nonzero" d="M 63 239.628906 L 65 239.628906 L 65 274.660156 L 63 274.660156 Z M 63 239.628906 "/>
</clipPath>
<clipPath id="clip-28">
<path clip-rule="nonzero" d="M 167 239.628906 L 169 239.628906 L 169 274.660156 L 167 274.660156 Z M 167 239.628906 "/>
</clipPath>
<clipPath id="clip-29">
<path clip-rule="nonzero" d="M 270 239.628906 L 272 239.628906 L 272 274.660156 L 270 274.660156 Z M 270 239.628906 "/>
</clipPath>
<clipPath id="clip-30">
<path clip-rule="nonzero" d="M 373 239.628906 L 375 239.628906 L 375 274.660156 L 373 274.660156 Z M 373 239.628906 "/>
</clipPath>
<clipPath id="clip-31">
<path clip-rule="nonzero" d="M 476 239.628906 L 478 239.628906 L 478 274.660156 L 476 274.660156 Z M 476 239.628906 "/>
</clipPath>
</defs>
<rect x="-50.4" y="-31.6" width="604.8" height="379.2" fill="rgb(100%, 100%, 100%)" fill-opacity="1"/>
<g clip-path="url(#clip-0)">
<path fill-rule="nonzero" fill="rgb(100%, 100%, 100%)" fill-opacity="1" d="M 0 105.332031 L 504 105.332031 L 504 0 L 0 0 Z M 0 105.332031 "/>
</g>
<g clip-path="url(#clip-1)">
<path fill-rule="nonzero" fill="rgb(100%, 100%, 100%)" fill-opacity="1" d="M 41.128906 63.992188 L 498.023438 63.992188 L 498.023438 28.960938 L 41.128906 28.960938 Z M 41.128906 63.992188 "/>
</g>
<g clip-path="url(#clip-2)">
<path fill="none" stroke-width="1.066978" stroke-linecap="butt" stroke-linejoin="round" stroke="rgb(89.019608%, 92.941176%, 97.647059%)" stroke-opacity="1" stroke-miterlimit="10" d="M 41.128906 62.398438 L 498.023438 62.398438 "/>
</g>
<g clip-path="url(#clip-3)">
<path fill="none" stroke-width="1.066978" stroke-linecap="butt" stroke-linejoin="round" stroke="rgb(89.019608%, 92.941176%, 97.647059%)" stroke-opacity="1" stroke-miterlimit="10" d="M 41.128906 50.148438 L 498.023438 50.148438 "/>
</g>
<g clip-path="url(#clip-4)">
<path fill="none" stroke-width="1.066978" stroke-linecap="butt" stroke-linejoin="round" stroke="rgb(89.019608%, 92.941176%, 97.647059%)" stroke-opacity="1" stroke-miterlimit="10" d="M 41.128906 37.902344 L 498.023438 37.902344 "/>
</g>
<g clip-path="url(#clip-5)">
<path fill="none" stroke-width="1.066978" stroke-linecap="butt" stroke-linejoin="round" stroke="rgb(89.019608%, 92.941176%, 97.647059%)" stroke-opacity="1" stroke-miterlimit="10" d="M 61.894531 63.992188 L 61.894531 28.960938 "/>
</g>
<g clip-path="url(#clip-6)">
<path fill="none" stroke-width="1.066978" stroke-linecap="butt" stroke-linejoin="round" stroke="rgb(89.019608%, 92.941176%, 97.647059%)" stroke-opacity="1" stroke-miterlimit="10" d="M 152.757812 63.992188 L 152.757812 28.960938 "/>
</g>
<g clip-path="url(#clip-7)">
<path fill="none" stroke-width="1.066978" stroke-linecap="butt" stroke-linejoin="round" stroke="rgb(89.019608%, 92.941176%, 97.647059%)" stroke-opacity="1" stroke-miterlimit="10" d="M 243.617188 63.992188 L 243.617188 28.960938 "/>
</g>
<g clip-path="url(#clip-8)">
<path fill="none" stroke-width="1.066978" stroke-linecap="butt" stroke-linejoin="round" stroke="rgb(89.019608%, 92.941176%, 97.647059%)" stroke-opacity="1" stroke-miterlimit="10" d="M 334.476562 63.992188 L 334.476562 28.960938 "/>
</g>
<g clip-path="url(#clip-9)">
<path fill="none" stroke-width="1.066978" stroke-linecap="butt" stroke-linejoin="round" stroke="rgb(89.019608%, 92.941176%, 97.647059%)" stroke-opacity="1" stroke-miterlimit="10" d="M 425.335938 63.992188 L 425.335938 28.960938 "/>
</g>
<path fill-rule="nonzero" fill="rgb(0%, 0%, 0%)" fill-opacity="0.698039" d="M 61.894531 62.398438 L 74.875 62.398438 L 74.875 59.949219 L 61.894531 59.949219 Z M 61.894531 62.398438 "/>
<path fill-rule="nonzero" fill="rgb(0%, 0%, 0%)" fill-opacity="0.698039" d="M 74.875 62.398438 L 87.855469 62.398438 L 87.855469 59.949219 L 74.875 59.949219 Z M 74.875 62.398438 "/>
<path fill-rule="nonzero" fill="rgb(0%, 0%, 0%)" fill-opacity="0.698039" d="M 100.835938 62.398438 L 113.816406 62.398438 L 113.816406 57.5 L 100.835938 57.5 Z M 100.835938 62.398438 "/>
<path fill-rule="nonzero" fill="rgb(0%, 0%, 0%)" fill-opacity="0.698039" d="M 113.816406 62.398438 L 126.796875 62.398438 L 126.796875 50.148438 L 113.816406 50.148438 Z M 113.816406 62.398438 "/>
<path fill-rule="nonzero" fill="rgb(0%, 0%, 0%)" fill-opacity="0.698039" d="M 126.796875 62.398438 L 139.777344 62.398438 L 139.777344 55.050781 L 126.796875 55.050781 Z M 126.796875 62.398438 "/>
<path fill-rule="nonzero" fill="rgb(0%, 0%, 0%)" fill-opacity="0.698039" d="M 139.777344 62.398438 L 152.757812 62.398438 L 152.757812 55.050781 L 139.777344 55.050781 Z M 139.777344 62.398438 "/>
<path fill-rule="nonzero" fill="rgb(0%, 0%, 0%)" fill-opacity="0.698039" d="M 152.757812 62.398438 L 165.738281 62.398438 L 165.738281 55.050781 L 152.757812 55.050781 Z M 152.757812 62.398438 "/>
<path fill-rule="nonzero" fill="rgb(0%, 0%, 0%)" fill-opacity="0.698039" d="M 165.734375 62.398438 L 178.714844 62.398438 L 178.714844 47.699219 L 165.734375 47.699219 Z M 165.734375 62.398438 "/>
<path fill-rule="nonzero" fill="rgb(0%, 0%, 0%)" fill-opacity="0.698039" d="M 178.714844 62.398438 L 191.695312 62.398438 L 191.695312 57.5 L 178.714844 57.5 Z M 178.714844 62.398438 "/>
<path fill-rule="nonzero" fill="rgb(0%, 0%, 0%)" fill-opacity="0.698039" d="M 191.695312 62.398438 L 204.675781 62.398438 L 204.675781 50.148438 L 191.695312 50.148438 Z M 191.695312 62.398438 "/>
<path fill-rule="nonzero" fill="rgb(0%, 0%, 0%)" fill-opacity="0.698039" d="M 204.675781 62.398438 L 217.65625 62.398438 L 217.65625 40.351562 L 204.675781 40.351562 Z M 204.675781 62.398438 "/>
<path fill-rule="nonzero" fill="rgb(0%, 0%, 0%)" fill-opacity="0.698039" d="M 217.65625 62.398438 L 230.636719 62.398438 L 230.636719 30.554688 L 217.65625 30.554688 Z M 217.65625 62.398438 "/>
<path fill-rule="nonzero" fill="rgb(0%, 0%, 0%)" fill-opacity="0.698039" d="M 230.636719 62.398438 L 243.617188 62.398438 L 243.617188 33.003906 L 230.636719 33.003906 Z M 230.636719 62.398438 "/>
<path fill-rule="nonzero" fill="rgb(0%, 0%, 0%)" fill-opacity="0.698039" d="M 243.617188 62.398438 L 256.597656 62.398438 L 256.597656 30.554688 L 243.617188 30.554688 Z M 243.617188 62.398438 "/>
<path fill-rule="nonzero" fill="rgb(0%, 0%, 0%)" fill-opacity="0.698039" d="M 256.59375 62.398438 L 269.574219 62.398438 L 269.574219 35.453125 L 256.59375 35.453125 Z M 256.59375 62.398438 "/>
<path fill-rule="nonzero" fill="rgb(0%, 0%, 0%)" fill-opacity="0.698039" d="M 269.574219 62.398438 L 282.554688 62.398438 L 282.554688 33.003906 L 269.574219 33.003906 Z M 269.574219 62.398438 "/>
<path fill-rule="nonzero" fill="rgb(0%, 0%, 0%)" fill-opacity="0.698039" d="M 282.554688 62.398438 L 295.535156 62.398438 L 295.535156 47.699219 L 282.554688 47.699219 Z M 282.554688 62.398438 "/>
<path fill-rule="nonzero" fill="rgb(0%, 0%, 0%)" fill-opacity="0.698039" d="M 295.535156 62.398438 L 308.515625 62.398438 L 308.515625 47.699219 L 295.535156 47.699219 Z M 295.535156 62.398438 "/>
<path fill-rule="nonzero" fill="rgb(0%, 0%, 0%)" fill-opacity="0.698039" d="M 308.515625 62.398438 L 321.496094 62.398438 L 321.496094 47.699219 L 308.515625 47.699219 Z M 308.515625 62.398438 "/>
<path fill-rule="nonzero" fill="rgb(0%, 0%, 0%)" fill-opacity="0.698039" d="M 321.496094 62.398438 L 334.476562 62.398438 L 334.476562 55.050781 L 321.496094 55.050781 Z M 321.496094 62.398438 "/>
<path fill-rule="nonzero" fill="rgb(0%, 0%, 0%)" fill-opacity="0.698039" d="M 334.476562 62.398438 L 347.457031 62.398438 L 347.457031 59.949219 L 334.476562 59.949219 Z M 334.476562 62.398438 "/>
<path fill-rule="nonzero" fill="rgb(0%, 0%, 0%)" fill-opacity="0.698039" d="M 360.433594 62.398438 L 373.414062 62.398438 L 373.414062 57.5 L 360.433594 57.5 Z M 360.433594 62.398438 "/>
<path fill-rule="nonzero" fill="rgb(0%, 0%, 0%)" fill-opacity="0.698039" d="M 425.335938 62.398438 L 438.316406 62.398438 L 438.316406 57.5 L 425.335938 57.5 Z M 425.335938 62.398438 "/>
<path fill-rule="nonzero" fill="rgb(0%, 0%, 0%)" fill-opacity="0.698039" d="M 451.292969 62.398438 L 464.273438 62.398438 L 464.273438 57.5 L 451.292969 57.5 Z M 451.292969 62.398438 "/>
<path fill="none" stroke-width="1.066978" stroke-linecap="butt" stroke-linejoin="round" stroke="rgb(81.176471%, 87.843137%, 94.901961%)" stroke-opacity="1" stroke-miterlimit="10" d="M 41.128906 63.992188 L 41.128906 28.960938 "/>
<g fill="rgb(39.215686%, 45.882353%, 52.941176%)" fill-opacity="1">
<use xlink:href="#glyph-0-0" x="27.417969" y="66.335938"/>
</g>
<g fill="rgb(39.215686%, 45.882353%, 52.941176%)" fill-opacity="1">
<use xlink:href="#glyph-0-1" x="27.417969" y="54.085938"/>
</g>
<g fill="rgb(39.215686%, 45.882353%, 52.941176%)" fill-opacity="1">
<use xlink:href="#glyph-0-2" x="22.078125" y="41.839844"/>
<use xlink:href="#glyph-0-0" x="27.417188" y="41.839844"/>
</g>
<path fill="none" stroke-width="0.853583" stroke-linecap="butt" stroke-linejoin="round" stroke="rgb(81.176471%, 87.843137%, 94.901961%)" stroke-opacity="1" stroke-miterlimit="10" d="M 38.140625 62.398438 L 41.128906 62.398438 "/>
<path fill="none" stroke-width="0.853583" stroke-linecap="butt" stroke-linejoin="round" stroke="rgb(81.176471%, 87.843137%, 94.901961%)" stroke-opacity="1" stroke-miterlimit="10" d="M 38.140625 50.148438 L 41.128906 50.148438 "/>
<path fill="none" stroke-width="0.853583" stroke-linecap="butt" stroke-linejoin="round" stroke="rgb(81.176471%, 87.843137%, 94.901961%)" stroke-opacity="1" stroke-miterlimit="10" d="M 38.140625 37.902344 L 41.128906 37.902344 "/>
<path fill="none" stroke-width="1.066978" stroke-linecap="butt" stroke-linejoin="round" stroke="rgb(81.176471%, 87.843137%, 94.901961%)" stroke-opacity="1" stroke-miterlimit="10" d="M 41.128906 63.992188 L 498.023438 63.992188 "/>
<path fill="none" stroke-width="0.853583" stroke-linecap="butt" stroke-linejoin="round" stroke="rgb(81.176471%, 87.843137%, 94.901961%)" stroke-opacity="1" stroke-miterlimit="10" d="M 61.894531 66.980469 L 61.894531 63.992188 "/>
<path fill="none" stroke-width="0.853583" stroke-linecap="butt" stroke-linejoin="round" stroke="rgb(81.176471%, 87.843137%, 94.901961%)" stroke-opacity="1" stroke-miterlimit="10" d="M 152.757812 66.980469 L 152.757812 63.992188 "/>
<path fill="none" stroke-width="0.853583" stroke-linecap="butt" stroke-linejoin="round" stroke="rgb(81.176471%, 87.843137%, 94.901961%)" stroke-opacity="1" stroke-miterlimit="10" d="M 243.617188 66.980469 L 243.617188 63.992188 "/>
<path fill="none" stroke-width="0.853583" stroke-linecap="butt" stroke-linejoin="round" stroke="rgb(81.176471%, 87.843137%, 94.901961%)" stroke-opacity="1" stroke-miterlimit="10" d="M 334.476562 66.980469 L 334.476562 63.992188 "/>
<path fill="none" stroke-width="0.853583" stroke-linecap="butt" stroke-linejoin="round" stroke="rgb(81.176471%, 87.843137%, 94.901961%)" stroke-opacity="1" stroke-miterlimit="10" d="M 425.335938 66.980469 L 425.335938 63.992188 "/>
<g fill="rgb(39.215686%, 45.882353%, 52.941176%)" fill-opacity="1">
<use xlink:href="#glyph-0-3" x="37.339844" y="80.230469"/>
<use xlink:href="#glyph-0-0" x="42.678906" y="80.230469"/>
<use xlink:href="#glyph-0-0" x="48.017969" y="80.230469"/>
<use xlink:href="#glyph-0-4" x="53.357031" y="80.230469"/>
<use xlink:href="#glyph-0-5" x="58.696094" y="80.230469"/>
<use xlink:href="#glyph-0-0" x="61.892969" y="80.230469"/>
<use xlink:href="#glyph-0-6" x="67.232031" y="80.230469"/>
<use xlink:href="#glyph-0-5" x="72.571094" y="80.230469"/>
<use xlink:href="#glyph-0-3" x="75.767969" y="80.230469"/>
<use xlink:href="#glyph-0-7" x="81.107031" y="80.230469"/>
</g>
<g fill="rgb(39.215686%, 45.882353%, 52.941176%)" fill-opacity="1">
<use xlink:href="#glyph-0-3" x="128.203125" y="80.230469"/>
<use xlink:href="#glyph-0-0" x="133.542188" y="80.230469"/>
<use xlink:href="#glyph-0-0" x="138.88125" y="80.230469"/>
<use xlink:href="#glyph-0-4" x="144.220313" y="80.230469"/>
<use xlink:href="#glyph-0-5" x="149.559375" y="80.230469"/>
<use xlink:href="#glyph-0-0" x="152.75625" y="80.230469"/>
<use xlink:href="#glyph-0-1" x="158.095313" y="80.230469"/>
<use xlink:href="#glyph-0-5" x="163.434375" y="80.230469"/>
<use xlink:href="#glyph-0-0" x="166.63125" y="80.230469"/>
<use xlink:href="#glyph-0-6" x="171.970313" y="80.230469"/>
</g>
<g fill="rgb(39.215686%, 45.882353%, 52.941176%)" fill-opacity="1">
<use xlink:href="#glyph-0-3" x="219.0625" y="80.230469"/>
<use xlink:href="#glyph-0-0" x="224.401563" y="80.230469"/>
<use xlink:href="#glyph-0-0" x="229.740625" y="80.230469"/>
<use xlink:href="#glyph-0-4" x="235.079688" y="80.230469"/>
<use xlink:href="#glyph-0-5" x="240.41875" y="80.230469"/>
<use xlink:href="#glyph-0-0" x="243.615625" y="80.230469"/>
<use xlink:href="#glyph-0-1" x="248.954688" y="80.230469"/>
<use xlink:href="#glyph-0-5" x="254.29375" y="80.230469"/>
<use xlink:href="#glyph-0-2" x="257.490625" y="80.230469"/>
<use xlink:href="#glyph-0-2" x="262.829688" y="80.230469"/>
</g>
<g fill="rgb(39.215686%, 45.882353%, 52.941176%)" fill-opacity="1">
<use xlink:href="#glyph-0-3" x="309.921875" y="80.230469"/>
<use xlink:href="#glyph-0-0" x="315.260938" y="80.230469"/>
<use xlink:href="#glyph-0-0" x="320.6" y="80.230469"/>
<use xlink:href="#glyph-0-4" x="325.939063" y="80.230469"/>
<use xlink:href="#glyph-0-5" x="331.278125" y="80.230469"/>
<use xlink:href="#glyph-0-0" x="334.475" y="80.230469"/>
<use xlink:href="#glyph-0-1" x="339.814063" y="80.230469"/>
<use xlink:href="#glyph-0-5" x="345.153125" y="80.230469"/>
<use xlink:href="#glyph-0-2" x="348.35" y="80.230469"/>
<use xlink:href="#glyph-0-8" x="353.689063" y="80.230469"/>
</g>
<g fill="rgb(39.215686%, 45.882353%, 52.941176%)" fill-opacity="1">
<use xlink:href="#glyph-0-3" x="400.78125" y="80.230469"/>
<use xlink:href="#glyph-0-0" x="406.120313" y="80.230469"/>
<use xlink:href="#glyph-0-0" x="411.459375" y="80.230469"/>
<use xlink:href="#glyph-0-4" x="416.798438" y="80.230469"/>
<use xlink:href="#glyph-0-5" x="422.1375" y="80.230469"/>
<use xlink:href="#glyph-0-0" x="425.334375" y="80.230469"/>
<use xlink:href="#glyph-0-1" x="430.673438" y="80.230469"/>
<use xlink:href="#glyph-0-5" x="436.0125" y="80.230469"/>
<use xlink:href="#glyph-0-3" x="439.209375" y="80.230469"/>
<use xlink:href="#glyph-0-1" x="444.548438" y="80.230469"/>
</g>
<g fill="rgb(25.882353%, 33.72549%, 41.960784%)" fill-opacity="1">
<use xlink:href="#glyph-1-0" x="256.242188" y="95.832031"/>
<use xlink:href="#glyph-1-1" x="263.572266" y="95.832031"/>
<use xlink:href="#glyph-1-2" x="266.238281" y="95.832031"/>
<use xlink:href="#glyph-1-3" x="276.234375" y="95.832031"/>
</g>
<g fill="rgb(25.882353%, 33.72549%, 41.960784%)" fill-opacity="1">
<use xlink:href="#glyph-2-0" x="15.566406" y="72.160156"/>
<use xlink:href="#glyph-2-1" x="15.566406" y="68.826172"/>
<use xlink:href="#glyph-2-2" x="15.566406" y="62.152344"/>
<use xlink:href="#glyph-2-3" x="15.566406" y="56.152344"/>
<use xlink:href="#glyph-2-4" x="15.566406" y="53.486328"/>
<use xlink:href="#glyph-2-5" x="15.566406" y="46.8125"/>
<use xlink:href="#glyph-2-1" x="15.566406" y="40.138672"/>
<use xlink:href="#glyph-2-2" x="15.566406" y="33.464844"/>
<use xlink:href="#glyph-2-5" x="15.566406" y="27.464844"/>
</g>
<g fill="rgb(0%, 12.941176%, 27.843137%)" fill-opacity="1">
<use xlink:href="#glyph-3-0" x="41.128906" y="18.574219"/>
<use xlink:href="#glyph-3-1" x="51.93418" y="18.574219"/>
<use xlink:href="#glyph-3-2" x="61.829785" y="18.574219"/>
<use xlink:href="#glyph-3-3" x="66.330664" y="18.574219"/>
<use xlink:href="#glyph-3-4" x="76.22627" y="18.574219"/>
<use xlink:href="#glyph-3-5" x="85.235938" y="18.574219"/>
<use xlink:href="#glyph-3-2" x="99.640332" y="18.574219"/>
<use xlink:href="#glyph-3-6" x="104.141211" y="18.574219"/>
<use xlink:href="#glyph-3-7" x="113.150879" y="18.574219"/>
<use xlink:href="#glyph-3-6" x="117.651758" y="18.574219"/>
<use xlink:href="#glyph-3-8" x="126.661426" y="18.574219"/>
<use xlink:href="#glyph-3-9" x="136.557031" y="18.574219"/>
<use xlink:href="#glyph-3-10" x="142.861426" y="18.574219"/>
<use xlink:href="#glyph-3-4" x="151.871094" y="18.574219"/>
</g>
<g clip-path="url(#clip-10)">
<path fill-rule="nonzero" fill="rgb(100%, 100%, 100%)" fill-opacity="1" d="M 0 210.667969 L 504 210.667969 L 504 105.335938 L 0 105.335938 Z M 0 210.667969 "/>
</g>
<g clip-path="url(#clip-11)">
<path fill-rule="nonzero" fill="rgb(100%, 100%, 100%)" fill-opacity="1" d="M 35.789062 169.324219 L 418.84375 169.324219 L 418.84375 134.292969 L 35.789062 134.292969 Z M 35.789062 169.324219 "/>
</g>
<g clip-path="url(#clip-12)">
<path fill="none" stroke-width="1.066978" stroke-linecap="butt" stroke-linejoin="round" stroke="rgb(89.019608%, 92.941176%, 97.647059%)" stroke-opacity="1" stroke-miterlimit="10" d="M 35.789062 167.730469 L 418.84375 167.730469 "/>
</g>
<g clip-path="url(#clip-13)">
<path fill="none" stroke-width="1.066978" stroke-linecap="butt" stroke-linejoin="round" stroke="rgb(89.019608%, 92.941176%, 97.647059%)" stroke-opacity="1" stroke-miterlimit="10" d="M 35.789062 155.597656 L 418.84375 155.597656 "/>
</g>
<g clip-path="url(#clip-14)">
<path fill="none" stroke-width="1.066978" stroke-linecap="butt" stroke-linejoin="round" stroke="rgb(89.019608%, 92.941176%, 97.647059%)" stroke-opacity="1" stroke-miterlimit="10" d="M 35.789062 143.464844 L 418.84375 143.464844 "/>
</g>
<g clip-path="url(#clip-15)">
<path fill="none" stroke-width="1.066978" stroke-linecap="butt" stroke-linejoin="round" stroke="rgb(89.019608%, 92.941176%, 97.647059%)" stroke-opacity="1" stroke-miterlimit="10" d="M 53.199219 169.324219 L 53.199219 134.292969 "/>
</g>
<g clip-path="url(#clip-16)">
<path fill="none" stroke-width="1.066978" stroke-linecap="butt" stroke-linejoin="round" stroke="rgb(89.019608%, 92.941176%, 97.647059%)" stroke-opacity="1" stroke-miterlimit="10" d="M 129.375 169.324219 L 129.375 134.292969 "/>
</g>
<g clip-path="url(#clip-17)">
<path fill="none" stroke-width="1.066978" stroke-linecap="butt" stroke-linejoin="round" stroke="rgb(89.019608%, 92.941176%, 97.647059%)" stroke-opacity="1" stroke-miterlimit="10" d="M 205.550781 169.324219 L 205.550781 134.292969 "/>
</g>
<g clip-path="url(#clip-18)">
<path fill="none" stroke-width="1.066978" stroke-linecap="butt" stroke-linejoin="round" stroke="rgb(89.019608%, 92.941176%, 97.647059%)" stroke-opacity="1" stroke-miterlimit="10" d="M 281.726562 169.324219 L 281.726562 134.292969 "/>
</g>
<g clip-path="url(#clip-19)">
<path fill="none" stroke-width="1.066978" stroke-linecap="butt" stroke-linejoin="round" stroke="rgb(89.019608%, 92.941176%, 97.647059%)" stroke-opacity="1" stroke-miterlimit="10" d="M 357.902344 169.324219 L 357.902344 134.292969 "/>
</g>
<path fill-rule="nonzero" fill="rgb(0%, 0%, 0%)" fill-opacity="0.2" d="M 129.375 135.886719 L 140.257812 137 L 151.140625 141.09375 L 162.023438 143.359375 L 172.90625 143.996094 L 183.789062 141.457031 L 194.667969 141.636719 L 205.550781 142.90625 L 216.433594 145.886719 L 227.316406 146.589844 L 238.199219 149.027344 L 249.082031 151.445312 L 259.964844 153.480469 L 270.84375 155.070312 L 281.726562 156.757812 L 292.609375 158.019531 L 303.492188 159.082031 L 314.375 159.140625 L 325.257812 159.5625 L 336.136719 160.988281 L 347.019531 161.347656 L 357.902344 156.367188 L 368.785156 150.996094 L 379.667969 146.378906 L 390.550781 142.941406 L 390.550781 163.800781 L 379.667969 164.347656 L 368.785156 165.078125 L 357.902344 165.929688 L 347.019531 166.9375 L 336.136719 166.277344 L 325.257812 165.035156 L 314.375 164.277344 L 303.492188 163.8125 L 292.609375 162.75 L 281.726562 161.59375 L 270.84375 160.179688 L 259.964844 158.921875 L 249.082031 157.421875 L 238.199219 155.78125 L 227.316406 154.265625 L 216.433594 154.273438 L 205.550781 152.734375 L 194.667969 152.699219 L 183.789062 153.433594 L 172.90625 155.925781 L 162.023438 156.1875 L 151.140625 155.664062 L 140.257812 154.277344 L 129.375 155.25 Z M 129.375 135.886719 "/>
<path fill="none" stroke-width="1.163976" stroke-linecap="butt" stroke-linejoin="round" stroke="rgb(0%, 0%, 0%)" stroke-opacity="1" stroke-miterlimit="10" d="M 129.375 146.671875 L 140.257812 146.511719 L 151.140625 149.082031 L 162.023438 150.359375 L 172.90625 150.46875 L 183.789062 147.890625 L 194.667969 147.542969 L 205.550781 148.125 L 216.433594 150.328125 L 227.316406 150.640625 L 238.199219 152.589844 L 249.082031 154.601562 L 259.964844 156.363281 L 270.84375 157.789062 L 281.726562 159.347656 L 292.609375 160.578125 L 303.492188 161.675781 L 314.375 161.992188 L 325.257812 162.664062 L 336.136719 164.117188 L 347.019531 164.820312 L 357.902344 162.183594 L 368.785156 159.5625 L 379.667969 157.308594 L 390.550781 155.628906 "/>
<g clip-path="url(#clip-20)">
<path fill="none" stroke-width="1.163976" stroke-linecap="butt" stroke-linejoin="round" stroke="rgb(0%, 0%, 0%)" stroke-opacity="1" stroke-dasharray="1.163976 3.491929" stroke-miterlimit="10" d="M 35.789062 155.597656 L 418.84375 155.597656 "/>
</g>
<path fill="none" stroke-width="1.066978" stroke-linecap="butt" stroke-linejoin="round" stroke="rgb(81.176471%, 87.843137%, 94.901961%)" stroke-opacity="1" stroke-miterlimit="10" d="M 35.789062 169.324219 L 35.789062 134.292969 "/>
<g fill="rgb(39.215686%, 45.882353%, 52.941176%)" fill-opacity="1">
<use xlink:href="#glyph-0-0" x="22.082031" y="171.667969"/>
</g>
<g fill="rgb(39.215686%, 45.882353%, 52.941176%)" fill-opacity="1">
<use xlink:href="#glyph-0-2" x="22.082031" y="159.535156"/>
</g>
<g fill="rgb(39.215686%, 45.882353%, 52.941176%)" fill-opacity="1">
<use xlink:href="#glyph-0-3" x="22.082031" y="147.402344"/>
</g>
<path fill="none" stroke-width="0.853583" stroke-linecap="butt" stroke-linejoin="round" stroke="rgb(81.176471%, 87.843137%, 94.901961%)" stroke-opacity="1" stroke-miterlimit="10" d="M 32.800781 167.730469 L 35.789062 167.730469 "/>
<path fill="none" stroke-width="0.853583" stroke-linecap="butt" stroke-linejoin="round" stroke="rgb(81.176471%, 87.843137%, 94.901961%)" stroke-opacity="1" stroke-miterlimit="10" d="M 32.800781 155.597656 L 35.789062 155.597656 "/>
<path fill="none" stroke-width="0.853583" stroke-linecap="butt" stroke-linejoin="round" stroke="rgb(81.176471%, 87.843137%, 94.901961%)" stroke-opacity="1" stroke-miterlimit="10" d="M 32.800781 143.464844 L 35.789062 143.464844 "/>
<path fill="none" stroke-width="1.066978" stroke-linecap="butt" stroke-linejoin="round" stroke="rgb(81.176471%, 87.843137%, 94.901961%)" stroke-opacity="1" stroke-miterlimit="10" d="M 35.789062 169.324219 L 418.84375 169.324219 "/>
<path fill="none" stroke-width="0.853583" stroke-linecap="butt" stroke-linejoin="round" stroke="rgb(81.176471%, 87.843137%, 94.901961%)" stroke-opacity="1" stroke-miterlimit="10" d="M 53.199219 172.3125 L 53.199219 169.324219 "/>
<path fill="none" stroke-width="0.853583" stroke-linecap="butt" stroke-linejoin="round" stroke="rgb(81.176471%, 87.843137%, 94.901961%)" stroke-opacity="1" stroke-miterlimit="10" d="M 129.375 172.3125 L 129.375 169.324219 "/>
<path fill="none" stroke-width="0.853583" stroke-linecap="butt" stroke-linejoin="round" stroke="rgb(81.176471%, 87.843137%, 94.901961%)" stroke-opacity="1" stroke-miterlimit="10" d="M 205.550781 172.3125 L 205.550781 169.324219 "/>
<path fill="none" stroke-width="0.853583" stroke-linecap="butt" stroke-linejoin="round" stroke="rgb(81.176471%, 87.843137%, 94.901961%)" stroke-opacity="1" stroke-miterlimit="10" d="M 281.726562 172.3125 L 281.726562 169.324219 "/>
<path fill="none" stroke-width="0.853583" stroke-linecap="butt" stroke-linejoin="round" stroke="rgb(81.176471%, 87.843137%, 94.901961%)" stroke-opacity="1" stroke-miterlimit="10" d="M 357.902344 172.3125 L 357.902344 169.324219 "/>
<g fill="rgb(39.215686%, 45.882353%, 52.941176%)" fill-opacity="1">
<use xlink:href="#glyph-0-9" x="39.058594" y="185.566406"/>
<use xlink:href="#glyph-0-10" x="45.461719" y="185.566406"/>
<use xlink:href="#glyph-0-11" x="50.800781" y="185.566406"/>
<use xlink:href="#glyph-0-12" x="53.997656" y="185.566406"/>
<use xlink:href="#glyph-0-3" x="56.664844" y="185.566406"/>
<use xlink:href="#glyph-0-7" x="62.003906" y="185.566406"/>
</g>
<g fill="rgb(39.215686%, 45.882353%, 52.941176%)" fill-opacity="1">
<use xlink:href="#glyph-0-13" x="113.632812" y="185.566406"/>
<use xlink:href="#glyph-0-14" x="121.629688" y="185.566406"/>
<use xlink:href="#glyph-0-15" x="126.96875" y="185.566406"/>
<use xlink:href="#glyph-0-12" x="131.76875" y="185.566406"/>
<use xlink:href="#glyph-0-0" x="134.435938" y="185.566406"/>
<use xlink:href="#glyph-0-6" x="139.775" y="185.566406"/>
</g>
<g fill="rgb(39.215686%, 45.882353%, 52.941176%)" fill-opacity="1">
<use xlink:href="#glyph-0-13" x="189.808594" y="185.566406"/>
<use xlink:href="#glyph-0-14" x="197.805469" y="185.566406"/>
<use xlink:href="#glyph-0-15" x="203.144531" y="185.566406"/>
<use xlink:href="#glyph-0-12" x="207.944531" y="185.566406"/>
<use xlink:href="#glyph-0-2" x="210.611719" y="185.566406"/>
<use xlink:href="#glyph-0-2" x="215.950781" y="185.566406"/>
</g>
<g fill="rgb(39.215686%, 45.882353%, 52.941176%)" fill-opacity="1">
<use xlink:href="#glyph-0-13" x="265.984375" y="185.566406"/>
<use xlink:href="#glyph-0-14" x="273.98125" y="185.566406"/>
<use xlink:href="#glyph-0-15" x="279.320312" y="185.566406"/>
<use xlink:href="#glyph-0-12" x="284.120313" y="185.566406"/>
<use xlink:href="#glyph-0-2" x="286.7875" y="185.566406"/>
<use xlink:href="#glyph-0-8" x="292.126563" y="185.566406"/>
</g>
<g fill="rgb(39.215686%, 45.882353%, 52.941176%)" fill-opacity="1">
<use xlink:href="#glyph-0-13" x="342.160156" y="185.566406"/>
<use xlink:href="#glyph-0-14" x="350.157031" y="185.566406"/>
<use xlink:href="#glyph-0-15" x="355.496094" y="185.566406"/>
<use xlink:href="#glyph-0-12" x="360.296094" y="185.566406"/>
<use xlink:href="#glyph-0-3" x="362.963281" y="185.566406"/>
<use xlink:href="#glyph-0-1" x="368.302344" y="185.566406"/>
</g>
<g fill="rgb(25.882353%, 33.72549%, 41.960784%)" fill-opacity="1">
<use xlink:href="#glyph-1-0" x="213.984375" y="201.164062"/>
<use xlink:href="#glyph-1-1" x="221.314453" y="201.164062"/>
<use xlink:href="#glyph-1-2" x="223.980469" y="201.164062"/>
<use xlink:href="#glyph-1-3" x="233.976562" y="201.164062"/>
</g>
<g fill="rgb(25.882353%, 33.72549%, 41.960784%)" fill-opacity="1">
<use xlink:href="#glyph-2-6" x="15.566406" y="156.140625"/>
</g>
<path fill="none" stroke-width="1.163976" stroke-linecap="butt" stroke-linejoin="round" stroke="rgb(0%, 0%, 0%)" stroke-opacity="1" stroke-miterlimit="10" d="M 438.503906 131.214844 L 452.328125 131.214844 "/>
<g fill="rgb(25.882353%, 33.72549%, 41.960784%)" fill-opacity="1">
<use xlink:href="#glyph-0-13" x="460.035156" y="135.148438"/>
<use xlink:href="#glyph-0-16" x="468.032031" y="135.148438"/>
<use xlink:href="#glyph-0-14" x="473.371094" y="135.148438"/>
<use xlink:href="#glyph-0-17" x="478.710156" y="135.148438"/>
</g>
<path fill-rule="nonzero" fill="rgb(0%, 0%, 0%)" fill-opacity="0.2" d="M 437.550781 199.363281 L 453.285156 199.363281 L 453.285156 183.628906 L 437.550781 183.628906 Z M 437.550781 199.363281 "/>
<g fill="rgb(25.882353%, 33.72549%, 41.960784%)" fill-opacity="1">
<use xlink:href="#glyph-0-4" x="460.035156" y="195.433594"/>
<use xlink:href="#glyph-0-1" x="465.374219" y="195.433594"/>
<use xlink:href="#glyph-0-18" x="470.713281" y="195.433594"/>
<use xlink:href="#glyph-0-19" x="479.249219" y="195.433594"/>
<use xlink:href="#glyph-0-11" x="486.182031" y="195.433594"/>
<use xlink:href="#glyph-0-20" x="489.378906" y="195.433594"/>
</g>
<g fill="rgb(0%, 12.941176%, 27.843137%)" fill-opacity="1">
<use xlink:href="#glyph-3-0" x="35.789062" y="123.90625"/>
<use xlink:href="#glyph-3-11" x="46.594336" y="123.90625"/>
<use xlink:href="#glyph-3-12" x="55.604004" y="123.90625"/>
<use xlink:href="#glyph-3-2" x="60.99873" y="123.90625"/>
<use xlink:href="#glyph-3-5" x="65.499609" y="123.90625"/>
<use xlink:href="#glyph-3-13" x="79.904004" y="123.90625"/>
<use xlink:href="#glyph-3-12" x="88.913672" y="123.90625"/>
<use xlink:href="#glyph-3-4" x="94.308398" y="123.90625"/>
<use xlink:href="#glyph-3-3" x="103.318066" y="123.90625"/>
<use xlink:href="#glyph-3-7" x="113.213672" y="123.90625"/>
<use xlink:href="#glyph-3-14" x="117.714551" y="123.90625"/>
</g>
<g clip-path="url(#clip-21)">
<path fill-rule="nonzero" fill="rgb(100%, 100%, 100%)" fill-opacity="1" d="M 0 316 L 504 316 L 504 210.667969 L 0 210.667969 Z M 0 316 "/>
</g>
<g clip-path="url(#clip-22)">
<path fill-rule="nonzero" fill="rgb(100%, 100%, 100%)" fill-opacity="1" d="M 43.796875 274.65625 L 498.023438 274.65625 L 498.023438 239.625 L 43.796875 239.625 Z M 43.796875 274.65625 "/>
</g>
<g clip-path="url(#clip-23)">
<path fill="none" stroke-width="1.066978" stroke-linecap="butt" stroke-linejoin="round" stroke="rgb(89.019608%, 92.941176%, 97.647059%)" stroke-opacity="1" stroke-miterlimit="10" d="M 43.796875 273.066406 L 498.023438 273.066406 "/>
</g>
<g clip-path="url(#clip-24)">
<path fill="none" stroke-width="1.066978" stroke-linecap="butt" stroke-linejoin="round" stroke="rgb(89.019608%, 92.941176%, 97.647059%)" stroke-opacity="1" stroke-miterlimit="10" d="M 43.796875 264.183594 L 498.023438 264.183594 "/>
</g>
<g clip-path="url(#clip-25)">
<path fill="none" stroke-width="1.066978" stroke-linecap="butt" stroke-linejoin="round" stroke="rgb(89.019608%, 92.941176%, 97.647059%)" stroke-opacity="1" stroke-miterlimit="10" d="M 43.796875 255.304688 L 498.023438 255.304688 "/>
</g>
<g clip-path="url(#clip-26)">
<path fill="none" stroke-width="1.066978" stroke-linecap="butt" stroke-linejoin="round" stroke="rgb(89.019608%, 92.941176%, 97.647059%)" stroke-opacity="1" stroke-miterlimit="10" d="M 43.796875 246.421875 L 498.023438 246.421875 "/>
</g>
<g clip-path="url(#clip-27)">
<path fill="none" stroke-width="1.066978" stroke-linecap="butt" stroke-linejoin="round" stroke="rgb(89.019608%, 92.941176%, 97.647059%)" stroke-opacity="1" stroke-miterlimit="10" d="M 64.441406 274.65625 L 64.441406 239.628906 "/>
</g>
<g clip-path="url(#clip-28)">
<path fill="none" stroke-width="1.066978" stroke-linecap="butt" stroke-linejoin="round" stroke="rgb(89.019608%, 92.941176%, 97.647059%)" stroke-opacity="1" stroke-miterlimit="10" d="M 167.675781 274.65625 L 167.675781 239.628906 "/>
</g>
<g clip-path="url(#clip-29)">
<path fill="none" stroke-width="1.066978" stroke-linecap="butt" stroke-linejoin="round" stroke="rgb(89.019608%, 92.941176%, 97.647059%)" stroke-opacity="1" stroke-miterlimit="10" d="M 270.910156 274.65625 L 270.910156 239.628906 "/>
</g>
<g clip-path="url(#clip-30)">
<path fill="none" stroke-width="1.066978" stroke-linecap="butt" stroke-linejoin="round" stroke="rgb(89.019608%, 92.941176%, 97.647059%)" stroke-opacity="1" stroke-miterlimit="10" d="M 374.140625 274.65625 L 374.140625 239.628906 "/>
</g>
<g clip-path="url(#clip-31)">
<path fill="none" stroke-width="1.066978" stroke-linecap="butt" stroke-linejoin="round" stroke="rgb(89.019608%, 92.941176%, 97.647059%)" stroke-opacity="1" stroke-miterlimit="10" d="M 477.375 274.65625 L 477.375 239.628906 "/>
</g>
<path fill="none" stroke-width="1.163976" stroke-linecap="butt" stroke-linejoin="round" stroke="rgb(0%, 0%, 0%)" stroke-opacity="0.25098" stroke-miterlimit="10" d="M 64.441406 273.066406 L 105.734375 252.355469 L 147.027344 241.21875 L 188.324219 255.472656 L 229.617188 263.886719 L 270.910156 268.367188 L 312.203125 270.683594 L 353.496094 271.863281 L 394.789062 272.460938 L 436.082031 272.765625 L 477.375 272.914062 "/>
<path fill="none" stroke-width="1.066978" stroke-linecap="butt" stroke-linejoin="round" stroke="rgb(81.176471%, 87.843137%, 94.901961%)" stroke-opacity="1" stroke-miterlimit="10" d="M 43.796875 274.65625 L 43.796875 239.628906 "/>
<g fill="rgb(39.215686%, 45.882353%, 52.941176%)" fill-opacity="1">
<use xlink:href="#glyph-0-0" x="22.082031" y="277"/>
<use xlink:href="#glyph-0-21" x="27.421094" y="277"/>
<use xlink:href="#glyph-0-0" x="30.088281" y="277"/>
</g>
<g fill="rgb(39.215686%, 45.882353%, 52.941176%)" fill-opacity="1">
<use xlink:href="#glyph-0-0" x="22.082031" y="268.121094"/>
<use xlink:href="#glyph-0-21" x="27.421094" y="268.121094"/>
<use xlink:href="#glyph-0-2" x="30.088281" y="268.121094"/>
</g>
<g fill="rgb(39.215686%, 45.882353%, 52.941176%)" fill-opacity="1">
<use xlink:href="#glyph-0-0" x="22.082031" y="259.238281"/>
<use xlink:href="#glyph-0-21" x="27.421094" y="259.238281"/>
<use xlink:href="#glyph-0-3" x="30.088281" y="259.238281"/>
</g>
<g fill="rgb(39.215686%, 45.882353%, 52.941176%)" fill-opacity="1">
<use xlink:href="#glyph-0-0" x="22.082031" y="250.359375"/>
<use xlink:href="#glyph-0-21" x="27.421094" y="250.359375"/>
<use xlink:href="#glyph-0-22" x="30.088281" y="250.359375"/>
</g>
<path fill="none" stroke-width="0.853583" stroke-linecap="butt" stroke-linejoin="round" stroke="rgb(81.176471%, 87.843137%, 94.901961%)" stroke-opacity="1" stroke-miterlimit="10" d="M 40.808594 273.066406 L 43.796875 273.066406 "/>
<path fill="none" stroke-width="0.853583" stroke-linecap="butt" stroke-linejoin="round" stroke="rgb(81.176471%, 87.843137%, 94.901961%)" stroke-opacity="1" stroke-miterlimit="10" d="M 40.808594 264.183594 L 43.796875 264.183594 "/>
<path fill="none" stroke-width="0.853583" stroke-linecap="butt" stroke-linejoin="round" stroke="rgb(81.176471%, 87.843137%, 94.901961%)" stroke-opacity="1" stroke-miterlimit="10" d="M 40.808594 255.304688 L 43.796875 255.304688 "/>
<path fill="none" stroke-width="0.853583" stroke-linecap="butt" stroke-linejoin="round" stroke="rgb(81.176471%, 87.843137%, 94.901961%)" stroke-opacity="1" stroke-miterlimit="10" d="M 40.808594 246.421875 L 43.796875 246.421875 "/>
<path fill="none" stroke-width="1.066978" stroke-linecap="butt" stroke-linejoin="round" stroke="rgb(81.176471%, 87.843137%, 94.901961%)" stroke-opacity="1" stroke-miterlimit="10" d="M 43.796875 274.65625 L 498.023438 274.65625 "/>
<path fill="none" stroke-width="0.853583" stroke-linecap="butt" stroke-linejoin="round" stroke="rgb(81.176471%, 87.843137%, 94.901961%)" stroke-opacity="1" stroke-miterlimit="10" d="M 64.441406 277.644531 L 64.441406 274.65625 "/>
<path fill="none" stroke-width="0.853583" stroke-linecap="butt" stroke-linejoin="round" stroke="rgb(81.176471%, 87.843137%, 94.901961%)" stroke-opacity="1" stroke-miterlimit="10" d="M 167.675781 277.644531 L 167.675781 274.65625 "/>
<path fill="none" stroke-width="0.853583" stroke-linecap="butt" stroke-linejoin="round" stroke="rgb(81.176471%, 87.843137%, 94.901961%)" stroke-opacity="1" stroke-miterlimit="10" d="M 270.910156 277.644531 L 270.910156 274.65625 "/>
<path fill="none" stroke-width="0.853583" stroke-linecap="butt" stroke-linejoin="round" stroke="rgb(81.176471%, 87.843137%, 94.901961%)" stroke-opacity="1" stroke-miterlimit="10" d="M 374.140625 277.644531 L 374.140625 274.65625 "/>
<path fill="none" stroke-width="0.853583" stroke-linecap="butt" stroke-linejoin="round" stroke="rgb(81.176471%, 87.843137%, 94.901961%)" stroke-opacity="1" stroke-miterlimit="10" d="M 477.375 277.644531 L 477.375 274.65625 "/>
<g fill="rgb(39.215686%, 45.882353%, 52.941176%)" fill-opacity="1">
<use xlink:href="#glyph-0-0" x="57.769531" y="290.898438"/>
<use xlink:href="#glyph-0-21" x="63.108594" y="290.898438"/>
<use xlink:href="#glyph-0-0" x="65.775781" y="290.898438"/>
</g>
<g fill="rgb(39.215686%, 45.882353%, 52.941176%)" fill-opacity="1">
<use xlink:href="#glyph-0-3" x="161.003906" y="290.898438"/>
<use xlink:href="#glyph-0-21" x="166.342969" y="290.898438"/>
<use xlink:href="#glyph-0-1" x="169.010156" y="290.898438"/>
</g>
<g fill="rgb(39.215686%, 45.882353%, 52.941176%)" fill-opacity="1">
<use xlink:href="#glyph-0-1" x="264.238281" y="290.898438"/>
<use xlink:href="#glyph-0-21" x="269.577344" y="290.898438"/>
<use xlink:href="#glyph-0-0" x="272.244531" y="290.898438"/>
</g>
<g fill="rgb(39.215686%, 45.882353%, 52.941176%)" fill-opacity="1">
<use xlink:href="#glyph-0-7" x="367.46875" y="290.898438"/>
<use xlink:href="#glyph-0-21" x="372.807813" y="290.898438"/>
<use xlink:href="#glyph-0-1" x="375.475" y="290.898438"/>
</g>
<g fill="rgb(39.215686%, 45.882353%, 52.941176%)" fill-opacity="1">
<use xlink:href="#glyph-0-2" x="468.03125" y="290.898438"/>
<use xlink:href="#glyph-0-0" x="473.370313" y="290.898438"/>
<use xlink:href="#glyph-0-21" x="478.709375" y="290.898438"/>
<use xlink:href="#glyph-0-0" x="481.376563" y="290.898438"/>
</g>
<g fill="rgb(25.882353%, 33.72549%, 41.960784%)" fill-opacity="1">
<use xlink:href="#glyph-1-0" x="257.578125" y="306.496094"/>
<use xlink:href="#glyph-1-1" x="264.908203" y="306.496094"/>
<use xlink:href="#glyph-1-2" x="267.574219" y="306.496094"/>
<use xlink:href="#glyph-1-3" x="277.570312" y="306.496094"/>
</g>
<g fill="rgb(25.882353%, 33.72549%, 41.960784%)" fill-opacity="1">
<use xlink:href="#glyph-2-7" x="15.566406" y="285.488281"/>
<use xlink:href="#glyph-2-8" x="15.566406" y="278.158203"/>
<use xlink:href="#glyph-2-5" x="15.566406" y="274.162109"/>
<use xlink:href="#glyph-2-9" x="15.566406" y="267.488281"/>
<use xlink:href="#glyph-2-10" x="15.566406" y="260.814453"/>
<use xlink:href="#glyph-2-5" x="15.566406" y="254.140625"/>
<use xlink:href="#glyph-2-1" x="15.566406" y="247.466797"/>
<use xlink:href="#glyph-2-2" x="15.566406" y="240.792969"/>
<use xlink:href="#glyph-2-11" x="15.566406" y="234.792969"/>
</g>
<g fill="rgb(0%, 12.941176%, 27.843137%)" fill-opacity="1">
<use xlink:href="#glyph-3-0" x="43.796875" y="229.242188"/>
<use xlink:href="#glyph-3-15" x="54.602148" y="229.242188"/>
<use xlink:href="#glyph-3-1" x="63.611816" y="229.242188"/>
<use xlink:href="#glyph-3-16" x="73.507422" y="229.242188"/>
<use xlink:href="#glyph-3-17" x="78.008301" y="229.242188"/>
<use xlink:href="#glyph-3-9" x="87.903906" y="229.242188"/>
<use xlink:href="#glyph-3-4" x="94.208301" y="229.242188"/>
<use xlink:href="#glyph-3-3" x="103.217969" y="229.242188"/>
<use xlink:href="#glyph-3-7" x="113.113574" y="229.242188"/>
<use xlink:href="#glyph-3-18" x="117.614453" y="229.242188"/>
<use xlink:href="#glyph-3-19" x="128.419727" y="229.242188"/>
<use xlink:href="#glyph-3-7" x="132.920605" y="229.242188"/>
<use xlink:href="#glyph-3-3" x="137.421484" y="229.242188"/>
<use xlink:href="#glyph-3-2" x="147.31709" y="229.242188"/>
<use xlink:href="#glyph-3-11" x="151.817969" y="229.242188"/>
<use xlink:href="#glyph-3-12" x="160.827637" y="229.242188"/>
<use xlink:href="#glyph-3-9" x="166.222363" y="229.242188"/>
<use xlink:href="#glyph-3-2" x="172.526758" y="229.242188"/>
<use xlink:href="#glyph-3-20" x="177.027637" y="229.242188"/>
<use xlink:href="#glyph-3-8" x="186.923242" y="229.242188"/>
<use xlink:href="#glyph-3-12" x="196.818848" y="229.242188"/>
<use xlink:href="#glyph-3-2" x="202.213574" y="229.242188"/>
<use xlink:href="#glyph-3-17" x="206.714453" y="229.242188"/>
<use xlink:href="#glyph-3-21" x="216.610059" y="229.242188"/>
</g>
</svg>
