<svg xmlns="http://www.w3.org/2000/svg" width="1280" height="160" overflow="hidden"><path fill="#fff" d="M0 0h1280v160H0z" style="stroke-width:.471404"/><path fill="none" stroke="#042433" stroke-miterlimit="8" stroke-width="3" d="M388.5 55.77c0-8.008 6.492-14.5 14.5-14.5h108c8.008 0 14.5 6.492 14.5 14.5v58c0 8.008-6.492 14.5-14.5 14.5H403c-8.008 0-14.5-6.492-14.5-14.5z"/><text x="247.534" y="270" font-family="'Cambria Math', 'Cambria Math_MSFontService', sans-serif" font-size="48" font-weight="400" transform="translate(186 -169.23)">𝑁</text><path fill="none" stroke="#042433" stroke-miterlimit="8" stroke-width="3" d="M754.5 55.77c0-8.008 6.492-14.5 14.5-14.5h108c8.008 0 14.5 6.492 14.5 14.5v58c0 8.008-6.492 14.5-14.5 14.5H769c-8.008 0-14.5-6.492-14.5-14.5z"/><text x="615.79" y="270" font-family="'Cambria Math', 'Cambria Math_MSFontService', sans-serif" font-size="48" font-weight="400" transform="translate(186 -169.23)">𝑃</text><path d="M525 82.77h218.589v4H525Zm216.59-4 12 6-12 6z"/><text x="440.506" y="233" font-family="'Cambria Math', 'Cambria Math_MSFontService', sans-serif" font-size="48" font-weight="400" transform="translate(186 -169.23)">𝜆</text></svg>