<?xml version="1.0" encoding="UTF-8" standalone="no"?>
<svg
   width="1280"
   height="160"
   overflow="hidden"
   version="1.1"
   id="svg18"
   sodipodi:docname="Slide16.SVG"
   inkscape:version="1.2.2 (732a01da63, 2022-12-09)"
   xmlns:inkscape="http://www.inkscape.org/namespaces/inkscape"
   xmlns:sodipodi="http://sodipodi.sourceforge.net/DTD/sodipodi-0.dtd"
   xmlns="http://www.w3.org/2000/svg"
   xmlns:svg="http://www.w3.org/2000/svg">
  <defs
     id="defs22" />
  <sodipodi:namedview
     id="namedview20"
     pagecolor="#ffffff"
     bordercolor="#000000"
     borderopacity="0.25"
     inkscape:showpageshadow="2"
     inkscape:pageopacity="0.0"
     inkscape:pagecheckerboard="0"
     inkscape:deskcolor="#d1d1d1"
     showgrid="false"
     inkscape:zoom="0.46354778"
     inkscape:cx="567.36331"
     inkscape:cy="254.55844"
     inkscape:window-width="1920"
     inkscape:window-height="1094"
     inkscape:window-x="-11"
     inkscape:window-y="-11"
     inkscape:window-maximized="1"
     inkscape:current-layer="svg18" />
  <rect
     x="0"
     y="0"
     width="1280"
     height="160"
     fill="#ffffff"
     id="rect2"
     style="stroke-width:0.471404" />
  <g
     id="g195"
     transform="translate(186,-169.23047)">
    <path
       d="m 202.5,225 c 0,-8.008 6.492,-14.5 14.5,-14.5 h 108 c 8.008,0 14.5,6.492 14.5,14.5 v 58 c 0,8.008 -6.492,14.5 -14.5,14.5 H 217 c -8.008,0 -14.5,-6.492 -14.5,-14.5 z"
       stroke="#042433"
       stroke-width="3"
       stroke-miterlimit="8"
       fill="none"
       fill-rule="evenodd"
       id="path4" />
    <text
       font-family="'Cambria Math', 'Cambria Math_MSFontService', sans-serif"
       font-weight="400"
       font-size="48px"
       id="text6"
       x="247.534"
       y="270">𝑁</text>
    <path
       d="m 568.5,225 c 0,-8.008 6.492,-14.5 14.5,-14.5 h 108 c 8.008,0 14.5,6.492 14.5,14.5 v 58 c 0,8.008 -6.492,14.5 -14.5,14.5 H 583 c -8.008,0 -14.5,-6.492 -14.5,-14.5 z"
       stroke="#042433"
       stroke-width="3"
       stroke-miterlimit="8"
       fill="none"
       fill-rule="evenodd"
       id="path8" />
    <text
       font-family="'Cambria Math', 'Cambria Math_MSFontService', sans-serif"
       font-weight="400"
       font-size="48px"
       id="text10"
       x="615.78998"
       y="270">𝑃</text>
    <path
       d="m 339,252 h 218.589 v 4 H 339 Z m 216.59,-4 12,6 -12,6 z"
       id="path12" />
    <text
       font-family="'Cambria Math', 'Cambria Math_MSFontService', sans-serif"
       font-weight="400"
       font-size="48px"
       id="text14"
       x="440.50601"
       y="233">𝜆</text>
  </g>
</svg>
