<svg xmlns="http://www.w3.org/2000/svg" width="1280" height="500" overflow="hidden"><path fill="#fff" d="M.838-108.648h1280v720H.838z"/><path fill="none" stroke="#042433" stroke-miterlimit="8" stroke-width="3" d="M256.338 58.352c0-8.008 6.492-14.5 14.5-14.5h108c8.008 0 14.5 6.492 14.5 14.5v58c0 8.008-6.492 14.5-14.5 14.5h-108c-8.008 0-14.5-6.492-14.5-14.5z"/><text font-family="'Cambria Math', 'Cambria Math_MSFontService', sans-serif" font-size="48" font-weight="400" transform="translate(306.096 103.352)">𝑆</text><path fill="none" stroke="#042433" stroke-miterlimit="8" stroke-width="3" d="M621.338 58.352c0-8.008 6.492-14.5 14.5-14.5h108c8.008 0 14.5 6.492 14.5 14.5v58c0 8.008-6.492 14.5-14.5 14.5h-108c-8.008 0-14.5-6.492-14.5-14.5z"/><text font-family="'Cambria Math', 'Cambria Math_MSFontService', sans-serif" font-size="48" font-weight="400" transform="translate(674.976 103.352)">𝐼</text><path fill="none" stroke="#042433" stroke-miterlimit="8" stroke-width="3" d="M987.338 58.352c0-8.008 6.492-14.5 14.5-14.5h108c8.01 0 14.5 6.492 14.5 14.5v58c0 8.008-6.49 14.5-14.5 14.5h-108c-8.008 0-14.5-6.492-14.5-14.5z"/><text font-family="'Cambria Math', 'Cambria Math_MSFontService', sans-serif" font-size="48" font-weight="400" transform="translate(1034.378 103.352)">𝑅</text><path fill="none" stroke="#042433" stroke-miterlimit="8" stroke-width="3" d="M256.338 387.352c0-8.008 6.492-14.5 14.5-14.5h108c8.008 0 14.5 6.492 14.5 14.5v58c0 8.008-6.492 14.5-14.5 14.5h-108c-8.008 0-14.5-6.492-14.5-14.5z"/><text font-family="'Cambria Math', 'Cambria Math_MSFontService', sans-serif" font-size="48" font-weight="400" transform="translate(296.263 432.352)">𝑆</text><text font-family="'Cambria Math', 'Cambria Math_MSFontService', sans-serif" font-size="35" font-weight="400" transform="translate(319.49 441.352)">𝑣</text><path fill="none" stroke="#042433" stroke-miterlimit="8" stroke-width="3" d="M621.338 387.352c0-8.008 6.492-14.5 14.5-14.5h108c8.008 0 14.5 6.492 14.5 14.5v58c0 8.008-6.492 14.5-14.5 14.5h-108c-8.008 0-14.5-6.492-14.5-14.5z"/><text font-family="'Cambria Math', 'Cambria Math_MSFontService', sans-serif" font-size="48" font-weight="400" transform="translate(665.79 432.352)">𝐼</text><text font-family="'Cambria Math', 'Cambria Math_MSFontService', sans-serif" font-size="35" font-weight="400" transform="translate(681.143 441.352)">𝑣</text><path fill="none" stroke="#042433" stroke-miterlimit="8" stroke-width="3" d="M987.338 387.352c0-8.008 6.492-14.5 14.5-14.5h108c8.01 0 14.5 6.492 14.5 14.5v58c0 8.008-6.49 14.5-14.5 14.5h-108c-8.008 0-14.5-6.492-14.5-14.5z"/><text font-family="'Cambria Math', 'Cambria Math_MSFontService', sans-serif" font-size="48" font-weight="400" transform="translate(1024.128 432.352)">𝑅</text><text font-family="'Cambria Math', 'Cambria Math_MSFontService', sans-serif" font-size="35" font-weight="400" transform="translate(1053.978 441.352)">𝑣</text><path d="M392.838 84.352h218.59v4h-218.59Zm216.59-4 12 6-12 6zm148.41 4h218.59v4h-218.59Zm216.59-4 12 6-12 6zm-581.59 333 218.59.028v4l-218.59-.028Zm216.59-3.972 12 6-12 6zm148.41 3.972h218.59v4h-218.59Zm216.59-4 12 6-12 6zm-652.59-279v232.013h4V130.352Zm-4 230.013 6 12 6-12z"/><text font-family="'Cambria Math', 'Cambria Math_MSFontService', sans-serif" font-size="48" font-weight="400" transform="translate(859.234 392.352)">𝛾</text><text font-family="'Cambria Math', 'Cambria Math_MSFontService', sans-serif" font-size="48" font-weight="400" transform="translate(859.234 62.352)">𝛾</text><text font-family="'Cambria Math', 'Cambria Math_MSFontService', sans-serif" font-size="48" font-weight="400" transform="translate(464.062 62.352)">𝜆</text><path fill-rule="evenodd" d="M531.332 26.426q6.843 1.804 10.511 7.793t3.668 14.449q0 8.484-3.656 14.449t-10.523 7.77l-.563-1.805q5.414-1.805 8.051-7.125t2.637-13.524q0-7.922-2.625-13.16T530.7 28.23zm-23.219 0 .633 1.804q-5.484 1.804-8.12 7.043-2.638 5.238-2.638 13.16 0 8.204 2.637 13.524t8.051 7.125l-.563 1.805q-6.867-1.805-10.523-7.77t-3.656-14.45q0-8.46 3.668-14.448 3.668-5.989 10.511-7.793"/><text font-family="'Cambria Math', 'Cambria Math_MSFontService', sans-serif" font-size="48" font-weight="400" transform="translate(509.635 62.352)">𝑡</text><text font-family="'Cambria Math', 'Cambria Math_MSFontService', sans-serif" font-size="48" font-weight="400" transform="rotate(20.62 -264.687 2171.788)">𝜌</text><text font-family="'Cambria Math', 'Cambria Math_MSFontService', sans-serif" font-size="48" font-weight="400" transform="rotate(20.62 -276.436 2247.684)">𝑉</text><text font-family="'Cambria Math', 'Cambria Math_MSFontService', sans-serif" font-size="48" font-weight="400" transform="rotate(20.62 -292.632 2330.358)">𝐸</text><text font-family="'Cambria Math', 'Cambria Math_MSFontService', sans-serif" font-size="35" font-weight="400" transform="rotate(20.62 -333.748 2400.909)">𝑃</text><text font-family="'Cambria Math', 'Cambria Math_MSFontService', sans-serif" font-size="48" font-weight="400" transform="translate(464.061 391.352)">𝜆</text><path fill-rule="evenodd" d="M531.332 355.497q6.843 1.804 10.511 7.793t3.668 14.449q0 8.484-3.656 14.449t-10.523 7.769l-.563-1.804q5.414-1.804 8.051-7.125t2.637-13.524q0-7.922-2.625-13.16T530.7 357.3zm-23.219 0 .633 1.804q-5.484 1.804-8.12 7.043-2.638 5.238-2.638 13.16 0 8.203 2.637 13.524t8.051 7.125l-.563 1.804q-6.867-1.805-10.523-7.77-3.657-5.964-3.657-14.448 0-8.461 3.668-14.45t10.512-7.792"/><text font-family="'Cambria Math', 'Cambria Math_MSFontService', sans-serif" font-size="48" font-weight="400" transform="translate(509.635 391.352)">𝑡</text><text font-family="'Cambria Math', 'Cambria Math_MSFontService', sans-serif" font-size="48" font-weight="400" transform="translate(66.504 261.352)">𝜌</text><text font-family="'Cambria Math', 'Cambria Math_MSFontService', sans-serif" font-size="48" font-weight="400" transform="translate(94.258 261.352)">(</text><text font-family="'Cambria Math', 'Cambria Math_MSFontService', sans-serif" font-size="48" font-weight="400" transform="translate(114.258 261.352)">1</text><text font-family="'Cambria Math', 'Cambria Math_MSFontService', sans-serif" font-size="48" font-weight="400" transform="translate(151.424 261.352)">−</text><text font-family="'Cambria Math', 'Cambria Math_MSFontService', sans-serif" font-size="48" font-weight="400" transform="translate(197.924 261.352)">𝑉</text><text font-family="'Cambria Math', 'Cambria Math_MSFontService', sans-serif" font-size="48" font-weight="400" transform="translate(227.924 261.352)">𝐸</text><text font-family="'Cambria Math', 'Cambria Math_MSFontService', sans-serif" font-size="35" font-weight="400" transform="translate(255.344 271.352)">𝑃</text><text font-family="'Cambria Math', 'Cambria Math_MSFontService', sans-serif" font-size="48" font-weight="400" transform="translate(280.824 261.352)">)</text><path d="m392.551 117.483 654.527 249.696-1.42 3.737L391.125 121.22zm654.087 245.247 9.07 9.883-13.35 1.328z"/></svg>