<svg xmlns="http://www.w3.org/2000/svg" width="1280" height="400" overflow="hidden"><path fill="#fff" d="M0-154h1280v720H0z"/><path fill="none" stroke="#042433" stroke-miterlimit="8" stroke-width="3" d="M59.5 63c0-8.008 6.492-14.5 14.5-14.5h108c8.008 0 14.5 6.492 14.5 14.5v58c0 8.008-6.492 14.5-14.5 14.5H74c-8.008 0-14.5-6.492-14.5-14.5z"/><text font-family="'Cambria Math', 'Cambria Math_MSFontService', sans-serif" font-size="48" font-weight="400" transform="translate(109.729 108)">𝑆</text><path fill="none" stroke="#042433" stroke-miterlimit="8" stroke-width="3" d="M581.5 63c0-8.008 6.492-14.5 14.5-14.5h108c8.008 0 14.5 6.492 14.5 14.5v58c0 8.008-6.492 14.5-14.5 14.5H596c-8.008 0-14.5-6.492-14.5-14.5z"/><text font-family="'Cambria Math', 'Cambria Math_MSFontService', sans-serif" font-size="48" font-weight="400" transform="translate(634.865 108)">𝐼</text><path fill="none" stroke="#042433" stroke-miterlimit="8" stroke-width="3" d="M1084.5 63c0-8.008 6.49-14.5 14.5-14.5h108c8.01 0 14.5 6.492 14.5 14.5v58c0 8.008-6.49 14.5-14.5 14.5h-108c-8.01 0-14.5-6.492-14.5-14.5z"/><text font-family="'Cambria Math', 'Cambria Math_MSFontService', sans-serif" font-size="48" font-weight="400" transform="translate(1131.26 108)">𝑅</text><path fill="none" stroke="#042433" stroke-miterlimit="8" stroke-width="3" d="M59.5 283c0-8.008 6.492-14.5 14.5-14.5h108c8.008 0 14.5 6.492 14.5 14.5v58c0 8.008-6.492 14.5-14.5 14.5H74c-8.008 0-14.5-6.492-14.5-14.5z"/><text font-family="'Cambria Math', 'Cambria Math_MSFontService', sans-serif" font-size="48" font-weight="400" transform="translate(99.895 328)">𝑆</text><text font-family="'Cambria Math', 'Cambria Math_MSFontService', sans-serif" font-size="35" font-weight="400" transform="translate(123.122 337)">𝑣</text><path fill="none" stroke="#042433" stroke-miterlimit="8" stroke-width="3" d="M581.5 283c0-8.008 6.492-14.5 14.5-14.5h108c8.008 0 14.5 6.492 14.5 14.5v58c0 8.008-6.492 14.5-14.5 14.5H596c-8.008 0-14.5-6.492-14.5-14.5z"/><text font-family="'Cambria Math', 'Cambria Math_MSFontService', sans-serif" font-size="48" font-weight="400" transform="translate(625.678 328)">𝐼</text><text font-family="'Cambria Math', 'Cambria Math_MSFontService', sans-serif" font-size="35" font-weight="400" transform="translate(641.032 337)">𝑣</text><path fill="none" stroke="#042433" stroke-miterlimit="8" stroke-width="3" d="M1084.5 283c0-8.008 6.49-14.5 14.5-14.5h108c8.01 0 14.5 6.492 14.5 14.5v58c0 8.008-6.49 14.5-14.5 14.5h-108c-8.01 0-14.5-6.492-14.5-14.5z"/><text font-family="'Cambria Math', 'Cambria Math_MSFontService', sans-serif" font-size="48" font-weight="400" transform="translate(1121.02 328)">𝑅</text><text font-family="'Cambria Math', 'Cambria Math_MSFontService', sans-serif" font-size="35" font-weight="400" transform="translate(1150.87 337)">𝑣</text><path d="M196 90h374.847v4H196Zm372.847-4 12 6-12 6zM718 94.03l355.59-.029-.001-4-355.59.029Zm353.59 3.971 11.999-6-12-6zM196 309l374.847.029v4L196 313Zm372.847-3.972 12 6.001-12.001 5.999zM718 313.029l355.59-.029-.001-4-355.59.029Zm353.59 3.972 11.999-6.001-12-6zM126 135v122.621h4V135Zm-4 120.621 6 12 6-12z"/><text font-family="'Cambria Math', 'Cambria Math_MSFontService', sans-serif" font-size="48" font-weight="400" transform="translate(887.623 287)">𝛾</text><text font-family="'Cambria Math', 'Cambria Math_MSFontService', sans-serif" font-size="48" font-weight="400" transform="translate(887.623 67)">𝛾</text><text font-family="'Cambria Math', 'Cambria Math_MSFontService', sans-serif" font-size="48" font-weight="400" transform="translate(345.822 67)">𝜆</text><path fill-rule="evenodd" d="M413.092 31.522q6.844 1.805 10.512 7.793t3.668 14.449q0 8.485-3.656 14.45t-10.524 7.769l-.562-1.804q5.414-1.806 8.051-7.125 2.636-5.32 2.636-13.524 0-7.922-2.625-13.16t-8.133-7.043zm-23.218 0 .633 1.805q-5.486 1.805-8.121 7.043-2.637 5.238-2.637 13.16 0 8.203 2.637 13.524 2.636 5.319 8.05 7.125l-.562 1.804q-6.867-1.805-10.524-7.769t-3.656-14.45q0-8.46 3.668-14.449t10.512-7.793"/><text font-family="'Cambria Math', 'Cambria Math_MSFontService', sans-serif" font-size="48" font-weight="400" transform="translate(391.395 67)">𝑡</text><text font-family="'Cambria Math', 'Cambria Math_MSFontService', sans-serif" font-size="48" font-weight="400" transform="translate(244.223 287)">(</text><text font-family="'Cambria Math', 'Cambria Math_MSFontService', sans-serif" font-size="48" font-weight="400" transform="translate(264.223 287)">1</text><text font-family="'Cambria Math', 'Cambria Math_MSFontService', sans-serif" font-size="48" font-weight="400" transform="translate(301.39 287)">−</text><text font-family="'Cambria Math', 'Cambria Math_MSFontService', sans-serif" font-size="48" font-weight="400" transform="translate(347.89 287)">𝑉𝐸</text><text font-family="'Cambria Math', 'Cambria Math_MSFontService', sans-serif" font-size="35" font-weight="400" transform="translate(405.31 297)">𝐿</text><text font-family="'Cambria Math', 'Cambria Math_MSFontService', sans-serif" font-size="48" font-weight="400" transform="translate(427.41 287)">)</text><text font-family="'Cambria Math', 'Cambria Math_MSFontService', sans-serif" font-size="48" font-weight="400" transform="translate(447.41 287)">𝜆</text><path fill-rule="evenodd" d="M514.68 251.144q6.845 1.804 10.512 7.793t3.668 14.449q0 8.484-3.656 14.449t-10.524 7.77l-.562-1.805q5.414-1.804 8.05-7.125t2.637-13.524q0-7.921-2.625-13.16t-8.133-7.043zm-23.218 0 .633 1.804q-5.486 1.805-8.121 7.043-2.637 5.239-2.637 13.16 0 8.204 2.637 13.524t8.05 7.125l-.562 1.805q-6.867-1.805-10.524-7.77t-3.656-14.449q0-8.461 3.668-14.449 3.668-5.989 10.512-7.793"/><text font-family="'Cambria Math', 'Cambria Math_MSFontService', sans-serif" font-size="48" font-weight="400" transform="translate(492.983 287)">𝑡</text><text font-family="'Cambria Math', 'Cambria Math_MSFontService', sans-serif" font-size="48" font-weight="400" transform="translate(79.595 210)">𝜌</text></svg>