<svg xmlns="http://www.w3.org/2000/svg" width="1280" height="720" overflow="hidden"><path fill="#fff" d="M0 0h1280v720H0z"/><path fill="none" stroke="#042433" stroke-miterlimit="8" stroke-width="3" d="M754.5 596c0-8.008 6.492-14.5 14.5-14.5h108c8.008 0 14.5 6.492 14.5 14.5v58c0 8.008-6.492 14.5-14.5 14.5H769c-8.008 0-14.5-6.492-14.5-14.5Z"/><text font-family="Cambria Math,Cambria Math_MSFontService,sans-serif" font-size="48" font-weight="400" transform="translate(789.932 641)">𝐼</text><text font-family="Cambria Math,Cambria Math_MSFontService,sans-serif" font-size="35" font-weight="400" transform="translate(805.285 650)">𝑣𝑠</text><path d="M515 471v155.341h228.883v-4H517l2 2V471Zm226.883 159.341 12-6-12-6Z"/><text font-family="Cambria Math,Cambria Math_MSFontService,sans-serif" font-size="48" font-weight="400" transform="translate(603.026 597)">𝑝′</text><text font-family="Cambria Math,Cambria Math_MSFontService,sans-serif" font-size="35" font-weight="400" transform="translate(642.193 607)">𝑠</text><path fill-rule="evenodd" stroke="#042433" stroke-miterlimit="8" stroke-width="3" d="M499.5 454c0-9.665 8.059-17.5 18-17.5s18 7.835 18 17.5-8.059 17.5-18 17.5-18-7.835-18-17.5Z"/><path d="M891 626.708h263.42V507h-4v117.708l2-2H891ZM1158.42 509l-6-12-6 12Z"/><text font-family="Cambria Math,Cambria Math_MSFontService,sans-serif" font-size="48" font-weight="400" transform="translate(962.094 597)">𝛾</text><text font-family="Cambria Math,Cambria Math_MSFontService,sans-serif" font-size="35" font-weight="400" transform="translate(982.667 607)">𝑠</text><path fill="none" stroke="#042433" stroke-miterlimit="8" stroke-width="3" d="M59.5 93c0-8.008 6.492-14.5 14.5-14.5h108c8.008 0 14.5 6.492 14.5 14.5v58c0 8.008-6.492 14.5-14.5 14.5H74c-8.008 0-14.5-6.492-14.5-14.5Z"/><text font-family="Cambria Math,Cambria Math_MSFontService,sans-serif" font-size="48" font-weight="400" transform="translate(109.729 138)">𝑆</text><path fill="none" stroke="#042433" stroke-miterlimit="8" stroke-width="3" d="M758.5 93c0-8.008 6.492-14.5 14.5-14.5h108c8.008 0 14.5 6.492 14.5 14.5v58c0 8.008-6.492 14.5-14.5 14.5H773c-8.008 0-14.5-6.492-14.5-14.5Z"/><text font-family="Cambria Math,Cambria Math_MSFontService,sans-serif" font-size="48" font-weight="400" transform="translate(796.186 138)">𝐼</text><text font-family="Cambria Math,Cambria Math_MSFontService,sans-serif" font-size="35" font-weight="400" transform="translate(811.539 148)">𝑚</text><path fill="none" stroke="#042433" stroke-miterlimit="8" stroke-width="3" d="M1084.5 93c0-8.008 6.49-14.5 14.5-14.5h108c8.01 0 14.5 6.492 14.5 14.5v58c0 8.008-6.49 14.5-14.5 14.5h-108c-8.01 0-14.5-6.492-14.5-14.5Z"/><text font-family="Cambria Math,Cambria Math_MSFontService,sans-serif" font-size="48" font-weight="400" transform="translate(1131.26 138)">𝑅</text><path fill="none" stroke="#042433" stroke-miterlimit="8" stroke-width="3" d="M59.5 425c0-8.008 6.492-14.5 14.5-14.5h108c8.008 0 14.5 6.492 14.5 14.5v58c0 8.008-6.492 14.5-14.5 14.5H74c-8.008 0-14.5-6.492-14.5-14.5Z"/><text font-family="Cambria Math,Cambria Math_MSFontService,sans-serif" font-size="48" font-weight="400" transform="translate(99.895 469)">𝑆</text><text font-family="Cambria Math,Cambria Math_MSFontService,sans-serif" font-size="35" font-weight="400" transform="translate(123.122 479)">𝑣</text><path fill="none" stroke="#042433" stroke-miterlimit="8" stroke-width="3" d="M758.5 425c0-8.008 6.492-14.5 14.5-14.5h108c8.008 0 14.5 6.492 14.5 14.5v58c0 8.008-6.492 14.5-14.5 14.5H773c-8.008 0-14.5-6.492-14.5-14.5Z"/><text font-family="Cambria Math,Cambria Math_MSFontService,sans-serif" font-size="48" font-weight="400" transform="translate(786.269 469)">𝐼</text><text font-family="Cambria Math,Cambria Math_MSFontService,sans-serif" font-size="35" font-weight="400" transform="translate(801.622 479)">𝑣𝑚</text><path fill="none" stroke="#042433" stroke-miterlimit="8" stroke-width="3" d="M1084.5 425c0-8.008 6.49-14.5 14.5-14.5h108c8.01 0 14.5 6.492 14.5 14.5v58c0 8.008-6.49 14.5-14.5 14.5h-108c-8.01 0-14.5-6.492-14.5-14.5Z"/><text font-family="Cambria Math,Cambria Math_MSFontService,sans-serif" font-size="48" font-weight="400" transform="translate(1121.02 469)">𝑅</text><text font-family="Cambria Math,Cambria Math_MSFontService,sans-serif" font-size="35" font-weight="400" transform="translate(1150.87 479)">𝑣</text><path d="m196 124.03 551.71-.029v-4L196 120.03Zm549.711 3.971 11.999-6-12-6ZM895 120h178.73v4H895Zm176.73-4 12 6-12 6ZM196 451h551.712v4H196Zm549.71-4 12 6-12 6ZM895 451h178.73v4H895Zm176.73-4 12 6-12 6ZM126 165v234.252h4V165Zm-4 232.252 6 12 6-12Z"/><text font-family="Cambria Math,Cambria Math_MSFontService,sans-serif" font-size="48" font-weight="400" transform="translate(958.415 429)">𝛾</text><text font-family="Cambria Math,Cambria Math_MSFontService,sans-serif" font-size="35" font-weight="400" transform="translate(978.988 439)">𝑚</text><text font-family="Cambria Math,Cambria Math_MSFontService,sans-serif" font-size="48" font-weight="400" transform="translate(305.522 97)">𝜆</text><path fill-rule="evenodd" d="M372.792 61.123q6.843 1.804 10.512 7.793 3.668 5.988 3.668 14.449 0 8.484-3.657 14.45-3.656 5.963-10.523 7.769l-.563-1.805q5.415-1.805 8.051-7.125t2.637-13.523q0-7.922-2.625-13.16t-8.133-7.044Zm-23.218 0 .632 1.804q-5.484 1.805-8.121 7.043-2.636 5.24-2.636 13.16 0 8.204 2.636 13.524t8.051 7.125l-.562 1.805q-6.867-1.805-10.524-7.77t-3.656-14.45q0-8.46 3.668-14.448t10.512-7.793"/><text font-family="Cambria Math,Cambria Math_MSFontService,sans-serif" font-size="48" font-weight="400" transform="translate(351.095 97)">𝑡</text><text font-family="Cambria Math,Cambria Math_MSFontService,sans-serif" font-size="48" font-weight="400" transform="translate(203.923 429)">(</text><text font-family="Cambria Math,Cambria Math_MSFontService,sans-serif" font-size="48" font-weight="400" transform="translate(223.923 429)">1</text><text font-family="Cambria Math,Cambria Math_MSFontService,sans-serif" font-size="48" font-weight="400" transform="translate(261.09 429)">−</text><text font-family="Cambria Math,Cambria Math_MSFontService,sans-serif" font-size="48" font-weight="400" transform="translate(307.59 429)">𝑉𝐸</text><text font-family="Cambria Math,Cambria Math_MSFontService,sans-serif" font-size="35" font-weight="400" transform="translate(365.01 439)">𝐿</text><text font-family="Cambria Math,Cambria Math_MSFontService,sans-serif" font-size="48" font-weight="400" transform="translate(387.11 429)">)</text><text font-family="Cambria Math,Cambria Math_MSFontService,sans-serif" font-size="48" font-weight="400" transform="translate(407.11 429)">𝜆</text><path fill-rule="evenodd" d="M474.38 392.936q6.843 1.805 10.512 7.793 3.668 5.988 3.668 14.449 0 8.485-3.657 14.449-3.656 5.966-10.523 7.77l-.563-1.805q5.414-1.805 8.051-7.125t2.637-13.523q0-7.922-2.625-13.16t-8.133-7.043Zm-23.218 0 .632 1.805q-5.484 1.804-8.121 7.043t-2.636 13.16q0 8.203 2.636 13.523t8.051 7.125l-.562 1.805q-6.868-1.804-10.524-7.77-3.656-5.964-3.656-14.449 0-8.46 3.668-14.449t10.512-7.793"/><text font-family="Cambria Math,Cambria Math_MSFontService,sans-serif" font-size="48" font-weight="400" transform="translate(452.683 429)">𝑡</text><text font-family="Cambria Math,Cambria Math_MSFontService,sans-serif" font-size="48" font-weight="400" transform="translate(86.014 304)">𝜌</text><text font-family="Cambria Math,Cambria Math_MSFontService,sans-serif" font-size="48" font-weight="400" transform="translate(574.246 429)">1</text><text font-family="Cambria Math,Cambria Math_MSFontService,sans-serif" font-size="48" font-weight="400" transform="translate(611.413 429)">−</text><text font-family="Cambria Math,Cambria Math_MSFontService,sans-serif" font-size="48" font-weight="400" transform="translate(657.913 429)">𝑝′</text><text font-family="Cambria Math,Cambria Math_MSFontService,sans-serif" font-size="35" font-weight="400" transform="translate(697.08 439)">𝑠</text><path fill="none" stroke="#042433" stroke-miterlimit="8" stroke-width="3" d="M754.5 263c0-8.008 6.492-14.5 14.5-14.5h108c8.008 0 14.5 6.492 14.5 14.5v58c0 8.008-6.492 14.5-14.5 14.5H769c-8.008 0-14.5-6.492-14.5-14.5Z"/><text font-family="Cambria Math,Cambria Math_MSFontService,sans-serif" font-size="48" font-weight="400" transform="translate(799.848 308)">𝐼</text><text font-family="Cambria Math,Cambria Math_MSFontService,sans-serif" font-size="35" font-weight="400" transform="translate(815.202 318)">𝑠</text><path d="M515 139v155.341h228.883v-4H517l2 2V139Zm226.883 159.341 12-6-12-6Z"/><text font-family="Cambria Math,Cambria Math_MSFontService,sans-serif" font-size="48" font-weight="400" transform="translate(611.862 266)">𝑝</text><text font-family="Cambria Math,Cambria Math_MSFontService,sans-serif" font-size="35" font-weight="400" transform="translate(636.822 276)">𝑠</text><path fill-rule="evenodd" stroke="#042433" stroke-miterlimit="8" stroke-width="3" d="M499.5 121.5c0-9.941 8.059-18 18-18s18 8.059 18 18-8.059 18-18 18-18-8.059-18-18Z"/><path d="M891 293.523h263.42V175h-4v116.523l2-2H891ZM1158.42 177l-6-12-6 12Z"/><text font-family="Cambria Math,Cambria Math_MSFontService,sans-serif" font-size="48" font-weight="400" transform="translate(962.094 264)">𝛾</text><text font-family="Cambria Math,Cambria Math_MSFontService,sans-serif" font-size="35" font-weight="400" transform="translate(982.667 274)">𝑠</text><text font-family="Cambria Math,Cambria Math_MSFontService,sans-serif" font-size="48" font-weight="400" transform="translate(570.04 97)">1</text><text font-family="Cambria Math,Cambria Math_MSFontService,sans-serif" font-size="48" font-weight="400" transform="translate(607.206 97)">−</text><text font-family="Cambria Math,Cambria Math_MSFontService,sans-serif" font-size="48" font-weight="400" transform="translate(653.706 97)">𝑝</text><text font-family="Cambria Math,Cambria Math_MSFontService,sans-serif" font-size="35" font-weight="400" transform="translate(678.666 107)">𝑠</text><text font-family="Cambria Math,Cambria Math_MSFontService,sans-serif" font-size="48" font-weight="400" transform="translate(954.22 97)">𝛾</text><text font-family="Cambria Math,Cambria Math_MSFontService,sans-serif" font-size="35" font-weight="400" transform="translate(974.794 106)">𝑚</text></svg>