<svg xmlns="http://www.w3.org/2000/svg" width="1280" height="400" overflow="hidden"><path d="M0 0h1280v400H0z" style="fill:#fff;stroke-width:.753662"/><path fill="none" stroke="#042433" stroke-miterlimit="8" stroke-width="3" d="M206 68.714c0-8.009 6.492-14.5 14.5-14.5h108c8.008 0 14.5 6.491 14.5 14.5v58c0 8.007-6.492 14.5-14.5 14.5h-108c-8.008 0-14.5-6.492-14.5-14.5z"/><text x="256.067" y="113.713" font-family="'Cambria Math', 'Cambria Math_MSFontService', sans-serif" font-size="48" font-weight="400">𝑆</text><path fill="none" stroke="#042433" stroke-miterlimit="8" stroke-width="3" d="M572 68.714c0-8.009 6.492-14.5 14.5-14.5h108c8.008 0 14.5 6.491 14.5 14.5v58c0 8.007-6.492 14.5-14.5 14.5h-108c-8.008 0-14.5-6.492-14.5-14.5z"/><text x="624.947" y="113.713" font-family="'Cambria Math', 'Cambria Math_MSFontService', sans-serif" font-size="48" font-weight="400">𝐼</text><path fill="none" stroke="#042433" stroke-miterlimit="8" stroke-width="3" d="M937 68.714c0-8.009 6.492-14.5 14.5-14.5h108c8.01 0 14.5 6.491 14.5 14.5v58c0 8.007-6.49 14.5-14.5 14.5h-108c-8.008 0-14.5-6.492-14.5-14.5z"/><text x="984.346" y="113.713" font-family="'Cambria Math', 'Cambria Math_MSFontService', sans-serif" font-size="48" font-weight="400">𝑅</text><path fill="none" stroke="#042433" stroke-miterlimit="8" stroke-width="3" d="M206 288.714c0-8.008 6.492-14.5 14.5-14.5h108c8.008 0 14.5 6.492 14.5 14.5v58c0 8.008-6.492 14.5-14.5 14.5h-108c-8.008 0-14.5-6.492-14.5-14.5z"/><text x="253.441" y="333.714" font-family="'Cambria Math', 'Cambria Math_MSFontService', sans-serif" font-size="48" font-weight="400">𝑉</text><path d="M342.5 95.714h218.589v4H342.5Zm216.59-4 12 6-12 6zm149.41 4h218.589v4H708.5Zm216.589-4 12 6-12 6zm-652.589 49v122.62h4v-122.62zm-4 120.62 6 12 6-12z"/><text x="809.205" y="73.714" font-family="'Cambria Math', 'Cambria Math_MSFontService', sans-serif" font-size="48" font-weight="400">𝛾</text><text x="414.033" y="73.714" font-family="'Cambria Math', 'Cambria Math_MSFontService', sans-serif" font-size="48" font-weight="400">𝜆</text><path fill-rule="evenodd" d="M481.303 37.287q6.843 1.803 10.511 7.792 3.669 5.989 3.668 14.45 0 8.484-3.656 14.448-3.656 5.966-10.523 7.77l-.563-1.805q5.414-1.805 8.051-7.125t2.637-13.523q0-7.921-2.625-13.16t-8.133-7.043zm-23.219 0 .633 1.804q-5.484 1.805-8.121 7.043t-2.637 13.16q0 8.204 2.637 13.524t8.051 7.124l-.563 1.806q-6.867-1.806-10.523-7.77t-3.656-14.45q0-8.46 3.668-14.448t10.511-7.793"/><text x="459.606" y="73.714" font-family="'Cambria Math', 'Cambria Math_MSFontService', sans-serif" font-size="48" font-weight="400">𝑡</text><text x="225.934" y="215.714" font-family="'Cambria Math', 'Cambria Math_MSFontService', sans-serif" font-size="48" font-weight="400">𝜌</text></svg>