<svg xmlns="http://www.w3.org/2000/svg" width="1920" height="600" preserveAspectRatio="xMidYMid" viewBox="0 0 1440 450"><defs><clipPath id="a"><path d="M264 336h44.8v43.602H264Zm0 0"/></clipPath><clipPath id="b"><path d="M299 333h9.8v16H299Zm0 0"/></clipPath><clipPath id="c"><path d="M294 371h13v8.602h-13zm0 0"/></clipPath><clipPath id="d"><path d="M267 332.352h12V340h-12zm0 0"/></clipPath><clipPath id="e"><path d="M261.55 362H271v15h-9.45zm0 0"/></clipPath><clipPath id="f"><path d="M116 295.277h48V402h-48zm0 0"/></clipPath><clipPath id="g"><path d="M199 295.277h48V402h-48zm0 0"/></clipPath><clipPath id="h"><path d="M404 290h59.82v58.914H404Zm0 0"/></clipPath><clipPath id="i"><path d="M451 286h12.82v21H451Zm0 0"/></clipPath><clipPath id="j"><path d="M445 338h17v10.914h-17zm0 0"/></clipPath><clipPath id="k"><path d="M408 285.164h16V296h-16zm0 0"/></clipPath><clipPath id="l"><path d="M400.07 326H412v19h-11.93zm0 0"/></clipPath><clipPath id="m"><path d="M477 320h60v59.465h-60zm0 0"/></clipPath><clipPath id="n"><path d="M481 315.715h17V326h-17zm0 0"/></clipPath><clipPath id="o"><path d="M473.441 357H485v19h-11.559zm0 0"/></clipPath><clipPath id="p"><path d="M322 300h56.39v56H322Zm0 0"/></clipPath><clipPath id="q"><path d="M367 296h11.39v20H367Zm0 0"/></clipPath><clipPath id="r"><path d="M326 295.277h15V305h-15zm0 0"/></clipPath><clipPath id="s"><path d="M318.39 334H330v18h-11.61zm0 0"/></clipPath><clipPath id="t"><path d="M550 382h44v44.36h-44zm0 0"/></clipPath><clipPath id="u"><path d="M552 379.11h13V387h-13zm0 0"/></clipPath><clipPath id="v"><path d="M546.813 409H556v15h-9.187zm0 0"/></clipPath><clipPath id="w"><path d="M103 370h144v126H103Zm0 0"/></clipPath><clipPath id="x"><path d="M160.2 492.406c-5.458-1.316-10.91-3.015-16.083-5.05-6.738-2.731-17.59-9.61-21.965-16.231-.543-.797-5.636-9.121-4.347-9.418-2.317.582-4.196-.102-6.047-.965-6.149-3.555-8.852-8.863-8.336-15.87.41-5.9 4.887-11.204 11.09-10.552 2.058.207 2.726-.73 2.879-2.636.308-4.075.336-8.27 1.492-12.239.824-6.726 2.676-13.113 5.351-19.347 1.235-2.782 3.036-4.25 6.176-4.743 14.996-2.292 26.547-10.484 36.067-21.96 1.054-1.25 1.773-3.868 3.804-2.81 1.852.892.903 3.259.414 4.935-2.113 7.808 16.567-3.012 10.493 1.328 2.265-.707-7.614 12.277-4.782 11.066 1.106-.465-7.511 2.625-6.894 3.941.644 1.34-.492 2.176-1.57 2.81-.438.179-.848.425-1.262.605.312-.118.644-.247.953-.399 5.426-2.68 10.648-5.05 15.05-8.789 3.422-2.805 6.25-6.05 8.876-9.555.82-1.109 1.773-3.043 3.316-2.101 1.57.969.594 2.808-.102 4.176-1.543 3.773-3.652 7.378-5.582 10.16 2.317-2.512 3.68-6.442 5.532-10.125.28-.59.668-.953.82-1.48.414-1.16.824-2.708 2.266-2.59 1.648.156 1.8 1.855 1.879 3.14.28 6.648 8.59-3.14 5.89 3.352 1.414-.051-2.777 15.535-1.855 14.863 7.46-5.527 9.261-12.29 12.043-21.367.382-1.368 23.77 20.672 27.422 31.543 1.492 4.562 1.671 9.379 2.39 14.082.235 1.558.235 3.129.75 4.597.254 5.102-1.133 10.024-2.367 14.864-.207.953 1.516 9.535-.414 17.004-3.266 12.445-11.192 23.214-22.715 29.433-18.344 9.856-40.441 11.168-60.633 6.328m0 0" clip-rule="evenodd"/></clipPath><clipPath id="z"><path d="M115 347.625h134V440H115Zm0 0"/></clipPath><clipPath id="A"><path d="M544 250h397v351H544Zm0 0"/></clipPath><clipPath id="B"><path d="M544.625 253.926a547 547 0 0 1 27.191-2.25l.516 8.984a539 539 0 0 0-26.746 2.215zm36.246-2.688a469 469 0 0 1 27.25-.297l-.168 9a462 462 0 0 0-26.726.29zm36.356-.03a402 402 0 0 1 27.199 1.983l-.961 8.95a395 395 0 0 0-26.594-1.942zm36.27 3.07a351 351 0 0 1 26.929 4.613l-1.867 8.804a343 343 0 0 0-26.243-4.496zm35.835 6.632q13.498 3.26 26.316 7.578l-2.875 8.528a302 302 0 0 0-25.554-7.356zm34.918 10.621a285 285 0 0 1 25.23 10.762l-3.93 8.098a276 276 0 0 0-24.433-10.422Zm33.383 14.88a275 275 0 0 1 23.617 13.976l-4.965 7.504a267 267 0 0 0-22.844-13.516zm31.16 19.148a277 277 0 0 1 21.55 16.992l-5.913 6.781a268 268 0 0 0-20.852-16.437zm28.332 23.097a294 294 0 0 1 19.172 19.59l-6.715 5.992a285 285 0 0 0-18.586-18.992zm25.148 26.492a325 325 0 0 1 16.692 21.68l-7.352 5.192a317 317 0 0 0-16.23-21.082zm21.86 29.211a372 372 0 0 1 14.289 23.266l-7.836 4.43a360 360 0 0 0-13.941-22.703zm18.687 31.262a428 428 0 0 1 12.078 24.438l-8.187 3.734a421 421 0 0 0-11.828-23.926zm15.77 32.75a495 495 0 0 1 10.113 25.313l-8.441 3.113a491 491 0 0 0-9.934-24.856zm13.172 33.817a585 585 0 0 1 8.379 25.93l-8.625 2.57a567 567 0 0 0-8.25-25.528zm10.894 34.605a674 674 0 0 1 6.844 26.289l-8.754 2.094a665 665 0 0 0-6.75-25.942zm8.91 35.176a783 783 0 0 1 5.508 26.566l-8.844 1.676a765 765 0 0 0-5.445-26.258zm7.141 35.449 1.934 11.277-8.871 1.52-1.934-11.277zm0 0"/></clipPath><clipPath id="D"><path d="M1108.09 558H1148v41h-39.91zm0 0"/></clipPath><clipPath id="E"><path d="M1141 347.625h133V440h-133zm0 0"/></clipPath><clipPath id="F"><path d="M787 344h28.133v28.46H787Zm0 0"/></clipPath><clipPath id="G"><path d="M809 343h6.133v10H809Zm0 0"/></clipPath><clipPath id="H"><path d="M789 342.46h8V348h-8zm0 0"/></clipPath><clipPath id="I"><path d="M785.883 361H792v10h-6.117zm0 0"/></clipPath><clipPath id="J"><path d="M927 299h44.652v43.527H927Zm0 0"/></clipPath><clipPath id="K"><path d="M962 296h9.652v16H962Zm0 0"/></clipPath><clipPath id="L"><path d="M957 334h13v8.527h-13zm0 0"/></clipPath><clipPath id="M"><path d="M930 295.277h12V303h-12zm0 0"/></clipPath><clipPath id="N"><path d="M924.402 325H933v15h-8.598zm0 0"/></clipPath><clipPath id="O"><path d="M1000 329h38.273v38H1000Zm0 0"/></clipPath><clipPath id="P"><path d="M1030 326h8.273v14H1030Zm0 0"/></clipPath><clipPath id="Q"><path d="M1002 325.824h11V333h-11zm0 0"/></clipPath><clipPath id="R"><path d="M997.773 352H1006v13h-8.227zm0 0"/></clipPath><clipPath id="S"><path d="M845 308h39.723v39.387H845Zm0 0"/></clipPath><clipPath id="T"><path d="M876 306h8.723v14H876Zm0 0"/></clipPath><clipPath id="U"><path d="M872 340h12v7.387h-12zm0 0"/></clipPath><clipPath id="V"><path d="M848 305.387h11V313h-11zm0 0"/></clipPath><clipPath id="W"><path d="M842.723 332H851v13h-8.277zm0 0"/></clipPath><clipPath id="X"><path d="M1063 383h27.45v27.656H1063Zm0 0"/></clipPath><clipPath id="Y"><path d="M1084 382h6.45v10H1084Zm0 0"/></clipPath><clipPath id="Z"><path d="M1081 405h9v5.656h-9zm0 0"/></clipPath><clipPath id="aa"><path d="M1064 381.406h8V387h-8zm0 0"/></clipPath><clipPath id="ab"><path d="M1061.2 400h5.8v9h-5.8zm0 0"/></clipPath><clipPath id="ac"><path d="M629 295.277h48V402h-48zm0 0"/></clipPath><clipPath id="ad"><path d="M711 295.277h48V402h-48zm0 0"/></clipPath><clipPath id="ae"><path d="M616 370h144v126H616Zm0 0"/></clipPath><clipPath id="af"><path d="M672.902 492.406c-5.453-1.316-10.906-3.015-16.078-5.05-6.738-2.731-17.594-9.61-21.969-16.231-.543-.797-5.632-9.121-4.347-9.418-2.317.582-4.196-.102-6.047-.965-6.149-3.555-8.852-8.863-8.336-15.87.414-5.9 4.89-11.204 11.09-10.552 2.058.207 2.726-.73 2.883-2.636.308-4.075.332-8.27 1.488-12.239.824-6.726 2.676-13.113 5.351-19.347 1.235-2.782 3.036-4.25 6.176-4.743 14.996-2.292 26.547-10.484 36.067-21.96 1.054-1.25 1.773-3.868 3.808-2.81 1.852.892.899 3.259.41 4.935-2.109 7.808 16.567-3.012 10.497 1.328 2.261-.707-7.614 12.277-4.786 11.066 1.106-.465-7.511 2.625-6.894 3.941.644 1.34-.488 2.176-1.57 2.81-.438.179-.848.425-1.258.605.308-.118.64-.247.949-.399 5.43-2.68 10.652-5.05 15.05-8.789 3.423-2.805 6.25-6.05 8.876-9.555.82-1.109 1.777-3.043 3.32-2.101 1.566.969.59 2.808-.102 4.176-1.543 3.773-3.656 7.378-5.585 10.16 2.316-2.512 3.68-6.442 5.53-10.125.286-.59.669-.953.825-1.48.41-1.16.824-2.708 2.262-2.59 1.648.156 1.8 1.855 1.879 3.14.285 6.648 8.593-3.14 5.89 3.352 1.414-.051-2.777 15.535-1.851 14.863 7.46-5.527 9.261-12.29 12.039-21.367.386-1.368 23.77 20.672 27.422 31.543 1.492 4.562 1.671 9.379 2.394 14.082.23 1.558.23 3.129.746 4.597.258 5.102-1.133 10.024-2.367 14.864-.207.953 1.516 9.535-.41 17.004-3.27 12.445-11.195 23.214-22.715 29.433-18.348 9.856-40.441 11.168-60.637 6.328m0 0" clip-rule="evenodd"/></clipPath><clipPath id="ah"><path d="M628 347.625h134V440H628Zm0 0"/></clipPath><linearGradient id="y" x1="75.204" x2="75.204" y1="120.104" y2="18.436" gradientTransform="matrix(1.2544 0 0 1.25623 80.522 346.37)" gradientUnits="userSpaceOnUse"><stop offset="0" stop-color="#fed2b9"/><stop offset=".25" stop-color="#fed2b9"/><stop offset=".375" stop-color="#fed2b9"/><stop offset=".438" stop-color="#fed2b8"/><stop offset=".441" stop-color="#fed1b7"/><stop offset=".445" stop-color="#fed0b7"/><stop offset=".449" stop-color="#fecfb6"/><stop offset=".453" stop-color="#fecfb5"/><stop offset=".457" stop-color="#feceb4"/><stop offset=".461" stop-color="#fecdb4"/><stop offset=".465" stop-color="#fecdb3"/><stop offset=".469" stop-color="#feccb2"/><stop offset=".473" stop-color="#fecbb2"/><stop offset=".477" stop-color="#fecbb1"/><stop offset=".48" stop-color="#fecab0"/><stop offset=".484" stop-color="#fecab0"/><stop offset=".488" stop-color="#fec9af"/><stop offset=".492" stop-color="#fec8ae"/><stop offset=".496" stop-color="#fec8ad"/><stop offset=".5" stop-color="#fec7ad"/><stop offset=".504" stop-color="#fec6ac"/><stop offset=".508" stop-color="#fec6ab"/><stop offset=".512" stop-color="#fec5ab"/><stop offset=".516" stop-color="#fec4aa"/><stop offset=".52" stop-color="#fec4a9"/><stop offset=".523" stop-color="#fec3a8"/><stop offset=".527" stop-color="#fec2a8"/><stop offset=".531" stop-color="#fec2a7"/><stop offset=".535" stop-color="#fec1a6"/><stop offset=".539" stop-color="#fec0a6"/><stop offset=".543" stop-color="#fec0a5"/><stop offset=".547" stop-color="#febfa4"/><stop offset=".551" stop-color="#febea3"/><stop offset=".555" stop-color="#febea3"/><stop offset=".559" stop-color="#febda2"/><stop offset=".563" stop-color="#febca1"/><stop offset=".566" stop-color="#febca1"/><stop offset=".57" stop-color="#febba0"/><stop offset=".574" stop-color="#febb9f"/><stop offset=".578" stop-color="#feba9f"/><stop offset=".582" stop-color="#feb99e"/><stop offset=".586" stop-color="#feb99d"/><stop offset=".59" stop-color="#feb89c"/><stop offset=".594" stop-color="#feb79c"/><stop offset=".598" stop-color="#feb79b"/><stop offset=".602" stop-color="#feb69a"/><stop offset=".605" stop-color="#ffb59a"/><stop offset=".609" stop-color="#ffb599"/><stop offset=".613" stop-color="#ffb498"/><stop offset=".617" stop-color="#ffb397"/><stop offset=".621" stop-color="#ffb397"/><stop offset=".625" stop-color="#ffb296"/><stop offset=".629" stop-color="#ffb195"/><stop offset=".633" stop-color="#ffb195"/><stop offset=".637" stop-color="#ffb094"/><stop offset=".641" stop-color="#ffaf93"/><stop offset=".645" stop-color="#ffaf92"/><stop offset=".648" stop-color="#ffae92"/><stop offset=".652" stop-color="#ffad91"/><stop offset=".656" stop-color="#ffad90"/><stop offset=".66" stop-color="#ffac90"/><stop offset=".664" stop-color="#ffac8f"/><stop offset=".668" stop-color="#ffab8e"/><stop offset=".672" stop-color="#ffaa8e"/><stop offset=".676" stop-color="#ffaa8d"/><stop offset=".68" stop-color="#ffa98c"/><stop offset=".684" stop-color="#ffa88b"/><stop offset=".688" stop-color="#ffa88b"/><stop offset=".691" stop-color="#ffa78a"/><stop offset=".695" stop-color="#ffa689"/><stop offset=".699" stop-color="#ffa689"/><stop offset=".703" stop-color="#ffa588"/><stop offset=".707" stop-color="#ffa487"/><stop offset=".711" stop-color="#ffa486"/><stop offset=".715" stop-color="#ffa386"/><stop offset=".719" stop-color="#ffa285"/><stop offset=".723" stop-color="#ffa284"/><stop offset=".727" stop-color="#ffa184"/><stop offset=".73" stop-color="#ffa083"/><stop offset=".734" stop-color="#ffa082"/><stop offset=".738" stop-color="#ff9f81"/><stop offset=".742" stop-color="#ff9e81"/><stop offset=".746" stop-color="#ff9e80"/><stop offset=".75" stop-color="#ff9d7f"/><stop offset=".754" stop-color="#ff9d7f"/><stop offset=".758" stop-color="#ff9c7e"/><stop offset=".762" stop-color="#ff9b7d"/><stop offset=".766" stop-color="#ff9b7d"/><stop offset=".781" stop-color="#ff9a7c"/><stop offset=".813" stop-color="#ff9a7c"/><stop offset=".875" stop-color="#ff9a7c"/><stop offset="1" stop-color="#ff9a7c"/></linearGradient><linearGradient id="C" x1="-2.761" x2="701.421" y1="86.298" y2="86.298" gradientTransform="rotate(41.09 97.535 915.021)scale(.75)" gradientUnits="userSpaceOnUse"><stop offset="0" stop-color="#8c52ff"/><stop offset=".008" stop-color="#8c52ff"/><stop offset=".012" stop-color="#8c53ff"/><stop offset=".016" stop-color="#8b54ff"/><stop offset=".02" stop-color="#8b54ff"/><stop offset=".023" stop-color="#8b55ff"/><stop offset=".027" stop-color="#8b55fe"/><stop offset=".031" stop-color="#8b56fe"/><stop offset=".035" stop-color="#8a57fe"/><stop offset=".039" stop-color="#8a57fe"/><stop offset=".043" stop-color="#8a58fe"/><stop offset=".047" stop-color="#8a58fe"/><stop offset=".051" stop-color="#8a59fe"/><stop offset=".055" stop-color="#8a59fe"/><stop offset=".059" stop-color="#895afe"/><stop offset=".063" stop-color="#895bfe"/><stop offset=".066" stop-color="#895bfd"/><stop offset=".07" stop-color="#895cfd"/><stop offset=".074" stop-color="#895cfd"/><stop offset=".078" stop-color="#885dfd"/><stop offset=".082" stop-color="#885dfd"/><stop offset=".086" stop-color="#885efd"/><stop offset=".09" stop-color="#885efd"/><stop offset=".094" stop-color="#885ffd"/><stop offset=".098" stop-color="#8760fd"/><stop offset=".102" stop-color="#8760fd"/><stop offset=".105" stop-color="#8761fc"/><stop offset=".109" stop-color="#8761fc"/><stop offset=".113" stop-color="#8762fc"/><stop offset=".117" stop-color="#8762fc"/><stop offset=".121" stop-color="#8663fc"/><stop offset=".125" stop-color="#8663fc"/><stop offset=".129" stop-color="#8664fc"/><stop offset=".133" stop-color="#8665fc"/><stop offset=".137" stop-color="#8665fc"/><stop offset=".141" stop-color="#8566fc"/><stop offset=".145" stop-color="#8566fb"/><stop offset=".148" stop-color="#8567fb"/><stop offset=".152" stop-color="#8567fb"/><stop offset=".156" stop-color="#8568fb"/><stop offset=".16" stop-color="#8469fb"/><stop offset=".164" stop-color="#8469fb"/><stop offset=".168" stop-color="#846afb"/><stop offset=".172" stop-color="#846afb"/><stop offset=".176" stop-color="#846bfb"/><stop offset=".18" stop-color="#846bfb"/><stop offset=".184" stop-color="#836cfa"/><stop offset=".188" stop-color="#836cfa"/><stop offset=".191" stop-color="#836dfa"/><stop offset=".195" stop-color="#836efa"/><stop offset=".199" stop-color="#836efa"/><stop offset=".203" stop-color="#826ffa"/><stop offset=".207" stop-color="#826ffa"/><stop offset=".211" stop-color="#8270fa"/><stop offset=".215" stop-color="#8270fa"/><stop offset=".219" stop-color="#8271fa"/><stop offset=".223" stop-color="#8172f9"/><stop offset=".227" stop-color="#8172f9"/><stop offset=".23" stop-color="#8173f9"/><stop offset=".234" stop-color="#8173f9"/><stop offset=".238" stop-color="#8174f9"/><stop offset=".242" stop-color="#8174f9"/><stop offset=".246" stop-color="#8075f9"/><stop offset=".25" stop-color="#8075f9"/><stop offset=".254" stop-color="#8076f9"/><stop offset=".258" stop-color="#8077f9"/><stop offset=".262" stop-color="#8077f9"/><stop offset=".266" stop-color="#7f78f8"/><stop offset=".27" stop-color="#7f78f8"/><stop offset=".273" stop-color="#7f79f8"/><stop offset=".277" stop-color="#7f79f8"/><stop offset=".281" stop-color="#7f7af8"/><stop offset=".285" stop-color="#7e7bf8"/><stop offset=".289" stop-color="#7e7bf8"/><stop offset=".293" stop-color="#7e7cf8"/><stop offset=".297" stop-color="#7e7cf8"/><stop offset=".301" stop-color="#7e7df8"/><stop offset=".305" stop-color="#7d7df7"/><stop offset=".309" stop-color="#7d7ef7"/><stop offset=".313" stop-color="#7d7ef7"/><stop offset=".316" stop-color="#7d7ff7"/><stop offset=".32" stop-color="#7d80f7"/><stop offset=".324" stop-color="#7d80f7"/><stop offset=".328" stop-color="#7c81f7"/><stop offset=".332" stop-color="#7c81f7"/><stop offset=".336" stop-color="#7c82f7"/><stop offset=".34" stop-color="#7c82f7"/><stop offset=".344" stop-color="#7c83f6"/><stop offset=".348" stop-color="#7b83f6"/><stop offset=".352" stop-color="#7b84f6"/><stop offset=".355" stop-color="#7b85f6"/><stop offset=".359" stop-color="#7b85f6"/><stop offset=".363" stop-color="#7b86f6"/><stop offset=".367" stop-color="#7a86f6"/><stop offset=".371" stop-color="#7a87f6"/><stop offset=".375" stop-color="#7a87f6"/><stop offset=".379" stop-color="#7a88f6"/><stop offset=".383" stop-color="#7a89f5"/><stop offset=".387" stop-color="#7a89f5"/><stop offset=".391" stop-color="#798af5"/><stop offset=".395" stop-color="#798af5"/><stop offset=".398" stop-color="#798bf5"/><stop offset=".402" stop-color="#798bf5"/><stop offset=".406" stop-color="#798cf5"/><stop offset=".41" stop-color="#788cf5"/><stop offset=".414" stop-color="#788df5"/><stop offset=".418" stop-color="#788ef5"/><stop offset=".422" stop-color="#788ef4"/><stop offset=".426" stop-color="#788ff4"/><stop offset=".43" stop-color="#778ff4"/><stop offset=".434" stop-color="#7790f4"/><stop offset=".438" stop-color="#7790f4"/><stop offset=".441" stop-color="#7791f4"/><stop offset=".445" stop-color="#7792f4"/><stop offset=".449" stop-color="#7792f4"/><stop offset=".453" stop-color="#7693f4"/><stop offset=".457" stop-color="#7693f4"/><stop offset=".461" stop-color="#7694f4"/><stop offset=".465" stop-color="#7694f3"/><stop offset=".469" stop-color="#7695f3"/><stop offset=".473" stop-color="#7595f3"/><stop offset=".477" stop-color="#7596f3"/><stop offset=".48" stop-color="#7597f3"/><stop offset=".484" stop-color="#7597f3"/><stop offset=".488" stop-color="#7598f3"/><stop offset=".492" stop-color="#7498f3"/><stop offset=".496" stop-color="#7499f3"/><stop offset=".5" stop-color="#7499f3"/><stop offset=".504" stop-color="#749af2"/><stop offset=".508" stop-color="#749af2"/><stop offset=".512" stop-color="#749bf2"/><stop offset=".516" stop-color="#739cf2"/><stop offset=".52" stop-color="#739cf2"/><stop offset=".523" stop-color="#739df2"/><stop offset=".527" stop-color="#739df2"/><stop offset=".531" stop-color="#739ef2"/><stop offset=".535" stop-color="#729ef2"/><stop offset=".539" stop-color="#729ff2"/><stop offset=".543" stop-color="#72a0f1"/><stop offset=".547" stop-color="#72a0f1"/><stop offset=".551" stop-color="#72a1f1"/><stop offset=".555" stop-color="#71a1f1"/><stop offset=".559" stop-color="#71a2f1"/><stop offset=".563" stop-color="#71a2f1"/><stop offset=".566" stop-color="#71a3f1"/><stop offset=".57" stop-color="#71a3f1"/><stop offset=".574" stop-color="#70a4f1"/><stop offset=".578" stop-color="#70a5f1"/><stop offset=".582" stop-color="#70a5f0"/><stop offset=".586" stop-color="#70a6f0"/><stop offset=".59" stop-color="#70a6f0"/><stop offset=".594" stop-color="#70a7f0"/><stop offset=".598" stop-color="#6fa7f0"/><stop offset=".602" stop-color="#6fa8f0"/><stop offset=".605" stop-color="#6fa9f0"/><stop offset=".609" stop-color="#6fa9f0"/><stop offset=".613" stop-color="#6faaf0"/><stop offset=".617" stop-color="#6eaaf0"/><stop offset=".621" stop-color="#6eabef"/><stop offset=".625" stop-color="#6eabef"/><stop offset=".629" stop-color="#6eacef"/><stop offset=".633" stop-color="#6eacef"/><stop offset=".637" stop-color="#6dadef"/><stop offset=".641" stop-color="#6daeef"/><stop offset=".645" stop-color="#6daeef"/><stop offset=".648" stop-color="#6dafef"/><stop offset=".652" stop-color="#6dafef"/><stop offset=".656" stop-color="#6db0ef"/><stop offset=".66" stop-color="#6cb0ef"/><stop offset=".664" stop-color="#6cb1ee"/><stop offset=".668" stop-color="#6cb1ee"/><stop offset=".672" stop-color="#6cb2ee"/><stop offset=".676" stop-color="#6cb3ee"/><stop offset=".68" stop-color="#6bb3ee"/><stop offset=".684" stop-color="#6bb4ee"/><stop offset=".688" stop-color="#6bb4ee"/><stop offset=".691" stop-color="#6bb5ee"/><stop offset=".695" stop-color="#6bb5ee"/><stop offset=".699" stop-color="#6ab6ee"/><stop offset=".703" stop-color="#6ab7ed"/><stop offset=".707" stop-color="#6ab7ed"/><stop offset=".711" stop-color="#6ab8ed"/><stop offset=".715" stop-color="#6ab8ed"/><stop offset=".719" stop-color="#6ab9ed"/><stop offset=".723" stop-color="#69b9ed"/><stop offset=".727" stop-color="#69baed"/><stop offset=".73" stop-color="#69baed"/><stop offset=".734" stop-color="#69bbed"/><stop offset=".738" stop-color="#69bced"/><stop offset=".742" stop-color="#68bcec"/><stop offset=".746" stop-color="#68bdec"/><stop offset=".75" stop-color="#68bdec"/><stop offset=".754" stop-color="#68beec"/><stop offset=".758" stop-color="#68beec"/><stop offset=".762" stop-color="#67bfec"/><stop offset=".766" stop-color="#67c0ec"/><stop offset=".77" stop-color="#67c0ec"/><stop offset=".773" stop-color="#67c1ec"/><stop offset=".777" stop-color="#67c1ec"/><stop offset=".781" stop-color="#67c2eb"/><stop offset=".785" stop-color="#66c2eb"/><stop offset=".789" stop-color="#66c3eb"/><stop offset=".793" stop-color="#66c3eb"/><stop offset=".797" stop-color="#66c4eb"/><stop offset=".801" stop-color="#66c5eb"/><stop offset=".805" stop-color="#65c5eb"/><stop offset=".809" stop-color="#65c6eb"/><stop offset=".813" stop-color="#65c6eb"/><stop offset=".816" stop-color="#65c7eb"/><stop offset=".82" stop-color="#65c7ea"/><stop offset=".824" stop-color="#64c8ea"/><stop offset=".828" stop-color="#64c8ea"/><stop offset=".832" stop-color="#64c9ea"/><stop offset=".836" stop-color="#64caea"/><stop offset=".84" stop-color="#64caea"/><stop offset=".844" stop-color="#63cbea"/><stop offset=".848" stop-color="#63cbea"/><stop offset=".852" stop-color="#63ccea"/><stop offset=".855" stop-color="#63ccea"/><stop offset=".859" stop-color="#63cde9"/><stop offset=".863" stop-color="#63cee9"/><stop offset=".867" stop-color="#62cee9"/><stop offset=".871" stop-color="#62cfe9"/><stop offset=".875" stop-color="#62cfe9"/><stop offset=".879" stop-color="#62d0e9"/><stop offset=".883" stop-color="#62d0e9"/><stop offset=".887" stop-color="#61d1e9"/><stop offset=".891" stop-color="#61d1e9"/><stop offset=".895" stop-color="#61d2e9"/><stop offset=".898" stop-color="#61d3e9"/><stop offset=".902" stop-color="#61d3e8"/><stop offset=".906" stop-color="#60d4e8"/><stop offset=".91" stop-color="#60d4e8"/><stop offset=".914" stop-color="#60d5e8"/><stop offset=".918" stop-color="#60d5e8"/><stop offset=".922" stop-color="#60d6e8"/><stop offset=".926" stop-color="#60d7e8"/><stop offset=".93" stop-color="#5fd7e8"/><stop offset=".934" stop-color="#5fd8e8"/><stop offset=".938" stop-color="#5fd8e8"/><stop offset=".941" stop-color="#5fd9e7"/><stop offset=".945" stop-color="#5fd9e7"/><stop offset=".949" stop-color="#5edae7"/><stop offset=".953" stop-color="#5edae7"/><stop offset=".957" stop-color="#5edbe7"/><stop offset=".961" stop-color="#5edce7"/><stop offset=".965" stop-color="#5edce7"/><stop offset=".969" stop-color="#5ddde7"/><stop offset=".973" stop-color="#5ddde7"/><stop offset=".977" stop-color="#5ddee7"/><stop offset=".98" stop-color="#5ddee6"/><stop offset=".984" stop-color="#5ddfe6"/><stop offset=".988" stop-color="#5ddfe6"/><stop offset=".992" stop-color="#5ce0e6"/><stop offset="1" stop-color="#5ce0e6"/></linearGradient><linearGradient id="ag" x1="75.204" x2="75.204" y1="120.104" y2="18.436" gradientTransform="matrix(1.2544 0 0 1.25623 593.226 346.37)" gradientUnits="userSpaceOnUse"><stop offset="0" stop-color="#fed2b9"/><stop offset=".25" stop-color="#fed2b9"/><stop offset=".375" stop-color="#fed2b9"/><stop offset=".438" stop-color="#fed2b8"/><stop offset=".441" stop-color="#fed1b7"/><stop offset=".445" stop-color="#fed0b7"/><stop offset=".449" stop-color="#fecfb6"/><stop offset=".453" stop-color="#fecfb5"/><stop offset=".457" stop-color="#feceb4"/><stop offset=".461" stop-color="#fecdb4"/><stop offset=".465" stop-color="#fecdb3"/><stop offset=".469" stop-color="#feccb2"/><stop offset=".473" stop-color="#fecbb2"/><stop offset=".477" stop-color="#fecbb1"/><stop offset=".48" stop-color="#fecab0"/><stop offset=".484" stop-color="#fecab0"/><stop offset=".488" stop-color="#fec9af"/><stop offset=".492" stop-color="#fec8ae"/><stop offset=".496" stop-color="#fec8ad"/><stop offset=".5" stop-color="#fec7ad"/><stop offset=".504" stop-color="#fec6ac"/><stop offset=".508" stop-color="#fec6ab"/><stop offset=".512" stop-color="#fec5ab"/><stop offset=".516" stop-color="#fec4aa"/><stop offset=".52" stop-color="#fec4a9"/><stop offset=".523" stop-color="#fec3a8"/><stop offset=".527" stop-color="#fec2a8"/><stop offset=".531" stop-color="#fec2a7"/><stop offset=".535" stop-color="#fec1a6"/><stop offset=".539" stop-color="#fec0a6"/><stop offset=".543" stop-color="#fec0a5"/><stop offset=".547" stop-color="#febfa4"/><stop offset=".551" stop-color="#febea3"/><stop offset=".555" stop-color="#febea3"/><stop offset=".559" stop-color="#febda2"/><stop offset=".563" stop-color="#febca1"/><stop offset=".566" stop-color="#febca1"/><stop offset=".57" stop-color="#febba0"/><stop offset=".574" stop-color="#febb9f"/><stop offset=".578" stop-color="#feba9f"/><stop offset=".582" stop-color="#feb99e"/><stop offset=".586" stop-color="#feb99d"/><stop offset=".59" stop-color="#feb89c"/><stop offset=".594" stop-color="#feb79c"/><stop offset=".598" stop-color="#feb79b"/><stop offset=".602" stop-color="#feb69a"/><stop offset=".605" stop-color="#ffb59a"/><stop offset=".609" stop-color="#ffb599"/><stop offset=".613" stop-color="#ffb498"/><stop offset=".617" stop-color="#ffb397"/><stop offset=".621" stop-color="#ffb397"/><stop offset=".625" stop-color="#ffb296"/><stop offset=".629" stop-color="#ffb195"/><stop offset=".633" stop-color="#ffb195"/><stop offset=".637" stop-color="#ffb094"/><stop offset=".641" stop-color="#ffaf93"/><stop offset=".645" stop-color="#ffaf92"/><stop offset=".648" stop-color="#ffae92"/><stop offset=".652" stop-color="#ffad91"/><stop offset=".656" stop-color="#ffad90"/><stop offset=".66" stop-color="#ffac90"/><stop offset=".664" stop-color="#ffac8f"/><stop offset=".668" stop-color="#ffab8e"/><stop offset=".672" stop-color="#ffaa8e"/><stop offset=".676" stop-color="#ffaa8d"/><stop offset=".68" stop-color="#ffa98c"/><stop offset=".684" stop-color="#ffa88b"/><stop offset=".688" stop-color="#ffa88b"/><stop offset=".691" stop-color="#ffa78a"/><stop offset=".695" stop-color="#ffa689"/><stop offset=".699" stop-color="#ffa689"/><stop offset=".703" stop-color="#ffa588"/><stop offset=".707" stop-color="#ffa487"/><stop offset=".711" stop-color="#ffa486"/><stop offset=".715" stop-color="#ffa386"/><stop offset=".719" stop-color="#ffa285"/><stop offset=".723" stop-color="#ffa284"/><stop offset=".727" stop-color="#ffa184"/><stop offset=".73" stop-color="#ffa083"/><stop offset=".734" stop-color="#ffa082"/><stop offset=".738" stop-color="#ff9f81"/><stop offset=".742" stop-color="#ff9e81"/><stop offset=".746" stop-color="#ff9e80"/><stop offset=".75" stop-color="#ff9d7f"/><stop offset=".754" stop-color="#ff9d7f"/><stop offset=".758" stop-color="#ff9c7e"/><stop offset=".762" stop-color="#ff9b7d"/><stop offset=".766" stop-color="#ff9b7d"/><stop offset=".781" stop-color="#ff9a7c"/><stop offset=".813" stop-color="#ff9a7c"/><stop offset=".875" stop-color="#ff9a7c"/><stop offset="1" stop-color="#ff9a7c"/></linearGradient></defs><g clip-path="url(#a)" transform="translate(25.58 -200.539)"><path fill="#b81d25" d="m283.777 347.016 5.266-10.891 2.71 12.324 7.071-3.945-3.047 7.754 12.508-.363-10.973 6.632 8.5 6.618-11.382-.11 1.984 5.418-5.86-2.43-1.324 10.055-5.605-8.121-9.203 9.578 2.785-13.328-5.824.11 2.68-5.282-9.313-4.21 10.871-1.212-7.23-10.152 10.562 3.59-.441-5.414zm0 0"/></g><g clip-path="url(#b)" transform="translate(25.58 -200.539)"><path fill="#b81d25" d="m308.45 340.504-4.54-.871 2.055-6.317-6.477 7.657 4.54.875-2.055 6.316zm0 0"/></g><g clip-path="url(#c)" transform="translate(25.58 -200.539)"><path fill="#b81d25" d="m300.965 379.113.863-3.64 5.035 1.882-5.965-5.503-.863 3.64-5.039-1.879zm0 0"/></g><g clip-path="url(#d)" transform="translate(25.58 -200.539)"><path fill="#b81d25" d="m272.426 339.902 1.77-3.57 4.777 3.164-4.871-7.148-1.77 3.57-4.777-3.164zm0 0"/></g><g clip-path="url(#e)" transform="translate(25.58 -200.539)"><path fill="#b81d25" d="m261.555 369.238 4.148 1.465-2.828 5.66 7.184-6.293-4.149-1.465 2.828-5.66zm0 0"/></g><g clip-path="url(#f)" transform="translate(25.58 -200.539)"><path fill="#b81d25" fill-rule="evenodd" d="M132.684 394.871c-8.524-7.738-21.82-24.156-13.555-46.203 11.703-31.207 23.785-37.977 9.437-53.39 0 0 16.797 7.14 13.407 29.327-4.645 30.317-12.438 33.758 14.879 54.418 2.941 2.223 7.445 5.84 6.425 10.442-1.125 5.055-10.453 11.062-15.21 12.039-5.157 1.05-9.59-1.367-15.383-6.633m0 0"/></g><g clip-path="url(#g)" transform="translate(25.58 -200.539)"><path fill="#b81d25" fill-rule="evenodd" d="M230.031 394.871c8.524-7.738 21.82-24.156 13.551-46.203-11.703-31.207-23.781-37.977-9.437-53.39 0 0-16.801 7.14-13.403 29.327 4.645 30.317 12.43 33.758-14.887 54.418-2.933 2.223-7.445 5.84-6.417 10.442 1.128 5.055 10.453 11.062 15.21 12.039 5.16 1.05 9.586-1.367 15.383-6.633m0 0"/></g><g clip-path="url(#h)" transform="translate(25.58 -200.539)"><path fill="#b81d25" d="m430.133 305.004 7.125-14.734 3.668 16.671 9.562-5.336-4.12 10.489 16.917-.489-14.84 8.97 11.493 8.952-15.395-.152 2.684 7.332-7.922-3.289-1.797 13.605-7.582-10.988-12.446 12.953 3.77-18.027-7.883.148 3.625-7.144-12.594-5.695 14.704-1.637-9.782-13.73 14.285 4.85-.593-7.32zm0 0"/></g><g clip-path="url(#i)" transform="translate(25.58 -200.539)"><path fill="#b81d25" d="m463.508 296.195-6.14-1.18 2.78-8.546-8.761 10.36 6.136 1.179-2.777 8.547zm0 0"/></g><g clip-path="url(#j)" transform="translate(25.58 -200.539)"><path fill="#b81d25" d="m453.383 348.418 1.168-4.922 6.812 2.543-8.07-7.441-1.168 4.922-6.812-2.543zm0 0"/></g><g clip-path="url(#k)" transform="translate(25.58 -200.539)"><path fill="#b81d25" d="m414.777 295.379 2.395-4.828 6.465 4.281-6.59-9.672-2.399 4.832-6.46-4.281zm0 0"/></g><g clip-path="url(#l)" transform="translate(25.58 -200.539)"><path fill="#b81d25" d="m400.074 335.063 5.614 1.98-3.829 7.656 9.715-8.515-5.61-1.98 3.829-7.653zm0 0"/></g><g clip-path="url(#m)" transform="translate(25.58 -200.539)"><path fill="#b81d25" d="m503.504 335.55 7.125-14.73 3.668 16.672 9.562-5.336-4.12 10.485 16.917-.489-14.84 8.973 11.493 8.95-15.395-.15 2.684 7.333-7.922-3.293-1.797 13.605-7.582-10.984-12.445 12.95 3.77-18.024-7.884.148 3.625-7.148-12.593-5.696 14.707-1.632-9.786-13.735 14.29 4.852-.598-7.32zm0 0"/></g><path fill="#b81d25" d="m562.459 126.207-6.141-1.18 2.781-8.55-8.762 10.363 6.137 1.18-2.777 8.547zm-10.125 52.223 1.167-4.922 6.813 2.543-8.07-7.441-1.168 4.922-6.813-2.543zm0 0"/><g clip-path="url(#n)" transform="translate(25.58 -200.539)"><path fill="#b81d25" d="m488.148 325.93 2.399-4.828 6.46 4.28-6.589-9.671-2.395 4.828-6.464-4.281zm0 0"/></g><g clip-path="url(#o)" transform="translate(25.58 -200.539)"><path fill="#b81d25" d="m473.445 365.613 5.614 1.98-3.829 7.653 9.72-8.512-5.614-1.98 3.828-7.652zm0 0"/></g><g clip-path="url(#p)" transform="translate(25.58 -200.539)"><path fill="#b81d25" d="m346.965 314.137 6.77-14.004 3.488 15.847 9.09-5.074-3.918 9.969 16.078-.465-14.106 8.527 10.926 8.508-14.633-.144 2.55 6.969-7.53-3.125-1.707 12.93-7.203-10.442-11.833 12.308 3.583-17.132-7.493.14 3.446-6.793-11.97-5.41 13.977-1.555-9.296-13.054 13.578 4.613-.567-6.957zm0 0"/></g><g clip-path="url(#q)" transform="translate(25.58 -200.539)"><path fill="#b81d25" d="m378.684 305.766-5.832-1.121 2.64-8.125-8.328 9.847 5.836 1.121-2.64 8.125zm0 0"/></g><path fill="#b81d25" d="m394.642 154.864 1.11-4.68 6.476 2.418-7.672-7.074-1.11 4.68-6.476-2.419zm0 0"/><g clip-path="url(#r)" transform="translate(25.58 -200.539)"><path fill="#b81d25" d="m332.367 304.988 2.281-4.59 6.141 4.07-6.262-9.19-2.277 4.59-6.145-4.071zm0 0"/></g><g clip-path="url(#s)" transform="translate(25.58 -200.539)"><path fill="#b81d25" d="m318.395 342.707 5.335 1.883-3.64 7.277 9.238-8.094-5.336-1.882 3.637-7.274zm0 0"/></g><g clip-path="url(#t)" transform="translate(25.58 -200.539)"><path fill="#b81d25" d="m569.04 393.773 5.265-10.89 2.71 12.324 7.07-3.945-3.046 7.754 12.508-.364-10.973 6.633 8.5 6.617-11.383-.109 1.985 5.418-5.86-2.43-1.324 10.055-5.605-8.121-9.203 9.574 2.789-13.324-5.828.11 2.68-5.282-9.313-4.211 10.87-1.21-7.23-10.153 10.563 3.59-.442-5.414zm0 0"/></g><path fill="#b81d25" d="m619.29 186.723-4.539-.871 2.055-6.32-6.476 7.66 4.539.87-2.055 6.321zm-7.484 38.609.863-3.64 5.036 1.879-5.965-5.5-.864 3.64-5.039-1.883zm0 0"/><g clip-path="url(#u)" transform="translate(25.58 -200.539)"><path fill="#b81d25" d="m557.688 386.66 1.769-3.57 4.777 3.164-4.87-7.149-1.77 3.57-4.778-3.163zm0 0"/></g><g clip-path="url(#v)" transform="translate(25.58 -200.539)"><path fill="#b81d25" d="m546.816 415.996 4.149 1.465-2.828 5.66 7.183-6.297-4.148-1.46 2.828-5.66Zm0 0"/></g><path fill="#f6efe3" fill-rule="evenodd" d="M162.087 289.39c6.739-4.07 23.641-8.925 29.04-7.995 2.164.36-8.051 9.812-6.122 11.332 1.157.207 1.645 1.226 2.215 2.05 7.047 9.981 21.918 10.743 30.711 4.856 2.344-1.547 4.61-3.168 6.203-5.55.54-.801 1.285-1.391 2.16-1.833 3.602-.644 6.02-12.117 9.622-12.816 3.035-.555 6.894 6.582 9.93 8.039.796.645 1.57 1.273 2.39 1.918.668.875.387 1.828.133 2.742-2.961 11.106-4.965 22.414-6.153 33.817-.18 1.855-1 3.335-2.289 4.62-2.261 2.243-4.832 4.137-6.996 6.481a68 68 0 0 0-2.469 2.91c-.644.864-.746 1.559.282 2.192 6.742 4.187 11.836 10.113 16.515 16.37 1.11 1.419 1.98 1.509 3.297.36 3.031-2.586 5.656-5.586 8.59-8.27.773-.757 1.441-2.085 2.96-1.328.052.7.36 1.125 1.056 1.418 5.402 2.305 10.441 5.168 15.148 8.723 1.441 1.133 2.832 2.277 3.887 3.746-.54 3.61-2.266 5.36-5.531 5.516-4.707.308-6.766 3.695-8.516 7.379-1.234 2.55-1.695 5.41-1.441 8.297.082.796.335 1.62-.254 2.316-.235 2.113-1.414 3.16-3.45 2.746-8.566-1.726-16.824-4.598-24.953-7.871-2.468-.992-4.886-2.254-7.304-3.437-.852-.364-1.57-.442-2.497-.22-5.66 1.313-11.367 1.93-17.183 2.137-9.133.297-18.16-.18-27.164-1.906-3.293-.605-6.2 1.106-9.133 2.266-6.434 2.555-13.094 4.418-19.578 6.7a92 92 0 0 1-7.074 2.19c-.977.293-2.188.903-2.778-.695-.722-.914-.156-1.844-.027-2.742.695-5.05.309-9.855-3.16-13.965-1.7-1.996-3.758-3.094-6.406-3.195-3.965-.067-6.664-2.781-7.153-6.942 2.34-3.066 5.867-4.457 9.032-6.336 2.542-1.523 5.218-3.015 8.152-3.777 2.473-.656 3.652-2.281 3.86-4.754 1.542-.27 2.03 1.016 2.753 1.895 3.73 5.05 8.59 8.914 13.352 12.933.87.77 1.543.54 2.16-.347.515-.801 1.055-1.625 1.566-2.399 4.043-6.066 8.442-11.824 14.383-16.191 1.234-.89 1.234-1.547.102-2.54-3.73-3.335-7.485-6.671-11.137-10.136-1.57-1.469-2.473-3.219-2.906-5.309-1.778-8.55-2.856-17.285-5.38-25.75-.667-2.113-1.284-4.261-2.003-6.375-.371-1.078-.727-2.132-.442-3.27.153-.5.204 3.337 0 0m0 0"/><path fill="#a4d6e5" fill-rule="evenodd" d="M266.45 386.684c-1.824-3.77.028-9.598 1.981-12.895 2.524-4.171 4.914-4.468 9.211-5.754 3.293-1.02 4.55-5.386 7.23-7.437 3.294-2.547 7.512-3.434 11.524-2.02 5.531 1.957 8.82 7.215 9.336 13.165.977 10.859-8.516 22.53-16.516 25.054-6.144 1.918-11.832 1.301-17.027-3.027-2.418-1.996-4.426-4.25-5.738-7.086m-137.86-24.938c.977 1.66 2.29 3.055 3.008 4.872.438 1.132 1.387 1.351 2.524 1.39 7.304.168 12.113 5.215 12.191 12.586.027 2.727.105 5.461-.977 7.996-5.015 8.14-13.503 10.422-20.449 8.567-4.734-1.223-8.183-4.598-11.062-8.293-3.86-5.141-6.895-10.809-6.715-17.454.18-5.953 2.957-10.515 8.617-12.792 4.117-1.637 7.95-.774 11.395 1.917.515.387.98.825 1.468 1.211m0 0"/><path fill="#fed2b9" fill-rule="evenodd" d="M171.244 340.246c-2.957 4.649-8 7.422-8.438 13.348 3.188 3.168 5.582 9.649 8.383 13.074.8.942 1.262 2.742 2.73 2.356 1.493-.489 1.079-2.047.977-3.352-.309-2.844.797-2.96 2.828-1.508 1.856 1.188 4.246 3.532 5.867 2.09 1.801-1.687-1.257-3.812-2.11-6.043.642.157 1.056.184 1.544.32 2.11.622 4.836 3.508 6.355 1.587 1.618-2.215-1.957-3.84-3.191-5.72-.207-.296-.313-.695-.492-1.277.851-.14 1.496-.18 2.215-.347 1.132-.399 2.882.32 3.086-1.531.308-1.493-1.13-2.141-2.133-2.899-1.442-1.098-3.063-2.047-4.656-3 0 0 7.613 1.402 6.84-.09-1.798-3.722-6.2-5.707-10.06-6.3-.972-.126-9.363-1.313-9.745-.708m70.382 0c2.934 4.649 8 7.422 8.465 13.348-3.215 3.168-5.632 9.649-8.386 13.074-.825.942-1.286 2.742-2.754 2.356-1.516-.489-1.106-2.047-1.004-3.352.336-2.844-.77-2.96-2.805-1.508-1.824 1.188-4.27 3.532-5.863 2.09-1.801-1.687 1.234-3.812 2.11-6.043-.645.157-1.079.184-1.516.32-2.114.622-4.914 3.508-6.356 1.587-1.648-2.215 1.93-3.84 3.164-5.72.207-.296.309-.695.488-1.277-.824-.14-1.52-.18-2.238-.347-1.082-.399-2.855.32-3.062-1.531-.309-1.493 1.109-2.141 2.113-2.899 1.492-1.098 3.059-2.047 4.656-3 0 0-7.59 1.402-6.844-.09 1.825-3.722 6.2-5.707 10.11-6.3.949-.126 9.312-1.313 9.722-.708m0 0"/><path fill="#a4d6e5" fill-rule="evenodd" d="M162.087 289.39c3.137 8.259 5.141 16.813 6.684 25.481.645 3.606 1.262 7.215 2.008 10.782.668 3.246 3.472 4.793 5.66 6.84 3.113 2.835 6.277 5.59 9.441 8.386.72.645.36 1.043-.285 1.43-7.457 5.125-12.55 12.34-17.336 19.773-.824 1.38-1.492 1.57-2.73.477-3.856-3.414-7.817-6.727-11.445-10.461-1.622-1.598-2.317-3.996-4.45-5.219-5.715-11.992-6.922-24.539-3.652-37.355 2.262-9.043 8.332-15.34 16.105-20.133m100.016 59.899c-1.078.062-1.621.925-2.289 1.585-3.242 3.04-6.172 6.414-9.648 9.274-1.438 1.172-1.852.941-2.852-.414-4.426-5.95-9.133-11.63-15.281-15.946-.078 0-.13-.05-.207-.152-.848-.992-3.192-.992-2.957-2.281.203-1.39 1.566-2.707 2.648-3.813 2.367-2.37 4.758-4.703 7.36-6.828 2.183-1.816 2.648-4.133 2.878-6.75 1.004-11.734 3.754-23.133 6.48-34.57 9.34 4.957 15.235 12.789 18.68 22.644 1.57 4.457 2.266 9.055 2.317 13.743.152 8.039-1.805 15.574-6.457 22.21-.258.41-.465.876-.672 1.297m0 0"/><path fill="#72c1d3" fill-rule="evenodd" d="M130.439 375.133c3.219 8.461 1.187 17.106-4.5 19.281-5.711 2.141-12.914-2.933-16.129-11.398-3.242-8.465-1.21-17.11 4.477-19.246 5.71-2.18 12.941 2.926 16.152 11.363m150.496 0c-3.191 8.461-1.184 17.106 4.527 19.281 5.711 2.141 12.914-2.933 16.13-11.398 3.214-8.465 1.206-17.11-4.477-19.246-5.735-2.18-12.965 2.926-16.18 11.363m0 0"/><path fill="#a4d6e5" fill-rule="evenodd" d="M229.279 292.203c-.617 2.91-1.672 5.72-3.961 8.395-10.574 12.496-27.758 13.152-37.973.297-4.27-5.41-4.426-11.5-5.761-17.957-1.649-7.961-3.989-17.645-3.086-17.645 11.91-.066 41.546-16.578 53.453-16.773 1.699-.012-.899 21.23-1.801 34.16-.254 3.402-.305 6.543-.871 9.523m0 0"/><g clip-path="url(#w)" transform="translate(25.58 -200.539)"><g clip-path="url(#x)"><path fill="url(#y)" d="M102.906 369.527v127.72h143.676v-127.72Zm0 0" style="fill:url(#y)"/></g></g><g clip-path="url(#z)" transform="translate(25.58 -200.539)"><path fill="#572a0e" fill-rule="evenodd" d="M243.96 439.645c7.177-15.204 5.528-29.836-.823-43.543-9.313-19.91-33.676-33.286-55.313-34.907-7.047-.515 4.942-11.027 5.352-12.34.926-1.16.133-1.261-.797-1.21-9.262.28-11.86 3.503-17.363 9.93.078-.079-8.207-5.731-9.829-4.317 1.028 1.844 1.958 3.683 3.063 5.578 1.258 2.203.82 3.156-1.879 3.8-18.16 3.813-38.973 19.04-46.46 36.391-3.704 8.59-5.813 24.68-2.52 32.653.824-7.188 24.668-25.348 30.484-28.61 8.926-5.101 16.953-11.191 22.434-20.207-1.364 10.742-7.079 18.7-16.438 24.809 5.734-.05 10.445-1.598 15.254-3.067-1.828 1.352-3.652 2.782-6.148 4.715 14.277-3.066 24.023-11.133 32.183-22.851-2.601 7.136-5.918 12.945-9.16 18.804 6.121-4.57 9.598-10.972 12.117-19.062 1.313 9.789 0 18.047-4.094 26.07 12.606-5.488 19.579-10.82 22.899-24.242 4.012 1.777 20.605 25.223 23.23 36.61 1.133 4.843 3.059 10.097 3.809 14.996m0 0"/></g><path fill="#ffa492" fill-rule="evenodd" d="M179.501 254.973c.747 6.52-4.785 12.535-12.402 13.422-7.613.902-14.351-3.735-15.125-10.254-.723-6.57 4.809-12.598 12.399-13.45 7.613-.847 14.382 3.766 15.128 10.282m77.02 4.407c-.152 6.593-6.48 11.773-14.125 11.593-7.64-.18-13.734-5.617-13.555-12.188.13-6.593 6.457-11.746 14.098-11.617 7.664.203 13.687 5.614 13.582 12.211m0 0"/><path fill="#fed2b9" fill-rule="evenodd" d="M266.35 237.801s19.5-4.984 14.737 18.563c0 0-6.25 16.718-17.515 7.379"/><path fill="#572a0e" fill-rule="evenodd" d="M188.607 243.215c-.106 4.66-2.625 8.41-5.633 8.332-3.039-.05-5.379-3.902-5.273-8.539.101-4.652 2.675-8.387 5.66-8.258 3.035 0 5.375 3.89 5.246 8.465m42.293.231c-.133 4.609-2.649 8.382-5.66 8.28-3.035-.089-5.403-3.901-5.301-8.554.129-4.648 2.676-8.36 5.687-8.308 3.036.117 5.352 3.906 5.274 8.582m0 0"/><path fill="#e58076" d="M194.447 267.04a1.75 1.75 0 0 1-1.535-2.578c2.132-3.954 6.101-6.548 10.62-6.938 5.106-.328 10.009 2.304 12.497 6.715a1.75 1.75 0 0 1-.656 2.379c-.84.472-1.903.18-2.38-.66-1.835-3.255-5.456-5.204-9.199-4.954a9.82 9.82 0 0 0-7.812 5.117 1.75 1.75 0 0 1-1.535.918m0 0"/><path fill="#572a0e" d="M182.517 219.946c-2.652 0-4.433-.477-4.59-.52a1.168 1.168 0 0 1 .621-2.254c.13.035 7.586 1.965 14.766-2.808a1.166 1.166 0 1 1 1.289 1.945c-4.43 2.95-8.894 3.637-12.086 3.637m43.375.257c-3.207 0-7.7-.683-12.148-3.62a1.164 1.164 0 0 1-.336-1.618 1.16 1.16 0 0 1 1.613-.332c7.25 4.781 14.75 2.828 14.824 2.809a1.17 1.17 0 0 1 .614 2.258c-.157.043-1.926.503-4.567.503m0 0"/><g clip-path="url(#A)" transform="translate(25.58 -200.539)"><g clip-path="url(#B)"><path fill="url(#C)" d="M715.691 54.61 371.527 449.27l398.047 347.113 344.16-394.66Zm0 0" style="fill:url(#C)"/></g></g><path fill="#f6efe3" fill-rule="evenodd" d="M1189.189 289.54c6.715-4.07 23.64-8.919 29.004-7.993 2.148.36-8.063 9.805-6.121 11.32 1.156.208 1.644 1.223 2.265 2.047 6.996 9.973 21.903 10.735 30.688 4.852 2.328-1.543 4.582-3.164 6.187-5.543.54-.797 1.301-1.39 2.149-1.828 3.625-.645 6.043-12.11 9.637-12.805 3.03-.555 6.89 6.574 9.925 8.028.797.644 1.61 1.277 2.38 1.917.683.875.413 1.829.167 2.743-2.984 11.093-4.992 22.39-6.172 33.78-.195 1.852-.992 3.333-2.277 4.618-2.277 2.242-4.84 4.133-6.984 6.477-.875.96-1.727 1.914-2.497 2.906-.628.863-.746 1.555.293 2.187 6.743 4.184 11.809 10.102 16.504 16.356 1.094 1.418 2.008 1.508 3.32.363 3.02-2.59 5.633-5.586 8.54-8.262.836-.761 1.453-2.085 2.972-1.328.074.696.399 1.121 1.079 1.414 5.363 2.305 10.433 5.164 15.125 8.715 1.468 1.133 2.832 2.278 3.925 3.742-.566 3.606-2.277 5.356-5.554 5.512-4.711.305-6.793 3.688-8.504 7.371-1.207 2.547-1.696 5.403-1.426 8.29.05.796.293 1.616-.285 2.312-.23 2.113-1.403 3.156-3.422 2.742-8.606-1.723-16.836-4.594-24.938-7.863-2.535-.989-4.925-2.25-7.347-3.434-.836-.363-1.594-.437-2.492-.219-5.672 1.313-11.372 1.93-17.2 2.137-9.117.293-18.148-.184-27.125-1.906-3.281-.606-6.25 1.105-9.144 2.262-6.446 2.55-13.094 4.418-19.602 6.695-2.316.836-4.656 1.543-7.039 2.187-.976.297-2.2.903-2.8-.695-.708-.914-.157-1.84-.017-2.742.696-5.043.297-9.844-3.175-13.95-1.711-1.995-3.73-3.09-6.43-3.19-3.938-.063-6.649-2.778-7.14-6.934 2.366-3.063 5.85-4.453 9.03-6.332 2.586-1.52 5.247-3.012 8.168-3.774 2.47-.652 3.68-2.277 3.883-4.746 1.508-.27 2.032 1.016 2.715 1.89 3.742 5.048 8.64 8.907 13.352 12.923.875.77 1.57.539 2.148-.348.567-.8 1.094-1.625 1.633-2.395 4.039-6.062 8.398-11.816 14.367-16.175 1.235-.887 1.211-1.543.062-2.536-3.715-3.332-7.473-6.668-11.11-10.128-1.581-1.465-2.456-3.215-2.91-5.301-1.796-8.547-2.878-17.27-5.402-25.727a202 202 0 0 0-1.992-6.367c-.348-1.082-.734-2.137-.414-3.266.156-.504.195 3.329 0 0zm0 0"/><path fill="#a4d6e5" fill-rule="evenodd" d="M1293.529 386.73c-1.813-3.769.016-9.585 1.98-12.878 2.524-4.172 4.942-4.465 9.211-5.754 3.317-1.016 4.555-5.379 7.203-7.426 3.356-2.547 7.535-3.433 11.535-2.02 5.559 1.958 8.852 7.208 9.368 13.153.988 10.848-8.516 22.504-16.532 25.027-6.12 1.918-11.832 1.301-17.015-3.023-2.434-1.992-4.414-4.246-5.75-7.078m0 0"/><g clip-path="url(#D)" transform="translate(25.58 -200.539)"><path fill="#a4d6e5" fill-rule="evenodd" d="M1130.078 562.36c1 1.656 2.313 3.05 3.008 4.863.426 1.132 1.39 1.351 2.523 1.386 7.29.168 12.153 5.215 12.204 12.575.011 2.726.105 5.46-.977 7.992-5.031 8.133-13.48 10.41-20.488 8.558-4.684-1.222-8.157-4.593-11-8.285-3.883-5.136-6.93-10.8-6.727-17.441.156-5.946 2.934-10.5 8.633-12.774 4.074-1.636 7.922-.773 11.379 1.914.504.387.969.825 1.445 1.211m0 0"/></g><path fill="#fed2b9" fill-rule="evenodd" d="M1198.322 340.344c-2.961 4.645-8.016 7.41-8.453 13.328 3.218 3.168 5.636 9.64 8.363 13.063.836.941 1.285 2.742 2.777 2.355 1.504-.488 1.067-2.047.953-3.347-.273-2.844.809-2.958 2.84-1.504 1.828 1.183 4.246 3.527 5.852 2.086 1.816-1.688-1.235-3.81-2.094-6.036.64.153 1.078.18 1.531.32 2.121.618 4.887 3.5 6.352 1.583 1.648-2.211-1.969-3.836-3.203-5.715-.192-.297-.282-.692-.461-1.274.836-.14 1.515-.18 2.222-.347 1.094-.399 2.872.324 3.09-1.531.293-1.493-1.133-2.137-2.125-2.895-1.492-1.094-3.074-2.047-4.668-3 0 0 7.586 1.402 6.844-.09-1.828-3.719-6.203-5.699-10.086-6.293-.937-.125-9.336-1.312-9.734-.703m70.343 0c3 4.645 8.04 7.41 8.465 13.328-3.164 3.168-5.582 9.64-8.375 13.063-.797.941-1.257 2.742-2.726 2.355-1.504-.488-1.106-2.047-.965-3.347.285-2.844-.809-2.958-2.844-1.504-1.851 1.183-4.27 3.527-5.851 2.086-1.801-1.688 1.25-3.81 2.097-6.036-.633.153-1.082.18-1.508.32-2.144.618-4.91 3.5-6.418 1.583-1.605-2.211 1.997-3.836 3.23-5.715.192-.297.294-.692.478-1.274-.864-.14-1.508-.18-2.227-.347-1.117-.399-2.867.324-3.113-1.531-.293-1.493 1.16-2.137 2.164-2.895 1.465-1.094 3.047-2.047 4.629-3 0 0-7.563 1.402-6.817-.09 1.824-3.719 6.2-5.699 10.059-6.293.949-.125 9.363-1.312 9.722-.703m0 0"/><path fill="#a4d6e5" fill-rule="evenodd" d="M1189.189 289.54c3.125 8.245 5.133 16.792 6.664 25.453.64 3.601 1.258 7.207 2.004 10.769.683 3.242 3.488 4.785 5.66 6.832 3.102 2.828 6.277 5.586 9.43 8.379.77.64.36 1.039-.258 1.43-7.461 5.12-12.578 12.328-17.328 19.75-.871 1.379-1.504 1.57-2.75.476-3.844-3.41-7.82-6.715-11.438-10.449-1.617-1.594-2.363-3.988-4.433-5.21-5.711-11.981-6.961-24.517-3.692-37.321 2.29-9.031 8.371-15.324 16.14-20.11m99.982 59.836c-1.094.063-1.583.926-2.29 1.582-3.23 3.036-6.148 6.41-9.61 9.266-1.425 1.172-1.878.941-2.894-.41-4.41-5.945-9.132-11.625-15.265-15.934-.094 0-.145-.05-.196-.152-.886-.992-3.175-.992-2.996-2.277.204-1.395 1.61-2.704 2.704-3.813 2.34-2.367 4.718-4.7 7.304-6.82 2.211-1.813 2.688-4.13 2.918-6.742 1.02-11.723 3.785-23.11 6.457-34.54 9.38 4.954 15.242 12.778 18.703 22.622 1.559 4.453 2.25 9.046 2.317 13.73.152 8.031-1.828 15.559-6.461 22.188-.281.414-.473.875-.692 1.3m0 0"/><path fill="#72c1d3" fill-rule="evenodd" d="M1157.52 375.188c3.22 8.453 1.2 17.09-4.51 19.265-5.7 2.137-12.903-2.933-16.145-11.39-3.203-8.453-1.184-17.086 4.527-19.223 5.688-2.176 12.914 2.918 16.129 11.348m150.516 0c-3.215 8.453-1.196 17.09 4.503 19.265 5.7 2.137 12.903-2.933 16.13-11.39 3.214-8.453 1.206-17.086-4.5-19.223-5.7-2.176-12.942 2.918-16.133 11.348m0 0"/><path fill="#a4d6e5" fill-rule="evenodd" d="M1254.326 292.344c-.578 2.906-1.672 5.715-3.965 8.39-10.586 12.481-27.742 13.137-37.942.294-4.296-5.403-4.453-11.489-5.789-17.938-1.632-7.953-3.976-17.629-3.074-17.629 11.922-.062 41.52-16.558 53.43-16.754 1.71-.015-.887 21.207-1.79 34.125-.253 3.399-.28 6.54-.87 9.512m0 0"/><path fill="#fed2b9" fill-rule="evenodd" d="M1211.095 291.723a125 125 0 0 1-16.078-5.043c-6.738-2.727-17.598-9.613-21.969-16.215-.527-.797-5.61-9.11-4.386-9.406-2.278.578-4.13-.117-6.008-.98-6.145-3.536-8.848-8.84-8.36-15.84.465-5.891 4.914-11.196 11.114-10.54 2.058.208 2.726-.746 2.906-2.636.285-4.067.297-8.262 1.453-12.227.813-6.73 2.703-13.097 5.379-19.328 1.234-2.781 3.02-4.258 6.187-4.734 14.973-2.305 26.532-10.473 36.04-21.942 1.054-1.246 1.75-3.859 3.804-2.804 1.828.886.903 3.257.465 4.93-2.16 7.796 16.543-3.012 10.445 1.312 2.266-.695-7.617 12.277-4.797 11.055 1.118-.454-7.527 2.636-6.855 3.933.64 1.34-.516 2.188-1.594 2.82-.414.184-.836.415-1.261.606.332-.117.668-.246.925-.399 5.453-2.68 10.649-5.046 15.086-8.777 3.41-2.805 6.239-6.047 8.89-9.547.821-1.11 1.747-3.035 3.29-2.113 1.621.98.594 2.82-.074 4.184-1.586 3.773-3.68 7.375-5.621 10.156 2.312-2.512 3.68-6.438 5.566-10.117.258-.594.645-.953.813-1.477.383-1.16.808-2.703 2.25-2.59 1.62.156 1.773 1.856 1.863 3.14.324 6.641 8.606-3.14 5.93 3.345 1.39-.051-2.801 15.52-1.852 14.851 7.422-5.52 9.235-12.277 12.016-21.347.36-1.364 23.77 20.652 27.422 31.511 1.465 4.559 1.672 9.371 2.39 14.067.23 1.547.258 3.129.735 4.593.28 5.098-1.121 10-2.328 14.852-.247.953 1.488 9.523-.465 16.984-3.266 12.434-11.153 23.192-22.664 29.395-18.352 9.844-40.477 11.156-60.657 6.328m0 0"/><g clip-path="url(#E)" transform="translate(25.58 -200.539)"><path fill="#572a0e" fill-rule="evenodd" d="M1269.3 439.555c7.153-15.188 5.505-29.801-.847-43.496-9.289-19.907-33.676-33.25-55.285-34.875-7.074-.524 4.938-11.028 5.313-12.336.953-1.16.14-1.262-.758-1.2-9.262.286-11.887 3.504-17.38 9.922.079-.09-8.19-5.726-9.84-4.312 1.005 1.84 1.97 3.68 3.036 5.57 1.273 2.203.848 3.156-1.852 3.797-18.136 3.809-38.972 19.02-46.456 36.344-3.731 8.582-5.805 24.652-2.497 32.633.797-7.18 24.668-25.325 30.446-28.582 8.937-5.098 16.988-11.196 22.418-20.188-1.364 10.73-7.036 18.684-16.41 24.781 5.722-.05 10.414-1.593 15.25-3.062-1.813 1.351-3.653 2.781-6.16 4.71 14.292-3.077 24.038-11.116 32.195-22.827-2.625 7.128-5.93 12.933-9.184 18.789 6.176-4.567 9.648-10.965 12.184-19.047 1.273 9.781 0 18.015-4.157 26.047 12.657-5.48 19.602-10.813 22.946-24.22 3.988 1.778 20.578 25.196 23.191 36.575 1.133 4.824 3.074 10.074 3.848 14.977m0 0"/></g><path fill="#ffa492" fill-rule="evenodd" d="M1204.818 254.86c.742 6.508-4.797 12.52-12.375 13.422-7.613.886-14.406-3.735-15.153-10.247-.718-6.562 4.813-12.585 12.403-13.433 7.586-.852 14.379 3.754 15.125 10.258m77.004 4.41c-.14 6.59-6.48 11.762-14.082 11.582-7.664-.18-13.739-5.621-13.61-12.172.157-6.59 6.473-11.738 14.125-11.621 7.664.207 13.711 5.625 13.567 12.21m0 0"/><path fill="#572a0e" fill-rule="evenodd" d="M1212.583 242.645c-.101 4.707-2.636 8.476-5.683 8.375-3.074-.047-5.426-3.899-5.324-8.578.105-4.727 2.675-8.485 5.71-8.367 3.063.039 5.403 3.898 5.297 8.57m42.68.23c-.105 4.66-2.676 8.442-5.71 8.364-3.036-.102-5.427-3.946-5.302-8.645.106-4.723 2.664-8.43 5.688-8.363 3.074.101 5.437 3.91 5.324 8.644m0 0"/><path fill="#fed2b9" fill-rule="evenodd" d="M1291.665 237.715s19.497-4.98 14.715 18.543c0 0-6.242 16.703-17.468 7.375"/><path fill="#572a0e" d="M1201.732 223.782a.801.801 0 0 1-.535-1.395c2.18-1.969 7.45-4.715 11.777-1.02.336.29.375.793.09 1.13a.8.8 0 0 1-1.125.085c-4.355-3.718-9.62.942-9.675.993a.8.8 0 0 1-.532.207m49.363-1.317a.8.8 0 0 1-.523-.195c-.22-.188-5.45-4.625-9.7-.817a.797.797 0 0 1-1.062-1.187c4.238-3.8 9.578-1.137 11.808.8a.798.798 0 0 1-.524 1.398zm0 0"/><path fill="#e58076" d="M1228.185 267.188c-4.809 0-9.305-2.574-11.64-6.746a1.757 1.757 0 1 1 3.067-1.723c1.83 3.266 5.471 5.195 9.284 4.922 3.328-.254 6.27-2.172 7.867-5.129a1.754 1.754 0 0 1 2.383-.71 1.754 1.754 0 0 1 .71 2.382c-2.167 4.016-6.167 6.621-10.698 6.969q-.487.035-.973.035m0 0"/><g clip-path="url(#F)" transform="translate(25.58 -200.539)"><path fill="#fd9ea3" d="m799.844 351.676 3.308-6.84 1.703 7.738 4.442-2.476-1.914 4.87 7.855-.226-6.89 4.164 5.336 4.156-7.149-.07 1.246 3.406-3.68-1.53-.831 6.32-3.524-5.102-5.777 6.012 1.75-8.368-3.66.067 1.683-3.317-5.847-2.644 6.828-.758-4.543-6.379 6.632 2.254-.277-3.398zm0 0"/></g><g clip-path="url(#G)" transform="translate(25.58 -200.539)"><path fill="#fd9ea3" d="m815.34 347.586-2.852-.547 1.293-3.969-4.07 4.809 2.852.55-1.29 3.97zm0 0"/></g><path fill="#fd9ea3" d="m836.22 171.297.54-2.285 3.163 1.18-3.746-3.457-.543 2.285-3.164-1.18zm0 0"/><g clip-path="url(#H)" transform="translate(25.58 -200.539)"><path fill="#fd9ea3" d="m792.715 347.207 1.11-2.242 3.003 1.988-3.062-4.492-1.114 2.242-3-1.988zm0 0"/></g><g clip-path="url(#I)" transform="translate(25.58 -200.539)"><path fill="#fd9ea3" d="m785.887 365.633 2.605.922-1.777 3.55 4.512-3.949-2.606-.922 1.777-3.554zm0 0"/></g><g clip-path="url(#J)" transform="translate(25.58 -200.539)"><path fill="#fd9ea3" d="m946.625 309.941 5.27-10.89 2.71 12.324 7.07-3.945-3.046 7.754 12.508-.364-10.973 6.633 8.496 6.617-11.379-.11 1.98 5.419-5.855-2.43-1.328 10.055-5.605-8.121-9.2 9.574 2.786-13.324-5.829.11 2.68-5.286-9.308-4.207 10.87-1.21-7.23-10.153 10.563 3.586-.442-5.41zm0 0"/></g><g clip-path="url(#K)" transform="translate(25.58 -200.539)"><path fill="#fd9ea3" d="m971.3 303.43-4.538-.871 2.054-6.32-6.476 7.66 4.539.87-2.055 6.32zm0 0"/></g><g clip-path="url(#L)" transform="translate(25.58 -200.539)"><path fill="#fd9ea3" d="m963.816 342.04.864-3.642 5.035 1.88-5.969-5.5-.86 3.64-5.038-1.883zm0 0"/></g><g clip-path="url(#M)" transform="translate(25.58 -200.539)"><path fill="#fd9ea3" d="m935.273 302.828 1.774-3.57 4.777 3.164-4.87-7.149-1.774 3.57-4.778-3.163zm0 0"/></g><g clip-path="url(#N)" transform="translate(25.58 -200.539)"><path fill="#fd9ea3" d="m924.406 332.164 4.149 1.465-2.828 5.656 7.183-6.293-4.148-1.46 2.828-5.66zm0 0"/></g><g clip-path="url(#O)" transform="translate(25.58 -200.539)"><path fill="#fd9ea3" d="m1017.059 338.555 4.57-9.453 2.355 10.695 6.137-3.422-2.644 6.727 10.851-.313-9.52 5.754 7.372 5.742-9.875-.098 1.722 4.704-5.082-2.11-1.152 8.727-4.863-7.047-7.985 8.308 2.414-11.562-5.054.094 2.324-4.582-8.078-3.657 9.433-1.046-6.277-8.813 9.168 3.113-.383-4.695zm0 0"/></g><g clip-path="url(#P)" transform="translate(25.58 -200.539)"><path fill="#fd9ea3" d="m1038.473 332.902-3.942-.757 1.785-5.48-5.62 6.644 3.937.757-1.781 5.485zm0 0"/></g><path fill="#fd9ea3" d="m1057.556 165.868.75-3.157 4.371 1.63-5.18-4.774-.75 3.156-4.37-1.629zm0 0"/><g clip-path="url(#Q)" transform="translate(25.58 -200.539)"><path fill="#fd9ea3" d="m1007.21 332.379 1.536-3.098 4.145 2.746-4.227-6.203-1.535 3.098-4.148-2.746zm0 0"/></g><g clip-path="url(#R)" transform="translate(25.58 -200.539)"><path fill="#fd9ea3" d="m997.777 357.84 3.602 1.27-2.457 4.91 6.234-5.461-3.601-1.274 2.457-4.91zm0 0"/></g><g clip-path="url(#S)" transform="translate(25.58 -200.539)"><path fill="#fd9ea3" d="m862.613 318.516 4.715-9.746 2.426 11.03 6.328-3.53-2.727 6.937 11.196-.324-9.82 5.937 7.605 5.922-10.188-.098 1.778 4.852-5.242-2.18-1.188 9.004-5.02-7.27-8.234 8.571 2.492-11.93-5.214.102 2.398-4.73-8.332-3.77 9.73-1.082-6.472-9.086 9.453 3.21-.395-4.843zm0 0"/></g><g clip-path="url(#T)" transform="translate(25.58 -200.539)"><path fill="#fd9ea3" d="m884.695 312.688-4.058-.778 1.836-5.656-5.797 6.855 4.062.782-1.84 5.652zm0 0"/></g><g clip-path="url(#U)" transform="translate(25.58 -200.539)"><path fill="#fd9ea3" d="m878 347.242.77-3.254 4.511 1.68-5.343-4.922-.77 3.258-4.512-1.684zm0 0"/></g><g clip-path="url(#V)" transform="translate(25.58 -200.539)"><path fill="#fd9ea3" d="m852.453 312.148 1.586-3.195 4.277 2.836-4.359-6.402-1.586 3.195-4.277-2.832zm0 0"/></g><g clip-path="url(#W)" transform="translate(25.58 -200.539)"><path fill="#fd9ea3" d="m842.727 338.406 3.71 1.313-2.53 5.062 6.429-5.633-3.715-1.308 2.535-5.067zm0 0"/></g><g clip-path="url(#X)" transform="translate(25.58 -200.539)"><path fill="#fd9ea3" d="m1074.902 390.45 3.246-6.716 1.672 7.598 4.36-2.434-1.88 4.782 7.712-.223-6.762 4.086 5.238 4.082-7.02-.07 1.223 3.343-3.609-1.5-.816 6.2-3.457-5.008-5.672 5.906 1.719-8.219-3.594.07 1.652-3.257-5.738-2.598 6.699-.742-4.457-6.262 6.512 2.215-.274-3.336zm0 0"/></g><g clip-path="url(#Y)" transform="translate(25.58 -200.539)"><path fill="#fd9ea3" d="m1090.113 386.434-2.797-.54 1.266-3.894-3.992 4.723 2.797.539-1.266 3.894zm0 0"/></g><g clip-path="url(#Z)" transform="translate(25.58 -200.539)"><path fill="#fd9ea3" d="m1085.5 410.234.531-2.242 3.106 1.16-3.68-3.394-.531 2.246-3.106-1.16zm0 0"/></g><g clip-path="url(#aa)" transform="translate(25.58 -200.539)"><path fill="#fd9ea3" d="m1067.902 386.063 1.094-2.2 2.945 1.95-3.003-4.407-1.09 2.2-2.946-1.95zm0 0"/></g><g clip-path="url(#ab)" transform="translate(25.58 -200.539)"><path fill="#fd9ea3" d="m1061.203 404.148 2.559.903-1.746 3.488 4.43-3.879-2.56-.902 1.747-3.488zm0 0"/></g><g clip-path="url(#ac)" transform="translate(25.58 -200.539)"><path fill="#b81d25" fill-rule="evenodd" d="M645.387 394.871c-8.524-7.738-21.817-24.156-13.555-46.203 11.703-31.207 23.79-37.977 9.438-53.39 0 0 16.8 7.14 13.406 29.327-4.645 30.317-12.434 33.758 14.879 54.418 2.941 2.223 7.449 5.84 6.425 10.442-1.125 5.055-10.449 11.062-15.207 12.039-5.16 1.05-9.593-1.367-15.386-6.633m0 0"/></g><g clip-path="url(#ad)" transform="translate(25.58 -200.539)"><path fill="#b81d25" fill-rule="evenodd" d="M742.738 394.871c8.524-7.738 21.817-24.156 13.547-46.203-11.703-31.207-23.781-37.977-9.437-53.39 0 0-16.801 7.14-13.399 29.327 4.645 30.317 12.426 33.758-14.886 54.418-2.934 2.223-7.446 5.84-6.418 10.442 1.125 5.055 10.449 11.062 15.207 12.039 5.16 1.05 9.586-1.367 15.386-6.633m0 0"/></g><path fill="#f6efe3" fill-rule="evenodd" d="M674.79 289.39c6.739-4.07 23.641-8.925 29.044-7.995 2.16.36-8.051 9.812-6.125 11.332 1.16.207 1.648 1.226 2.214 2.05 7.047 9.981 21.918 10.743 30.715 4.856 2.34-1.547 4.606-3.168 6.2-5.55.538-.801 1.285-1.391 2.16-1.833 3.601-.644 6.02-12.117 9.62-12.816 3.04-.555 6.895 6.582 9.93 8.039.801.645 1.57 1.273 2.395 1.918.668.875.387 1.828.129 2.742-2.957 11.106-4.965 22.414-6.149 33.817-.18 1.855-1.004 3.335-2.289 4.62-2.265 2.243-4.836 4.137-7 6.481a68 68 0 0 0-2.468 2.91c-.641.864-.747 1.559.285 2.192 6.738 4.187 11.836 10.113 16.515 16.37 1.106 1.419 1.98 1.509 3.293.36 3.035-2.586 5.657-5.586 8.59-8.27.774-.757 1.442-2.085 2.961-1.328.05.7.36 1.125 1.055 1.418 5.402 2.305 10.445 5.168 15.152 8.723 1.438 1.133 2.828 2.277 3.883 3.746-.54 3.61-2.262 5.36-5.527 5.516-4.711.308-6.77 3.695-8.516 7.379-1.238 2.55-1.7 5.41-1.441 8.297.078.796.335 1.62-.258 2.316-.235 2.113-1.414 3.16-3.446 2.746-8.566-1.726-16.824-4.598-24.953-7.871-2.472-.992-4.89-2.254-7.308-3.437-.848-.364-1.57-.442-2.492-.22-5.665 1.313-11.372 1.93-17.184 2.137-9.137.297-18.164-.18-27.168-1.906-3.293-.605-6.2 1.106-9.133 2.266-6.43 2.555-13.094 4.418-19.574 6.7a93 93 0 0 1-7.078 2.19c-.977.293-2.184.903-2.778-.695-.718-.914-.156-1.844-.027-2.742.7-5.05.313-9.855-3.16-13.965-1.7-1.996-3.758-3.094-6.406-3.195-3.961-.067-6.664-2.781-7.153-6.942 2.34-3.066 5.868-4.457 9.032-6.336 2.547-1.523 5.222-3.015 8.156-3.777 2.469-.656 3.652-2.281 3.855-4.754 1.543-.27 2.032 1.016 2.754 1.895 3.73 5.05 8.594 8.914 13.352 12.933.875.77 1.543.54 2.16-.347.516-.801 1.055-1.625 1.57-2.399 4.04-6.066 8.438-11.824 14.38-16.191 1.234-.89 1.234-1.547.1-2.54-3.726-3.335-7.484-6.671-11.136-10.136-1.57-1.469-2.469-3.219-2.906-5.309-1.774-8.55-2.856-17.285-5.375-25.75-.668-2.113-1.285-4.261-2.008-6.375-.367-1.078-.727-2.132-.441-3.27.152-.5.203 3.337 0 0m0 0"/><path fill="#a4d6e5" fill-rule="evenodd" d="M779.154 386.684c-1.824-3.77.027-9.598 1.98-12.895 2.524-4.171 4.914-4.468 9.211-5.754 3.293-1.02 4.555-5.386 7.23-7.437 3.294-2.547 7.512-3.434 11.528-2.02 5.527 1.957 8.82 7.215 9.336 13.165.977 10.859-8.516 22.53-16.516 25.054-6.148 1.918-11.836 1.301-17.03-3.027-2.419-1.996-4.427-4.25-5.74-7.086m-137.859-24.938c.977 1.66 2.29 3.055 3.012 4.872.438 1.132 1.387 1.351 2.52 1.39 7.304.168 12.117 5.215 12.195 12.586.023 2.727.102 5.461-.98 7.996-5.016 8.14-13.504 10.422-20.45 8.567-4.734-1.223-8.18-4.598-11.062-8.293-3.86-5.141-6.895-10.809-6.715-17.454.18-5.953 2.957-10.515 8.617-12.792 4.117-1.637 7.95-.774 11.399 1.917.511.387.976.825 1.464 1.211m0 0"/><path fill="#fed2b9" fill-rule="evenodd" d="M683.947 340.246c-2.957 4.649-8 7.422-8.438 13.348 3.188 3.168 5.582 9.649 8.387 13.074.797.942 1.262 2.742 2.727 2.356 1.492-.489 1.082-2.047.976-3.352-.308-2.844.797-2.96 2.832-1.508 1.852 1.188 4.246 3.532 5.863 2.09 1.801-1.687-1.257-3.812-2.109-6.043.645.157 1.055.184 1.543.32 2.11.622 4.836 3.508 6.356 1.587 1.62-2.215-1.958-3.84-3.192-5.72-.207-.296-.308-.695-.488-1.277.847-.14 1.492-.18 2.215-.347 1.129-.399 2.879.32 3.086-1.531.308-1.493-1.133-2.141-2.137-2.899-1.438-1.098-3.063-2.047-4.656-3 0 0 7.613 1.402 6.843-.09-1.8-3.722-6.199-5.707-10.058-6.3-.977-.126-9.367-1.313-9.75-.708m70.383 0c2.933 4.649 8.004 7.422 8.464 13.348-3.214 3.168-5.632 9.649-8.386 13.074-.824.942-1.285 2.742-2.75 2.356-1.52-.489-1.11-2.047-1.004-3.352.332-2.844-.774-2.96-2.805-1.508-1.828 1.188-4.273 3.532-5.867 2.09-1.8-1.687 1.234-3.812 2.11-6.043-.645.157-1.079.184-1.516.32-2.11.622-4.914 3.508-6.356 1.587-1.648-2.215 1.93-3.84 3.164-5.72.207-.296.309-.695.489-1.277-.82-.14-1.516-.18-2.239-.347-1.078-.399-2.851.32-3.058-1.531-.309-1.493 1.105-2.141 2.11-2.899 1.491-1.098 3.058-2.047 4.655-3 0 0-7.59 1.402-6.843-.09 1.828-3.722 6.199-5.707 10.113-6.3.95-.126 9.308-1.313 9.719-.708m0 0"/><path fill="#a4d6e5" fill-rule="evenodd" d="M674.79 289.39c3.137 8.259 5.145 16.813 6.688 25.481.645 3.606 1.262 7.215 2.008 10.782.668 3.246 3.473 4.793 5.66 6.84 3.113 2.835 6.273 5.59 9.438 8.386.722.645.359 1.043-.282 1.43-7.46 5.125-12.554 12.34-17.34 19.773-.824 1.38-1.492 1.57-2.726.477-3.86-3.414-7.82-6.727-11.45-10.461-1.62-1.598-2.312-3.996-4.449-5.219-5.71-11.992-6.921-24.539-3.652-37.355 2.266-9.043 8.332-15.34 16.106-20.133M774.81 349.29c-1.082.062-1.621.925-2.289 1.585-3.242 3.04-6.176 6.414-9.648 9.274-1.442 1.172-1.852.941-2.856-.414-4.426-5.95-9.133-11.63-15.281-15.946-.078 0-.13-.05-.203-.152-.852-.992-3.192-.992-2.961-2.281.207-1.39 1.57-2.707 2.648-3.813 2.367-2.37 4.762-4.703 7.36-6.828 2.187-1.816 2.648-4.133 2.882-6.75 1-11.734 3.754-23.133 6.48-34.57 9.34 4.957 15.231 12.789 18.677 22.644 1.57 4.457 2.265 9.055 2.316 13.743.152 8.039-1.8 15.574-6.457 22.21-.258.41-.465.876-.668 1.297m0 0"/><path fill="#72c1d3" fill-rule="evenodd" d="M643.146 375.133c3.215 8.461 1.184 17.106-4.5 19.281-5.715 2.141-12.914-2.933-16.129-11.398-3.246-8.465-1.21-17.11 4.473-19.246 5.71-2.18 12.941 2.926 16.156 11.363m150.492 0c-3.187 8.461-1.183 17.106 4.528 19.281 5.71 2.141 12.918-2.933 16.128-11.398 3.215-8.465 1.211-17.11-4.472-19.246-5.738-2.18-12.969 2.926-16.184 11.363m0 0"/><path fill="#a4d6e5" fill-rule="evenodd" d="M741.982 292.203c-.617 2.91-1.672 5.72-3.961 8.395-10.574 12.496-27.758 13.152-37.973.297-4.265-5.41-4.422-11.5-5.761-17.957-1.649-7.961-3.989-17.645-3.086-17.645 11.91-.066 41.547-16.578 53.457-16.773 1.695-.012-.903 21.23-1.801 34.16-.258 3.402-.309 6.543-.875 9.523m0 0"/><g clip-path="url(#ae)" transform="translate(25.58 -200.539)"><g clip-path="url(#af)"><path fill="url(#ag)" d="M615.61 369.527v127.72h143.68v-127.72Zm0 0" style="fill:url(#ag)"/></g></g><g clip-path="url(#ah)" transform="translate(25.58 -200.539)"><path fill="#572a0e" fill-rule="evenodd" d="M756.664 439.645c7.176-15.204 5.531-29.836-.824-43.543-9.313-19.91-33.676-33.286-55.309-34.907-7.047-.515 4.938-11.027 5.352-12.34.926-1.16.129-1.261-.801-1.21-9.262.28-11.855 3.503-17.363 9.93.078-.079-8.207-5.731-9.828-4.317 1.03 1.844 1.957 3.683 3.062 5.578 1.262 2.203.824 3.156-1.879 3.8-18.16 3.813-38.972 19.04-46.457 36.391-3.707 8.59-5.812 24.68-2.523 32.653.824-7.188 24.672-25.348 30.484-28.61 8.926-5.101 16.953-11.191 22.434-20.207-1.364 10.742-7.075 18.7-16.438 24.809 5.735-.05 10.446-1.598 15.254-3.067-1.824 1.352-3.652 2.782-6.148 4.715 14.28-3.066 24.027-11.133 32.183-22.851-2.597 7.136-5.918 12.945-9.16 18.804 6.121-4.57 9.598-10.972 12.117-19.062 1.313 9.789 0 18.047-4.09 26.07 12.606-5.488 19.579-10.82 22.895-24.242 4.012 1.777 20.605 25.223 23.23 36.61 1.133 4.843 3.063 10.097 3.81 14.996m0 0"/></g><path fill="#ffa492" fill-rule="evenodd" d="M692.205 254.973c.746 6.52-4.786 12.535-12.399 13.422-7.617.902-14.355-3.735-15.129-10.254-.718-6.57 4.809-12.598 12.403-13.45 7.613-.847 14.379 3.766 15.125 10.282m77.023 4.407c-.156 6.593-6.484 11.773-14.125 11.593-7.64-.18-13.738-5.617-13.559-12.188.13-6.593 6.457-11.746 14.098-11.617 7.668.203 13.688 5.614 13.586 12.211m0 0"/><path fill="#fed2b9" fill-rule="evenodd" d="M779.052 237.801s19.5-4.984 14.742 18.563c0 0-6.25 16.718-17.52 7.379"/><path fill="#572a0e" fill-rule="evenodd" d="M701.31 243.215c-.101 4.66-2.625 8.41-5.633 8.332-3.035-.05-5.375-3.902-5.273-8.539.101-4.652 2.676-8.387 5.66-8.258 3.035 0 5.375 3.89 5.246 8.465m42.293.231c-.129 4.609-2.648 8.382-5.66 8.28-3.035-.089-5.402-3.901-5.3-8.554.128-4.648 2.675-8.36 5.687-8.308 3.035.117 5.351 3.906 5.273 8.582m0 0"/><path fill="#e58076" d="M707.15 267.04a1.744 1.744 0 0 1-1.531-2.578c2.132-3.954 6.101-6.548 10.617-6.938 5.105-.328 10.008 2.304 12.496 6.715a1.742 1.742 0 1 1-3.031 1.719c-1.84-3.255-5.461-5.204-9.2-4.954a9.83 9.83 0 0 0-7.816 5.117 1.74 1.74 0 0 1-1.535.918m0 0"/><path fill="#572a0e" d="M695.22 219.946c-2.652 0-4.43-.477-4.59-.52a1.17 1.17 0 0 1 .625-2.254c.125.035 7.582 1.965 14.766-2.808a1.166 1.166 0 0 1 1.285 1.945c-4.43 2.95-8.89 3.637-12.086 3.637m43.38.257c-3.208 0-7.704-.683-12.153-3.62a1.167 1.167 0 1 1 1.281-1.95c7.246 4.781 14.75 2.828 14.824 2.809a1.17 1.17 0 0 1 1.43.824 1.17 1.17 0 0 1-.82 1.434c-.157.043-1.922.503-4.563.503m0 0"/></svg>