<svg xmlns="http://www.w3.org/2000/svg" width="1280" height="400" overflow="hidden"><path d="M0 0h1280v400H0z" style="fill:#fff;stroke-width:.802216"/><path fill="none" stroke="#042433" stroke-miterlimit="8" stroke-width="3" d="M59 68.739c0-8.008 6.492-14.5 14.5-14.5h108c8.008 0 14.5 6.492 14.5 14.5v58c0 8.008-6.492 14.5-14.5 14.5h-108c-8.008 0-14.5-6.492-14.5-14.5z"/><text x="109.229" y="113.739" font-family="'Cambria Math', 'Cambria Math_MSFontService', sans-serif" font-size="48" font-weight="400">𝑆</text><path fill="none" stroke="#042433" stroke-miterlimit="8" stroke-width="3" d="M581 68.739c0-8.008 6.492-14.5 14.5-14.5h108c8.008 0 14.5 6.492 14.5 14.5v58c0 8.008-6.492 14.5-14.5 14.5h-108c-8.008 0-14.5-6.492-14.5-14.5z"/><text x="634.365" y="113.739" font-family="'Cambria Math', 'Cambria Math_MSFontService', sans-serif" font-size="48" font-weight="400">𝐼</text><path fill="none" stroke="#042433" stroke-miterlimit="8" stroke-width="3" d="M1084 68.739c0-8.008 6.49-14.5 14.5-14.5h108c8.01 0 14.5 6.492 14.5 14.5v58c0 8.008-6.49 14.5-14.5 14.5h-108c-8.01 0-14.5-6.492-14.5-14.5z"/><text x="1130.76" y="113.739" font-family="'Cambria Math', 'Cambria Math_MSFontService', sans-serif" font-size="48" font-weight="400">𝑅</text><path fill="none" stroke="#042433" stroke-miterlimit="8" stroke-width="3" d="M59 288.739c0-8.008 6.492-14.5 14.5-14.5h108c8.008 0 14.5 6.492 14.5 14.5v58c0 8.008-6.492 14.5-14.5 14.5h-108c-8.008 0-14.5-6.492-14.5-14.5z"/><text x="99.395" y="333.739" font-family="'Cambria Math', 'Cambria Math_MSFontService', sans-serif" font-size="48" font-weight="400">𝑆</text><text x="122.622" y="342.739" font-family="'Cambria Math', 'Cambria Math_MSFontService', sans-serif" font-size="35" font-weight="400">𝑣</text><path fill="none" stroke="#042433" stroke-miterlimit="8" stroke-width="3" d="M581 288.739c0-8.008 6.492-14.5 14.5-14.5h108c8.008 0 14.5 6.492 14.5 14.5v58c0 8.008-6.492 14.5-14.5 14.5h-108c-8.008 0-14.5-6.492-14.5-14.5z"/><text x="625.178" y="333.739" font-family="'Cambria Math', 'Cambria Math_MSFontService', sans-serif" font-size="48" font-weight="400">𝐼</text><text x="640.532" y="342.739" font-family="'Cambria Math', 'Cambria Math_MSFontService', sans-serif" font-size="35" font-weight="400">𝑣</text><path fill="none" stroke="#042433" stroke-miterlimit="8" stroke-width="3" d="M1084 288.739c0-8.008 6.49-14.5 14.5-14.5h108c8.01 0 14.5 6.492 14.5 14.5v58c0 8.008-6.49 14.5-14.5 14.5h-108c-8.01 0-14.5-6.492-14.5-14.5z"/><text x="1120.52" y="333.739" font-family="'Cambria Math', 'Cambria Math_MSFontService', sans-serif" font-size="48" font-weight="400">𝑅</text><text x="1150.37" y="342.739" font-family="'Cambria Math', 'Cambria Math_MSFontService', sans-serif" font-size="35" font-weight="400">𝑣</text><path d="M195.5 95.739h374.847v4H195.5zm372.847-4 12 6-12 6zm149.153 8.03 355.59-.029-.001-4-355.59.029zm353.59 3.971 11.999-6-12-6zM195.5 314.739l374.847.029v4l-374.847-.029zm372.847-3.972 12 6.001-12.001 5.999zm149.153 8.001 355.59-.029-.001-4-355.59.029zm353.59 3.972 11.999-6.001-12-6zM125.5 140.739V263.36h4V140.739zm-4 120.621 6 12 6-12z"/><text x="887.123" y="292.739" font-family="'Cambria Math', 'Cambria Math_MSFontService', sans-serif" font-size="48" font-weight="400">𝛾</text><text x="887.123" y="72.739" font-family="'Cambria Math', 'Cambria Math_MSFontService', sans-serif" font-size="48" font-weight="400">𝛾</text><text x="289.665" y="72.739" font-family="'Cambria Math', 'Cambria Math_MSFontService', sans-serif" font-size="48" font-weight="400">𝜆</text><path fill-rule="evenodd" d="M356.935 37.261q6.844 1.805 10.512 7.793t3.668 14.449q0 8.485-3.656 14.45t-10.524 7.769l-.562-1.804q5.414-1.806 8.05-7.125 2.637-5.32 2.637-13.524 0-7.922-2.625-13.16t-8.133-7.043zm-23.218 0 .633 1.805q-5.485 1.805-8.121 7.043t-2.637 13.16q0 8.203 2.637 13.524 2.636 5.319 8.05 7.125l-.562 1.804q-6.867-1.805-10.524-7.769t-3.656-14.45q0-8.46 3.668-14.449 3.667-5.988 10.512-7.793"/><text x="335.238" y="72.739" font-family="'Cambria Math', 'Cambria Math_MSFontService', sans-serif" font-size="48" font-weight="400">𝑡</text><text x="388.665" y="72.739" font-family="'Cambria Math', 'Cambria Math_MSFontService', sans-serif" font-size="48" font-weight="400">=</text><text x="437.832" y="72.739" font-family="'Cambria Math', 'Cambria Math_MSFontService', sans-serif" font-size="48" font-weight="400">𝛽𝐼</text><text x="79.095" y="215.739" font-family="'Cambria Math', 'Cambria Math_MSFontService', sans-serif" font-size="48" font-weight="400">𝜌</text><text x="289.665" y="292.739" font-family="'Cambria Math', 'Cambria Math_MSFontService', sans-serif" font-size="48" font-weight="400">𝜆</text><path fill-rule="evenodd" d="M356.935 256.436q6.844 1.805 10.512 7.793t3.668 14.449q0 8.485-3.656 14.449-3.657 5.966-10.524 7.77l-.562-1.805q5.414-1.804 8.05-7.125t2.637-13.523q0-7.923-2.625-13.16-2.625-5.239-8.133-7.043zm-23.218 0 .633 1.805q-5.485 1.804-8.121 7.043-2.637 5.237-2.637 13.16 0 8.202 2.637 13.523t8.05 7.125l-.562 1.805q-6.867-1.804-10.524-7.77t-3.656-14.449q0-8.461 3.668-14.449 3.667-5.988 10.512-7.793"/><text x="335.238" y="292.739" font-family="'Cambria Math', 'Cambria Math_MSFontService', sans-serif" font-size="48" font-weight="400">𝑡</text><text x="388.665" y="292.739" font-family="'Cambria Math', 'Cambria Math_MSFontService', sans-serif" font-size="48" font-weight="400">=</text><text x="437.832" y="292.739" font-family="'Cambria Math', 'Cambria Math_MSFontService', sans-serif" font-size="48" font-weight="400">𝛽𝐼</text></svg>