<svg xmlns="http://www.w3.org/2000/svg" width="1920" height="800" preserveAspectRatio="xMidYMid" viewBox="0 0 1440 600"><defs><clipPath id="a"><path d="M674 206h608v474H674Zm0 0"/></clipPath><clipPath id="b"><path d="M674.375 675.465a1249 1249 0 0 1 12.2-38.93l12.812 4.25a1233 1233 0 0 0-12.067 38.508zm16.555-51.817a1087 1087 0 0 1 13.96-38.21l12.59 4.87a1071 1071 0 0 0-13.785 37.739zm18.972-50.914a944 944 0 0 1 16.02-37.5l12.297 5.575a929 929 0 0 0-15.793 36.968zm21.715-49.812a823 823 0 0 1 18.348-36.527l11.906 6.363a802 802 0 0 0-18.043 35.926zm24.836-48.418a709 709 0 0 1 20.942-35.192l11.394 7.243a699 699 0 0 0-20.547 34.523zm28.332-46.567a620 620 0 0 1 23.797-33.39l10.723 8.2c-7.985 10.44-15.742 21.331-23.278 32.663zm32.195-44.109a543 543 0 0 1 26.856-31.012l9.86 9.22a530 530 0 0 0-26.188 30.245zm36.329-40.875a487 487 0 0 1 30.007-27.984l8.778 10.254a474 474 0 0 0-29.176 27.21zm40.562-36.758a452 452 0 0 1 33.113-24.316l7.485 11.238a437 437 0 0 0-32.125 23.59zm44.64-31.734a435 435 0 0 1 35.9-20.047l6.015 12.086a421 421 0 0 0-34.785 19.422zm48.27-25.965a440 440 0 0 1 38.13-15.383l4.46 12.742a425 425 0 0 0-36.957 14.91zm51.117-19.71a464 464 0 0 1 39.696-10.63l2.918 13.18a450 450 0 0 0-38.543 10.324zm53.086-13.4a510 510 0 0 1 40.57-6.077l1.47 13.421a495 495 0 0 0-39.493 5.918zm54.211-7.39a571 571 0 0 1 40.883-1.93l.16 13.496a560 560 0 0 0-39.918 1.887zm54.606-1.941q20.07.21 40.797 1.722l-.98 13.465a641 641 0 0 0-39.958-1.687zm54.46 2.851c9.083.84 18.262 1.867 27.528 3.074l-1.742 13.387a726 726 0 0 0-27.027-3.015zm0 0"/></clipPath><clipPath id="d"><path d="M428 280h66.637v65.836H428Zm0 0"/></clipPath><clipPath id="e"><path d="M481 276h13.637v23H481Zm0 0"/></clipPath><clipPath id="f"><path d="M474 334h19v11.836h-19zm0 0"/></clipPath><clipPath id="g"><path d="M433 274.586h18V286h-18zm0 0"/></clipPath><clipPath id="h"><path d="M424.137 320H437v21h-12.863zm0 0"/></clipPath><clipPath id="i"><path d="M205 218.676h72V380h-72zm0 0"/></clipPath><clipPath id="j"><path d="M330 218.676h71V380h-71zm0 0"/></clipPath><clipPath id="k"><path d="M639 211h90v88.43h-90zm0 0"/></clipPath><clipPath id="l"><path d="M645 203.43h24V219h-24zm0 0"/></clipPath><clipPath id="m"><path d="M633.027 265H651v29h-17.973zm0 0"/></clipPath><clipPath id="n"><path d="M750 257h89v88.496h-89zm0 0"/></clipPath><clipPath id="o"><path d="M821 251h18.672v31H821Zm0 0"/></clipPath><clipPath id="p"><path d="M755 249.496h25V265h-25zm0 0"/></clipPath><clipPath id="q"><path d="M743.672 311H762v29h-18.328zm0 0"/></clipPath><clipPath id="r"><path d="M516 225h84.602v85.176H516Zm0 0"/></clipPath><clipPath id="s"><path d="M583 220h17.602v30H583Zm0 0"/></clipPath><clipPath id="t"><path d="M521 218.676h23V234h-23zm0 0"/></clipPath><clipPath id="u"><path d="M509.852 278H527v27h-17.148zm0 0"/></clipPath><clipPath id="v"><path d="M882 362h43v42.707h-43zm0 0"/></clipPath><clipPath id="w"><path d="M916 359h9.027v16H916Zm0 0"/></clipPath><clipPath id="x"><path d="M911 397h13v7.707h-13zm0 0"/></clipPath><clipPath id="y"><path d="M885 358.957h12V367h-12zm0 0"/></clipPath><clipPath id="z"><path d="M879.277 388H888v14h-8.723zm0 0"/></clipPath><clipPath id="A"><path d="M925.031 615H985v61h-59.969zm0 0"/></clipPath><clipPath id="B"><path d="M974 297.621h202V437H974Zm0 0"/></clipPath><clipPath id="C"><path d="M185 331h217v189H185Zm0 0"/></clipPath><clipPath id="D"><path d="M271.402 515.652c-8.23-1.98-16.46-4.539-24.27-7.605-10.167-4.113-26.55-14.473-33.155-24.442-.817-1.203-8.5-13.734-6.559-14.18-3.496.872-6.332-.155-9.125-1.456-9.281-5.356-13.36-13.348-12.582-23.899.621-8.886 7.375-16.879 16.734-15.89 3.11.312 4.117-1.106 4.352-3.973.465-6.133.504-12.453 2.25-18.43 1.242-10.129 4.035-19.75 8.074-29.136 1.863-4.188 4.582-6.403 9.32-7.137 22.637-3.457 40.07-15.793 54.434-33.078 1.594-1.88 2.68-5.82 5.746-4.227 2.797 1.336 1.36 4.906.621 7.43-3.183 11.754 25.004-4.54 15.844 1.996 3.414-1.063-11.492 18.488-7.223 16.668 1.668-.7-11.336 3.957-10.406 5.934.973 2.02-.738 3.28-2.367 4.23-.66.27-1.281.64-1.903.91.47-.172.97-.367 1.438-.597 8.191-4.036 16.074-7.606 22.71-13.235 5.169-4.226 9.435-9.113 13.4-14.39 1.238-1.668 2.68-4.579 5.007-3.165 2.367 1.457.895 4.227-.152 6.286-2.332 5.683-5.516 11.117-8.43 15.304 3.496-3.78 5.555-9.699 8.352-15.246.425-.894 1.008-1.437 1.238-2.23.621-1.75 1.246-4.074 3.418-3.903 2.484.235 2.719 2.797 2.836 4.735.426 10.008 12.969-4.735 8.89 5.043 2.133-.078-4.19 23.394-2.796 22.383 11.261-8.32 13.976-18.504 18.172-32.18.582-2.059 35.875 31.137 41.39 47.508 2.25 6.867 2.524 14.12 3.61 21.199.347 2.351.347 4.715 1.125 6.93.39 7.68-1.708 15.09-3.57 22.382-.313 1.434 2.288 14.356-.622 25.606-4.93 18.742-16.894 34.957-34.285 44.328-27.688 14.844-61.035 16.82-91.516 9.527m0 0" clip-rule="evenodd"/></clipPath><clipPath id="F"><path d="M204 297.621h201V437H204Zm0 0"/></clipPath><linearGradient id="c" x1="-3.101" x2="1023.529" y1="114.086" y2="114.086" gradientTransform="rotate(-37.395 1098.4 -578.474)scale(.75)" gradientUnits="userSpaceOnUse"><stop offset="0" stop-color="#8c52ff"/><stop offset=".008" stop-color="#8c52ff"/><stop offset=".012" stop-color="#8c53ff"/><stop offset=".016" stop-color="#8b54ff"/><stop offset=".02" stop-color="#8b54ff"/><stop offset=".023" stop-color="#8b55fe"/><stop offset=".027" stop-color="#8b56fe"/><stop offset=".031" stop-color="#8b56fe"/><stop offset=".035" stop-color="#8a57fe"/><stop offset=".039" stop-color="#8a57fe"/><stop offset=".043" stop-color="#8a58fe"/><stop offset=".047" stop-color="#8a58fe"/><stop offset=".051" stop-color="#8a59fe"/><stop offset=".055" stop-color="#895afe"/><stop offset=".059" stop-color="#895afe"/><stop offset=".063" stop-color="#895bfe"/><stop offset=".066" stop-color="#895bfd"/><stop offset=".07" stop-color="#895cfd"/><stop offset=".074" stop-color="#895cfd"/><stop offset=".078" stop-color="#885dfd"/><stop offset=".082" stop-color="#885dfd"/><stop offset=".086" stop-color="#885efd"/><stop offset=".09" stop-color="#885ffd"/><stop offset=".094" stop-color="#885ffd"/><stop offset=".098" stop-color="#8760fd"/><stop offset=".102" stop-color="#8760fd"/><stop offset=".105" stop-color="#8761fc"/><stop offset=".109" stop-color="#8761fc"/><stop offset=".113" stop-color="#8762fc"/><stop offset=".117" stop-color="#8663fc"/><stop offset=".121" stop-color="#8663fc"/><stop offset=".125" stop-color="#8664fc"/><stop offset=".129" stop-color="#8664fc"/><stop offset=".133" stop-color="#8665fc"/><stop offset=".137" stop-color="#8665fc"/><stop offset=".141" stop-color="#8566fc"/><stop offset=".145" stop-color="#8566fb"/><stop offset=".148" stop-color="#8567fb"/><stop offset=".152" stop-color="#8568fb"/><stop offset=".156" stop-color="#8568fb"/><stop offset=".16" stop-color="#8469fb"/><stop offset=".164" stop-color="#8469fb"/><stop offset=".168" stop-color="#846afb"/><stop offset=".172" stop-color="#846afb"/><stop offset=".176" stop-color="#846bfb"/><stop offset=".18" stop-color="#836cfb"/><stop offset=".184" stop-color="#836cfa"/><stop offset=".188" stop-color="#836dfa"/><stop offset=".191" stop-color="#836dfa"/><stop offset=".195" stop-color="#836efa"/><stop offset=".199" stop-color="#836efa"/><stop offset=".203" stop-color="#826ffa"/><stop offset=".207" stop-color="#826ffa"/><stop offset=".211" stop-color="#8270fa"/><stop offset=".215" stop-color="#8271fa"/><stop offset=".219" stop-color="#8271fa"/><stop offset=".223" stop-color="#8172f9"/><stop offset=".227" stop-color="#8172f9"/><stop offset=".23" stop-color="#8173f9"/><stop offset=".234" stop-color="#8173f9"/><stop offset=".238" stop-color="#8174f9"/><stop offset=".242" stop-color="#8075f9"/><stop offset=".246" stop-color="#8075f9"/><stop offset=".25" stop-color="#8076f9"/><stop offset=".254" stop-color="#8076f9"/><stop offset=".258" stop-color="#8077f9"/><stop offset=".262" stop-color="#7f77f8"/><stop offset=".266" stop-color="#7f78f8"/><stop offset=".27" stop-color="#7f78f8"/><stop offset=".273" stop-color="#7f79f8"/><stop offset=".277" stop-color="#7f7af8"/><stop offset=".281" stop-color="#7f7af8"/><stop offset=".285" stop-color="#7e7bf8"/><stop offset=".289" stop-color="#7e7bf8"/><stop offset=".293" stop-color="#7e7cf8"/><stop offset=".297" stop-color="#7e7cf8"/><stop offset=".301" stop-color="#7e7df7"/><stop offset=".305" stop-color="#7d7ef7"/><stop offset=".309" stop-color="#7d7ef7"/><stop offset=".313" stop-color="#7d7ff7"/><stop offset=".316" stop-color="#7d7ff7"/><stop offset=".32" stop-color="#7d80f7"/><stop offset=".324" stop-color="#7c80f7"/><stop offset=".328" stop-color="#7c81f7"/><stop offset=".332" stop-color="#7c81f7"/><stop offset=".336" stop-color="#7c82f7"/><stop offset=".34" stop-color="#7c83f7"/><stop offset=".344" stop-color="#7c83f6"/><stop offset=".348" stop-color="#7b84f6"/><stop offset=".352" stop-color="#7b84f6"/><stop offset=".355" stop-color="#7b85f6"/><stop offset=".359" stop-color="#7b85f6"/><stop offset=".363" stop-color="#7b86f6"/><stop offset=".367" stop-color="#7a87f6"/><stop offset=".371" stop-color="#7a87f6"/><stop offset=".375" stop-color="#7a88f6"/><stop offset=".379" stop-color="#7a88f6"/><stop offset=".383" stop-color="#7a89f5"/><stop offset=".387" stop-color="#7989f5"/><stop offset=".391" stop-color="#798af5"/><stop offset=".395" stop-color="#798af5"/><stop offset=".398" stop-color="#798bf5"/><stop offset=".402" stop-color="#798cf5"/><stop offset=".406" stop-color="#798cf5"/><stop offset=".41" stop-color="#788df5"/><stop offset=".414" stop-color="#788df5"/><stop offset=".418" stop-color="#788ef5"/><stop offset=".422" stop-color="#788ef4"/><stop offset=".426" stop-color="#788ff4"/><stop offset=".43" stop-color="#7790f4"/><stop offset=".434" stop-color="#7790f4"/><stop offset=".438" stop-color="#7791f4"/><stop offset=".441" stop-color="#7791f4"/><stop offset=".445" stop-color="#7792f4"/><stop offset=".449" stop-color="#7692f4"/><stop offset=".453" stop-color="#7693f4"/><stop offset=".457" stop-color="#7693f4"/><stop offset=".461" stop-color="#7694f3"/><stop offset=".465" stop-color="#7695f3"/><stop offset=".469" stop-color="#7595f3"/><stop offset=".473" stop-color="#7596f3"/><stop offset=".477" stop-color="#7596f3"/><stop offset=".48" stop-color="#7597f3"/><stop offset=".484" stop-color="#7597f3"/><stop offset=".488" stop-color="#7598f3"/><stop offset=".492" stop-color="#7499f3"/><stop offset=".496" stop-color="#7499f3"/><stop offset=".5" stop-color="#749af2"/><stop offset=".504" stop-color="#749af2"/><stop offset=".508" stop-color="#749bf2"/><stop offset=".512" stop-color="#739bf2"/><stop offset=".516" stop-color="#739cf2"/><stop offset=".52" stop-color="#739cf2"/><stop offset=".523" stop-color="#739df2"/><stop offset=".527" stop-color="#739ef2"/><stop offset=".531" stop-color="#729ef2"/><stop offset=".535" stop-color="#729ff2"/><stop offset=".539" stop-color="#729ff1"/><stop offset=".543" stop-color="#72a0f1"/><stop offset=".547" stop-color="#72a0f1"/><stop offset=".551" stop-color="#72a1f1"/><stop offset=".555" stop-color="#71a1f1"/><stop offset=".559" stop-color="#71a2f1"/><stop offset=".563" stop-color="#71a3f1"/><stop offset=".566" stop-color="#71a3f1"/><stop offset=".57" stop-color="#71a4f1"/><stop offset=".574" stop-color="#70a4f1"/><stop offset=".578" stop-color="#70a5f1"/><stop offset=".582" stop-color="#70a5f0"/><stop offset=".586" stop-color="#70a6f0"/><stop offset=".59" stop-color="#70a7f0"/><stop offset=".594" stop-color="#6fa7f0"/><stop offset=".598" stop-color="#6fa8f0"/><stop offset=".602" stop-color="#6fa8f0"/><stop offset=".605" stop-color="#6fa9f0"/><stop offset=".609" stop-color="#6fa9f0"/><stop offset=".613" stop-color="#6faaf0"/><stop offset=".617" stop-color="#6eaaf0"/><stop offset=".621" stop-color="#6eabef"/><stop offset=".625" stop-color="#6eacef"/><stop offset=".629" stop-color="#6eacef"/><stop offset=".633" stop-color="#6eadef"/><stop offset=".637" stop-color="#6dadef"/><stop offset=".641" stop-color="#6daeef"/><stop offset=".645" stop-color="#6daeef"/><stop offset=".648" stop-color="#6dafef"/><stop offset=".652" stop-color="#6db0ef"/><stop offset=".656" stop-color="#6cb0ef"/><stop offset=".66" stop-color="#6cb1ee"/><stop offset=".664" stop-color="#6cb1ee"/><stop offset=".668" stop-color="#6cb2ee"/><stop offset=".672" stop-color="#6cb2ee"/><stop offset=".676" stop-color="#6bb3ee"/><stop offset=".68" stop-color="#6bb3ee"/><stop offset=".684" stop-color="#6bb4ee"/><stop offset=".688" stop-color="#6bb5ee"/><stop offset=".691" stop-color="#6bb5ee"/><stop offset=".695" stop-color="#6bb6ee"/><stop offset=".699" stop-color="#6ab6ed"/><stop offset=".703" stop-color="#6ab7ed"/><stop offset=".707" stop-color="#6ab7ed"/><stop offset=".711" stop-color="#6ab8ed"/><stop offset=".715" stop-color="#6ab9ed"/><stop offset=".719" stop-color="#69b9ed"/><stop offset=".723" stop-color="#69baed"/><stop offset=".727" stop-color="#69baed"/><stop offset=".73" stop-color="#69bbed"/><stop offset=".734" stop-color="#69bbed"/><stop offset=".738" stop-color="#68bcec"/><stop offset=".742" stop-color="#68bcec"/><stop offset=".746" stop-color="#68bdec"/><stop offset=".75" stop-color="#68beec"/><stop offset=".754" stop-color="#68beec"/><stop offset=".758" stop-color="#68bfec"/><stop offset=".762" stop-color="#67bfec"/><stop offset=".766" stop-color="#67c0ec"/><stop offset=".77" stop-color="#67c0ec"/><stop offset=".773" stop-color="#67c1ec"/><stop offset=".777" stop-color="#67c2eb"/><stop offset=".781" stop-color="#66c2eb"/><stop offset=".785" stop-color="#66c3eb"/><stop offset=".789" stop-color="#66c3eb"/><stop offset=".793" stop-color="#66c4eb"/><stop offset=".797" stop-color="#66c4eb"/><stop offset=".801" stop-color="#65c5eb"/><stop offset=".805" stop-color="#65c5eb"/><stop offset=".809" stop-color="#65c6eb"/><stop offset=".813" stop-color="#65c7eb"/><stop offset=".816" stop-color="#65c7eb"/><stop offset=".82" stop-color="#65c8ea"/><stop offset=".824" stop-color="#64c8ea"/><stop offset=".828" stop-color="#64c9ea"/><stop offset=".832" stop-color="#64c9ea"/><stop offset=".836" stop-color="#64caea"/><stop offset=".84" stop-color="#64cbea"/><stop offset=".844" stop-color="#63cbea"/><stop offset=".848" stop-color="#63ccea"/><stop offset=".852" stop-color="#63ccea"/><stop offset=".855" stop-color="#63cdea"/><stop offset=".859" stop-color="#63cde9"/><stop offset=".863" stop-color="#62cee9"/><stop offset=".867" stop-color="#62cee9"/><stop offset=".871" stop-color="#62cfe9"/><stop offset=".875" stop-color="#62d0e9"/><stop offset=".879" stop-color="#62d0e9"/><stop offset=".883" stop-color="#61d1e9"/><stop offset=".887" stop-color="#61d1e9"/><stop offset=".891" stop-color="#61d2e9"/><stop offset=".895" stop-color="#61d2e9"/><stop offset=".898" stop-color="#61d3e8"/><stop offset=".902" stop-color="#61d4e8"/><stop offset=".906" stop-color="#60d4e8"/><stop offset=".91" stop-color="#60d5e8"/><stop offset=".914" stop-color="#60d5e8"/><stop offset=".918" stop-color="#60d6e8"/><stop offset=".922" stop-color="#60d6e8"/><stop offset=".926" stop-color="#5fd7e8"/><stop offset=".93" stop-color="#5fd7e8"/><stop offset=".934" stop-color="#5fd8e8"/><stop offset=".938" stop-color="#5fd9e7"/><stop offset=".941" stop-color="#5fd9e7"/><stop offset=".945" stop-color="#5edae7"/><stop offset=".949" stop-color="#5edae7"/><stop offset=".953" stop-color="#5edbe7"/><stop offset=".957" stop-color="#5edbe7"/><stop offset=".961" stop-color="#5edce7"/><stop offset=".965" stop-color="#5edde7"/><stop offset=".969" stop-color="#5ddde7"/><stop offset=".973" stop-color="#5ddee7"/><stop offset=".977" stop-color="#5ddee6"/><stop offset=".98" stop-color="#5ddfe6"/><stop offset=".984" stop-color="#5ddfe6"/><stop offset=".988" stop-color="#5ce0e6"/><stop offset=".992" stop-color="#5ce0e6"/><stop offset="1" stop-color="#5ce1e6"/></linearGradient><linearGradient id="E" x1="75.204" x2="75.204" y1="120.104" y2="18.436" gradientTransform="matrix(1.89326 0 0 1.89182 151.148 295.729)" gradientUnits="userSpaceOnUse"><stop offset="0" stop-color="#fed2b9"/><stop offset=".25" stop-color="#fed2b9"/><stop offset=".375" stop-color="#fed2b9"/><stop offset=".438" stop-color="#fed2b8"/><stop offset=".441" stop-color="#fed1b7"/><stop offset=".445" stop-color="#fed0b7"/><stop offset=".449" stop-color="#fecfb6"/><stop offset=".453" stop-color="#fecfb5"/><stop offset=".457" stop-color="#feceb4"/><stop offset=".461" stop-color="#fecdb4"/><stop offset=".465" stop-color="#fecdb3"/><stop offset=".469" stop-color="#feccb2"/><stop offset=".473" stop-color="#fecbb2"/><stop offset=".477" stop-color="#fecbb1"/><stop offset=".48" stop-color="#fecab0"/><stop offset=".484" stop-color="#fecab0"/><stop offset=".488" stop-color="#fec9af"/><stop offset=".492" stop-color="#fec8ae"/><stop offset=".496" stop-color="#fec8ad"/><stop offset=".5" stop-color="#fec7ad"/><stop offset=".504" stop-color="#fec6ac"/><stop offset=".508" stop-color="#fec6ab"/><stop offset=".512" stop-color="#fec5ab"/><stop offset=".516" stop-color="#fec4aa"/><stop offset=".52" stop-color="#fec4a9"/><stop offset=".523" stop-color="#fec3a8"/><stop offset=".527" stop-color="#fec2a8"/><stop offset=".531" stop-color="#fec2a7"/><stop offset=".535" stop-color="#fec1a6"/><stop offset=".539" stop-color="#fec0a6"/><stop offset=".543" stop-color="#fec0a5"/><stop offset=".547" stop-color="#febfa4"/><stop offset=".551" stop-color="#febea3"/><stop offset=".555" stop-color="#febea3"/><stop offset=".559" stop-color="#febda2"/><stop offset=".563" stop-color="#febca1"/><stop offset=".566" stop-color="#febca1"/><stop offset=".57" stop-color="#febba0"/><stop offset=".574" stop-color="#febb9f"/><stop offset=".578" stop-color="#feba9f"/><stop offset=".582" stop-color="#feb99e"/><stop offset=".586" stop-color="#feb99d"/><stop offset=".59" stop-color="#feb89c"/><stop offset=".594" stop-color="#feb79c"/><stop offset=".598" stop-color="#feb79b"/><stop offset=".602" stop-color="#feb69a"/><stop offset=".605" stop-color="#ffb59a"/><stop offset=".609" stop-color="#ffb599"/><stop offset=".613" stop-color="#ffb498"/><stop offset=".617" stop-color="#ffb397"/><stop offset=".621" stop-color="#ffb397"/><stop offset=".625" stop-color="#ffb296"/><stop offset=".629" stop-color="#ffb195"/><stop offset=".633" stop-color="#ffb195"/><stop offset=".637" stop-color="#ffb094"/><stop offset=".641" stop-color="#ffaf93"/><stop offset=".645" stop-color="#ffaf92"/><stop offset=".648" stop-color="#ffae92"/><stop offset=".652" stop-color="#ffad91"/><stop offset=".656" stop-color="#ffad90"/><stop offset=".66" stop-color="#ffac90"/><stop offset=".664" stop-color="#ffac8f"/><stop offset=".668" stop-color="#ffab8e"/><stop offset=".672" stop-color="#ffaa8e"/><stop offset=".676" stop-color="#ffaa8d"/><stop offset=".68" stop-color="#ffa98c"/><stop offset=".684" stop-color="#ffa88b"/><stop offset=".688" stop-color="#ffa88b"/><stop offset=".691" stop-color="#ffa78a"/><stop offset=".695" stop-color="#ffa689"/><stop offset=".699" stop-color="#ffa689"/><stop offset=".703" stop-color="#ffa588"/><stop offset=".707" stop-color="#ffa487"/><stop offset=".711" stop-color="#ffa486"/><stop offset=".715" stop-color="#ffa386"/><stop offset=".719" stop-color="#ffa285"/><stop offset=".723" stop-color="#ffa284"/><stop offset=".727" stop-color="#ffa184"/><stop offset=".73" stop-color="#ffa083"/><stop offset=".734" stop-color="#ffa082"/><stop offset=".738" stop-color="#ff9f81"/><stop offset=".742" stop-color="#ff9e81"/><stop offset=".746" stop-color="#ff9e80"/><stop offset=".75" stop-color="#ff9d7f"/><stop offset=".754" stop-color="#ff9d7f"/><stop offset=".758" stop-color="#ff9c7e"/><stop offset=".762" stop-color="#ff9b7d"/><stop offset=".766" stop-color="#ff9b7d"/><stop offset=".781" stop-color="#ff9a7c"/><stop offset=".813" stop-color="#ff9a7c"/><stop offset=".875" stop-color="#ff9a7c"/><stop offset="1" stop-color="#ff9a7c"/></linearGradient></defs><g clip-path="url(#a)" transform="translate(2.777 -141.361)"><g clip-path="url(#b)"><path fill="url(#c)" d="m446.043 380.598 452.36 591.765 611.718-467.61-452.36-591.765Zm0 0" style="fill:url(#c)"/></g></g><g clip-path="url(#d)" transform="translate(2.777 -141.361)"><path fill="#b81d25" d="m457.656 296.707 7.942-16.426 4.093 18.586 10.66-5.949-4.593 11.691 18.86-.543-16.548 10 12.817 9.98-17.164-.167 2.992 8.176-8.836-3.668-2 15.168-8.453-12.25-13.875 14.441 4.199-20.101-8.785.167 4.039-7.968-14.04-6.348 16.395-1.824-10.906-15.313 15.926 5.41-.66-8.16zm0 0"/></g><g clip-path="url(#e)" transform="translate(2.777 -141.361)"><path fill="#b81d25" d="m494.867 286.887-6.844-1.317 3.098-9.53-9.77 11.554 6.844 1.312-3.097 9.531zm0 0"/></g><g clip-path="url(#f)" transform="translate(2.777 -141.361)"><path fill="#b81d25" d="m483.578 345.11 1.3-5.485 7.599 2.832-9-8.297-1.301 5.488-7.598-2.832zm0 0"/></g><g clip-path="url(#g)" transform="translate(2.777 -141.361)"><path fill="#b81d25" d="m440.535 285.977 2.672-5.383 7.207 4.773-7.348-10.785-2.671 5.387-7.204-4.774zm0 0"/></g><g clip-path="url(#h)" transform="translate(2.777 -141.361)"><path fill="#b81d25" d="m424.145 330.223 6.257 2.207-4.27 8.53 10.837-9.487-6.258-2.211 4.266-8.532zm0 0"/></g><g clip-path="url(#i)" transform="translate(2.777 -141.361)"><path fill="#b81d25" fill-rule="evenodd" d="M229.738 369.113c-12.832-11.687-32.847-36.488-20.406-69.785 17.617-47.14 35.813-57.367 14.207-80.652 0 0 25.29 10.789 20.184 44.3C236.73 308.77 225 313.97 266.12 345.173c4.43 3.36 11.211 8.82 9.672 15.777-1.695 7.637-15.73 16.711-22.895 18.18-7.765 1.59-14.441-2.063-23.16-10.016m0 0"/></g><g clip-path="url(#j)" transform="translate(2.777 -141.361)"><path fill="#b81d25" fill-rule="evenodd" d="M376.29 369.113c12.831-11.687 32.847-36.488 20.397-69.785-17.62-47.14-35.8-57.367-14.21-80.652 0 0-25.29 10.789-20.172 44.3 6.992 45.794 18.71 50.993-22.41 82.196-4.418 3.36-11.208 8.82-9.66 15.777 1.695 7.637 15.734 16.711 22.894 18.18 7.766 1.59 14.43-2.063 23.16-10.016m0 0"/></g><g clip-path="url(#k)" transform="translate(2.777 -141.361)"><path fill="#b81d25" d="m678.36 233.348 10.742-22.215 5.535 25.137 14.422-8.043-6.22 15.812 25.513-.738-22.38 13.527 17.333 13.5-23.215-.23 4.047 11.058-11.95-4.96-2.707 20.515-11.433-16.566-18.766 19.53 5.684-27.183-11.887.223 5.465-10.774-18.988-8.59 22.172-2.464-14.75-20.711 21.543 7.32-.899-11.039zm0 0"/></g><path fill="#b81d25" d="m731.465 78.705-9.258-1.777 4.191-12.89-13.21 15.624 9.253 1.777-4.187 12.891zm-15.266 78.75 1.758-7.422 10.277 3.836-12.176-11.223-1.757 7.422-10.274-3.836zm0 0"/><g clip-path="url(#l)" transform="translate(2.777 -141.361)"><path fill="#b81d25" d="m655.203 218.836 3.613-7.281 9.746 6.457-9.933-14.582-3.617 7.28-9.742-6.456zm0 0"/></g><g clip-path="url(#m)" transform="translate(2.777 -141.361)"><path fill="#b81d25" d="m633.035 278.68 8.461 2.984-5.77 11.543 14.653-12.84-8.465-2.984 5.773-11.543zm0 0"/></g><g clip-path="url(#n)" transform="translate(2.777 -141.361)"><path fill="#b81d25" d="m789.008 279.418 10.742-22.219 5.531 25.14 14.422-8.046-6.215 15.816 25.508-.738-22.379 13.527 17.332 13.497-23.215-.227 4.047 11.055-11.945-4.961-2.707 20.515-11.434-16.566-18.765 19.531 5.68-27.183-11.887.226 5.465-10.777-18.989-8.59 22.176-2.465-14.754-20.707 21.543 7.317-.894-11.04zm0 0"/></g><g clip-path="url(#o)" transform="translate(2.777 -141.361)"><path fill="#b81d25" d="m839.332 266.133-9.258-1.778 4.192-12.886-13.211 15.62 9.258 1.782-4.192 12.887zm0 0"/></g><path fill="#b81d25" d="m826.844 203.521 1.761-7.421 10.274 3.836-12.172-11.223-1.762 7.422-10.273-3.832zm0 0"/><g clip-path="url(#p)" transform="translate(2.777 -141.361)"><path fill="#b81d25" d="m765.852 264.906 3.613-7.281 9.742 6.453-9.934-14.582-3.613 7.281-9.746-6.453zm0 0"/></g><g clip-path="url(#q)" transform="translate(2.777 -141.361)"><path fill="#b81d25" d="m743.68 324.746 8.465 2.988-5.774 11.54 14.652-12.837-8.46-2.988 5.769-11.539zm0 0"/></g><g clip-path="url(#r)" transform="translate(2.777 -141.361)"><path fill="#b81d25" d="m552.945 247.117 10.215-21.12 5.258 23.898 13.71-7.649-5.91 15.035 24.25-.703-21.273 12.86 16.477 12.832-22.07-.22 3.847 10.512-11.36-4.714-2.57 19.5-10.87-15.746-17.837 18.566 5.399-25.844-11.3.215 5.194-10.242-18.05-8.164 21.082-2.344-14.024-19.687 20.477 6.957-.852-10.493zm0 0"/></g><g clip-path="url(#s)" transform="translate(2.777 -141.361)"><path fill="#b81d25" d="m600.79 234.492-8.802-1.691 3.985-12.254-12.559 14.851 8.797 1.692-3.98 12.254zm0 0"/></g><path fill="#b81d25" d="m589.054 167.99 1.672-7.054 9.766 3.644-11.57-10.668-1.672 7.055-9.77-3.645zm0 0"/><g clip-path="url(#t)" transform="translate(2.777 -141.361)"><path fill="#b81d25" d="m530.934 233.32 3.437-6.922 9.262 6.137-9.446-13.863-3.433 6.926-9.266-6.141zm0 0"/></g><g clip-path="url(#u)" transform="translate(2.777 -141.361)"><path fill="#b81d25" d="m509.86 290.207 8.042 2.84-5.484 10.969 13.93-12.2-8.047-2.84 5.488-10.972zm0 0"/></g><g clip-path="url(#v)" transform="translate(2.777 -141.361)"><path fill="#fd9ea3" d="m900.965 373.27 5.14-10.63 2.645 12.024 6.898-3.848-2.972 7.567 12.199-.356-10.703 6.473 8.293 6.457-11.106-.11 1.934 5.29-5.715-2.375-1.293 9.812-5.469-7.922-8.976 9.34 2.719-13-5.688.106 2.613-5.153-9.082-4.11 10.61-1.179-7.059-9.906 10.305 3.5-.43-5.277zm0 0"/></g><g clip-path="url(#w)" transform="translate(2.777 -141.361)"><path fill="#fd9ea3" d="m925.04 366.914-4.43-.851 2.003-6.165-6.316 7.473 4.426.852-2.004 6.164zm0 0"/></g><g clip-path="url(#x)" transform="translate(2.777 -141.361)"><path fill="#fd9ea3" d="m917.734 404.582.844-3.55 4.914 1.835-5.824-5.367-.84 3.55-4.914-1.835zm0 0"/></g><g clip-path="url(#y)" transform="translate(2.777 -141.361)"><path fill="#fd9ea3" d="m889.89 366.328 1.727-3.484 4.66 3.09-4.75-6.977-1.73 3.484-4.66-3.09zm0 0"/></g><g clip-path="url(#z)" transform="translate(2.777 -141.361)"><path fill="#fd9ea3" d="m879.285 394.95 4.047 1.429-2.758 5.52 7.008-6.141-4.05-1.43 2.761-5.52zm0 0"/></g><path fill="#f6efe3" fill-rule="evenodd" d="M1011.605 370.783c10.137-6.125 35.684-13.43 43.781-12.035 3.243.543-12.171 14.766-9.238 17.05 1.746.313 2.485 1.845 3.418 3.083 10.559 15.02 33.059 16.164 46.32 7.305 3.512-2.325 6.91-4.766 9.34-8.348.813-1.2 1.961-2.094 3.242-2.754 5.473-.969 9.122-18.234 14.543-19.281 4.579-.832 10.403 9.902 14.985 12.09 1.203.972 2.426 1.921 3.59 2.89 1.03 1.317.62 2.75.254 4.125-4.504 16.707-7.536 33.723-9.32 50.875-.29 2.79-1.497 5.02-3.438 6.957-3.434 3.371-7.301 6.219-10.54 9.746-1.32 1.453-2.6 2.887-3.765 4.38-.953 1.3-1.129 2.343.441 3.292 10.176 6.301 17.825 15.215 24.91 24.633 1.653 2.133 3.028 2.27 5.008.543 4.563-3.895 8.504-8.41 12.891-12.441 1.266-1.141 2.195-3.141 4.488-1.993.114 1.043.598 1.684 1.63 2.13 8.097 3.468 15.745 7.769 22.831 13.116 2.211 1.708 4.27 3.43 5.922 5.641-.855 5.426-3.437 8.063-8.387 8.297-7.105.46-10.25 5.559-12.832 11.102-1.828 3.835-2.562 8.14-2.156 12.48.078 1.203.445 2.441-.426 3.488-.351 3.18-2.117 4.75-5.168 4.13-12.984-2.598-25.41-6.919-37.64-11.84-3.824-1.497-7.434-3.391-11.086-5.176-1.262-.547-2.406-.66-3.766-.329-8.562 1.977-17.164 2.903-25.957 3.215-13.762.446-27.394-.273-40.945-2.87-4.95-.911-9.434 1.667-13.8 3.41-9.727 3.84-19.766 6.652-29.59 10.077-3.493 1.258-7.024 2.325-10.618 3.297-1.476.446-3.32 1.356-4.234-1.047-1.067-1.378-.23-2.769-.016-4.128 1.047-7.598.445-14.825-4.797-21.008-2.582-3.004-5.633-4.653-9.707-4.805-5.941-.098-10.035-4.184-10.773-10.445 3.57-4.61 8.832-6.703 13.629-9.531 3.902-2.29 7.922-4.536 12.328-5.684 3.726-.984 5.55-3.426 5.863-7.149 2.27-.402 3.066 1.532 4.094 2.852 5.648 7.594 13.047 13.41 20.152 19.453 1.32 1.164 2.371.817 3.246-.523.852-1.203 1.649-2.442 2.465-3.606 6.094-9.125 12.676-17.789 21.684-24.36 1.863-1.335 1.824-2.323.098-3.816-5.61-5.019-11.282-10.039-16.774-15.25-2.387-2.21-3.707-4.847-4.387-7.988-2.718-12.867-4.351-26.004-8.156-38.738-.93-3.176-1.96-6.414-3.008-9.59-.527-1.629-1.109-3.219-.629-4.922.235-.758.293 5.016 0 0m0 0"/><path fill="#a4d6e5" fill-rule="evenodd" d="M1169.097 517.154c-2.738-5.68.02-14.437 2.989-19.398 3.804-6.281 7.457-6.723 13.902-8.664 5.008-1.531 6.871-8.102 10.871-11.184 5.067-3.836 11.375-5.172 17.414-3.043 8.387 2.95 13.356 10.856 14.133 19.805 1.496 16.34-12.852 33.894-24.95 37.691-9.237 2.89-17.859 1.961-25.683-4.554-3.668-2.996-6.66-6.391-8.676-10.653m0 0"/><g clip-path="url(#A)" transform="translate(2.777 -141.361)"><path fill="#a4d6e5" fill-rule="evenodd" d="M958.219 620.996c1.511 2.5 3.492 4.594 4.543 7.324.636 1.707 2.093 2.04 3.804 2.094 11.004.254 18.344 7.848 18.422 18.934.02 4.109.157 8.222-1.476 12.035-7.59 12.25-20.344 15.676-30.926 12.89-7.066-1.843-12.305-6.921-16.598-12.48-5.863-7.734-10.465-16.262-10.152-26.262.23-8.953 4.422-15.812 13.023-19.242 6.157-2.46 11.961-1.164 17.18 2.89.762.579 1.461 1.235 2.18 1.817m0 0"/></g><path fill="#fed2b9" fill-rule="evenodd" d="M1025.39 447.291c-4.465 7-12.093 11.164-12.754 20.078 4.852 4.766 8.504 14.516 12.622 19.668 1.257 1.418 1.941 4.129 4.191 3.547 2.27-.734 1.613-3.078 1.437-5.035-.41-4.285 1.223-4.457 4.29-2.27 2.757 1.782 6.406 5.313 8.832 3.14 2.738-2.538-1.864-5.737-3.16-9.089.968.23 1.628.274 2.308.484 3.203.93 7.375 5.274 9.59 2.383 2.484-3.332-2.973-5.777-4.836-8.605-.29-.446-.426-1.047-.695-1.922 1.261-.207 2.289-.27 3.355-.52 1.652-.597 4.328.485 4.66-2.304.445-2.25-1.707-3.219-3.203-4.364-2.254-1.644-4.64-3.078-7.047-4.511 0 0 11.453 2.11 10.328-.14-2.761-5.599-9.359-8.583-15.222-9.474-1.414-.195-14.09-1.976-14.696-1.066m106.176 0c4.527 7 12.137 11.164 12.777 20.078-4.773 4.766-8.425 14.516-12.64 19.668-1.203 1.418-1.899 4.129-4.113 3.547-2.274-.734-1.668-3.078-1.457-5.035.425-4.285-1.223-4.457-4.293-2.27-2.793 1.782-6.442 5.313-8.832 3.14-2.72-2.538 1.882-5.737 3.164-9.089-.954.23-1.63.274-2.274.484-3.238.93-7.414 5.274-9.687 2.383-2.426-3.332 3.011-5.777 4.875-8.605.293-.446.445-1.047.718-1.922-1.3-.207-2.273-.27-3.359-.52-1.687-.597-4.328.485-4.7-2.304-.445-2.25 1.75-3.219 3.266-4.364 2.215-1.644 4.602-3.078 6.989-4.511 0 0-11.414 2.11-10.29-.14 2.755-5.599 9.356-8.583 15.18-9.474 1.434-.195 14.133-1.976 14.676-1.066m0 0"/><path fill="#a4d6e5" fill-rule="evenodd" d="M1011.605 370.783c4.719 12.422 7.75 25.29 10.059 38.332.969 5.426 1.902 10.856 3.031 16.219 1.027 4.887 5.262 7.21 8.543 10.293 4.676 4.258 9.469 8.41 14.23 12.613 1.165.969.543 1.57-.39 2.153-11.258 7.714-18.985 18.566-26.153 29.746-1.32 2.078-2.269 2.367-4.152.718-5.805-5.136-11.805-10.117-17.262-15.734-2.445-2.406-3.57-6.012-6.695-7.852-8.62-18.039-10.504-36.917-5.574-56.199 3.457-13.605 12.64-23.082 24.363-30.289m150.91 90.113c-1.652.094-2.386 1.395-3.457 2.383-4.875 4.57-9.28 9.653-14.504 13.953-2.152 1.762-2.836 1.414-4.367-.617-6.656-8.957-13.785-17.504-23.043-23.996-.136 0-.215-.078-.293-.23-1.34-1.496-4.793-1.496-4.523-3.43.309-2.098 2.43-4.07 4.078-5.738 3.531-3.567 7.125-7.078 11.027-10.274 3.34-2.73 4.059-6.218 4.407-10.152 1.535-17.656 5.71-34.805 9.746-52.016 14.156 7.461 23.004 19.246 28.226 34.07 2.352 6.704 3.399 13.622 3.496 20.676.235 12.09-2.757 23.43-9.746 33.41-.425.622-.718 1.32-1.047 1.961m0 0"/><path fill="#72c1d3" fill-rule="evenodd" d="M963.812 499.768c4.852 12.734 1.805 25.738-6.816 29.015-8.598 3.215-19.473-4.422-24.363-17.152-4.836-12.73-1.79-25.735 6.832-28.953 8.582-3.274 19.492 4.398 24.347 17.09m227.184 0c-4.856 12.734-1.805 25.738 6.793 29.015 8.601 3.215 19.476-4.422 24.347-17.152 4.856-12.73 1.825-25.735-6.796-28.953-8.602-3.274-19.528 4.398-24.344 17.09m0 0"/><path fill="#a4d6e5" fill-rule="evenodd" d="M1109.922 375.01c-.875 4.379-2.524 8.601-5.98 12.633-15.977 18.8-41.876 19.789-57.274.445-6.485-8.137-6.719-17.305-8.735-27.016-2.465-11.976-6-26.547-4.64-26.547 17.996-.097 62.668-24.937 80.644-25.23 2.582-.02-1.34 31.934-2.695 51.39-.387 5.118-.426 9.844-1.32 14.325m0 0"/><path fill="#fed2b9" fill-rule="evenodd" d="M1044.672 374.076a188 188 0 0 1-24.27-7.597c-10.172-4.106-26.558-14.477-33.156-24.415-.797-1.207-8.465-13.722-6.621-14.171-3.438.875-6.235-.172-9.067-1.473-9.277-5.324-13.359-13.313-12.62-23.852.698-8.875 7.417-16.863 16.773-15.875 3.105.313 4.117-1.12 4.386-3.972.43-6.125.45-12.442 2.196-18.41 1.222-10.137 4.078-19.727 8.117-29.106 1.863-4.187 4.562-6.414 9.34-7.133 22.597-3.468 40.05-15.773 54.398-33.039 1.59-1.879 2.64-5.816 5.746-4.226 2.758 1.34 1.36 4.906.7 7.422-3.266 11.746 24.964-4.532 15.765 1.976 3.414-1.047-11.496 18.488-7.242 16.649 1.687-.68-11.36 3.972-10.348 5.925.969 2.016-.781 3.297-2.406 4.246-.621.274-1.262.621-1.902.91.5-.171 1.007-.367 1.394-.601 8.235-4.031 16.074-7.594 22.774-13.215 5.144-4.223 9.418-9.105 13.414-14.375 1.242-1.672 2.64-4.574 4.972-3.183 2.446 1.476.891 4.246-.117 6.3-2.39 5.68-5.554 11.102-8.484 15.293 3.492-3.781 5.555-9.691 8.406-15.238.387-.887.969-1.43 1.223-2.223.582-1.746 1.222-4.07 3.394-3.894 2.45.23 2.68 2.789 2.817 4.722.484 10.004 12.988-4.722 8.949 5.043 2.098-.082-4.23 23.372-2.797 22.364 11.203-8.313 13.941-18.489 18.133-32.149.547-2.054 35.879 31.102 41.39 47.457 2.215 6.864 2.524 14.11 3.614 21.184.347 2.324.386 4.707 1.105 6.914.426 7.676-1.691 15.059-3.511 22.367-.372 1.434 2.246 14.34-.704 25.578-4.93 18.719-16.832 34.922-34.207 44.262-27.703 14.828-61.097 16.805-91.554 9.535m0 0"/><g clip-path="url(#B)" transform="translate(2.777 -141.361)"><path fill="#572a0e" fill-rule="evenodd" d="M1168.36 436.063c10.792-22.872 8.304-44.883-1.286-65.5-14.015-29.981-50.824-50.075-83.441-52.52-10.676-.797 7.457-16.61 8.02-18.582 1.433-1.746.21-1.902-1.15-1.805-13.976.426-17.937 5.274-26.226 14.942.118-.137-12.367-8.625-14.851-6.496 1.515 2.77 2.969 5.543 4.582 8.39 1.922 3.317 1.277 4.75-2.797 5.719-27.371 5.734-58.824 28.64-70.121 54.73-5.633 12.922-8.758 37.125-3.77 49.141 1.207-10.812 37.239-38.137 45.953-43.043 13.493-7.672 25.645-16.855 33.84-30.402-2.058 16.16-10.62 28.14-24.773 37.324 8.64-.078 15.726-2.402 23.023-4.61-2.734 2.032-5.511 4.184-9.297 7.09 21.57-4.632 36.286-16.742 48.594-34.378-3.96 10.738-8.95 19.476-13.863 28.292 9.32-6.875 14.562-16.511 18.387-28.68 1.922 14.727 0 27.134-6.274 39.223 19.106-8.253 29.59-16.277 34.637-36.472 6.02 2.676 31.062 37.949 35.004 55.078 1.71 7.27 4.64 15.172 5.808 22.559m0 0"/></g><path fill="#ffa492" fill-rule="evenodd" d="M1035.195 318.557c1.125 9.804-7.238 18.855-18.676 20.214-11.492 1.336-21.742-5.62-22.87-15.43-1.087-9.882 7.26-18.952 18.718-20.23 11.453-1.28 21.703 5.657 22.828 15.446m116.231 6.644c-.211 9.922-9.782 17.715-21.254 17.445-11.57-.273-20.735-8.468-20.543-18.335.234-9.922 9.765-17.672 21.316-17.497 11.574.309 20.7 8.465 20.48 18.387m0 0"/><path fill="#572a0e" fill-rule="evenodd" d="M1046.922 300.166c-.157 7.09-3.98 12.766-8.582 12.613-4.637-.074-8.192-5.87-8.036-12.922.157-7.117 4.04-12.773 8.621-12.597 4.622.054 8.153 5.87 7.997 12.906m64.414.348c-.153 7.015-4.035 12.71-8.617 12.593-4.582-.152-8.192-5.945-8-13.02.156-7.108 4.019-12.694 8.582-12.593 4.64.152 8.21 5.887 8.035 13.02m0 0"/><path fill="#fed2b9" fill-rule="evenodd" d="M1166.281 292.74s29.43-7.5 22.21 27.926c0 0-9.417 25.152-26.366 11.105"/><path fill="#572a0e" d="M1030.539 271.756a1.205 1.205 0 0 1-.809-2.098c3.293-2.965 11.246-7.101 17.778-1.535a1.202 1.202 0 1 1-1.563 1.828c-6.57-5.601-14.52 1.422-14.601 1.492-.23.211-.52.313-.805.313m74.508-1.981c-.282 0-.559-.093-.786-.293-.336-.28-8.23-6.968-14.64-1.23a1.21 1.21 0 0 1-1.7-.094 1.2 1.2 0 0 1 .09-1.695c6.399-5.727 14.461-1.715 17.825 1.207a1.2 1.2 0 0 1-.79 2.105m0 0"/><path fill="#e58076" d="M1070.469 337.123c-7.262 0-14.044-3.875-17.57-10.16a2.643 2.643 0 0 1 1.01-3.606 2.655 2.655 0 0 1 3.618 1.012c2.766 4.918 8.258 7.828 14.016 7.418 5.02-.387 9.46-3.273 11.87-7.726a2.657 2.657 0 0 1 3.598-1.075 2.646 2.646 0 0 1 1.075 3.594 20.03 20.03 0 0 1-16.153 10.492q-.732.052-1.465.051m0 0"/><path fill="#f6efe3" fill-rule="evenodd" d="M238.422 370.564c10.172-6.128 35.683-13.441 43.832-12.046 3.261.543-12.149 14.78-9.243 17.07 1.75.312 2.489 1.844 3.344 3.086 10.637 15.035 33.082 16.18 46.356 7.312 3.535-2.328 6.953-4.77 9.36-8.359.812-1.203 1.937-2.094 3.26-2.758 5.434-.969 9.087-18.25 14.52-19.3 4.582-.837 10.407 9.913 14.989 12.105 1.203.969 2.367 1.918 3.609 2.89 1.008 1.317.586 2.754.195 4.13-4.465 16.722-7.492 33.753-9.281 50.921-.27 2.793-1.512 5.024-3.453 6.965-3.414 3.375-7.297 6.227-10.563 9.758a99 99 0 0 0-3.726 4.383c-.969 1.3-1.125 2.347.43 3.3 10.171 6.305 17.859 15.227 24.925 24.653 1.672 2.133 2.989 2.27 4.973.543 4.578-3.899 8.535-8.418 12.965-12.453 1.164-1.145 2.176-3.145 4.465-2 .078 1.047.547 1.687 1.593 2.132 8.157 3.473 15.762 7.782 22.868 13.133 2.175 1.707 4.273 3.434 5.863 5.645-.813 5.433-3.414 8.07-8.344 8.305-7.105.468-10.215 5.566-12.851 11.113-1.868 3.844-2.567 8.148-2.176 12.496.117 1.2.508 2.441-.39 3.488-.348 3.184-2.134 4.754-5.2 4.133-12.93-2.602-25.395-6.926-37.664-11.852-3.727-1.492-7.375-3.394-11.027-5.18-1.282-.542-2.368-.66-3.762-.327-8.547 1.98-17.164 2.906-25.938 3.218-13.785.45-27.414-.27-41-2.87-4.968-.91-9.36 1.667-13.785 3.413-9.707 3.844-19.762 6.657-29.547 10.09-3.531 1.258-7.066 2.324-10.675 3.297-1.477.445-3.301 1.356-4.196-1.05-1.086-1.376-.234-2.774-.039-4.13 1.05-7.605.469-14.84-4.773-21.027-2.563-3.008-5.668-4.656-9.668-4.812-5.98-.098-10.055-4.192-10.793-10.454 3.531-4.617 8.855-6.71 13.629-9.543 3.843-2.293 7.882-4.539 12.308-5.683 3.727-.992 5.512-3.434 5.824-7.16 2.325-.407 3.063 1.53 4.153 2.851 5.629 7.606 12.969 13.426 20.152 19.477 1.32 1.16 2.328.812 3.262-.524.777-1.203 1.59-2.449 2.367-3.609 6.098-9.137 12.738-17.809 21.707-24.387 1.86-1.34 1.86-2.328.152-3.82-5.628-5.023-11.296-10.05-16.812-15.27-2.367-2.21-3.727-4.847-4.387-7.992-2.676-12.879-4.308-26.035-8.113-38.777-1.008-3.18-1.941-6.422-3.027-9.606-.555-1.62-1.098-3.21-.668-4.918.23-.757.308 5.024 0 0m0 0"/><path fill="#a4d6e5" fill-rule="evenodd" d="M395.937 517.084c-2.754-5.684.043-14.453 2.992-19.422 3.805-6.281 7.418-6.726 13.903-8.668 4.969-1.535 6.867-8.11 10.91-11.195 4.969-3.84 11.336-5.176 17.394-3.043 8.344 2.945 13.313 10.863 14.09 19.824 1.473 16.356-12.851 33.93-24.925 37.73-9.278 2.887-17.86 1.961-25.704-4.558-3.648-3.004-6.675-6.402-8.66-10.668m-208.07-37.554c1.477 2.5 3.457 4.597 4.543 7.327.66 1.711 2.094 2.04 3.805 2.098 11.023.25 18.289 7.852 18.406 18.953.035 4.11.152 8.223-1.477 12.043-7.574 12.262-20.383 15.695-30.867 12.903-7.144-1.84-12.348-6.926-16.695-12.493-5.824-7.738-10.406-16.273-10.137-26.28.274-8.966 4.469-15.837 13.008-19.27 6.215-2.461 11.996-1.16 17.203 2.89.773.586 1.473 1.246 2.211 1.828m0 0"/><path fill="#fed2b9" fill-rule="evenodd" d="M252.242 447.15c-4.465 7-12.074 11.172-12.734 20.098 4.812 4.773 8.425 14.531 12.656 19.688 1.203 1.418 1.902 4.132 4.117 3.55 2.25-.738 1.629-3.086 1.473-5.047-.465-4.285 1.207-4.46 4.273-2.27 2.797 1.786 6.41 5.317 8.852 3.145 2.718-2.543-1.899-5.742-3.184-9.097.969.23 1.594.273 2.328.48 3.184.938 7.301 5.282 9.594 2.387 2.441-3.336-2.953-5.777-4.816-8.61-.313-.449-.47-1.05-.743-1.925 1.286-.211 2.254-.27 3.344-.52 1.707-.601 4.348.48 4.656-2.312.47-2.246-1.707-3.219-3.222-4.363-2.172-1.649-4.617-3.083-7.028-4.52 0 0 11.493 2.117 10.328-.133-2.714-5.61-9.355-8.594-15.18-9.488-1.472-.188-14.136-1.977-14.714-1.063m106.23 0c4.426 7 12.075 11.172 12.774 20.098-4.852 4.773-8.5 14.531-12.656 19.688-1.243 1.418-1.942 4.132-4.157 3.55-2.289-.738-1.672-3.086-1.511-5.047.504-4.285-1.164-4.46-4.235-2.27-2.758 1.786-6.445 5.317-8.851 3.145-2.72-2.543 1.86-5.742 3.183-9.097-.972.23-1.629.273-2.289.48-3.183.938-7.418 5.282-9.594 2.387-2.484-3.336 2.915-5.777 4.778-8.61.312-.449.465-1.05.738-1.925-1.242-.211-2.293-.27-3.379-.52-1.629-.601-4.304.48-4.617-2.312-.469-2.246 1.668-3.219 3.184-4.363 2.254-1.649 4.617-3.083 7.027-4.52 0 0-11.453 2.117-10.328-.133 2.758-5.61 9.355-8.594 15.262-9.488 1.43-.188 14.05-1.977 14.671-1.063m0 0"/><path fill="#a4d6e5" fill-rule="evenodd" d="M238.422 370.564c4.738 12.434 7.765 25.317 10.093 38.372.97 5.43 1.903 10.863 3.028 16.238 1.011 4.887 5.242 7.21 8.543 10.297 4.699 4.27 9.472 8.418 14.246 12.629 1.09.968.547 1.57-.426 2.152-11.258 7.723-18.945 18.586-26.168 29.777-1.242 2.078-2.254 2.367-4.117.719-5.82-5.14-11.8-10.125-17.277-15.754-2.446-2.402-3.493-6.012-6.715-7.855-8.625-18.063-10.45-36.953-5.516-56.254 3.418-13.617 12.578-23.102 24.309-30.32m150.957 90.203c-1.63.097-2.446 1.394-3.453 2.386-4.895 4.578-9.32 9.66-14.563 13.969-2.176 1.766-2.797 1.414-4.309-.625-6.68-8.96-13.785-17.516-23.066-24.012-.117 0-.191-.078-.309-.234-1.28-1.492-4.816-1.492-4.464-3.434.312-2.093 2.367-4.074 4-5.738 3.574-3.57 7.183-7.082 11.105-10.285 3.3-2.734 3.996-6.227 4.348-10.164 1.515-17.672 5.668-34.84 9.781-52.063 14.098 7.465 22.992 19.262 28.191 34.102 2.368 6.71 3.418 13.637 3.496 20.7.23 12.1-2.722 23.448-9.746 33.444-.39.614-.703 1.317-1.011 1.954m0 0"/><path fill="#72c1d3" fill-rule="evenodd" d="M190.66 499.686c4.855 12.742 1.789 25.757-6.793 29.039-8.621 3.218-19.492-4.422-24.344-17.168-4.894-12.746-1.828-25.766 6.758-28.985 8.617-3.277 19.527 4.407 24.379 17.114m227.14 0c-4.816 12.742-1.785 25.757 6.833 29.039 8.62 3.218 19.492-4.422 24.343-17.168 4.852-12.746 1.825-25.766-6.754-28.985-8.66-3.277-19.57 4.407-24.421 17.114m0 0"/><path fill="#a4d6e5" fill-rule="evenodd" d="M339.836 374.795c-.93 4.383-2.528 8.613-5.98 12.648-15.958 18.817-41.895 19.805-57.31.446-6.44-8.149-6.68-17.32-8.699-27.043-2.484-11.989-6.02-26.575-4.66-26.575 17.977-.097 62.707-24.968 80.684-25.257 2.562-.02-1.36 31.968-2.719 51.445-.387 5.121-.46 9.852-1.316 14.336m0 0"/><g clip-path="url(#C)" transform="translate(2.777 -141.361)"><g clip-path="url(#D)"><path fill="url(#E)" d="M184.934 330.605v192.34h216.851v-192.34Zm0 0" style="fill:url(#E)"/></g></g><g clip-path="url(#F)" transform="translate(2.777 -141.361)"><path fill="#572a0e" fill-rule="evenodd" d="M397.824 436.195c10.828-22.89 8.348-44.93-1.242-65.57-14.059-29.988-50.828-50.125-83.48-52.57-10.637-.774 7.457-16.602 8.078-18.582 1.394-1.75.195-1.903-1.207-1.825-13.98.426-17.899 5.278-26.207 14.957.117-.12-12.387-8.632-14.832-6.503 1.55 2.773 2.953 5.55 4.62 8.402 1.903 3.316 1.243 4.75-2.835 5.723-27.41 5.742-58.82 28.671-70.121 54.8-5.59 12.938-8.774 37.168-3.805 49.176 1.242-10.824 37.234-38.176 46.012-43.082 13.472-7.683 25.586-16.86 33.855-30.437-2.055 16.175-10.68 28.164-24.808 37.363 8.656-.078 15.765-2.406 23.023-4.617-2.758 2.035-5.512 4.187-9.277 7.097 21.55-4.617 36.261-16.761 48.57-34.414-3.922 10.746-8.93 19.496-13.824 28.324 9.238-6.886 14.484-16.527 18.289-28.71 1.98 14.742 0 27.175-6.176 39.261 19.027-8.261 29.55-16.293 34.559-36.508 6.05 2.68 31.101 37.985 35.058 55.133 1.711 7.293 4.621 15.207 5.75 22.582m0 0"/></g><path fill="#ffa492" fill-rule="evenodd" d="M264.707 318.732c1.125 9.817-7.223 18.875-18.715 20.211-11.496 1.36-21.664-5.625-22.832-15.441-1.09-9.89 7.258-18.973 18.715-20.254 11.492-1.277 21.703 5.668 22.832 15.484m116.246 6.633c-.23 9.934-9.785 17.73-21.317 17.461-11.53-.273-20.73-8.457-20.464-18.351.195-9.934 9.746-17.692 21.28-17.496 11.571.308 20.657 8.453 20.5 18.386m0 0"/><path fill="#fed2b9" fill-rule="evenodd" d="M395.785 292.873s29.43-7.508 22.246 27.953c0 0-9.434 25.18-26.437 11.113"/><path fill="#572a0e" fill-rule="evenodd" d="M278.449 301.021c-.156 7.024-3.961 12.665-8.504 12.551-4.582-.078-8.113-5.879-7.957-12.863.152-7.004 4.04-12.629 8.543-12.434 4.578 0 8.113 5.86 7.918 12.746m63.832.349c-.195 6.944-3.996 12.628-8.543 12.472-4.582-.133-8.156-5.88-8-12.883.195-7 4.04-12.59 8.582-12.512 4.586.176 8.078 5.883 7.961 12.922m0 0"/><path fill="#e58076" d="M287.261 336.9c-.421 0-.851-.101-1.246-.316a2.626 2.626 0 0 1-1.066-3.563c3.219-5.953 9.21-9.859 16.027-10.449 7.707-.496 15.106 3.469 18.86 10.11a2.627 2.627 0 0 1-.992 3.586 2.63 2.63 0 0 1-3.586-.997c-2.774-4.898-8.239-7.832-13.883-7.457-4.992.434-9.422 3.317-11.797 7.707a2.63 2.63 0 0 1-2.317 1.38m0 0"/><path fill="#572a0e" d="M269.258 265.979c-4.004 0-6.688-.711-6.926-.778a1.76 1.76 0 0 1-1.227-2.168 1.77 1.77 0 0 1 2.164-1.226c.192.05 11.45 2.957 22.285-4.235a1.767 1.767 0 0 1 2.442.496 1.76 1.76 0 0 1-.496 2.438c-6.688 4.441-13.422 5.473-18.242 5.473m65.468.386c-4.84 0-11.625-1.023-18.34-5.445a1.76 1.76 0 1 1 1.934-2.941c10.938 7.203 22.262 4.261 22.375 4.23a1.77 1.77 0 0 1 2.16 1.242c.254.938-.3 1.903-1.242 2.16-.234.063-2.902.754-6.887.754m0 0"/></svg>