<?xml version="1.0" encoding="UTF-8"?>
<svg xmlns="http://www.w3.org/2000/svg" xmlns:xlink="http://www.w3.org/1999/xlink" width="288pt" height="288pt" viewBox="0 0 288 288">
<defs>
<g>
<g id="glyph-0-0">
<path d="M 0.398438 -3.390625 C 0.398438 -4.203125 0.480469 -4.855469 0.648438 -5.351562 C 0.816406 -5.847656 1.066406 -6.226562 1.394531 -6.496094 C 1.722656 -6.765625 2.140625 -6.898438 2.640625 -6.898438 C 3.007812 -6.898438 3.332031 -6.824219 3.609375 -6.675781 C 3.886719 -6.527344 4.117188 -6.316406 4.296875 -6.035156 C 4.480469 -5.753906 4.621094 -5.414062 4.726562 -5.011719 C 4.828125 -4.613281 4.878906 -4.070312 4.878906 -3.390625 C 4.878906 -2.582031 4.796875 -1.933594 4.632812 -1.4375 C 4.464844 -0.941406 4.21875 -0.558594 3.886719 -0.289062 C 3.558594 -0.0195312 3.140625 0.117188 2.640625 0.117188 C 1.976562 0.117188 1.457031 -0.121094 1.078125 -0.59375 C 0.625 -1.167969 0.398438 -2.097656 0.398438 -3.390625 M 1.265625 -3.390625 C 1.265625 -2.261719 1.398438 -1.511719 1.660156 -1.136719 C 1.925781 -0.761719 2.25 -0.578125 2.640625 -0.578125 C 3.027344 -0.578125 3.351562 -0.765625 3.617188 -1.140625 C 3.878906 -1.515625 4.011719 -2.265625 4.011719 -3.390625 C 4.011719 -4.519531 3.878906 -5.273438 3.617188 -5.644531 C 3.351562 -6.015625 3.023438 -6.203125 2.628906 -6.203125 C 2.242188 -6.203125 1.933594 -6.039062 1.703125 -5.710938 C 1.410156 -5.289062 1.265625 -4.515625 1.265625 -3.390625 Z M 1.265625 -3.390625 "/>
</g>
<g id="glyph-0-1">
<path d="M 0.402344 -1.8125 L 1.246094 -1.925781 C 1.34375 -1.449219 1.507812 -1.105469 1.742188 -0.894531 C 1.972656 -0.683594 2.257812 -0.578125 2.59375 -0.578125 C 2.988281 -0.578125 3.324219 -0.714844 3.597656 -0.988281 C 3.871094 -1.265625 4.007812 -1.605469 4.007812 -2.011719 C 4.007812 -2.398438 3.882812 -2.71875 3.628906 -2.96875 C 3.375 -3.222656 3.054688 -3.347656 2.664062 -3.347656 C 2.503906 -3.347656 2.304688 -3.316406 2.066406 -3.253906 L 2.160156 -3.992188 C 2.21875 -3.988281 2.261719 -3.984375 2.296875 -3.984375 C 2.65625 -3.984375 2.980469 -4.078125 3.265625 -4.265625 C 3.554688 -4.453125 3.699219 -4.742188 3.699219 -5.132812 C 3.699219 -5.441406 3.59375 -5.699219 3.382812 -5.902344 C 3.175781 -6.105469 2.90625 -6.207031 2.574219 -6.207031 C 2.246094 -6.207031 1.972656 -6.101562 1.753906 -5.898438 C 1.535156 -5.691406 1.394531 -5.382812 1.332031 -4.96875 L 0.488281 -5.117188 C 0.589844 -5.683594 0.824219 -6.121094 1.191406 -6.433594 C 1.554688 -6.746094 2.011719 -6.898438 2.554688 -6.898438 C 2.929688 -6.898438 3.273438 -6.820312 3.589844 -6.660156 C 3.90625 -6.496094 4.148438 -6.277344 4.316406 -6 C 4.480469 -5.722656 4.566406 -5.425781 4.566406 -5.113281 C 4.566406 -4.816406 4.484375 -4.546875 4.328125 -4.304688 C 4.167969 -4.058594 3.929688 -3.867188 3.617188 -3.722656 C 4.023438 -3.628906 4.339844 -3.433594 4.566406 -3.136719 C 4.789062 -2.84375 4.902344 -2.472656 4.902344 -2.03125 C 4.902344 -1.429688 4.683594 -0.921875 4.246094 -0.503906 C 3.808594 -0.0859375 3.257812 0.121094 2.585938 0.121094 C 1.984375 0.121094 1.484375 -0.0585938 1.085938 -0.417969 C 0.6875 -0.777344 0.460938 -1.242188 0.402344 -1.8125 Z M 0.402344 -1.8125 "/>
</g>
<g id="glyph-0-2">
<path d="M 4.777344 -5.1875 L 3.9375 -5.125 C 3.863281 -5.453125 3.757812 -5.695312 3.617188 -5.84375 C 3.390625 -6.085938 3.109375 -6.207031 2.773438 -6.207031 C 2.507812 -6.207031 2.269531 -6.132812 2.066406 -5.980469 C 1.800781 -5.789062 1.59375 -5.503906 1.4375 -5.132812 C 1.285156 -4.761719 1.207031 -4.230469 1.199219 -3.542969 C 1.402344 -3.851562 1.652344 -4.082031 1.945312 -4.234375 C 2.238281 -4.382812 2.546875 -4.457031 2.867188 -4.457031 C 3.429688 -4.457031 3.910156 -4.25 4.304688 -3.835938 C 4.699219 -3.421875 4.898438 -2.886719 4.898438 -2.230469 C 4.898438 -1.800781 4.804688 -1.398438 4.621094 -1.027344 C 4.433594 -0.660156 4.179688 -0.375 3.851562 -0.179688 C 3.527344 0.0195312 3.160156 0.117188 2.746094 0.117188 C 2.042969 0.117188 1.46875 -0.140625 1.027344 -0.660156 C 0.582031 -1.175781 0.359375 -2.027344 0.359375 -3.214844 C 0.359375 -4.542969 0.605469 -5.507812 1.097656 -6.113281 C 1.523438 -6.636719 2.101562 -6.898438 2.828125 -6.898438 C 3.367188 -6.898438 3.808594 -6.75 4.15625 -6.445312 C 4.5 -6.140625 4.707031 -5.722656 4.777344 -5.1875 M 1.332031 -2.226562 C 1.332031 -1.9375 1.394531 -1.65625 1.515625 -1.390625 C 1.640625 -1.125 1.8125 -0.925781 2.035156 -0.785156 C 2.257812 -0.644531 2.488281 -0.578125 2.734375 -0.578125 C 3.089844 -0.578125 3.394531 -0.71875 3.652344 -1.007812 C 3.90625 -1.296875 4.035156 -1.6875 4.035156 -2.179688 C 4.035156 -2.65625 3.910156 -3.027344 3.65625 -3.300781 C 3.402344 -3.574219 3.085938 -3.710938 2.699219 -3.710938 C 2.320312 -3.710938 1.996094 -3.574219 1.730469 -3.300781 C 1.464844 -3.027344 1.332031 -2.671875 1.332031 -2.226562 Z M 1.332031 -2.226562 "/>
</g>
<g id="glyph-0-3">
<path d="M 0.523438 -1.589844 L 1.335938 -1.664062 C 1.40625 -1.28125 1.535156 -1.007812 1.730469 -0.835938 C 1.921875 -0.664062 2.171875 -0.578125 2.476562 -0.578125 C 2.734375 -0.578125 2.960938 -0.636719 3.15625 -0.753906 C 3.351562 -0.875 3.511719 -1.03125 3.636719 -1.230469 C 3.761719 -1.429688 3.867188 -1.695312 3.953125 -2.035156 C 4.035156 -2.371094 4.078125 -2.714844 4.078125 -3.066406 C 4.078125 -3.101562 4.078125 -3.160156 4.074219 -3.234375 C 3.90625 -2.964844 3.675781 -2.746094 3.382812 -2.582031 C 3.089844 -2.414062 2.773438 -2.328125 2.433594 -2.328125 C 1.863281 -2.328125 1.382812 -2.535156 0.988281 -2.949219 C 0.59375 -3.359375 0.398438 -3.90625 0.398438 -4.578125 C 0.398438 -5.277344 0.605469 -5.835938 1.015625 -6.261719 C 1.425781 -6.6875 1.941406 -6.898438 2.558594 -6.898438 C 3.007812 -6.898438 3.414062 -6.78125 3.785156 -6.539062 C 4.15625 -6.296875 4.4375 -5.957031 4.628906 -5.511719 C 4.820312 -5.066406 4.917969 -4.421875 4.917969 -3.578125 C 4.917969 -2.699219 4.820312 -2 4.632812 -1.480469 C 4.441406 -0.957031 4.15625 -0.5625 3.78125 -0.289062 C 3.402344 -0.0195312 2.960938 0.117188 2.457031 0.117188 C 1.917969 0.117188 1.480469 -0.03125 1.140625 -0.332031 C 0.796875 -0.628906 0.59375 -1.046875 0.523438 -1.589844 M 3.980469 -4.621094 C 3.980469 -5.105469 3.851562 -5.492188 3.59375 -5.773438 C 3.335938 -6.058594 3.023438 -6.203125 2.664062 -6.203125 C 2.289062 -6.203125 1.960938 -6.046875 1.683594 -5.742188 C 1.40625 -5.4375 1.265625 -5.039062 1.265625 -4.550781 C 1.265625 -4.113281 1.398438 -3.757812 1.660156 -3.484375 C 1.925781 -3.210938 2.25 -3.074219 2.640625 -3.074219 C 3.03125 -3.074219 3.351562 -3.210938 3.601562 -3.484375 C 3.855469 -3.757812 3.980469 -4.136719 3.980469 -4.621094 Z M 3.980469 -4.621094 "/>
</g>
<g id="glyph-0-4">
<path d="M 3.578125 0 L 2.734375 0 L 2.734375 -5.375 C 2.53125 -5.183594 2.261719 -4.988281 1.933594 -4.796875 C 1.605469 -4.601562 1.308594 -4.457031 1.046875 -4.359375 L 1.046875 -5.175781 C 1.515625 -5.398438 1.929688 -5.664062 2.28125 -5.980469 C 2.636719 -6.296875 2.886719 -6.601562 3.03125 -6.898438 L 3.578125 -6.898438 Z M 3.578125 0 "/>
</g>
<g id="glyph-0-5">
<path d="M 4.832031 -0.8125 L 4.832031 0 L 0.289062 0 C 0.285156 -0.203125 0.316406 -0.398438 0.390625 -0.585938 C 0.503906 -0.894531 0.691406 -1.199219 0.945312 -1.5 C 1.199219 -1.800781 1.566406 -2.148438 2.046875 -2.539062 C 2.796875 -3.152344 3.300781 -3.636719 3.5625 -3.996094 C 3.824219 -4.355469 3.957031 -4.691406 3.957031 -5.011719 C 3.957031 -5.34375 3.835938 -5.628906 3.597656 -5.855469 C 3.359375 -6.085938 3.046875 -6.203125 2.664062 -6.203125 C 2.257812 -6.203125 1.929688 -6.078125 1.6875 -5.835938 C 1.445312 -5.59375 1.320312 -5.253906 1.316406 -4.824219 L 0.449219 -4.914062 C 0.507812 -5.558594 0.734375 -6.050781 1.121094 -6.390625 C 1.507812 -6.730469 2.027344 -6.898438 2.679688 -6.898438 C 3.339844 -6.898438 3.863281 -6.71875 4.246094 -6.351562 C 4.632812 -5.984375 4.824219 -5.53125 4.824219 -4.992188 C 4.824219 -4.71875 4.765625 -4.445312 4.65625 -4.179688 C 4.542969 -3.914062 4.355469 -3.636719 4.09375 -3.34375 C 3.832031 -3.046875 3.398438 -2.644531 2.792969 -2.132812 C 2.289062 -1.707031 1.960938 -1.417969 1.820312 -1.269531 C 1.675781 -1.117188 1.554688 -0.964844 1.460938 -0.8125 Z M 4.832031 -0.8125 "/>
</g>
<g id="glyph-0-6">
<path d="M 3.101562 0 L 3.101562 -1.644531 L 0.121094 -1.644531 L 0.121094 -2.417969 L 3.257812 -6.871094 L 3.945312 -6.871094 L 3.945312 -2.417969 L 4.875 -2.417969 L 4.875 -1.644531 L 3.945312 -1.644531 L 3.945312 0 L 3.101562 0 M 3.101562 -2.417969 L 3.101562 -5.515625 L 0.953125 -2.417969 Z M 3.101562 -2.417969 "/>
</g>
<g id="glyph-0-7">
<path d="M 0.398438 -1.800781 L 1.285156 -1.875 C 1.351562 -1.445312 1.503906 -1.121094 1.742188 -0.902344 C 1.980469 -0.683594 2.269531 -0.578125 2.605469 -0.578125 C 3.011719 -0.578125 3.355469 -0.730469 3.636719 -1.035156 C 3.917969 -1.34375 4.058594 -1.75 4.058594 -2.253906 C 4.058594 -2.734375 3.925781 -3.117188 3.652344 -3.394531 C 3.382812 -3.671875 3.03125 -3.8125 2.59375 -3.8125 C 2.320312 -3.8125 2.074219 -3.75 1.855469 -3.625 C 1.636719 -3.503906 1.464844 -3.34375 1.339844 -3.144531 L 0.546875 -3.25 L 1.214844 -6.777344 L 4.632812 -6.777344 L 4.632812 -5.972656 L 1.890625 -5.972656 L 1.519531 -4.125 C 1.929688 -4.414062 2.363281 -4.554688 2.816406 -4.554688 C 3.417969 -4.554688 3.921875 -4.347656 4.335938 -3.933594 C 4.75 -3.515625 4.953125 -2.984375 4.953125 -2.328125 C 4.953125 -1.707031 4.773438 -1.171875 4.410156 -0.71875 C 3.96875 -0.160156 3.367188 0.117188 2.605469 0.117188 C 1.980469 0.117188 1.472656 -0.0585938 1.074219 -0.40625 C 0.679688 -0.757812 0.453125 -1.222656 0.398438 -1.800781 Z M 0.398438 -1.800781 "/>
</g>
<g id="glyph-1-0">
<path d="M 0 -1.117188 L -8.589844 -1.121094 L -8.589844 -2.257812 L 0 -2.257812 Z M 0 -1.117188 "/>
</g>
<g id="glyph-1-1">
<path d="M 0 -0.789062 L -6.222656 -0.792969 L -6.222656 -1.742188 L -5.335938 -1.742188 C -6.019531 -2.195312 -6.363281 -2.855469 -6.363281 -3.722656 C -6.363281 -4.09375 -6.296875 -4.441406 -6.160156 -4.753906 C -6.027344 -5.070312 -5.847656 -5.304688 -5.632812 -5.460938 C -5.410156 -5.617188 -5.152344 -5.726562 -4.851562 -5.789062 C -4.65625 -5.828125 -4.3125 -5.847656 -3.824219 -5.847656 L 0 -5.847656 L 0 -4.792969 L -3.785156 -4.792969 C -4.214844 -4.792969 -4.535156 -4.75 -4.75 -4.671875 C -4.960938 -4.585938 -5.132812 -4.441406 -5.257812 -4.234375 C -5.386719 -4.023438 -5.449219 -3.78125 -5.449219 -3.5 C -5.449219 -3.046875 -5.304688 -2.660156 -5.023438 -2.335938 C -4.734375 -2.007812 -4.195312 -1.847656 -3.398438 -1.847656 L 0 -1.84375 Z M 0 -0.789062 "/>
</g>
<g id="glyph-1-2">
<path d="M -2.277344 -4.851562 L -2.144531 -5.890625 C -1.429688 -5.773438 -0.871094 -5.484375 -0.464844 -5.019531 C -0.0625 -4.550781 0.140625 -3.976562 0.140625 -3.296875 C 0.140625 -2.445312 -0.136719 -1.761719 -0.695312 -1.246094 C -1.25 -0.726562 -2.046875 -0.46875 -3.085938 -0.46875 C -3.757812 -0.46875 -4.347656 -0.582031 -4.851562 -0.804688 C -5.355469 -1.027344 -5.734375 -1.363281 -5.984375 -1.820312 C -6.238281 -2.273438 -6.363281 -2.769531 -6.363281 -3.304688 C -6.363281 -3.980469 -6.191406 -4.53125 -5.851562 -4.960938 C -5.507812 -5.390625 -5.023438 -5.667969 -4.394531 -5.789062 L -4.234375 -4.765625 C -4.652344 -4.664062 -4.96875 -4.492188 -5.179688 -4.246094 C -5.390625 -3.996094 -5.496094 -3.699219 -5.496094 -3.347656 C -5.496094 -2.8125 -5.304688 -2.382812 -4.925781 -2.050781 C -4.542969 -1.71875 -3.941406 -1.554688 -3.117188 -1.554688 C -2.28125 -1.554688 -1.671875 -1.710938 -1.292969 -2.03125 C -0.917969 -2.351562 -0.726562 -2.769531 -0.726562 -3.289062 C -0.726562 -3.699219 -0.851562 -4.046875 -1.105469 -4.324219 C -1.359375 -4.601562 -1.75 -4.777344 -2.277344 -4.851562 Z M -2.277344 -4.851562 "/>
</g>
<g id="glyph-1-3">
<path d="M -7.375 -0.796875 L -8.589844 -0.796875 L -8.589844 -1.851562 L -7.375 -1.851562 L -7.375 -0.796875 M 0 -0.796875 L -6.222656 -0.796875 L -6.222656 -1.851562 L 0 -1.851562 Z M 0 -0.796875 "/>
</g>
<g id="glyph-1-4">
<path d="M 0 -4.828125 L -0.785156 -4.828125 C -0.167969 -4.433594 0.140625 -3.851562 0.140625 -3.085938 C 0.140625 -2.589844 0.00390625 -2.136719 -0.269531 -1.71875 C -0.542969 -1.304688 -0.925781 -0.980469 -1.414062 -0.753906 C -1.90625 -0.523438 -2.46875 -0.410156 -3.105469 -0.410156 C -3.726562 -0.410156 -4.289062 -0.511719 -4.796875 -0.722656 C -5.300781 -0.925781 -5.6875 -1.238281 -5.960938 -1.652344 C -6.226562 -2.066406 -6.363281 -2.527344 -6.363281 -3.042969 C -6.363281 -3.417969 -6.285156 -3.75 -6.125 -4.042969 C -5.96875 -4.335938 -5.761719 -4.574219 -5.507812 -4.757812 L -8.589844 -4.757812 L -8.589844 -5.808594 L 0 -5.804688 L 0 -4.828125 M -3.105469 -1.496094 C -2.308594 -1.492188 -1.710938 -1.660156 -1.316406 -2 C -0.921875 -2.332031 -0.726562 -2.730469 -0.726562 -3.1875 C -0.726562 -3.648438 -0.914062 -4.039062 -1.292969 -4.363281 C -1.667969 -4.683594 -2.242188 -4.84375 -3.015625 -4.84375 C -3.867188 -4.84375 -4.492188 -4.679688 -4.890625 -4.351562 C -5.289062 -4.023438 -5.492188 -3.621094 -5.492188 -3.140625 C -5.492188 -2.671875 -5.296875 -2.28125 -4.914062 -1.964844 C -4.53125 -1.652344 -3.929688 -1.492188 -3.105469 -1.496094 Z M -3.105469 -1.496094 "/>
</g>
<g id="glyph-1-5">
<path d="M -2.003906 -5.050781 L -1.867188 -6.140625 C -1.230469 -5.96875 -0.738281 -5.648438 -0.386719 -5.1875 C -0.0351562 -4.71875 0.140625 -4.125 0.140625 -3.40625 C 0.140625 -2.492188 -0.140625 -1.773438 -0.699219 -1.238281 C -1.261719 -0.707031 -2.046875 -0.441406 -3.058594 -0.441406 C -4.105469 -0.441406 -4.917969 -0.710938 -5.496094 -1.25 C -6.074219 -1.789062 -6.363281 -2.484375 -6.363281 -3.347656 C -6.363281 -4.179688 -6.078125 -4.859375 -5.515625 -5.382812 C -4.945312 -5.914062 -4.148438 -6.175781 -3.121094 -6.175781 C -3.058594 -6.175781 -2.964844 -6.171875 -2.839844 -6.171875 L -2.84375 -1.53125 C -2.15625 -1.566406 -1.632812 -1.761719 -1.269531 -2.109375 C -0.90625 -2.457031 -0.726562 -2.890625 -0.726562 -3.410156 C -0.726562 -3.796875 -0.828125 -4.125 -1.03125 -4.398438 C -1.234375 -4.671875 -1.558594 -4.890625 -2.003906 -5.050781 M -3.710938 -1.589844 L -3.707031 -5.0625 C -4.230469 -5.015625 -4.625 -4.882812 -4.886719 -4.664062 C -5.292969 -4.328125 -5.496094 -3.890625 -5.496094 -3.359375 C -5.496094 -2.871094 -5.332031 -2.464844 -5.007812 -2.136719 C -4.683594 -1.804688 -4.25 -1.625 -3.710938 -1.589844 Z M -3.710938 -1.589844 "/>
</g>
<g id="glyph-1-6">
<path d="M 0 -0.878906 L -8.589844 -0.878906 L -8.589844 -2.015625 L -1.011719 -2.015625 L -1.011719 -6.246094 L 0 -6.246094 Z M 0 -0.878906 "/>
</g>
<g id="glyph-1-7">
<path d="M -3.109375 -0.398438 C -4.261719 -0.398438 -5.117188 -0.71875 -5.671875 -1.359375 C -6.132812 -1.894531 -6.363281 -2.546875 -6.363281 -3.316406 C -6.363281 -4.171875 -6.082031 -4.871094 -5.523438 -5.414062 C -4.960938 -5.957031 -4.1875 -6.226562 -3.199219 -6.226562 C -2.398438 -6.226562 -1.769531 -6.109375 -1.308594 -5.867188 C -0.851562 -5.628906 -0.492188 -5.277344 -0.238281 -4.820312 C 0.0117188 -4.359375 0.140625 -3.859375 0.140625 -3.316406 C 0.140625 -2.445312 -0.140625 -1.742188 -0.695312 -1.203125 C -1.253906 -0.667969 -2.058594 -0.398438 -3.109375 -0.398438 M -3.109375 -1.484375 C -2.3125 -1.484375 -1.71875 -1.65625 -1.320312 -2.003906 C -0.925781 -2.351562 -0.726562 -2.789062 -0.726562 -3.316406 C -0.726562 -3.839844 -0.925781 -4.273438 -1.324219 -4.625 C -1.722656 -4.96875 -2.328125 -5.144531 -3.144531 -5.144531 C -3.914062 -5.144531 -4.5 -4.96875 -4.894531 -4.621094 C -5.292969 -4.269531 -5.492188 -3.835938 -5.492188 -3.316406 C -5.492188 -2.789062 -5.292969 -2.351562 -4.898438 -2.003906 C -4.503906 -1.65625 -3.90625 -1.484375 -3.109375 -1.484375 Z M -3.109375 -1.484375 "/>
</g>
<g id="glyph-1-8">
<path d="M 0.515625 -0.597656 L 0.667969 -1.625 C 0.984375 -1.664062 1.214844 -1.785156 1.359375 -1.980469 C 1.554688 -2.242188 1.652344 -2.597656 1.652344 -3.054688 C 1.652344 -3.539062 1.554688 -3.917969 1.359375 -4.183594 C 1.164062 -4.449219 0.890625 -4.628906 0.539062 -4.722656 C 0.324219 -4.777344 -0.128906 -4.800781 -0.8125 -4.796875 C -0.273438 -4.335938 0 -3.761719 0 -3.078125 C 0 -2.21875 -0.308594 -1.558594 -0.925781 -1.089844 C -1.542969 -0.621094 -2.28125 -0.386719 -3.148438 -0.386719 C -3.738281 -0.386719 -4.289062 -0.492188 -4.789062 -0.710938 C -5.292969 -0.921875 -5.679688 -1.234375 -5.953125 -1.644531 C -6.226562 -2.050781 -6.363281 -2.53125 -6.363281 -3.082031 C -6.363281 -3.816406 -6.066406 -4.421875 -5.472656 -4.898438 L -6.222656 -4.898438 L -6.222656 -5.871094 L -0.84375 -5.871094 C 0.125 -5.871094 0.8125 -5.773438 1.214844 -5.574219 C 1.621094 -5.378906 1.941406 -5.066406 2.175781 -4.636719 C 2.410156 -4.210938 2.527344 -3.683594 2.523438 -3.058594 C 2.523438 -2.316406 2.359375 -1.714844 2.023438 -1.257812 C 1.691406 -0.800781 1.1875 -0.582031 0.515625 -0.597656 M -3.222656 -1.472656 C -2.40625 -1.472656 -1.8125 -1.632812 -1.433594 -1.957031 C -1.058594 -2.28125 -0.871094 -2.6875 -0.871094 -3.175781 C -0.871094 -3.660156 -1.058594 -4.066406 -1.433594 -4.394531 C -1.804688 -4.722656 -2.390625 -4.886719 -3.1875 -4.886719 C -3.949219 -4.886719 -4.523438 -4.71875 -4.910156 -4.378906 C -5.296875 -4.042969 -5.492188 -3.632812 -5.492188 -3.160156 C -5.492188 -2.691406 -5.300781 -2.292969 -4.917969 -1.964844 C -4.539062 -1.636719 -3.972656 -1.472656 -3.222656 -1.472656 Z M -3.222656 -1.472656 "/>
</g>
<g id="glyph-1-9">
</g>
<g id="glyph-2-0">
<path d="M 0.925781 0 L 0.925781 -8.589844 L 3.882812 -8.589844 C 4.550781 -8.589844 5.0625 -8.546875 5.414062 -8.46875 C 5.90625 -8.351562 6.324219 -8.148438 6.671875 -7.851562 C 7.125 -7.46875 7.464844 -6.980469 7.691406 -6.382812 C 7.914062 -5.789062 8.027344 -5.105469 8.027344 -4.34375 C 8.027344 -3.6875 7.953125 -3.109375 7.796875 -2.609375 C 7.648438 -2.101562 7.449219 -1.6875 7.210938 -1.355469 C 6.972656 -1.027344 6.714844 -0.765625 6.429688 -0.578125 C 6.148438 -0.386719 5.804688 -0.242188 5.40625 -0.148438 C 5.003906 -0.0507812 4.542969 0 4.023438 0 L 0.925781 0 M 2.0625 -1.015625 L 3.898438 -1.015625 C 4.460938 -1.015625 4.90625 -1.066406 5.230469 -1.171875 C 5.550781 -1.277344 5.808594 -1.425781 6 -1.617188 C 6.269531 -1.886719 6.480469 -2.25 6.628906 -2.703125 C 6.78125 -3.160156 6.855469 -3.710938 6.855469 -4.359375 C 6.855469 -5.257812 6.707031 -5.949219 6.414062 -6.429688 C 6.117188 -6.914062 5.757812 -7.234375 5.335938 -7.398438 C 5.03125 -7.515625 4.542969 -7.578125 3.867188 -7.578125 L 2.0625 -7.578125 Z M 2.0625 -1.015625 "/>
</g>
<g id="glyph-2-1">
<path d="M 4.851562 -0.765625 C 4.460938 -0.433594 4.085938 -0.199219 3.722656 -0.0625 C 3.363281 0.0703125 2.972656 0.140625 2.5625 0.140625 C 1.875 0.140625 1.351562 -0.0273438 0.984375 -0.359375 C 0.617188 -0.695312 0.433594 -1.121094 0.433594 -1.640625 C 0.433594 -1.945312 0.503906 -2.222656 0.640625 -2.476562 C 0.78125 -2.726562 0.960938 -2.929688 1.1875 -3.082031 C 1.410156 -3.234375 1.664062 -3.347656 1.945312 -3.429688 C 2.152344 -3.480469 2.464844 -3.535156 2.882812 -3.585938 C 3.734375 -3.6875 4.359375 -3.808594 4.765625 -3.949219 C 4.765625 -4.09375 4.769531 -4.183594 4.769531 -4.226562 C 4.769531 -4.652344 4.671875 -4.957031 4.46875 -5.132812 C 4.203125 -5.371094 3.800781 -5.492188 3.269531 -5.492188 C 2.773438 -5.492188 2.40625 -5.402344 2.171875 -5.230469 C 1.933594 -5.054688 1.757812 -4.746094 1.648438 -4.304688 L 0.617188 -4.445312 C 0.707031 -4.886719 0.863281 -5.246094 1.078125 -5.515625 C 1.292969 -5.789062 1.601562 -5.996094 2.007812 -6.144531 C 2.414062 -6.289062 2.886719 -6.363281 3.421875 -6.363281 C 3.953125 -6.363281 4.382812 -6.300781 4.71875 -6.175781 C 5.046875 -6.050781 5.292969 -5.894531 5.449219 -5.703125 C 5.605469 -5.515625 5.714844 -5.273438 5.777344 -4.984375 C 5.8125 -4.804688 5.828125 -4.484375 5.828125 -4.015625 L 5.828125 -2.609375 C 5.828125 -1.628906 5.851562 -1.007812 5.898438 -0.746094 C 5.941406 -0.488281 6.03125 -0.238281 6.164062 0 L 5.0625 0 C 4.953125 -0.21875 4.882812 -0.476562 4.851562 -0.765625 M 4.765625 -3.125 C 4.378906 -2.964844 3.804688 -2.832031 3.039062 -2.726562 C 2.605469 -2.660156 2.300781 -2.589844 2.121094 -2.515625 C 1.941406 -2.433594 1.800781 -2.320312 1.703125 -2.171875 C 1.605469 -2.019531 1.558594 -1.851562 1.558594 -1.671875 C 1.558594 -1.386719 1.664062 -1.152344 1.878906 -0.96875 C 2.089844 -0.78125 2.402344 -0.683594 2.8125 -0.6875 C 3.21875 -0.683594 3.578125 -0.773438 3.898438 -0.953125 C 4.210938 -1.128906 4.445312 -1.371094 4.59375 -1.679688 C 4.707031 -1.917969 4.761719 -2.269531 4.765625 -2.734375 Z M 4.765625 -3.125 "/>
</g>
<g id="glyph-2-2">
<path d="M 0.742188 2.398438 L 0.625 1.40625 C 0.855469 1.46875 1.058594 1.5 1.230469 1.5 C 1.464844 1.5 1.652344 1.460938 1.792969 1.382812 C 1.933594 1.304688 2.046875 1.195312 2.140625 1.054688 C 2.203125 0.949219 2.3125 0.6875 2.460938 0.269531 C 2.480469 0.210938 2.511719 0.125 2.554688 0.0117188 L 0.195312 -6.222656 L 1.328125 -6.222656 L 2.625 -2.617188 C 2.792969 -2.164062 2.941406 -1.679688 3.078125 -1.179688 C 3.195312 -1.660156 3.339844 -2.132812 3.507812 -2.59375 L 4.839844 -6.222656 L 5.894531 -6.222656 L 3.527344 0.105469 C 3.273438 0.789062 3.078125 1.257812 2.9375 1.515625 C 2.746094 1.863281 2.53125 2.121094 2.289062 2.28125 C 2.046875 2.445312 1.757812 2.523438 1.421875 2.523438 C 1.21875 2.523438 0.992188 2.480469 0.742188 2.398438 Z M 0.742188 2.398438 "/>
</g>
</g>
<clipPath id="clip-0">
<path clip-rule="nonzero" d="M 5.976562 5.976562 L 282.019531 5.976562 L 282.019531 135.945312 L 5.976562 135.945312 Z M 5.976562 5.976562 "/>
</clipPath>
<clipPath id="clip-1">
<path clip-rule="nonzero" d="M 5.976562 135.949219 L 282.019531 135.949219 L 282.019531 282.023438 L 5.976562 282.023438 Z M 5.976562 135.949219 "/>
</clipPath>
<clipPath id="clip-2">
<path clip-rule="nonzero" d="M 52.445312 11.957031 L 276.046875 11.957031 L 276.046875 110.710938 L 52.445312 110.710938 Z M 52.445312 11.957031 "/>
</clipPath>
<clipPath id="clip-3">
<path clip-rule="nonzero" d="M 52.445312 105 L 276.046875 105 L 276.046875 107 L 52.445312 107 Z M 52.445312 105 "/>
</clipPath>
<clipPath id="clip-4">
<path clip-rule="nonzero" d="M 52.445312 80 L 276.046875 80 L 276.046875 82 L 52.445312 82 Z M 52.445312 80 "/>
</clipPath>
<clipPath id="clip-5">
<path clip-rule="nonzero" d="M 52.445312 55 L 276.046875 55 L 276.046875 57 L 52.445312 57 Z M 52.445312 55 "/>
</clipPath>
<clipPath id="clip-6">
<path clip-rule="nonzero" d="M 52.445312 30 L 276.046875 30 L 276.046875 32 L 52.445312 32 Z M 52.445312 30 "/>
</clipPath>
<clipPath id="clip-7">
<path clip-rule="nonzero" d="M 57 11.957031 L 59 11.957031 L 59 110.710938 L 57 110.710938 Z M 57 11.957031 "/>
</clipPath>
<clipPath id="clip-8">
<path clip-rule="nonzero" d="M 100 11.957031 L 102 11.957031 L 102 110.710938 L 100 110.710938 Z M 100 11.957031 "/>
</clipPath>
<clipPath id="clip-9">
<path clip-rule="nonzero" d="M 142 11.957031 L 144 11.957031 L 144 110.710938 L 142 110.710938 Z M 142 11.957031 "/>
</clipPath>
<clipPath id="clip-10">
<path clip-rule="nonzero" d="M 184 11.957031 L 186 11.957031 L 186 110.710938 L 184 110.710938 Z M 184 11.957031 "/>
</clipPath>
<clipPath id="clip-11">
<path clip-rule="nonzero" d="M 227 11.957031 L 229 11.957031 L 229 110.710938 L 227 110.710938 Z M 227 11.957031 "/>
</clipPath>
<clipPath id="clip-12">
<path clip-rule="nonzero" d="M 269 11.957031 L 271 11.957031 L 271 110.710938 L 269 110.710938 Z M 269 11.957031 "/>
</clipPath>
<clipPath id="clip-13">
<path clip-rule="nonzero" d="M 52.445312 141.925781 L 276.046875 141.925781 L 276.046875 240.679688 L 52.445312 240.679688 Z M 52.445312 141.925781 "/>
</clipPath>
<clipPath id="clip-14">
<path clip-rule="nonzero" d="M 52.445312 235 L 276.046875 235 L 276.046875 237 L 52.445312 237 Z M 52.445312 235 "/>
</clipPath>
<clipPath id="clip-15">
<path clip-rule="nonzero" d="M 52.445312 209 L 276.046875 209 L 276.046875 211 L 52.445312 211 Z M 52.445312 209 "/>
</clipPath>
<clipPath id="clip-16">
<path clip-rule="nonzero" d="M 52.445312 184 L 276.046875 184 L 276.046875 186 L 52.445312 186 Z M 52.445312 184 "/>
</clipPath>
<clipPath id="clip-17">
<path clip-rule="nonzero" d="M 52.445312 158 L 276.046875 158 L 276.046875 160 L 52.445312 160 Z M 52.445312 158 "/>
</clipPath>
<clipPath id="clip-18">
<path clip-rule="nonzero" d="M 57 141.925781 L 59 141.925781 L 59 240.679688 L 57 240.679688 Z M 57 141.925781 "/>
</clipPath>
<clipPath id="clip-19">
<path clip-rule="nonzero" d="M 100 141.925781 L 102 141.925781 L 102 240.679688 L 100 240.679688 Z M 100 141.925781 "/>
</clipPath>
<clipPath id="clip-20">
<path clip-rule="nonzero" d="M 142 141.925781 L 144 141.925781 L 144 240.679688 L 142 240.679688 Z M 142 141.925781 "/>
</clipPath>
<clipPath id="clip-21">
<path clip-rule="nonzero" d="M 184 141.925781 L 186 141.925781 L 186 240.679688 L 184 240.679688 Z M 184 141.925781 "/>
</clipPath>
<clipPath id="clip-22">
<path clip-rule="nonzero" d="M 227 141.925781 L 229 141.925781 L 229 240.679688 L 227 240.679688 Z M 227 141.925781 "/>
</clipPath>
<clipPath id="clip-23">
<path clip-rule="nonzero" d="M 269 141.925781 L 271 141.925781 L 271 240.679688 L 269 240.679688 Z M 269 141.925781 "/>
</clipPath>
</defs>
<rect x="-28.8" y="-28.8" width="345.6" height="345.6" fill="rgb(100%, 100%, 100%)" fill-opacity="1"/>
<rect x="-28.8" y="-28.8" width="345.6" height="345.6" fill="rgb(100%, 100%, 100%)" fill-opacity="1"/>
<g clip-path="url(#clip-0)">
<path fill-rule="nonzero" fill="rgb(100%, 100%, 100%)" fill-opacity="1" d="M 5.976562 135.949219 L 282.019531 135.949219 L 282.019531 5.980469 L 5.976562 5.980469 Z M 5.976562 135.949219 "/>
</g>
<g clip-path="url(#clip-1)">
<path fill-rule="nonzero" fill="rgb(100%, 100%, 100%)" fill-opacity="1" d="M 5.976562 282.023438 L 282.019531 282.023438 L 282.019531 135.949219 L 5.976562 135.949219 Z M 5.976562 282.023438 "/>
</g>
<g clip-path="url(#clip-2)">
<path fill-rule="nonzero" fill="rgb(100%, 100%, 100%)" fill-opacity="1" d="M 52.445312 110.710938 L 276.046875 110.710938 L 276.046875 11.957031 L 52.445312 11.957031 Z M 52.445312 110.710938 "/>
</g>
<g clip-path="url(#clip-3)">
<path fill="none" stroke-width="1.066978" stroke-linecap="butt" stroke-linejoin="round" stroke="rgb(89.019608%, 92.941176%, 97.647059%)" stroke-opacity="1" stroke-miterlimit="10" d="M 52.445312 106.304688 L 276.042969 106.304688 "/>
</g>
<g clip-path="url(#clip-4)">
<path fill="none" stroke-width="1.066978" stroke-linecap="butt" stroke-linejoin="round" stroke="rgb(89.019608%, 92.941176%, 97.647059%)" stroke-opacity="1" stroke-miterlimit="10" d="M 52.445312 81.132812 L 276.042969 81.132812 "/>
</g>
<g clip-path="url(#clip-5)">
<path fill="none" stroke-width="1.066978" stroke-linecap="butt" stroke-linejoin="round" stroke="rgb(89.019608%, 92.941176%, 97.647059%)" stroke-opacity="1" stroke-miterlimit="10" d="M 52.445312 55.960938 L 276.042969 55.960938 "/>
</g>
<g clip-path="url(#clip-6)">
<path fill="none" stroke-width="1.066978" stroke-linecap="butt" stroke-linejoin="round" stroke="rgb(89.019608%, 92.941176%, 97.647059%)" stroke-opacity="1" stroke-miterlimit="10" d="M 52.445312 30.792969 L 276.042969 30.792969 "/>
</g>
<g clip-path="url(#clip-7)">
<path fill="none" stroke-width="1.066978" stroke-linecap="butt" stroke-linejoin="round" stroke="rgb(89.019608%, 92.941176%, 97.647059%)" stroke-opacity="1" stroke-miterlimit="10" d="M 58.375 110.710938 L 58.375 11.957031 "/>
</g>
<g clip-path="url(#clip-8)">
<path fill="none" stroke-width="1.066978" stroke-linecap="butt" stroke-linejoin="round" stroke="rgb(89.019608%, 92.941176%, 97.647059%)" stroke-opacity="1" stroke-miterlimit="10" d="M 100.722656 110.710938 L 100.722656 11.957031 "/>
</g>
<g clip-path="url(#clip-9)">
<path fill="none" stroke-width="1.066978" stroke-linecap="butt" stroke-linejoin="round" stroke="rgb(89.019608%, 92.941176%, 97.647059%)" stroke-opacity="1" stroke-miterlimit="10" d="M 143.070312 110.710938 L 143.070312 11.957031 "/>
</g>
<g clip-path="url(#clip-10)">
<path fill="none" stroke-width="1.066978" stroke-linecap="butt" stroke-linejoin="round" stroke="rgb(89.019608%, 92.941176%, 97.647059%)" stroke-opacity="1" stroke-miterlimit="10" d="M 185.417969 110.710938 L 185.417969 11.957031 "/>
</g>
<g clip-path="url(#clip-11)">
<path fill="none" stroke-width="1.066978" stroke-linecap="butt" stroke-linejoin="round" stroke="rgb(89.019608%, 92.941176%, 97.647059%)" stroke-opacity="1" stroke-miterlimit="10" d="M 227.769531 110.710938 L 227.769531 11.957031 "/>
</g>
<g clip-path="url(#clip-12)">
<path fill="none" stroke-width="1.066978" stroke-linecap="butt" stroke-linejoin="round" stroke="rgb(89.019608%, 92.941176%, 97.647059%)" stroke-opacity="1" stroke-miterlimit="10" d="M 270.117188 110.710938 L 270.117188 11.957031 "/>
</g>
<path fill-rule="nonzero" fill="rgb(0%, 0%, 0%)" fill-opacity="1" stroke-width="0.773085" stroke-linecap="round" stroke-linejoin="round" stroke="rgb(0%, 0%, 0%)" stroke-opacity="1" stroke-miterlimit="10" d="M 64.742188 106.222656 C 64.742188 109.0625 60.476562 109.0625 60.476562 106.222656 C 60.476562 103.378906 64.742188 103.378906 64.742188 106.222656 "/>
<path fill-rule="nonzero" fill="rgb(0%, 0%, 0%)" fill-opacity="1" stroke-width="0.773085" stroke-linecap="round" stroke-linejoin="round" stroke="rgb(0%, 0%, 0%)" stroke-opacity="1" stroke-miterlimit="10" d="M 68.976562 106.054688 C 68.976562 108.894531 64.710938 108.894531 64.710938 106.054688 C 64.710938 103.210938 68.976562 103.210938 68.976562 106.054688 "/>
<path fill-rule="nonzero" fill="rgb(0%, 0%, 0%)" fill-opacity="1" stroke-width="0.773085" stroke-linecap="round" stroke-linejoin="round" stroke="rgb(0%, 0%, 0%)" stroke-opacity="1" stroke-miterlimit="10" d="M 73.210938 106.136719 C 73.210938 108.980469 68.945312 108.980469 68.945312 106.136719 C 68.945312 103.292969 73.210938 103.292969 73.210938 106.136719 "/>
<path fill-rule="nonzero" fill="rgb(0%, 0%, 0%)" fill-opacity="1" stroke-width="0.773085" stroke-linecap="round" stroke-linejoin="round" stroke="rgb(0%, 0%, 0%)" stroke-opacity="1" stroke-miterlimit="10" d="M 77.445312 106.136719 C 77.445312 108.980469 73.179688 108.980469 73.179688 106.136719 C 73.179688 103.292969 77.445312 103.292969 77.445312 106.136719 "/>
<path fill-rule="nonzero" fill="rgb(0%, 0%, 0%)" fill-opacity="1" stroke-width="0.773085" stroke-linecap="round" stroke-linejoin="round" stroke="rgb(0%, 0%, 0%)" stroke-opacity="1" stroke-miterlimit="10" d="M 81.679688 106.054688 C 81.679688 108.894531 77.414062 108.894531 77.414062 106.054688 C 77.414062 103.210938 81.679688 103.210938 81.679688 106.054688 "/>
<path fill-rule="nonzero" fill="rgb(0%, 0%, 0%)" fill-opacity="1" stroke-width="0.773085" stroke-linecap="round" stroke-linejoin="round" stroke="rgb(0%, 0%, 0%)" stroke-opacity="1" stroke-miterlimit="10" d="M 85.914062 106.222656 C 85.914062 109.0625 81.648438 109.0625 81.648438 106.222656 C 81.648438 103.378906 85.914062 103.378906 85.914062 106.222656 "/>
<path fill-rule="nonzero" fill="rgb(0%, 0%, 0%)" fill-opacity="1" stroke-width="0.773085" stroke-linecap="round" stroke-linejoin="round" stroke="rgb(0%, 0%, 0%)" stroke-opacity="1" stroke-miterlimit="10" d="M 90.148438 105.96875 C 90.148438 108.8125 85.886719 108.8125 85.886719 105.96875 C 85.886719 103.125 90.148438 103.125 90.148438 105.96875 "/>
<path fill-rule="nonzero" fill="rgb(0%, 0%, 0%)" fill-opacity="1" stroke-width="0.773085" stroke-linecap="round" stroke-linejoin="round" stroke="rgb(0%, 0%, 0%)" stroke-opacity="1" stroke-miterlimit="10" d="M 94.386719 105.296875 C 94.386719 108.140625 90.121094 108.140625 90.121094 105.296875 C 90.121094 102.453125 94.386719 102.453125 94.386719 105.296875 "/>
<path fill-rule="nonzero" fill="rgb(0%, 0%, 0%)" fill-opacity="1" stroke-width="0.773085" stroke-linecap="round" stroke-linejoin="round" stroke="rgb(0%, 0%, 0%)" stroke-opacity="1" stroke-miterlimit="10" d="M 98.621094 105.800781 C 98.621094 108.644531 94.355469 108.644531 94.355469 105.800781 C 94.355469 102.957031 98.621094 102.957031 98.621094 105.800781 "/>
<path fill-rule="nonzero" fill="rgb(0%, 0%, 0%)" fill-opacity="1" stroke-width="0.773085" stroke-linecap="round" stroke-linejoin="round" stroke="rgb(0%, 0%, 0%)" stroke-opacity="1" stroke-miterlimit="10" d="M 102.855469 104.792969 C 102.855469 107.636719 98.589844 107.636719 98.589844 104.792969 C 98.589844 101.949219 102.855469 101.949219 102.855469 104.792969 "/>
<path fill-rule="nonzero" fill="rgb(0%, 0%, 0%)" fill-opacity="1" stroke-width="0.773085" stroke-linecap="round" stroke-linejoin="round" stroke="rgb(0%, 0%, 0%)" stroke-opacity="1" stroke-miterlimit="10" d="M 107.089844 105.128906 C 107.089844 107.972656 102.824219 107.972656 102.824219 105.128906 C 102.824219 102.285156 107.089844 102.285156 107.089844 105.128906 "/>
<path fill-rule="nonzero" fill="rgb(0%, 0%, 0%)" fill-opacity="1" stroke-width="0.773085" stroke-linecap="round" stroke-linejoin="round" stroke="rgb(0%, 0%, 0%)" stroke-opacity="1" stroke-miterlimit="10" d="M 111.324219 104.457031 C 111.324219 107.300781 107.058594 107.300781 107.058594 104.457031 C 107.058594 101.617188 111.324219 101.617188 111.324219 104.457031 "/>
<path fill-rule="nonzero" fill="rgb(0%, 0%, 0%)" fill-opacity="1" stroke-width="0.773085" stroke-linecap="round" stroke-linejoin="round" stroke="rgb(0%, 0%, 0%)" stroke-opacity="1" stroke-miterlimit="10" d="M 115.558594 101.859375 C 115.558594 104.699219 111.292969 104.699219 111.292969 101.859375 C 111.292969 99.015625 115.558594 99.015625 115.558594 101.859375 "/>
<path fill-rule="nonzero" fill="rgb(0%, 0%, 0%)" fill-opacity="1" stroke-width="0.773085" stroke-linecap="round" stroke-linejoin="round" stroke="rgb(0%, 0%, 0%)" stroke-opacity="1" stroke-miterlimit="10" d="M 119.792969 98.585938 C 119.792969 101.429688 115.527344 101.429688 115.527344 98.585938 C 115.527344 95.742188 119.792969 95.742188 119.792969 98.585938 "/>
<path fill-rule="nonzero" fill="rgb(0%, 0%, 0%)" fill-opacity="1" stroke-width="0.773085" stroke-linecap="round" stroke-linejoin="round" stroke="rgb(0%, 0%, 0%)" stroke-opacity="1" stroke-miterlimit="10" d="M 124.027344 90.949219 C 124.027344 93.792969 119.765625 93.792969 119.765625 90.949219 C 119.765625 88.105469 124.027344 88.105469 124.027344 90.949219 "/>
<path fill-rule="nonzero" fill="rgb(0%, 0%, 0%)" fill-opacity="1" stroke-width="0.773085" stroke-linecap="round" stroke-linejoin="round" stroke="rgb(0%, 0%, 0%)" stroke-opacity="1" stroke-miterlimit="10" d="M 128.265625 92.460938 C 128.265625 95.304688 124 95.304688 124 92.460938 C 124 89.617188 128.265625 89.617188 128.265625 92.460938 "/>
<path fill-rule="nonzero" fill="rgb(0%, 0%, 0%)" fill-opacity="1" stroke-width="0.773085" stroke-linecap="round" stroke-linejoin="round" stroke="rgb(0%, 0%, 0%)" stroke-opacity="1" stroke-miterlimit="10" d="M 132.5 94.894531 C 132.5 97.738281 128.234375 97.738281 128.234375 94.894531 C 128.234375 92.050781 132.5 92.050781 132.5 94.894531 "/>
<path fill-rule="nonzero" fill="rgb(0%, 0%, 0%)" fill-opacity="1" stroke-width="0.773085" stroke-linecap="round" stroke-linejoin="round" stroke="rgb(0%, 0%, 0%)" stroke-opacity="1" stroke-miterlimit="10" d="M 136.734375 93.804688 C 136.734375 96.644531 132.46875 96.644531 132.46875 93.804688 C 132.46875 90.960938 136.734375 90.960938 136.734375 93.804688 "/>
<path fill-rule="nonzero" fill="rgb(0%, 0%, 0%)" fill-opacity="1" stroke-width="0.773085" stroke-linecap="round" stroke-linejoin="round" stroke="rgb(0%, 0%, 0%)" stroke-opacity="1" stroke-miterlimit="10" d="M 140.96875 92.460938 C 140.96875 95.304688 136.703125 95.304688 136.703125 92.460938 C 136.703125 89.617188 140.96875 89.617188 140.96875 92.460938 "/>
<path fill-rule="nonzero" fill="rgb(0%, 0%, 0%)" fill-opacity="1" stroke-width="0.773085" stroke-linecap="round" stroke-linejoin="round" stroke="rgb(0%, 0%, 0%)" stroke-opacity="1" stroke-miterlimit="10" d="M 145.203125 86.671875 C 145.203125 89.515625 140.9375 89.515625 140.9375 86.671875 C 140.9375 83.828125 145.203125 83.828125 145.203125 86.671875 "/>
<path fill-rule="nonzero" fill="rgb(0%, 0%, 0%)" fill-opacity="1" stroke-width="0.773085" stroke-linecap="round" stroke-linejoin="round" stroke="rgb(0%, 0%, 0%)" stroke-opacity="1" stroke-miterlimit="10" d="M 149.4375 80.292969 C 149.4375 83.136719 145.171875 83.136719 145.171875 80.292969 C 145.171875 77.453125 149.4375 77.453125 149.4375 80.292969 "/>
<path fill-rule="nonzero" fill="rgb(0%, 0%, 0%)" fill-opacity="1" stroke-width="0.773085" stroke-linecap="round" stroke-linejoin="round" stroke="rgb(0%, 0%, 0%)" stroke-opacity="1" stroke-miterlimit="10" d="M 153.671875 76.433594 C 153.671875 79.277344 149.40625 79.277344 149.40625 76.433594 C 149.40625 73.589844 153.671875 73.589844 153.671875 76.433594 "/>
<path fill-rule="nonzero" fill="rgb(0%, 0%, 0%)" fill-opacity="1" stroke-width="0.773085" stroke-linecap="round" stroke-linejoin="round" stroke="rgb(0%, 0%, 0%)" stroke-opacity="1" stroke-miterlimit="10" d="M 157.90625 78.363281 C 157.90625 81.207031 153.644531 81.207031 153.644531 78.363281 C 153.644531 75.519531 157.90625 75.519531 157.90625 78.363281 "/>
<path fill-rule="nonzero" fill="rgb(0%, 0%, 0%)" fill-opacity="1" stroke-width="0.773085" stroke-linecap="round" stroke-linejoin="round" stroke="rgb(0%, 0%, 0%)" stroke-opacity="1" stroke-miterlimit="10" d="M 162.140625 70.5625 C 162.140625 73.40625 157.878906 73.40625 157.878906 70.5625 C 157.878906 67.71875 162.140625 67.71875 162.140625 70.5625 "/>
<path fill-rule="nonzero" fill="rgb(0%, 0%, 0%)" fill-opacity="1" stroke-width="0.773085" stroke-linecap="round" stroke-linejoin="round" stroke="rgb(0%, 0%, 0%)" stroke-opacity="1" stroke-miterlimit="10" d="M 166.378906 76.855469 C 166.378906 79.699219 162.113281 79.699219 162.113281 76.855469 C 162.113281 74.011719 166.378906 74.011719 166.378906 76.855469 "/>
<path fill-rule="nonzero" fill="rgb(0%, 0%, 0%)" fill-opacity="1" stroke-width="0.773085" stroke-linecap="round" stroke-linejoin="round" stroke="rgb(0%, 0%, 0%)" stroke-opacity="1" stroke-miterlimit="10" d="M 170.613281 69.640625 C 170.613281 72.480469 166.347656 72.480469 166.347656 69.640625 C 166.347656 66.796875 170.613281 66.796875 170.613281 69.640625 "/>
<path fill-rule="nonzero" fill="rgb(0%, 0%, 0%)" fill-opacity="1" stroke-width="0.773085" stroke-linecap="round" stroke-linejoin="round" stroke="rgb(0%, 0%, 0%)" stroke-opacity="1" stroke-miterlimit="10" d="M 174.847656 48.496094 C 174.847656 51.339844 170.582031 51.339844 170.582031 48.496094 C 170.582031 45.652344 174.847656 45.652344 174.847656 48.496094 "/>
<path fill-rule="nonzero" fill="rgb(0%, 0%, 0%)" fill-opacity="1" stroke-width="0.773085" stroke-linecap="round" stroke-linejoin="round" stroke="rgb(0%, 0%, 0%)" stroke-opacity="1" stroke-miterlimit="10" d="M 179.082031 52.941406 C 179.082031 55.785156 174.816406 55.785156 174.816406 52.941406 C 174.816406 50.097656 179.082031 50.097656 179.082031 52.941406 "/>
<path fill-rule="nonzero" fill="rgb(0%, 0%, 0%)" fill-opacity="1" stroke-width="0.773085" stroke-linecap="round" stroke-linejoin="round" stroke="rgb(0%, 0%, 0%)" stroke-opacity="1" stroke-miterlimit="10" d="M 183.316406 42.707031 C 183.316406 45.550781 179.050781 45.550781 179.050781 42.707031 C 179.050781 39.863281 183.316406 39.863281 183.316406 42.707031 "/>
<path fill-rule="nonzero" fill="rgb(0%, 0%, 0%)" fill-opacity="1" stroke-width="0.773085" stroke-linecap="round" stroke-linejoin="round" stroke="rgb(0%, 0%, 0%)" stroke-opacity="1" stroke-miterlimit="10" d="M 187.550781 42.035156 C 187.550781 44.878906 183.285156 44.878906 183.285156 42.035156 C 183.285156 39.191406 187.550781 39.191406 187.550781 42.035156 "/>
<path fill-rule="nonzero" fill="rgb(0%, 0%, 0%)" fill-opacity="1" stroke-width="0.773085" stroke-linecap="round" stroke-linejoin="round" stroke="rgb(0%, 0%, 0%)" stroke-opacity="1" stroke-miterlimit="10" d="M 191.785156 37.417969 C 191.785156 40.261719 187.519531 40.261719 187.519531 37.417969 C 187.519531 34.578125 191.785156 34.578125 191.785156 37.417969 "/>
<path fill-rule="nonzero" fill="rgb(0%, 0%, 0%)" fill-opacity="1" stroke-width="0.773085" stroke-linecap="round" stroke-linejoin="round" stroke="rgb(0%, 0%, 0%)" stroke-opacity="1" stroke-miterlimit="10" d="M 196.019531 57.890625 C 196.019531 60.734375 191.757812 60.734375 191.757812 57.890625 C 191.757812 55.050781 196.019531 55.050781 196.019531 57.890625 "/>
<path fill-rule="nonzero" fill="rgb(0%, 0%, 0%)" fill-opacity="1" stroke-width="0.773085" stroke-linecap="round" stroke-linejoin="round" stroke="rgb(0%, 0%, 0%)" stroke-opacity="1" stroke-miterlimit="10" d="M 200.257812 56.464844 C 200.257812 59.308594 195.992188 59.308594 195.992188 56.464844 C 195.992188 53.621094 200.257812 53.621094 200.257812 56.464844 "/>
<path fill-rule="nonzero" fill="rgb(0%, 0%, 0%)" fill-opacity="1" stroke-width="0.773085" stroke-linecap="round" stroke-linejoin="round" stroke="rgb(0%, 0%, 0%)" stroke-opacity="1" stroke-miterlimit="10" d="M 204.492188 33.476562 C 204.492188 36.320312 200.226562 36.320312 200.226562 33.476562 C 200.226562 30.632812 204.492188 30.632812 204.492188 33.476562 "/>
<path fill-rule="nonzero" fill="rgb(0%, 0%, 0%)" fill-opacity="1" stroke-width="0.773085" stroke-linecap="round" stroke-linejoin="round" stroke="rgb(0%, 0%, 0%)" stroke-opacity="1" stroke-miterlimit="10" d="M 208.726562 27.769531 C 208.726562 30.613281 204.460938 30.613281 204.460938 27.769531 C 204.460938 24.925781 208.726562 24.925781 208.726562 27.769531 "/>
<path fill-rule="nonzero" fill="rgb(0%, 0%, 0%)" fill-opacity="1" stroke-width="0.773085" stroke-linecap="round" stroke-linejoin="round" stroke="rgb(0%, 0%, 0%)" stroke-opacity="1" stroke-miterlimit="10" d="M 212.960938 24.164062 C 212.960938 27.007812 208.695312 27.007812 208.695312 24.164062 C 208.695312 21.320312 212.960938 21.320312 212.960938 24.164062 "/>
<path fill-rule="nonzero" fill="rgb(0%, 0%, 0%)" fill-opacity="1" stroke-width="0.773085" stroke-linecap="round" stroke-linejoin="round" stroke="rgb(0%, 0%, 0%)" stroke-opacity="1" stroke-miterlimit="10" d="M 217.195312 16.445312 C 217.195312 19.289062 212.929688 19.289062 212.929688 16.445312 C 212.929688 13.601562 217.195312 13.601562 217.195312 16.445312 "/>
<path fill-rule="nonzero" fill="rgb(0%, 0%, 0%)" fill-opacity="1" stroke-width="0.773085" stroke-linecap="round" stroke-linejoin="round" stroke="rgb(0%, 0%, 0%)" stroke-opacity="1" stroke-miterlimit="10" d="M 221.429688 23.742188 C 221.429688 26.585938 217.164062 26.585938 217.164062 23.742188 C 217.164062 20.898438 221.429688 20.898438 221.429688 23.742188 "/>
<path fill-rule="nonzero" fill="rgb(0%, 0%, 0%)" fill-opacity="1" stroke-width="0.773085" stroke-linecap="round" stroke-linejoin="round" stroke="rgb(0%, 0%, 0%)" stroke-opacity="1" stroke-miterlimit="10" d="M 225.664062 42.117188 C 225.664062 44.960938 221.398438 44.960938 221.398438 42.117188 C 221.398438 39.273438 225.664062 39.273438 225.664062 42.117188 "/>
<path fill-rule="nonzero" fill="rgb(0%, 0%, 0%)" fill-opacity="1" stroke-width="0.773085" stroke-linecap="round" stroke-linejoin="round" stroke="rgb(0%, 0%, 0%)" stroke-opacity="1" stroke-miterlimit="10" d="M 229.898438 53.109375 C 229.898438 55.953125 225.636719 55.953125 225.636719 53.109375 C 225.636719 50.265625 229.898438 50.265625 229.898438 53.109375 "/>
<path fill-rule="nonzero" fill="rgb(0%, 0%, 0%)" fill-opacity="1" stroke-width="0.773085" stroke-linecap="round" stroke-linejoin="round" stroke="rgb(0%, 0%, 0%)" stroke-opacity="1" stroke-miterlimit="10" d="M 234.136719 34.0625 C 234.136719 36.90625 229.871094 36.90625 229.871094 34.0625 C 229.871094 31.21875 234.136719 31.21875 234.136719 34.0625 "/>
<path fill-rule="nonzero" fill="rgb(0%, 0%, 0%)" fill-opacity="1" stroke-width="0.773085" stroke-linecap="round" stroke-linejoin="round" stroke="rgb(0%, 0%, 0%)" stroke-opacity="1" stroke-miterlimit="10" d="M 238.371094 26.34375 C 238.371094 29.1875 234.105469 29.1875 234.105469 26.34375 C 234.105469 23.5 238.371094 23.5 238.371094 26.34375 "/>
<path fill-rule="nonzero" fill="rgb(0%, 0%, 0%)" fill-opacity="1" stroke-width="0.773085" stroke-linecap="round" stroke-linejoin="round" stroke="rgb(0%, 0%, 0%)" stroke-opacity="1" stroke-miterlimit="10" d="M 242.605469 32.890625 C 242.605469 35.734375 238.339844 35.734375 238.339844 32.890625 C 238.339844 30.046875 242.605469 30.046875 242.605469 32.890625 "/>
<path fill-rule="nonzero" fill="rgb(0%, 0%, 0%)" fill-opacity="1" stroke-width="0.773085" stroke-linecap="round" stroke-linejoin="round" stroke="rgb(0%, 0%, 0%)" stroke-opacity="1" stroke-miterlimit="10" d="M 246.839844 39.351562 C 246.839844 42.191406 242.574219 42.191406 242.574219 39.351562 C 242.574219 36.507812 246.839844 36.507812 246.839844 39.351562 "/>
<path fill-rule="nonzero" fill="rgb(0%, 0%, 0%)" fill-opacity="1" stroke-width="0.773085" stroke-linecap="round" stroke-linejoin="round" stroke="rgb(0%, 0%, 0%)" stroke-opacity="1" stroke-miterlimit="10" d="M 251.074219 54.367188 C 251.074219 57.210938 246.808594 57.210938 246.808594 54.367188 C 246.808594 51.523438 251.074219 51.523438 251.074219 54.367188 "/>
<path fill-rule="nonzero" fill="rgb(0%, 0%, 0%)" fill-opacity="1" stroke-width="0.773085" stroke-linecap="round" stroke-linejoin="round" stroke="rgb(0%, 0%, 0%)" stroke-opacity="1" stroke-miterlimit="10" d="M 255.308594 62.84375 C 255.308594 65.6875 251.042969 65.6875 251.042969 62.84375 C 251.042969 60 255.308594 60 255.308594 62.84375 "/>
<path fill-rule="nonzero" fill="rgb(0%, 0%, 0%)" fill-opacity="1" stroke-width="0.773085" stroke-linecap="round" stroke-linejoin="round" stroke="rgb(0%, 0%, 0%)" stroke-opacity="1" stroke-miterlimit="10" d="M 259.542969 64.351562 C 259.542969 67.195312 255.277344 67.195312 255.277344 64.351562 C 255.277344 61.507812 259.542969 61.507812 259.542969 64.351562 "/>
<path fill-rule="nonzero" fill="rgb(0%, 0%, 0%)" fill-opacity="1" stroke-width="0.773085" stroke-linecap="round" stroke-linejoin="round" stroke="rgb(0%, 0%, 0%)" stroke-opacity="1" stroke-miterlimit="10" d="M 263.777344 55.710938 C 263.777344 58.554688 259.515625 58.554688 259.515625 55.710938 C 259.515625 52.867188 263.777344 52.867188 263.777344 55.710938 "/>
<path fill-rule="nonzero" fill="rgb(0%, 0%, 0%)" fill-opacity="1" stroke-width="0.773085" stroke-linecap="round" stroke-linejoin="round" stroke="rgb(0%, 0%, 0%)" stroke-opacity="1" stroke-miterlimit="10" d="M 268.015625 51.011719 C 268.015625 53.855469 263.75 53.855469 263.75 51.011719 C 263.75 48.167969 268.015625 48.167969 268.015625 51.011719 "/>
<path fill="none" stroke-width="1.066978" stroke-linecap="butt" stroke-linejoin="round" stroke="rgb(81.176471%, 87.843137%, 94.901961%)" stroke-opacity="1" stroke-miterlimit="10" d="M 52.445312 110.710938 L 52.445312 11.957031 "/>
<g fill="rgb(39.215686%, 45.882353%, 52.941176%)" fill-opacity="1">
<use xlink:href="#glyph-0-0" x="38.738281" y="110.242188"/>
</g>
<g fill="rgb(39.215686%, 45.882353%, 52.941176%)" fill-opacity="1">
<use xlink:href="#glyph-0-1" x="28.0625" y="85.070312"/>
<use xlink:href="#glyph-0-0" x="33.401562" y="85.070312"/>
<use xlink:href="#glyph-0-0" x="38.740625" y="85.070312"/>
</g>
<g fill="rgb(39.215686%, 45.882353%, 52.941176%)" fill-opacity="1">
<use xlink:href="#glyph-0-2" x="28.0625" y="59.898438"/>
<use xlink:href="#glyph-0-0" x="33.401562" y="59.898438"/>
<use xlink:href="#glyph-0-0" x="38.740625" y="59.898438"/>
</g>
<g fill="rgb(39.215686%, 45.882353%, 52.941176%)" fill-opacity="1">
<use xlink:href="#glyph-0-3" x="28.0625" y="34.726562"/>
<use xlink:href="#glyph-0-0" x="33.401562" y="34.726562"/>
<use xlink:href="#glyph-0-0" x="38.740625" y="34.726562"/>
</g>
<path fill="none" stroke-width="0.853583" stroke-linecap="butt" stroke-linejoin="round" stroke="rgb(81.176471%, 87.843137%, 94.901961%)" stroke-opacity="1" stroke-miterlimit="10" d="M 49.457031 106.304688 L 52.445312 106.304688 "/>
<path fill="none" stroke-width="0.853583" stroke-linecap="butt" stroke-linejoin="round" stroke="rgb(81.176471%, 87.843137%, 94.901961%)" stroke-opacity="1" stroke-miterlimit="10" d="M 49.457031 81.132812 L 52.445312 81.132812 "/>
<path fill="none" stroke-width="0.853583" stroke-linecap="butt" stroke-linejoin="round" stroke="rgb(81.176471%, 87.843137%, 94.901961%)" stroke-opacity="1" stroke-miterlimit="10" d="M 49.457031 55.960938 L 52.445312 55.960938 "/>
<path fill="none" stroke-width="0.853583" stroke-linecap="butt" stroke-linejoin="round" stroke="rgb(81.176471%, 87.843137%, 94.901961%)" stroke-opacity="1" stroke-miterlimit="10" d="M 49.457031 30.792969 L 52.445312 30.792969 "/>
<path fill="none" stroke-width="1.066978" stroke-linecap="butt" stroke-linejoin="round" stroke="rgb(81.176471%, 87.843137%, 94.901961%)" stroke-opacity="1" stroke-miterlimit="10" d="M 52.445312 110.710938 L 276.042969 110.710938 "/>
<path fill="none" stroke-width="0.853583" stroke-linecap="butt" stroke-linejoin="round" stroke="rgb(81.176471%, 87.843137%, 94.901961%)" stroke-opacity="1" stroke-miterlimit="10" d="M 58.375 113.699219 L 58.375 110.710938 "/>
<path fill="none" stroke-width="0.853583" stroke-linecap="butt" stroke-linejoin="round" stroke="rgb(81.176471%, 87.843137%, 94.901961%)" stroke-opacity="1" stroke-miterlimit="10" d="M 100.722656 113.699219 L 100.722656 110.710938 "/>
<path fill="none" stroke-width="0.853583" stroke-linecap="butt" stroke-linejoin="round" stroke="rgb(81.176471%, 87.843137%, 94.901961%)" stroke-opacity="1" stroke-miterlimit="10" d="M 143.070312 113.699219 L 143.070312 110.710938 "/>
<path fill="none" stroke-width="0.853583" stroke-linecap="butt" stroke-linejoin="round" stroke="rgb(81.176471%, 87.843137%, 94.901961%)" stroke-opacity="1" stroke-miterlimit="10" d="M 185.417969 113.699219 L 185.417969 110.710938 "/>
<path fill="none" stroke-width="0.853583" stroke-linecap="butt" stroke-linejoin="round" stroke="rgb(81.176471%, 87.843137%, 94.901961%)" stroke-opacity="1" stroke-miterlimit="10" d="M 227.769531 113.699219 L 227.769531 110.710938 "/>
<path fill="none" stroke-width="0.853583" stroke-linecap="butt" stroke-linejoin="round" stroke="rgb(81.176471%, 87.843137%, 94.901961%)" stroke-opacity="1" stroke-miterlimit="10" d="M 270.117188 113.699219 L 270.117188 110.710938 "/>
<g fill="rgb(39.215686%, 45.882353%, 52.941176%)" fill-opacity="1">
<use xlink:href="#glyph-0-0" x="55.707031" y="126.949219"/>
</g>
<g fill="rgb(39.215686%, 45.882353%, 52.941176%)" fill-opacity="1">
<use xlink:href="#glyph-0-4" x="95.382812" y="126.949219"/>
<use xlink:href="#glyph-0-0" x="100.721875" y="126.949219"/>
</g>
<g fill="rgb(39.215686%, 45.882353%, 52.941176%)" fill-opacity="1">
<use xlink:href="#glyph-0-5" x="137.730469" y="126.949219"/>
<use xlink:href="#glyph-0-0" x="143.069531" y="126.949219"/>
</g>
<g fill="rgb(39.215686%, 45.882353%, 52.941176%)" fill-opacity="1">
<use xlink:href="#glyph-0-1" x="180.078125" y="126.949219"/>
<use xlink:href="#glyph-0-0" x="185.417188" y="126.949219"/>
</g>
<g fill="rgb(39.215686%, 45.882353%, 52.941176%)" fill-opacity="1">
<use xlink:href="#glyph-0-6" x="222.429688" y="126.949219"/>
<use xlink:href="#glyph-0-0" x="227.76875" y="126.949219"/>
</g>
<g fill="rgb(39.215686%, 45.882353%, 52.941176%)" fill-opacity="1">
<use xlink:href="#glyph-0-7" x="264.777344" y="126.949219"/>
<use xlink:href="#glyph-0-0" x="270.116406" y="126.949219"/>
</g>
<g fill="rgb(25.882353%, 33.72549%, 41.960784%)" fill-opacity="1">
<use xlink:href="#glyph-1-0" x="21.546875" y="87.015625"/>
<use xlink:href="#glyph-1-1" x="21.546875" y="83.681641"/>
<use xlink:href="#glyph-1-2" x="21.546875" y="77.007812"/>
<use xlink:href="#glyph-1-3" x="21.546875" y="71.007812"/>
<use xlink:href="#glyph-1-4" x="21.546875" y="68.341797"/>
<use xlink:href="#glyph-1-5" x="21.546875" y="61.667969"/>
<use xlink:href="#glyph-1-1" x="21.546875" y="54.994141"/>
<use xlink:href="#glyph-1-2" x="21.546875" y="48.320312"/>
<use xlink:href="#glyph-1-5" x="21.546875" y="42.320312"/>
</g>
<g clip-path="url(#clip-13)">
<path fill-rule="nonzero" fill="rgb(100%, 100%, 100%)" fill-opacity="1" d="M 52.445312 240.679688 L 276.046875 240.679688 L 276.046875 141.925781 L 52.445312 141.925781 Z M 52.445312 240.679688 "/>
</g>
<g clip-path="url(#clip-14)">
<path fill="none" stroke-width="1.066978" stroke-linecap="butt" stroke-linejoin="round" stroke="rgb(89.019608%, 92.941176%, 97.647059%)" stroke-opacity="1" stroke-miterlimit="10" d="M 52.445312 236.191406 L 276.042969 236.191406 "/>
</g>
<g clip-path="url(#clip-15)">
<path fill="none" stroke-width="1.066978" stroke-linecap="butt" stroke-linejoin="round" stroke="rgb(89.019608%, 92.941176%, 97.647059%)" stroke-opacity="1" stroke-miterlimit="10" d="M 52.445312 210.453125 L 276.042969 210.453125 "/>
</g>
<g clip-path="url(#clip-16)">
<path fill="none" stroke-width="1.066978" stroke-linecap="butt" stroke-linejoin="round" stroke="rgb(89.019608%, 92.941176%, 97.647059%)" stroke-opacity="1" stroke-miterlimit="10" d="M 52.445312 184.714844 L 276.042969 184.714844 "/>
</g>
<g clip-path="url(#clip-17)">
<path fill="none" stroke-width="1.066978" stroke-linecap="butt" stroke-linejoin="round" stroke="rgb(89.019608%, 92.941176%, 97.647059%)" stroke-opacity="1" stroke-miterlimit="10" d="M 52.445312 158.980469 L 276.042969 158.980469 "/>
</g>
<g clip-path="url(#clip-18)">
<path fill="none" stroke-width="1.066978" stroke-linecap="butt" stroke-linejoin="round" stroke="rgb(89.019608%, 92.941176%, 97.647059%)" stroke-opacity="1" stroke-miterlimit="10" d="M 58.375 240.679688 L 58.375 141.925781 "/>
</g>
<g clip-path="url(#clip-19)">
<path fill="none" stroke-width="1.066978" stroke-linecap="butt" stroke-linejoin="round" stroke="rgb(89.019608%, 92.941176%, 97.647059%)" stroke-opacity="1" stroke-miterlimit="10" d="M 100.722656 240.679688 L 100.722656 141.925781 "/>
</g>
<g clip-path="url(#clip-20)">
<path fill="none" stroke-width="1.066978" stroke-linecap="butt" stroke-linejoin="round" stroke="rgb(89.019608%, 92.941176%, 97.647059%)" stroke-opacity="1" stroke-miterlimit="10" d="M 143.070312 240.679688 L 143.070312 141.925781 "/>
</g>
<g clip-path="url(#clip-21)">
<path fill="none" stroke-width="1.066978" stroke-linecap="butt" stroke-linejoin="round" stroke="rgb(89.019608%, 92.941176%, 97.647059%)" stroke-opacity="1" stroke-miterlimit="10" d="M 185.417969 240.679688 L 185.417969 141.925781 "/>
</g>
<g clip-path="url(#clip-22)">
<path fill="none" stroke-width="1.066978" stroke-linecap="butt" stroke-linejoin="round" stroke="rgb(89.019608%, 92.941176%, 97.647059%)" stroke-opacity="1" stroke-miterlimit="10" d="M 227.769531 240.679688 L 227.769531 141.925781 "/>
</g>
<g clip-path="url(#clip-23)">
<path fill="none" stroke-width="1.066978" stroke-linecap="butt" stroke-linejoin="round" stroke="rgb(89.019608%, 92.941176%, 97.647059%)" stroke-opacity="1" stroke-miterlimit="10" d="M 270.117188 240.679688 L 270.117188 141.925781 "/>
</g>
<path fill-rule="nonzero" fill="rgb(0%, 0%, 0%)" fill-opacity="1" stroke-width="0.773085" stroke-linecap="round" stroke-linejoin="round" stroke="rgb(0%, 0%, 0%)" stroke-opacity="1" stroke-miterlimit="10" d="M 64.742188 236.191406 C 64.742188 239.035156 60.476562 239.035156 60.476562 236.191406 C 60.476562 233.347656 64.742188 233.347656 64.742188 236.191406 "/>
<path fill-rule="nonzero" fill="rgb(0%, 0%, 0%)" fill-opacity="1" stroke-width="0.773085" stroke-linecap="round" stroke-linejoin="round" stroke="rgb(0%, 0%, 0%)" stroke-opacity="1" stroke-miterlimit="10" d="M 68.976562 222.054688 C 68.976562 224.898438 64.710938 224.898438 64.710938 222.054688 C 64.710938 219.210938 68.976562 219.210938 68.976562 222.054688 "/>
<path fill-rule="nonzero" fill="rgb(0%, 0%, 0%)" fill-opacity="1" stroke-width="0.773085" stroke-linecap="round" stroke-linejoin="round" stroke="rgb(0%, 0%, 0%)" stroke-opacity="1" stroke-miterlimit="10" d="M 73.210938 227.269531 C 73.210938 230.113281 68.945312 230.113281 68.945312 227.269531 C 68.945312 224.429688 73.210938 224.429688 73.210938 227.269531 "/>
<path fill-rule="nonzero" fill="rgb(0%, 0%, 0%)" fill-opacity="1" stroke-width="0.773085" stroke-linecap="round" stroke-linejoin="round" stroke="rgb(0%, 0%, 0%)" stroke-opacity="1" stroke-miterlimit="10" d="M 77.445312 227.269531 C 77.445312 230.113281 73.179688 230.113281 73.179688 227.269531 C 73.179688 224.429688 77.445312 224.429688 77.445312 227.269531 "/>
<path fill-rule="nonzero" fill="rgb(0%, 0%, 0%)" fill-opacity="1" stroke-width="0.773085" stroke-linecap="round" stroke-linejoin="round" stroke="rgb(0%, 0%, 0%)" stroke-opacity="1" stroke-miterlimit="10" d="M 81.679688 222.054688 C 81.679688 224.898438 77.414062 224.898438 77.414062 222.054688 C 77.414062 219.210938 81.679688 219.210938 81.679688 222.054688 "/>
<path fill-rule="nonzero" fill="rgb(0%, 0%, 0%)" fill-opacity="1" stroke-width="0.773085" stroke-linecap="round" stroke-linejoin="round" stroke="rgb(0%, 0%, 0%)" stroke-opacity="1" stroke-miterlimit="10" d="M 85.914062 236.191406 C 85.914062 239.035156 81.648438 239.035156 81.648438 236.191406 C 81.648438 233.347656 85.914062 233.347656 85.914062 236.191406 "/>
<path fill-rule="nonzero" fill="rgb(0%, 0%, 0%)" fill-opacity="1" stroke-width="0.773085" stroke-linecap="round" stroke-linejoin="round" stroke="rgb(0%, 0%, 0%)" stroke-opacity="1" stroke-miterlimit="10" d="M 90.148438 218.351562 C 90.148438 221.195312 85.886719 221.195312 85.886719 218.351562 C 85.886719 215.507812 90.148438 215.507812 90.148438 218.351562 "/>
<path fill-rule="nonzero" fill="rgb(0%, 0%, 0%)" fill-opacity="1" stroke-width="0.773085" stroke-linecap="round" stroke-linejoin="round" stroke="rgb(0%, 0%, 0%)" stroke-opacity="1" stroke-miterlimit="10" d="M 94.386719 204.214844 C 94.386719 207.058594 90.121094 207.058594 90.121094 204.214844 C 90.121094 201.371094 94.386719 201.371094 94.386719 204.214844 "/>
<path fill-rule="nonzero" fill="rgb(0%, 0%, 0%)" fill-opacity="1" stroke-width="0.773085" stroke-linecap="round" stroke-linejoin="round" stroke="rgb(0%, 0%, 0%)" stroke-opacity="1" stroke-miterlimit="10" d="M 98.621094 213.132812 C 98.621094 215.976562 94.355469 215.976562 94.355469 213.132812 C 94.355469 210.289062 98.621094 210.289062 98.621094 213.132812 "/>
<path fill-rule="nonzero" fill="rgb(0%, 0%, 0%)" fill-opacity="1" stroke-width="0.773085" stroke-linecap="round" stroke-linejoin="round" stroke="rgb(0%, 0%, 0%)" stroke-opacity="1" stroke-miterlimit="10" d="M 102.855469 198.996094 C 102.855469 201.839844 98.589844 201.839844 98.589844 198.996094 C 98.589844 196.152344 102.855469 196.152344 102.855469 198.996094 "/>
<path fill-rule="nonzero" fill="rgb(0%, 0%, 0%)" fill-opacity="1" stroke-width="0.773085" stroke-linecap="round" stroke-linejoin="round" stroke="rgb(0%, 0%, 0%)" stroke-opacity="1" stroke-miterlimit="10" d="M 107.089844 202.230469 C 107.089844 205.074219 102.824219 205.074219 102.824219 202.230469 C 102.824219 199.386719 107.089844 199.386719 107.089844 202.230469 "/>
<path fill-rule="nonzero" fill="rgb(0%, 0%, 0%)" fill-opacity="1" stroke-width="0.773085" stroke-linecap="round" stroke-linejoin="round" stroke="rgb(0%, 0%, 0%)" stroke-opacity="1" stroke-miterlimit="10" d="M 111.324219 196.414062 C 111.324219 199.257812 107.058594 199.257812 107.058594 196.414062 C 107.058594 193.570312 111.324219 193.570312 111.324219 196.414062 "/>
<path fill-rule="nonzero" fill="rgb(0%, 0%, 0%)" fill-opacity="1" stroke-width="0.773085" stroke-linecap="round" stroke-linejoin="round" stroke="rgb(0%, 0%, 0%)" stroke-opacity="1" stroke-miterlimit="10" d="M 115.558594 185.097656 C 115.558594 187.941406 111.292969 187.941406 111.292969 185.097656 C 111.292969 182.253906 115.558594 182.253906 115.558594 185.097656 "/>
<path fill-rule="nonzero" fill="rgb(0%, 0%, 0%)" fill-opacity="1" stroke-width="0.773085" stroke-linecap="round" stroke-linejoin="round" stroke="rgb(0%, 0%, 0%)" stroke-opacity="1" stroke-miterlimit="10" d="M 119.792969 178 C 119.792969 180.84375 115.527344 180.84375 115.527344 178 C 115.527344 175.15625 119.792969 175.15625 119.792969 178 "/>
<path fill-rule="nonzero" fill="rgb(0%, 0%, 0%)" fill-opacity="1" stroke-width="0.773085" stroke-linecap="round" stroke-linejoin="round" stroke="rgb(0%, 0%, 0%)" stroke-opacity="1" stroke-miterlimit="10" d="M 124.027344 169.152344 C 124.027344 171.996094 119.765625 171.996094 119.765625 169.152344 C 119.765625 166.308594 124.027344 166.308594 124.027344 169.152344 "/>
<path fill-rule="nonzero" fill="rgb(0%, 0%, 0%)" fill-opacity="1" stroke-width="0.773085" stroke-linecap="round" stroke-linejoin="round" stroke="rgb(0%, 0%, 0%)" stroke-opacity="1" stroke-miterlimit="10" d="M 128.265625 170.484375 C 128.265625 173.328125 124 173.328125 124 170.484375 C 124 167.640625 128.265625 167.640625 128.265625 170.484375 "/>
<path fill-rule="nonzero" fill="rgb(0%, 0%, 0%)" fill-opacity="1" stroke-width="0.773085" stroke-linecap="round" stroke-linejoin="round" stroke="rgb(0%, 0%, 0%)" stroke-opacity="1" stroke-miterlimit="10" d="M 132.5 172.972656 C 132.5 175.816406 128.234375 175.816406 128.234375 172.972656 C 128.234375 170.128906 132.5 170.128906 132.5 172.972656 "/>
<path fill-rule="nonzero" fill="rgb(0%, 0%, 0%)" fill-opacity="1" stroke-width="0.773085" stroke-linecap="round" stroke-linejoin="round" stroke="rgb(0%, 0%, 0%)" stroke-opacity="1" stroke-miterlimit="10" d="M 136.734375 171.796875 C 136.734375 174.640625 132.46875 174.640625 132.46875 171.796875 C 132.46875 168.953125 136.734375 168.953125 136.734375 171.796875 "/>
<path fill-rule="nonzero" fill="rgb(0%, 0%, 0%)" fill-opacity="1" stroke-width="0.773085" stroke-linecap="round" stroke-linejoin="round" stroke="rgb(0%, 0%, 0%)" stroke-opacity="1" stroke-miterlimit="10" d="M 140.96875 170.484375 C 140.96875 173.328125 136.703125 173.328125 136.703125 170.484375 C 136.703125 167.640625 140.96875 167.640625 140.96875 170.484375 "/>
<path fill-rule="nonzero" fill="rgb(0%, 0%, 0%)" fill-opacity="1" stroke-width="0.773085" stroke-linecap="round" stroke-linejoin="round" stroke="rgb(0%, 0%, 0%)" stroke-opacity="1" stroke-miterlimit="10" d="M 145.203125 165.988281 C 145.203125 168.832031 140.9375 168.832031 140.9375 165.988281 C 140.9375 163.144531 145.203125 163.144531 145.203125 165.988281 "/>
<path fill-rule="nonzero" fill="rgb(0%, 0%, 0%)" fill-opacity="1" stroke-width="0.773085" stroke-linecap="round" stroke-linejoin="round" stroke="rgb(0%, 0%, 0%)" stroke-opacity="1" stroke-miterlimit="10" d="M 149.4375 162.367188 C 149.4375 165.210938 145.171875 165.210938 145.171875 162.367188 C 145.171875 159.527344 149.4375 159.527344 149.4375 162.367188 "/>
<path fill-rule="nonzero" fill="rgb(0%, 0%, 0%)" fill-opacity="1" stroke-width="0.773085" stroke-linecap="round" stroke-linejoin="round" stroke="rgb(0%, 0%, 0%)" stroke-opacity="1" stroke-miterlimit="10" d="M 153.671875 160.589844 C 153.671875 163.429688 149.40625 163.429688 149.40625 160.589844 C 149.40625 157.746094 153.671875 157.746094 153.671875 160.589844 "/>
<path fill-rule="nonzero" fill="rgb(0%, 0%, 0%)" fill-opacity="1" stroke-width="0.773085" stroke-linecap="round" stroke-linejoin="round" stroke="rgb(0%, 0%, 0%)" stroke-opacity="1" stroke-miterlimit="10" d="M 157.90625 161.449219 C 157.90625 164.292969 153.644531 164.292969 153.644531 161.449219 C 153.644531 158.605469 157.90625 158.605469 157.90625 161.449219 "/>
<path fill-rule="nonzero" fill="rgb(0%, 0%, 0%)" fill-opacity="1" stroke-width="0.773085" stroke-linecap="round" stroke-linejoin="round" stroke="rgb(0%, 0%, 0%)" stroke-opacity="1" stroke-miterlimit="10" d="M 162.140625 158.277344 C 162.140625 161.121094 157.878906 161.121094 157.878906 158.277344 C 157.878906 155.433594 162.140625 155.433594 162.140625 158.277344 "/>
<path fill-rule="nonzero" fill="rgb(0%, 0%, 0%)" fill-opacity="1" stroke-width="0.773085" stroke-linecap="round" stroke-linejoin="round" stroke="rgb(0%, 0%, 0%)" stroke-opacity="1" stroke-miterlimit="10" d="M 166.378906 160.769531 C 166.378906 163.613281 162.113281 163.613281 162.113281 160.769531 C 162.113281 157.925781 166.378906 157.925781 166.378906 160.769531 "/>
<path fill-rule="nonzero" fill="rgb(0%, 0%, 0%)" fill-opacity="1" stroke-width="0.773085" stroke-linecap="round" stroke-linejoin="round" stroke="rgb(0%, 0%, 0%)" stroke-opacity="1" stroke-miterlimit="10" d="M 170.613281 157.949219 C 170.613281 160.792969 166.347656 160.792969 166.347656 157.949219 C 166.347656 155.105469 170.613281 155.105469 170.613281 157.949219 "/>
<path fill-rule="nonzero" fill="rgb(0%, 0%, 0%)" fill-opacity="1" stroke-width="0.773085" stroke-linecap="round" stroke-linejoin="round" stroke="rgb(0%, 0%, 0%)" stroke-opacity="1" stroke-miterlimit="10" d="M 174.847656 152.089844 C 174.847656 154.933594 170.582031 154.933594 170.582031 152.089844 C 170.582031 149.246094 174.847656 149.246094 174.847656 152.089844 "/>
<path fill-rule="nonzero" fill="rgb(0%, 0%, 0%)" fill-opacity="1" stroke-width="0.773085" stroke-linecap="round" stroke-linejoin="round" stroke="rgb(0%, 0%, 0%)" stroke-opacity="1" stroke-miterlimit="10" d="M 179.082031 153.121094 C 179.082031 155.964844 174.816406 155.964844 174.816406 153.121094 C 174.816406 150.277344 179.082031 150.277344 179.082031 153.121094 "/>
<path fill-rule="nonzero" fill="rgb(0%, 0%, 0%)" fill-opacity="1" stroke-width="0.773085" stroke-linecap="round" stroke-linejoin="round" stroke="rgb(0%, 0%, 0%)" stroke-opacity="1" stroke-miterlimit="10" d="M 183.316406 150.863281 C 183.316406 153.707031 179.050781 153.707031 179.050781 150.863281 C 179.050781 148.019531 183.316406 148.019531 183.316406 150.863281 "/>
<path fill-rule="nonzero" fill="rgb(0%, 0%, 0%)" fill-opacity="1" stroke-width="0.773085" stroke-linecap="round" stroke-linejoin="round" stroke="rgb(0%, 0%, 0%)" stroke-opacity="1" stroke-miterlimit="10" d="M 187.550781 150.726562 C 187.550781 153.570312 183.285156 153.570312 183.285156 150.726562 C 183.285156 147.882812 187.550781 147.882812 187.550781 150.726562 "/>
<path fill-rule="nonzero" fill="rgb(0%, 0%, 0%)" fill-opacity="1" stroke-width="0.773085" stroke-linecap="round" stroke-linejoin="round" stroke="rgb(0%, 0%, 0%)" stroke-opacity="1" stroke-miterlimit="10" d="M 191.785156 149.835938 C 191.785156 152.679688 187.519531 152.679688 187.519531 149.835938 C 187.519531 146.992188 191.785156 146.992188 191.785156 149.835938 "/>
<path fill-rule="nonzero" fill="rgb(0%, 0%, 0%)" fill-opacity="1" stroke-width="0.773085" stroke-linecap="round" stroke-linejoin="round" stroke="rgb(0%, 0%, 0%)" stroke-opacity="1" stroke-miterlimit="10" d="M 196.019531 154.375 C 196.019531 157.21875 191.757812 157.21875 191.757812 154.375 C 191.757812 151.53125 196.019531 151.53125 196.019531 154.375 "/>
<path fill-rule="nonzero" fill="rgb(0%, 0%, 0%)" fill-opacity="1" stroke-width="0.773085" stroke-linecap="round" stroke-linejoin="round" stroke="rgb(0%, 0%, 0%)" stroke-opacity="1" stroke-miterlimit="10" d="M 200.257812 154 C 200.257812 156.84375 195.992188 156.84375 195.992188 154 C 195.992188 151.15625 200.257812 151.15625 200.257812 154 "/>
<path fill-rule="nonzero" fill="rgb(0%, 0%, 0%)" fill-opacity="1" stroke-width="0.773085" stroke-linecap="round" stroke-linejoin="round" stroke="rgb(0%, 0%, 0%)" stroke-opacity="1" stroke-miterlimit="10" d="M 204.492188 149.117188 C 204.492188 151.960938 200.226562 151.960938 200.226562 149.117188 C 200.226562 146.277344 204.492188 146.277344 204.492188 149.117188 "/>
<path fill-rule="nonzero" fill="rgb(0%, 0%, 0%)" fill-opacity="1" stroke-width="0.773085" stroke-linecap="round" stroke-linejoin="round" stroke="rgb(0%, 0%, 0%)" stroke-opacity="1" stroke-miterlimit="10" d="M 208.726562 148.148438 C 208.726562 150.992188 204.460938 150.992188 204.460938 148.148438 C 204.460938 145.304688 208.726562 145.304688 208.726562 148.148438 "/>
<path fill-rule="nonzero" fill="rgb(0%, 0%, 0%)" fill-opacity="1" stroke-width="0.773085" stroke-linecap="round" stroke-linejoin="round" stroke="rgb(0%, 0%, 0%)" stroke-opacity="1" stroke-miterlimit="10" d="M 212.960938 147.570312 C 212.960938 150.414062 208.695312 150.414062 208.695312 147.570312 C 208.695312 144.726562 212.960938 144.726562 212.960938 147.570312 "/>
<path fill-rule="nonzero" fill="rgb(0%, 0%, 0%)" fill-opacity="1" stroke-width="0.773085" stroke-linecap="round" stroke-linejoin="round" stroke="rgb(0%, 0%, 0%)" stroke-opacity="1" stroke-miterlimit="10" d="M 217.195312 146.414062 C 217.195312 149.257812 212.929688 149.257812 212.929688 146.414062 C 212.929688 143.570312 217.195312 143.570312 217.195312 146.414062 "/>
<path fill-rule="nonzero" fill="rgb(0%, 0%, 0%)" fill-opacity="1" stroke-width="0.773085" stroke-linecap="round" stroke-linejoin="round" stroke="rgb(0%, 0%, 0%)" stroke-opacity="1" stroke-miterlimit="10" d="M 221.429688 147.503906 C 221.429688 150.347656 217.164062 150.347656 217.164062 147.503906 C 217.164062 144.660156 221.429688 144.660156 221.429688 147.503906 "/>
<path fill-rule="nonzero" fill="rgb(0%, 0%, 0%)" fill-opacity="1" stroke-width="0.773085" stroke-linecap="round" stroke-linejoin="round" stroke="rgb(0%, 0%, 0%)" stroke-opacity="1" stroke-miterlimit="10" d="M 225.664062 150.746094 C 225.664062 153.585938 221.398438 153.585938 221.398438 150.746094 C 221.398438 147.902344 225.664062 147.902344 225.664062 150.746094 "/>
<path fill-rule="nonzero" fill="rgb(0%, 0%, 0%)" fill-opacity="1" stroke-width="0.773085" stroke-linecap="round" stroke-linejoin="round" stroke="rgb(0%, 0%, 0%)" stroke-opacity="1" stroke-miterlimit="10" d="M 229.898438 153.160156 C 229.898438 156.003906 225.636719 156.003906 225.636719 153.160156 C 225.636719 150.316406 229.898438 150.316406 229.898438 153.160156 "/>
<path fill-rule="nonzero" fill="rgb(0%, 0%, 0%)" fill-opacity="1" stroke-width="0.773085" stroke-linecap="round" stroke-linejoin="round" stroke="rgb(0%, 0%, 0%)" stroke-opacity="1" stroke-miterlimit="10" d="M 234.136719 149.222656 C 234.136719 152.066406 229.871094 152.066406 229.871094 149.222656 C 229.871094 146.378906 234.136719 146.378906 234.136719 149.222656 "/>
<path fill-rule="nonzero" fill="rgb(0%, 0%, 0%)" fill-opacity="1" stroke-width="0.773085" stroke-linecap="round" stroke-linejoin="round" stroke="rgb(0%, 0%, 0%)" stroke-opacity="1" stroke-miterlimit="10" d="M 238.371094 147.917969 C 238.371094 150.761719 234.105469 150.761719 234.105469 147.917969 C 234.105469 145.074219 238.371094 145.074219 238.371094 147.917969 "/>
<path fill-rule="nonzero" fill="rgb(0%, 0%, 0%)" fill-opacity="1" stroke-width="0.773085" stroke-linecap="round" stroke-linejoin="round" stroke="rgb(0%, 0%, 0%)" stroke-opacity="1" stroke-miterlimit="10" d="M 242.605469 149.015625 C 242.605469 151.859375 238.339844 151.859375 238.339844 149.015625 C 238.339844 146.171875 242.605469 146.171875 242.605469 149.015625 "/>
<path fill-rule="nonzero" fill="rgb(0%, 0%, 0%)" fill-opacity="1" stroke-width="0.773085" stroke-linecap="round" stroke-linejoin="round" stroke="rgb(0%, 0%, 0%)" stroke-opacity="1" stroke-miterlimit="10" d="M 246.839844 150.199219 C 246.839844 153.042969 242.574219 153.042969 242.574219 150.199219 C 242.574219 147.359375 246.839844 147.359375 246.839844 150.199219 "/>
<path fill-rule="nonzero" fill="rgb(0%, 0%, 0%)" fill-opacity="1" stroke-width="0.773085" stroke-linecap="round" stroke-linejoin="round" stroke="rgb(0%, 0%, 0%)" stroke-opacity="1" stroke-miterlimit="10" d="M 251.074219 153.46875 C 251.074219 156.3125 246.808594 156.3125 246.808594 153.46875 C 246.808594 150.625 251.074219 150.625 251.074219 153.46875 "/>
<path fill-rule="nonzero" fill="rgb(0%, 0%, 0%)" fill-opacity="1" stroke-width="0.773085" stroke-linecap="round" stroke-linejoin="round" stroke="rgb(0%, 0%, 0%)" stroke-opacity="1" stroke-miterlimit="10" d="M 255.308594 155.761719 C 255.308594 158.605469 251.042969 158.605469 251.042969 155.761719 C 251.042969 152.917969 255.308594 152.917969 255.308594 155.761719 "/>
<path fill-rule="nonzero" fill="rgb(0%, 0%, 0%)" fill-opacity="1" stroke-width="0.773085" stroke-linecap="round" stroke-linejoin="round" stroke="rgb(0%, 0%, 0%)" stroke-opacity="1" stroke-miterlimit="10" d="M 259.542969 156.21875 C 259.542969 159.058594 255.277344 159.058594 255.277344 156.21875 C 255.277344 153.375 259.542969 153.375 259.542969 156.21875 "/>
<path fill-rule="nonzero" fill="rgb(0%, 0%, 0%)" fill-opacity="1" stroke-width="0.773085" stroke-linecap="round" stroke-linejoin="round" stroke="rgb(0%, 0%, 0%)" stroke-opacity="1" stroke-miterlimit="10" d="M 263.777344 153.804688 C 263.777344 156.648438 259.515625 156.648438 259.515625 153.804688 C 259.515625 150.964844 263.777344 150.964844 263.777344 153.804688 "/>
<path fill-rule="nonzero" fill="rgb(0%, 0%, 0%)" fill-opacity="1" stroke-width="0.773085" stroke-linecap="round" stroke-linejoin="round" stroke="rgb(0%, 0%, 0%)" stroke-opacity="1" stroke-miterlimit="10" d="M 268.015625 152.664062 C 268.015625 155.507812 263.75 155.507812 263.75 152.664062 C 263.75 149.820312 268.015625 149.820312 268.015625 152.664062 "/>
<path fill="none" stroke-width="1.066978" stroke-linecap="butt" stroke-linejoin="round" stroke="rgb(81.176471%, 87.843137%, 94.901961%)" stroke-opacity="1" stroke-miterlimit="10" d="M 52.445312 240.679688 L 52.445312 141.925781 "/>
<g fill="rgb(39.215686%, 45.882353%, 52.941176%)" fill-opacity="1">
<use xlink:href="#glyph-0-0" x="38.738281" y="240.128906"/>
</g>
<g fill="rgb(39.215686%, 45.882353%, 52.941176%)" fill-opacity="1">
<use xlink:href="#glyph-0-5" x="38.738281" y="214.390625"/>
</g>
<g fill="rgb(39.215686%, 45.882353%, 52.941176%)" fill-opacity="1">
<use xlink:href="#glyph-0-6" x="38.738281" y="188.652344"/>
</g>
<g fill="rgb(39.215686%, 45.882353%, 52.941176%)" fill-opacity="1">
<use xlink:href="#glyph-0-2" x="38.738281" y="162.914062"/>
</g>
<path fill="none" stroke-width="0.853583" stroke-linecap="butt" stroke-linejoin="round" stroke="rgb(81.176471%, 87.843137%, 94.901961%)" stroke-opacity="1" stroke-miterlimit="10" d="M 49.457031 236.191406 L 52.445312 236.191406 "/>
<path fill="none" stroke-width="0.853583" stroke-linecap="butt" stroke-linejoin="round" stroke="rgb(81.176471%, 87.843137%, 94.901961%)" stroke-opacity="1" stroke-miterlimit="10" d="M 49.457031 210.453125 L 52.445312 210.453125 "/>
<path fill="none" stroke-width="0.853583" stroke-linecap="butt" stroke-linejoin="round" stroke="rgb(81.176471%, 87.843137%, 94.901961%)" stroke-opacity="1" stroke-miterlimit="10" d="M 49.457031 184.714844 L 52.445312 184.714844 "/>
<path fill="none" stroke-width="0.853583" stroke-linecap="butt" stroke-linejoin="round" stroke="rgb(81.176471%, 87.843137%, 94.901961%)" stroke-opacity="1" stroke-miterlimit="10" d="M 49.457031 158.980469 L 52.445312 158.980469 "/>
<path fill="none" stroke-width="1.066978" stroke-linecap="butt" stroke-linejoin="round" stroke="rgb(81.176471%, 87.843137%, 94.901961%)" stroke-opacity="1" stroke-miterlimit="10" d="M 52.445312 240.679688 L 276.042969 240.679688 "/>
<path fill="none" stroke-width="0.853583" stroke-linecap="butt" stroke-linejoin="round" stroke="rgb(81.176471%, 87.843137%, 94.901961%)" stroke-opacity="1" stroke-miterlimit="10" d="M 58.375 243.667969 L 58.375 240.679688 "/>
<path fill="none" stroke-width="0.853583" stroke-linecap="butt" stroke-linejoin="round" stroke="rgb(81.176471%, 87.843137%, 94.901961%)" stroke-opacity="1" stroke-miterlimit="10" d="M 100.722656 243.667969 L 100.722656 240.679688 "/>
<path fill="none" stroke-width="0.853583" stroke-linecap="butt" stroke-linejoin="round" stroke="rgb(81.176471%, 87.843137%, 94.901961%)" stroke-opacity="1" stroke-miterlimit="10" d="M 143.070312 243.667969 L 143.070312 240.679688 "/>
<path fill="none" stroke-width="0.853583" stroke-linecap="butt" stroke-linejoin="round" stroke="rgb(81.176471%, 87.843137%, 94.901961%)" stroke-opacity="1" stroke-miterlimit="10" d="M 185.417969 243.667969 L 185.417969 240.679688 "/>
<path fill="none" stroke-width="0.853583" stroke-linecap="butt" stroke-linejoin="round" stroke="rgb(81.176471%, 87.843137%, 94.901961%)" stroke-opacity="1" stroke-miterlimit="10" d="M 227.769531 243.667969 L 227.769531 240.679688 "/>
<path fill="none" stroke-width="0.853583" stroke-linecap="butt" stroke-linejoin="round" stroke="rgb(81.176471%, 87.843137%, 94.901961%)" stroke-opacity="1" stroke-miterlimit="10" d="M 270.117188 243.667969 L 270.117188 240.679688 "/>
<g fill="rgb(39.215686%, 45.882353%, 52.941176%)" fill-opacity="1">
<use xlink:href="#glyph-0-0" x="55.707031" y="256.921875"/>
</g>
<g fill="rgb(39.215686%, 45.882353%, 52.941176%)" fill-opacity="1">
<use xlink:href="#glyph-0-4" x="95.382812" y="256.921875"/>
<use xlink:href="#glyph-0-0" x="100.721875" y="256.921875"/>
</g>
<g fill="rgb(39.215686%, 45.882353%, 52.941176%)" fill-opacity="1">
<use xlink:href="#glyph-0-5" x="137.730469" y="256.921875"/>
<use xlink:href="#glyph-0-0" x="143.069531" y="256.921875"/>
</g>
<g fill="rgb(39.215686%, 45.882353%, 52.941176%)" fill-opacity="1">
<use xlink:href="#glyph-0-1" x="180.078125" y="256.921875"/>
<use xlink:href="#glyph-0-0" x="185.417188" y="256.921875"/>
</g>
<g fill="rgb(39.215686%, 45.882353%, 52.941176%)" fill-opacity="1">
<use xlink:href="#glyph-0-6" x="222.429688" y="256.921875"/>
<use xlink:href="#glyph-0-0" x="227.76875" y="256.921875"/>
</g>
<g fill="rgb(39.215686%, 45.882353%, 52.941176%)" fill-opacity="1">
<use xlink:href="#glyph-0-7" x="264.777344" y="256.921875"/>
<use xlink:href="#glyph-0-0" x="270.116406" y="256.921875"/>
</g>
<g fill="rgb(25.882353%, 33.72549%, 41.960784%)" fill-opacity="1">
<use xlink:href="#glyph-2-0" x="153.574219" y="272.519531"/>
<use xlink:href="#glyph-2-1" x="162.240234" y="272.519531"/>
<use xlink:href="#glyph-2-2" x="168.914062" y="272.519531"/>
</g>
<g fill="rgb(25.882353%, 33.72549%, 41.960784%)" fill-opacity="1">
<use xlink:href="#glyph-1-6" x="21.546875" y="228.332031"/>
<use xlink:href="#glyph-1-7" x="21.546875" y="221.658203"/>
<use xlink:href="#glyph-1-8" x="21.546875" y="214.984375"/>
<use xlink:href="#glyph-1-9" x="21.546875" y="208.310547"/>
<use xlink:href="#glyph-1-3" x="21.546875" y="204.976562"/>
<use xlink:href="#glyph-1-1" x="21.546875" y="202.310547"/>
<use xlink:href="#glyph-1-2" x="21.546875" y="195.636719"/>
<use xlink:href="#glyph-1-3" x="21.546875" y="189.636719"/>
<use xlink:href="#glyph-1-4" x="21.546875" y="186.970703"/>
<use xlink:href="#glyph-1-5" x="21.546875" y="180.296875"/>
<use xlink:href="#glyph-1-1" x="21.546875" y="173.623047"/>
<use xlink:href="#glyph-1-2" x="21.546875" y="166.949219"/>
<use xlink:href="#glyph-1-5" x="21.546875" y="160.949219"/>
</g>
</svg>
